<?xml version="1.0" encoding="utf-8" standalone="no"?>
<!DOCTYPE svg PUBLIC "-//W3C//DTD SVG 1.1//EN"
  "http://www.w3.org/Graphics/SVG/1.1/DTD/svg11.dtd">
<svg xmlns:xlink="http://www.w3.org/1999/xlink" width="1000.358125pt" height="388.844525pt" viewBox="0 0 1000.358125 388.844525" xmlns="http://www.w3.org/2000/svg" version="1.1">
 <metadata>
  <rdf:RDF xmlns:dc="http://purl.org/dc/elements/1.1/" xmlns:cc="http://creativecommons.org/ns#" xmlns:rdf="http://www.w3.org/1999/02/22-rdf-syntax-ns#">
   <cc:Work>
    <dc:type rdf:resource="http://purl.org/dc/dcmitype/StillImage"/>
    <dc:date>2024-08-15T09:46:33.988887</dc:date>
    <dc:format>image/svg+xml</dc:format>
    <dc:creator>
     <cc:Agent>
      <dc:title>Matplotlib v3.8.2, https://matplotlib.org/</dc:title>
     </cc:Agent>
    </dc:creator>
   </cc:Work>
  </rdf:RDF>
 </metadata>
 <defs>
  <style type="text/css">*{stroke-linejoin: round; stroke-linecap: butt}</style>
 </defs>
 <g id="figure_1">
  <g id="axes_1">
   <g id="patch_1">
    <path d="M 32.968125 353.2239 
L 993.158125 353.2239 
L 993.158125 35.2559 
L 32.968125 35.2559 
z
" style="fill: #ffffff"/>
   </g>
   <g id="patch_2">
    <path d="M 32.968125 -918.6481 
L 993.158125 -918.6481 
L 993.158125 -6006.1361 
L 32.968125 -6006.1361 
z
" clip-path="url(#pab2c963416)" style="fill: #e6c3c3"/>
   </g>
   <g id="patch_3">
    <path d="M 32.968125 35.2559 
L 993.158125 35.2559 
L 993.158125 -918.6481 
L 32.968125 -918.6481 
z
" clip-path="url(#pab2c963416)" style="fill: #e6dcc3"/>
   </g>
   <g id="patch_4">
    <path d="M 32.968125 353.2239 
L 993.158125 353.2239 
L 993.158125 35.2559 
L 32.968125 35.2559 
z
" clip-path="url(#pab2c963416)" style="fill: #c3e6c3"/>
   </g>
   <g id="matplotlib.axis_1">
    <g id="xtick_1">
     <g id="text_1">
      <!-- 0 -->
      <g transform="translate(30.423125 366.30265) scale(0.08 -0.08)">
       <defs>
        <path id="DejaVuSans-30" d="M 2034 4250 
Q 1547 4250 1301 3770 
Q 1056 3291 1056 2328 
Q 1056 1369 1301 889 
Q 1547 409 2034 409 
Q 2525 409 2770 889 
Q 3016 1369 3016 2328 
Q 3016 3291 2770 3770 
Q 2525 4250 2034 4250 
z
M 2034 4750 
Q 2819 4750 3233 4129 
Q 3647 3509 3647 2328 
Q 3647 1150 3233 529 
Q 2819 -91 2034 -91 
Q 1250 -91 836 529 
Q 422 1150 422 2328 
Q 422 3509 836 4129 
Q 1250 4750 2034 4750 
z
" transform="scale(0.015625)"/>
       </defs>
       <use xlink:href="#DejaVuSans-30"/>
      </g>
     </g>
    </g>
    <g id="xtick_2">
     <g id="text_2">
      <!-- 20 -->
      <g transform="translate(149.845734 366.30265) scale(0.08 -0.08)">
       <defs>
        <path id="DejaVuSans-32" d="M 1228 531 
L 3431 531 
L 3431 0 
L 469 0 
L 469 531 
Q 828 903 1448 1529 
Q 2069 2156 2228 2338 
Q 2531 2678 2651 2914 
Q 2772 3150 2772 3378 
Q 2772 3750 2511 3984 
Q 2250 4219 1831 4219 
Q 1534 4219 1204 4116 
Q 875 4013 500 3803 
L 500 4441 
Q 881 4594 1212 4672 
Q 1544 4750 1819 4750 
Q 2544 4750 2975 4387 
Q 3406 4025 3406 3419 
Q 3406 3131 3298 2873 
Q 3191 2616 2906 2266 
Q 2828 2175 2409 1742 
Q 1991 1309 1228 531 
z
" transform="scale(0.015625)"/>
       </defs>
       <use xlink:href="#DejaVuSans-32"/>
       <use xlink:href="#DejaVuSans-30" x="63.623047"/>
      </g>
     </g>
    </g>
    <g id="xtick_3">
     <g id="text_3">
      <!-- 40 -->
      <g transform="translate(271.813343 366.30265) scale(0.08 -0.08)">
       <defs>
        <path id="DejaVuSans-34" d="M 2419 4116 
L 825 1625 
L 2419 1625 
L 2419 4116 
z
M 2253 4666 
L 3047 4666 
L 3047 1625 
L 3713 1625 
L 3713 1100 
L 3047 1100 
L 3047 0 
L 2419 0 
L 2419 1100 
L 313 1100 
L 313 1709 
L 2253 4666 
z
" transform="scale(0.015625)"/>
       </defs>
       <use xlink:href="#DejaVuSans-34"/>
       <use xlink:href="#DejaVuSans-30" x="63.623047"/>
      </g>
     </g>
    </g>
    <g id="xtick_4">
     <g id="text_4">
      <!-- 60 -->
      <g transform="translate(393.780951 366.30265) scale(0.08 -0.08)">
       <defs>
        <path id="DejaVuSans-36" d="M 2113 2584 
Q 1688 2584 1439 2293 
Q 1191 2003 1191 1497 
Q 1191 994 1439 701 
Q 1688 409 2113 409 
Q 2538 409 2786 701 
Q 3034 994 3034 1497 
Q 3034 2003 2786 2293 
Q 2538 2584 2113 2584 
z
M 3366 4563 
L 3366 3988 
Q 3128 4100 2886 4159 
Q 2644 4219 2406 4219 
Q 1781 4219 1451 3797 
Q 1122 3375 1075 2522 
Q 1259 2794 1537 2939 
Q 1816 3084 2150 3084 
Q 2853 3084 3261 2657 
Q 3669 2231 3669 1497 
Q 3669 778 3244 343 
Q 2819 -91 2113 -91 
Q 1303 -91 875 529 
Q 447 1150 447 2328 
Q 447 3434 972 4092 
Q 1497 4750 2381 4750 
Q 2619 4750 2861 4703 
Q 3103 4656 3366 4563 
z
" transform="scale(0.015625)"/>
       </defs>
       <use xlink:href="#DejaVuSans-36"/>
       <use xlink:href="#DejaVuSans-30" x="63.623047"/>
      </g>
     </g>
    </g>
    <g id="xtick_5">
     <g id="text_5">
      <!-- 80 -->
      <g transform="translate(515.74856 366.30265) scale(0.08 -0.08)">
       <defs>
        <path id="DejaVuSans-38" d="M 2034 2216 
Q 1584 2216 1326 1975 
Q 1069 1734 1069 1313 
Q 1069 891 1326 650 
Q 1584 409 2034 409 
Q 2484 409 2743 651 
Q 3003 894 3003 1313 
Q 3003 1734 2745 1975 
Q 2488 2216 2034 2216 
z
M 1403 2484 
Q 997 2584 770 2862 
Q 544 3141 544 3541 
Q 544 4100 942 4425 
Q 1341 4750 2034 4750 
Q 2731 4750 3128 4425 
Q 3525 4100 3525 3541 
Q 3525 3141 3298 2862 
Q 3072 2584 2669 2484 
Q 3125 2378 3379 2068 
Q 3634 1759 3634 1313 
Q 3634 634 3220 271 
Q 2806 -91 2034 -91 
Q 1263 -91 848 271 
Q 434 634 434 1313 
Q 434 1759 690 2068 
Q 947 2378 1403 2484 
z
M 1172 3481 
Q 1172 3119 1398 2916 
Q 1625 2713 2034 2713 
Q 2441 2713 2670 2916 
Q 2900 3119 2900 3481 
Q 2900 3844 2670 4047 
Q 2441 4250 2034 4250 
Q 1625 4250 1398 4047 
Q 1172 3844 1172 3481 
z
" transform="scale(0.015625)"/>
       </defs>
       <use xlink:href="#DejaVuSans-38"/>
       <use xlink:href="#DejaVuSans-30" x="63.623047"/>
      </g>
     </g>
    </g>
    <g id="xtick_6">
     <g id="text_6">
      <!-- 100 -->
      <g transform="translate(635.171169 366.30265) scale(0.08 -0.08)">
       <defs>
        <path id="DejaVuSans-31" d="M 794 531 
L 1825 531 
L 1825 4091 
L 703 3866 
L 703 4441 
L 1819 4666 
L 2450 4666 
L 2450 531 
L 3481 531 
L 3481 0 
L 794 0 
L 794 531 
z
" transform="scale(0.015625)"/>
       </defs>
       <use xlink:href="#DejaVuSans-31"/>
       <use xlink:href="#DejaVuSans-30" x="63.623047"/>
       <use xlink:href="#DejaVuSans-30" x="127.246094"/>
      </g>
     </g>
    </g>
    <g id="xtick_7">
     <g id="text_7">
      <!-- 120 -->
      <g transform="translate(757.138778 366.30265) scale(0.08 -0.08)">
       <use xlink:href="#DejaVuSans-31"/>
       <use xlink:href="#DejaVuSans-32" x="63.623047"/>
       <use xlink:href="#DejaVuSans-30" x="127.246094"/>
      </g>
     </g>
    </g>
    <g id="xtick_8">
     <g id="text_8">
      <!-- 140 -->
      <g transform="translate(879.106386 366.30265) scale(0.08 -0.08)">
       <use xlink:href="#DejaVuSans-31"/>
       <use xlink:href="#DejaVuSans-34" x="63.623047"/>
       <use xlink:href="#DejaVuSans-30" x="127.246094"/>
      </g>
     </g>
    </g>
    <g id="text_9">
     <!-- Position in Read (bp) -->
     <g transform="translate(461.46 379.564837) scale(0.1 -0.1)">
      <defs>
       <path id="DejaVuSans-50" d="M 1259 4147 
L 1259 2394 
L 2053 2394 
Q 2494 2394 2734 2622 
Q 2975 2850 2975 3272 
Q 2975 3691 2734 3919 
Q 2494 4147 2053 4147 
L 1259 4147 
z
M 628 4666 
L 2053 4666 
Q 2838 4666 3239 4311 
Q 3641 3956 3641 3272 
Q 3641 2581 3239 2228 
Q 2838 1875 2053 1875 
L 1259 1875 
L 1259 0 
L 628 0 
L 628 4666 
z
" transform="scale(0.015625)"/>
       <path id="DejaVuSans-6f" d="M 1959 3097 
Q 1497 3097 1228 2736 
Q 959 2375 959 1747 
Q 959 1119 1226 758 
Q 1494 397 1959 397 
Q 2419 397 2687 759 
Q 2956 1122 2956 1747 
Q 2956 2369 2687 2733 
Q 2419 3097 1959 3097 
z
M 1959 3584 
Q 2709 3584 3137 3096 
Q 3566 2609 3566 1747 
Q 3566 888 3137 398 
Q 2709 -91 1959 -91 
Q 1206 -91 779 398 
Q 353 888 353 1747 
Q 353 2609 779 3096 
Q 1206 3584 1959 3584 
z
" transform="scale(0.015625)"/>
       <path id="DejaVuSans-73" d="M 2834 3397 
L 2834 2853 
Q 2591 2978 2328 3040 
Q 2066 3103 1784 3103 
Q 1356 3103 1142 2972 
Q 928 2841 928 2578 
Q 928 2378 1081 2264 
Q 1234 2150 1697 2047 
L 1894 2003 
Q 2506 1872 2764 1633 
Q 3022 1394 3022 966 
Q 3022 478 2636 193 
Q 2250 -91 1575 -91 
Q 1294 -91 989 -36 
Q 684 19 347 128 
L 347 722 
Q 666 556 975 473 
Q 1284 391 1588 391 
Q 1994 391 2212 530 
Q 2431 669 2431 922 
Q 2431 1156 2273 1281 
Q 2116 1406 1581 1522 
L 1381 1569 
Q 847 1681 609 1914 
Q 372 2147 372 2553 
Q 372 3047 722 3315 
Q 1072 3584 1716 3584 
Q 2034 3584 2315 3537 
Q 2597 3491 2834 3397 
z
" transform="scale(0.015625)"/>
       <path id="DejaVuSans-69" d="M 603 3500 
L 1178 3500 
L 1178 0 
L 603 0 
L 603 3500 
z
M 603 4863 
L 1178 4863 
L 1178 4134 
L 603 4134 
L 603 4863 
z
" transform="scale(0.015625)"/>
       <path id="DejaVuSans-74" d="M 1172 4494 
L 1172 3500 
L 2356 3500 
L 2356 3053 
L 1172 3053 
L 1172 1153 
Q 1172 725 1289 603 
Q 1406 481 1766 481 
L 2356 481 
L 2356 0 
L 1766 0 
Q 1100 0 847 248 
Q 594 497 594 1153 
L 594 3053 
L 172 3053 
L 172 3500 
L 594 3500 
L 594 4494 
L 1172 4494 
z
" transform="scale(0.015625)"/>
       <path id="DejaVuSans-6e" d="M 3513 2113 
L 3513 0 
L 2938 0 
L 2938 2094 
Q 2938 2591 2744 2837 
Q 2550 3084 2163 3084 
Q 1697 3084 1428 2787 
Q 1159 2491 1159 1978 
L 1159 0 
L 581 0 
L 581 3500 
L 1159 3500 
L 1159 2956 
Q 1366 3272 1645 3428 
Q 1925 3584 2291 3584 
Q 2894 3584 3203 3211 
Q 3513 2838 3513 2113 
z
" transform="scale(0.015625)"/>
       <path id="DejaVuSans-20" transform="scale(0.015625)"/>
       <path id="DejaVuSans-52" d="M 2841 2188 
Q 3044 2119 3236 1894 
Q 3428 1669 3622 1275 
L 4263 0 
L 3584 0 
L 2988 1197 
Q 2756 1666 2539 1819 
Q 2322 1972 1947 1972 
L 1259 1972 
L 1259 0 
L 628 0 
L 628 4666 
L 2053 4666 
Q 2853 4666 3247 4331 
Q 3641 3997 3641 3322 
Q 3641 2881 3436 2590 
Q 3231 2300 2841 2188 
z
M 1259 4147 
L 1259 2491 
L 2053 2491 
Q 2509 2491 2742 2702 
Q 2975 2913 2975 3322 
Q 2975 3731 2742 3939 
Q 2509 4147 2053 4147 
L 1259 4147 
z
" transform="scale(0.015625)"/>
       <path id="DejaVuSans-65" d="M 3597 1894 
L 3597 1613 
L 953 1613 
Q 991 1019 1311 708 
Q 1631 397 2203 397 
Q 2534 397 2845 478 
Q 3156 559 3463 722 
L 3463 178 
Q 3153 47 2828 -22 
Q 2503 -91 2169 -91 
Q 1331 -91 842 396 
Q 353 884 353 1716 
Q 353 2575 817 3079 
Q 1281 3584 2069 3584 
Q 2775 3584 3186 3129 
Q 3597 2675 3597 1894 
z
M 3022 2063 
Q 3016 2534 2758 2815 
Q 2500 3097 2075 3097 
Q 1594 3097 1305 2825 
Q 1016 2553 972 2059 
L 3022 2063 
z
" transform="scale(0.015625)"/>
       <path id="DejaVuSans-61" d="M 2194 1759 
Q 1497 1759 1228 1600 
Q 959 1441 959 1056 
Q 959 750 1161 570 
Q 1363 391 1709 391 
Q 2188 391 2477 730 
Q 2766 1069 2766 1631 
L 2766 1759 
L 2194 1759 
z
M 3341 1997 
L 3341 0 
L 2766 0 
L 2766 531 
Q 2569 213 2275 61 
Q 1981 -91 1556 -91 
Q 1019 -91 701 211 
Q 384 513 384 1019 
Q 384 1609 779 1909 
Q 1175 2209 1959 2209 
L 2766 2209 
L 2766 2266 
Q 2766 2663 2505 2880 
Q 2244 3097 1772 3097 
Q 1472 3097 1187 3025 
Q 903 2953 641 2809 
L 641 3341 
Q 956 3463 1253 3523 
Q 1550 3584 1831 3584 
Q 2591 3584 2966 3190 
Q 3341 2797 3341 1997 
z
" transform="scale(0.015625)"/>
       <path id="DejaVuSans-64" d="M 2906 2969 
L 2906 4863 
L 3481 4863 
L 3481 0 
L 2906 0 
L 2906 525 
Q 2725 213 2448 61 
Q 2172 -91 1784 -91 
Q 1150 -91 751 415 
Q 353 922 353 1747 
Q 353 2572 751 3078 
Q 1150 3584 1784 3584 
Q 2172 3584 2448 3432 
Q 2725 3281 2906 2969 
z
M 947 1747 
Q 947 1113 1208 752 
Q 1469 391 1925 391 
Q 2381 391 2643 752 
Q 2906 1113 2906 1747 
Q 2906 2381 2643 2742 
Q 2381 3103 1925 3103 
Q 1469 3103 1208 2742 
Q 947 2381 947 1747 
z
" transform="scale(0.015625)"/>
       <path id="DejaVuSans-28" d="M 1984 4856 
Q 1566 4138 1362 3434 
Q 1159 2731 1159 2009 
Q 1159 1288 1364 580 
Q 1569 -128 1984 -844 
L 1484 -844 
Q 1016 -109 783 600 
Q 550 1309 550 2009 
Q 550 2706 781 3412 
Q 1013 4119 1484 4856 
L 1984 4856 
z
" transform="scale(0.015625)"/>
       <path id="DejaVuSans-62" d="M 3116 1747 
Q 3116 2381 2855 2742 
Q 2594 3103 2138 3103 
Q 1681 3103 1420 2742 
Q 1159 2381 1159 1747 
Q 1159 1113 1420 752 
Q 1681 391 2138 391 
Q 2594 391 2855 752 
Q 3116 1113 3116 1747 
z
M 1159 2969 
Q 1341 3281 1617 3432 
Q 1894 3584 2278 3584 
Q 2916 3584 3314 3078 
Q 3713 2572 3713 1747 
Q 3713 922 3314 415 
Q 2916 -91 2278 -91 
Q 1894 -91 1617 61 
Q 1341 213 1159 525 
L 1159 0 
L 581 0 
L 581 4863 
L 1159 4863 
L 1159 2969 
z
" transform="scale(0.015625)"/>
       <path id="DejaVuSans-70" d="M 1159 525 
L 1159 -1331 
L 581 -1331 
L 581 3500 
L 1159 3500 
L 1159 2969 
Q 1341 3281 1617 3432 
Q 1894 3584 2278 3584 
Q 2916 3584 3314 3078 
Q 3713 2572 3713 1747 
Q 3713 922 3314 415 
Q 2916 -91 2278 -91 
Q 1894 -91 1617 61 
Q 1341 213 1159 525 
z
M 3116 1747 
Q 3116 2381 2855 2742 
Q 2594 3103 2138 3103 
Q 1681 3103 1420 2742 
Q 1159 2381 1159 1747 
Q 1159 1113 1420 752 
Q 1681 391 2138 391 
Q 2594 391 2855 752 
Q 3116 1113 3116 1747 
z
" transform="scale(0.015625)"/>
       <path id="DejaVuSans-29" d="M 513 4856 
L 1013 4856 
Q 1481 4119 1714 3412 
Q 1947 2706 1947 2009 
Q 1947 1309 1714 600 
Q 1481 -109 1013 -844 
L 513 -844 
Q 928 -128 1133 580 
Q 1338 1288 1338 2009 
Q 1338 2731 1133 3434 
Q 928 4138 513 4856 
z
" transform="scale(0.015625)"/>
      </defs>
      <use xlink:href="#DejaVuSans-50"/>
      <use xlink:href="#DejaVuSans-6f" x="56.677734"/>
      <use xlink:href="#DejaVuSans-73" x="117.859375"/>
      <use xlink:href="#DejaVuSans-69" x="169.958984"/>
      <use xlink:href="#DejaVuSans-74" x="197.742188"/>
      <use xlink:href="#DejaVuSans-69" x="236.951172"/>
      <use xlink:href="#DejaVuSans-6f" x="264.734375"/>
      <use xlink:href="#DejaVuSans-6e" x="325.916016"/>
      <use xlink:href="#DejaVuSans-20" x="389.294922"/>
      <use xlink:href="#DejaVuSans-69" x="421.082031"/>
      <use xlink:href="#DejaVuSans-6e" x="448.865234"/>
      <use xlink:href="#DejaVuSans-20" x="512.244141"/>
      <use xlink:href="#DejaVuSans-52" x="544.03125"/>
      <use xlink:href="#DejaVuSans-65" x="609.013672"/>
      <use xlink:href="#DejaVuSans-61" x="670.537109"/>
      <use xlink:href="#DejaVuSans-64" x="731.816406"/>
      <use xlink:href="#DejaVuSans-20" x="795.292969"/>
      <use xlink:href="#DejaVuSans-28" x="827.080078"/>
      <use xlink:href="#DejaVuSans-62" x="866.09375"/>
      <use xlink:href="#DejaVuSans-70" x="929.570312"/>
      <use xlink:href="#DejaVuSans-29" x="993.046875"/>
     </g>
    </g>
   </g>
   <g id="matplotlib.axis_2">
    <g id="ytick_1">
     <g id="line2d_1">
      <path d="M 32.968125 353.2239 
L 993.158125 353.2239 
" clip-path="url(#pab2c963416)" style="fill: none; stroke: #dedede; stroke-linecap: square"/>
     </g>
     <g id="text_10">
      <!-- 0 -->
      <g transform="translate(20.878125 356.263275) scale(0.08 -0.08)">
       <use xlink:href="#DejaVuSans-30"/>
      </g>
     </g>
    </g>
    <g id="ytick_2">
     <g id="line2d_2">
      <path d="M 32.968125 289.6303 
L 993.158125 289.6303 
" clip-path="url(#pab2c963416)" style="fill: none; stroke: #dedede; stroke-linecap: square"/>
     </g>
     <g id="text_11">
      <!-- 1 -->
      <g transform="translate(20.878125 292.669675) scale(0.08 -0.08)">
       <use xlink:href="#DejaVuSans-31"/>
      </g>
     </g>
    </g>
    <g id="ytick_3">
     <g id="line2d_3">
      <path d="M 32.968125 226.0367 
L 993.158125 226.0367 
" clip-path="url(#pab2c963416)" style="fill: none; stroke: #dedede; stroke-linecap: square"/>
     </g>
     <g id="text_12">
      <!-- 2 -->
      <g transform="translate(20.878125 229.076075) scale(0.08 -0.08)">
       <use xlink:href="#DejaVuSans-32"/>
      </g>
     </g>
    </g>
    <g id="ytick_4">
     <g id="line2d_4">
      <path d="M 32.968125 162.4431 
L 993.158125 162.4431 
" clip-path="url(#pab2c963416)" style="fill: none; stroke: #dedede; stroke-linecap: square"/>
     </g>
     <g id="text_13">
      <!-- 3 -->
      <g transform="translate(20.878125 165.482475) scale(0.08 -0.08)">
       <defs>
        <path id="DejaVuSans-33" d="M 2597 2516 
Q 3050 2419 3304 2112 
Q 3559 1806 3559 1356 
Q 3559 666 3084 287 
Q 2609 -91 1734 -91 
Q 1441 -91 1130 -33 
Q 819 25 488 141 
L 488 750 
Q 750 597 1062 519 
Q 1375 441 1716 441 
Q 2309 441 2620 675 
Q 2931 909 2931 1356 
Q 2931 1769 2642 2001 
Q 2353 2234 1838 2234 
L 1294 2234 
L 1294 2753 
L 1863 2753 
Q 2328 2753 2575 2939 
Q 2822 3125 2822 3475 
Q 2822 3834 2567 4026 
Q 2313 4219 1838 4219 
Q 1578 4219 1281 4162 
Q 984 4106 628 3988 
L 628 4550 
Q 988 4650 1302 4700 
Q 1616 4750 1894 4750 
Q 2613 4750 3031 4423 
Q 3450 4097 3450 3541 
Q 3450 3153 3228 2886 
Q 3006 2619 2597 2516 
z
" transform="scale(0.015625)"/>
       </defs>
       <use xlink:href="#DejaVuSans-33"/>
      </g>
     </g>
    </g>
    <g id="ytick_5">
     <g id="line2d_5">
      <path d="M 32.968125 98.8495 
L 993.158125 98.8495 
" clip-path="url(#pab2c963416)" style="fill: none; stroke: #dedede; stroke-linecap: square"/>
     </g>
     <g id="text_14">
      <!-- 4 -->
      <g transform="translate(20.878125 101.888875) scale(0.08 -0.08)">
       <use xlink:href="#DejaVuSans-34"/>
      </g>
     </g>
    </g>
    <g id="ytick_6">
     <g id="line2d_6">
      <path d="M 32.968125 35.2559 
L 993.158125 35.2559 
" clip-path="url(#pab2c963416)" style="fill: none; stroke: #dedede; stroke-linecap: square"/>
     </g>
     <g id="text_15">
      <!-- 5 -->
      <g transform="translate(20.878125 38.295275) scale(0.08 -0.08)">
       <defs>
        <path id="DejaVuSans-35" d="M 691 4666 
L 3169 4666 
L 3169 4134 
L 1269 4134 
L 1269 2991 
Q 1406 3038 1543 3061 
Q 1681 3084 1819 3084 
Q 2600 3084 3056 2656 
Q 3513 2228 3513 1497 
Q 3513 744 3044 326 
Q 2575 -91 1722 -91 
Q 1428 -91 1123 -41 
Q 819 9 494 109 
L 494 744 
Q 775 591 1075 516 
Q 1375 441 1709 441 
Q 2250 441 2565 725 
Q 2881 1009 2881 1497 
Q 2881 1984 2565 2268 
Q 2250 2553 1709 2553 
Q 1456 2553 1204 2497 
Q 953 2441 691 2322 
L 691 4666 
z
" transform="scale(0.015625)"/>
       </defs>
       <use xlink:href="#DejaVuSans-35"/>
      </g>
     </g>
    </g>
    <g id="text_16">
     <!-- Percentage N-Count -->
     <g transform="translate(14.798438 244.344588) rotate(-90) scale(0.1 -0.1)">
      <defs>
       <path id="DejaVuSans-72" d="M 2631 2963 
Q 2534 3019 2420 3045 
Q 2306 3072 2169 3072 
Q 1681 3072 1420 2755 
Q 1159 2438 1159 1844 
L 1159 0 
L 581 0 
L 581 3500 
L 1159 3500 
L 1159 2956 
Q 1341 3275 1631 3429 
Q 1922 3584 2338 3584 
Q 2397 3584 2469 3576 
Q 2541 3569 2628 3553 
L 2631 2963 
z
" transform="scale(0.015625)"/>
       <path id="DejaVuSans-63" d="M 3122 3366 
L 3122 2828 
Q 2878 2963 2633 3030 
Q 2388 3097 2138 3097 
Q 1578 3097 1268 2742 
Q 959 2388 959 1747 
Q 959 1106 1268 751 
Q 1578 397 2138 397 
Q 2388 397 2633 464 
Q 2878 531 3122 666 
L 3122 134 
Q 2881 22 2623 -34 
Q 2366 -91 2075 -91 
Q 1284 -91 818 406 
Q 353 903 353 1747 
Q 353 2603 823 3093 
Q 1294 3584 2113 3584 
Q 2378 3584 2631 3529 
Q 2884 3475 3122 3366 
z
" transform="scale(0.015625)"/>
       <path id="DejaVuSans-67" d="M 2906 1791 
Q 2906 2416 2648 2759 
Q 2391 3103 1925 3103 
Q 1463 3103 1205 2759 
Q 947 2416 947 1791 
Q 947 1169 1205 825 
Q 1463 481 1925 481 
Q 2391 481 2648 825 
Q 2906 1169 2906 1791 
z
M 3481 434 
Q 3481 -459 3084 -895 
Q 2688 -1331 1869 -1331 
Q 1566 -1331 1297 -1286 
Q 1028 -1241 775 -1147 
L 775 -588 
Q 1028 -725 1275 -790 
Q 1522 -856 1778 -856 
Q 2344 -856 2625 -561 
Q 2906 -266 2906 331 
L 2906 616 
Q 2728 306 2450 153 
Q 2172 0 1784 0 
Q 1141 0 747 490 
Q 353 981 353 1791 
Q 353 2603 747 3093 
Q 1141 3584 1784 3584 
Q 2172 3584 2450 3431 
Q 2728 3278 2906 2969 
L 2906 3500 
L 3481 3500 
L 3481 434 
z
" transform="scale(0.015625)"/>
       <path id="DejaVuSans-4e" d="M 628 4666 
L 1478 4666 
L 3547 763 
L 3547 4666 
L 4159 4666 
L 4159 0 
L 3309 0 
L 1241 3903 
L 1241 0 
L 628 0 
L 628 4666 
z
" transform="scale(0.015625)"/>
       <path id="DejaVuSans-2d" d="M 313 2009 
L 1997 2009 
L 1997 1497 
L 313 1497 
L 313 2009 
z
" transform="scale(0.015625)"/>
       <path id="DejaVuSans-43" d="M 4122 4306 
L 4122 3641 
Q 3803 3938 3442 4084 
Q 3081 4231 2675 4231 
Q 1875 4231 1450 3742 
Q 1025 3253 1025 2328 
Q 1025 1406 1450 917 
Q 1875 428 2675 428 
Q 3081 428 3442 575 
Q 3803 722 4122 1019 
L 4122 359 
Q 3791 134 3420 21 
Q 3050 -91 2638 -91 
Q 1578 -91 968 557 
Q 359 1206 359 2328 
Q 359 3453 968 4101 
Q 1578 4750 2638 4750 
Q 3056 4750 3426 4639 
Q 3797 4528 4122 4306 
z
" transform="scale(0.015625)"/>
       <path id="DejaVuSans-75" d="M 544 1381 
L 544 3500 
L 1119 3500 
L 1119 1403 
Q 1119 906 1312 657 
Q 1506 409 1894 409 
Q 2359 409 2629 706 
Q 2900 1003 2900 1516 
L 2900 3500 
L 3475 3500 
L 3475 0 
L 2900 0 
L 2900 538 
Q 2691 219 2414 64 
Q 2138 -91 1772 -91 
Q 1169 -91 856 284 
Q 544 659 544 1381 
z
M 1991 3584 
L 1991 3584 
z
" transform="scale(0.015625)"/>
      </defs>
      <use xlink:href="#DejaVuSans-50"/>
      <use xlink:href="#DejaVuSans-65" x="56.677734"/>
      <use xlink:href="#DejaVuSans-72" x="118.201172"/>
      <use xlink:href="#DejaVuSans-63" x="157.064453"/>
      <use xlink:href="#DejaVuSans-65" x="212.044922"/>
      <use xlink:href="#DejaVuSans-6e" x="273.568359"/>
      <use xlink:href="#DejaVuSans-74" x="336.947266"/>
      <use xlink:href="#DejaVuSans-61" x="376.15625"/>
      <use xlink:href="#DejaVuSans-67" x="437.435547"/>
      <use xlink:href="#DejaVuSans-65" x="500.912109"/>
      <use xlink:href="#DejaVuSans-20" x="562.435547"/>
      <use xlink:href="#DejaVuSans-4e" x="594.222656"/>
      <use xlink:href="#DejaVuSans-2d" x="669.027344"/>
      <use xlink:href="#DejaVuSans-43" x="705.111328"/>
      <use xlink:href="#DejaVuSans-6f" x="774.935547"/>
      <use xlink:href="#DejaVuSans-75" x="836.117188"/>
      <use xlink:href="#DejaVuSans-6e" x="899.496094"/>
      <use xlink:href="#DejaVuSans-74" x="962.875"/>
     </g>
    </g>
   </g>
   <g id="line2d_7">
    <path d="M 39.066505 310.321532 
L 45.164886 353.045206 
L 51.263266 351.429746 
L 57.361647 353.2239 
L 63.460027 353.093764 
L 69.558408 353.2239 
L 75.656788 353.164243 
L 81.755169 353.2239 
L 87.853549 353.2239 
L 106.14869 353.146096 
L 136.640592 353.221458 
L 167.132495 353.210415 
L 197.624397 353.223734 
L 228.116299 353.194874 
L 258.608201 353.148916 
L 289.100103 353.200698 
L 319.592006 353.167108 
L 350.083908 353.084135 
L 380.57581 353.168909 
L 411.067712 353.135419 
L 441.559614 353.146455 
L 472.051517 353.177797 
L 502.543419 353.101411 
L 533.035321 353.0842 
L 563.527223 353.107968 
L 594.019125 353.196772 
L 624.511028 353.170554 
L 655.00293 353.128063 
L 685.494832 353.13874 
L 715.986734 353.164813 
L 746.478636 353.164637 
L 776.970538 353.092599 
L 807.462441 353.162554 
L 837.954343 353.092954 
L 868.446245 353.165167 
L 898.938147 353.211348 
L 929.430049 353.20686 
L 947.725191 353.2239 
" clip-path="url(#pab2c963416)" style="fill: none; stroke: #5cb85c; stroke-linecap: square"/>
   </g>
   <g id="line2d_8">
    <path d="M 39.066505 276.637997 
L 45.164886 349.406953 
L 51.263266 353.216963 
L 57.361647 353.076006 
L 63.460027 353.10847 
L 69.558408 353.201979 
L 75.656788 353.012186 
L 81.755169 353.187551 
L 87.853549 353.119292 
L 106.14869 353.169848 
L 136.640592 353.063464 
L 167.132495 353.112265 
L 197.624397 353.007418 
L 228.116299 353.187434 
L 258.608201 353.021087 
L 289.100103 353.027338 
L 319.592006 353.058602 
L 350.083908 352.902722 
L 380.57581 352.998966 
L 411.067712 353.125935 
L 441.559614 353.055738 
L 472.051517 353.014194 
L 502.543419 352.983636 
L 533.035321 353.020327 
L 563.527223 352.86081 
L 594.019125 353.036421 
L 624.511028 353.130492 
L 655.00293 352.973517 
L 685.494832 353.097261 
L 715.986734 353.077969 
L 746.478636 353.017582 
L 776.970538 353.124904 
L 807.462441 353.162573 
L 837.954343 353.119164 
L 868.446245 353.174083 
L 898.938147 344.838885 
L 929.430049 353.223217 
L 947.725191 353.2239 
" clip-path="url(#pab2c963416)" style="fill: none; stroke: #5cb85c; stroke-linecap: square"/>
   </g>
   <g id="line2d_9">
    <path d="M 39.066505 312.611251 
L 45.164886 353.057089 
L 51.263266 351.486768 
L 57.361647 353.2239 
L 63.460027 353.085588 
L 69.558408 353.2239 
L 75.656788 353.174223 
L 81.755169 353.2239 
L 87.853549 353.2239 
L 106.14869 353.148757 
L 136.640592 353.221808 
L 167.132495 353.21182 
L 197.624397 353.223691 
L 228.116299 353.197587 
L 258.608201 353.151895 
L 289.100103 353.199916 
L 319.592006 353.166175 
L 350.083908 353.090331 
L 380.57581 353.171272 
L 411.067712 353.134285 
L 441.559614 353.147845 
L 472.051517 353.175979 
L 502.543419 353.106502 
L 533.035321 353.085552 
L 563.527223 353.106723 
L 594.019125 353.195979 
L 624.511028 353.169368 
L 655.00293 353.133274 
L 685.494832 353.140619 
L 715.986734 353.167958 
L 746.478636 353.166738 
L 776.970538 353.100901 
L 807.462441 353.168366 
L 837.954343 353.095219 
L 868.446245 353.171423 
L 898.938147 353.212383 
L 929.430049 353.209878 
L 947.725191 353.2239 
" clip-path="url(#pab2c963416)" style="fill: none; stroke: #5cb85c; stroke-linecap: square"/>
   </g>
   <g id="line2d_10">
    <path d="M 39.066505 280.200824 
L 45.164886 349.52452 
L 51.263266 353.213703 
L 57.361647 353.089249 
L 63.460027 353.119578 
L 69.558408 353.204814 
L 75.656788 353.030421 
L 81.755169 353.179191 
L 87.853549 353.127945 
L 106.14869 353.174903 
L 136.640592 353.072672 
L 167.132495 353.119526 
L 197.624397 353.017671 
L 228.116299 353.192062 
L 258.608201 353.032636 
L 289.100103 353.035208 
L 319.592006 353.065026 
L 350.083908 352.906785 
L 380.57581 353.004528 
L 411.067712 353.126864 
L 441.559614 353.057979 
L 472.051517 353.022944 
L 502.543419 352.984752 
L 533.035321 353.022943 
L 563.527223 352.86655 
L 594.019125 353.035878 
L 624.511028 353.126821 
L 655.00293 352.966738 
L 685.494832 353.101642 
L 715.986734 353.07707 
L 746.478636 353.018155 
L 776.970538 353.138305 
L 807.462441 353.171704 
L 837.954343 353.140218 
L 868.446245 353.185506 
L 898.938147 345.275042 
L 929.430049 353.223786 
L 947.725191 353.2239 
" clip-path="url(#pab2c963416)" style="fill: none; stroke: #5cb85c; stroke-linecap: square"/>
   </g>
   <g id="line2d_11">
    <path d="M 39.066505 307.606395 
L 45.164886 353.040082 
L 51.263266 351.236436 
L 57.361647 353.2239 
L 63.460027 353.079589 
L 69.558408 353.2239 
L 75.656788 353.163573 
L 81.755169 353.2239 
L 87.853549 353.2239 
L 106.14869 353.139963 
L 136.640592 353.221865 
L 167.132495 353.211124 
L 197.624397 353.223711 
L 228.116299 353.191938 
L 258.608201 353.143147 
L 289.100103 353.198838 
L 319.592006 353.158213 
L 350.083908 353.066622 
L 380.57581 353.162384 
L 411.067712 353.12411 
L 441.559614 353.136607 
L 472.051517 353.169927 
L 502.543419 353.074444 
L 533.035321 353.052492 
L 563.527223 353.079716 
L 594.019125 353.185707 
L 624.511028 353.151632 
L 655.00293 353.1055 
L 685.494832 353.114687 
L 715.986734 353.150771 
L 746.478636 353.148942 
L 776.970538 353.057298 
L 807.462441 353.144525 
L 837.954343 353.054436 
L 868.446245 353.144801 
L 898.938147 353.202092 
L 929.430049 353.197492 
L 947.725191 353.2239 
" clip-path="url(#pab2c963416)" style="fill: none; stroke: #5cb85c; stroke-linecap: square"/>
   </g>
   <g id="line2d_12">
    <path d="M 39.066505 272.678989 
L 45.164886 349.259146 
L 51.263266 353.213018 
L 57.361647 353.063029 
L 63.460027 353.094021 
L 69.558408 353.198113 
L 75.656788 352.984723 
L 81.755169 353.180134 
L 87.853549 353.105613 
L 106.14869 353.159694 
L 136.640592 353.046185 
L 167.132495 353.100565 
L 197.624397 352.981366 
L 228.116299 353.179243 
L 258.608201 352.991012 
L 289.100103 353.00902 
L 319.592006 353.036407 
L 350.083908 352.859909 
L 380.57581 352.978364 
L 411.067712 353.11249 
L 441.559614 353.033383 
L 472.051517 352.985238 
L 502.543419 352.934405 
L 533.035321 352.973512 
L 563.527223 352.802212 
L 594.019125 352.972333 
L 624.511028 353.093998 
L 655.00293 352.878271 
L 685.494832 353.048915 
L 715.986734 353.015247 
L 746.478636 352.937297 
L 776.970538 353.081039 
L 807.462441 353.129074 
L 837.954343 353.072864 
L 868.446245 353.15079 
L 898.938147 344.643045 
L 929.430049 353.223102 
L 947.725191 353.2239 
" clip-path="url(#pab2c963416)" style="fill: none; stroke: #5cb85c; stroke-linecap: square"/>
   </g>
   <g id="line2d_13">
    <path d="M 39.066505 313.008694 
L 45.164886 353.04201 
L 51.263266 351.543533 
L 57.361647 353.2239 
L 63.460027 353.090207 
L 69.558408 353.2239 
L 75.656788 353.17207 
L 81.755169 353.2239 
L 87.853549 353.2239 
L 106.14869 353.147705 
L 136.640592 353.221817 
L 167.132495 353.210724 
L 197.624397 353.223658 
L 228.116299 353.191878 
L 258.608201 353.15098 
L 289.100103 353.199811 
L 319.592006 353.168363 
L 350.083908 353.091285 
L 380.57581 353.17245 
L 411.067712 353.137767 
L 441.559614 353.147776 
L 472.051517 353.179441 
L 502.543419 353.105566 
L 533.035321 353.084508 
L 563.527223 353.110102 
L 594.019125 353.196653 
L 624.511028 353.170079 
L 655.00293 353.135718 
L 685.494832 353.140723 
L 715.986734 353.169312 
L 746.478636 353.16849 
L 776.970538 353.101823 
L 807.462441 353.168158 
L 837.954343 353.101415 
L 868.446245 353.173802 
L 898.938147 353.212752 
L 929.430049 353.211185 
L 947.725191 353.2239 
" clip-path="url(#pab2c963416)" style="fill: none; stroke: #5cb85c; stroke-linecap: square"/>
   </g>
   <g id="line2d_14">
    <path d="M 39.066505 280.455649 
L 45.164886 349.51198 
L 51.263266 353.213243 
L 57.361647 353.089965 
L 63.460027 353.1137 
L 69.558408 353.203798 
L 75.656788 353.046369 
L 81.755169 353.190477 
L 87.853549 353.121693 
L 106.14869 353.17391 
L 136.640592 353.076402 
L 167.132495 353.118665 
L 197.624397 353.01568 
L 228.116299 353.191543 
L 258.608201 353.027908 
L 289.100103 353.028193 
L 319.592006 353.068596 
L 350.083908 352.910716 
L 380.57581 353.003115 
L 411.067712 353.126454 
L 441.559614 353.060647 
L 472.051517 353.02109 
L 502.543419 352.985663 
L 533.035321 353.020957 
L 563.527223 352.866509 
L 594.019125 353.031678 
L 624.511028 353.125851 
L 655.00293 352.970599 
L 685.494832 353.097662 
L 715.986734 353.079365 
L 746.478636 353.024747 
L 776.970538 353.139917 
L 807.462441 353.17306 
L 837.954343 353.141139 
L 868.446245 353.186714 
L 898.938147 345.347769 
L 929.430049 353.2239 
L 947.725191 353.2239 
" clip-path="url(#pab2c963416)" style="fill: none; stroke: #5cb85c; stroke-linecap: square"/>
   </g>
   <g id="line2d_15">
    <path d="M 39.066505 309.930276 
L 45.164886 353.03039 
L 51.263266 351.444222 
L 57.361647 353.2239 
L 63.460027 353.092391 
L 69.558408 353.2239 
L 75.656788 353.174967 
L 81.755169 353.2239 
L 87.853549 353.2239 
L 106.14869 353.14594 
L 136.640592 353.221287 
L 167.132495 353.2115 
L 197.624397 353.223733 
L 228.116299 353.194534 
L 258.608201 353.148243 
L 289.100103 353.200079 
L 319.592006 353.166743 
L 350.083908 353.08489 
L 380.57581 353.173585 
L 411.067712 353.135711 
L 441.559614 353.148658 
L 472.051517 353.181388 
L 502.543419 353.106454 
L 533.035321 353.080462 
L 563.527223 353.107513 
L 594.019125 353.197211 
L 624.511028 353.165833 
L 655.00293 353.132652 
L 685.494832 353.143356 
L 715.986734 353.172018 
L 746.478636 353.16909 
L 776.970538 353.095697 
L 807.462441 353.163502 
L 837.954343 353.088419 
L 868.446245 353.166973 
L 898.938147 353.211826 
L 929.430049 353.208051 
L 947.725191 353.2239 
" clip-path="url(#pab2c963416)" style="fill: none; stroke: #5cb85c; stroke-linecap: square"/>
   </g>
   <g id="line2d_16">
    <path d="M 39.066505 276.645496 
L 45.164886 349.441286 
L 51.263266 353.211945 
L 57.361647 353.084884 
L 63.460027 353.11519 
L 69.558408 353.197487 
L 75.656788 352.997583 
L 81.755169 353.189146 
L 87.853549 353.125477 
L 106.14869 353.171241 
L 136.640592 353.06748 
L 167.132495 353.115329 
L 197.624397 353.00834 
L 228.116299 353.190648 
L 258.608201 353.02036 
L 289.100103 353.03156 
L 319.592006 353.060649 
L 350.083908 352.894276 
L 380.57581 353.001222 
L 411.067712 353.128602 
L 441.559614 353.059339 
L 472.051517 353.022043 
L 502.543419 352.97964 
L 533.035321 353.015009 
L 563.527223 352.857619 
L 594.019125 353.031796 
L 624.511028 353.125011 
L 655.00293 352.958375 
L 685.494832 353.096367 
L 715.986734 353.066834 
L 746.478636 353.008926 
L 776.970538 353.133884 
L 807.462441 353.164183 
L 837.954343 353.129681 
L 868.446245 353.178936 
L 898.938147 345.114903 
L 929.430049 353.223231 
L 947.725191 353.2239 
" clip-path="url(#pab2c963416)" style="fill: none; stroke: #5cb85c; stroke-linecap: square"/>
   </g>
   <g id="line2d_17">
    <path d="M 39.066505 312.928405 
L 45.164886 353.041435 
L 51.263266 351.600644 
L 57.361647 353.2239 
L 63.460027 353.110579 
L 69.558408 353.2239 
L 75.656788 353.17259 
L 81.755169 353.2239 
L 87.853549 353.2239 
L 106.14869 353.150585 
L 136.640592 353.221979 
L 167.132495 353.210016 
L 197.624397 353.223516 
L 228.116299 353.194374 
L 258.608201 353.151782 
L 289.100103 353.20145 
L 319.592006 353.16988 
L 350.083908 353.098633 
L 380.57581 353.178127 
L 411.067712 353.142265 
L 441.559614 353.15253 
L 472.051517 353.184585 
L 502.543419 353.119197 
L 533.035321 353.099595 
L 563.527223 353.123495 
L 594.019125 353.20154 
L 624.511028 353.177574 
L 655.00293 353.147016 
L 685.494832 353.152127 
L 715.986734 353.176079 
L 746.478636 353.174785 
L 776.970538 353.113714 
L 807.462441 353.172981 
L 837.954343 353.108698 
L 868.446245 353.178301 
L 898.938147 353.21672 
L 929.430049 353.214863 
L 947.725191 353.2239 
" clip-path="url(#pab2c963416)" style="fill: none; stroke: #5cb85c; stroke-linecap: square"/>
   </g>
   <g id="line2d_18">
    <path d="M 39.066505 280.885833 
L 45.164886 349.639072 
L 51.263266 353.218687 
L 57.361647 353.099604 
L 63.460027 353.122104 
L 69.558408 353.201675 
L 75.656788 353.03924 
L 81.755169 353.187133 
L 87.853549 353.134725 
L 106.14869 353.1772 
L 136.640592 353.080342 
L 167.132495 353.127058 
L 197.624397 353.024409 
L 228.116299 353.194686 
L 258.608201 353.041525 
L 289.100103 353.035437 
L 319.592006 353.077479 
L 350.083908 352.928371 
L 380.57581 353.011059 
L 411.067712 353.134777 
L 441.559614 353.071108 
L 472.051517 353.040292 
L 502.543419 353.006072 
L 533.035321 353.040472 
L 563.527223 352.88104 
L 594.019125 353.061175 
L 624.511028 353.141103 
L 655.00293 352.997227 
L 685.494832 353.120009 
L 715.986734 353.094899 
L 746.478636 353.046313 
L 776.970538 353.153257 
L 807.462441 353.181191 
L 837.954343 353.155072 
L 868.446245 353.19174 
L 898.938147 345.419693 
L 929.430049 353.223474 
L 947.725191 353.2239 
" clip-path="url(#pab2c963416)" style="fill: none; stroke: #5cb85c; stroke-linecap: square"/>
   </g>
   <g id="line2d_19">
    <path d="M 39.066505 309.124766 
L 45.164886 353.036362 
L 51.263266 351.535422 
L 57.361647 353.2239 
L 63.460027 353.104616 
L 69.558408 353.2239 
L 75.656788 353.175421 
L 81.755169 353.2239 
L 87.853549 353.2239 
L 106.14869 353.146844 
L 136.640592 353.221923 
L 167.132495 353.210122 
L 197.624397 353.223709 
L 228.116299 353.193597 
L 258.608201 353.147465 
L 289.100103 353.200481 
L 319.592006 353.167025 
L 350.083908 353.086623 
L 380.57581 353.173369 
L 411.067712 353.135865 
L 441.559614 353.148118 
L 472.051517 353.180463 
L 502.543419 353.111709 
L 533.035321 353.084775 
L 563.527223 353.112516 
L 594.019125 353.199015 
L 624.511028 353.173647 
L 655.00293 353.141177 
L 685.494832 353.153005 
L 715.986734 353.176956 
L 746.478636 353.176855 
L 776.970538 353.117008 
L 807.462441 353.171531 
L 837.954343 353.099734 
L 868.446245 353.17504 
L 898.938147 353.215858 
L 929.430049 353.214254 
L 947.725191 353.2239 
" clip-path="url(#pab2c963416)" style="fill: none; stroke: #5cb85c; stroke-linecap: square"/>
   </g>
   <g id="line2d_20">
    <path d="M 39.066505 276.630013 
L 45.164886 349.528959 
L 51.263266 353.21497 
L 57.361647 353.087393 
L 63.460027 353.122476 
L 69.558408 353.201893 
L 75.656788 353.005106 
L 81.755169 353.187222 
L 87.853549 353.129174 
L 106.14869 353.169425 
L 136.640592 353.071637 
L 167.132495 353.117917 
L 197.624397 353.017018 
L 228.116299 353.191503 
L 258.608201 353.031213 
L 289.100103 353.031291 
L 319.592006 353.065299 
L 350.083908 352.911933 
L 380.57581 353.003299 
L 411.067712 353.129498 
L 441.559614 353.05743 
L 472.051517 353.026828 
L 502.543419 352.98779 
L 533.035321 353.031316 
L 563.527223 352.867591 
L 594.019125 353.044309 
L 624.511028 353.131292 
L 655.00293 352.978816 
L 685.494832 353.111304 
L 715.986734 353.086974 
L 746.478636 353.031 
L 776.970538 353.145954 
L 807.462441 353.178965 
L 837.954343 353.146764 
L 868.446245 353.18775 
L 898.938147 345.332137 
L 929.430049 353.223694 
L 947.725191 353.2239 
" clip-path="url(#pab2c963416)" style="fill: none; stroke: #5cb85c; stroke-linecap: square"/>
   </g>
   <g id="line2d_21">
    <path d="M 39.066505 306.977784 
L 45.164886 353.038761 
L 51.263266 351.316107 
L 57.361647 353.2239 
L 63.460027 353.087071 
L 69.558408 353.2239 
L 75.656788 353.168889 
L 81.755169 353.2239 
L 87.853549 353.2239 
L 106.14869 353.142417 
L 136.640592 353.221834 
L 167.132495 353.211222 
L 197.624397 353.223397 
L 228.116299 353.19742 
L 258.608201 353.149579 
L 289.100103 353.198459 
L 319.592006 353.161084 
L 350.083908 353.081928 
L 380.57581 353.16815 
L 411.067712 353.13081 
L 441.559614 353.143772 
L 472.051517 353.176479 
L 502.543419 353.093627 
L 533.035321 353.070129 
L 563.527223 353.099296 
L 594.019125 353.194152 
L 624.511028 353.163924 
L 655.00293 353.123246 
L 685.494832 353.135657 
L 715.986734 353.167133 
L 746.478636 353.162493 
L 776.970538 353.094588 
L 807.462441 353.158841 
L 837.954343 353.083677 
L 868.446245 353.165454 
L 898.938147 353.212438 
L 929.430049 353.20941 
L 947.725191 353.2239 
" clip-path="url(#pab2c963416)" style="fill: none; stroke: #5cb85c; stroke-linecap: square"/>
   </g>
   <g id="line2d_22">
    <path d="M 39.066505 272.657052 
L 45.164886 349.327054 
L 51.263266 353.214406 
L 57.361647 353.070316 
L 63.460027 353.114157 
L 69.558408 353.201281 
L 75.656788 352.998271 
L 81.755169 353.180059 
L 87.853549 353.121976 
L 106.14869 353.167995 
L 136.640592 353.063726 
L 167.132495 353.111614 
L 197.624397 352.996491 
L 228.116299 353.188318 
L 258.608201 353.021226 
L 289.100103 353.025765 
L 319.592006 353.056376 
L 350.083908 352.88206 
L 380.57581 352.986557 
L 411.067712 353.121826 
L 441.559614 353.048268 
L 472.051517 353.001344 
L 502.543419 352.9585 
L 533.035321 353.005402 
L 563.527223 352.835912 
L 594.019125 353.014154 
L 624.511028 353.11292 
L 655.00293 352.934392 
L 685.494832 353.083501 
L 715.986734 353.053943 
L 746.478636 352.992102 
L 776.970538 353.124957 
L 807.462441 353.159491 
L 837.954343 353.122397 
L 868.446245 353.176051 
L 898.938147 345.000466 
L 929.430049 353.223343 
L 947.725191 353.2239 
" clip-path="url(#pab2c963416)" style="fill: none; stroke: #5cb85c; stroke-linecap: square"/>
   </g>
   <g id="line2d_23">
    <path d="M 39.066505 307.418138 
L 45.164886 353.044787 
L 51.263266 351.221411 
L 57.361647 353.2239 
L 63.460027 353.082281 
L 69.558408 353.2239 
L 75.656788 353.171121 
L 81.755169 353.2239 
L 87.853549 353.2239 
L 106.14869 353.143514 
L 136.640592 353.221655 
L 167.132495 353.211194 
L 197.624397 353.223566 
L 228.116299 353.19231 
L 258.608201 353.146436 
L 289.100103 353.198913 
L 319.592006 353.164099 
L 350.083908 353.074139 
L 380.57581 353.167501 
L 411.067712 353.129692 
L 441.559614 353.14358 
L 472.051517 353.174268 
L 502.543419 353.088946 
L 533.035321 353.065273 
L 563.527223 353.094085 
L 594.019125 353.190876 
L 624.511028 353.15815 
L 655.00293 353.120253 
L 685.494832 353.126185 
L 715.986734 353.158455 
L 746.478636 353.154558 
L 776.970538 353.067833 
L 807.462441 353.146093 
L 837.954343 353.062579 
L 868.446245 353.151405 
L 898.938147 353.201379 
L 929.430049 353.196739 
L 947.725191 353.2239 
" clip-path="url(#pab2c963416)" style="fill: none; stroke: #5cb85c; stroke-linecap: square"/>
   </g>
   <g id="line2d_24">
    <path d="M 39.066505 273.262154 
L 45.164886 349.225371 
L 51.263266 353.214586 
L 57.361647 353.057205 
L 63.460027 353.102819 
L 69.558408 353.196436 
L 75.656788 352.982216 
L 81.755169 353.180913 
L 87.853549 353.10879 
L 106.14869 353.164625 
L 136.640592 353.05262 
L 167.132495 353.104695 
L 197.624397 352.987925 
L 228.116299 353.183742 
L 258.608201 353.004901 
L 289.100103 353.012879 
L 319.592006 353.050365 
L 350.083908 352.878228 
L 380.57581 352.988138 
L 411.067712 353.11939 
L 441.559614 353.049662 
L 472.051517 353.006917 
L 502.543419 352.963119 
L 533.035321 352.994332 
L 563.527223 352.817902 
L 594.019125 352.99014 
L 624.511028 353.102306 
L 655.00293 352.904851 
L 685.494832 353.057529 
L 715.986734 353.018078 
L 746.478636 352.939335 
L 776.970538 353.093681 
L 807.462441 353.133234 
L 837.954343 353.086052 
L 868.446245 353.16015 
L 898.938147 344.753869 
L 929.430049 353.223726 
L 947.725191 353.2239 
" clip-path="url(#pab2c963416)" style="fill: none; stroke: #5cb85c; stroke-linecap: square"/>
   </g>
   <g id="line2d_25">
    <path d="M 39.066505 314.090204 
L 45.164886 353.043468 
L 51.263266 351.644991 
L 57.361647 353.2239 
L 63.460027 353.098986 
L 69.558408 353.2239 
L 75.656788 353.172752 
L 81.755169 353.2239 
L 87.853549 353.2239 
L 106.14869 353.153475 
L 136.640592 353.221998 
L 167.132495 353.212488 
L 197.624397 353.223849 
L 228.116299 353.196036 
L 258.608201 353.152589 
L 289.100103 353.201943 
L 319.592006 353.171487 
L 350.083908 353.10228 
L 380.57581 353.177886 
L 411.067712 353.144158 
L 441.559614 353.156533 
L 472.051517 353.185249 
L 502.543419 353.120772 
L 533.035321 353.101847 
L 563.527223 353.121536 
L 594.019125 353.201312 
L 624.511028 353.176612 
L 655.00293 353.143584 
L 685.494832 353.149981 
L 715.986734 353.175811 
L 746.478636 353.172791 
L 776.970538 353.118174 
L 807.462441 353.17465 
L 837.954343 353.113858 
L 868.446245 353.179178 
L 898.938147 353.214316 
L 929.430049 353.211933 
L 947.725191 353.2239 
" clip-path="url(#pab2c963416)" style="fill: none; stroke: #5cb85c; stroke-linecap: square"/>
   </g>
   <g id="line2d_26">
    <path d="M 39.066505 282.283281 
L 45.164886 349.613204 
L 51.263266 353.215932 
L 57.361647 353.096415 
L 63.460027 353.122632 
L 69.558408 353.202567 
L 75.656788 353.029589 
L 81.755169 353.189716 
L 87.853549 353.130343 
L 106.14869 353.179229 
L 136.640592 353.080583 
L 167.132495 353.126145 
L 197.624397 353.029559 
L 228.116299 353.194072 
L 258.608201 353.043866 
L 289.100103 353.043389 
L 319.592006 353.078401 
L 350.083908 352.933629 
L 380.57581 353.019292 
L 411.067712 353.13731 
L 441.559614 353.075812 
L 472.051517 353.041787 
L 502.543419 353.006439 
L 533.035321 353.041924 
L 563.527223 352.886013 
L 594.019125 353.060596 
L 624.511028 353.139807 
L 655.00293 352.995712 
L 685.494832 353.116925 
L 715.986734 353.093682 
L 746.478636 353.043868 
L 776.970538 353.152497 
L 807.462441 353.179575 
L 837.954343 353.154394 
L 868.446245 353.192536 
L 898.938147 345.362555 
L 929.430049 353.223635 
L 947.725191 353.2239 
" clip-path="url(#pab2c963416)" style="fill: none; stroke: #5cb85c; stroke-linecap: square"/>
   </g>
   <g id="line2d_27">
    <path d="M 39.066505 312.979384 
L 45.164886 353.046858 
L 51.263266 351.552933 
L 57.361647 353.2239 
L 63.460027 353.097408 
L 69.558408 353.2239 
L 75.656788 353.171469 
L 81.755169 353.2239 
L 87.853549 353.2239 
L 106.14869 353.152472 
L 136.640592 353.221784 
L 167.132495 353.210686 
L 197.624397 353.223477 
L 228.116299 353.194225 
L 258.608201 353.15401 
L 289.100103 353.201415 
L 319.592006 353.170919 
L 350.083908 353.093441 
L 380.57581 353.175311 
L 411.067712 353.140935 
L 441.559614 353.14927 
L 472.051517 353.182029 
L 502.543419 353.112179 
L 533.035321 353.093516 
L 563.527223 353.115091 
L 594.019125 353.195986 
L 624.511028 353.172068 
L 655.00293 353.138145 
L 685.494832 353.146819 
L 715.986734 353.174106 
L 746.478636 353.172395 
L 776.970538 353.10673 
L 807.462441 353.168083 
L 837.954343 353.103508 
L 868.446245 353.176731 
L 898.938147 353.212744 
L 929.430049 353.210636 
L 947.725191 353.2239 
" clip-path="url(#pab2c963416)" style="fill: none; stroke: #5cb85c; stroke-linecap: square"/>
   </g>
   <g id="line2d_28">
    <path d="M 39.066505 280.659207 
L 45.164886 349.533524 
L 51.263266 353.216141 
L 57.361647 353.083066 
L 63.460027 353.115747 
L 69.558408 353.200388 
L 75.656788 353.021465 
L 81.755169 353.186987 
L 87.853549 353.12233 
L 106.14869 353.172316 
L 136.640592 353.069147 
L 167.132495 353.118402 
L 197.624397 353.01231 
L 228.116299 353.189711 
L 258.608201 353.027814 
L 289.100103 353.028739 
L 319.592006 353.068631 
L 350.083908 352.913342 
L 380.57581 353.00054 
L 411.067712 353.126943 
L 441.559614 353.06373 
L 472.051517 353.02349 
L 502.543419 352.986732 
L 533.035321 353.027056 
L 563.527223 352.867363 
L 594.019125 353.035111 
L 624.511028 353.133047 
L 655.00293 352.980503 
L 685.494832 353.106776 
L 715.986734 353.083284 
L 746.478636 353.027213 
L 776.970538 353.143417 
L 807.462441 353.176094 
L 837.954343 353.145419 
L 868.446245 353.188664 
L 898.938147 345.299685 
L 929.430049 353.223524 
L 947.725191 353.2239 
" clip-path="url(#pab2c963416)" style="fill: none; stroke: #5cb85c; stroke-linecap: square"/>
   </g>
   <g id="line2d_29">
    <path d="M 39.066505 308.567205 
L 45.164886 353.039706 
L 51.263266 351.439759 
L 57.361647 353.2239 
L 63.460027 353.100333 
L 69.558408 353.2239 
L 75.656788 353.174576 
L 81.755169 353.2239 
L 87.853549 353.2239 
L 106.14869 353.141796 
L 136.640592 353.222102 
L 167.132495 353.211569 
L 197.624397 353.223643 
L 228.116299 353.194299 
L 258.608201 353.14654 
L 289.100103 353.199268 
L 319.592006 353.163322 
L 350.083908 353.076307 
L 380.57581 353.170653 
L 411.067712 353.135609 
L 441.559614 353.145968 
L 472.051517 353.17918 
L 502.543419 353.099437 
L 533.035321 353.078077 
L 563.527223 353.107457 
L 594.019125 353.196429 
L 624.511028 353.169182 
L 655.00293 353.130027 
L 685.494832 353.142381 
L 715.986734 353.170592 
L 746.478636 353.167812 
L 776.970538 353.104331 
L 807.462441 353.16519 
L 837.954343 353.089033 
L 868.446245 353.167446 
L 898.938147 353.213856 
L 929.430049 353.211019 
L 947.725191 353.2239 
" clip-path="url(#pab2c963416)" style="fill: none; stroke: #5cb85c; stroke-linecap: square"/>
   </g>
   <g id="line2d_30">
    <path d="M 39.066505 275.647305 
L 45.164886 349.397182 
L 51.263266 353.212853 
L 57.361647 353.079782 
L 63.460027 353.119087 
L 69.558408 353.198724 
L 75.656788 353.014016 
L 81.755169 353.186393 
L 87.853549 353.135785 
L 106.14869 353.171596 
L 136.640592 353.066526 
L 167.132495 353.114418 
L 197.624397 353.005849 
L 228.116299 353.189029 
L 258.608201 353.020336 
L 289.100103 353.029209 
L 319.592006 353.056512 
L 350.083908 352.89825 
L 380.57581 353.000595 
L 411.067712 353.128955 
L 441.559614 353.055235 
L 472.051517 353.017528 
L 502.543419 352.9821 
L 533.035321 353.019638 
L 563.527223 352.85549 
L 594.019125 353.033705 
L 624.511028 353.127832 
L 655.00293 352.967097 
L 685.494832 353.103729 
L 715.986734 353.075958 
L 746.478636 353.020799 
L 776.970538 353.1414 
L 807.462441 353.17451 
L 837.954343 353.140157 
L 868.446245 353.185103 
L 898.938147 345.25456 
L 929.430049 353.223369 
L 947.725191 353.2239 
" clip-path="url(#pab2c963416)" style="fill: none; stroke: #5cb85c; stroke-linecap: square"/>
   </g>
   <g id="line2d_31">
    <path d="M 39.066505 300.89868 
L 45.164886 353.042642 
L 51.263266 351.071005 
L 57.361647 353.2239 
L 63.460027 353.078991 
L 69.558408 353.2239 
L 75.656788 353.161204 
L 81.755169 353.2239 
L 87.853549 353.2239 
L 106.14869 353.132368 
L 136.640592 353.221607 
L 167.132495 353.211602 
L 197.624397 353.223509 
L 228.116299 353.195966 
L 258.608201 353.144017 
L 289.100103 353.199288 
L 319.592006 353.158944 
L 350.083908 353.062793 
L 380.57581 353.163579 
L 411.067712 353.124668 
L 441.559614 353.136137 
L 472.051517 353.165411 
L 502.543419 353.05654 
L 533.035321 353.032505 
L 563.527223 353.050343 
L 594.019125 353.175114 
L 624.511028 353.135542 
L 655.00293 353.066579 
L 685.494832 353.083209 
L 715.986734 353.128752 
L 746.478636 353.120454 
L 776.970538 353.006972 
L 807.462441 353.094251 
L 837.954343 352.959249 
L 868.446245 353.089515 
L 898.938147 353.184635 
L 929.430049 353.176025 
L 947.725191 353.2239 
" clip-path="url(#pab2c963416)" style="fill: none; stroke: #5cb85c; stroke-linecap: square"/>
   </g>
   <g id="line2d_32">
    <path d="M 39.066505 263.907437 
L 45.164886 349.122788 
L 51.263266 353.21341 
L 57.361647 353.058743 
L 63.460027 353.100703 
L 69.558408 353.196089 
L 75.656788 352.982629 
L 81.755169 353.182672 
L 87.853549 353.105582 
L 106.14869 353.165205 
L 136.640592 353.049229 
L 167.132495 353.104022 
L 197.624397 352.982521 
L 228.116299 353.183492 
L 258.608201 352.997296 
L 289.100103 353.01595 
L 319.592006 353.035824 
L 350.083908 352.860462 
L 380.57581 352.970321 
L 411.067712 353.113082 
L 441.559614 353.025765 
L 472.051517 352.98616 
L 502.543419 352.906441 
L 533.035321 352.949294 
L 563.527223 352.752899 
L 594.019125 352.912452 
L 624.511028 353.049932 
L 655.00293 352.750864 
L 685.494832 352.980314 
L 715.986734 352.903821 
L 746.478636 352.774202 
L 776.970538 353.022769 
L 807.462441 353.083872 
L 837.954343 352.996373 
L 868.446245 353.110543 
L 898.938147 343.642198 
L 929.430049 353.222185 
L 947.725191 353.2239 
" clip-path="url(#pab2c963416)" style="fill: none; stroke: #5cb85c; stroke-linecap: square"/>
   </g>
   <g id="line2d_33">
    <path d="M 39.066505 313.653104 
L 45.164886 353.041972 
L 51.263266 351.607061 
L 57.361647 353.2239 
L 63.460027 353.110938 
L 69.558408 353.2239 
L 75.656788 353.1695 
L 81.755169 353.2239 
L 87.853549 353.2239 
L 106.14869 353.154815 
L 136.640592 353.221641 
L 167.132495 353.211058 
L 197.624397 353.223305 
L 228.116299 353.19637 
L 258.608201 353.152126 
L 289.100103 353.202489 
L 319.592006 353.169343 
L 350.083908 353.097495 
L 380.57581 353.176975 
L 411.067712 353.14009 
L 441.559614 353.15914 
L 472.051517 353.184025 
L 502.543419 353.116491 
L 533.035321 353.096297 
L 563.527223 353.120626 
L 594.019125 353.201496 
L 624.511028 353.175959 
L 655.00293 353.14521 
L 685.494832 353.159341 
L 715.986734 353.180251 
L 746.478636 353.179105 
L 776.970538 353.117839 
L 807.462441 353.1744 
L 837.954343 353.104648 
L 868.446245 353.176223 
L 898.938147 353.215725 
L 929.430049 353.213521 
L 947.725191 353.2239 
" clip-path="url(#pab2c963416)" style="fill: none; stroke: #5cb85c; stroke-linecap: square"/>
   </g>
   <g id="line2d_34">
    <path d="M 39.066505 280.881416 
L 45.164886 349.624582 
L 51.263266 353.216468 
L 57.361647 353.088643 
L 63.460027 353.134125 
L 69.558408 353.20428 
L 75.656788 353.033351 
L 81.755169 353.187931 
L 87.853549 353.128774 
L 106.14869 353.17277 
L 136.640592 353.075801 
L 167.132495 353.120178 
L 197.624397 353.019315 
L 228.116299 353.192324 
L 258.608201 353.037474 
L 289.100103 353.041565 
L 319.592006 353.077373 
L 350.083908 352.924156 
L 380.57581 353.010649 
L 411.067712 353.138818 
L 441.559614 353.0737 
L 472.051517 353.035822 
L 502.543419 352.996059 
L 533.035321 353.034326 
L 563.527223 352.878309 
L 594.019125 353.052571 
L 624.511028 353.139286 
L 655.00293 352.986774 
L 685.494832 353.113964 
L 715.986734 353.087397 
L 746.478636 353.030972 
L 776.970538 353.147788 
L 807.462441 353.174516 
L 837.954343 353.150505 
L 868.446245 353.18881 
L 898.938147 345.182087 
L 929.430049 353.223266 
L 947.725191 353.2239 
" clip-path="url(#pab2c963416)" style="fill: none; stroke: #5cb85c; stroke-linecap: square"/>
   </g>
   <g id="line2d_35">
    <path d="M 39.066505 310.464596 
L 45.164886 353.05151 
L 51.263266 351.573201 
L 57.361647 353.2239 
L 63.460027 353.110388 
L 69.558408 353.2239 
L 75.656788 353.173774 
L 81.755169 353.2239 
L 87.853549 353.2239 
L 106.14869 353.148844 
L 136.640592 353.221672 
L 167.132495 353.210851 
L 197.624397 353.223582 
L 228.116299 353.193449 
L 258.608201 353.15328 
L 289.100103 353.201876 
L 319.592006 353.170911 
L 350.083908 353.093573 
L 380.57581 353.176131 
L 411.067712 353.140672 
L 441.559614 353.152153 
L 472.051517 353.183704 
L 502.543419 353.110612 
L 533.035321 353.088053 
L 563.527223 353.115767 
L 594.019125 353.198756 
L 624.511028 353.172699 
L 655.00293 353.142752 
L 685.494832 353.149708 
L 715.986734 353.177063 
L 746.478636 353.173826 
L 776.970538 353.109697 
L 807.462441 353.170525 
L 837.954343 353.103502 
L 868.446245 353.177819 
L 898.938147 353.214943 
L 929.430049 353.213151 
L 947.725191 353.2239 
" clip-path="url(#pab2c963416)" style="fill: none; stroke: #5cb85c; stroke-linecap: square"/>
   </g>
   <g id="line2d_36">
    <path d="M 39.066505 276.832139 
L 45.164886 349.601062 
L 51.263266 353.214352 
L 57.361647 353.095536 
L 63.460027 353.118344 
L 69.558408 353.196318 
L 75.656788 353.007484 
L 81.755169 353.192074 
L 87.853549 353.134257 
L 106.14869 353.172767 
L 136.640592 353.078138 
L 167.132495 353.119484 
L 197.624397 353.01403 
L 228.116299 353.189898 
L 258.608201 353.027002 
L 289.100103 353.033515 
L 319.592006 353.068874 
L 350.083908 352.912407 
L 380.57581 353.005613 
L 411.067712 353.132351 
L 441.559614 353.066048 
L 472.051517 353.021042 
L 502.543419 352.98691 
L 533.035321 353.032106 
L 563.527223 352.868012 
L 594.019125 353.039951 
L 624.511028 353.13237 
L 655.00293 352.98225 
L 685.494832 353.106769 
L 715.986734 353.084717 
L 746.478636 353.031649 
L 776.970538 353.143337 
L 807.462441 353.1726 
L 837.954343 353.145596 
L 868.446245 353.187671 
L 898.938147 345.314073 
L 929.430049 353.223164 
L 947.725191 353.2239 
" clip-path="url(#pab2c963416)" style="fill: none; stroke: #5cb85c; stroke-linecap: square"/>
   </g>
   <g id="line2d_37">
    <path d="M 39.066505 308.117461 
L 45.164886 353.024285 
L 51.263266 351.392541 
L 57.361647 353.2239 
L 63.460027 353.093657 
L 69.558408 353.2239 
L 75.656788 353.168238 
L 81.755169 353.2239 
L 87.853549 353.2239 
L 106.14869 353.148441 
L 136.640592 353.22209 
L 167.132495 353.210793 
L 197.624397 353.223735 
L 228.116299 353.193453 
L 258.608201 353.144983 
L 289.100103 353.198967 
L 319.592006 353.16522 
L 350.083908 353.08354 
L 380.57581 353.171077 
L 411.067712 353.132328 
L 441.559614 353.141705 
L 472.051517 353.176133 
L 502.543419 353.096852 
L 533.035321 353.074266 
L 563.527223 353.100263 
L 594.019125 353.193075 
L 624.511028 353.162638 
L 655.00293 353.125018 
L 685.494832 353.135524 
L 715.986734 353.165152 
L 746.478636 353.165481 
L 776.970538 353.088141 
L 807.462441 353.162381 
L 837.954343 353.081045 
L 868.446245 353.163191 
L 898.938147 353.210912 
L 929.430049 353.206822 
L 947.725191 353.2239 
" clip-path="url(#pab2c963416)" style="fill: none; stroke: #5cb85c; stroke-linecap: square"/>
   </g>
   <g id="line2d_38">
    <path d="M 39.066505 273.544559 
L 45.164886 349.418874 
L 51.263266 353.213755 
L 57.361647 353.071721 
L 63.460027 353.10956 
L 69.558408 353.201142 
L 75.656788 353.009752 
L 81.755169 353.183593 
L 87.853549 353.121076 
L 106.14869 353.167909 
L 136.640592 353.066347 
L 167.132495 353.111004 
L 197.624397 353.002097 
L 228.116299 353.186697 
L 258.608201 353.014412 
L 289.100103 353.023787 
L 319.592006 353.060395 
L 350.083908 352.892787 
L 380.57581 352.991899 
L 411.067712 353.124938 
L 441.559614 353.048488 
L 472.051517 353.00876 
L 502.543419 352.964934 
L 533.035321 353.006605 
L 563.527223 352.841501 
L 594.019125 353.013592 
L 624.511028 353.114658 
L 655.00293 352.937333 
L 685.494832 353.080675 
L 715.986734 353.056883 
L 746.478636 352.991228 
L 776.970538 353.120257 
L 807.462441 353.161927 
L 837.954343 353.120756 
L 868.446245 353.175577 
L 898.938147 345.002273 
L 929.430049 353.223345 
L 947.725191 353.2239 
" clip-path="url(#pab2c963416)" style="fill: none; stroke: #5cb85c; stroke-linecap: square"/>
   </g>
   <g id="line2d_39">
    <path d="M 32.968125 353.2239 
L 993.158125 353.2239 
" clip-path="url(#pab2c963416)" style="fill: none; stroke: #dedede; stroke-width: 2; stroke-linecap: square"/>
   </g>
   <g id="text_17">
    <!-- FastQC: Per Base N Content -->
    <g transform="translate(402.209375 19.3575) scale(0.16 -0.16)">
     <defs>
      <path id="DejaVuSans-46" d="M 628 4666 
L 3309 4666 
L 3309 4134 
L 1259 4134 
L 1259 2759 
L 3109 2759 
L 3109 2228 
L 1259 2228 
L 1259 0 
L 628 0 
L 628 4666 
z
" transform="scale(0.015625)"/>
      <path id="DejaVuSans-51" d="M 2522 4238 
Q 1834 4238 1429 3725 
Q 1025 3213 1025 2328 
Q 1025 1447 1429 934 
Q 1834 422 2522 422 
Q 3209 422 3611 934 
Q 4013 1447 4013 2328 
Q 4013 3213 3611 3725 
Q 3209 4238 2522 4238 
z
M 3406 84 
L 4238 -825 
L 3475 -825 
L 2784 -78 
Q 2681 -84 2626 -87 
Q 2572 -91 2522 -91 
Q 1538 -91 948 567 
Q 359 1225 359 2328 
Q 359 3434 948 4092 
Q 1538 4750 2522 4750 
Q 3503 4750 4090 4092 
Q 4678 3434 4678 2328 
Q 4678 1516 4351 937 
Q 4025 359 3406 84 
z
" transform="scale(0.015625)"/>
      <path id="DejaVuSans-3a" d="M 750 794 
L 1409 794 
L 1409 0 
L 750 0 
L 750 794 
z
M 750 3309 
L 1409 3309 
L 1409 2516 
L 750 2516 
L 750 3309 
z
" transform="scale(0.015625)"/>
      <path id="DejaVuSans-42" d="M 1259 2228 
L 1259 519 
L 2272 519 
Q 2781 519 3026 730 
Q 3272 941 3272 1375 
Q 3272 1813 3026 2020 
Q 2781 2228 2272 2228 
L 1259 2228 
z
M 1259 4147 
L 1259 2741 
L 2194 2741 
Q 2656 2741 2882 2914 
Q 3109 3088 3109 3444 
Q 3109 3797 2882 3972 
Q 2656 4147 2194 4147 
L 1259 4147 
z
M 628 4666 
L 2241 4666 
Q 2963 4666 3353 4366 
Q 3744 4066 3744 3513 
Q 3744 3084 3544 2831 
Q 3344 2578 2956 2516 
Q 3422 2416 3680 2098 
Q 3938 1781 3938 1306 
Q 3938 681 3513 340 
Q 3088 0 2303 0 
L 628 0 
L 628 4666 
z
" transform="scale(0.015625)"/>
     </defs>
     <use xlink:href="#DejaVuSans-46"/>
     <use xlink:href="#DejaVuSans-61" x="48.394531"/>
     <use xlink:href="#DejaVuSans-73" x="109.673828"/>
     <use xlink:href="#DejaVuSans-74" x="161.773438"/>
     <use xlink:href="#DejaVuSans-51" x="200.982422"/>
     <use xlink:href="#DejaVuSans-43" x="279.693359"/>
     <use xlink:href="#DejaVuSans-3a" x="349.517578"/>
     <use xlink:href="#DejaVuSans-20" x="383.208984"/>
     <use xlink:href="#DejaVuSans-50" x="414.996094"/>
     <use xlink:href="#DejaVuSans-65" x="471.673828"/>
     <use xlink:href="#DejaVuSans-72" x="533.197266"/>
     <use xlink:href="#DejaVuSans-20" x="574.310547"/>
     <use xlink:href="#DejaVuSans-42" x="606.097656"/>
     <use xlink:href="#DejaVuSans-61" x="674.701172"/>
     <use xlink:href="#DejaVuSans-73" x="735.980469"/>
     <use xlink:href="#DejaVuSans-65" x="788.080078"/>
     <use xlink:href="#DejaVuSans-20" x="849.603516"/>
     <use xlink:href="#DejaVuSans-4e" x="881.390625"/>
     <use xlink:href="#DejaVuSans-20" x="956.195312"/>
     <use xlink:href="#DejaVuSans-43" x="987.982422"/>
     <use xlink:href="#DejaVuSans-6f" x="1057.806641"/>
     <use xlink:href="#DejaVuSans-6e" x="1118.988281"/>
     <use xlink:href="#DejaVuSans-74" x="1182.367188"/>
     <use xlink:href="#DejaVuSans-65" x="1221.576172"/>
     <use xlink:href="#DejaVuSans-6e" x="1283.099609"/>
     <use xlink:href="#DejaVuSans-74" x="1346.478516"/>
    </g>
   </g>
  </g>
 </g>
 <defs>
  <clipPath id="pab2c963416">
   <rect x="32.968125" y="35.2559" width="960.19" height="317.968"/>
  </clipPath>
 </defs>
</svg>
