<?xml version="1.0" encoding="utf-8" standalone="no"?>
<!DOCTYPE svg PUBLIC "-//W3C//DTD SVG 1.1//EN"
  "http://www.w3.org/Graphics/SVG/1.1/DTD/svg11.dtd">
<svg xmlns:xlink="http://www.w3.org/1999/xlink" width="1000.358125pt" height="388.844525pt" viewBox="0 0 1000.358125 388.844525" xmlns="http://www.w3.org/2000/svg" version="1.1">
 <metadata>
  <rdf:RDF xmlns:dc="http://purl.org/dc/elements/1.1/" xmlns:cc="http://creativecommons.org/ns#" xmlns:rdf="http://www.w3.org/1999/02/22-rdf-syntax-ns#">
   <cc:Work>
    <dc:type rdf:resource="http://purl.org/dc/dcmitype/StillImage"/>
    <dc:date>2024-08-15T09:46:03.604780</dc:date>
    <dc:format>image/svg+xml</dc:format>
    <dc:creator>
     <cc:Agent>
      <dc:title>Matplotlib v3.8.2, https://matplotlib.org/</dc:title>
     </cc:Agent>
    </dc:creator>
   </cc:Work>
  </rdf:RDF>
 </metadata>
 <defs>
  <style type="text/css">*{stroke-linejoin: round; stroke-linecap: butt}</style>
 </defs>
 <g id="figure_1">
  <g id="axes_1">
   <g id="patch_1">
    <path d="M 32.968125 353.2239 
L 993.158125 353.2239 
L 993.158125 35.2559 
L 32.968125 35.2559 
z
" style="fill: #ffffff"/>
   </g>
   <g id="matplotlib.axis_1">
    <g id="xtick_1">
     <g id="text_1">
      <!-- −200 -->
      <g transform="translate(149.389381 366.30265) scale(0.08 -0.08)">
       <defs>
        <path id="DejaVuSans-2212" d="M 678 2272 
L 4684 2272 
L 4684 1741 
L 678 1741 
L 678 2272 
z
" transform="scale(0.015625)"/>
        <path id="DejaVuSans-32" d="M 1228 531 
L 3431 531 
L 3431 0 
L 469 0 
L 469 531 
Q 828 903 1448 1529 
Q 2069 2156 2228 2338 
Q 2531 2678 2651 2914 
Q 2772 3150 2772 3378 
Q 2772 3750 2511 3984 
Q 2250 4219 1831 4219 
Q 1534 4219 1204 4116 
Q 875 4013 500 3803 
L 500 4441 
Q 881 4594 1212 4672 
Q 1544 4750 1819 4750 
Q 2544 4750 2975 4387 
Q 3406 4025 3406 3419 
Q 3406 3131 3298 2873 
Q 3191 2616 2906 2266 
Q 2828 2175 2409 1742 
Q 1991 1309 1228 531 
z
" transform="scale(0.015625)"/>
        <path id="DejaVuSans-30" d="M 2034 4250 
Q 1547 4250 1301 3770 
Q 1056 3291 1056 2328 
Q 1056 1369 1301 889 
Q 1547 409 2034 409 
Q 2525 409 2770 889 
Q 3016 1369 3016 2328 
Q 3016 3291 2770 3770 
Q 2525 4250 2034 4250 
z
M 2034 4750 
Q 2819 4750 3233 4129 
Q 3647 3509 3647 2328 
Q 3647 1150 3233 529 
Q 2819 -91 2034 -91 
Q 1250 -91 836 529 
Q 422 1150 422 2328 
Q 422 3509 836 4129 
Q 1250 4750 2034 4750 
z
" transform="scale(0.015625)"/>
       </defs>
       <use xlink:href="#DejaVuSans-2212"/>
       <use xlink:href="#DejaVuSans-32" x="83.789062"/>
       <use xlink:href="#DejaVuSans-30" x="147.412109"/>
       <use xlink:href="#DejaVuSans-30" x="211.035156"/>
      </g>
     </g>
    </g>
    <g id="xtick_2">
     <g id="text_2">
      <!-- −100 -->
      <g transform="translate(325.732816 366.30265) scale(0.08 -0.08)">
       <defs>
        <path id="DejaVuSans-31" d="M 794 531 
L 1825 531 
L 1825 4091 
L 703 3866 
L 703 4441 
L 1819 4666 
L 2450 4666 
L 2450 531 
L 3481 531 
L 3481 0 
L 794 0 
L 794 531 
z
" transform="scale(0.015625)"/>
       </defs>
       <use xlink:href="#DejaVuSans-2212"/>
       <use xlink:href="#DejaVuSans-31" x="83.789062"/>
       <use xlink:href="#DejaVuSans-30" x="147.412109"/>
       <use xlink:href="#DejaVuSans-30" x="211.035156"/>
      </g>
     </g>
    </g>
    <g id="xtick_3">
     <g id="text_3">
      <!-- 0 -->
      <g transform="translate(510.518125 366.30265) scale(0.08 -0.08)">
       <use xlink:href="#DejaVuSans-30"/>
      </g>
     </g>
    </g>
    <g id="xtick_4">
     <g id="text_4">
      <!-- 100 -->
      <g transform="translate(681.771559 366.30265) scale(0.08 -0.08)">
       <use xlink:href="#DejaVuSans-31"/>
       <use xlink:href="#DejaVuSans-30" x="63.623047"/>
       <use xlink:href="#DejaVuSans-30" x="127.246094"/>
      </g>
     </g>
    </g>
    <g id="xtick_5">
     <g id="text_5">
      <!-- 200 -->
      <g transform="translate(858.114994 366.30265) scale(0.08 -0.08)">
       <use xlink:href="#DejaVuSans-32"/>
       <use xlink:href="#DejaVuSans-30" x="63.623047"/>
       <use xlink:href="#DejaVuSans-30" x="127.246094"/>
      </g>
     </g>
    </g>
    <g id="text_6">
     <!-- Inner Distance (bp) -->
     <g transform="translate(464.827969 379.564837) scale(0.1 -0.1)">
      <defs>
       <path id="DejaVuSans-49" d="M 628 4666 
L 1259 4666 
L 1259 0 
L 628 0 
L 628 4666 
z
" transform="scale(0.015625)"/>
       <path id="DejaVuSans-6e" d="M 3513 2113 
L 3513 0 
L 2938 0 
L 2938 2094 
Q 2938 2591 2744 2837 
Q 2550 3084 2163 3084 
Q 1697 3084 1428 2787 
Q 1159 2491 1159 1978 
L 1159 0 
L 581 0 
L 581 3500 
L 1159 3500 
L 1159 2956 
Q 1366 3272 1645 3428 
Q 1925 3584 2291 3584 
Q 2894 3584 3203 3211 
Q 3513 2838 3513 2113 
z
" transform="scale(0.015625)"/>
       <path id="DejaVuSans-65" d="M 3597 1894 
L 3597 1613 
L 953 1613 
Q 991 1019 1311 708 
Q 1631 397 2203 397 
Q 2534 397 2845 478 
Q 3156 559 3463 722 
L 3463 178 
Q 3153 47 2828 -22 
Q 2503 -91 2169 -91 
Q 1331 -91 842 396 
Q 353 884 353 1716 
Q 353 2575 817 3079 
Q 1281 3584 2069 3584 
Q 2775 3584 3186 3129 
Q 3597 2675 3597 1894 
z
M 3022 2063 
Q 3016 2534 2758 2815 
Q 2500 3097 2075 3097 
Q 1594 3097 1305 2825 
Q 1016 2553 972 2059 
L 3022 2063 
z
" transform="scale(0.015625)"/>
       <path id="DejaVuSans-72" d="M 2631 2963 
Q 2534 3019 2420 3045 
Q 2306 3072 2169 3072 
Q 1681 3072 1420 2755 
Q 1159 2438 1159 1844 
L 1159 0 
L 581 0 
L 581 3500 
L 1159 3500 
L 1159 2956 
Q 1341 3275 1631 3429 
Q 1922 3584 2338 3584 
Q 2397 3584 2469 3576 
Q 2541 3569 2628 3553 
L 2631 2963 
z
" transform="scale(0.015625)"/>
       <path id="DejaVuSans-20" transform="scale(0.015625)"/>
       <path id="DejaVuSans-44" d="M 1259 4147 
L 1259 519 
L 2022 519 
Q 2988 519 3436 956 
Q 3884 1394 3884 2338 
Q 3884 3275 3436 3711 
Q 2988 4147 2022 4147 
L 1259 4147 
z
M 628 4666 
L 1925 4666 
Q 3281 4666 3915 4102 
Q 4550 3538 4550 2338 
Q 4550 1131 3912 565 
Q 3275 0 1925 0 
L 628 0 
L 628 4666 
z
" transform="scale(0.015625)"/>
       <path id="DejaVuSans-69" d="M 603 3500 
L 1178 3500 
L 1178 0 
L 603 0 
L 603 3500 
z
M 603 4863 
L 1178 4863 
L 1178 4134 
L 603 4134 
L 603 4863 
z
" transform="scale(0.015625)"/>
       <path id="DejaVuSans-73" d="M 2834 3397 
L 2834 2853 
Q 2591 2978 2328 3040 
Q 2066 3103 1784 3103 
Q 1356 3103 1142 2972 
Q 928 2841 928 2578 
Q 928 2378 1081 2264 
Q 1234 2150 1697 2047 
L 1894 2003 
Q 2506 1872 2764 1633 
Q 3022 1394 3022 966 
Q 3022 478 2636 193 
Q 2250 -91 1575 -91 
Q 1294 -91 989 -36 
Q 684 19 347 128 
L 347 722 
Q 666 556 975 473 
Q 1284 391 1588 391 
Q 1994 391 2212 530 
Q 2431 669 2431 922 
Q 2431 1156 2273 1281 
Q 2116 1406 1581 1522 
L 1381 1569 
Q 847 1681 609 1914 
Q 372 2147 372 2553 
Q 372 3047 722 3315 
Q 1072 3584 1716 3584 
Q 2034 3584 2315 3537 
Q 2597 3491 2834 3397 
z
" transform="scale(0.015625)"/>
       <path id="DejaVuSans-74" d="M 1172 4494 
L 1172 3500 
L 2356 3500 
L 2356 3053 
L 1172 3053 
L 1172 1153 
Q 1172 725 1289 603 
Q 1406 481 1766 481 
L 2356 481 
L 2356 0 
L 1766 0 
Q 1100 0 847 248 
Q 594 497 594 1153 
L 594 3053 
L 172 3053 
L 172 3500 
L 594 3500 
L 594 4494 
L 1172 4494 
z
" transform="scale(0.015625)"/>
       <path id="DejaVuSans-61" d="M 2194 1759 
Q 1497 1759 1228 1600 
Q 959 1441 959 1056 
Q 959 750 1161 570 
Q 1363 391 1709 391 
Q 2188 391 2477 730 
Q 2766 1069 2766 1631 
L 2766 1759 
L 2194 1759 
z
M 3341 1997 
L 3341 0 
L 2766 0 
L 2766 531 
Q 2569 213 2275 61 
Q 1981 -91 1556 -91 
Q 1019 -91 701 211 
Q 384 513 384 1019 
Q 384 1609 779 1909 
Q 1175 2209 1959 2209 
L 2766 2209 
L 2766 2266 
Q 2766 2663 2505 2880 
Q 2244 3097 1772 3097 
Q 1472 3097 1187 3025 
Q 903 2953 641 2809 
L 641 3341 
Q 956 3463 1253 3523 
Q 1550 3584 1831 3584 
Q 2591 3584 2966 3190 
Q 3341 2797 3341 1997 
z
" transform="scale(0.015625)"/>
       <path id="DejaVuSans-63" d="M 3122 3366 
L 3122 2828 
Q 2878 2963 2633 3030 
Q 2388 3097 2138 3097 
Q 1578 3097 1268 2742 
Q 959 2388 959 1747 
Q 959 1106 1268 751 
Q 1578 397 2138 397 
Q 2388 397 2633 464 
Q 2878 531 3122 666 
L 3122 134 
Q 2881 22 2623 -34 
Q 2366 -91 2075 -91 
Q 1284 -91 818 406 
Q 353 903 353 1747 
Q 353 2603 823 3093 
Q 1294 3584 2113 3584 
Q 2378 3584 2631 3529 
Q 2884 3475 3122 3366 
z
" transform="scale(0.015625)"/>
       <path id="DejaVuSans-28" d="M 1984 4856 
Q 1566 4138 1362 3434 
Q 1159 2731 1159 2009 
Q 1159 1288 1364 580 
Q 1569 -128 1984 -844 
L 1484 -844 
Q 1016 -109 783 600 
Q 550 1309 550 2009 
Q 550 2706 781 3412 
Q 1013 4119 1484 4856 
L 1984 4856 
z
" transform="scale(0.015625)"/>
       <path id="DejaVuSans-62" d="M 3116 1747 
Q 3116 2381 2855 2742 
Q 2594 3103 2138 3103 
Q 1681 3103 1420 2742 
Q 1159 2381 1159 1747 
Q 1159 1113 1420 752 
Q 1681 391 2138 391 
Q 2594 391 2855 752 
Q 3116 1113 3116 1747 
z
M 1159 2969 
Q 1341 3281 1617 3432 
Q 1894 3584 2278 3584 
Q 2916 3584 3314 3078 
Q 3713 2572 3713 1747 
Q 3713 922 3314 415 
Q 2916 -91 2278 -91 
Q 1894 -91 1617 61 
Q 1341 213 1159 525 
L 1159 0 
L 581 0 
L 581 4863 
L 1159 4863 
L 1159 2969 
z
" transform="scale(0.015625)"/>
       <path id="DejaVuSans-70" d="M 1159 525 
L 1159 -1331 
L 581 -1331 
L 581 3500 
L 1159 3500 
L 1159 2969 
Q 1341 3281 1617 3432 
Q 1894 3584 2278 3584 
Q 2916 3584 3314 3078 
Q 3713 2572 3713 1747 
Q 3713 922 3314 415 
Q 2916 -91 2278 -91 
Q 1894 -91 1617 61 
Q 1341 213 1159 525 
z
M 3116 1747 
Q 3116 2381 2855 2742 
Q 2594 3103 2138 3103 
Q 1681 3103 1420 2742 
Q 1159 2381 1159 1747 
Q 1159 1113 1420 752 
Q 1681 391 2138 391 
Q 2594 391 2855 752 
Q 3116 1113 3116 1747 
z
" transform="scale(0.015625)"/>
       <path id="DejaVuSans-29" d="M 513 4856 
L 1013 4856 
Q 1481 4119 1714 3412 
Q 1947 2706 1947 2009 
Q 1947 1309 1714 600 
Q 1481 -109 1013 -844 
L 513 -844 
Q 928 -128 1133 580 
Q 1338 1288 1338 2009 
Q 1338 2731 1133 3434 
Q 928 4138 513 4856 
z
" transform="scale(0.015625)"/>
      </defs>
      <use xlink:href="#DejaVuSans-49"/>
      <use xlink:href="#DejaVuSans-6e" x="29.492188"/>
      <use xlink:href="#DejaVuSans-6e" x="92.871094"/>
      <use xlink:href="#DejaVuSans-65" x="156.25"/>
      <use xlink:href="#DejaVuSans-72" x="217.773438"/>
      <use xlink:href="#DejaVuSans-20" x="258.886719"/>
      <use xlink:href="#DejaVuSans-44" x="290.673828"/>
      <use xlink:href="#DejaVuSans-69" x="367.675781"/>
      <use xlink:href="#DejaVuSans-73" x="395.458984"/>
      <use xlink:href="#DejaVuSans-74" x="447.558594"/>
      <use xlink:href="#DejaVuSans-61" x="486.767578"/>
      <use xlink:href="#DejaVuSans-6e" x="548.046875"/>
      <use xlink:href="#DejaVuSans-63" x="611.425781"/>
      <use xlink:href="#DejaVuSans-65" x="666.40625"/>
      <use xlink:href="#DejaVuSans-20" x="727.929688"/>
      <use xlink:href="#DejaVuSans-28" x="759.716797"/>
      <use xlink:href="#DejaVuSans-62" x="798.730469"/>
      <use xlink:href="#DejaVuSans-70" x="862.207031"/>
      <use xlink:href="#DejaVuSans-29" x="925.683594"/>
     </g>
    </g>
   </g>
   <g id="matplotlib.axis_2">
    <g id="ytick_1">
     <g id="line2d_1">
      <path d="M 32.968125 338.770809 
L 993.158125 338.770809 
" clip-path="url(#p6e1e435bf8)" style="fill: none; stroke: #dedede; stroke-linecap: square"/>
     </g>
     <g id="text_7">
      <!-- 0 -->
      <g transform="translate(20.878125 341.810184) scale(0.08 -0.08)">
       <use xlink:href="#DejaVuSans-30"/>
      </g>
     </g>
    </g>
    <g id="ytick_2">
     <g id="line2d_2">
      <path d="M 32.968125 297.969207 
L 993.158125 297.969207 
" clip-path="url(#p6e1e435bf8)" style="fill: none; stroke: #dedede; stroke-linecap: square"/>
     </g>
     <g id="text_8">
      <!-- 1 -->
      <g transform="translate(20.878125 301.008582) scale(0.08 -0.08)">
       <use xlink:href="#DejaVuSans-31"/>
      </g>
     </g>
    </g>
    <g id="ytick_3">
     <g id="line2d_3">
      <path d="M 32.968125 257.167605 
L 993.158125 257.167605 
" clip-path="url(#p6e1e435bf8)" style="fill: none; stroke: #dedede; stroke-linecap: square"/>
     </g>
     <g id="text_9">
      <!-- 2 -->
      <g transform="translate(20.878125 260.20698) scale(0.08 -0.08)">
       <use xlink:href="#DejaVuSans-32"/>
      </g>
     </g>
    </g>
    <g id="ytick_4">
     <g id="line2d_4">
      <path d="M 32.968125 216.366003 
L 993.158125 216.366003 
" clip-path="url(#p6e1e435bf8)" style="fill: none; stroke: #dedede; stroke-linecap: square"/>
     </g>
     <g id="text_10">
      <!-- 3 -->
      <g transform="translate(20.878125 219.405378) scale(0.08 -0.08)">
       <defs>
        <path id="DejaVuSans-33" d="M 2597 2516 
Q 3050 2419 3304 2112 
Q 3559 1806 3559 1356 
Q 3559 666 3084 287 
Q 2609 -91 1734 -91 
Q 1441 -91 1130 -33 
Q 819 25 488 141 
L 488 750 
Q 750 597 1062 519 
Q 1375 441 1716 441 
Q 2309 441 2620 675 
Q 2931 909 2931 1356 
Q 2931 1769 2642 2001 
Q 2353 2234 1838 2234 
L 1294 2234 
L 1294 2753 
L 1863 2753 
Q 2328 2753 2575 2939 
Q 2822 3125 2822 3475 
Q 2822 3834 2567 4026 
Q 2313 4219 1838 4219 
Q 1578 4219 1281 4162 
Q 984 4106 628 3988 
L 628 4550 
Q 988 4650 1302 4700 
Q 1616 4750 1894 4750 
Q 2613 4750 3031 4423 
Q 3450 4097 3450 3541 
Q 3450 3153 3228 2886 
Q 3006 2619 2597 2516 
z
" transform="scale(0.015625)"/>
       </defs>
       <use xlink:href="#DejaVuSans-33"/>
      </g>
     </g>
    </g>
    <g id="ytick_5">
     <g id="line2d_5">
      <path d="M 32.968125 175.564401 
L 993.158125 175.564401 
" clip-path="url(#p6e1e435bf8)" style="fill: none; stroke: #dedede; stroke-linecap: square"/>
     </g>
     <g id="text_11">
      <!-- 4 -->
      <g transform="translate(20.878125 178.603776) scale(0.08 -0.08)">
       <defs>
        <path id="DejaVuSans-34" d="M 2419 4116 
L 825 1625 
L 2419 1625 
L 2419 4116 
z
M 2253 4666 
L 3047 4666 
L 3047 1625 
L 3713 1625 
L 3713 1100 
L 3047 1100 
L 3047 0 
L 2419 0 
L 2419 1100 
L 313 1100 
L 313 1709 
L 2253 4666 
z
" transform="scale(0.015625)"/>
       </defs>
       <use xlink:href="#DejaVuSans-34"/>
      </g>
     </g>
    </g>
    <g id="ytick_6">
     <g id="line2d_6">
      <path d="M 32.968125 134.7628 
L 993.158125 134.7628 
" clip-path="url(#p6e1e435bf8)" style="fill: none; stroke: #dedede; stroke-linecap: square"/>
     </g>
     <g id="text_12">
      <!-- 5 -->
      <g transform="translate(20.878125 137.802175) scale(0.08 -0.08)">
       <defs>
        <path id="DejaVuSans-35" d="M 691 4666 
L 3169 4666 
L 3169 4134 
L 1269 4134 
L 1269 2991 
Q 1406 3038 1543 3061 
Q 1681 3084 1819 3084 
Q 2600 3084 3056 2656 
Q 3513 2228 3513 1497 
Q 3513 744 3044 326 
Q 2575 -91 1722 -91 
Q 1428 -91 1123 -41 
Q 819 9 494 109 
L 494 744 
Q 775 591 1075 516 
Q 1375 441 1709 441 
Q 2250 441 2565 725 
Q 2881 1009 2881 1497 
Q 2881 1984 2565 2268 
Q 2250 2553 1709 2553 
Q 1456 2553 1204 2497 
Q 953 2441 691 2322 
L 691 4666 
z
" transform="scale(0.015625)"/>
       </defs>
       <use xlink:href="#DejaVuSans-35"/>
      </g>
     </g>
    </g>
    <g id="ytick_7">
     <g id="line2d_7">
      <path d="M 32.968125 93.961198 
L 993.158125 93.961198 
" clip-path="url(#p6e1e435bf8)" style="fill: none; stroke: #dedede; stroke-linecap: square"/>
     </g>
     <g id="text_13">
      <!-- 6 -->
      <g transform="translate(20.878125 97.000573) scale(0.08 -0.08)">
       <defs>
        <path id="DejaVuSans-36" d="M 2113 2584 
Q 1688 2584 1439 2293 
Q 1191 2003 1191 1497 
Q 1191 994 1439 701 
Q 1688 409 2113 409 
Q 2538 409 2786 701 
Q 3034 994 3034 1497 
Q 3034 2003 2786 2293 
Q 2538 2584 2113 2584 
z
M 3366 4563 
L 3366 3988 
Q 3128 4100 2886 4159 
Q 2644 4219 2406 4219 
Q 1781 4219 1451 3797 
Q 1122 3375 1075 2522 
Q 1259 2794 1537 2939 
Q 1816 3084 2150 3084 
Q 2853 3084 3261 2657 
Q 3669 2231 3669 1497 
Q 3669 778 3244 343 
Q 2819 -91 2113 -91 
Q 1303 -91 875 529 
Q 447 1150 447 2328 
Q 447 3434 972 4092 
Q 1497 4750 2381 4750 
Q 2619 4750 2861 4703 
Q 3103 4656 3366 4563 
z
" transform="scale(0.015625)"/>
       </defs>
       <use xlink:href="#DejaVuSans-36"/>
      </g>
     </g>
    </g>
    <g id="ytick_8">
     <g id="line2d_8">
      <path d="M 32.968125 53.159596 
L 993.158125 53.159596 
" clip-path="url(#p6e1e435bf8)" style="fill: none; stroke: #dedede; stroke-linecap: square"/>
     </g>
     <g id="text_14">
      <!-- 7 -->
      <g transform="translate(20.878125 56.198971) scale(0.08 -0.08)">
       <defs>
        <path id="DejaVuSans-37" d="M 525 4666 
L 3525 4666 
L 3525 4397 
L 1831 0 
L 1172 0 
L 2766 4134 
L 525 4134 
L 525 4666 
z
" transform="scale(0.015625)"/>
       </defs>
       <use xlink:href="#DejaVuSans-37"/>
      </g>
     </g>
    </g>
    <g id="text_15">
     <!-- Percentage -->
     <g transform="translate(14.798437 222.362556) rotate(-90) scale(0.1 -0.1)">
      <defs>
       <path id="DejaVuSans-50" d="M 1259 4147 
L 1259 2394 
L 2053 2394 
Q 2494 2394 2734 2622 
Q 2975 2850 2975 3272 
Q 2975 3691 2734 3919 
Q 2494 4147 2053 4147 
L 1259 4147 
z
M 628 4666 
L 2053 4666 
Q 2838 4666 3239 4311 
Q 3641 3956 3641 3272 
Q 3641 2581 3239 2228 
Q 2838 1875 2053 1875 
L 1259 1875 
L 1259 0 
L 628 0 
L 628 4666 
z
" transform="scale(0.015625)"/>
       <path id="DejaVuSans-67" d="M 2906 1791 
Q 2906 2416 2648 2759 
Q 2391 3103 1925 3103 
Q 1463 3103 1205 2759 
Q 947 2416 947 1791 
Q 947 1169 1205 825 
Q 1463 481 1925 481 
Q 2391 481 2648 825 
Q 2906 1169 2906 1791 
z
M 3481 434 
Q 3481 -459 3084 -895 
Q 2688 -1331 1869 -1331 
Q 1566 -1331 1297 -1286 
Q 1028 -1241 775 -1147 
L 775 -588 
Q 1028 -725 1275 -790 
Q 1522 -856 1778 -856 
Q 2344 -856 2625 -561 
Q 2906 -266 2906 331 
L 2906 616 
Q 2728 306 2450 153 
Q 2172 0 1784 0 
Q 1141 0 747 490 
Q 353 981 353 1791 
Q 353 2603 747 3093 
Q 1141 3584 1784 3584 
Q 2172 3584 2450 3431 
Q 2728 3278 2906 2969 
L 2906 3500 
L 3481 3500 
L 3481 434 
z
" transform="scale(0.015625)"/>
      </defs>
      <use xlink:href="#DejaVuSans-50"/>
      <use xlink:href="#DejaVuSans-65" x="56.677734"/>
      <use xlink:href="#DejaVuSans-72" x="118.201172"/>
      <use xlink:href="#DejaVuSans-63" x="157.064453"/>
      <use xlink:href="#DejaVuSans-65" x="212.044922"/>
      <use xlink:href="#DejaVuSans-6e" x="273.568359"/>
      <use xlink:href="#DejaVuSans-74" x="336.947266"/>
      <use xlink:href="#DejaVuSans-61" x="376.15625"/>
      <use xlink:href="#DejaVuSans-67" x="437.435547"/>
      <use xlink:href="#DejaVuSans-65" x="500.912109"/>
     </g>
    </g>
   </g>
   <g id="line2d_9">
    <path d="M 76.613125 338.770809 
L 85.430297 338.770809 
L 94.247468 338.770809 
L 103.06464 338.770809 
L 111.881812 338.770809 
L 120.698984 338.770809 
L 129.516155 338.770809 
L 138.333327 338.770809 
L 147.150499 338.770809 
L 155.96767 338.770809 
L 164.784842 338.770809 
L 173.602014 338.770809 
L 182.419186 338.770809 
L 191.236357 338.770809 
L 200.053529 338.770809 
L 208.870701 338.770809 
L 217.687872 338.770809 
L 226.505044 338.770809 
L 235.322216 338.770809 
L 244.139388 322.368978 
L 252.956559 88.286851 
L 261.773731 67.113429 
L 270.590903 51.206763 
L 279.408074 49.708991 
L 288.225246 50.015911 
L 297.042418 50.056834 
L 305.85959 55.73691 
L 314.676761 69.241411 
L 323.493933 87.284245 
L 332.311105 113.249719 
L 341.128277 147.702568 
L 349.945448 178.832491 
L 358.76262 211.235111 
L 367.579792 234.953927 
L 376.396963 257.375493 
L 385.214135 271.616604 
L 394.031307 283.079061 
L 402.848479 289.949988 
L 411.66565 295.229021 
L 420.482822 299.660953 
L 429.299994 303.262153 
L 438.117165 306.212683 
L 446.934337 308.708969 
L 455.751509 311.102949 
L 464.568681 313.419176 
L 473.385852 316.0014 
L 482.203024 316.91807 
L 491.020196 318.89873 
L 499.837367 320.903944 
L 508.654539 321.206772 
L 517.471711 323.555737 
L 526.288883 324.844803 
L 535.106054 325.548674 
L 543.923226 326.694511 
L 552.740398 328.315051 
L 561.557569 328.364158 
L 570.374741 329.505902 
L 579.191913 330.279342 
L 588.009085 330.807245 
L 596.826256 331.474286 
L 605.643428 331.953082 
L 614.4606 332.665137 
L 623.277771 333.360824 
L 632.094943 333.745497 
L 640.912115 333.872358 
L 649.729287 334.232478 
L 658.546458 334.748104 
L 667.36363 334.95681 
L 676.180802 335.329207 
L 684.997973 335.668866 
L 693.815145 335.795726 
L 702.632317 336.14357 
L 711.449489 336.311353 
L 720.26666 336.569166 
L 729.083832 336.904732 
L 737.901004 336.998855 
L 746.718176 337.047962 
L 755.535347 337.215745 
L 764.352519 337.342606 
L 773.169691 337.342606 
L 781.986862 337.367159 
L 790.804034 337.616788 
L 799.621206 337.600419 
L 808.438378 337.85414 
L 817.255549 337.80094 
L 826.072721 337.895063 
L 834.889893 338.058754 
L 843.707064 338.099676 
L 852.524236 338.136507 
L 861.341408 338.152876 
L 870.15858 338.296105 
L 878.975751 338.21426 
L 887.792923 338.246998 
L 896.610095 338.357489 
L 905.427266 338.377951 
L 914.244438 338.34112 
L 923.06161 338.410689 
L 931.878782 338.382043 
L 940.695953 338.472073 
L 949.513125 338.459796 
" clip-path="url(#p6e1e435bf8)" style="fill: none; stroke: #7cb5ec; stroke-linecap: square"/>
   </g>
   <g id="line2d_10">
    <path d="M 76.613125 338.770809 
L 85.430297 338.770809 
L 94.247468 338.770809 
L 103.06464 338.770809 
L 111.881812 338.770809 
L 120.698984 338.770809 
L 129.516155 338.770809 
L 138.333327 338.770809 
L 147.150499 338.770809 
L 155.96767 338.770809 
L 164.784842 338.770809 
L 173.602014 338.770809 
L 182.419186 338.770809 
L 191.236357 338.770809 
L 200.053529 338.770809 
L 208.870701 338.770809 
L 217.687872 338.770809 
L 226.505044 338.770809 
L 235.322216 338.770809 
L 244.139388 328.907328 
L 252.956559 204.255262 
L 261.773731 184.46213 
L 270.590903 167.60116 
L 279.408074 165.487853 
L 288.225246 165.256257 
L 297.042418 162.514334 
L 305.85959 161.852633 
L 314.676761 161.3729 
L 323.493933 160.69052 
L 332.311105 162.795557 
L 341.128277 162.390265 
L 349.945448 168.147064 
L 358.76262 173.95349 
L 367.579792 173.105686 
L 376.396963 188.122164 
L 385.214135 191.368634 
L 394.031307 206.935151 
L 402.848479 217.857353 
L 411.66565 233.452819 
L 420.482822 250.069787 
L 429.299994 261.091244 
L 438.117165 271.256626 
L 446.934337 279.610602 
L 455.751509 287.68749 
L 464.568681 294.17216 
L 473.385852 297.997619 
L 482.203024 299.08529 
L 491.020196 301.115885 
L 499.837367 299.908281 
L 508.654539 281.802486 
L 517.471711 309.478132 
L 526.288883 307.960355 
L 535.106054 309.92478 
L 543.923226 313.291184 
L 552.740398 314.130717 
L 561.557569 318.419367 
L 570.374741 319.775854 
L 579.191913 320.987594 
L 588.009085 321.632753 
L 596.826256 322.728695 
L 605.643428 321.715465 
L 614.4606 323.923892 
L 623.277771 325.131497 
L 632.094943 326.161269 
L 640.912115 327.637689 
L 649.729287 327.596333 
L 658.546458 328.832887 
L 667.36363 328.72536 
L 676.180802 329.370519 
L 684.997973 330.305172 
L 693.815145 331.529318 
L 702.632317 331.984238 
L 711.449489 332.778279 
L 720.26666 332.914755 
L 729.083832 332.563226 
L 737.901004 333.721203 
L 746.718176 334.184394 
L 755.535347 334.428396 
L 764.352519 334.122359 
L 773.169691 334.908129 
L 781.986862 335.168674 
L 790.804034 335.56983 
L 799.621206 335.611187 
L 808.438378 335.557423 
L 817.255549 336.107462 
L 826.072721 336.214989 
L 834.889893 336.454855 
L 843.707064 336.500347 
L 852.524236 336.504483 
L 861.341408 336.951131 
L 870.15858 337.025573 
L 878.975751 337.315067 
L 887.792923 337.195134 
L 896.610095 337.182727 
L 905.427266 337.430865 
L 914.244438 337.534255 
L 923.06161 337.612832 
L 931.878782 337.66246 
L 940.695953 337.769986 
L 949.513125 337.716223 
" clip-path="url(#p6e1e435bf8)" style="fill: none; stroke: #434348; stroke-linecap: square"/>
   </g>
   <g id="line2d_11">
    <path d="M 76.613125 338.770809 
L 85.430297 338.770809 
L 94.247468 338.770809 
L 103.06464 338.770809 
L 111.881812 338.770809 
L 120.698984 338.770809 
L 129.516155 338.770809 
L 138.333327 338.770809 
L 147.150499 338.770809 
L 155.96767 338.770809 
L 164.784842 338.770809 
L 173.602014 338.770809 
L 182.419186 338.770809 
L 191.236357 338.770809 
L 200.053529 338.770809 
L 208.870701 338.770809 
L 217.687872 338.770809 
L 226.505044 338.770809 
L 235.322216 338.770809 
L 244.139388 326.078762 
L 252.956559 132.932522 
L 261.773731 110.746971 
L 270.590903 91.616988 
L 279.408074 92.773039 
L 288.225246 92.916014 
L 297.042418 95.881712 
L 305.85959 95.714228 
L 314.676761 101.045133 
L 323.493933 104.799234 
L 332.311105 111.310699 
L 341.128277 121.416951 
L 349.945448 127.891651 
L 358.76262 145.665419 
L 367.579792 156.462033 
L 376.396963 178.888599 
L 385.214135 195.277557 
L 394.031307 224.129802 
L 402.848479 244.62417 
L 411.66565 269.902054 
L 420.482822 287.393958 
L 429.299994 303.047619 
L 438.117165 311.438177 
L 446.934337 316.454538 
L 455.751509 320.282169 
L 464.568681 322.394106 
L 473.385852 323.407182 
L 482.203024 325.629414 
L 491.020196 326.364711 
L 499.837367 327.990535 
L 508.654539 325.27402 
L 517.471711 330.388421 
L 526.288883 330.980744 
L 535.106054 331.740551 
L 543.923226 332.520783 
L 552.740398 333.043661 
L 561.557569 333.537944 
L 570.374741 334.052652 
L 579.191913 334.45298 
L 588.009085 335.045303 
L 596.826256 335.441547 
L 605.643428 335.621286 
L 614.4606 335.89498 
L 623.277771 336.209524 
L 632.094943 336.495473 
L 640.912115 336.634362 
L 649.729287 336.875376 
L 658.546458 336.867206 
L 667.36363 337.267535 
L 676.180802 337.569824 
L 684.997973 337.573909 
L 693.815145 337.643353 
L 702.632317 337.761818 
L 711.449489 337.912962 
L 720.26666 337.978322 
L 729.083832 338.035512 
L 737.901004 338.084532 
L 746.718176 338.149891 
L 755.535347 338.256101 
L 764.352519 338.256101 
L 773.169691 338.350056 
L 781.986862 338.41133 
L 790.804034 338.46852 
L 799.621206 338.497115 
L 808.438378 338.448095 
L 817.255549 338.521625 
L 826.072721 338.595155 
L 834.889893 338.562475 
L 843.707064 338.54205 
L 852.524236 338.55839 
L 861.341408 338.61558 
L 870.15858 338.61558 
L 878.975751 338.627835 
L 887.792923 338.668684 
L 896.610095 338.62375 
L 905.427266 338.672769 
L 914.244438 338.652345 
L 923.06161 338.697279 
L 931.878782 338.721789 
L 940.695953 338.709534 
L 949.513125 338.672769 
" clip-path="url(#p6e1e435bf8)" style="fill: none; stroke: #90ed7d; stroke-linecap: square"/>
   </g>
   <g id="line2d_12">
    <path d="M 76.613125 338.770809 
L 85.430297 338.770809 
L 94.247468 338.770809 
L 103.06464 338.770809 
L 111.881812 338.770809 
L 120.698984 338.770809 
L 129.516155 338.770809 
L 138.333327 338.770809 
L 147.150499 338.770809 
L 155.96767 338.770809 
L 164.784842 338.770809 
L 173.602014 338.770809 
L 182.419186 338.770809 
L 191.236357 338.770809 
L 200.053529 338.770809 
L 208.870701 338.770809 
L 217.687872 338.770809 
L 226.505044 338.770809 
L 235.322216 338.770809 
L 244.139388 331.036343 
L 252.956559 175.806267 
L 261.773731 159.51391 
L 270.590903 157.166532 
L 279.408074 154.978924 
L 288.225246 152.967471 
L 297.042418 153.12724 
L 305.85959 154.630709 
L 314.676761 153.741737 
L 323.493933 153.934279 
L 332.311105 157.129662 
L 341.128277 159.141115 
L 349.945448 167.830099 
L 358.76262 171.885778 
L 367.579792 181.193356 
L 376.396963 192.139591 
L 385.214135 201.88551 
L 394.031307 217.7723 
L 402.848479 230.508769 
L 411.66565 245.924445 
L 420.482822 255.567947 
L 429.299994 266.751788 
L 438.117165 272.962302 
L 446.934337 280.106851 
L 455.751509 285.026922 
L 464.568681 290.278821 
L 473.385852 293.978092 
L 482.203024 297.337341 
L 491.020196 300.594173 
L 499.837367 303.039871 
L 508.654539 294.719584 
L 517.471711 306.87433 
L 526.288883 309.315931 
L 535.106054 310.651437 
L 543.923226 311.569086 
L 552.740398 314.379384 
L 561.557569 317.472351 
L 570.374741 319.197039 
L 579.191913 320.020465 
L 588.009085 322.494838 
L 596.826256 324.141689 
L 605.643428 324.920052 
L 614.4606 325.3502 
L 623.277771 328.381717 
L 632.094943 327.603355 
L 640.912115 330.003989 
L 649.729287 329.651677 
L 658.546458 330.909347 
L 667.36363 331.208402 
L 676.180802 331.999055 
L 684.997973 332.658615 
L 693.815145 333.154309 
L 702.632317 333.502524 
L 711.449489 333.817965 
L 720.26666 334.469332 
L 729.083832 334.809353 
L 737.901004 335.264081 
L 746.718176 335.452527 
L 755.535347 335.821225 
L 764.352519 335.452527 
L 773.169691 336.054733 
L 781.986862 336.390658 
L 790.804034 336.702003 
L 799.621206 336.697907 
L 808.438378 337.099378 
L 817.255549 336.955995 
L 826.072721 336.964189 
L 834.889893 337.320597 
L 843.707064 337.517236 
L 852.524236 337.488559 
L 861.341408 337.537719 
L 870.15858 337.717971 
L 878.975751 337.795808 
L 887.792923 337.836774 
L 896.610095 337.894127 
L 905.427266 338.02522 
L 914.244438 338.074379 
L 923.06161 338.197279 
L 931.878782 338.225955 
L 940.695953 338.217762 
L 949.513125 338.336565 
" clip-path="url(#p6e1e435bf8)" style="fill: none; stroke: #f7a35c; stroke-linecap: square"/>
   </g>
   <g id="line2d_13">
    <path d="M 76.613125 338.770809 
L 85.430297 338.770809 
L 94.247468 338.770809 
L 103.06464 338.770809 
L 111.881812 338.770809 
L 120.698984 338.770809 
L 129.516155 338.770809 
L 138.333327 338.770809 
L 147.150499 338.770809 
L 155.96767 338.770809 
L 164.784842 338.770809 
L 173.602014 338.770809 
L 182.419186 338.770809 
L 191.236357 338.770809 
L 200.053529 338.770809 
L 208.870701 338.770809 
L 217.687872 338.770809 
L 226.505044 338.770809 
L 235.322216 338.770809 
L 244.139388 325.247773 
L 252.956559 100.550418 
L 261.773731 74.252221 
L 270.590903 67.398752 
L 279.408074 67.570395 
L 288.225246 76.908605 
L 297.042418 78.984671 
L 305.85959 90.452074 
L 314.676761 99.389783 
L 323.493933 114.911237 
L 332.311105 126.484895 
L 341.128277 142.74605 
L 349.945448 156.755408 
L 358.76262 176.396299 
L 367.579792 188.820001 
L 376.396963 211.203097 
L 385.214135 224.59127 
L 394.031307 246.655601 
L 402.848479 260.16229 
L 411.66565 277.767982 
L 420.482822 289.840224 
L 429.299994 300.343156 
L 438.117165 307.114891 
L 446.934337 310.543669 
L 455.751509 314.197218 
L 464.568681 316.126161 
L 473.385852 318.982795 
L 482.203024 320.592972 
L 491.020196 322.150022 
L 499.837367 324.005403 
L 508.654539 321.140596 
L 517.471711 326.584139 
L 526.288883 327.7366 
L 535.106054 328.713332 
L 543.923226 329.849447 
L 552.740398 330.576888 
L 561.557569 331.320675 
L 570.374741 332.023595 
L 579.191913 332.714255 
L 588.009085 333.102495 
L 596.826256 333.89941 
L 605.643428 334.197743 
L 614.4606 334.647284 
L 623.277771 335.109087 
L 632.094943 335.297077 
L 640.912115 335.677144 
L 649.729287 335.991823 
L 658.546458 336.049038 
L 667.36363 336.474059 
L 676.180802 336.845953 
L 684.997973 336.764218 
L 693.815145 336.964468 
L 702.632317 337.201499 
L 711.449489 337.230107 
L 720.26666 337.434444 
L 729.083832 337.479398 
L 737.901004 337.679648 
L 746.718176 337.888072 
L 755.535347 337.973894 
L 764.352519 338.035195 
L 773.169691 338.002501 
L 781.986862 338.153711 
L 790.804034 338.043369 
L 799.621206 338.076063 
L 808.438378 338.255879 
L 817.255549 338.243619 
L 826.072721 338.276313 
L 834.889893 338.423436 
L 843.707064 338.382568 
L 852.524236 338.415262 
L 861.341408 338.505171 
L 870.15858 338.46839 
L 878.975751 338.562385 
L 887.792923 338.541951 
L 896.610095 338.578732 
L 905.427266 338.525604 
L 914.244438 338.562385 
L 923.06161 338.627773 
L 931.878782 338.623686 
L 940.695953 338.64412 
L 949.513125 338.615513 
" clip-path="url(#p6e1e435bf8)" style="fill: none; stroke: #8085e9; stroke-linecap: square"/>
   </g>
   <g id="line2d_14">
    <path d="M 76.613125 338.770809 
L 85.430297 338.770809 
L 94.247468 338.770809 
L 103.06464 338.770809 
L 111.881812 338.770809 
L 120.698984 338.770809 
L 129.516155 338.770809 
L 138.333327 338.770809 
L 147.150499 338.770809 
L 155.96767 338.770809 
L 164.784842 338.770809 
L 173.602014 338.770809 
L 182.419186 338.770809 
L 191.236357 338.770809 
L 200.053529 338.770809 
L 208.870701 338.770809 
L 217.687872 338.770809 
L 226.505044 338.770809 
L 235.322216 338.770809 
L 244.139388 326.826016 
L 252.956559 138.530712 
L 261.773731 116.500207 
L 270.590903 110.841069 
L 279.408074 113.281623 
L 288.225246 120.81622 
L 297.042418 124.661321 
L 305.85959 135.864939 
L 314.676761 141.511792 
L 323.493933 155.397562 
L 332.311105 164.205669 
L 341.128277 178.005447 
L 349.945448 187.214854 
L 358.76262 201.043295 
L 367.579792 209.577045 
L 376.396963 221.210626 
L 385.214135 229.482303 
L 394.031307 240.108541 
L 402.848479 247.204985 
L 411.66565 256.709223 
L 420.482822 262.196375 
L 429.299994 269.268249 
L 438.117165 274.145263 
L 446.934337 280.754415 
L 455.751509 284.247355 
L 464.568681 287.560121 
L 473.385852 291.511689 
L 482.203024 295.983309 
L 491.020196 300.168286 
L 499.837367 302.379526 
L 508.654539 300.274753 
L 517.471711 308.652897 
L 526.288883 311.220392 
L 535.106054 313.071283 
L 543.923226 315.241574 
L 552.740398 317.448719 
L 561.557569 319.803281 
L 570.374741 321.297916 
L 579.191913 322.718842 
L 588.009085 323.648382 
L 596.826256 325.499272 
L 605.643428 326.596703 
L 614.4606 327.972585 
L 623.277771 328.541775 
L 632.094943 329.565497 
L 640.912115 330.351716 
L 649.729287 331.14203 
L 658.546458 331.915964 
L 667.36363 332.333643 
L 676.180802 333.095292 
L 684.997973 333.398314 
L 693.815145 334.131299 
L 702.632317 334.430226 
L 711.449489 334.720963 
L 720.26666 335.208255 
L 729.083832 335.355671 
L 737.901004 335.584985 
L 746.718176 336.076372 
L 755.535347 336.100941 
L 764.352519 336.358919 
L 773.169691 336.51043 
L 781.986862 336.735649 
L 790.804034 336.829831 
L 799.621206 336.969058 
L 808.438378 337.284364 
L 817.255549 337.370357 
L 826.072721 337.386736 
L 834.889893 337.554627 
L 843.707064 337.665189 
L 852.524236 337.783941 
L 861.341408 337.828985 
L 870.15858 337.910882 
L 878.975751 337.988685 
L 887.792923 337.972306 
L 896.610095 338.066488 
L 905.427266 338.160671 
L 914.244438 338.127911 
L 923.06161 338.263043 
L 931.878782 338.209809 
L 940.695953 338.332656 
L 949.513125 338.357225 
" clip-path="url(#p6e1e435bf8)" style="fill: none; stroke: #f15c80; stroke-linecap: square"/>
   </g>
   <g id="line2d_15">
    <path d="M 76.613125 338.770809 
L 85.430297 338.770809 
L 94.247468 338.770809 
L 103.06464 338.770809 
L 111.881812 338.770809 
L 120.698984 338.770809 
L 129.516155 338.770809 
L 138.333327 338.770809 
L 147.150499 338.770809 
L 155.96767 338.770809 
L 164.784842 338.770809 
L 173.602014 338.770809 
L 182.419186 338.770809 
L 191.236357 338.770809 
L 200.053529 338.770809 
L 208.870701 338.770809 
L 217.687872 338.770809 
L 226.505044 338.770809 
L 235.322216 338.770809 
L 244.139388 328.469217 
L 252.956559 150.185673 
L 261.773731 135.112472 
L 270.590903 131.714135 
L 279.408074 133.333367 
L 288.225246 131.960094 
L 297.042418 135.575695 
L 305.85959 136.69071 
L 314.676761 142.064919 
L 323.493933 147.836762 
L 332.311105 155.272929 
L 341.128277 161.54489 
L 349.945448 172.395791 
L 358.76262 178.868618 
L 367.579792 191.527319 
L 376.396963 201.058239 
L 385.214135 213.53657 
L 394.031307 228.453997 
L 402.848479 241.124997 
L 411.66565 253.017125 
L 420.482822 265.450364 
L 429.299994 274.34179 
L 438.117165 281.380323 
L 446.934337 285.938768 
L 455.751509 288.869782 
L 464.568681 292.583766 
L 473.385852 296.334644 
L 482.203024 299.876457 
L 491.020196 302.557413 
L 499.837367 305.103091 
L 508.654539 306.230404 
L 517.471711 311.022509 
L 526.288883 312.82621 
L 535.106054 314.617613 
L 543.923226 317.269874 
L 552.740398 318.655444 
L 561.557569 320.180391 
L 570.374741 321.885708 
L 579.191913 323.127802 
L 588.009085 324.345301 
L 596.826256 325.538203 
L 605.643428 326.841787 
L 614.4606 327.218924 
L 623.277771 328.432323 
L 632.094943 329.670318 
L 640.912115 329.985965 
L 649.729287 330.838624 
L 658.546458 331.70768 
L 667.36363 331.613396 
L 676.180802 332.507047 
L 684.997973 333.142442 
L 693.815145 333.244925 
L 702.632317 334.105782 
L 711.449489 334.171372 
L 720.26666 334.753475 
L 729.083832 335.02403 
L 737.901004 335.425764 
L 746.718176 335.585637 
L 755.535347 335.643028 
L 764.352519 335.87259 
L 773.169691 336.200535 
L 781.986862 336.364508 
L 790.804034 336.544878 
L 799.621206 336.77444 
L 808.438378 336.942512 
L 817.255549 337.192571 
L 826.072721 337.049095 
L 834.889893 337.299153 
L 843.707064 337.50002 
L 852.524236 337.594304 
L 861.341408 337.541013 
L 870.15858 337.704986 
L 878.975751 337.819767 
L 887.792923 337.795171 
L 896.610095 337.897654 
L 905.427266 337.987839 
L 914.244438 337.955044 
L 923.06161 337.946846 
L 931.878782 338.188706 
L 940.695953 338.180507 
L 949.513125 338.131315 
" clip-path="url(#p6e1e435bf8)" style="fill: none; stroke: #e4d354; stroke-linecap: square"/>
   </g>
   <g id="line2d_16">
    <path d="M 76.613125 338.770809 
L 85.430297 338.770809 
L 94.247468 338.770809 
L 103.06464 338.770809 
L 111.881812 338.770809 
L 120.698984 338.770809 
L 129.516155 338.770809 
L 138.333327 338.770809 
L 147.150499 338.770809 
L 155.96767 338.770809 
L 164.784842 338.770809 
L 173.602014 338.770809 
L 182.419186 338.770809 
L 191.236357 338.770809 
L 200.053529 338.770809 
L 208.870701 338.770809 
L 217.687872 338.770809 
L 226.505044 338.770809 
L 235.322216 338.770809 
L 244.139388 328.848445 
L 252.956559 141.758536 
L 261.773731 123.410135 
L 270.590903 118.912978 
L 279.408074 118.025812 
L 288.225246 116.942406 
L 297.042418 118.896625 
L 305.85959 117.159087 
L 314.676761 119.95959 
L 323.493933 123.818968 
L 332.311105 129.007052 
L 341.128277 133.96619 
L 349.945448 142.208252 
L 358.76262 151.873051 
L 367.579792 164.538681 
L 376.396963 179.313886 
L 385.214135 194.730958 
L 394.031307 217.948553 
L 402.848479 234.763832 
L 411.66565 261.509651 
L 420.482822 278.181839 
L 429.299994 292.666773 
L 438.117165 301.06828 
L 446.934337 305.213841 
L 455.751509 308.856538 
L 464.568681 311.444448 
L 473.385852 312.769065 
L 482.203024 315.373328 
L 491.020196 316.599825 
L 499.837367 318.276038 
L 508.654539 319.80916 
L 517.471711 321.975972 
L 526.288883 323.112526 
L 535.106054 324.890947 
L 543.923226 325.720877 
L 552.740398 326.865608 
L 561.557569 327.965367 
L 570.374741 328.689001 
L 579.191913 329.494401 
L 588.009085 330.49604 
L 596.826256 331.068406 
L 605.643428 331.534475 
L 614.4606 332.393023 
L 623.277771 332.818209 
L 632.094943 333.480517 
L 640.912115 333.746258 
L 649.729287 334.396302 
L 658.546458 334.801046 
L 667.36363 335.168995 
L 676.180802 335.373411 
L 684.997973 335.553298 
L 693.815145 335.978483 
L 702.632317 336.215606 
L 711.449489 336.505877 
L 720.26666 336.661234 
L 729.083832 336.771618 
L 737.901004 337.098684 
L 746.718176 337.049624 
L 755.535347 337.249952 
L 764.352519 337.527958 
L 773.169691 337.478899 
L 781.986862 337.72011 
L 790.804034 337.765081 
L 799.621206 337.826406 
L 808.438378 337.842759 
L 817.255549 338.104412 
L 826.072721 338.075794 
L 834.889893 338.043087 
L 843.707064 338.186179 
L 852.524236 338.20662 
L 861.341408 338.28021 
L 870.15858 338.30474 
L 878.975751 338.341535 
L 887.792923 338.361977 
L 896.610095 338.40286 
L 905.427266 338.460096 
L 914.244438 338.40286 
L 923.06161 338.464185 
L 931.878782 338.45192 
L 940.695953 338.545951 
L 949.513125 338.554128 
" clip-path="url(#p6e1e435bf8)" style="fill: none; stroke: #2b908f; stroke-linecap: square"/>
   </g>
   <g id="line2d_17">
    <path d="M 76.613125 338.770809 
L 85.430297 338.770809 
L 94.247468 338.770809 
L 103.06464 338.770809 
L 111.881812 338.770809 
L 120.698984 338.770809 
L 129.516155 338.770809 
L 138.333327 338.770809 
L 147.150499 338.770809 
L 155.96767 338.770809 
L 164.784842 338.770809 
L 173.602014 338.770809 
L 182.419186 338.770809 
L 191.236357 338.770809 
L 200.053529 338.770809 
L 208.870701 338.770809 
L 217.687872 338.770809 
L 226.505044 338.770809 
L 235.322216 338.770809 
L 244.139388 328.344599 
L 252.956559 166.243615 
L 261.773731 146.090365 
L 270.590903 136.866236 
L 279.408074 128.803301 
L 288.225246 131.465051 
L 297.042418 123.884583 
L 305.85959 125.769478 
L 314.676761 119.20301 
L 323.493933 122.53122 
L 332.311105 116.107857 
L 341.128277 120.981599 
L 349.945448 117.330381 
L 358.76262 130.434696 
L 367.579792 132.585357 
L 376.396963 156.492043 
L 385.214135 167.498849 
L 394.031307 202.048446 
L 402.848479 223.829003 
L 411.66565 255.569656 
L 420.482822 275.726995 
L 429.299994 293.541503 
L 438.117165 303.113172 
L 446.934337 309.401607 
L 455.751509 312.672575 
L 464.568681 315.452898 
L 473.385852 317.660801 
L 482.203024 319.472099 
L 491.020196 321.013543 
L 499.837367 322.865728 
L 508.654539 323.061986 
L 517.471711 325.498857 
L 526.288883 326.590543 
L 535.106054 327.633164 
L 543.923226 329.178696 
L 552.740398 329.828801 
L 561.557569 330.675164 
L 570.374741 331.382511 
L 579.191913 332.192075 
L 588.009085 332.62139 
L 596.826256 333.107946 
L 605.643428 333.664011 
L 614.4606 334.154656 
L 623.277771 334.526728 
L 632.094943 334.857914 
L 640.912115 335.336293 
L 649.729287 335.458954 
L 658.546458 335.773785 
L 667.36363 336.211277 
L 676.180802 336.366648 
L 684.997973 336.542462 
L 693.815145 336.714188 
L 702.632317 337.106704 
L 711.449489 337.200745 
L 720.26666 337.446067 
L 729.083832 337.335672 
L 737.901004 337.568728 
L 746.718176 337.756809 
L 755.535347 337.838583 
L 764.352519 337.662769 
L 773.169691 337.859027 
L 781.986862 338.018487 
L 790.804034 338.059374 
L 799.621206 338.051196 
L 808.438378 338.177946 
L 817.255549 338.247454 
L 826.072721 338.353761 
L 834.889893 338.374204 
L 843.707064 338.402825 
L 852.524236 338.349672 
L 861.341408 338.423269 
L 870.15858 338.480511 
L 878.975751 338.529575 
L 887.792923 338.472333 
L 896.610095 338.582728 
L 905.427266 338.599083 
L 914.244438 338.554107 
L 923.06161 338.603172 
L 931.878782 338.631793 
L 940.695953 338.603172 
L 949.513125 338.607261 
" clip-path="url(#p6e1e435bf8)" style="fill: none; stroke: #f45b5b; stroke-linecap: square"/>
   </g>
   <g id="line2d_18">
    <path d="M 76.613125 338.770809 
L 85.430297 338.770809 
L 94.247468 338.770809 
L 103.06464 338.770809 
L 111.881812 338.770809 
L 120.698984 338.770809 
L 129.516155 338.770809 
L 138.333327 338.770809 
L 147.150499 338.770809 
L 155.96767 338.770809 
L 164.784842 338.770809 
L 173.602014 338.770809 
L 182.419186 338.770809 
L 191.236357 338.770809 
L 200.053529 338.770809 
L 208.870701 338.770809 
L 217.687872 338.770809 
L 226.505044 338.770809 
L 235.322216 338.770809 
L 244.139388 329.605097 
L 252.956559 160.338662 
L 261.773731 142.91725 
L 270.590903 139.580537 
L 279.408074 137.699025 
L 288.225246 140.142122 
L 297.042418 143.380455 
L 305.85959 143.753478 
L 314.676761 150.676952 
L 323.493933 154.501464 
L 332.311105 162.199678 
L 341.128277 168.245933 
L 349.945448 178.120799 
L 358.76262 186.8561 
L 367.579792 199.04289 
L 376.396963 210.323766 
L 385.214135 222.514655 
L 394.031307 234.959692 
L 402.848479 244.391849 
L 411.66565 255.578445 
L 420.482822 261.739476 
L 429.299994 268.790023 
L 438.117165 272.889179 
L 446.934337 277.119508 
L 455.751509 281.960611 
L 464.568681 285.239935 
L 473.385852 288.732416 
L 482.203024 292.376565 
L 491.020196 295.282867 
L 499.837367 299.517294 
L 508.654539 299.984598 
L 517.471711 304.87899 
L 526.288883 307.260599 
L 535.106054 310.002935 
L 543.923226 312.130396 
L 552.740398 314.655476 
L 561.557569 317.01659 
L 570.374741 317.35682 
L 579.191913 319.877801 
L 588.009085 321.517463 
L 596.826256 323.071043 
L 605.643428 324.468855 
L 614.4606 325.473148 
L 623.277771 326.887357 
L 632.094943 327.670296 
L 640.912115 328.982025 
L 649.729287 329.400139 
L 658.546458 330.506911 
L 667.36363 331.060297 
L 676.180802 331.572692 
L 684.997973 332.179367 
L 693.815145 332.724554 
L 702.632317 333.57308 
L 711.449489 333.843624 
L 720.26666 334.220746 
L 729.083832 334.536381 
L 737.901004 334.872512 
L 746.718176 335.311122 
L 755.535347 335.643153 
L 764.352519 335.643153 
L 773.169691 336.135052 
L 781.986862 336.221134 
L 790.804034 336.3892 
L 799.621206 336.688438 
L 808.438378 336.786818 
L 817.255549 336.786818 
L 826.072721 336.983577 
L 834.889893 337.315609 
L 843.707064 337.332005 
L 852.524236 337.475476 
L 861.341408 337.65174 
L 870.15858 337.590252 
L 878.975751 337.668136 
L 887.792923 337.860797 
L 896.610095 337.955077 
L 905.427266 338.032961 
L 914.244438 338.020664 
L 923.06161 338.069853 
L 931.878782 338.172332 
L 940.695953 338.110845 
L 949.513125 338.229721 
" clip-path="url(#p6e1e435bf8)" style="fill: none; stroke: #91e8e1; stroke-linecap: square"/>
   </g>
   <g id="line2d_19">
    <path d="M 76.613125 338.770809 
L 85.430297 338.770809 
L 94.247468 338.770809 
L 103.06464 338.770809 
L 111.881812 338.770809 
L 120.698984 338.770809 
L 129.516155 338.770809 
L 138.333327 338.770809 
L 147.150499 338.770809 
L 155.96767 338.770809 
L 164.784842 338.770809 
L 173.602014 338.770809 
L 182.419186 338.770809 
L 191.236357 338.770809 
L 200.053529 338.770809 
L 208.870701 338.770809 
L 217.687872 338.770809 
L 226.505044 338.770809 
L 235.322216 338.770809 
L 244.139388 327.271348 
L 252.956559 131.960573 
L 261.773731 113.81516 
L 270.590903 111.061019 
L 279.408074 111.347482 
L 288.225246 114.179378 
L 297.042418 118.398575 
L 305.85959 123.538548 
L 314.676761 129.247355 
L 323.493933 136.453957 
L 332.311105 146.283745 
L 341.128277 155.908917 
L 349.945448 168.300507 
L 358.76262 178.269435 
L 367.579792 191.708663 
L 376.396963 206.657962 
L 385.214135 220.457315 
L 394.031307 236.286467 
L 402.848479 250.687393 
L 411.66565 262.088638 
L 420.482822 272.123043 
L 429.299994 279.640662 
L 438.117165 285.374023 
L 446.934337 290.031101 
L 455.751509 295.179258 
L 464.568681 298.178939 
L 473.385852 301.591947 
L 482.203024 304.689844 
L 491.020196 307.362139 
L 499.837367 309.821632 
L 508.654539 310.640099 
L 517.471711 315.018897 
L 526.288883 316.733586 
L 535.106054 318.665168 
L 543.923226 321.271985 
L 552.740398 321.984051 
L 561.557569 324.034311 
L 570.374741 325.106503 
L 579.191913 326.29328 
L 588.009085 327.598735 
L 596.826256 328.462218 
L 605.643428 329.428009 
L 614.4606 329.931366 
L 623.277771 331.281836 
L 632.094943 331.682885 
L 640.912115 332.562737 
L 649.729287 332.558645 
L 658.546458 333.434404 
L 667.36363 333.921392 
L 676.180802 334.33881 
L 684.997973 334.731675 
L 693.815145 335.165462 
L 702.632317 335.365986 
L 711.449489 335.787497 
L 720.26666 335.799774 
L 729.083832 336.184453 
L 737.901004 336.225377 
L 746.718176 336.941535 
L 755.535347 337.00292 
L 764.352519 336.925166 
L 773.169691 337.207537 
L 781.986862 337.236184 
L 790.804034 337.260738 
L 799.621206 337.379415 
L 808.438378 337.539016 
L 817.255549 337.751818 
L 826.072721 337.796833 
L 834.889893 337.764095 
L 843.707064 338.07102 
L 852.524236 338.009635 
L 861.341408 338.083297 
L 870.15858 338.128313 
L 878.975751 338.062835 
L 887.792923 338.189698 
L 896.610095 338.332929 
L 905.427266 338.337022 
L 914.244438 338.345206 
L 923.06161 338.38613 
L 931.878782 338.484346 
L 940.695953 338.427053 
L 949.513125 338.488438 
" clip-path="url(#p6e1e435bf8)" style="fill: none; stroke: #7cb5ec; stroke-linecap: square"/>
   </g>
   <g id="line2d_20">
    <path d="M 76.613125 338.770809 
L 85.430297 338.770809 
L 94.247468 338.770809 
L 103.06464 338.770809 
L 111.881812 338.770809 
L 120.698984 338.770809 
L 129.516155 338.770809 
L 138.333327 338.770809 
L 147.150499 338.770809 
L 155.96767 338.770809 
L 164.784842 338.770809 
L 173.602014 338.770809 
L 182.419186 338.770809 
L 191.236357 338.770809 
L 200.053529 338.770809 
L 208.870701 338.770809 
L 217.687872 338.770809 
L 226.505044 338.770809 
L 235.322216 338.770809 
L 244.139388 328.611782 
L 252.956559 162.560847 
L 261.773731 142.898214 
L 270.590903 137.572918 
L 279.408074 134.03774 
L 288.225246 136.282557 
L 297.042418 135.061835 
L 305.85959 138.535567 
L 314.676761 138.719904 
L 323.493933 143.647852 
L 332.311105 146.535801 
L 341.128277 150.660858 
L 349.945448 157.469044 
L 358.76262 166.923494 
L 367.579792 173.510476 
L 376.396963 188.830944 
L 385.214135 196.396961 
L 394.031307 216.637184 
L 402.848479 232.248495 
L 411.66565 251.30896 
L 420.482822 264.409189 
L 429.299994 277.083395 
L 438.117165 284.055437 
L 446.934337 289.253745 
L 455.751509 294.406994 
L 464.568681 297.348196 
L 473.385852 301.247951 
L 482.203024 302.988914 
L 491.020196 305.045297 
L 499.837367 307.994692 
L 508.654539 304.029395 
L 517.471711 312.304086 
L 526.288883 315.65083 
L 535.106054 317.313961 
L 543.923226 319.054923 
L 552.740398 321.627451 
L 561.557569 322.766245 
L 570.374741 324.113955 
L 579.191913 325.67058 
L 588.009085 327.100217 
L 596.826256 327.870337 
L 605.643428 329.193468 
L 614.4606 329.861179 
L 623.277771 330.586238 
L 632.094943 331.262141 
L 640.912115 332.14696 
L 649.729287 332.556598 
L 658.546458 333.240694 
L 667.36363 333.33491 
L 676.180802 334.064066 
L 684.997973 334.649849 
L 693.815145 334.957078 
L 702.632317 335.530571 
L 711.449489 335.727197 
L 720.26666 335.936113 
L 729.083832 336.013944 
L 737.901004 336.218763 
L 746.718176 336.669365 
L 755.535347 336.648883 
L 764.352519 337.042136 
L 773.169691 336.829124 
L 781.986862 337.02575 
L 790.804034 337.279726 
L 799.621206 337.070811 
L 808.438378 337.398521 
L 817.255549 337.464063 
L 826.072721 337.574666 
L 834.889893 337.836834 
L 843.707064 337.787677 
L 852.524236 337.951533 
L 861.341408 338.152255 
L 870.15858 338.086713 
L 878.975751 338.189123 
L 887.792923 338.094906 
L 896.610095 338.160448 
L 905.427266 338.230087 
L 914.244438 338.28334 
L 923.06161 338.28334 
L 931.878782 338.377556 
L 940.695953 338.393942 
L 949.513125 338.377556 
" clip-path="url(#p6e1e435bf8)" style="fill: none; stroke: #434348; stroke-linecap: square"/>
   </g>
   <g id="line2d_21">
    <path d="M 76.613125 338.770809 
L 85.430297 338.770809 
L 94.247468 338.770809 
L 103.06464 338.770809 
L 111.881812 338.770809 
L 120.698984 338.770809 
L 129.516155 338.770809 
L 138.333327 338.770809 
L 147.150499 338.770809 
L 155.96767 338.770809 
L 164.784842 338.770809 
L 173.602014 338.770809 
L 182.419186 338.770809 
L 191.236357 338.770809 
L 200.053529 338.770809 
L 208.870701 338.770809 
L 217.687872 338.770809 
L 226.505044 338.770809 
L 235.322216 338.770809 
L 244.139388 326.543124 
L 252.956559 152.139231 
L 261.773731 130.834778 
L 270.590903 116.159105 
L 279.408074 111.389817 
L 288.225246 111.549202 
L 297.042418 106.816696 
L 305.85959 106.248631 
L 314.676761 101.781767 
L 323.493933 105.104329 
L 332.311105 101.900284 
L 341.128277 107.51145 
L 349.945448 108.063168 
L 358.76262 126.747985 
L 367.579792 133.331809 
L 376.396963 158.535062 
L 385.214135 175.638291 
L 394.031307 212.69733 
L 402.848479 236.539681 
L 411.66565 265.134972 
L 420.482822 284.866009 
L 429.299994 301.760811 
L 438.117165 310.641412 
L 446.934337 315.668168 
L 455.751509 320.216769 
L 464.568681 322.489026 
L 473.385852 324.213652 
L 482.203024 325.599075 
L 491.020196 327.736468 
L 499.837367 329.661347 
L 508.654539 325.10866 
L 517.471711 331.860042 
L 526.288883 332.975737 
L 535.106054 333.470238 
L 543.923226 334.046476 
L 552.740398 334.557325 
L 561.557569 335.182605 
L 570.374741 335.448246 
L 579.191913 335.938662 
L 588.009085 336.216563 
L 596.826256 336.31056 
L 605.643428 336.608896 
L 614.4606 337.066616 
L 623.277771 337.123831 
L 632.094943 337.299564 
L 640.912115 337.524337 
L 649.729287 337.626507 
L 658.546458 337.614247 
L 667.36363 337.92893 
L 676.180802 337.92893 
L 684.997973 337.998405 
L 693.815145 338.215005 
L 702.632317 338.239526 
L 711.449489 338.202745 
L 720.26666 338.382564 
L 729.083832 338.317175 
L 737.901004 338.456126 
L 746.718176 338.431605 
L 755.535347 338.505168 
L 764.352519 338.4643 
L 773.169691 338.57873 
L 781.986862 338.529688 
L 790.804034 338.611424 
L 799.621206 338.615511 
L 808.438378 338.582817 
L 817.255549 338.59099 
L 826.072721 338.644119 
L 834.889893 338.603251 
L 843.707064 338.640032 
L 852.524236 338.652292 
L 861.341408 338.668639 
L 870.15858 338.668639 
L 878.975751 338.672726 
L 887.792923 338.70542 
L 896.610095 338.689073 
L 905.427266 338.70542 
L 914.244438 338.672726 
L 923.06161 338.713594 
L 931.878782 338.729941 
L 940.695953 338.717681 
L 949.513125 338.713594 
" clip-path="url(#p6e1e435bf8)" style="fill: none; stroke: #90ed7d; stroke-linecap: square"/>
   </g>
   <g id="line2d_22">
    <path d="M 76.613125 338.770809 
L 85.430297 338.770809 
L 94.247468 338.770809 
L 103.06464 338.770809 
L 111.881812 338.770809 
L 120.698984 338.770809 
L 129.516155 338.770809 
L 138.333327 338.770809 
L 147.150499 338.770809 
L 155.96767 338.770809 
L 164.784842 338.770809 
L 173.602014 338.770809 
L 182.419186 338.770809 
L 191.236357 338.770809 
L 200.053529 338.770809 
L 208.870701 338.770809 
L 217.687872 338.770809 
L 226.505044 338.770809 
L 235.322216 338.770809 
L 244.139388 325.041351 
L 252.956559 109.418923 
L 261.773731 84.76152 
L 270.590903 73.768138 
L 279.408074 74.974629 
L 288.225246 88.086527 
L 297.042418 95.215049 
L 305.85959 110.335039 
L 314.676761 123.209728 
L 323.493933 140.231475 
L 332.311105 154.987473 
L 341.128277 172.802641 
L 349.945448 184.524008 
L 358.76262 203.672451 
L 367.579792 216.301753 
L 376.396963 231.581245 
L 385.214135 241.249532 
L 394.031307 253.715242 
L 402.848479 260.532938 
L 411.66565 270.516139 
L 420.482822 279.035193 
L 429.299994 285.124904 
L 438.117165 289.378296 
L 446.934337 293.284055 
L 455.751509 296.764475 
L 464.568681 299.52509 
L 473.385852 302.17937 
L 482.203024 304.882728 
L 491.020196 307.242542 
L 499.837367 309.553279 
L 508.654539 308.571727 
L 517.471711 314.988623 
L 526.288883 317.205294 
L 535.106054 318.223655 
L 543.923226 320.599828 
L 552.740398 321.957642 
L 561.557569 323.323635 
L 570.374741 324.431971 
L 579.191913 325.953376 
L 588.009085 327.139418 
L 596.826256 328.370448 
L 605.643428 329.069804 
L 614.4606 329.850956 
L 623.277771 330.820238 
L 632.094943 331.642288 
L 640.912115 332.173962 
L 649.729287 332.693367 
L 658.546458 333.351824 
L 667.36363 333.903947 
L 676.180802 334.325197 
L 684.997973 334.987744 
L 693.815145 335.175875 
L 702.632317 335.396724 
L 711.449489 335.650292 
L 720.26666 335.924308 
L 729.083832 336.161517 
L 737.901004 336.623664 
L 746.718176 336.586856 
L 755.535347 336.885411 
L 764.352519 337.11853 
L 773.169691 337.261673 
L 781.986862 337.282122 
L 790.804034 337.539779 
L 799.621206 337.813796 
L 808.438378 337.809706 
L 817.255549 337.776988 
L 826.072721 337.785167 
L 834.889893 337.899682 
L 843.707064 338.051004 
L 852.524236 338.055094 
L 861.341408 338.263674 
L 870.15858 338.120531 
L 878.975751 338.222776 
L 887.792923 338.296392 
L 896.610095 338.365919 
L 905.427266 338.402727 
L 914.244438 338.390458 
L 923.06161 338.431356 
L 931.878782 338.500882 
L 940.695953 338.533601 
L 949.513125 338.468164 
" clip-path="url(#p6e1e435bf8)" style="fill: none; stroke: #f7a35c; stroke-linecap: square"/>
   </g>
   <g id="line2d_23">
    <path d="M 76.613125 338.770809 
L 85.430297 338.770809 
L 94.247468 338.770809 
L 103.06464 338.770809 
L 111.881812 338.770809 
L 120.698984 338.770809 
L 129.516155 338.770809 
L 138.333327 338.770809 
L 147.150499 338.770809 
L 155.96767 338.770809 
L 164.784842 338.770809 
L 173.602014 338.770809 
L 182.419186 338.770809 
L 191.236357 338.770809 
L 200.053529 338.770809 
L 208.870701 338.770809 
L 217.687872 338.770809 
L 226.505044 338.770809 
L 235.322216 338.770809 
L 244.139388 329.184991 
L 252.956559 153.540412 
L 261.773731 134.524176 
L 270.590903 129.837595 
L 279.408074 128.36946 
L 288.225246 128.651636 
L 297.042418 132.56121 
L 305.85959 132.933356 
L 314.676761 136.573022 
L 323.493933 142.596875 
L 332.311105 148.706607 
L 341.128277 151.7901 
L 349.945448 162.639578 
L 358.76262 171.248002 
L 367.579792 181.226414 
L 376.396963 196.300358 
L 385.214135 209.681245 
L 394.031307 225.785747 
L 402.848479 239.154364 
L 411.66565 252.314417 
L 420.482822 262.86945 
L 429.299994 271.997242 
L 438.117165 278.06608 
L 446.934337 284.196259 
L 455.751509 289.524895 
L 464.568681 294.334162 
L 473.385852 298.926685 
L 482.203024 301.891582 
L 491.020196 305.236803 
L 499.837367 308.794679 
L 508.654539 305.482174 
L 517.471711 313.963824 
L 526.288883 315.550555 
L 535.106054 317.583043 
L 543.923226 319.615531 
L 552.740398 321.766614 
L 561.557569 323.516926 
L 570.374741 324.82557 
L 579.191913 326.211915 
L 588.009085 327.324262 
L 596.826256 328.367088 
L 605.643428 330.264622 
L 614.4606 330.182832 
L 623.277771 331.360612 
L 632.094943 332.170335 
L 640.912115 332.644719 
L 649.729287 333.041402 
L 658.546458 333.904289 
L 667.36363 333.945184 
L 676.180802 334.73446 
L 684.997973 335.176127 
L 693.815145 335.531915 
L 702.632317 335.683227 
L 711.449489 335.871344 
L 720.26666 336.251669 
L 729.083832 336.223043 
L 737.901004 336.333459 
L 746.718176 336.799664 
L 755.535347 336.873275 
L 764.352519 336.942797 
L 773.169691 337.343569 
L 781.986862 337.147272 
L 790.804034 337.290405 
L 799.621206 337.617566 
L 808.438378 337.797505 
L 817.255549 337.695267 
L 826.072721 337.764789 
L 834.889893 337.969265 
L 843.707064 338.075592 
L 852.524236 338.194188 
L 861.341408 338.141024 
L 870.15858 338.120577 
L 878.975751 338.198277 
L 887.792923 338.292336 
L 896.610095 338.333231 
L 905.427266 338.398663 
L 914.244438 338.398663 
L 923.06161 338.410932 
L 931.878782 338.435469 
L 940.695953 338.500901 
L 949.513125 338.549975 
" clip-path="url(#p6e1e435bf8)" style="fill: none; stroke: #8085e9; stroke-linecap: square"/>
   </g>
   <g id="line2d_24">
    <path d="M 76.613125 338.770809 
L 85.430297 338.770809 
L 94.247468 338.770809 
L 103.06464 338.770809 
L 111.881812 338.770809 
L 120.698984 338.770809 
L 129.516155 338.770809 
L 138.333327 338.770809 
L 147.150499 338.770809 
L 155.96767 338.770809 
L 164.784842 338.770809 
L 173.602014 338.770809 
L 182.419186 338.770809 
L 191.236357 338.770809 
L 200.053529 338.770809 
L 208.870701 338.770809 
L 217.687872 338.770809 
L 226.505044 338.770809 
L 235.322216 338.770809 
L 244.139388 327.824113 
L 252.956559 145.853693 
L 261.773731 130.186336 
L 270.590903 123.714858 
L 279.408074 120.094595 
L 288.225246 119.77143 
L 297.042418 122.319932 
L 305.85959 120.982275 
L 314.676761 123.538959 
L 323.493933 124.627083 
L 332.311105 129.687271 
L 341.128277 133.647063 
L 349.945448 141.112579 
L 358.76262 150.181647 
L 367.579792 160.87063 
L 376.396963 177.564751 
L 385.214135 189.456397 
L 394.031307 214.59371 
L 402.848479 233.34545 
L 411.66565 260.315394 
L 420.482822 278.760332 
L 429.299994 293.818176 
L 438.117165 300.80099 
L 446.934337 306.466601 
L 455.751509 309.207366 
L 464.568681 310.954092 
L 473.385852 313.412599 
L 482.203024 314.819797 
L 491.020196 316.828328 
L 499.837367 319.106844 
L 508.654539 318.869584 
L 517.471711 321.679891 
L 526.288883 322.453032 
L 535.106054 323.876593 
L 543.923226 324.91972 
L 552.740398 326.380098 
L 561.557569 327.382318 
L 570.374741 328.053192 
L 579.191913 328.899965 
L 588.009085 329.640381 
L 596.826256 330.327617 
L 605.643428 331.309384 
L 614.4606 331.755269 
L 623.277771 332.520229 
L 632.094943 332.896573 
L 640.912115 333.542903 
L 649.729287 333.776072 
L 658.546458 334.172869 
L 667.36363 334.577848 
L 676.180802 334.950101 
L 684.997973 335.252812 
L 693.815145 335.719152 
L 702.632317 335.817328 
L 711.449489 336.06277 
L 720.26666 336.455476 
L 729.083832 336.762278 
L 737.901004 336.721372 
L 746.718176 336.970904 
L 755.535347 337.220436 
L 764.352519 337.334976 
L 773.169691 337.408608 
L 781.986862 337.404517 
L 790.804034 337.555873 
L 799.621206 337.768589 
L 808.438378 337.809496 
L 817.255549 337.862675 
L 826.072721 337.817677 
L 834.889893 338.059028 
L 843.707064 338.046756 
L 852.524236 338.173568 
L 861.341408 338.2472 
L 870.15858 338.189931 
L 878.975751 338.255382 
L 887.792923 338.312651 
L 896.610095 338.386284 
L 905.427266 338.374012 
L 914.244438 338.390375 
L 923.06161 338.496733 
L 931.878782 338.464007 
L 940.695953 338.545821 
L 949.513125 338.54173 
" clip-path="url(#p6e1e435bf8)" style="fill: none; stroke: #f15c80; stroke-linecap: square"/>
   </g>
   <g id="line2d_25">
    <path d="M 32.968125 338.770809 
L 993.158125 338.770809 
" clip-path="url(#p6e1e435bf8)" style="fill: none; stroke: #dedede; stroke-width: 2; stroke-linecap: square"/>
   </g>
   <g id="text_16">
    <!-- RSeQC: Inner Distance -->
    <g transform="translate(422.148125 19.3575) scale(0.16 -0.16)">
     <defs>
      <path id="DejaVuSans-52" d="M 2841 2188 
Q 3044 2119 3236 1894 
Q 3428 1669 3622 1275 
L 4263 0 
L 3584 0 
L 2988 1197 
Q 2756 1666 2539 1819 
Q 2322 1972 1947 1972 
L 1259 1972 
L 1259 0 
L 628 0 
L 628 4666 
L 2053 4666 
Q 2853 4666 3247 4331 
Q 3641 3997 3641 3322 
Q 3641 2881 3436 2590 
Q 3231 2300 2841 2188 
z
M 1259 4147 
L 1259 2491 
L 2053 2491 
Q 2509 2491 2742 2702 
Q 2975 2913 2975 3322 
Q 2975 3731 2742 3939 
Q 2509 4147 2053 4147 
L 1259 4147 
z
" transform="scale(0.015625)"/>
      <path id="DejaVuSans-53" d="M 3425 4513 
L 3425 3897 
Q 3066 4069 2747 4153 
Q 2428 4238 2131 4238 
Q 1616 4238 1336 4038 
Q 1056 3838 1056 3469 
Q 1056 3159 1242 3001 
Q 1428 2844 1947 2747 
L 2328 2669 
Q 3034 2534 3370 2195 
Q 3706 1856 3706 1288 
Q 3706 609 3251 259 
Q 2797 -91 1919 -91 
Q 1588 -91 1214 -16 
Q 841 59 441 206 
L 441 856 
Q 825 641 1194 531 
Q 1563 422 1919 422 
Q 2459 422 2753 634 
Q 3047 847 3047 1241 
Q 3047 1584 2836 1778 
Q 2625 1972 2144 2069 
L 1759 2144 
Q 1053 2284 737 2584 
Q 422 2884 422 3419 
Q 422 4038 858 4394 
Q 1294 4750 2059 4750 
Q 2388 4750 2728 4690 
Q 3069 4631 3425 4513 
z
" transform="scale(0.015625)"/>
      <path id="DejaVuSans-51" d="M 2522 4238 
Q 1834 4238 1429 3725 
Q 1025 3213 1025 2328 
Q 1025 1447 1429 934 
Q 1834 422 2522 422 
Q 3209 422 3611 934 
Q 4013 1447 4013 2328 
Q 4013 3213 3611 3725 
Q 3209 4238 2522 4238 
z
M 3406 84 
L 4238 -825 
L 3475 -825 
L 2784 -78 
Q 2681 -84 2626 -87 
Q 2572 -91 2522 -91 
Q 1538 -91 948 567 
Q 359 1225 359 2328 
Q 359 3434 948 4092 
Q 1538 4750 2522 4750 
Q 3503 4750 4090 4092 
Q 4678 3434 4678 2328 
Q 4678 1516 4351 937 
Q 4025 359 3406 84 
z
" transform="scale(0.015625)"/>
      <path id="DejaVuSans-43" d="M 4122 4306 
L 4122 3641 
Q 3803 3938 3442 4084 
Q 3081 4231 2675 4231 
Q 1875 4231 1450 3742 
Q 1025 3253 1025 2328 
Q 1025 1406 1450 917 
Q 1875 428 2675 428 
Q 3081 428 3442 575 
Q 3803 722 4122 1019 
L 4122 359 
Q 3791 134 3420 21 
Q 3050 -91 2638 -91 
Q 1578 -91 968 557 
Q 359 1206 359 2328 
Q 359 3453 968 4101 
Q 1578 4750 2638 4750 
Q 3056 4750 3426 4639 
Q 3797 4528 4122 4306 
z
" transform="scale(0.015625)"/>
      <path id="DejaVuSans-3a" d="M 750 794 
L 1409 794 
L 1409 0 
L 750 0 
L 750 794 
z
M 750 3309 
L 1409 3309 
L 1409 2516 
L 750 2516 
L 750 3309 
z
" transform="scale(0.015625)"/>
     </defs>
     <use xlink:href="#DejaVuSans-52"/>
     <use xlink:href="#DejaVuSans-53" x="69.482422"/>
     <use xlink:href="#DejaVuSans-65" x="132.958984"/>
     <use xlink:href="#DejaVuSans-51" x="194.482422"/>
     <use xlink:href="#DejaVuSans-43" x="273.193359"/>
     <use xlink:href="#DejaVuSans-3a" x="343.017578"/>
     <use xlink:href="#DejaVuSans-20" x="376.708984"/>
     <use xlink:href="#DejaVuSans-49" x="408.496094"/>
     <use xlink:href="#DejaVuSans-6e" x="437.988281"/>
     <use xlink:href="#DejaVuSans-6e" x="501.367188"/>
     <use xlink:href="#DejaVuSans-65" x="564.746094"/>
     <use xlink:href="#DejaVuSans-72" x="626.269531"/>
     <use xlink:href="#DejaVuSans-20" x="667.382812"/>
     <use xlink:href="#DejaVuSans-44" x="699.169922"/>
     <use xlink:href="#DejaVuSans-69" x="776.171875"/>
     <use xlink:href="#DejaVuSans-73" x="803.955078"/>
     <use xlink:href="#DejaVuSans-74" x="856.054688"/>
     <use xlink:href="#DejaVuSans-61" x="895.263672"/>
     <use xlink:href="#DejaVuSans-6e" x="956.542969"/>
     <use xlink:href="#DejaVuSans-63" x="1019.921875"/>
     <use xlink:href="#DejaVuSans-65" x="1074.902344"/>
    </g>
   </g>
  </g>
 </g>
 <defs>
  <clipPath id="p6e1e435bf8">
   <rect x="32.968125" y="35.2559" width="960.19" height="317.968"/>
  </clipPath>
 </defs>
</svg>
