<?xml version="1.0" encoding="utf-8" standalone="no"?>
<!DOCTYPE svg PUBLIC "-//W3C//DTD SVG 1.1//EN"
  "http://www.w3.org/Graphics/SVG/1.1/DTD/svg11.dtd">
<svg xmlns:xlink="http://www.w3.org/1999/xlink" width="1000.358125pt" height="388.844525pt" viewBox="0 0 1000.358125 388.844525" xmlns="http://www.w3.org/2000/svg" version="1.1">
 <metadata>
  <rdf:RDF xmlns:dc="http://purl.org/dc/elements/1.1/" xmlns:cc="http://creativecommons.org/ns#" xmlns:rdf="http://www.w3.org/1999/02/22-rdf-syntax-ns#">
   <cc:Work>
    <dc:type rdf:resource="http://purl.org/dc/dcmitype/StillImage"/>
    <dc:date>2024-08-15T09:46:26.978310</dc:date>
    <dc:format>image/svg+xml</dc:format>
    <dc:creator>
     <cc:Agent>
      <dc:title>Matplotlib v3.8.2, https://matplotlib.org/</dc:title>
     </cc:Agent>
    </dc:creator>
   </cc:Work>
  </rdf:RDF>
 </metadata>
 <defs>
  <style type="text/css">*{stroke-linejoin: round; stroke-linecap: butt}</style>
 </defs>
 <g id="figure_1">
  <g id="axes_1">
   <g id="patch_1">
    <path d="M 32.968125 353.2239 
L 993.158125 353.2239 
L 993.158125 35.2559 
L 32.968125 35.2559 
z
" style="fill: #ffffff"/>
   </g>
   <g id="matplotlib.axis_1">
    <g id="xtick_1">
     <g id="text_1">
      <!-- 0 -->
      <g transform="translate(68.209736 366.30265) scale(0.08 -0.08)">
       <defs>
        <path id="DejaVuSans-30" d="M 2034 4250 
Q 1547 4250 1301 3770 
Q 1056 3291 1056 2328 
Q 1056 1369 1301 889 
Q 1547 409 2034 409 
Q 2525 409 2770 889 
Q 3016 1369 3016 2328 
Q 3016 3291 2770 3770 
Q 2525 4250 2034 4250 
z
M 2034 4750 
Q 2819 4750 3233 4129 
Q 3647 3509 3647 2328 
Q 3647 1150 3233 529 
Q 2819 -91 2034 -91 
Q 1250 -91 836 529 
Q 422 1150 422 2328 
Q 422 3509 836 4129 
Q 1250 4750 2034 4750 
z
" transform="scale(0.015625)"/>
       </defs>
       <use xlink:href="#DejaVuSans-30"/>
      </g>
     </g>
    </g>
    <g id="xtick_2">
     <g id="text_2">
      <!-- 20 -->
      <g transform="translate(182.832521 366.30265) scale(0.08 -0.08)">
       <defs>
        <path id="DejaVuSans-32" d="M 1228 531 
L 3431 531 
L 3431 0 
L 469 0 
L 469 531 
Q 828 903 1448 1529 
Q 2069 2156 2228 2338 
Q 2531 2678 2651 2914 
Q 2772 3150 2772 3378 
Q 2772 3750 2511 3984 
Q 2250 4219 1831 4219 
Q 1534 4219 1204 4116 
Q 875 4013 500 3803 
L 500 4441 
Q 881 4594 1212 4672 
Q 1544 4750 1819 4750 
Q 2544 4750 2975 4387 
Q 3406 4025 3406 3419 
Q 3406 3131 3298 2873 
Q 3191 2616 2906 2266 
Q 2828 2175 2409 1742 
Q 1991 1309 1228 531 
z
" transform="scale(0.015625)"/>
       </defs>
       <use xlink:href="#DejaVuSans-32"/>
       <use xlink:href="#DejaVuSans-30" x="63.623047"/>
      </g>
     </g>
    </g>
    <g id="xtick_3">
     <g id="text_3">
      <!-- 40 -->
      <g transform="translate(300.000306 366.30265) scale(0.08 -0.08)">
       <defs>
        <path id="DejaVuSans-34" d="M 2419 4116 
L 825 1625 
L 2419 1625 
L 2419 4116 
z
M 2253 4666 
L 3047 4666 
L 3047 1625 
L 3713 1625 
L 3713 1100 
L 3047 1100 
L 3047 0 
L 2419 0 
L 2419 1100 
L 313 1100 
L 313 1709 
L 2253 4666 
z
" transform="scale(0.015625)"/>
       </defs>
       <use xlink:href="#DejaVuSans-34"/>
       <use xlink:href="#DejaVuSans-30" x="63.623047"/>
      </g>
     </g>
    </g>
    <g id="xtick_4">
     <g id="text_4">
      <!-- 60 -->
      <g transform="translate(417.168091 366.30265) scale(0.08 -0.08)">
       <defs>
        <path id="DejaVuSans-36" d="M 2113 2584 
Q 1688 2584 1439 2293 
Q 1191 2003 1191 1497 
Q 1191 994 1439 701 
Q 1688 409 2113 409 
Q 2538 409 2786 701 
Q 3034 994 3034 1497 
Q 3034 2003 2786 2293 
Q 2538 2584 2113 2584 
z
M 3366 4563 
L 3366 3988 
Q 3128 4100 2886 4159 
Q 2644 4219 2406 4219 
Q 1781 4219 1451 3797 
Q 1122 3375 1075 2522 
Q 1259 2794 1537 2939 
Q 1816 3084 2150 3084 
Q 2853 3084 3261 2657 
Q 3669 2231 3669 1497 
Q 3669 778 3244 343 
Q 2819 -91 2113 -91 
Q 1303 -91 875 529 
Q 447 1150 447 2328 
Q 447 3434 972 4092 
Q 1497 4750 2381 4750 
Q 2619 4750 2861 4703 
Q 3103 4656 3366 4563 
z
" transform="scale(0.015625)"/>
       </defs>
       <use xlink:href="#DejaVuSans-36"/>
       <use xlink:href="#DejaVuSans-30" x="63.623047"/>
      </g>
     </g>
    </g>
    <g id="xtick_5">
     <g id="text_5">
      <!-- 80 -->
      <g transform="translate(534.335877 366.30265) scale(0.08 -0.08)">
       <defs>
        <path id="DejaVuSans-38" d="M 2034 2216 
Q 1584 2216 1326 1975 
Q 1069 1734 1069 1313 
Q 1069 891 1326 650 
Q 1584 409 2034 409 
Q 2484 409 2743 651 
Q 3003 894 3003 1313 
Q 3003 1734 2745 1975 
Q 2488 2216 2034 2216 
z
M 1403 2484 
Q 997 2584 770 2862 
Q 544 3141 544 3541 
Q 544 4100 942 4425 
Q 1341 4750 2034 4750 
Q 2731 4750 3128 4425 
Q 3525 4100 3525 3541 
Q 3525 3141 3298 2862 
Q 3072 2584 2669 2484 
Q 3125 2378 3379 2068 
Q 3634 1759 3634 1313 
Q 3634 634 3220 271 
Q 2806 -91 2034 -91 
Q 1263 -91 848 271 
Q 434 634 434 1313 
Q 434 1759 690 2068 
Q 947 2378 1403 2484 
z
M 1172 3481 
Q 1172 3119 1398 2916 
Q 1625 2713 2034 2713 
Q 2441 2713 2670 2916 
Q 2900 3119 2900 3481 
Q 2900 3844 2670 4047 
Q 2441 4250 2034 4250 
Q 1625 4250 1398 4047 
Q 1172 3844 1172 3481 
z
" transform="scale(0.015625)"/>
       </defs>
       <use xlink:href="#DejaVuSans-38"/>
       <use xlink:href="#DejaVuSans-30" x="63.623047"/>
      </g>
     </g>
    </g>
    <g id="xtick_6">
     <g id="text_6">
      <!-- 100 -->
      <g transform="translate(648.958662 366.30265) scale(0.08 -0.08)">
       <defs>
        <path id="DejaVuSans-31" d="M 794 531 
L 1825 531 
L 1825 4091 
L 703 3866 
L 703 4441 
L 1819 4666 
L 2450 4666 
L 2450 531 
L 3481 531 
L 3481 0 
L 794 0 
L 794 531 
z
" transform="scale(0.015625)"/>
       </defs>
       <use xlink:href="#DejaVuSans-31"/>
       <use xlink:href="#DejaVuSans-30" x="63.623047"/>
       <use xlink:href="#DejaVuSans-30" x="127.246094"/>
      </g>
     </g>
    </g>
    <g id="xtick_7">
     <g id="text_7">
      <!-- 120 -->
      <g transform="translate(766.126447 366.30265) scale(0.08 -0.08)">
       <use xlink:href="#DejaVuSans-31"/>
       <use xlink:href="#DejaVuSans-32" x="63.623047"/>
       <use xlink:href="#DejaVuSans-30" x="127.246094"/>
      </g>
     </g>
    </g>
    <g id="xtick_8">
     <g id="text_8">
      <!-- 140 -->
      <g transform="translate(883.294232 366.30265) scale(0.08 -0.08)">
       <use xlink:href="#DejaVuSans-31"/>
       <use xlink:href="#DejaVuSans-34" x="63.623047"/>
       <use xlink:href="#DejaVuSans-30" x="127.246094"/>
      </g>
     </g>
    </g>
    <g id="text_9">
     <!-- Length Trimmed (bp) -->
     <g transform="translate(460.635781 379.564837) scale(0.1 -0.1)">
      <defs>
       <path id="DejaVuSans-4c" d="M 628 4666 
L 1259 4666 
L 1259 531 
L 3531 531 
L 3531 0 
L 628 0 
L 628 4666 
z
" transform="scale(0.015625)"/>
       <path id="DejaVuSans-65" d="M 3597 1894 
L 3597 1613 
L 953 1613 
Q 991 1019 1311 708 
Q 1631 397 2203 397 
Q 2534 397 2845 478 
Q 3156 559 3463 722 
L 3463 178 
Q 3153 47 2828 -22 
Q 2503 -91 2169 -91 
Q 1331 -91 842 396 
Q 353 884 353 1716 
Q 353 2575 817 3079 
Q 1281 3584 2069 3584 
Q 2775 3584 3186 3129 
Q 3597 2675 3597 1894 
z
M 3022 2063 
Q 3016 2534 2758 2815 
Q 2500 3097 2075 3097 
Q 1594 3097 1305 2825 
Q 1016 2553 972 2059 
L 3022 2063 
z
" transform="scale(0.015625)"/>
       <path id="DejaVuSans-6e" d="M 3513 2113 
L 3513 0 
L 2938 0 
L 2938 2094 
Q 2938 2591 2744 2837 
Q 2550 3084 2163 3084 
Q 1697 3084 1428 2787 
Q 1159 2491 1159 1978 
L 1159 0 
L 581 0 
L 581 3500 
L 1159 3500 
L 1159 2956 
Q 1366 3272 1645 3428 
Q 1925 3584 2291 3584 
Q 2894 3584 3203 3211 
Q 3513 2838 3513 2113 
z
" transform="scale(0.015625)"/>
       <path id="DejaVuSans-67" d="M 2906 1791 
Q 2906 2416 2648 2759 
Q 2391 3103 1925 3103 
Q 1463 3103 1205 2759 
Q 947 2416 947 1791 
Q 947 1169 1205 825 
Q 1463 481 1925 481 
Q 2391 481 2648 825 
Q 2906 1169 2906 1791 
z
M 3481 434 
Q 3481 -459 3084 -895 
Q 2688 -1331 1869 -1331 
Q 1566 -1331 1297 -1286 
Q 1028 -1241 775 -1147 
L 775 -588 
Q 1028 -725 1275 -790 
Q 1522 -856 1778 -856 
Q 2344 -856 2625 -561 
Q 2906 -266 2906 331 
L 2906 616 
Q 2728 306 2450 153 
Q 2172 0 1784 0 
Q 1141 0 747 490 
Q 353 981 353 1791 
Q 353 2603 747 3093 
Q 1141 3584 1784 3584 
Q 2172 3584 2450 3431 
Q 2728 3278 2906 2969 
L 2906 3500 
L 3481 3500 
L 3481 434 
z
" transform="scale(0.015625)"/>
       <path id="DejaVuSans-74" d="M 1172 4494 
L 1172 3500 
L 2356 3500 
L 2356 3053 
L 1172 3053 
L 1172 1153 
Q 1172 725 1289 603 
Q 1406 481 1766 481 
L 2356 481 
L 2356 0 
L 1766 0 
Q 1100 0 847 248 
Q 594 497 594 1153 
L 594 3053 
L 172 3053 
L 172 3500 
L 594 3500 
L 594 4494 
L 1172 4494 
z
" transform="scale(0.015625)"/>
       <path id="DejaVuSans-68" d="M 3513 2113 
L 3513 0 
L 2938 0 
L 2938 2094 
Q 2938 2591 2744 2837 
Q 2550 3084 2163 3084 
Q 1697 3084 1428 2787 
Q 1159 2491 1159 1978 
L 1159 0 
L 581 0 
L 581 4863 
L 1159 4863 
L 1159 2956 
Q 1366 3272 1645 3428 
Q 1925 3584 2291 3584 
Q 2894 3584 3203 3211 
Q 3513 2838 3513 2113 
z
" transform="scale(0.015625)"/>
       <path id="DejaVuSans-20" transform="scale(0.015625)"/>
       <path id="DejaVuSans-54" d="M -19 4666 
L 3928 4666 
L 3928 4134 
L 2272 4134 
L 2272 0 
L 1638 0 
L 1638 4134 
L -19 4134 
L -19 4666 
z
" transform="scale(0.015625)"/>
       <path id="DejaVuSans-72" d="M 2631 2963 
Q 2534 3019 2420 3045 
Q 2306 3072 2169 3072 
Q 1681 3072 1420 2755 
Q 1159 2438 1159 1844 
L 1159 0 
L 581 0 
L 581 3500 
L 1159 3500 
L 1159 2956 
Q 1341 3275 1631 3429 
Q 1922 3584 2338 3584 
Q 2397 3584 2469 3576 
Q 2541 3569 2628 3553 
L 2631 2963 
z
" transform="scale(0.015625)"/>
       <path id="DejaVuSans-69" d="M 603 3500 
L 1178 3500 
L 1178 0 
L 603 0 
L 603 3500 
z
M 603 4863 
L 1178 4863 
L 1178 4134 
L 603 4134 
L 603 4863 
z
" transform="scale(0.015625)"/>
       <path id="DejaVuSans-6d" d="M 3328 2828 
Q 3544 3216 3844 3400 
Q 4144 3584 4550 3584 
Q 5097 3584 5394 3201 
Q 5691 2819 5691 2113 
L 5691 0 
L 5113 0 
L 5113 2094 
Q 5113 2597 4934 2840 
Q 4756 3084 4391 3084 
Q 3944 3084 3684 2787 
Q 3425 2491 3425 1978 
L 3425 0 
L 2847 0 
L 2847 2094 
Q 2847 2600 2669 2842 
Q 2491 3084 2119 3084 
Q 1678 3084 1418 2786 
Q 1159 2488 1159 1978 
L 1159 0 
L 581 0 
L 581 3500 
L 1159 3500 
L 1159 2956 
Q 1356 3278 1631 3431 
Q 1906 3584 2284 3584 
Q 2666 3584 2933 3390 
Q 3200 3197 3328 2828 
z
" transform="scale(0.015625)"/>
       <path id="DejaVuSans-64" d="M 2906 2969 
L 2906 4863 
L 3481 4863 
L 3481 0 
L 2906 0 
L 2906 525 
Q 2725 213 2448 61 
Q 2172 -91 1784 -91 
Q 1150 -91 751 415 
Q 353 922 353 1747 
Q 353 2572 751 3078 
Q 1150 3584 1784 3584 
Q 2172 3584 2448 3432 
Q 2725 3281 2906 2969 
z
M 947 1747 
Q 947 1113 1208 752 
Q 1469 391 1925 391 
Q 2381 391 2643 752 
Q 2906 1113 2906 1747 
Q 2906 2381 2643 2742 
Q 2381 3103 1925 3103 
Q 1469 3103 1208 2742 
Q 947 2381 947 1747 
z
" transform="scale(0.015625)"/>
       <path id="DejaVuSans-28" d="M 1984 4856 
Q 1566 4138 1362 3434 
Q 1159 2731 1159 2009 
Q 1159 1288 1364 580 
Q 1569 -128 1984 -844 
L 1484 -844 
Q 1016 -109 783 600 
Q 550 1309 550 2009 
Q 550 2706 781 3412 
Q 1013 4119 1484 4856 
L 1984 4856 
z
" transform="scale(0.015625)"/>
       <path id="DejaVuSans-62" d="M 3116 1747 
Q 3116 2381 2855 2742 
Q 2594 3103 2138 3103 
Q 1681 3103 1420 2742 
Q 1159 2381 1159 1747 
Q 1159 1113 1420 752 
Q 1681 391 2138 391 
Q 2594 391 2855 752 
Q 3116 1113 3116 1747 
z
M 1159 2969 
Q 1341 3281 1617 3432 
Q 1894 3584 2278 3584 
Q 2916 3584 3314 3078 
Q 3713 2572 3713 1747 
Q 3713 922 3314 415 
Q 2916 -91 2278 -91 
Q 1894 -91 1617 61 
Q 1341 213 1159 525 
L 1159 0 
L 581 0 
L 581 4863 
L 1159 4863 
L 1159 2969 
z
" transform="scale(0.015625)"/>
       <path id="DejaVuSans-70" d="M 1159 525 
L 1159 -1331 
L 581 -1331 
L 581 3500 
L 1159 3500 
L 1159 2969 
Q 1341 3281 1617 3432 
Q 1894 3584 2278 3584 
Q 2916 3584 3314 3078 
Q 3713 2572 3713 1747 
Q 3713 922 3314 415 
Q 2916 -91 2278 -91 
Q 1894 -91 1617 61 
Q 1341 213 1159 525 
z
M 3116 1747 
Q 3116 2381 2855 2742 
Q 2594 3103 2138 3103 
Q 1681 3103 1420 2742 
Q 1159 2381 1159 1747 
Q 1159 1113 1420 752 
Q 1681 391 2138 391 
Q 2594 391 2855 752 
Q 3116 1113 3116 1747 
z
" transform="scale(0.015625)"/>
       <path id="DejaVuSans-29" d="M 513 4856 
L 1013 4856 
Q 1481 4119 1714 3412 
Q 1947 2706 1947 2009 
Q 1947 1309 1714 600 
Q 1481 -109 1013 -844 
L 513 -844 
Q 928 -128 1133 580 
Q 1338 1288 1338 2009 
Q 1338 2731 1133 3434 
Q 928 4138 513 4856 
z
" transform="scale(0.015625)"/>
      </defs>
      <use xlink:href="#DejaVuSans-4c"/>
      <use xlink:href="#DejaVuSans-65" x="53.962891"/>
      <use xlink:href="#DejaVuSans-6e" x="115.486328"/>
      <use xlink:href="#DejaVuSans-67" x="178.865234"/>
      <use xlink:href="#DejaVuSans-74" x="242.341797"/>
      <use xlink:href="#DejaVuSans-68" x="281.550781"/>
      <use xlink:href="#DejaVuSans-20" x="344.929688"/>
      <use xlink:href="#DejaVuSans-54" x="376.716797"/>
      <use xlink:href="#DejaVuSans-72" x="423.050781"/>
      <use xlink:href="#DejaVuSans-69" x="464.164062"/>
      <use xlink:href="#DejaVuSans-6d" x="491.947266"/>
      <use xlink:href="#DejaVuSans-6d" x="589.359375"/>
      <use xlink:href="#DejaVuSans-65" x="686.771484"/>
      <use xlink:href="#DejaVuSans-64" x="748.294922"/>
      <use xlink:href="#DejaVuSans-20" x="811.771484"/>
      <use xlink:href="#DejaVuSans-28" x="843.558594"/>
      <use xlink:href="#DejaVuSans-62" x="882.572266"/>
      <use xlink:href="#DejaVuSans-70" x="946.048828"/>
      <use xlink:href="#DejaVuSans-29" x="1009.525391"/>
     </g>
    </g>
   </g>
   <g id="matplotlib.axis_2">
    <g id="ytick_1">
     <g id="line2d_1">
      <path d="M 32.968125 353.2239 
L 993.158125 353.2239 
" clip-path="url(#p7692db523c)" style="fill: none; stroke: #dedede; stroke-linecap: square"/>
     </g>
     <g id="text_10">
      <!-- 0 -->
      <g transform="translate(20.878125 356.263275) scale(0.08 -0.08)">
       <use xlink:href="#DejaVuSans-30"/>
      </g>
     </g>
    </g>
    <g id="ytick_2">
     <g id="line2d_2">
      <path d="M 32.968125 289.233587 
L 993.158125 289.233587 
" clip-path="url(#p7692db523c)" style="fill: none; stroke: #dedede; stroke-linecap: square"/>
     </g>
     <g id="text_11">
      <!-- 1 -->
      <g transform="translate(20.878125 292.272962) scale(0.08 -0.08)">
       <use xlink:href="#DejaVuSans-31"/>
      </g>
     </g>
    </g>
    <g id="ytick_3">
     <g id="line2d_3">
      <path d="M 32.968125 225.243274 
L 993.158125 225.243274 
" clip-path="url(#p7692db523c)" style="fill: none; stroke: #dedede; stroke-linecap: square"/>
     </g>
     <g id="text_12">
      <!-- 2 -->
      <g transform="translate(20.878125 228.282649) scale(0.08 -0.08)">
       <use xlink:href="#DejaVuSans-32"/>
      </g>
     </g>
    </g>
    <g id="ytick_4">
     <g id="line2d_4">
      <path d="M 32.968125 161.252961 
L 993.158125 161.252961 
" clip-path="url(#p7692db523c)" style="fill: none; stroke: #dedede; stroke-linecap: square"/>
     </g>
     <g id="text_13">
      <!-- 3 -->
      <g transform="translate(20.878125 164.292336) scale(0.08 -0.08)">
       <defs>
        <path id="DejaVuSans-33" d="M 2597 2516 
Q 3050 2419 3304 2112 
Q 3559 1806 3559 1356 
Q 3559 666 3084 287 
Q 2609 -91 1734 -91 
Q 1441 -91 1130 -33 
Q 819 25 488 141 
L 488 750 
Q 750 597 1062 519 
Q 1375 441 1716 441 
Q 2309 441 2620 675 
Q 2931 909 2931 1356 
Q 2931 1769 2642 2001 
Q 2353 2234 1838 2234 
L 1294 2234 
L 1294 2753 
L 1863 2753 
Q 2328 2753 2575 2939 
Q 2822 3125 2822 3475 
Q 2822 3834 2567 4026 
Q 2313 4219 1838 4219 
Q 1578 4219 1281 4162 
Q 984 4106 628 3988 
L 628 4550 
Q 988 4650 1302 4700 
Q 1616 4750 1894 4750 
Q 2613 4750 3031 4423 
Q 3450 4097 3450 3541 
Q 3450 3153 3228 2886 
Q 3006 2619 2597 2516 
z
" transform="scale(0.015625)"/>
       </defs>
       <use xlink:href="#DejaVuSans-33"/>
      </g>
     </g>
    </g>
    <g id="ytick_5">
     <g id="line2d_5">
      <path d="M 32.968125 97.262648 
L 993.158125 97.262648 
" clip-path="url(#p7692db523c)" style="fill: none; stroke: #dedede; stroke-linecap: square"/>
     </g>
     <g id="text_14">
      <!-- 4 -->
      <g transform="translate(20.878125 100.302023) scale(0.08 -0.08)">
       <use xlink:href="#DejaVuSans-34"/>
      </g>
     </g>
    </g>
    <g id="text_15">
     <!-- Count -->
     <g transform="translate(14.798437 209.088338) rotate(-90) scale(0.1 -0.1)">
      <defs>
       <path id="DejaVuSans-43" d="M 4122 4306 
L 4122 3641 
Q 3803 3938 3442 4084 
Q 3081 4231 2675 4231 
Q 1875 4231 1450 3742 
Q 1025 3253 1025 2328 
Q 1025 1406 1450 917 
Q 1875 428 2675 428 
Q 3081 428 3442 575 
Q 3803 722 4122 1019 
L 4122 359 
Q 3791 134 3420 21 
Q 3050 -91 2638 -91 
Q 1578 -91 968 557 
Q 359 1206 359 2328 
Q 359 3453 968 4101 
Q 1578 4750 2638 4750 
Q 3056 4750 3426 4639 
Q 3797 4528 4122 4306 
z
" transform="scale(0.015625)"/>
       <path id="DejaVuSans-6f" d="M 1959 3097 
Q 1497 3097 1228 2736 
Q 959 2375 959 1747 
Q 959 1119 1226 758 
Q 1494 397 1959 397 
Q 2419 397 2687 759 
Q 2956 1122 2956 1747 
Q 2956 2369 2687 2733 
Q 2419 3097 1959 3097 
z
M 1959 3584 
Q 2709 3584 3137 3096 
Q 3566 2609 3566 1747 
Q 3566 888 3137 398 
Q 2709 -91 1959 -91 
Q 1206 -91 779 398 
Q 353 888 353 1747 
Q 353 2609 779 3096 
Q 1206 3584 1959 3584 
z
" transform="scale(0.015625)"/>
       <path id="DejaVuSans-75" d="M 544 1381 
L 544 3500 
L 1119 3500 
L 1119 1403 
Q 1119 906 1312 657 
Q 1506 409 1894 409 
Q 2359 409 2629 706 
Q 2900 1003 2900 1516 
L 2900 3500 
L 3475 3500 
L 3475 0 
L 2900 0 
L 2900 538 
Q 2691 219 2414 64 
Q 2138 -91 1772 -91 
Q 1169 -91 856 284 
Q 544 659 544 1381 
z
M 1991 3584 
L 1991 3584 
z
" transform="scale(0.015625)"/>
      </defs>
      <use xlink:href="#DejaVuSans-43"/>
      <use xlink:href="#DejaVuSans-6f" x="69.824219"/>
      <use xlink:href="#DejaVuSans-75" x="131.005859"/>
      <use xlink:href="#DejaVuSans-6e" x="194.384766"/>
      <use xlink:href="#DejaVuSans-74" x="257.763672"/>
     </g>
    </g>
    <g id="text_16">
     <!-- 1e6 -->
     <g transform="translate(32.968125 32.2559) scale(0.1 -0.1)">
      <use xlink:href="#DejaVuSans-31"/>
      <use xlink:href="#DejaVuSans-65" x="63.623047"/>
      <use xlink:href="#DejaVuSans-36" x="125.146484"/>
     </g>
    </g>
   </g>
   <g id="line2d_6">
    <path d="M 76.613125 150.698655 
L 82.471514 286.265716 
L 88.329904 324.50044 
L 94.188293 338.941646 
L 100.046682 341.57248 
L 105.905071 341.955398 
L 111.763461 341.792415 
L 117.62185 342.254936 
L 123.480239 342.229084 
L 129.338628 340.882856 
L 135.197018 341.196473 
L 146.913796 340.58127 
L 170.347353 340.377013 
L 176.205742 339.92217 
L 182.064132 340.668233 
L 193.78091 340.388467 
L 199.639299 339.636901 
L 205.497689 340.002925 
L 211.356078 339.779663 
L 217.214467 339.790286 
L 228.931246 340.273796 
L 234.789635 339.954869 
L 240.648024 340.446314 
L 252.364803 340.207182 
L 258.223192 339.206118 
L 269.939971 339.94527 
L 275.79836 340.585877 
L 281.656749 341.077259 
L 287.515138 341.427606 
L 293.373528 341.936905 
L 299.231917 342.042489 
L 310.948695 342.458362 
L 316.807085 342.475191 
L 322.665474 342.803397 
L 328.523863 343.609739 
L 334.382253 341.019156 
L 340.240642 346.422114 
L 346.099031 345.13834 
L 351.95742 344.964222 
L 357.81581 345.280271 
L 363.674199 345.743944 
L 369.532588 345.860343 
L 375.390977 346.361003 
L 387.107756 347.033285 
L 392.966145 347.139125 
L 398.824534 347.8315 
L 410.541313 348.439984 
L 416.399702 349.036758 
L 428.116481 349.849179 
L 433.97487 350.057531 
L 439.833259 350.078776 
L 445.691648 350.344144 
L 451.550038 350.731541 
L 457.408427 350.689692 
L 463.266816 351.09443 
L 474.983595 351.463207 
L 480.841984 351.55804 
L 486.700373 351.215948 
L 492.558763 346.013983 
L 498.417152 351.70733 
L 504.275541 352.726887 
L 510.13393 352.970306 
L 527.709098 353.093936 
L 609.726548 353.202975 
L 803.053393 353.2223 
L 949.513125 353.146856 
L 949.513125 353.146856 
" clip-path="url(#p7692db523c)" style="fill: none; stroke: #7cb5ec; stroke-linecap: square"/>
   </g>
   <g id="line2d_7">
    <path d="M 76.613125 146.461536 
L 82.471514 283.638914 
L 88.329904 324.224258 
L 94.188293 339.394889 
L 100.046682 341.866323 
L 105.905071 341.828953 
L 111.763461 342.500019 
L 117.62185 342.964013 
L 123.480239 342.554475 
L 129.338628 341.394523 
L 135.197018 341.644405 
L 141.055407 341.228276 
L 146.913796 340.228875 
L 152.772185 337.952164 
L 158.630575 342.395011 
L 164.488964 340.083617 
L 170.347353 341.016468 
L 176.205742 342.981483 
L 182.064132 340.884584 
L 187.922521 341.864212 
L 193.78091 341.694957 
L 199.639299 340.580374 
L 205.497689 339.676831 
L 211.356078 338.455896 
L 217.214467 341.235123 
L 223.072857 340.637901 
L 228.931246 341.147008 
L 234.789635 339.617704 
L 240.648024 341.366047 
L 246.506414 337.570014 
L 252.364803 343.352818 
L 258.223192 338.927376 
L 264.081581 340.954077 
L 269.939971 341.099271 
L 275.79836 340.864811 
L 281.656749 341.738471 
L 287.515138 341.404889 
L 293.373528 342.318159 
L 299.231917 342.723666 
L 305.090306 342.969964 
L 316.807085 343.066782 
L 322.665474 343.604492 
L 334.382253 343.822315 
L 340.240642 344.059079 
L 346.099031 344.509187 
L 351.95742 345.137828 
L 357.81581 345.303243 
L 375.390977 346.576586 
L 381.249367 346.292213 
L 387.107756 346.951953 
L 392.966145 347.784595 
L 398.824534 347.424714 
L 404.682924 348.086566 
L 410.541313 348.62658 
L 416.399702 349.2844 
L 422.258091 349.131591 
L 428.116481 349.956363 
L 433.97487 350.326739 
L 439.833259 349.782181 
L 445.691648 351.217932 
L 451.550038 350.856706 
L 457.408427 351.083168 
L 463.266816 351.129433 
L 480.841984 351.737469 
L 498.417152 352.077642 
L 504.275541 352.151166 
L 510.13393 351.774199 
L 515.99232 348.261963 
L 521.850709 352.505609 
L 527.709098 353.032313 
L 539.425877 353.131818 
L 627.301716 353.20931 
L 943.654736 353.220828 
L 949.513125 353.160102 
L 949.513125 353.160102 
" clip-path="url(#p7692db523c)" style="fill: none; stroke: #434348; stroke-linecap: square"/>
   </g>
   <g id="line2d_8">
    <path d="M 76.613125 118.767616 
L 82.471514 288.414639 
L 88.329904 333.392598 
L 94.188293 344.362905 
L 100.046682 345.715597 
L 105.905071 345.960488 
L 111.763461 345.446005 
L 123.480239 345.919022 
L 129.338628 344.281318 
L 135.197018 344.472009 
L 141.055407 343.902303 
L 146.913796 344.001168 
L 152.772185 344.917893 
L 158.630575 344.612212 
L 164.488964 344.853647 
L 170.347353 344.775067 
L 176.205742 343.719995 
L 182.064132 345.077293 
L 187.922521 344.375831 
L 193.78091 344.777371 
L 199.639299 344.339165 
L 205.497689 344.136764 
L 211.356078 344.488582 
L 217.214467 344.305186 
L 228.931246 344.587255 
L 234.789635 344.232941 
L 240.648024 344.763549 
L 246.506414 344.738593 
L 252.364803 345.01631 
L 258.223192 344.701606 
L 264.081581 344.732577 
L 269.939971 344.126909 
L 275.79836 344.523201 
L 281.656749 344.354523 
L 287.515138 344.328671 
L 293.373528 343.982291 
L 299.231917 345.112808 
L 305.090306 344.738145 
L 310.948695 344.927812 
L 316.807085 344.455051 
L 322.665474 344.483847 
L 328.523863 344.88577 
L 334.382253 342.15268 
L 340.240642 347.565877 
L 346.099031 346.084629 
L 351.95742 344.980156 
L 357.81581 345.232214 
L 363.674199 345.634201 
L 369.532588 345.637336 
L 375.390977 345.241428 
L 381.249367 345.557605 
L 387.107756 345.700815 
L 392.966145 345.183261 
L 398.824534 345.797888 
L 404.682924 345.356355 
L 410.541313 345.406587 
L 416.399702 346.107409 
L 428.116481 346.639297 
L 433.97487 346.60391 
L 439.833259 346.110353 
L 445.691648 346.424737 
L 451.550038 347.118584 
L 457.408427 346.275192 
L 463.266816 346.901529 
L 469.125206 347.147444 
L 480.841984 346.790698 
L 486.700373 343.34482 
L 492.558763 296.02859 
L 498.417152 339.552754 
L 504.275541 349.149637 
L 510.13393 351.487779 
L 515.99232 352.030609 
L 521.850709 352.095367 
L 527.709098 352.314854 
L 562.859434 352.60537 
L 644.876883 353.045367 
L 785.478226 353.21379 
L 943.654736 353.185058 
L 949.513125 352.740517 
L 949.513125 352.740517 
" clip-path="url(#p7692db523c)" style="fill: none; stroke: #90ed7d; stroke-linecap: square"/>
   </g>
   <g id="line2d_9">
    <path d="M 76.613125 138.217408 
L 82.471514 297.775718 
L 88.329904 333.128638 
L 94.188293 345.04805 
L 100.046682 344.846864 
L 105.905071 345.738633 
L 111.763461 345.466418 
L 117.62185 346.374889 
L 123.480239 346.606406 
L 129.338628 344.593526 
L 135.197018 345.340677 
L 146.913796 343.885282 
L 152.772185 342.195745 
L 158.630575 346.679675 
L 164.488964 344.722851 
L 170.347353 344.936515 
L 176.205742 347.115833 
L 182.064132 345.064495 
L 187.922521 345.941226 
L 193.78091 346.196484 
L 199.639299 345.098538 
L 205.497689 344.236972 
L 211.356078 342.952047 
L 217.214467 345.792769 
L 223.072857 345.251667 
L 228.931246 345.62825 
L 234.789635 343.900127 
L 240.648024 345.904688 
L 246.506414 342.424703 
L 252.364803 347.803409 
L 258.223192 344.510147 
L 264.081581 345.851832 
L 269.939971 345.232022 
L 275.79836 345.14909 
L 281.656749 345.576866 
L 287.515138 344.127357 
L 293.373528 344.99353 
L 299.231917 345.432312 
L 310.948695 345.411643 
L 316.807085 344.981372 
L 322.665474 345.476465 
L 328.523863 345.11332 
L 334.382253 345.260306 
L 340.240642 345.146723 
L 351.95742 345.377024 
L 357.81581 345.356611 
L 363.674199 345.581985 
L 369.532588 345.997986 
L 375.390977 345.539623 
L 381.249367 344.947201 
L 387.107756 345.173855 
L 392.966145 346.432096 
L 398.824534 345.007864 
L 404.682924 345.11236 
L 416.399702 346.649407 
L 422.258091 345.564899 
L 428.116481 346.728243 
L 433.97487 347.073087 
L 439.833259 345.030644 
L 445.691648 348.90417 
L 451.550038 347.628523 
L 457.408427 347.823885 
L 463.266816 347.085245 
L 469.125206 347.525371 
L 474.983595 347.606958 
L 480.841984 347.989044 
L 492.558763 348.082726 
L 498.417152 347.717022 
L 504.275541 347.091068 
L 510.13393 343.838569 
L 515.99232 304.41964 
L 521.850709 345.137636 
L 527.709098 351.35839 
L 533.567487 352.335011 
L 545.284266 352.528453 
L 639.018494 353.052342 
L 691.743997 353.170724 
L 943.654736 353.20867 
L 949.513125 352.833943 
L 949.513125 352.833943 
" clip-path="url(#p7692db523c)" style="fill: none; stroke: #f7a35c; stroke-linecap: square"/>
   </g>
   <g id="line2d_10">
    <path d="M 76.613125 198.433252 
L 82.471514 303.702245 
L 88.329904 331.81063 
L 94.188293 342.439932 
L 100.046682 344.161464 
L 105.905071 344.571706 
L 111.763461 344.367833 
L 117.62185 344.665964 
L 123.480239 344.738657 
L 129.338628 343.23642 
L 135.197018 343.545493 
L 141.055407 343.131284 
L 152.772185 342.805509 
L 158.630575 342.637727 
L 164.488964 342.619041 
L 176.205742 342.057654 
L 182.064132 342.330061 
L 193.78091 342.024123 
L 199.639299 341.592829 
L 205.497689 341.528774 
L 211.356078 341.27902 
L 223.072857 341.170813 
L 228.931246 341.294186 
L 234.789635 340.956445 
L 240.648024 341.30916 
L 246.506414 340.989976 
L 252.364803 341.333284 
L 258.223192 340.922914 
L 264.081581 340.741374 
L 269.939971 339.648611 
L 275.79836 339.995183 
L 281.656749 339.871297 
L 287.515138 339.382923 
L 293.373528 339.696476 
L 299.231917 339.763922 
L 305.090306 339.528693 
L 310.948695 338.906579 
L 316.807085 338.167555 
L 322.665474 335.88003 
L 328.523863 340.590165 
L 334.382253 333.461196 
L 340.240642 343.052384 
L 346.099031 338.987975 
L 351.95742 337.783805 
L 357.81581 337.340672 
L 363.674199 338.027736 
L 369.532588 337.408822 
L 375.390977 337.014642 
L 381.249367 337.795132 
L 387.107756 337.548321 
L 392.966145 336.515325 
L 398.824534 338.07093 
L 404.682924 336.839372 
L 410.541313 336.542393 
L 428.116481 338.815137 
L 433.97487 339.296856 
L 439.833259 337.94954 
L 445.691648 338.114699 
L 451.550038 339.073466 
L 457.408427 336.524796 
L 463.266816 337.792508 
L 469.125206 338.440218 
L 474.983595 338.5618 
L 480.841984 336.946172 
L 486.700373 332.998418 
L 492.558763 209.262909 
L 498.417152 317.127348 
L 504.275541 342.596581 
L 510.13393 348.719622 
L 515.99232 350.278042 
L 521.850709 350.486778 
L 527.709098 350.92204 
L 533.567487 351.162068 
L 551.142655 351.235209 
L 568.717823 351.726527 
L 574.576212 351.763705 
L 580.434602 351.922273 
L 592.15138 352.02037 
L 603.868159 352.28305 
L 615.584937 352.484812 
L 656.593662 352.869074 
L 697.602387 353.099695 
L 943.654736 353.216669 
L 949.513125 353.136553 
L 949.513125 353.136553 
" clip-path="url(#p7692db523c)" style="fill: none; stroke: #8085e9; stroke-linecap: square"/>
   </g>
   <g id="line2d_11">
    <path d="M 76.613125 196.815961 
L 82.471514 302.153103 
L 88.329904 331.628897 
L 94.188293 342.664666 
L 100.046682 344.120702 
L 105.905071 344.327327 
L 117.62185 345.36589 
L 123.480239 345.081901 
L 129.338628 343.663235 
L 135.197018 343.995985 
L 141.055407 343.561619 
L 146.913796 342.383301 
L 152.772185 339.68259 
L 158.630575 344.639408 
L 164.488964 342.001855 
L 170.347353 342.941553 
L 176.205742 345.179614 
L 182.064132 342.871483 
L 187.922521 343.847527 
L 193.78091 343.799087 
L 205.497689 341.42543 
L 211.356078 339.379148 
L 217.214467 342.962797 
L 223.072857 342.147945 
L 228.931246 342.568425 
L 234.789635 340.635662 
L 240.648024 342.629088 
L 246.506414 337.811833 
L 252.364803 344.900104 
L 258.223192 340.869738 
L 264.081581 342.079475 
L 269.939971 341.523143 
L 275.79836 340.481829 
L 281.656749 340.887336 
L 287.515138 339.22186 
L 293.373528 340.499618 
L 299.231917 340.988952 
L 305.090306 340.836527 
L 310.948695 340.513376 
L 316.807085 339.370829 
L 322.665474 340.241865 
L 328.523863 339.323156 
L 346.099031 337.547617 
L 351.95742 338.49429 
L 357.81581 337.608472 
L 363.674199 337.676494 
L 369.532588 338.214908 
L 375.390977 337.51735 
L 381.249367 336.135415 
L 387.107756 336.441289 
L 392.966145 339.142384 
L 398.824534 336.02196 
L 404.682924 336.013513 
L 410.541313 337.449008 
L 416.399702 338.393697 
L 422.258091 336.371539 
L 428.116481 339.070651 
L 433.97487 340.149847 
L 439.833259 335.393191 
L 445.691648 343.917277 
L 451.550038 340.536733 
L 457.408427 340.607762 
L 463.266816 338.167299 
L 469.125206 339.480572 
L 474.983595 339.97093 
L 480.841984 339.822537 
L 486.700373 339.957812 
L 492.558763 339.317589 
L 498.417152 339.036864 
L 504.275541 337.772735 
L 510.13393 333.264681 
L 515.99232 232.97068 
L 521.850709 333.651631 
L 527.709098 348.813944 
L 533.567487 351.074849 
L 539.425877 351.324476 
L 551.142655 351.524509 
L 557.001044 351.71776 
L 562.859434 351.69146 
L 568.717823 351.825712 
L 574.576212 351.795316 
L 580.434602 351.981144 
L 592.15138 352.140928 
L 609.726548 352.507976 
L 633.160105 352.695084 
L 662.452051 352.924681 
L 691.743997 353.080946 
L 762.044669 353.192545 
L 943.654736 353.220764 
L 949.513125 353.155302 
L 949.513125 353.155302 
" clip-path="url(#p7692db523c)" style="fill: none; stroke: #f15c80; stroke-linecap: square"/>
   </g>
   <g id="line2d_12">
    <path d="M 76.613125 140.311107 
L 82.471514 282.952362 
L 88.329904 328.279708 
L 94.188293 343.491101 
L 100.046682 344.849488 
L 105.905071 344.814549 
L 117.62185 345.524905 
L 123.480239 345.270672 
L 129.338628 345.134117 
L 135.197018 345.501357 
L 141.055407 345.409083 
L 146.913796 345.443318 
L 152.772185 345.342789 
L 158.630575 344.673002 
L 170.347353 344.93869 
L 176.205742 344.942914 
L 182.064132 345.404156 
L 187.922521 345.323912 
L 193.78091 344.70231 
L 199.639299 345.573538 
L 205.497689 345.061232 
L 211.356078 345.808894 
L 217.214467 345.864054 
L 223.072857 345.372737 
L 228.931246 345.632985 
L 246.506414 345.140452 
L 252.364803 345.230614 
L 258.223192 345.037043 
L 264.081581 344.618739 
L 269.939971 345.032372 
L 275.79836 345.713485 
L 281.656749 345.999138 
L 287.515138 345.222295 
L 293.373528 346.101266 
L 299.231917 345.638744 
L 305.090306 345.302987 
L 310.948695 345.156769 
L 316.807085 345.742345 
L 322.665474 345.671763 
L 328.523863 345.968358 
L 334.382253 343.125717 
L 340.240642 347.756824 
L 346.099031 346.700727 
L 357.81581 345.99645 
L 363.674199 345.926317 
L 369.532588 345.715021 
L 375.390977 345.878324 
L 381.249367 345.811582 
L 387.107756 345.583521 
L 392.966145 344.826579 
L 398.824534 346.067671 
L 404.682924 346.471386 
L 410.541313 345.874485 
L 416.399702 345.521962 
L 422.258091 346.461148 
L 428.116481 346.651327 
L 439.833259 346.310835 
L 451.550038 346.511316 
L 457.408427 345.707406 
L 463.266816 347.115449 
L 469.125206 347.089341 
L 480.841984 346.256955 
L 486.700373 343.744375 
L 492.558763 293.700367 
L 498.417152 339.22186 
L 504.275541 349.031255 
L 510.13393 351.337786 
L 515.99232 351.983128 
L 527.709098 352.242481 
L 574.576212 352.596155 
L 691.743997 353.188513 
L 855.778897 353.222364 
L 943.654736 353.209374 
L 949.513125 353.062644 
L 949.513125 353.062644 
" clip-path="url(#p7692db523c)" style="fill: none; stroke: #e4d354; stroke-linecap: square"/>
   </g>
   <g id="line2d_13">
    <path d="M 76.613125 160.261175 
L 82.471514 282.362435 
L 88.329904 328.693725 
L 94.188293 342.932978 
L 100.046682 345.295628 
L 105.905071 344.766044 
L 111.763461 345.230742 
L 117.62185 345.928236 
L 129.338628 345.285646 
L 135.197018 345.779587 
L 146.913796 345.192412 
L 152.772185 342.885881 
L 158.630575 346.189829 
L 164.488964 344.538431 
L 170.347353 344.913478 
L 176.205742 347.326425 
L 182.064132 345.153506 
L 187.922521 346.241085 
L 193.78091 345.547302 
L 199.639299 345.904048 
L 205.497689 344.864973 
L 211.356078 344.537151 
L 217.214467 346.660798 
L 223.072857 345.674451 
L 228.931246 346.159945 
L 234.789635 345.062 
L 240.648024 345.794177 
L 246.506414 342.96958 
L 252.364803 347.366995 
L 258.223192 344.682601 
L 264.081581 345.396029 
L 269.939971 345.760838 
L 275.79836 345.987108 
L 281.656749 346.394982 
L 287.515138 344.928516 
L 293.373528 346.214209 
L 299.231917 345.991075 
L 305.090306 345.648343 
L 316.807085 345.810046 
L 322.665474 346.366698 
L 328.523863 346.015647 
L 334.382253 345.503917 
L 340.240642 345.651094 
L 351.95742 346.31301 
L 357.81581 345.919662 
L 363.674199 345.788354 
L 375.390977 345.979813 
L 381.249367 345.255762 
L 387.107756 345.150946 
L 392.966145 345.77018 
L 398.824534 345.378752 
L 404.682924 346.061336 
L 416.399702 345.794049 
L 422.258091 345.659285 
L 428.116481 346.557069 
L 433.97487 346.889435 
L 439.833259 345.288525 
L 445.691648 348.441968 
L 451.550038 346.735474 
L 463.266816 347.172208 
L 469.125206 347.333656 
L 474.983595 347.197868 
L 480.841984 347.366035 
L 486.700373 347.225576 
L 492.558763 346.669308 
L 498.417152 346.924374 
L 504.275541 346.757999 
L 510.13393 344.701606 
L 515.99232 301.511728 
L 521.850709 345.372737 
L 527.709098 351.467366 
L 533.567487 352.333027 
L 539.425877 352.471374 
L 586.292991 352.697964 
L 615.584937 352.961284 
L 656.593662 353.113453 
L 803.053393 353.22198 
L 943.654736 353.218781 
L 949.513125 353.09496 
L 949.513125 353.09496 
" clip-path="url(#p7692db523c)" style="fill: none; stroke: #2b908f; stroke-linecap: square"/>
   </g>
   <g id="line2d_14">
    <path d="M 76.613125 145.524462 
L 82.471514 292.83349 
L 88.329904 329.378294 
L 94.188293 341.168125 
L 100.046682 342.931634 
L 105.905071 343.481887 
L 111.763461 343.576464 
L 117.62185 343.875619 
L 123.480239 343.855334 
L 129.338628 343.133396 
L 135.197018 343.420136 
L 141.055407 342.965101 
L 164.488964 342.684631 
L 170.347353 342.806149 
L 176.205742 342.143465 
L 182.064132 343.74879 
L 187.922521 343.267839 
L 193.78091 343.408426 
L 199.639299 342.917556 
L 223.072857 342.243034 
L 240.648024 343.279229 
L 258.223192 343.112279 
L 264.081581 342.677593 
L 269.939971 342.605987 
L 275.79836 342.723922 
L 281.656749 342.459194 
L 287.515138 343.187915 
L 293.373528 342.873979 
L 299.231917 344.172854 
L 305.090306 343.908254 
L 310.948695 343.940185 
L 316.807085 343.365168 
L 322.665474 343.413417 
L 328.523863 343.850535 
L 334.382253 340.601939 
L 340.240642 346.620036 
L 346.099031 344.9026 
L 351.95742 344.195187 
L 357.81581 344.492294 
L 369.532588 344.541502 
L 381.249367 344.580408 
L 387.107756 344.655469 
L 392.966145 344.33507 
L 398.824534 345.035316 
L 404.682924 344.97926 
L 410.541313 345.186845 
L 422.258091 346.122639 
L 428.116481 346.537424 
L 433.97487 346.649407 
L 439.833259 346.107985 
L 451.550038 346.883996 
L 457.408427 346.109393 
L 463.266816 346.903193 
L 469.125206 347.032261 
L 474.983595 347.044036 
L 480.841984 346.604038 
L 486.700373 341.1225 
L 492.558763 301.90738 
L 498.417152 341.321446 
L 504.275541 349.560711 
L 510.13393 351.568087 
L 515.99232 352.025681 
L 533.567487 352.42818 
L 568.717823 352.683438 
L 662.452051 353.123371 
L 715.177555 353.198304 
L 896.787622 353.219677 
L 943.654736 353.142696 
L 949.513125 352.188857 
L 949.513125 352.188857 
" clip-path="url(#p7692db523c)" style="fill: none; stroke: #f45b5b; stroke-linecap: square"/>
   </g>
   <g id="line2d_15">
    <path d="M 76.613125 139.844426 
L 82.471514 291.677441 
L 88.329904 329.362744 
L 94.188293 342.015869 
L 100.046682 343.385261 
L 105.905071 343.387693 
L 111.763461 343.879587 
L 117.62185 344.70487 
L 123.480239 344.679721 
L 129.338628 343.583503 
L 135.197018 344.147578 
L 141.055407 343.642119 
L 146.913796 342.473463 
L 152.772185 340.463592 
L 158.630575 344.640175 
L 164.488964 342.449339 
L 170.347353 343.90723 
L 176.205742 345.083948 
L 182.064132 343.759669 
L 187.922521 344.405331 
L 193.78091 344.604917 
L 199.639299 343.498844 
L 205.497689 342.664986 
L 211.356078 341.714666 
L 217.214467 343.750966 
L 223.072857 343.056543 
L 228.931246 343.491549 
L 234.789635 342.735312 
L 240.648024 344.101441 
L 246.506414 341.797278 
L 252.364803 345.238037 
L 258.223192 343.12706 
L 264.081581 343.928795 
L 269.939971 342.723922 
L 275.79836 343.632328 
L 281.656749 343.426471 
L 287.515138 343.7884 
L 293.373528 343.594318 
L 299.231917 344.174262 
L 305.090306 344.583096 
L 310.948695 344.186484 
L 316.807085 343.38283 
L 322.665474 344.548733 
L 328.523863 344.076805 
L 334.382253 343.817452 
L 340.240642 344.07079 
L 346.099031 343.845864 
L 351.95742 344.613555 
L 357.81581 344.618611 
L 363.674199 344.283493 
L 369.532588 344.984571 
L 375.390977 344.787673 
L 381.249367 343.741943 
L 387.107756 344.056904 
L 392.966145 345.675731 
L 398.824534 344.088579 
L 404.682924 344.655149 
L 410.541313 345.631193 
L 416.399702 346.132813 
L 422.258091 345.310794 
L 428.116481 346.591432 
L 433.97487 347.122424 
L 439.833259 344.950336 
L 445.691648 348.999132 
L 451.550038 347.442631 
L 457.408427 347.727452 
L 463.266816 347.081278 
L 469.125206 347.470595 
L 474.983595 347.489408 
L 480.841984 347.794642 
L 486.700373 347.766742 
L 492.558763 347.919935 
L 498.417152 347.916287 
L 504.275541 346.989452 
L 510.13393 341.557442 
L 515.99232 311.853395 
L 521.850709 346.439839 
L 527.709098 351.523037 
L 533.567487 352.355615 
L 545.284266 352.558401 
L 557.001044 352.687149 
L 574.576212 352.717097 
L 603.868159 352.94599 
L 627.301716 353.056309 
L 797.195004 353.220764 
L 943.654736 353.190241 
L 949.513125 352.383131 
L 949.513125 352.383131 
" clip-path="url(#p7692db523c)" style="fill: none; stroke: #91e8e1; stroke-linecap: square"/>
   </g>
   <g id="line2d_16">
    <path d="M 76.613125 65.936958 
L 82.471514 263.836984 
L 88.329904 321.557142 
L 94.188293 340.778104 
L 100.046682 344.380887 
L 105.905071 345.382783 
L 111.763461 345.570403 
L 117.62185 346.002401 
L 123.480239 346.044827 
L 129.338628 345.634585 
L 135.197018 345.950697 
L 141.055407 345.806911 
L 158.630575 345.821437 
L 164.488964 346.0662 
L 170.347353 346.175943 
L 176.205742 346.134989 
L 182.064132 346.656382 
L 193.78091 346.729715 
L 199.639299 346.596935 
L 205.497689 346.745649 
L 223.072857 346.879964 
L 234.789635 347.253156 
L 240.648024 347.555446 
L 287.515138 348.035565 
L 293.373528 348.433777 
L 299.231917 348.693386 
L 305.090306 348.755648 
L 310.948695 348.688011 
L 316.807085 348.859057 
L 322.665474 348.805625 
L 328.523863 349.112842 
L 334.382253 347.887172 
L 340.240642 350.309525 
L 346.099031 349.677173 
L 351.95742 349.47362 
L 363.674199 349.801826 
L 375.390977 349.869144 
L 381.249367 350.060475 
L 392.966145 350.092726 
L 398.824534 350.395336 
L 410.541313 350.51263 
L 422.258091 350.911354 
L 433.97487 351.165652 
L 439.833259 351.105501 
L 445.691648 351.168787 
L 451.550038 351.391857 
L 457.408427 351.234441 
L 469.125206 351.530396 
L 474.983595 351.61128 
L 480.841984 351.576085 
L 486.700373 350.953268 
L 492.558763 342.829058 
L 498.417152 350.881663 
L 504.275541 352.491659 
L 510.13393 352.874193 
L 521.850709 353.004413 
L 557.001044 353.10827 
L 943.654736 353.216221 
L 949.513125 353.124715 
L 949.513125 353.124715 
" clip-path="url(#p7692db523c)" style="fill: none; stroke: #7cb5ec; stroke-linecap: square"/>
   </g>
   <g id="line2d_17">
    <path d="M 76.613125 77.116705 
L 82.471514 265.698334 
L 88.329904 322.415572 
L 94.188293 341.437012 
L 100.046682 344.817749 
L 105.905071 345.340229 
L 117.62185 346.682874 
L 123.480239 346.613829 
L 129.338628 346.046938 
L 135.197018 346.452573 
L 141.055407 346.326512 
L 146.913796 345.627866 
L 152.772185 344.601461 
L 158.630575 347.116856 
L 164.488964 345.841338 
L 170.347353 347.08307 
L 176.205742 347.655079 
L 182.064132 347.00097 
L 187.922521 347.376273 
L 193.78091 347.577971 
L 199.639299 347.07955 
L 211.356078 346.33048 
L 217.214467 347.578035 
L 223.072857 347.274529 
L 228.931246 347.587953 
L 234.789635 347.313243 
L 240.648024 348.022383 
L 246.506414 346.981133 
L 252.364803 348.763327 
L 258.223192 347.804432 
L 264.081581 348.304005 
L 269.939971 347.815119 
L 275.79836 348.308228 
L 281.656749 348.335104 
L 287.515138 348.505894 
L 293.373528 348.542753 
L 305.090306 349.142726 
L 316.807085 348.762943 
L 322.665474 349.333929 
L 334.382253 349.162627 
L 340.240642 349.35063 
L 346.099031 349.319083 
L 351.95742 349.688179 
L 363.674199 349.741995 
L 369.532588 350.019777 
L 375.390977 349.988038 
L 381.249367 349.785764 
L 387.107756 349.967689 
L 392.966145 350.549681 
L 398.824534 350.092598 
L 404.682924 350.314964 
L 410.541313 350.709785 
L 416.399702 350.917305 
L 422.258091 350.651425 
L 428.116481 351.116827 
L 433.97487 351.351032 
L 439.833259 350.768144 
L 445.691648 351.963867 
L 451.550038 351.557272 
L 457.408427 351.674439 
L 463.266816 351.466534 
L 469.125206 351.652874 
L 498.417152 351.95862 
L 504.275541 351.800563 
L 510.13393 351.203214 
L 515.99232 345.543847 
L 521.850709 351.990423 
L 527.709098 352.911307 
L 533.567487 353.057909 
L 580.434602 353.138985 
L 697.602387 353.216733 
L 949.513125 353.14404 
L 949.513125 353.14404 
" clip-path="url(#p7692db523c)" style="fill: none; stroke: #434348; stroke-linecap: square"/>
   </g>
   <g id="line2d_18">
    <path d="M 76.613125 121.658443 
L 82.471514 282.851961 
L 88.329904 327.655355 
L 94.188293 343.067485 
L 100.046682 345.991395 
L 105.905071 346.623875 
L 123.480239 347.080254 
L 129.338628 346.637441 
L 135.197018 347.089853 
L 141.055407 346.895642 
L 146.913796 347.042372 
L 158.630575 347.027078 
L 170.347353 347.382416 
L 176.205742 347.058369 
L 182.064132 347.614829 
L 187.922521 347.443847 
L 193.78091 347.532922 
L 199.639299 347.33436 
L 211.356078 347.599919 
L 223.072857 347.689378 
L 228.931246 347.906113 
L 234.789635 347.867911 
L 240.648024 348.028974 
L 246.506414 347.959225 
L 252.364803 348.020976 
L 258.223192 347.502078 
L 264.081581 347.828493 
L 275.79836 348.108578 
L 281.656749 348.354877 
L 299.231917 348.680716 
L 305.090306 348.673613 
L 310.948695 348.518948 
L 316.807085 348.610966 
L 322.665474 348.564445 
L 328.523863 348.931174 
L 334.382253 347.577843 
L 340.240642 350.180713 
L 346.099031 349.489105 
L 351.95742 349.121865 
L 363.674199 349.231736 
L 369.532588 349.11681 
L 381.249367 349.431962 
L 392.966145 349.471956 
L 398.824534 349.768999 
L 404.682924 349.681972 
L 416.399702 350.027584 
L 428.116481 350.405511 
L 433.97487 350.404423 
L 439.833259 350.218915 
L 445.691648 350.339729 
L 451.550038 350.607912 
L 457.408427 350.357838 
L 463.266816 350.611431 
L 469.125206 350.746963 
L 474.983595 350.706009 
L 480.841984 350.289816 
L 486.700373 328.197097 
L 492.558763 329.414512 
L 498.417152 347.452742 
L 504.275541 350.606632 
L 510.13393 352.073738 
L 521.850709 352.6453 
L 533.567487 352.826904 
L 691.743997 353.199264 
L 937.796346 353.07845 
L 943.654736 352.771616 
L 949.513125 347.718173 
L 949.513125 347.718173 
" clip-path="url(#p7692db523c)" style="fill: none; stroke: #90ed7d; stroke-linecap: square"/>
   </g>
   <g id="line2d_19">
    <path d="M 76.613125 125.28151 
L 82.471514 281.484552 
L 88.329904 327.178563 
L 94.188293 343.300666 
L 100.046682 346.195076 
L 117.62185 347.364435 
L 123.480239 347.328792 
L 129.338628 346.933524 
L 135.197018 347.365715 
L 146.913796 346.860511 
L 152.772185 345.946858 
L 158.630575 347.931069 
L 164.488964 347.001418 
L 170.347353 347.868935 
L 176.205742 348.317123 
L 182.064132 347.647976 
L 187.922521 347.963192 
L 193.78091 348.022255 
L 199.639299 347.600623 
L 211.356078 347.210986 
L 217.214467 348.187478 
L 223.072857 347.907777 
L 228.931246 348.211603 
L 234.789635 347.871238 
L 240.648024 348.33504 
L 246.506414 347.343318 
L 252.364803 348.829813 
L 258.223192 347.526522 
L 264.081581 348.264075 
L 269.939971 347.977462 
L 275.79836 348.447727 
L 305.090306 348.896235 
L 310.948695 348.793211 
L 316.807085 348.529507 
L 322.665474 349.043861 
L 334.382253 348.880046 
L 340.240642 349.110923 
L 346.099031 349.086926 
L 351.95742 349.23564 
L 357.81581 349.256053 
L 363.674199 349.143238 
L 375.390977 349.375395 
L 381.249367 349.155012 
L 387.107756 349.266931 
L 392.966145 349.957003 
L 398.824534 349.448088 
L 404.682924 349.528843 
L 410.541313 349.976072 
L 416.399702 350.150829 
L 422.258091 349.894292 
L 428.116481 350.413445 
L 433.97487 350.56555 
L 439.833259 349.735404 
L 445.691648 351.334842 
L 451.550038 350.783949 
L 457.408427 350.913914 
L 463.266816 350.643171 
L 469.125206 350.906171 
L 498.417152 350.984431 
L 504.275541 350.479867 
L 510.13393 327.166085 
L 515.99232 331.449596 
L 521.850709 349.128072 
L 527.709098 351.988503 
L 533.567487 352.573438 
L 545.284266 352.81737 
L 557.001044 352.915467 
L 598.009769 353.069491 
L 639.018494 353.157798 
L 750.32789 353.215581 
L 937.796346 353.184482 
L 943.654736 353.043639 
L 949.513125 348.722629 
L 949.513125 348.722629 
" clip-path="url(#p7692db523c)" style="fill: none; stroke: #f7a35c; stroke-linecap: square"/>
   </g>
   <g id="line2d_20">
    <path d="M 76.613125 175.687384 
L 82.471514 294.639041 
L 88.329904 328.667873 
L 94.188293 342.058038 
L 100.046682 344.338461 
L 105.905071 344.709797 
L 111.763461 344.558012 
L 117.62185 344.876236 
L 123.480239 344.756318 
L 129.338628 344.28087 
L 135.197018 344.426128 
L 141.055407 344.222383 
L 152.772185 344.015502 
L 158.630575 344.209393 
L 164.488964 344.185716 
L 176.205742 343.793264 
L 182.064132 343.932635 
L 193.78091 343.807981 
L 199.639299 343.388397 
L 205.497689 343.797871 
L 217.214467 343.575441 
L 223.072857 343.832938 
L 240.648024 343.604492 
L 246.506414 343.383278 
L 252.364803 343.550932 
L 258.223192 342.908086 
L 264.081581 343.362929 
L 269.939971 343.11599 
L 275.79836 343.232772 
L 287.515138 343.185804 
L 293.373528 343.495197 
L 299.231917 343.432166 
L 305.090306 343.127124 
L 316.807085 342.965677 
L 322.665474 342.452731 
L 328.523863 343.150033 
L 334.382253 339.975154 
L 340.240642 346.029981 
L 346.099031 344.248107 
L 351.95742 343.427367 
L 357.81581 343.230789 
L 363.674199 343.288188 
L 369.532588 342.992105 
L 375.390977 343.032611 
L 381.249367 343.347379 
L 387.107756 343.319735 
L 392.966145 342.978859 
L 398.824534 343.583823 
L 404.682924 343.322615 
L 410.541313 343.531095 
L 416.399702 343.851687 
L 422.258091 344.291236 
L 428.116481 344.588343 
L 433.97487 344.511747 
L 439.833259 344.097026 
L 445.691648 344.214 
L 451.550038 344.755102 
L 457.408427 343.998992 
L 463.266816 344.651502 
L 469.125206 344.999929 
L 474.983595 344.95264 
L 480.841984 344.250666 
L 486.700373 341.25176 
L 492.558763 276.728344 
L 498.417152 335.145357 
L 504.275541 347.784403 
L 510.13393 350.811465 
L 515.99232 351.53366 
L 527.709098 351.995414 
L 639.018494 352.976769 
L 709.319165 353.184674 
L 832.34534 353.22166 
L 943.654736 353.209502 
L 949.513125 353.045879 
L 949.513125 353.045879 
" clip-path="url(#p7692db523c)" style="fill: none; stroke: #8085e9; stroke-linecap: square"/>
   </g>
   <g id="line2d_21">
    <path d="M 76.613125 180.350934 
L 82.471514 294.19674 
L 88.329904 329.161175 
L 94.188293 342.618721 
L 100.046682 344.452684 
L 105.905071 344.459403 
L 117.62185 345.562724 
L 123.480239 345.336518 
L 129.338628 344.728482 
L 135.197018 344.964606 
L 141.055407 344.778906 
L 146.913796 343.608076 
L 152.772185 342.320847 
L 158.630575 345.616284 
L 164.488964 343.653189 
L 170.347353 345.185885 
L 176.205742 345.762438 
L 182.064132 344.454731 
L 187.922521 344.863374 
L 193.78091 345.0588 
L 199.639299 344.194355 
L 211.356078 343.02282 
L 217.214467 344.849616 
L 223.072857 344.210033 
L 228.931246 344.471817 
L 234.789635 343.695358 
L 240.648024 344.310945 
L 246.506414 342.252057 
L 252.364803 345.208729 
L 258.223192 343.230853 
L 264.081581 344.176566 
L 269.939971 343.111383 
L 275.79836 343.80139 
L 299.231917 343.803438 
L 305.090306 344.048009 
L 310.948695 343.47376 
L 316.807085 342.765579 
L 322.665474 343.924252 
L 334.382253 343.313016 
L 340.240642 343.362929 
L 346.099031 343.107863 
L 351.95742 343.84164 
L 357.81581 343.316984 
L 363.674199 342.993385 
L 369.532588 343.493085 
L 375.390977 343.2919 
L 381.249367 342.148777 
L 387.107756 342.64419 
L 392.966145 344.287141 
L 398.824534 342.373767 
L 404.682924 342.94648 
L 410.541313 343.899168 
L 416.399702 344.387414 
L 422.258091 343.048608 
L 428.116481 344.727394 
L 433.97487 345.177886 
L 439.833259 342.630112 
L 445.691648 347.600623 
L 451.550038 345.615132 
L 457.408427 346.049306 
L 463.266816 344.947329 
L 469.125206 345.623898 
L 474.983595 345.465011 
L 480.841984 345.769157 
L 486.700373 345.413498 
L 492.558763 345.611932 
L 498.417152 345.548006 
L 504.275541 343.948184 
L 510.13393 341.726888 
L 515.99232 291.450595 
L 521.850709 343.407978 
L 527.709098 350.94047 
L 533.567487 352.057293 
L 545.284266 352.23077 
L 557.001044 352.42063 
L 574.576212 352.423509 
L 598.009769 352.709098 
L 668.31044 353.123179 
L 732.752722 353.206175 
L 926.079568 353.22294 
L 943.654736 353.218013 
L 949.513125 353.084081 
L 949.513125 353.084081 
" clip-path="url(#p7692db523c)" style="fill: none; stroke: #f15c80; stroke-linecap: square"/>
   </g>
   <g id="line2d_22">
    <path d="M 76.613125 119.081489 
L 82.471514 303.799254 
L 88.329904 333.753375 
L 94.188293 344.475784 
L 100.046682 346.170248 
L 105.905071 346.43472 
L 117.62185 346.566284 
L 123.480239 346.768365 
L 129.338628 345.800192 
L 135.197018 346.046938 
L 141.055407 345.531369 
L 146.913796 345.353795 
L 152.772185 344.978492 
L 158.630575 344.233325 
L 164.488964 344.138363 
L 170.347353 343.844008 
L 176.205742 342.874747 
L 182.064132 344.653933 
L 187.922521 343.96047 
L 193.78091 344.022349 
L 199.639299 343.264 
L 205.497689 342.345547 
L 223.072857 342.224733 
L 228.931246 342.45849 
L 234.789635 342.165862 
L 240.648024 342.290195 
L 246.506414 342.121005 
L 252.364803 342.621729 
L 258.223192 342.331597 
L 264.081581 341.614777 
L 269.939971 340.553498 
L 275.79836 340.223372 
L 281.656749 339.314838 
L 287.515138 339.356047 
L 293.373528 339.037504 
L 299.231917 340.779 
L 305.090306 339.961972 
L 310.948695 339.659233 
L 316.807085 337.912362 
L 322.665474 338.073681 
L 328.523863 338.399584 
L 334.382253 332.270848 
L 340.240642 342.32155 
L 346.099031 339.013251 
L 351.95742 336.091134 
L 357.81581 336.558199 
L 363.674199 338.224187 
L 369.532588 335.619269 
L 375.390977 335.757488 
L 381.249367 337.827895 
L 392.966145 336.36418 
L 398.824534 337.95434 
L 404.682924 334.811711 
L 410.541313 334.973287 
L 416.399702 336.648489 
L 422.258091 337.939366 
L 428.116481 339.357903 
L 433.97487 340.106526 
L 439.833259 338.307566 
L 445.691648 338.300399 
L 451.550038 339.704667 
L 457.408427 337.043501 
L 463.266816 337.839349 
L 469.125206 339.446594 
L 474.983595 339.878912 
L 480.841984 338.703794 
L 486.700373 331.944689 
L 492.558763 236.256775 
L 498.417152 325.006092 
L 504.275541 344.637168 
L 510.13393 349.508878 
L 515.99232 350.534771 
L 521.850709 350.818376 
L 527.709098 351.254854 
L 533.567487 351.521182 
L 539.425877 351.566743 
L 545.284266 351.486243 
L 609.726548 352.688941 
L 738.611112 353.188577 
L 808.911783 353.213662 
L 943.654736 353.152615 
L 949.513125 352.359839 
L 949.513125 352.359839 
" clip-path="url(#p7692db523c)" style="fill: none; stroke: #e4d354; stroke-linecap: square"/>
   </g>
   <g id="line2d_23">
    <path d="M 76.613125 112.260953 
L 82.471514 304.005559 
L 88.329904 334.987365 
L 94.188293 345.070638 
L 100.046682 346.023134 
L 111.763461 346.415459 
L 117.62185 347.051138 
L 123.480239 347.242917 
L 129.338628 345.844665 
L 135.197018 346.561421 
L 141.055407 345.929964 
L 146.913796 344.64875 
L 152.772185 341.548036 
L 158.630575 346.368042 
L 164.488964 343.738296 
L 170.347353 344.469321 
L 176.205742 346.531985 
L 182.064132 344.826131 
L 187.922521 345.584928 
L 193.78091 345.573538 
L 199.639299 344.187188 
L 205.497689 342.579175 
L 211.356078 342.083954 
L 217.214467 342.951983 
L 223.072857 342.886265 
L 228.931246 343.042081 
L 234.789635 341.455058 
L 240.648024 343.332213 
L 246.506414 339.348752 
L 252.364803 345.509932 
L 258.223192 342.342155 
L 264.081581 343.359921 
L 269.939971 340.598547 
L 275.79836 340.71469 
L 281.656749 336.926335 
L 287.515138 343.136979 
L 293.373528 338.670071 
L 299.231917 342.513265 
L 305.090306 341.878609 
L 310.948695 341.557314 
L 316.807085 339.413255 
L 322.665474 340.078882 
L 328.523863 339.092919 
L 334.382253 337.376571 
L 340.240642 338.135304 
L 346.099031 337.062507 
L 351.95742 337.490986 
L 357.81581 337.256909 
L 363.674199 337.386106 
L 369.532588 337.118818 
L 375.390977 336.226793 
L 381.249367 336.292447 
L 387.107756 335.130063 
L 392.966145 339.297432 
L 398.824534 336.031111 
L 404.682924 334.077806 
L 410.541313 337.065258 
L 416.399702 337.953956 
L 422.258091 336.548728 
L 428.116481 339.726039 
L 433.97487 340.261254 
L 439.833259 334.739786 
L 445.691648 344.620082 
L 451.550038 341.522503 
L 457.408427 341.175868 
L 463.266816 337.980384 
L 469.125206 340.386675 
L 474.983595 341.152191 
L 486.700373 341.193145 
L 492.558763 341.456721 
L 498.417152 340.801077 
L 504.275541 338.718384 
L 510.13393 332.773108 
L 515.99232 262.038536 
L 521.850709 337.541922 
L 527.709098 349.356965 
L 533.567487 351.341561 
L 539.425877 351.578453 
L 545.284266 351.586068 
L 557.001044 351.997398 
L 562.859434 352.025361 
L 568.717823 352.195896 
L 574.576212 352.161853 
L 592.15138 352.478029 
L 609.726548 352.753443 
L 744.469501 353.203487 
L 943.654736 353.198112 
L 949.513125 352.507208 
L 949.513125 352.507208 
" clip-path="url(#p7692db523c)" style="fill: none; stroke: #2b908f; stroke-linecap: square"/>
   </g>
   <g id="line2d_24">
    <path d="M 76.613125 88.194325 
L 82.471514 266.954208 
L 88.329904 323.324298 
L 94.188293 341.090121 
L 100.046682 344.449932 
L 105.905071 345.072238 
L 117.62185 345.535528 
L 123.480239 345.540007 
L 129.338628 345.216856 
L 135.197018 345.435959 
L 141.055407 345.318217 
L 146.913796 345.4039 
L 152.772185 345.337478 
L 164.488964 345.585376 
L 170.347353 345.57725 
L 176.205742 345.446581 
L 182.064132 345.733706 
L 199.639299 345.423353 
L 211.356078 345.819645 
L 217.214467 345.807999 
L 228.931246 346.02531 
L 252.364803 346.119056 
L 258.223192 345.848632 
L 264.081581 345.83705 
L 269.939971 346.082773 
L 293.373528 346.677499 
L 299.231917 346.853216 
L 310.948695 346.524818 
L 316.807085 346.794729 
L 322.665474 346.64576 
L 328.523863 347.076479 
L 334.382253 345.274255 
L 340.240642 348.703432 
L 346.099031 347.787987 
L 351.95742 347.416523 
L 363.674199 347.500734 
L 369.532588 347.439944 
L 387.107756 347.605167 
L 392.966145 347.540472 
L 398.824534 348.075815 
L 410.541313 348.127967 
L 422.258091 348.696073 
L 428.116481 348.903914 
L 433.97487 348.898347 
L 439.833259 348.621589 
L 451.550038 349.178304 
L 457.408427 348.921319 
L 463.266816 349.389792 
L 474.983595 349.481235 
L 480.841984 349.345255 
L 486.700373 348.305988 
L 492.558763 327.952654 
L 498.417152 347.590833 
L 504.275541 351.497505 
L 510.13393 352.401624 
L 515.99232 352.617976 
L 539.425877 352.844373 
L 603.868159 353.111405 
L 703.460776 353.215453 
L 943.654736 353.214685 
L 949.513125 353.102638 
L 949.513125 353.102638 
" clip-path="url(#p7692db523c)" style="fill: none; stroke: #f45b5b; stroke-linecap: square"/>
   </g>
   <g id="line2d_25">
    <path d="M 76.613125 90.144173 
L 82.471514 266.063974 
L 88.329904 322.113857 
L 94.188293 341.4102 
L 100.046682 344.750431 
L 105.905071 344.991034 
L 111.763461 345.694864 
L 117.62185 346.131918 
L 123.480239 346.097427 
L 129.338628 345.497454 
L 135.197018 345.976165 
L 141.055407 345.776579 
L 146.913796 345.054449 
L 152.772185 343.579856 
L 158.630575 346.994763 
L 164.488964 345.276815 
L 176.205742 347.36034 
L 182.064132 346.194756 
L 187.922521 346.504277 
L 193.78091 346.617988 
L 199.639299 345.989539 
L 205.497689 345.721868 
L 211.356078 345.946666 
L 223.072857 346.150347 
L 228.931246 346.334831 
L 234.789635 345.838266 
L 240.648024 346.548111 
L 246.506414 344.677034 
L 252.364803 347.592049 
L 258.223192 346.085909 
L 264.081581 346.693241 
L 269.939971 345.995618 
L 275.79836 346.31205 
L 281.656749 345.645591 
L 287.515138 347.827725 
L 293.373528 346.327216 
L 299.231917 347.613933 
L 305.090306 347.315034 
L 310.948695 347.416779 
L 316.807085 347.086525 
L 322.665474 347.262882 
L 328.523863 347.327321 
L 334.382253 346.936148 
L 340.240642 347.213034 
L 346.099031 347.21425 
L 351.95742 347.739866 
L 363.674199 347.350869 
L 369.532588 347.677604 
L 375.390977 347.648552 
L 381.249367 346.869534 
L 387.107756 347.364051 
L 392.966145 348.274249 
L 398.824534 347.457093 
L 416.399702 348.708168 
L 422.258091 348.127967 
L 428.116481 348.963873 
L 433.97487 349.210364 
L 439.833259 347.903297 
L 445.691648 350.514294 
L 451.550038 349.541385 
L 457.408427 349.846491 
L 463.266816 349.449303 
L 486.700373 349.978439 
L 498.417152 350.117362 
L 504.275541 349.754857 
L 510.13393 348.71943 
L 515.99232 334.985381 
L 521.850709 350.414533 
L 527.709098 352.507528 
L 533.567487 352.810459 
L 557.001044 352.969027 
L 580.434602 353.027578 
L 691.743997 353.213086 
L 943.654736 353.220573 
L 949.513125 353.12881 
L 949.513125 353.12881 
" clip-path="url(#p7692db523c)" style="fill: none; stroke: #91e8e1; stroke-linecap: square"/>
   </g>
   <g id="line2d_26">
    <path d="M 76.613125 51.063945 
L 82.471514 255.367162 
L 88.329904 319.034068 
L 94.188293 339.475645 
L 100.046682 343.060063 
L 105.905071 343.934362 
L 111.763461 344.079556 
L 117.62185 344.493126 
L 123.480239 344.725091 
L 129.338628 344.158712 
L 135.197018 344.54163 
L 141.055407 344.304098 
L 146.913796 344.558652 
L 152.772185 344.531648 
L 164.488964 344.78441 
L 170.347353 344.891337 
L 176.205742 344.648686 
L 182.064132 345.468914 
L 187.922521 345.181022 
L 193.78091 345.450357 
L 199.639299 345.166688 
L 205.497689 345.427 
L 223.072857 345.71822 
L 228.931246 345.876084 
L 234.789635 345.902256 
L 240.648024 346.159497 
L 246.506414 346.11912 
L 252.364803 346.266425 
L 258.223192 345.801792 
L 264.081581 346.06044 
L 275.79836 346.399013 
L 281.656749 346.757807 
L 299.231917 347.118776 
L 305.090306 347.173552 
L 310.948695 346.932244 
L 316.807085 347.171248 
L 322.665474 347.090109 
L 328.523863 347.529082 
L 334.382253 345.927405 
L 340.240642 349.08731 
L 346.099031 348.270794 
L 351.95742 347.955833 
L 381.249367 348.154779 
L 387.107756 348.311108 
L 392.966145 348.168921 
L 398.824534 348.70548 
L 410.541313 348.877806 
L 428.116481 349.444248 
L 433.97487 349.423579 
L 439.833259 349.232056 
L 445.691648 349.393184 
L 451.550038 349.703537 
L 457.408427 349.408734 
L 463.266816 349.880214 
L 469.125206 350.001796 
L 474.983595 349.988486 
L 480.841984 349.79114 
L 486.700373 346.504917 
L 492.558763 330.480591 
L 498.417152 347.914688 
L 504.275541 351.503328 
L 510.13393 352.400089 
L 515.99232 352.648307 
L 539.425877 352.895182 
L 580.434602 353.036856 
L 820.628561 353.220317 
L 943.654736 353.166821 
L 949.513125 352.526982 
L 949.513125 352.526982 
" clip-path="url(#p7692db523c)" style="fill: none; stroke: #7cb5ec; stroke-linecap: square"/>
   </g>
   <g id="line2d_27">
    <path d="M 76.613125 50.39723 
L 82.471514 254.232229 
L 88.329904 317.797903 
L 94.188293 339.497722 
L 100.046682 343.320439 
L 117.62185 345.010231 
L 123.480239 345.031924 
L 129.338628 344.516162 
L 135.197018 344.943106 
L 146.913796 344.325087 
L 152.772185 342.890808 
L 158.630575 346.068055 
L 164.488964 344.487623 
L 176.205742 346.57953 
L 182.064132 345.589408 
L 187.922521 345.893874 
L 193.78091 346.067479 
L 199.639299 345.531624 
L 205.497689 345.39974 
L 217.214467 345.790465 
L 228.931246 346.070935 
L 234.789635 345.790209 
L 240.648024 346.494295 
L 246.506414 345.06955 
L 252.364803 347.445191 
L 258.223192 345.897585 
L 264.081581 346.655038 
L 269.939971 346.131534 
L 275.79836 346.570891 
L 281.656749 346.125647 
L 287.515138 347.835404 
L 293.373528 346.74904 
L 299.231917 347.760343 
L 305.090306 347.54476 
L 310.948695 347.621164 
L 316.807085 347.390927 
L 322.665474 347.592049 
L 328.523863 347.667685 
L 334.382253 347.467395 
L 340.240642 347.690402 
L 346.099031 347.758103 
L 351.95742 348.142877 
L 363.674199 347.929469 
L 369.532588 348.177752 
L 375.390977 348.183703 
L 381.249367 347.798417 
L 387.107756 348.080999 
L 392.966145 348.778877 
L 398.824534 348.282632 
L 404.682924 348.544672 
L 410.541313 349.007898 
L 416.399702 349.222586 
L 422.258091 348.84082 
L 428.116481 349.44444 
L 433.97487 349.596545 
L 439.833259 348.620309 
L 445.691648 350.640931 
L 451.550038 349.905298 
L 457.408427 350.090486 
L 463.266816 349.8941 
L 469.125206 350.093302 
L 480.841984 350.273947 
L 492.558763 350.503224 
L 498.417152 350.501176 
L 504.275541 350.259293 
L 510.13393 346.885659 
L 515.99232 334.934573 
L 521.850709 350.407878 
L 527.709098 352.498954 
L 533.567487 352.82428 
L 551.142655 352.966851 
L 703.460776 353.212574 
L 908.5044 353.222492 
L 943.654736 353.198368 
L 949.513125 352.667568 
L 949.513125 352.667568 
" clip-path="url(#p7692db523c)" style="fill: none; stroke: #434348; stroke-linecap: square"/>
   </g>
   <g id="line2d_28">
    <path d="M 76.613125 132.522014 
L 82.471514 278.730985 
L 88.329904 326.752963 
L 94.188293 341.482637 
L 100.046682 343.663939 
L 105.905071 344.212272 
L 111.763461 344.06983 
L 117.62185 344.521345 
L 123.480239 344.511491 
L 129.338628 344.185204 
L 135.197018 344.368409 
L 141.055407 344.051017 
L 164.488964 344.183349 
L 176.205742 343.862757 
L 182.064132 344.277798 
L 193.78091 344.306594 
L 199.639299 343.789424 
L 205.497689 344.108928 
L 217.214467 343.922652 
L 223.072857 344.30685 
L 234.789635 344.075525 
L 240.648024 344.380183 
L 246.506414 344.33571 
L 252.364803 344.581304 
L 258.223192 343.861605 
L 264.081581 344.40981 
L 269.939971 344.020429 
L 275.79836 344.355802 
L 281.656749 344.444237 
L 287.515138 344.271143 
L 293.373528 344.54611 
L 299.231917 344.595446 
L 305.090306 344.507204 
L 310.948695 344.75811 
L 316.807085 344.737121 
L 322.665474 344.429903 
L 328.523863 344.963646 
L 334.382253 342.329101 
L 340.240642 347.167729 
L 346.099031 345.995618 
L 351.95742 345.249427 
L 357.81581 345.467954 
L 363.674199 345.424185 
L 369.532588 345.535656 
L 375.390977 345.411387 
L 387.107756 345.629146 
L 392.966145 345.212889 
L 398.824534 345.892274 
L 404.682924 345.805759 
L 410.541313 345.972134 
L 422.258091 346.716917 
L 428.116481 346.916951 
L 433.97487 346.825637 
L 439.833259 346.452061 
L 451.550038 347.133302 
L 457.408427 346.563724 
L 463.266816 347.143029 
L 469.125206 347.209706 
L 474.983595 347.099451 
L 480.841984 346.017119 
L 486.700373 301.980585 
L 492.558763 290.738703 
L 498.417152 338.275187 
L 504.275541 347.133494 
L 510.13393 350.427907 
L 515.99232 351.294144 
L 521.850709 351.802611 
L 527.709098 352.086856 
L 580.434602 352.636469 
L 668.31044 353.112173 
L 767.903058 353.188577 
L 926.079568 353.091696 
L 937.796346 352.939399 
L 943.654736 352.313382 
L 949.513125 342.307665 
L 949.513125 342.307665 
" clip-path="url(#p7692db523c)" style="fill: none; stroke: #90ed7d; stroke-linecap: square"/>
   </g>
   <g id="line2d_29">
    <path d="M 76.613125 136.843792 
L 82.471514 282.568932 
L 88.329904 326.89355 
L 94.188293 342.267543 
L 100.046682 343.556755 
L 111.763461 344.536511 
L 117.62185 345.313993 
L 123.480239 345.319305 
L 129.338628 344.553021 
L 135.197018 345.152994 
L 141.055407 344.759069 
L 146.913796 343.63092 
L 152.772185 341.818843 
L 158.630575 346.154058 
L 164.488964 343.807278 
L 170.347353 345.036083 
L 176.205742 346.433248 
L 182.064132 344.986235 
L 187.922521 345.438263 
L 193.78091 345.674835 
L 199.639299 344.811989 
L 205.497689 344.10464 
L 228.931246 344.609012 
L 234.789635 343.844008 
L 240.648024 345.094763 
L 246.506414 342.82605 
L 252.364803 346.448926 
L 258.223192 344.290148 
L 264.081581 345.281806 
L 269.939971 344.034763 
L 275.79836 344.531328 
L 281.656749 343.401195 
L 287.515138 346.200963 
L 293.373528 344.011599 
L 299.231917 345.827132 
L 305.090306 345.633241 
L 310.948695 345.763333 
L 316.807085 345.259602 
L 322.665474 345.503981 
L 328.523863 345.456948 
L 334.382253 344.918149 
L 346.099031 345.086636 
L 351.95742 345.795265 
L 363.674199 345.242132 
L 369.532588 345.899313 
L 375.390977 345.582625 
L 381.249367 344.600373 
L 387.107756 345.147107 
L 392.966145 346.268857 
L 398.824534 344.993594 
L 404.682924 345.568291 
L 410.541313 346.316338 
L 416.399702 346.745329 
L 422.258091 345.869621 
L 428.116481 347.018951 
L 433.97487 347.224168 
L 439.833259 345.387646 
L 445.691648 349.210364 
L 451.550038 347.75356 
L 457.408427 348.060714 
L 463.266816 347.269665 
L 469.125206 347.550775 
L 492.558763 347.996275 
L 498.417152 347.718941 
L 504.275541 345.986084 
L 510.13393 299.143959 
L 515.99232 298.84698 
L 521.850709 343.258881 
L 527.709098 350.260957 
L 533.567487 351.727487 
L 539.425877 352.06254 
L 551.142655 352.424341 
L 633.160105 353.014268 
L 691.743997 353.170084 
L 937.796346 353.154854 
L 943.654736 352.863571 
L 949.513125 344.18578 
L 949.513125 344.18578 
" clip-path="url(#p7692db523c)" style="fill: none; stroke: #f7a35c; stroke-linecap: square"/>
   </g>
   <g id="line2d_30">
    <path d="M 76.613125 262.440779 
L 82.471514 331.95288 
L 88.329904 343.85623 
L 94.188293 348.353853 
L 100.046682 349.011866 
L 105.905071 349.19251 
L 111.763461 349.008154 
L 123.480239 349.02364 
L 129.338628 348.170649 
L 135.197018 348.321282 
L 152.772185 347.775829 
L 158.630575 347.332504 
L 164.488964 347.144948 
L 170.347353 346.784363 
L 176.205742 345.843513 
L 182.064132 346.736818 
L 187.922521 346.250236 
L 193.78091 346.110865 
L 199.639299 345.659989 
L 205.497689 344.909255 
L 211.356078 344.884106 
L 217.214467 345.14941 
L 223.072857 344.928964 
L 228.931246 345.050481 
L 234.789635 344.596214 
L 240.648024 344.497157 
L 246.506414 343.993873 
L 252.364803 344.339613 
L 258.223192 344.002064 
L 269.939971 341.282284 
L 275.79836 341.163326 
L 281.656749 339.989104 
L 287.515138 340.072995 
L 293.373528 339.431428 
L 299.231917 340.982809 
L 305.090306 339.590956 
L 310.948695 339.02029 
L 316.807085 337.142494 
L 328.523863 337.23784 
L 334.382253 329.246218 
L 340.240642 341.111814 
L 346.099031 335.215746 
L 351.95742 332.243204 
L 357.81581 331.051576 
L 363.674199 333.280871 
L 369.532588 330.998848 
L 375.390977 330.575233 
L 381.249367 333.60735 
L 387.107756 332.189196 
L 392.966145 330.88565 
L 398.824534 332.574546 
L 404.682924 328.668513 
L 410.541313 328.06566 
L 416.399702 329.089953 
L 422.258091 330.413913 
L 428.116481 332.619787 
L 433.97487 333.71159 
L 439.833259 330.738408 
L 445.691648 330.384477 
L 451.550038 331.126701 
L 457.408427 325.780374 
L 463.266816 326.788414 
L 469.125206 329.213135 
L 474.983595 329.349882 
L 480.841984 326.283082 
L 486.700373 318.683785 
L 492.558763 107.088616 
L 498.417152 291.681728 
L 504.275541 334.791554 
L 510.13393 345.595231 
L 515.99232 348.051115 
L 521.850709 348.503591 
L 527.709098 349.397791 
L 533.567487 349.935822 
L 539.425877 349.912081 
L 545.284266 349.549448 
L 551.142655 349.784933 
L 562.859434 350.468285 
L 568.717823 350.709017 
L 574.576212 350.764624 
L 580.434602 351.007148 
L 592.15138 351.065507 
L 598.009769 351.547546 
L 603.868159 351.646923 
L 609.726548 351.902436 
L 621.443326 352.079945 
L 627.301716 352.230706 
L 639.018494 352.298856 
L 644.876883 352.451345 
L 656.593662 352.605882 
L 680.027219 352.891278 
L 703.460776 352.956484 
L 732.752722 353.062005 
L 750.32789 353.098671 
L 779.619836 353.129194 
L 814.770172 353.197664 
L 949.513125 353.038648 
L 949.513125 353.038648 
" clip-path="url(#p7692db523c)" style="fill: none; stroke: #8085e9; stroke-linecap: square"/>
   </g>
   <g id="line2d_31">
    <path d="M 76.613125 256.809439 
L 82.471514 326.370109 
L 88.329904 343.085339 
L 94.188293 348.514533 
L 100.046682 348.53629 
L 105.905071 348.953059 
L 111.763461 348.205076 
L 117.62185 349.204093 
L 123.480239 349.489809 
L 129.338628 347.871174 
L 135.197018 348.772862 
L 141.055407 348.134366 
L 146.913796 347.314523 
L 152.772185 343.152273 
L 158.630575 348.890028 
L 164.488964 346.772077 
L 170.347353 346.092244 
L 176.205742 349.298158 
L 182.064132 346.463387 
L 187.922521 348.275657 
L 193.78091 347.996787 
L 199.639299 346.666237 
L 205.497689 345.105961 
L 211.356078 341.58515 
L 217.214467 346.721652 
L 223.072857 346.029213 
L 228.931246 346.487512 
L 234.789635 343.585039 
L 240.648024 346.162633 
L 246.506414 339.873537 
L 252.364803 348.274697 
L 258.223192 343.426151 
L 264.081581 344.942466 
L 269.939971 344.321952 
L 275.79836 342.77153 
L 281.656749 337.698442 
L 287.515138 341.719913 
L 293.373528 344.113023 
L 299.231917 343.308921 
L 305.090306 340.820402 
L 310.948695 339.095927 
L 316.807085 333.741921 
L 322.665474 341.275181 
L 328.523863 335.218178 
L 334.382253 338.526605 
L 340.240642 337.292424 
L 346.099031 332.645959 
L 351.95742 333.673516 
L 357.81581 332.688833 
L 363.674199 332.458659 
L 369.532588 333.449933 
L 375.390977 331.706965 
L 381.249367 331.69935 
L 387.107756 328.103287 
L 392.966145 335.795242 
L 398.824534 329.846575 
L 404.682924 325.697187 
L 410.541313 331.218335 
L 416.399702 331.679065 
L 422.258091 327.867099 
L 428.116481 332.809006 
L 433.97487 334.243285 
L 439.833259 323.19267 
L 445.691648 340.829744 
L 451.550038 334.770693 
L 457.408427 334.147044 
L 463.266816 327.402977 
L 469.125206 330.676849 
L 474.983595 332.193932 
L 480.841984 332.22004 
L 486.700373 331.421824 
L 492.558763 331.053624 
L 498.417152 329.769211 
L 504.275541 324.405735 
L 510.13393 318.69012 
L 515.99232 153.661534 
L 521.850709 317.198698 
L 527.709098 344.804822 
L 533.567487 349.395296 
L 539.425877 349.978375 
L 545.284266 349.769959 
L 551.142655 350.326739 
L 557.001044 350.744659 
L 562.859434 350.861378 
L 568.717823 351.127769 
L 574.576212 351.105693 
L 586.292991 351.418669 
L 592.15138 351.424236 
L 598.009769 351.830191 
L 627.301716 352.45672 
L 639.018494 352.481804 
L 644.876883 352.641716 
L 656.593662 352.718824 
L 685.885608 352.977921 
L 715.177555 353.023994 
L 750.32789 353.122475 
L 779.619836 353.148775 
L 826.486951 353.205471 
L 943.654736 353.218013 
L 949.513125 353.070259 
L 949.513125 353.070259 
" clip-path="url(#p7692db523c)" style="fill: none; stroke: #f15c80; stroke-linecap: square"/>
   </g>
   <g id="line2d_32">
    <path d="M 76.613125 119.22054 
L 82.471514 279.520689 
L 88.329904 324.719991 
L 94.188293 341.192569 
L 100.046682 344.202482 
L 105.905071 344.923141 
L 111.763461 345.041651 
L 123.480239 345.557029 
L 129.338628 344.532096 
L 135.197018 344.775771 
L 141.055407 344.530304 
L 146.913796 344.575097 
L 152.772185 344.420497 
L 158.630575 344.446605 
L 164.488964 344.681385 
L 170.347353 344.512899 
L 176.205742 344.636528 
L 182.064132 345.132261 
L 193.78091 345.15421 
L 205.497689 344.926468 
L 211.356078 344.90164 
L 234.789635 345.508012 
L 240.648024 345.7753 
L 246.506414 345.759238 
L 252.364803 346.166856 
L 258.223192 345.957992 
L 264.081581 346.070231 
L 269.939971 345.756038 
L 293.373528 346.407204 
L 299.231917 346.751408 
L 305.090306 346.949458 
L 316.807085 346.657342 
L 322.665474 345.973158 
L 328.523863 347.909185 
L 334.382253 345.192412 
L 340.240642 349.192446 
L 346.099031 347.882053 
L 351.95742 347.590641 
L 357.81581 347.716574 
L 363.674199 348.020528 
L 369.532588 347.997619 
L 387.107756 348.362556 
L 392.966145 348.26913 
L 398.824534 348.750593 
L 404.682924 348.663246 
L 422.258091 349.446744 
L 428.116481 349.81232 
L 433.97487 349.882198 
L 439.833259 349.696754 
L 451.550038 350.063482 
L 457.408427 349.688243 
L 463.266816 350.157676 
L 474.983595 350.425924 
L 480.841984 350.340496 
L 486.700373 349.865816 
L 492.558763 333.351452 
L 498.417152 348.403382 
L 504.275541 351.738621 
L 510.13393 352.552642 
L 515.99232 352.764386 
L 568.717823 353.025466 
L 785.478226 353.221788 
L 949.513125 353.211678 
L 949.513125 353.211678 
" clip-path="url(#p7692db523c)" style="fill: none; stroke: #e4d354; stroke-linecap: square"/>
   </g>
   <g id="line2d_33">
    <path d="M 76.613125 128.201516 
L 82.471514 280.609612 
L 88.329904 325.89127 
L 94.188293 341.816283 
L 100.046682 344.547773 
L 105.905071 344.867917 
L 117.62185 346.187973 
L 123.480239 346.125711 
L 129.338628 345.02047 
L 135.197018 345.42732 
L 141.055407 345.026165 
L 146.913796 344.400916 
L 152.772185 342.326734 
L 158.630575 346.202947 
L 164.488964 344.499333 
L 170.347353 345.311242 
L 176.205742 347.145524 
L 182.064132 345.619995 
L 187.922521 346.434528 
L 193.78091 346.475994 
L 205.497689 344.944705 
L 211.356078 343.893664 
L 217.214467 346.332527 
L 223.072857 345.848185 
L 228.931246 346.314162 
L 234.789635 345.364866 
L 240.648024 346.786219 
L 246.506414 344.150202 
L 252.364803 348.344191 
L 258.223192 346.151435 
L 264.081581 346.912023 
L 269.939971 347.010377 
L 275.79836 346.389095 
L 281.656749 345.461555 
L 287.515138 346.752496 
L 293.373528 347.396366 
L 299.231917 347.71427 
L 310.948695 346.926229 
L 316.807085 346.215873 
L 322.665474 348.104291 
L 328.523863 346.864543 
L 334.382253 347.792402 
L 340.240642 347.747865 
L 346.099031 347.337431 
L 351.95742 347.909696 
L 363.674199 347.965688 
L 369.532588 348.360892 
L 375.390977 348.409717 
L 381.249367 347.945147 
L 387.107756 348.091813 
L 392.966145 349.133959 
L 398.824534 348.208915 
L 404.682924 348.418355 
L 410.541313 349.24447 
L 416.399702 349.516173 
L 422.258091 349.033686 
L 428.116481 349.866008 
L 433.97487 350.234657 
L 439.833259 349.110923 
L 445.691648 351.259781 
L 451.550038 350.406662 
L 457.408427 350.581484 
L 463.266816 350.277402 
L 469.125206 350.360333 
L 480.841984 350.910202 
L 486.700373 350.825799 
L 492.558763 350.948021 
L 498.417152 350.842564 
L 504.275541 350.551345 
L 510.13393 350.092086 
L 515.99232 338.061203 
L 521.850709 350.834822 
L 527.709098 352.627638 
L 533.567487 352.924169 
L 621.443326 353.160038 
L 885.070843 353.223004 
L 949.513125 353.214493 
L 949.513125 353.214493 
" clip-path="url(#p7692db523c)" style="fill: none; stroke: #2b908f; stroke-linecap: square"/>
   </g>
   <g id="line2d_34">
    <path d="M 76.613125 132.696708 
L 82.471514 275.472406 
L 88.329904 325.987063 
L 94.188293 342.383749 
L 100.046682 344.908359 
L 105.905071 345.345925 
L 117.62185 345.715789 
L 123.480239 345.686161 
L 129.338628 345.233942 
L 135.197018 345.882547 
L 141.055407 345.638232 
L 158.630575 345.653782 
L 164.488964 345.844857 
L 170.347353 345.820541 
L 176.205742 345.662357 
L 182.064132 346.338414 
L 187.922521 346.155722 
L 199.639299 346.136909 
L 205.497689 346.196932 
L 211.356078 346.419234 
L 217.214467 346.341422 
L 228.931246 346.52629 
L 234.789635 346.334639 
L 240.648024 346.502485 
L 246.506414 346.355692 
L 269.939971 346.341422 
L 275.79836 346.69996 
L 281.656749 346.921686 
L 287.515138 346.677819 
L 293.373528 347.098171 
L 299.231917 346.789738 
L 305.090306 346.823397 
L 310.948695 346.624387 
L 316.807085 346.918998 
L 322.665474 346.949074 
L 328.523863 347.239974 
L 334.382253 345.375872 
L 340.240642 348.893612 
L 346.099031 347.918015 
L 357.81581 347.397582 
L 369.532588 347.190957 
L 387.107756 347.418891 
L 392.966145 347.034949 
L 398.824534 347.757783 
L 404.682924 347.883204 
L 410.541313 347.806928 
L 416.399702 347.860552 
L 422.258091 348.25422 
L 428.116481 348.441904 
L 439.833259 348.172313 
L 445.691648 348.354813 
L 451.550038 348.656911 
L 457.408427 348.181911 
L 463.266816 348.847283 
L 469.125206 348.855409 
L 480.841984 348.450799 
L 486.700373 346.6464 
L 492.558763 318.924132 
L 498.417152 345.091115 
L 504.275541 350.727446 
L 510.13393 352.051981 
L 515.99232 352.428372 
L 533.567487 352.671472 
L 586.292991 352.938695 
L 644.876883 353.142504 
L 744.469501 353.215837 
L 937.796346 353.218141 
L 943.654736 353.206239 
L 949.513125 352.998206 
L 949.513125 352.998206 
" clip-path="url(#p7692db523c)" style="fill: none; stroke: #f45b5b; stroke-linecap: square"/>
   </g>
   <g id="line2d_35">
    <path d="M 76.613125 147.052486 
L 82.471514 276.970611 
L 88.329904 326.137568 
L 94.188293 342.762124 
L 100.046682 345.185245 
L 111.763461 345.537576 
L 117.62185 346.226815 
L 123.480239 346.185413 
L 129.338628 345.432312 
L 135.197018 346.29842 
L 141.055407 345.78253 
L 146.913796 345.511468 
L 152.772185 343.496988 
L 158.630575 347.11916 
L 164.488964 345.644951 
L 170.347353 345.854584 
L 176.205742 347.931453 
L 182.064132 346.170376 
L 187.922521 347.130422 
L 193.78091 346.919958 
L 205.497689 346.058649 
L 211.356078 345.20585 
L 217.214467 347.192173 
L 223.072857 346.747632 
L 228.931246 347.105722 
L 234.789635 346.025566 
L 240.648024 347.164209 
L 246.506414 344.507715 
L 252.364803 348.324738 
L 258.223192 346.146379 
L 264.081581 346.982861 
L 269.939971 347.213162 
L 275.79836 347.043652 
L 281.656749 346.266105 
L 287.515138 346.860831 
L 293.373528 347.751256 
L 299.231917 347.438024 
L 305.090306 346.943059 
L 310.948695 346.748912 
L 316.807085 346.295925 
L 322.665474 347.852873 
L 328.523863 346.882332 
L 334.382253 347.644329 
L 340.240642 347.55775 
L 346.099031 347.29475 
L 351.95742 347.706399 
L 363.674199 347.186734 
L 369.532588 347.416011 
L 375.390977 347.468419 
L 381.249367 347.029254 
L 387.107756 346.994955 
L 392.966145 347.865671 
L 398.824534 347.211882 
L 404.682924 347.418699 
L 410.541313 347.959609 
L 416.399702 348.141149 
L 422.258091 347.604911 
L 428.116481 348.336768 
L 433.97487 348.689226 
L 439.833259 347.293022 
L 445.691648 350.043517 
L 451.550038 348.894507 
L 457.408427 349.176705 
L 463.266816 348.944996 
L 474.983595 348.935077 
L 480.841984 349.251509 
L 492.558763 349.153604 
L 498.417152 349.140742 
L 504.275541 348.893995 
L 510.13393 347.256803 
L 515.99232 324.98971 
L 521.850709 348.922599 
L 527.709098 352.176635 
L 533.567487 352.680878 
L 557.001044 352.870993 
L 586.292991 352.960708 
L 621.443326 353.116268 
L 703.460776 353.205215 
L 943.654736 353.215645 
L 949.513125 353.043511 
L 949.513125 353.043511 
" clip-path="url(#p7692db523c)" style="fill: none; stroke: #91e8e1; stroke-linecap: square"/>
   </g>
   <g id="line2d_36">
    <path d="M 76.613125 173.98249 
L 82.471514 295.777684 
L 88.329904 330.104904 
L 94.188293 342.512114 
L 100.046682 344.724195 
L 105.905071 345.07115 
L 111.763461 345.047154 
L 117.62185 345.208409 
L 123.480239 345.161632 
L 129.338628 344.557436 
L 135.197018 344.785753 
L 141.055407 344.619379 
L 146.913796 344.620338 
L 158.630575 344.292004 
L 164.488964 344.341341 
L 170.347353 344.034891 
L 176.205742 343.913757 
L 182.064132 344.232749 
L 187.922521 343.951384 
L 193.78091 343.928923 
L 199.639299 343.368368 
L 205.497689 343.581584 
L 217.214467 343.514842 
L 223.072857 343.83121 
L 228.931246 343.779186 
L 234.789635 343.467809 
L 240.648024 343.608012 
L 246.506414 343.290876 
L 252.364803 343.504987 
L 258.223192 342.705812 
L 264.081581 343.255361 
L 269.939971 342.714451 
L 275.79836 342.981035 
L 287.515138 342.786504 
L 293.373528 343.224902 
L 299.231917 343.234372 
L 305.090306 342.697621 
L 316.807085 342.45561 
L 322.665474 342.070644 
L 328.523863 342.789064 
L 334.382253 339.191912 
L 340.240642 345.693328 
L 346.099031 343.709628 
L 351.95742 342.420095 
L 357.81581 342.552811 
L 363.674199 342.926515 
L 369.532588 342.088114 
L 375.390977 342.222941 
L 381.249367 342.823042 
L 387.107756 342.677401 
L 392.966145 342.658459 
L 398.824534 343.230085 
L 404.682924 342.380677 
L 410.541313 342.566249 
L 416.399702 343.383534 
L 422.258091 343.90851 
L 428.116481 344.317664 
L 433.97487 344.429967 
L 439.833259 343.703229 
L 445.691648 343.744823 
L 451.550038 344.498949 
L 457.408427 343.553812 
L 469.125206 344.681065 
L 474.983595 344.866573 
L 480.841984 343.907166 
L 486.700373 341.029906 
L 492.558763 274.462191 
L 498.417152 334.523435 
L 504.275541 347.581554 
L 510.13393 350.768848 
L 515.99232 351.485091 
L 527.709098 351.961691 
L 539.425877 352.038735 
L 551.142655 352.118723 
L 621.443326 352.879696 
L 674.16883 353.126123 
L 732.752722 353.201119 
L 931.937957 353.219293 
L 943.654736 353.21315 
L 949.513125 353.075698 
L 949.513125 353.075698 
" clip-path="url(#p7692db523c)" style="fill: none; stroke: #7cb5ec; stroke-linecap: square"/>
   </g>
   <g id="line2d_37">
    <path d="M 76.613125 175.08018 
L 82.471514 293.006264 
L 88.329904 329.518689 
L 94.188293 342.975083 
L 100.046682 344.860366 
L 105.905071 344.853263 
L 111.763461 345.18966 
L 117.62185 345.807487 
L 123.480239 345.742025 
L 129.338628 344.739168 
L 135.197018 345.324744 
L 141.055407 344.891785 
L 146.913796 344.091139 
L 152.772185 341.55821 
L 158.630575 345.989795 
L 164.488964 343.929627 
L 170.347353 344.483207 
L 176.205742 346.625027 
L 182.064132 344.601845 
L 187.922521 345.403836 
L 193.78091 345.490031 
L 199.639299 344.349787 
L 205.497689 343.439013 
L 211.356078 341.945799 
L 217.214467 344.979452 
L 223.072857 344.379607 
L 228.931246 344.795928 
L 234.789635 342.978347 
L 240.648024 344.800919 
L 246.506414 340.589653 
L 252.364803 346.517971 
L 258.223192 342.897655 
L 264.081581 344.296163 
L 269.939971 344.374488 
L 275.79836 343.588431 
L 281.656749 341.839447 
L 287.515138 343.565714 
L 293.373528 344.675114 
L 299.231917 344.610164 
L 305.090306 343.373551 
L 310.948695 342.381189 
L 316.807085 341.119364 
L 322.665474 344.247147 
L 328.523863 342.302097 
L 334.382253 343.751798 
L 340.240642 343.475232 
L 346.099031 342.535726 
L 351.95742 342.897527 
L 375.390977 342.729105 
L 381.249367 341.787807 
L 387.107756 341.743142 
L 392.966145 344.216624 
L 398.824534 341.948807 
L 404.682924 341.718762 
L 410.541313 343.229637 
L 416.399702 344.156025 
L 422.258091 342.571113 
L 428.116481 344.395284 
L 433.97487 345.197211 
L 439.833259 341.880913 
L 445.691648 347.472067 
L 451.550038 345.376576 
L 457.408427 345.857527 
L 463.266816 344.481991 
L 474.983595 345.494702 
L 480.841984 345.67829 
L 486.700373 345.249811 
L 492.558763 345.505068 
L 498.417152 344.70295 
L 504.275541 343.66989 
L 510.13393 341.343778 
L 515.99232 289.867091 
L 521.850709 343.244163 
L 527.709098 350.908219 
L 533.567487 352.052557 
L 562.859434 352.389402 
L 609.726548 352.851156 
L 721.035944 353.193761 
L 867.495675 353.22102 
L 943.654736 353.219037 
L 949.513125 353.103854 
L 949.513125 353.103854 
" clip-path="url(#p7692db523c)" style="fill: none; stroke: #434348; stroke-linecap: square"/>
   </g>
   <g id="line2d_38">
    <path d="M 32.968125 353.2239 
L 993.158125 353.2239 
" clip-path="url(#p7692db523c)" style="fill: none; stroke: #dedede; stroke-width: 2; stroke-linecap: square"/>
   </g>
   <g id="text_17">
    <!-- Cutadapt: Lengths of Trimmed Sequences (3' end) -->
    <g transform="translate(311.710625 19.3575) scale(0.16 -0.16)">
     <defs>
      <path id="DejaVuSans-61" d="M 2194 1759 
Q 1497 1759 1228 1600 
Q 959 1441 959 1056 
Q 959 750 1161 570 
Q 1363 391 1709 391 
Q 2188 391 2477 730 
Q 2766 1069 2766 1631 
L 2766 1759 
L 2194 1759 
z
M 3341 1997 
L 3341 0 
L 2766 0 
L 2766 531 
Q 2569 213 2275 61 
Q 1981 -91 1556 -91 
Q 1019 -91 701 211 
Q 384 513 384 1019 
Q 384 1609 779 1909 
Q 1175 2209 1959 2209 
L 2766 2209 
L 2766 2266 
Q 2766 2663 2505 2880 
Q 2244 3097 1772 3097 
Q 1472 3097 1187 3025 
Q 903 2953 641 2809 
L 641 3341 
Q 956 3463 1253 3523 
Q 1550 3584 1831 3584 
Q 2591 3584 2966 3190 
Q 3341 2797 3341 1997 
z
" transform="scale(0.015625)"/>
      <path id="DejaVuSans-3a" d="M 750 794 
L 1409 794 
L 1409 0 
L 750 0 
L 750 794 
z
M 750 3309 
L 1409 3309 
L 1409 2516 
L 750 2516 
L 750 3309 
z
" transform="scale(0.015625)"/>
      <path id="DejaVuSans-73" d="M 2834 3397 
L 2834 2853 
Q 2591 2978 2328 3040 
Q 2066 3103 1784 3103 
Q 1356 3103 1142 2972 
Q 928 2841 928 2578 
Q 928 2378 1081 2264 
Q 1234 2150 1697 2047 
L 1894 2003 
Q 2506 1872 2764 1633 
Q 3022 1394 3022 966 
Q 3022 478 2636 193 
Q 2250 -91 1575 -91 
Q 1294 -91 989 -36 
Q 684 19 347 128 
L 347 722 
Q 666 556 975 473 
Q 1284 391 1588 391 
Q 1994 391 2212 530 
Q 2431 669 2431 922 
Q 2431 1156 2273 1281 
Q 2116 1406 1581 1522 
L 1381 1569 
Q 847 1681 609 1914 
Q 372 2147 372 2553 
Q 372 3047 722 3315 
Q 1072 3584 1716 3584 
Q 2034 3584 2315 3537 
Q 2597 3491 2834 3397 
z
" transform="scale(0.015625)"/>
      <path id="DejaVuSans-66" d="M 2375 4863 
L 2375 4384 
L 1825 4384 
Q 1516 4384 1395 4259 
Q 1275 4134 1275 3809 
L 1275 3500 
L 2222 3500 
L 2222 3053 
L 1275 3053 
L 1275 0 
L 697 0 
L 697 3053 
L 147 3053 
L 147 3500 
L 697 3500 
L 697 3744 
Q 697 4328 969 4595 
Q 1241 4863 1831 4863 
L 2375 4863 
z
" transform="scale(0.015625)"/>
      <path id="DejaVuSans-53" d="M 3425 4513 
L 3425 3897 
Q 3066 4069 2747 4153 
Q 2428 4238 2131 4238 
Q 1616 4238 1336 4038 
Q 1056 3838 1056 3469 
Q 1056 3159 1242 3001 
Q 1428 2844 1947 2747 
L 2328 2669 
Q 3034 2534 3370 2195 
Q 3706 1856 3706 1288 
Q 3706 609 3251 259 
Q 2797 -91 1919 -91 
Q 1588 -91 1214 -16 
Q 841 59 441 206 
L 441 856 
Q 825 641 1194 531 
Q 1563 422 1919 422 
Q 2459 422 2753 634 
Q 3047 847 3047 1241 
Q 3047 1584 2836 1778 
Q 2625 1972 2144 2069 
L 1759 2144 
Q 1053 2284 737 2584 
Q 422 2884 422 3419 
Q 422 4038 858 4394 
Q 1294 4750 2059 4750 
Q 2388 4750 2728 4690 
Q 3069 4631 3425 4513 
z
" transform="scale(0.015625)"/>
      <path id="DejaVuSans-71" d="M 947 1747 
Q 947 1113 1208 752 
Q 1469 391 1925 391 
Q 2381 391 2643 752 
Q 2906 1113 2906 1747 
Q 2906 2381 2643 2742 
Q 2381 3103 1925 3103 
Q 1469 3103 1208 2742 
Q 947 2381 947 1747 
z
M 2906 525 
Q 2725 213 2448 61 
Q 2172 -91 1784 -91 
Q 1150 -91 751 415 
Q 353 922 353 1747 
Q 353 2572 751 3078 
Q 1150 3584 1784 3584 
Q 2172 3584 2448 3432 
Q 2725 3281 2906 2969 
L 2906 3500 
L 3481 3500 
L 3481 -1331 
L 2906 -1331 
L 2906 525 
z
" transform="scale(0.015625)"/>
      <path id="DejaVuSans-63" d="M 3122 3366 
L 3122 2828 
Q 2878 2963 2633 3030 
Q 2388 3097 2138 3097 
Q 1578 3097 1268 2742 
Q 959 2388 959 1747 
Q 959 1106 1268 751 
Q 1578 397 2138 397 
Q 2388 397 2633 464 
Q 2878 531 3122 666 
L 3122 134 
Q 2881 22 2623 -34 
Q 2366 -91 2075 -91 
Q 1284 -91 818 406 
Q 353 903 353 1747 
Q 353 2603 823 3093 
Q 1294 3584 2113 3584 
Q 2378 3584 2631 3529 
Q 2884 3475 3122 3366 
z
" transform="scale(0.015625)"/>
      <path id="DejaVuSans-27" d="M 1147 4666 
L 1147 2931 
L 616 2931 
L 616 4666 
L 1147 4666 
z
" transform="scale(0.015625)"/>
     </defs>
     <use xlink:href="#DejaVuSans-43"/>
     <use xlink:href="#DejaVuSans-75" x="69.824219"/>
     <use xlink:href="#DejaVuSans-74" x="133.203125"/>
     <use xlink:href="#DejaVuSans-61" x="172.412109"/>
     <use xlink:href="#DejaVuSans-64" x="233.691406"/>
     <use xlink:href="#DejaVuSans-61" x="297.167969"/>
     <use xlink:href="#DejaVuSans-70" x="358.447266"/>
     <use xlink:href="#DejaVuSans-74" x="421.923828"/>
     <use xlink:href="#DejaVuSans-3a" x="461.132812"/>
     <use xlink:href="#DejaVuSans-20" x="494.824219"/>
     <use xlink:href="#DejaVuSans-4c" x="526.611328"/>
     <use xlink:href="#DejaVuSans-65" x="580.574219"/>
     <use xlink:href="#DejaVuSans-6e" x="642.097656"/>
     <use xlink:href="#DejaVuSans-67" x="705.476562"/>
     <use xlink:href="#DejaVuSans-74" x="768.953125"/>
     <use xlink:href="#DejaVuSans-68" x="808.162109"/>
     <use xlink:href="#DejaVuSans-73" x="871.541016"/>
     <use xlink:href="#DejaVuSans-20" x="923.640625"/>
     <use xlink:href="#DejaVuSans-6f" x="955.427734"/>
     <use xlink:href="#DejaVuSans-66" x="1016.609375"/>
     <use xlink:href="#DejaVuSans-20" x="1051.814453"/>
     <use xlink:href="#DejaVuSans-54" x="1083.601562"/>
     <use xlink:href="#DejaVuSans-72" x="1129.935547"/>
     <use xlink:href="#DejaVuSans-69" x="1171.048828"/>
     <use xlink:href="#DejaVuSans-6d" x="1198.832031"/>
     <use xlink:href="#DejaVuSans-6d" x="1296.244141"/>
     <use xlink:href="#DejaVuSans-65" x="1393.65625"/>
     <use xlink:href="#DejaVuSans-64" x="1455.179688"/>
     <use xlink:href="#DejaVuSans-20" x="1518.65625"/>
     <use xlink:href="#DejaVuSans-53" x="1550.443359"/>
     <use xlink:href="#DejaVuSans-65" x="1613.919922"/>
     <use xlink:href="#DejaVuSans-71" x="1675.443359"/>
     <use xlink:href="#DejaVuSans-75" x="1738.919922"/>
     <use xlink:href="#DejaVuSans-65" x="1802.298828"/>
     <use xlink:href="#DejaVuSans-6e" x="1863.822266"/>
     <use xlink:href="#DejaVuSans-63" x="1927.201172"/>
     <use xlink:href="#DejaVuSans-65" x="1982.181641"/>
     <use xlink:href="#DejaVuSans-73" x="2043.705078"/>
     <use xlink:href="#DejaVuSans-20" x="2095.804688"/>
     <use xlink:href="#DejaVuSans-28" x="2127.591797"/>
     <use xlink:href="#DejaVuSans-33" x="2166.605469"/>
     <use xlink:href="#DejaVuSans-27" x="2230.228516"/>
     <use xlink:href="#DejaVuSans-20" x="2257.71875"/>
     <use xlink:href="#DejaVuSans-65" x="2289.505859"/>
     <use xlink:href="#DejaVuSans-6e" x="2351.029297"/>
     <use xlink:href="#DejaVuSans-64" x="2414.408203"/>
     <use xlink:href="#DejaVuSans-29" x="2477.884766"/>
    </g>
   </g>
  </g>
 </g>
 <defs>
  <clipPath id="p7692db523c">
   <rect x="32.968125" y="35.2559" width="960.19" height="317.968"/>
  </clipPath>
 </defs>
</svg>
