<?xml version="1.0" encoding="utf-8" standalone="no"?>
<!DOCTYPE svg PUBLIC "-//W3C//DTD SVG 1.1//EN"
  "http://www.w3.org/Graphics/SVG/1.1/DTD/svg11.dtd">
<svg xmlns:xlink="http://www.w3.org/1999/xlink" width="1000.340625pt" height="388.844525pt" viewBox="0 0 1000.340625 388.844525" xmlns="http://www.w3.org/2000/svg" version="1.1">
 <metadata>
  <rdf:RDF xmlns:dc="http://purl.org/dc/elements/1.1/" xmlns:cc="http://creativecommons.org/ns#" xmlns:rdf="http://www.w3.org/1999/02/22-rdf-syntax-ns#">
   <cc:Work>
    <dc:type rdf:resource="http://purl.org/dc/dcmitype/StillImage"/>
    <dc:date>2024-08-15T09:46:32.276608</dc:date>
    <dc:format>image/svg+xml</dc:format>
    <dc:creator>
     <cc:Agent>
      <dc:title>Matplotlib v3.8.2, https://matplotlib.org/</dc:title>
     </cc:Agent>
    </dc:creator>
   </cc:Work>
  </rdf:RDF>
 </metadata>
 <defs>
  <style type="text/css">*{stroke-linejoin: round; stroke-linecap: butt}</style>
 </defs>
 <g id="figure_1">
  <g id="axes_1">
   <g id="patch_1">
    <path d="M 40.600625 353.2239 
L 993.140625 353.2239 
L 993.140625 35.2559 
L 40.600625 35.2559 
z
" style="fill: #ffffff"/>
   </g>
   <g id="patch_2">
    <path d="M 684.05346 353.2239 
L 2338.646463 353.2239 
L 2338.646463 35.2559 
L 684.05346 35.2559 
z
" clip-path="url(#pd9f58356f8)" style="fill: #c3e6c3"/>
   </g>
   <g id="patch_3">
    <path d="M 500.209793 353.2239 
L 684.05346 353.2239 
L 684.05346 35.2559 
L 500.209793 35.2559 
z
" clip-path="url(#pd9f58356f8)" style="fill: #e6dcc3"/>
   </g>
   <g id="patch_4">
    <path d="M 40.600625 353.2239 
L 500.209793 353.2239 
L 500.209793 35.2559 
L 40.600625 35.2559 
z
" clip-path="url(#pd9f58356f8)" style="fill: #e6c3c3"/>
   </g>
   <g id="matplotlib.axis_1">
    <g id="xtick_1">
     <g id="text_1">
      <!-- 0 -->
      <g transform="translate(38.055625 366.30265) scale(0.08 -0.08)">
       <defs>
        <path id="DejaVuSans-30" d="M 2034 4250 
Q 1547 4250 1301 3770 
Q 1056 3291 1056 2328 
Q 1056 1369 1301 889 
Q 1547 409 2034 409 
Q 2525 409 2770 889 
Q 3016 1369 3016 2328 
Q 3016 3291 2770 3770 
Q 2525 4250 2034 4250 
z
M 2034 4750 
Q 2819 4750 3233 4129 
Q 3647 3509 3647 2328 
Q 3647 1150 3233 529 
Q 2819 -91 2034 -91 
Q 1250 -91 836 529 
Q 422 1150 422 2328 
Q 422 3509 836 4129 
Q 1250 4750 2034 4750 
z
" transform="scale(0.015625)"/>
       </defs>
       <use xlink:href="#DejaVuSans-30"/>
      </g>
     </g>
    </g>
    <g id="xtick_2">
     <g id="text_2">
      <!-- 5 -->
      <g transform="translate(152.957917 366.30265) scale(0.08 -0.08)">
       <defs>
        <path id="DejaVuSans-35" d="M 691 4666 
L 3169 4666 
L 3169 4134 
L 1269 4134 
L 1269 2991 
Q 1406 3038 1543 3061 
Q 1681 3084 1819 3084 
Q 2600 3084 3056 2656 
Q 3513 2228 3513 1497 
Q 3513 744 3044 326 
Q 2575 -91 1722 -91 
Q 1428 -91 1123 -41 
Q 819 9 494 109 
L 494 744 
Q 775 591 1075 516 
Q 1375 441 1709 441 
Q 2250 441 2565 725 
Q 2881 1009 2881 1497 
Q 2881 1984 2565 2268 
Q 2250 2553 1709 2553 
Q 1456 2553 1204 2497 
Q 953 2441 691 2322 
L 691 4666 
z
" transform="scale(0.015625)"/>
       </defs>
       <use xlink:href="#DejaVuSans-35"/>
      </g>
     </g>
    </g>
    <g id="xtick_3">
     <g id="text_3">
      <!-- 10 -->
      <g transform="translate(265.315209 366.30265) scale(0.08 -0.08)">
       <defs>
        <path id="DejaVuSans-31" d="M 794 531 
L 1825 531 
L 1825 4091 
L 703 3866 
L 703 4441 
L 1819 4666 
L 2450 4666 
L 2450 531 
L 3481 531 
L 3481 0 
L 794 0 
L 794 531 
z
" transform="scale(0.015625)"/>
       </defs>
       <use xlink:href="#DejaVuSans-31"/>
       <use xlink:href="#DejaVuSans-30" x="63.623047"/>
      </g>
     </g>
    </g>
    <g id="xtick_4">
     <g id="text_4">
      <!-- 15 -->
      <g transform="translate(380.217501 366.30265) scale(0.08 -0.08)">
       <use xlink:href="#DejaVuSans-31"/>
       <use xlink:href="#DejaVuSans-35" x="63.623047"/>
      </g>
     </g>
    </g>
    <g id="xtick_5">
     <g id="text_5">
      <!-- 20 -->
      <g transform="translate(495.119793 366.30265) scale(0.08 -0.08)">
       <defs>
        <path id="DejaVuSans-32" d="M 1228 531 
L 3431 531 
L 3431 0 
L 469 0 
L 469 531 
Q 828 903 1448 1529 
Q 2069 2156 2228 2338 
Q 2531 2678 2651 2914 
Q 2772 3150 2772 3378 
Q 2772 3750 2511 3984 
Q 2250 4219 1831 4219 
Q 1534 4219 1204 4116 
Q 875 4013 500 3803 
L 500 4441 
Q 881 4594 1212 4672 
Q 1544 4750 1819 4750 
Q 2544 4750 2975 4387 
Q 3406 4025 3406 3419 
Q 3406 3131 3298 2873 
Q 3191 2616 2906 2266 
Q 2828 2175 2409 1742 
Q 1991 1309 1228 531 
z
" transform="scale(0.015625)"/>
       </defs>
       <use xlink:href="#DejaVuSans-32"/>
       <use xlink:href="#DejaVuSans-30" x="63.623047"/>
      </g>
     </g>
    </g>
    <g id="xtick_6">
     <g id="text_6">
      <!-- 25 -->
      <g transform="translate(610.022085 366.30265) scale(0.08 -0.08)">
       <use xlink:href="#DejaVuSans-32"/>
       <use xlink:href="#DejaVuSans-35" x="63.623047"/>
      </g>
     </g>
    </g>
    <g id="xtick_7">
     <g id="text_7">
      <!-- 30 -->
      <g transform="translate(724.924377 366.30265) scale(0.08 -0.08)">
       <defs>
        <path id="DejaVuSans-33" d="M 2597 2516 
Q 3050 2419 3304 2112 
Q 3559 1806 3559 1356 
Q 3559 666 3084 287 
Q 2609 -91 1734 -91 
Q 1441 -91 1130 -33 
Q 819 25 488 141 
L 488 750 
Q 750 597 1062 519 
Q 1375 441 1716 441 
Q 2309 441 2620 675 
Q 2931 909 2931 1356 
Q 2931 1769 2642 2001 
Q 2353 2234 1838 2234 
L 1294 2234 
L 1294 2753 
L 1863 2753 
Q 2328 2753 2575 2939 
Q 2822 3125 2822 3475 
Q 2822 3834 2567 4026 
Q 2313 4219 1838 4219 
Q 1578 4219 1281 4162 
Q 984 4106 628 3988 
L 628 4550 
Q 988 4650 1302 4700 
Q 1616 4750 1894 4750 
Q 2613 4750 3031 4423 
Q 3450 4097 3450 3541 
Q 3450 3153 3228 2886 
Q 3006 2619 2597 2516 
z
" transform="scale(0.015625)"/>
       </defs>
       <use xlink:href="#DejaVuSans-33"/>
       <use xlink:href="#DejaVuSans-30" x="63.623047"/>
      </g>
     </g>
    </g>
    <g id="xtick_8">
     <g id="text_8">
      <!-- 35 -->
      <g transform="translate(839.826668 366.30265) scale(0.08 -0.08)">
       <use xlink:href="#DejaVuSans-33"/>
       <use xlink:href="#DejaVuSans-35" x="63.623047"/>
      </g>
     </g>
    </g>
    <g id="xtick_9">
     <g id="text_9">
      <!-- 40 -->
      <g transform="translate(954.72896 366.30265) scale(0.08 -0.08)">
       <defs>
        <path id="DejaVuSans-34" d="M 2419 4116 
L 825 1625 
L 2419 1625 
L 2419 4116 
z
M 2253 4666 
L 3047 4666 
L 3047 1625 
L 3713 1625 
L 3713 1100 
L 3047 1100 
L 3047 0 
L 2419 0 
L 2419 1100 
L 313 1100 
L 313 1709 
L 2253 4666 
z
" transform="scale(0.015625)"/>
       </defs>
       <use xlink:href="#DejaVuSans-34"/>
       <use xlink:href="#DejaVuSans-30" x="63.623047"/>
      </g>
     </g>
    </g>
    <g id="text_10">
     <!-- Mean Sequence Quality (Phred Score) -->
     <g transform="translate(422.078438 379.564837) scale(0.1 -0.1)">
      <defs>
       <path id="DejaVuSans-4d" d="M 628 4666 
L 1569 4666 
L 2759 1491 
L 3956 4666 
L 4897 4666 
L 4897 0 
L 4281 0 
L 4281 4097 
L 3078 897 
L 2444 897 
L 1241 4097 
L 1241 0 
L 628 0 
L 628 4666 
z
" transform="scale(0.015625)"/>
       <path id="DejaVuSans-65" d="M 3597 1894 
L 3597 1613 
L 953 1613 
Q 991 1019 1311 708 
Q 1631 397 2203 397 
Q 2534 397 2845 478 
Q 3156 559 3463 722 
L 3463 178 
Q 3153 47 2828 -22 
Q 2503 -91 2169 -91 
Q 1331 -91 842 396 
Q 353 884 353 1716 
Q 353 2575 817 3079 
Q 1281 3584 2069 3584 
Q 2775 3584 3186 3129 
Q 3597 2675 3597 1894 
z
M 3022 2063 
Q 3016 2534 2758 2815 
Q 2500 3097 2075 3097 
Q 1594 3097 1305 2825 
Q 1016 2553 972 2059 
L 3022 2063 
z
" transform="scale(0.015625)"/>
       <path id="DejaVuSans-61" d="M 2194 1759 
Q 1497 1759 1228 1600 
Q 959 1441 959 1056 
Q 959 750 1161 570 
Q 1363 391 1709 391 
Q 2188 391 2477 730 
Q 2766 1069 2766 1631 
L 2766 1759 
L 2194 1759 
z
M 3341 1997 
L 3341 0 
L 2766 0 
L 2766 531 
Q 2569 213 2275 61 
Q 1981 -91 1556 -91 
Q 1019 -91 701 211 
Q 384 513 384 1019 
Q 384 1609 779 1909 
Q 1175 2209 1959 2209 
L 2766 2209 
L 2766 2266 
Q 2766 2663 2505 2880 
Q 2244 3097 1772 3097 
Q 1472 3097 1187 3025 
Q 903 2953 641 2809 
L 641 3341 
Q 956 3463 1253 3523 
Q 1550 3584 1831 3584 
Q 2591 3584 2966 3190 
Q 3341 2797 3341 1997 
z
" transform="scale(0.015625)"/>
       <path id="DejaVuSans-6e" d="M 3513 2113 
L 3513 0 
L 2938 0 
L 2938 2094 
Q 2938 2591 2744 2837 
Q 2550 3084 2163 3084 
Q 1697 3084 1428 2787 
Q 1159 2491 1159 1978 
L 1159 0 
L 581 0 
L 581 3500 
L 1159 3500 
L 1159 2956 
Q 1366 3272 1645 3428 
Q 1925 3584 2291 3584 
Q 2894 3584 3203 3211 
Q 3513 2838 3513 2113 
z
" transform="scale(0.015625)"/>
       <path id="DejaVuSans-20" transform="scale(0.015625)"/>
       <path id="DejaVuSans-53" d="M 3425 4513 
L 3425 3897 
Q 3066 4069 2747 4153 
Q 2428 4238 2131 4238 
Q 1616 4238 1336 4038 
Q 1056 3838 1056 3469 
Q 1056 3159 1242 3001 
Q 1428 2844 1947 2747 
L 2328 2669 
Q 3034 2534 3370 2195 
Q 3706 1856 3706 1288 
Q 3706 609 3251 259 
Q 2797 -91 1919 -91 
Q 1588 -91 1214 -16 
Q 841 59 441 206 
L 441 856 
Q 825 641 1194 531 
Q 1563 422 1919 422 
Q 2459 422 2753 634 
Q 3047 847 3047 1241 
Q 3047 1584 2836 1778 
Q 2625 1972 2144 2069 
L 1759 2144 
Q 1053 2284 737 2584 
Q 422 2884 422 3419 
Q 422 4038 858 4394 
Q 1294 4750 2059 4750 
Q 2388 4750 2728 4690 
Q 3069 4631 3425 4513 
z
" transform="scale(0.015625)"/>
       <path id="DejaVuSans-71" d="M 947 1747 
Q 947 1113 1208 752 
Q 1469 391 1925 391 
Q 2381 391 2643 752 
Q 2906 1113 2906 1747 
Q 2906 2381 2643 2742 
Q 2381 3103 1925 3103 
Q 1469 3103 1208 2742 
Q 947 2381 947 1747 
z
M 2906 525 
Q 2725 213 2448 61 
Q 2172 -91 1784 -91 
Q 1150 -91 751 415 
Q 353 922 353 1747 
Q 353 2572 751 3078 
Q 1150 3584 1784 3584 
Q 2172 3584 2448 3432 
Q 2725 3281 2906 2969 
L 2906 3500 
L 3481 3500 
L 3481 -1331 
L 2906 -1331 
L 2906 525 
z
" transform="scale(0.015625)"/>
       <path id="DejaVuSans-75" d="M 544 1381 
L 544 3500 
L 1119 3500 
L 1119 1403 
Q 1119 906 1312 657 
Q 1506 409 1894 409 
Q 2359 409 2629 706 
Q 2900 1003 2900 1516 
L 2900 3500 
L 3475 3500 
L 3475 0 
L 2900 0 
L 2900 538 
Q 2691 219 2414 64 
Q 2138 -91 1772 -91 
Q 1169 -91 856 284 
Q 544 659 544 1381 
z
M 1991 3584 
L 1991 3584 
z
" transform="scale(0.015625)"/>
       <path id="DejaVuSans-63" d="M 3122 3366 
L 3122 2828 
Q 2878 2963 2633 3030 
Q 2388 3097 2138 3097 
Q 1578 3097 1268 2742 
Q 959 2388 959 1747 
Q 959 1106 1268 751 
Q 1578 397 2138 397 
Q 2388 397 2633 464 
Q 2878 531 3122 666 
L 3122 134 
Q 2881 22 2623 -34 
Q 2366 -91 2075 -91 
Q 1284 -91 818 406 
Q 353 903 353 1747 
Q 353 2603 823 3093 
Q 1294 3584 2113 3584 
Q 2378 3584 2631 3529 
Q 2884 3475 3122 3366 
z
" transform="scale(0.015625)"/>
       <path id="DejaVuSans-51" d="M 2522 4238 
Q 1834 4238 1429 3725 
Q 1025 3213 1025 2328 
Q 1025 1447 1429 934 
Q 1834 422 2522 422 
Q 3209 422 3611 934 
Q 4013 1447 4013 2328 
Q 4013 3213 3611 3725 
Q 3209 4238 2522 4238 
z
M 3406 84 
L 4238 -825 
L 3475 -825 
L 2784 -78 
Q 2681 -84 2626 -87 
Q 2572 -91 2522 -91 
Q 1538 -91 948 567 
Q 359 1225 359 2328 
Q 359 3434 948 4092 
Q 1538 4750 2522 4750 
Q 3503 4750 4090 4092 
Q 4678 3434 4678 2328 
Q 4678 1516 4351 937 
Q 4025 359 3406 84 
z
" transform="scale(0.015625)"/>
       <path id="DejaVuSans-6c" d="M 603 4863 
L 1178 4863 
L 1178 0 
L 603 0 
L 603 4863 
z
" transform="scale(0.015625)"/>
       <path id="DejaVuSans-69" d="M 603 3500 
L 1178 3500 
L 1178 0 
L 603 0 
L 603 3500 
z
M 603 4863 
L 1178 4863 
L 1178 4134 
L 603 4134 
L 603 4863 
z
" transform="scale(0.015625)"/>
       <path id="DejaVuSans-74" d="M 1172 4494 
L 1172 3500 
L 2356 3500 
L 2356 3053 
L 1172 3053 
L 1172 1153 
Q 1172 725 1289 603 
Q 1406 481 1766 481 
L 2356 481 
L 2356 0 
L 1766 0 
Q 1100 0 847 248 
Q 594 497 594 1153 
L 594 3053 
L 172 3053 
L 172 3500 
L 594 3500 
L 594 4494 
L 1172 4494 
z
" transform="scale(0.015625)"/>
       <path id="DejaVuSans-79" d="M 2059 -325 
Q 1816 -950 1584 -1140 
Q 1353 -1331 966 -1331 
L 506 -1331 
L 506 -850 
L 844 -850 
Q 1081 -850 1212 -737 
Q 1344 -625 1503 -206 
L 1606 56 
L 191 3500 
L 800 3500 
L 1894 763 
L 2988 3500 
L 3597 3500 
L 2059 -325 
z
" transform="scale(0.015625)"/>
       <path id="DejaVuSans-28" d="M 1984 4856 
Q 1566 4138 1362 3434 
Q 1159 2731 1159 2009 
Q 1159 1288 1364 580 
Q 1569 -128 1984 -844 
L 1484 -844 
Q 1016 -109 783 600 
Q 550 1309 550 2009 
Q 550 2706 781 3412 
Q 1013 4119 1484 4856 
L 1984 4856 
z
" transform="scale(0.015625)"/>
       <path id="DejaVuSans-50" d="M 1259 4147 
L 1259 2394 
L 2053 2394 
Q 2494 2394 2734 2622 
Q 2975 2850 2975 3272 
Q 2975 3691 2734 3919 
Q 2494 4147 2053 4147 
L 1259 4147 
z
M 628 4666 
L 2053 4666 
Q 2838 4666 3239 4311 
Q 3641 3956 3641 3272 
Q 3641 2581 3239 2228 
Q 2838 1875 2053 1875 
L 1259 1875 
L 1259 0 
L 628 0 
L 628 4666 
z
" transform="scale(0.015625)"/>
       <path id="DejaVuSans-68" d="M 3513 2113 
L 3513 0 
L 2938 0 
L 2938 2094 
Q 2938 2591 2744 2837 
Q 2550 3084 2163 3084 
Q 1697 3084 1428 2787 
Q 1159 2491 1159 1978 
L 1159 0 
L 581 0 
L 581 4863 
L 1159 4863 
L 1159 2956 
Q 1366 3272 1645 3428 
Q 1925 3584 2291 3584 
Q 2894 3584 3203 3211 
Q 3513 2838 3513 2113 
z
" transform="scale(0.015625)"/>
       <path id="DejaVuSans-72" d="M 2631 2963 
Q 2534 3019 2420 3045 
Q 2306 3072 2169 3072 
Q 1681 3072 1420 2755 
Q 1159 2438 1159 1844 
L 1159 0 
L 581 0 
L 581 3500 
L 1159 3500 
L 1159 2956 
Q 1341 3275 1631 3429 
Q 1922 3584 2338 3584 
Q 2397 3584 2469 3576 
Q 2541 3569 2628 3553 
L 2631 2963 
z
" transform="scale(0.015625)"/>
       <path id="DejaVuSans-64" d="M 2906 2969 
L 2906 4863 
L 3481 4863 
L 3481 0 
L 2906 0 
L 2906 525 
Q 2725 213 2448 61 
Q 2172 -91 1784 -91 
Q 1150 -91 751 415 
Q 353 922 353 1747 
Q 353 2572 751 3078 
Q 1150 3584 1784 3584 
Q 2172 3584 2448 3432 
Q 2725 3281 2906 2969 
z
M 947 1747 
Q 947 1113 1208 752 
Q 1469 391 1925 391 
Q 2381 391 2643 752 
Q 2906 1113 2906 1747 
Q 2906 2381 2643 2742 
Q 2381 3103 1925 3103 
Q 1469 3103 1208 2742 
Q 947 2381 947 1747 
z
" transform="scale(0.015625)"/>
       <path id="DejaVuSans-6f" d="M 1959 3097 
Q 1497 3097 1228 2736 
Q 959 2375 959 1747 
Q 959 1119 1226 758 
Q 1494 397 1959 397 
Q 2419 397 2687 759 
Q 2956 1122 2956 1747 
Q 2956 2369 2687 2733 
Q 2419 3097 1959 3097 
z
M 1959 3584 
Q 2709 3584 3137 3096 
Q 3566 2609 3566 1747 
Q 3566 888 3137 398 
Q 2709 -91 1959 -91 
Q 1206 -91 779 398 
Q 353 888 353 1747 
Q 353 2609 779 3096 
Q 1206 3584 1959 3584 
z
" transform="scale(0.015625)"/>
       <path id="DejaVuSans-29" d="M 513 4856 
L 1013 4856 
Q 1481 4119 1714 3412 
Q 1947 2706 1947 2009 
Q 1947 1309 1714 600 
Q 1481 -109 1013 -844 
L 513 -844 
Q 928 -128 1133 580 
Q 1338 1288 1338 2009 
Q 1338 2731 1133 3434 
Q 928 4138 513 4856 
z
" transform="scale(0.015625)"/>
      </defs>
      <use xlink:href="#DejaVuSans-4d"/>
      <use xlink:href="#DejaVuSans-65" x="86.279297"/>
      <use xlink:href="#DejaVuSans-61" x="147.802734"/>
      <use xlink:href="#DejaVuSans-6e" x="209.082031"/>
      <use xlink:href="#DejaVuSans-20" x="272.460938"/>
      <use xlink:href="#DejaVuSans-53" x="304.248047"/>
      <use xlink:href="#DejaVuSans-65" x="367.724609"/>
      <use xlink:href="#DejaVuSans-71" x="429.248047"/>
      <use xlink:href="#DejaVuSans-75" x="492.724609"/>
      <use xlink:href="#DejaVuSans-65" x="556.103516"/>
      <use xlink:href="#DejaVuSans-6e" x="617.626953"/>
      <use xlink:href="#DejaVuSans-63" x="681.005859"/>
      <use xlink:href="#DejaVuSans-65" x="735.986328"/>
      <use xlink:href="#DejaVuSans-20" x="797.509766"/>
      <use xlink:href="#DejaVuSans-51" x="829.296875"/>
      <use xlink:href="#DejaVuSans-75" x="908.007812"/>
      <use xlink:href="#DejaVuSans-61" x="971.386719"/>
      <use xlink:href="#DejaVuSans-6c" x="1032.666016"/>
      <use xlink:href="#DejaVuSans-69" x="1060.449219"/>
      <use xlink:href="#DejaVuSans-74" x="1088.232422"/>
      <use xlink:href="#DejaVuSans-79" x="1127.441406"/>
      <use xlink:href="#DejaVuSans-20" x="1186.621094"/>
      <use xlink:href="#DejaVuSans-28" x="1218.408203"/>
      <use xlink:href="#DejaVuSans-50" x="1257.421875"/>
      <use xlink:href="#DejaVuSans-68" x="1317.724609"/>
      <use xlink:href="#DejaVuSans-72" x="1381.103516"/>
      <use xlink:href="#DejaVuSans-65" x="1419.966797"/>
      <use xlink:href="#DejaVuSans-64" x="1481.490234"/>
      <use xlink:href="#DejaVuSans-20" x="1544.966797"/>
      <use xlink:href="#DejaVuSans-53" x="1576.753906"/>
      <use xlink:href="#DejaVuSans-63" x="1640.230469"/>
      <use xlink:href="#DejaVuSans-6f" x="1695.210938"/>
      <use xlink:href="#DejaVuSans-72" x="1756.392578"/>
      <use xlink:href="#DejaVuSans-65" x="1795.255859"/>
      <use xlink:href="#DejaVuSans-29" x="1856.779297"/>
     </g>
    </g>
   </g>
   <g id="matplotlib.axis_2">
    <g id="ytick_1">
     <g id="line2d_1">
      <path d="M 40.600625 353.2239 
L 993.140625 353.2239 
" clip-path="url(#pd9f58356f8)" style="fill: none; stroke: #dedede; stroke-linecap: square"/>
     </g>
     <g id="text_11">
      <!-- 0.0 -->
      <g transform="translate(20.878125 356.263275) scale(0.08 -0.08)">
       <defs>
        <path id="DejaVuSans-2e" d="M 684 794 
L 1344 794 
L 1344 0 
L 684 0 
L 684 794 
z
" transform="scale(0.015625)"/>
       </defs>
       <use xlink:href="#DejaVuSans-30"/>
       <use xlink:href="#DejaVuSans-2e" x="63.623047"/>
       <use xlink:href="#DejaVuSans-30" x="95.410156"/>
      </g>
     </g>
    </g>
    <g id="ytick_2">
     <g id="line2d_2">
      <path d="M 40.600625 315.012536 
L 993.140625 315.012536 
" clip-path="url(#pd9f58356f8)" style="fill: none; stroke: #dedede; stroke-linecap: square"/>
     </g>
     <g id="text_12">
      <!-- 0.2 -->
      <g transform="translate(20.878125 318.051911) scale(0.08 -0.08)">
       <use xlink:href="#DejaVuSans-30"/>
       <use xlink:href="#DejaVuSans-2e" x="63.623047"/>
       <use xlink:href="#DejaVuSans-32" x="95.410156"/>
      </g>
     </g>
    </g>
    <g id="ytick_3">
     <g id="line2d_3">
      <path d="M 40.600625 276.801171 
L 993.140625 276.801171 
" clip-path="url(#pd9f58356f8)" style="fill: none; stroke: #dedede; stroke-linecap: square"/>
     </g>
     <g id="text_13">
      <!-- 0.4 -->
      <g transform="translate(20.878125 279.840546) scale(0.08 -0.08)">
       <use xlink:href="#DejaVuSans-30"/>
       <use xlink:href="#DejaVuSans-2e" x="63.623047"/>
       <use xlink:href="#DejaVuSans-34" x="95.410156"/>
      </g>
     </g>
    </g>
    <g id="ytick_4">
     <g id="line2d_4">
      <path d="M 40.600625 238.589807 
L 993.140625 238.589807 
" clip-path="url(#pd9f58356f8)" style="fill: none; stroke: #dedede; stroke-linecap: square"/>
     </g>
     <g id="text_14">
      <!-- 0.6 -->
      <g transform="translate(20.878125 241.629182) scale(0.08 -0.08)">
       <defs>
        <path id="DejaVuSans-36" d="M 2113 2584 
Q 1688 2584 1439 2293 
Q 1191 2003 1191 1497 
Q 1191 994 1439 701 
Q 1688 409 2113 409 
Q 2538 409 2786 701 
Q 3034 994 3034 1497 
Q 3034 2003 2786 2293 
Q 2538 2584 2113 2584 
z
M 3366 4563 
L 3366 3988 
Q 3128 4100 2886 4159 
Q 2644 4219 2406 4219 
Q 1781 4219 1451 3797 
Q 1122 3375 1075 2522 
Q 1259 2794 1537 2939 
Q 1816 3084 2150 3084 
Q 2853 3084 3261 2657 
Q 3669 2231 3669 1497 
Q 3669 778 3244 343 
Q 2819 -91 2113 -91 
Q 1303 -91 875 529 
Q 447 1150 447 2328 
Q 447 3434 972 4092 
Q 1497 4750 2381 4750 
Q 2619 4750 2861 4703 
Q 3103 4656 3366 4563 
z
" transform="scale(0.015625)"/>
       </defs>
       <use xlink:href="#DejaVuSans-30"/>
       <use xlink:href="#DejaVuSans-2e" x="63.623047"/>
       <use xlink:href="#DejaVuSans-36" x="95.410156"/>
      </g>
     </g>
    </g>
    <g id="ytick_5">
     <g id="line2d_5">
      <path d="M 40.600625 200.378442 
L 993.140625 200.378442 
" clip-path="url(#pd9f58356f8)" style="fill: none; stroke: #dedede; stroke-linecap: square"/>
     </g>
     <g id="text_15">
      <!-- 0.8 -->
      <g transform="translate(20.878125 203.417817) scale(0.08 -0.08)">
       <defs>
        <path id="DejaVuSans-38" d="M 2034 2216 
Q 1584 2216 1326 1975 
Q 1069 1734 1069 1313 
Q 1069 891 1326 650 
Q 1584 409 2034 409 
Q 2484 409 2743 651 
Q 3003 894 3003 1313 
Q 3003 1734 2745 1975 
Q 2488 2216 2034 2216 
z
M 1403 2484 
Q 997 2584 770 2862 
Q 544 3141 544 3541 
Q 544 4100 942 4425 
Q 1341 4750 2034 4750 
Q 2731 4750 3128 4425 
Q 3525 4100 3525 3541 
Q 3525 3141 3298 2862 
Q 3072 2584 2669 2484 
Q 3125 2378 3379 2068 
Q 3634 1759 3634 1313 
Q 3634 634 3220 271 
Q 2806 -91 2034 -91 
Q 1263 -91 848 271 
Q 434 634 434 1313 
Q 434 1759 690 2068 
Q 947 2378 1403 2484 
z
M 1172 3481 
Q 1172 3119 1398 2916 
Q 1625 2713 2034 2713 
Q 2441 2713 2670 2916 
Q 2900 3119 2900 3481 
Q 2900 3844 2670 4047 
Q 2441 4250 2034 4250 
Q 1625 4250 1398 4047 
Q 1172 3844 1172 3481 
z
" transform="scale(0.015625)"/>
       </defs>
       <use xlink:href="#DejaVuSans-30"/>
       <use xlink:href="#DejaVuSans-2e" x="63.623047"/>
       <use xlink:href="#DejaVuSans-38" x="95.410156"/>
      </g>
     </g>
    </g>
    <g id="ytick_6">
     <g id="line2d_6">
      <path d="M 40.600625 162.167078 
L 993.140625 162.167078 
" clip-path="url(#pd9f58356f8)" style="fill: none; stroke: #dedede; stroke-linecap: square"/>
     </g>
     <g id="text_16">
      <!-- 1.0 -->
      <g transform="translate(20.878125 165.206453) scale(0.08 -0.08)">
       <use xlink:href="#DejaVuSans-31"/>
       <use xlink:href="#DejaVuSans-2e" x="63.623047"/>
       <use xlink:href="#DejaVuSans-30" x="95.410156"/>
      </g>
     </g>
    </g>
    <g id="ytick_7">
     <g id="line2d_7">
      <path d="M 40.600625 123.955714 
L 993.140625 123.955714 
" clip-path="url(#pd9f58356f8)" style="fill: none; stroke: #dedede; stroke-linecap: square"/>
     </g>
     <g id="text_17">
      <!-- 1.2 -->
      <g transform="translate(20.878125 126.995089) scale(0.08 -0.08)">
       <use xlink:href="#DejaVuSans-31"/>
       <use xlink:href="#DejaVuSans-2e" x="63.623047"/>
       <use xlink:href="#DejaVuSans-32" x="95.410156"/>
      </g>
     </g>
    </g>
    <g id="ytick_8">
     <g id="line2d_8">
      <path d="M 40.600625 85.744349 
L 993.140625 85.744349 
" clip-path="url(#pd9f58356f8)" style="fill: none; stroke: #dedede; stroke-linecap: square"/>
     </g>
     <g id="text_18">
      <!-- 1.4 -->
      <g transform="translate(20.878125 88.783724) scale(0.08 -0.08)">
       <use xlink:href="#DejaVuSans-31"/>
       <use xlink:href="#DejaVuSans-2e" x="63.623047"/>
       <use xlink:href="#DejaVuSans-34" x="95.410156"/>
      </g>
     </g>
    </g>
    <g id="ytick_9">
     <g id="line2d_9">
      <path d="M 40.600625 47.532985 
L 993.140625 47.532985 
" clip-path="url(#pd9f58356f8)" style="fill: none; stroke: #dedede; stroke-linecap: square"/>
     </g>
     <g id="text_19">
      <!-- 1.6 -->
      <g transform="translate(20.878125 50.57236) scale(0.08 -0.08)">
       <use xlink:href="#DejaVuSans-31"/>
       <use xlink:href="#DejaVuSans-2e" x="63.623047"/>
       <use xlink:href="#DejaVuSans-36" x="95.410156"/>
      </g>
     </g>
    </g>
    <g id="text_20">
     <!-- Count -->
     <g transform="translate(14.798438 209.088338) rotate(-90) scale(0.1 -0.1)">
      <defs>
       <path id="DejaVuSans-43" d="M 4122 4306 
L 4122 3641 
Q 3803 3938 3442 4084 
Q 3081 4231 2675 4231 
Q 1875 4231 1450 3742 
Q 1025 3253 1025 2328 
Q 1025 1406 1450 917 
Q 1875 428 2675 428 
Q 3081 428 3442 575 
Q 3803 722 4122 1019 
L 4122 359 
Q 3791 134 3420 21 
Q 3050 -91 2638 -91 
Q 1578 -91 968 557 
Q 359 1206 359 2328 
Q 359 3453 968 4101 
Q 1578 4750 2638 4750 
Q 3056 4750 3426 4639 
Q 3797 4528 4122 4306 
z
" transform="scale(0.015625)"/>
      </defs>
      <use xlink:href="#DejaVuSans-43"/>
      <use xlink:href="#DejaVuSans-6f" x="69.824219"/>
      <use xlink:href="#DejaVuSans-75" x="131.005859"/>
      <use xlink:href="#DejaVuSans-6e" x="194.384766"/>
      <use xlink:href="#DejaVuSans-74" x="257.763672"/>
     </g>
    </g>
    <g id="text_21">
     <!-- 1e7 -->
     <g transform="translate(40.600625 32.2559) scale(0.1 -0.1)">
      <defs>
       <path id="DejaVuSans-37" d="M 525 4666 
L 3525 4666 
L 3525 4397 
L 1831 0 
L 1172 0 
L 2766 4134 
L 525 4134 
L 525 4666 
z
" transform="scale(0.015625)"/>
      </defs>
      <use xlink:href="#DejaVuSans-31"/>
      <use xlink:href="#DejaVuSans-65" x="63.623047"/>
      <use xlink:href="#DejaVuSans-37" x="125.146484"/>
     </g>
    </g>
   </g>
   <g id="line2d_10">
    <path d="M 385.307501 353.223862 
L 408.287959 353.223728 
L 431.268418 353.222907 
L 454.248876 353.22092 
L 477.229334 353.215302 
L 500.209793 353.203285 
L 523.190251 353.182861 
L 546.170709 353.14079 
L 569.151168 353.061865 
L 592.131626 352.943008 
L 615.112085 352.712899 
L 638.092543 352.423391 
L 661.073001 352.126642 
L 684.05346 351.684536 
L 707.033918 351.101966 
L 730.014377 350.38256 
L 752.994835 349.491032 
L 775.975293 348.355008 
L 798.955752 346.881138 
L 821.93621 345.012354 
L 844.916668 342.335686 
L 867.897127 338.28595 
L 890.877585 331.397225 
L 913.858044 317.406363 
L 936.838502 276.577635 
L 959.81896 108.131681 
" clip-path="url(#pd9f58356f8)" style="fill: none; stroke: #5cb85c; stroke-linecap: square"/>
   </g>
   <g id="line2d_11">
    <path d="M 293.385667 353.223881 
L 316.366126 353.222601 
L 339.346584 353.208463 
L 362.327042 353.137829 
L 385.307501 353.01989 
L 408.287959 352.89576 
L 431.268418 352.784125 
L 454.248876 352.678242 
L 477.229334 352.534338 
L 500.209793 352.045481 
L 523.190251 351.411478 
L 546.170709 350.841975 
L 569.151168 350.312595 
L 592.131626 349.751156 
L 615.112085 349.134329 
L 638.092543 348.461599 
L 661.073001 347.772877 
L 684.05346 346.935609 
L 707.033918 345.943794 
L 730.014377 344.775635 
L 752.994835 343.359216 
L 775.975293 341.583534 
L 798.955752 339.362785 
L 821.93621 336.432279 
L 844.916668 332.378359 
L 867.897127 326.530912 
L 890.877585 317.394021 
L 913.858044 301.600404 
L 936.838502 269.993645 
L 959.81896 236.113386 
" clip-path="url(#pd9f58356f8)" style="fill: none; stroke: #5cb85c; stroke-linecap: square"/>
   </g>
   <g id="line2d_12">
    <path d="M 385.307501 353.223785 
L 408.287959 353.22327 
L 431.268418 353.222238 
L 454.248876 353.219983 
L 477.229334 353.214347 
L 500.209793 353.200037 
L 523.190251 353.169888 
L 546.170709 353.111673 
L 569.151168 352.999446 
L 592.131626 352.789208 
L 615.112085 351.986712 
L 638.092543 351.553662 
L 661.073001 351.827962 
L 684.05346 351.411134 
L 707.033918 350.775087 
L 730.014377 349.96063 
L 752.994835 348.961346 
L 775.975293 347.69739 
L 798.955752 346.075127 
L 821.93621 343.906021 
L 844.916668 340.887743 
L 867.897127 336.272288 
L 890.877585 328.499982 
L 913.858044 312.637642 
L 936.838502 266.287295 
L 959.81896 109.00739 
" clip-path="url(#pd9f58356f8)" style="fill: none; stroke: #5cb85c; stroke-linecap: square"/>
   </g>
   <g id="line2d_13">
    <path d="M 293.385667 353.223843 
L 316.366126 353.22241 
L 339.346584 353.206972 
L 362.327042 353.124837 
L 385.307501 352.965954 
L 408.287959 352.742208 
L 431.268418 352.519168 
L 454.248876 352.311776 
L 477.229334 352.058797 
L 500.209793 351.212798 
L 523.190251 349.960841 
L 546.170709 348.835248 
L 569.151168 347.774616 
L 592.131626 346.702825 
L 615.112085 345.38524 
L 638.092543 344.246713 
L 661.073001 343.831184 
L 684.05346 342.726455 
L 707.033918 341.509939 
L 730.014377 340.143978 
L 752.994835 338.58996 
L 775.975293 336.719991 
L 798.955752 334.522838 
L 821.93621 331.64493 
L 844.916668 328.003673 
L 867.897127 322.937152 
L 890.877585 315.581083 
L 913.858044 303.647998 
L 936.838502 279.913124 
L 959.81896 262.750337 
" clip-path="url(#pd9f58356f8)" style="fill: none; stroke: #5cb85c; stroke-linecap: square"/>
   </g>
   <g id="line2d_14">
    <path d="M 362.327042 353.223881 
L 385.307501 353.223747 
L 408.287959 353.223174 
L 431.268418 353.221722 
L 454.248876 353.217175 
L 477.229334 353.209609 
L 500.209793 353.193178 
L 523.190251 353.160259 
L 546.170709 353.098433 
L 569.151168 352.999561 
L 592.131626 352.846964 
L 615.112085 352.517792 
L 638.092543 352.223278 
L 661.073001 351.948099 
L 684.05346 351.496383 
L 707.033918 350.87264 
L 730.014377 350.099433 
L 752.994835 349.1093 
L 775.975293 347.877729 
L 798.955752 346.338098 
L 821.93621 344.278467 
L 844.916668 341.424555 
L 867.897127 337.142227 
L 890.877585 329.913611 
L 913.858044 314.87423 
L 936.838502 268.334909 
L 959.81896 50.397232 
" clip-path="url(#pd9f58356f8)" style="fill: none; stroke: #5cb85c; stroke-linecap: square"/>
   </g>
   <g id="line2d_15">
    <path d="M 316.366126 353.223461 
L 339.346584 353.21792 
L 362.327042 353.182402 
L 385.307501 353.092376 
L 408.287959 352.95707 
L 431.268418 352.823368 
L 454.248876 352.700462 
L 477.229334 352.55287 
L 500.209793 352.077272 
L 523.190251 351.409873 
L 546.170709 350.784104 
L 569.151168 350.098917 
L 592.131626 349.368832 
L 615.112085 348.5624 
L 638.092543 347.726947 
L 661.073001 346.887959 
L 684.05346 345.870983 
L 707.033918 344.647703 
L 730.014377 343.188411 
L 752.994835 341.431109 
L 775.975293 339.324287 
L 798.955752 336.547486 
L 821.93621 332.819337 
L 844.916668 327.745365 
L 867.897127 320.318394 
L 890.877585 308.660775 
L 913.858044 288.760526 
L 936.838502 248.630454 
L 959.81896 231.302422 
" clip-path="url(#pd9f58356f8)" style="fill: none; stroke: #5cb85c; stroke-linecap: square"/>
   </g>
   <g id="line2d_16">
    <path d="M 408.287959 353.223633 
L 431.268418 353.222715 
L 454.248876 353.22113 
L 477.229334 353.216525 
L 500.209793 353.206132 
L 523.190251 353.177722 
L 546.170709 353.122353 
L 569.151168 353.02138 
L 592.131626 352.858523 
L 615.112085 352.59175 
L 638.092543 352.224577 
L 661.073001 351.790802 
L 684.05346 351.173058 
L 707.033918 350.421555 
L 730.014377 349.460195 
L 752.994835 348.332673 
L 775.975293 346.963847 
L 798.955752 345.224733 
L 821.93621 342.965639 
L 844.916668 339.774207 
L 867.897127 335.003957 
L 890.877585 326.867822 
L 913.858044 310.534183 
L 936.838502 263.414641 
L 959.81896 83.927495 
" clip-path="url(#pd9f58356f8)" style="fill: none; stroke: #5cb85c; stroke-linecap: square"/>
   </g>
   <g id="line2d_17">
    <path d="M 316.366126 353.223575 
L 339.346584 353.219181 
L 362.327042 353.195719 
L 385.307501 353.131142 
L 408.287959 353.023118 
L 431.268418 352.874514 
L 454.248876 352.69429 
L 477.229334 352.454954 
L 500.209793 351.864301 
L 523.190251 350.967634 
L 546.170709 349.98776 
L 569.151168 348.997475 
L 592.131626 347.959635 
L 615.112085 346.911574 
L 638.092543 345.775588 
L 661.073001 344.573229 
L 684.05346 343.286538 
L 707.033918 341.886913 
L 730.014377 340.227527 
L 752.994835 338.378097 
L 775.975293 336.160176 
L 798.955752 333.446424 
L 821.93621 329.99844 
L 844.916668 325.644427 
L 867.897127 319.653459 
L 890.877585 311.188132 
L 913.858044 297.403956 
L 936.838502 270.178511 
L 959.81896 243.530555 
" clip-path="url(#pd9f58356f8)" style="fill: none; stroke: #5cb85c; stroke-linecap: square"/>
   </g>
   <g id="line2d_18">
    <path d="M 385.307501 353.223575 
L 408.287959 353.223155 
L 431.268418 353.220633 
L 454.248876 353.217175 
L 477.229334 353.208252 
L 500.209793 353.191325 
L 523.190251 353.16087 
L 546.170709 353.097936 
L 569.151168 352.986894 
L 592.131626 352.799047 
L 615.112085 352.066994 
L 638.092543 351.684976 
L 661.073001 351.928477 
L 684.05346 351.598752 
L 707.033918 351.095412 
L 730.014377 350.426656 
L 752.994835 349.585872 
L 775.975293 348.528679 
L 798.955752 347.120838 
L 821.93621 345.267052 
L 844.916668 342.662718 
L 867.897127 338.730807 
L 890.877585 331.99122 
L 913.858044 318.186085 
L 936.838502 277.056786 
L 959.81896 107.560173 
" clip-path="url(#pd9f58356f8)" style="fill: none; stroke: #5cb85c; stroke-linecap: square"/>
   </g>
   <g id="line2d_19">
    <path d="M 316.366126 353.223499 
L 339.346584 353.217404 
L 362.327042 353.182976 
L 385.307501 353.10277 
L 408.287959 352.984124 
L 431.268418 352.849753 
L 454.248876 352.693507 
L 477.229334 352.485007 
L 500.209793 351.951825 
L 523.190251 351.183107 
L 546.170709 350.386057 
L 569.151168 349.552915 
L 592.131626 348.663679 
L 615.112085 347.526605 
L 638.092543 346.589223 
L 661.073001 346.233819 
L 684.05346 345.246896 
L 707.033918 344.1406 
L 730.014377 342.829855 
L 752.994835 341.236976 
L 775.975293 339.387852 
L 798.955752 337.024918 
L 821.93621 334.027791 
L 844.916668 330.071271 
L 867.897127 324.547876 
L 890.877585 316.305131 
L 913.858044 302.716482 
L 936.838502 276.242731 
L 959.81896 256.887414 
" clip-path="url(#pd9f58356f8)" style="fill: none; stroke: #5cb85c; stroke-linecap: square"/>
   </g>
   <g id="line2d_20">
    <path d="M 385.307501 353.223862 
L 408.287959 353.223537 
L 431.268418 353.222715 
L 454.248876 353.22027 
L 477.229334 353.216411 
L 500.209793 353.205444 
L 523.190251 353.183224 
L 546.170709 353.139033 
L 569.151168 353.065667 
L 592.131626 352.945817 
L 615.112085 352.743335 
L 638.092543 352.473295 
L 661.073001 352.105148 
L 684.05346 351.617093 
L 707.033918 350.999062 
L 730.014377 350.207743 
L 752.994835 349.230297 
L 775.975293 347.996089 
L 798.955752 346.394478 
L 821.93621 344.309857 
L 844.916668 341.368327 
L 867.897127 336.918308 
L 890.877585 329.361132 
L 913.858044 314.170873 
L 936.838502 271.978725 
L 959.81896 117.492013 
" clip-path="url(#pd9f58356f8)" style="fill: none; stroke: #5cb85c; stroke-linecap: square"/>
   </g>
   <g id="line2d_21">
    <path d="M 316.366126 353.222926 
L 339.346584 353.212016 
L 362.327042 353.15298 
L 385.307501 353.02415 
L 408.287959 352.844079 
L 431.268418 352.617275 
L 454.248876 352.380002 
L 477.229334 352.052435 
L 500.209793 351.233317 
L 523.190251 350.054 
L 546.170709 348.9025 
L 569.151168 347.750619 
L 592.131626 346.691877 
L 615.112085 345.571367 
L 638.092543 344.430663 
L 661.073001 343.322132 
L 684.05346 342.078275 
L 707.033918 340.673951 
L 730.014377 339.107323 
L 752.994835 337.273426 
L 775.975293 335.113719 
L 798.955752 332.493241 
L 821.93621 329.172024 
L 844.916668 325.037249 
L 867.897127 319.536398 
L 890.877585 312.316208 
L 913.858044 302.637823 
L 936.838502 289.329359 
L 959.81896 295.452119 
" clip-path="url(#pd9f58356f8)" style="fill: none; stroke: #5cb85c; stroke-linecap: square"/>
   </g>
   <g id="line2d_22">
    <path d="M 385.307501 353.223785 
L 408.287959 353.223117 
L 431.268418 353.221302 
L 454.248876 353.21855 
L 477.229334 353.211844 
L 500.209793 353.199808 
L 523.190251 353.176059 
L 546.170709 353.128009 
L 569.151168 353.047994 
L 592.131626 352.926979 
L 615.112085 352.618422 
L 638.092543 352.352394 
L 661.073001 352.18436 
L 684.05346 351.779759 
L 707.033918 351.260027 
L 730.014377 350.599868 
L 752.994835 349.799799 
L 775.975293 348.75915 
L 798.955752 347.438164 
L 821.93621 345.680289 
L 844.916668 343.224483 
L 867.897127 339.54555 
L 890.877585 333.230797 
L 913.858044 320.491587 
L 936.838502 284.423097 
L 959.81896 147.90931 
" clip-path="url(#pd9f58356f8)" style="fill: none; stroke: #5cb85c; stroke-linecap: square"/>
   </g>
   <g id="line2d_23">
    <path d="M 293.385667 353.223862 
L 316.366126 353.223136 
L 339.346584 353.214309 
L 362.327042 353.17134 
L 385.307501 353.096675 
L 408.287959 353.001185 
L 431.268418 352.894747 
L 454.248876 352.77377 
L 477.229334 352.598724 
L 500.209793 352.128457 
L 523.190251 351.489104 
L 546.170709 350.803038 
L 569.151168 350.100388 
L 592.131626 349.385358 
L 615.112085 348.559592 
L 638.092543 347.721158 
L 661.073001 347.034939 
L 684.05346 346.093182 
L 707.033918 344.990803 
L 730.014377 343.720294 
L 752.994835 342.231484 
L 775.975293 340.422883 
L 798.955752 338.154542 
L 821.93621 335.315189 
L 844.916668 331.534079 
L 867.897127 326.365438 
L 890.877585 318.814834 
L 913.858044 307.298979 
L 936.838502 287.926639 
L 959.81896 278.481975 
" clip-path="url(#pd9f58356f8)" style="fill: none; stroke: #5cb85c; stroke-linecap: square"/>
   </g>
   <g id="line2d_24">
    <path d="M 362.327042 353.223881 
L 385.307501 353.223613 
L 408.287959 353.22304 
L 431.268418 353.220518 
L 454.248876 353.215685 
L 477.229334 353.206495 
L 500.209793 353.190274 
L 523.190251 353.164328 
L 546.170709 353.116717 
L 569.151168 353.038479 
L 592.131626 352.921705 
L 615.112085 352.72614 
L 638.092543 352.482561 
L 661.073001 352.210649 
L 684.05346 351.810481 
L 707.033918 351.301658 
L 730.014377 350.649065 
L 752.994835 349.842194 
L 775.975293 348.813449 
L 798.955752 347.505455 
L 821.93621 345.751878 
L 844.916668 343.32922 
L 867.897127 339.632099 
L 890.877585 333.347361 
L 913.858044 320.545427 
L 936.838502 282.032001 
L 959.81896 95.217501 
" clip-path="url(#pd9f58356f8)" style="fill: none; stroke: #5cb85c; stroke-linecap: square"/>
   </g>
   <g id="line2d_25">
    <path d="M 316.366126 353.22348 
L 339.346584 353.216239 
L 362.327042 353.182039 
L 385.307501 353.115494 
L 408.287959 353.017883 
L 431.268418 352.886169 
L 454.248876 352.733381 
L 477.229334 352.521843 
L 500.209793 352.013268 
L 523.190251 351.296366 
L 546.170709 350.527228 
L 569.151168 349.719956 
L 592.131626 348.883089 
L 615.112085 348.020238 
L 638.092543 347.123016 
L 661.073001 346.224572 
L 684.05346 345.205016 
L 707.033918 344.05067 
L 730.014377 342.747987 
L 752.994835 341.12687 
L 775.975293 339.200501 
L 798.955752 336.799968 
L 821.93621 333.694416 
L 844.916668 329.595865 
L 867.897127 323.81074 
L 890.877585 315.326308 
L 913.858044 301.618421 
L 936.838502 275.538916 
L 959.81896 261.969736 
" clip-path="url(#pd9f58356f8)" style="fill: none; stroke: #5cb85c; stroke-linecap: square"/>
   </g>
   <g id="line2d_26">
    <path d="M 362.327042 353.223862 
L 385.307501 353.223613 
L 408.287959 353.222907 
L 431.268418 353.220442 
L 454.248876 353.215379 
L 477.229334 353.206495 
L 500.209793 353.188039 
L 523.190251 353.142242 
L 546.170709 353.053057 
L 569.151168 352.888977 
L 592.131626 352.562882 
L 615.112085 350.865628 
L 638.092543 350.183403 
L 661.073001 351.492868 
L 684.05346 351.293366 
L 707.033918 350.767196 
L 730.014377 350.076525 
L 752.994835 349.20586 
L 775.975293 348.120123 
L 798.955752 346.702557 
L 821.93621 344.774259 
L 844.916668 342.048375 
L 867.897127 337.825866 
L 890.877585 330.573674 
L 913.858044 315.28227 
L 936.838502 267.189829 
L 959.81896 57.740272 
" clip-path="url(#pd9f58356f8)" style="fill: none; stroke: #5cb85c; stroke-linecap: square"/>
   </g>
   <g id="line2d_27">
    <path d="M 316.366126 353.222811 
L 339.346584 353.206762 
L 362.327042 353.141841 
L 385.307501 353.028564 
L 408.287959 352.908828 
L 431.268418 352.782272 
L 454.248876 352.64687 
L 477.229334 352.448496 
L 500.209793 351.883044 
L 523.190251 351.072677 
L 546.170709 350.279963 
L 569.151168 349.429282 
L 592.131626 348.437927 
L 615.112085 346.805938 
L 638.092543 345.879026 
L 661.073001 346.409209 
L 684.05346 345.385183 
L 707.033918 344.221608 
L 730.014377 342.810424 
L 752.994835 341.172284 
L 775.975293 339.111278 
L 798.955752 336.540857 
L 821.93621 333.148566 
L 844.916668 328.50621 
L 867.897127 321.634852 
L 890.877585 310.977473 
L 913.858044 292.270221 
L 936.838502 253.550683 
L 959.81896 231.824619 
" clip-path="url(#pd9f58356f8)" style="fill: none; stroke: #5cb85c; stroke-linecap: square"/>
   </g>
   <g id="line2d_28">
    <path d="M 385.307501 353.223862 
L 408.287959 353.22348 
L 431.268418 353.222467 
L 454.248876 353.220098 
L 477.229334 353.214022 
L 500.209793 353.202693 
L 523.190251 353.180033 
L 546.170709 353.136128 
L 569.151168 353.055159 
L 592.131626 352.930857 
L 615.112085 352.725834 
L 638.092543 352.43537 
L 661.073001 352.068102 
L 684.05346 351.567036 
L 707.033918 350.933568 
L 730.014377 350.11787 
L 752.994835 349.098104 
L 775.975293 347.811012 
L 798.955752 346.159937 
L 821.93621 343.985558 
L 844.916668 340.918217 
L 867.897127 336.220626 
L 890.877585 328.353384 
L 913.858044 312.362043 
L 936.838502 267.13255 
L 959.81896 97.608252 
" clip-path="url(#pd9f58356f8)" style="fill: none; stroke: #5cb85c; stroke-linecap: square"/>
   </g>
   <g id="line2d_29">
    <path d="M 293.385667 353.223881 
L 316.366126 353.223403 
L 339.346584 353.215169 
L 362.327042 353.176862 
L 385.307501 353.083129 
L 408.287959 352.932557 
L 431.268418 352.727534 
L 454.248876 352.473467 
L 477.229334 352.139003 
L 500.209793 351.362739 
L 523.190251 350.193739 
L 546.170709 348.95292 
L 569.151168 347.72154 
L 592.131626 346.49721 
L 615.112085 345.303639 
L 638.092543 344.080685 
L 661.073001 342.850489 
L 684.05346 341.524899 
L 707.033918 340.023631 
L 730.014377 338.398445 
L 752.994835 336.460116 
L 775.975293 334.184897 
L 798.955752 331.469444 
L 821.93621 328.08451 
L 844.916668 323.803194 
L 867.897127 318.177831 
L 890.877585 310.382885 
L 913.858044 299.445608 
L 936.838502 282.392277 
L 959.81896 286.496159 
" clip-path="url(#pd9f58356f8)" style="fill: none; stroke: #5cb85c; stroke-linecap: square"/>
   </g>
   <g id="line2d_30">
    <path d="M 362.327042 353.223881 
L 385.307501 353.22369 
L 408.287959 353.223403 
L 431.268418 353.221569 
L 454.248876 353.218092 
L 477.229334 353.21129 
L 500.209793 353.196369 
L 523.190251 353.168646 
L 546.170709 353.109744 
L 569.151168 353.009381 
L 592.131626 352.84962 
L 615.112085 352.451878 
L 638.092543 352.048557 
L 661.073001 351.825135 
L 684.05346 351.285476 
L 707.033918 350.581661 
L 730.014377 349.697641 
L 752.994835 348.572908 
L 775.975293 347.185606 
L 798.955752 345.429393 
L 821.93621 343.063651 
L 844.916668 339.754451 
L 867.897127 334.731357 
L 890.877585 326.194786 
L 913.858044 308.889241 
L 936.838502 259.676691 
L 959.81896 74.234666 
" clip-path="url(#pd9f58356f8)" style="fill: none; stroke: #5cb85c; stroke-linecap: square"/>
   </g>
   <g id="line2d_31">
    <path d="M 316.366126 353.223136 
L 339.346584 353.215551 
L 362.327042 353.177569 
L 385.307501 353.09742 
L 408.287959 352.990601 
L 431.268418 352.854492 
L 454.248876 352.691673 
L 477.229334 352.45545 
L 500.209793 351.907614 
L 523.190251 351.073861 
L 546.170709 350.180709 
L 569.151168 349.230545 
L 592.131626 348.233973 
L 615.112085 347.114361 
L 638.092543 345.959557 
L 661.073001 344.975347 
L 684.05346 343.651819 
L 707.033918 342.175409 
L 730.014377 340.396001 
L 752.994835 338.355094 
L 775.975293 335.852307 
L 798.955752 332.75774 
L 821.93621 328.769353 
L 844.916668 323.569952 
L 867.897127 316.502932 
L 890.877585 306.279882 
L 913.858044 290.634277 
L 936.838502 264.286453 
L 959.81896 251.113505 
" clip-path="url(#pd9f58356f8)" style="fill: none; stroke: #5cb85c; stroke-linecap: square"/>
   </g>
   <g id="line2d_32">
    <path d="M 362.327042 353.223881 
L 385.307501 353.223671 
L 408.287959 353.222754 
L 431.268418 353.2209 
L 454.248876 353.215952 
L 477.229334 353.20915 
L 500.209793 353.193942 
L 523.190251 353.165532 
L 546.170709 353.109591 
L 569.151168 353.011579 
L 592.131626 352.863089 
L 615.112085 352.581643 
L 638.092543 352.264298 
L 661.073001 351.999551 
L 684.05346 351.515623 
L 707.033918 350.903477 
L 730.014377 350.11659 
L 752.994835 349.129361 
L 775.975293 347.907897 
L 798.955752 346.325564 
L 821.93621 344.235918 
L 844.916668 341.260973 
L 867.897127 336.862673 
L 890.877585 329.326608 
L 913.858044 314.097832 
L 936.838502 269.784743 
L 959.81896 91.118281 
" clip-path="url(#pd9f58356f8)" style="fill: none; stroke: #5cb85c; stroke-linecap: square"/>
   </g>
   <g id="line2d_33">
    <path d="M 316.366126 353.223136 
L 339.346584 353.209838 
L 362.327042 353.152082 
L 385.307501 353.037696 
L 408.287959 352.870388 
L 431.268418 352.666186 
L 454.248876 352.424232 
L 477.229334 352.090016 
L 500.209793 351.288685 
L 523.190251 350.094752 
L 546.170709 348.887999 
L 569.151168 347.658568 
L 592.131626 346.444688 
L 615.112085 345.253506 
L 638.092543 344.087907 
L 661.073001 342.950756 
L 684.05346 341.670904 
L 707.033918 340.267305 
L 730.014377 338.742576 
L 752.994835 336.941445 
L 775.975293 334.846335 
L 798.955752 332.355432 
L 821.93621 329.166942 
L 844.916668 325.193533 
L 867.897127 319.906341 
L 890.877585 312.477632 
L 913.858044 301.287396 
L 936.838502 281.551398 
L 959.81896 276.791198 
" clip-path="url(#pd9f58356f8)" style="fill: none; stroke: #5cb85c; stroke-linecap: square"/>
   </g>
   <g id="line2d_34">
    <path d="M 385.307501 353.223709 
L 408.287959 353.222887 
L 431.268418 353.220346 
L 454.248876 353.215054 
L 477.229334 353.203629 
L 500.209793 353.180301 
L 523.190251 353.134294 
L 546.170709 353.050898 
L 569.151168 352.92247 
L 592.131626 352.715555 
L 615.112085 352.107498 
L 638.092543 351.750986 
L 661.073001 351.852513 
L 684.05346 351.483697 
L 707.033918 350.919736 
L 730.014377 350.250559 
L 752.994835 349.367724 
L 775.975293 348.280095 
L 798.955752 346.940156 
L 821.93621 345.134248 
L 844.916668 342.579016 
L 867.897127 338.719076 
L 890.877585 332.267126 
L 913.858044 318.575229 
L 936.838502 273.587844 
L 959.81896 50.872544 
" clip-path="url(#pd9f58356f8)" style="fill: none; stroke: #5cb85c; stroke-linecap: square"/>
   </g>
   <g id="line2d_35">
    <path d="M 293.385667 353.223862 
L 316.366126 353.223021 
L 339.346584 353.212074 
L 362.327042 353.171646 
L 385.307501 353.090409 
L 408.287959 352.995606 
L 431.268418 352.891022 
L 454.248876 352.776464 
L 477.229334 352.613531 
L 500.209793 352.195078 
L 523.190251 351.559814 
L 546.170709 350.931123 
L 569.151168 350.244426 
L 592.131626 349.513061 
L 615.112085 348.559209 
L 638.092543 347.826335 
L 661.073001 347.352533 
L 684.05346 346.453228 
L 707.033918 345.392882 
L 730.014377 344.111158 
L 752.994835 342.579589 
L 775.975293 340.721466 
L 798.955752 338.286562 
L 821.93621 335.009861 
L 844.916668 330.319989 
L 867.897127 323.226642 
L 890.877585 311.715353 
L 913.858044 291.10122 
L 936.838502 246.952555 
L 959.81896 227.423071 
" clip-path="url(#pd9f58356f8)" style="fill: none; stroke: #5cb85c; stroke-linecap: square"/>
   </g>
   <g id="line2d_36">
    <path d="M 385.307501 353.223824 
L 408.287959 353.223441 
L 431.268418 353.222696 
L 454.248876 353.220251 
L 477.229334 353.215857 
L 500.209793 353.205157 
L 523.190251 353.184542 
L 546.170709 353.140886 
L 569.151168 353.072411 
L 592.131626 352.957624 
L 615.112085 352.769643 
L 638.092543 352.523084 
L 661.073001 352.207344 
L 684.05346 351.755686 
L 707.033918 351.201277 
L 730.014377 350.467733 
L 752.994835 349.593381 
L 775.975293 348.441786 
L 798.955752 347.028328 
L 821.93621 345.108093 
L 844.916668 342.407944 
L 867.897127 338.372614 
L 890.877585 331.497147 
L 913.858044 317.733395 
L 936.838502 278.750524 
L 959.81896 133.574584 
" clip-path="url(#pd9f58356f8)" style="fill: none; stroke: #5cb85c; stroke-linecap: square"/>
   </g>
   <g id="line2d_37">
    <path d="M 293.385667 353.223862 
L 316.366126 353.223346 
L 339.346584 353.215398 
L 362.327042 353.170633 
L 385.307501 353.063183 
L 408.287959 352.902122 
L 431.268418 352.736457 
L 454.248876 352.547998 
L 477.229334 352.312826 
L 500.209793 351.691605 
L 523.190251 350.823825 
L 546.170709 349.952702 
L 569.151168 349.072579 
L 592.131626 348.191559 
L 615.112085 347.256393 
L 638.092543 346.277915 
L 661.073001 345.236292 
L 684.05346 344.093562 
L 707.033918 342.823837 
L 730.014377 341.335714 
L 752.994835 339.609306 
L 775.975293 337.5299 
L 798.955752 334.935406 
L 821.93621 331.731058 
L 844.916668 327.470128 
L 867.897127 321.912285 
L 890.877585 314.326393 
L 913.858044 303.788864 
L 936.838502 288.572087 
L 959.81896 294.967618 
" clip-path="url(#pd9f58356f8)" style="fill: none; stroke: #5cb85c; stroke-linecap: square"/>
   </g>
   <g id="line2d_38">
    <path d="M 362.327042 353.223881 
L 385.307501 353.22369 
L 408.287959 353.223289 
L 431.268418 353.221798 
L 454.248876 353.218226 
L 477.229334 353.210564 
L 500.209793 353.19742 
L 523.190251 353.170557 
L 546.170709 353.114845 
L 569.151168 353.01796 
L 592.131626 352.862153 
L 615.112085 352.604647 
L 638.092543 352.275074 
L 661.073001 351.880331 
L 684.05346 351.339144 
L 707.033918 350.641232 
L 730.014377 349.79166 
L 752.994835 348.764099 
L 775.975293 347.511588 
L 798.955752 345.95201 
L 821.93621 343.846525 
L 844.916668 340.952473 
L 867.897127 336.550085 
L 890.877585 329.080069 
L 913.858044 314.144813 
L 936.838502 271.314975 
L 959.81896 107.593818 
" clip-path="url(#pd9f58356f8)" style="fill: none; stroke: #5cb85c; stroke-linecap: square"/>
   </g>
   <g id="line2d_39">
    <path d="M 316.366126 353.22327 
L 339.346584 353.21855 
L 362.327042 353.19421 
L 385.307501 353.131734 
L 408.287959 353.027092 
L 431.268418 352.889761 
L 454.248876 352.718345 
L 477.229334 352.491063 
L 500.209793 351.937228 
L 523.190251 351.100189 
L 546.170709 350.186211 
L 569.151168 349.226781 
L 592.131626 348.243182 
L 615.112085 347.200031 
L 638.092543 346.122299 
L 661.073001 345.007998 
L 684.05346 343.769682 
L 707.033918 342.390615 
L 730.014377 340.823548 
L 752.994835 339.010018 
L 775.975293 336.825799 
L 798.955752 334.243322 
L 821.93621 331.007469 
L 844.916668 326.758881 
L 867.897127 321.063152 
L 890.877585 312.843219 
L 913.858044 300.411496 
L 936.838502 278.151637 
L 959.81896 265.157939 
" clip-path="url(#pd9f58356f8)" style="fill: none; stroke: #5cb85c; stroke-linecap: square"/>
   </g>
   <g id="line2d_40">
    <path d="M 362.327042 353.223881 
L 385.307501 353.223652 
L 408.287959 353.222811 
L 431.268418 353.219888 
L 454.248876 353.215302 
L 477.229334 353.207125 
L 500.209793 353.192185 
L 523.190251 353.162953 
L 546.170709 353.114883 
L 569.151168 353.030264 
L 592.131626 352.908331 
L 615.112085 352.645724 
L 638.092543 352.368462 
L 661.073001 352.162064 
L 684.05346 351.784707 
L 707.033918 351.266637 
L 730.014377 350.604568 
L 752.994835 349.76772 
L 775.975293 348.709915 
L 798.955752 347.354921 
L 821.93621 345.560821 
L 844.916668 343.002761 
L 867.897127 339.170085 
L 890.877585 332.626427 
L 913.858044 319.227306 
L 936.838502 279.030155 
L 959.81896 93.929376 
" clip-path="url(#pd9f58356f8)" style="fill: none; stroke: #5cb85c; stroke-linecap: square"/>
   </g>
   <g id="line2d_41">
    <path d="M 293.385667 353.223881 
L 316.366126 353.223155 
L 339.346584 353.210774 
L 362.327042 353.165437 
L 385.307501 353.083301 
L 408.287959 352.974189 
L 431.268418 352.831985 
L 454.248876 352.679579 
L 477.229334 352.449394 
L 500.209793 351.911836 
L 523.190251 351.12944 
L 546.170709 350.299336 
L 569.151168 349.450891 
L 592.131626 348.5607 
L 615.112085 347.653218 
L 638.092543 346.782572 
L 661.073001 345.883879 
L 684.05346 344.855286 
L 707.033918 343.710684 
L 730.014377 342.328904 
L 752.994835 340.7357 
L 775.975293 338.841658 
L 798.955752 336.412084 
L 821.93621 333.274148 
L 844.916668 329.183354 
L 867.897127 323.377844 
L 890.877585 314.79817 
L 913.858044 300.969305 
L 936.838502 274.781739 
L 959.81896 261.822183 
" clip-path="url(#pd9f58356f8)" style="fill: none; stroke: #5cb85c; stroke-linecap: square"/>
   </g>
   <g id="line2d_42">
    <path d="M 40.600625 353.2239 
L 993.140625 353.2239 
" clip-path="url(#pd9f58356f8)" style="fill: none; stroke: #dedede; stroke-width: 2; stroke-linecap: square"/>
   </g>
   <g id="text_22">
    <!-- FastQC: Per Sequence Quality Scores -->
    <g transform="translate(368.678125 19.3575) scale(0.16 -0.16)">
     <defs>
      <path id="DejaVuSans-46" d="M 628 4666 
L 3309 4666 
L 3309 4134 
L 1259 4134 
L 1259 2759 
L 3109 2759 
L 3109 2228 
L 1259 2228 
L 1259 0 
L 628 0 
L 628 4666 
z
" transform="scale(0.015625)"/>
      <path id="DejaVuSans-73" d="M 2834 3397 
L 2834 2853 
Q 2591 2978 2328 3040 
Q 2066 3103 1784 3103 
Q 1356 3103 1142 2972 
Q 928 2841 928 2578 
Q 928 2378 1081 2264 
Q 1234 2150 1697 2047 
L 1894 2003 
Q 2506 1872 2764 1633 
Q 3022 1394 3022 966 
Q 3022 478 2636 193 
Q 2250 -91 1575 -91 
Q 1294 -91 989 -36 
Q 684 19 347 128 
L 347 722 
Q 666 556 975 473 
Q 1284 391 1588 391 
Q 1994 391 2212 530 
Q 2431 669 2431 922 
Q 2431 1156 2273 1281 
Q 2116 1406 1581 1522 
L 1381 1569 
Q 847 1681 609 1914 
Q 372 2147 372 2553 
Q 372 3047 722 3315 
Q 1072 3584 1716 3584 
Q 2034 3584 2315 3537 
Q 2597 3491 2834 3397 
z
" transform="scale(0.015625)"/>
      <path id="DejaVuSans-3a" d="M 750 794 
L 1409 794 
L 1409 0 
L 750 0 
L 750 794 
z
M 750 3309 
L 1409 3309 
L 1409 2516 
L 750 2516 
L 750 3309 
z
" transform="scale(0.015625)"/>
     </defs>
     <use xlink:href="#DejaVuSans-46"/>
     <use xlink:href="#DejaVuSans-61" x="48.394531"/>
     <use xlink:href="#DejaVuSans-73" x="109.673828"/>
     <use xlink:href="#DejaVuSans-74" x="161.773438"/>
     <use xlink:href="#DejaVuSans-51" x="200.982422"/>
     <use xlink:href="#DejaVuSans-43" x="279.693359"/>
     <use xlink:href="#DejaVuSans-3a" x="349.517578"/>
     <use xlink:href="#DejaVuSans-20" x="383.208984"/>
     <use xlink:href="#DejaVuSans-50" x="414.996094"/>
     <use xlink:href="#DejaVuSans-65" x="471.673828"/>
     <use xlink:href="#DejaVuSans-72" x="533.197266"/>
     <use xlink:href="#DejaVuSans-20" x="574.310547"/>
     <use xlink:href="#DejaVuSans-53" x="606.097656"/>
     <use xlink:href="#DejaVuSans-65" x="669.574219"/>
     <use xlink:href="#DejaVuSans-71" x="731.097656"/>
     <use xlink:href="#DejaVuSans-75" x="794.574219"/>
     <use xlink:href="#DejaVuSans-65" x="857.953125"/>
     <use xlink:href="#DejaVuSans-6e" x="919.476562"/>
     <use xlink:href="#DejaVuSans-63" x="982.855469"/>
     <use xlink:href="#DejaVuSans-65" x="1037.835938"/>
     <use xlink:href="#DejaVuSans-20" x="1099.359375"/>
     <use xlink:href="#DejaVuSans-51" x="1131.146484"/>
     <use xlink:href="#DejaVuSans-75" x="1209.857422"/>
     <use xlink:href="#DejaVuSans-61" x="1273.236328"/>
     <use xlink:href="#DejaVuSans-6c" x="1334.515625"/>
     <use xlink:href="#DejaVuSans-69" x="1362.298828"/>
     <use xlink:href="#DejaVuSans-74" x="1390.082031"/>
     <use xlink:href="#DejaVuSans-79" x="1429.291016"/>
     <use xlink:href="#DejaVuSans-20" x="1488.470703"/>
     <use xlink:href="#DejaVuSans-53" x="1520.257812"/>
     <use xlink:href="#DejaVuSans-63" x="1583.734375"/>
     <use xlink:href="#DejaVuSans-6f" x="1638.714844"/>
     <use xlink:href="#DejaVuSans-72" x="1699.896484"/>
     <use xlink:href="#DejaVuSans-65" x="1738.759766"/>
     <use xlink:href="#DejaVuSans-73" x="1800.283203"/>
    </g>
   </g>
  </g>
 </g>
 <defs>
  <clipPath id="pd9f58356f8">
   <rect x="40.600625" y="35.2559" width="952.54" height="317.968"/>
  </clipPath>
 </defs>
</svg>
