<?xml version="1.0" encoding="utf-8" standalone="no"?>
<!DOCTYPE svg PUBLIC "-//W3C//DTD SVG 1.1//EN"
  "http://www.w3.org/Graphics/SVG/1.1/DTD/svg11.dtd">
<svg xmlns:xlink="http://www.w3.org/1999/xlink" width="1000.198125pt" height="388.844525pt" viewBox="0 0 1000.198125 388.844525" xmlns="http://www.w3.org/2000/svg" version="1.1">
 <metadata>
  <rdf:RDF xmlns:dc="http://purl.org/dc/elements/1.1/" xmlns:cc="http://creativecommons.org/ns#" xmlns:rdf="http://www.w3.org/1999/02/22-rdf-syntax-ns#">
   <cc:Work>
    <dc:type rdf:resource="http://purl.org/dc/dcmitype/StillImage"/>
    <dc:date>2024-08-15T09:46:03.105343</dc:date>
    <dc:format>image/svg+xml</dc:format>
    <dc:creator>
     <cc:Agent>
      <dc:title>Matplotlib v3.8.2, https://matplotlib.org/</dc:title>
     </cc:Agent>
    </dc:creator>
   </cc:Work>
  </rdf:RDF>
 </metadata>
 <defs>
  <style type="text/css">*{stroke-linejoin: round; stroke-linecap: butt}</style>
 </defs>
 <g id="figure_1">
  <g id="axes_1">
   <g id="patch_1">
    <path d="M 53.328125 353.2239 
L 992.998125 353.2239 
L 992.998125 35.2559 
L 53.328125 35.2559 
z
" style="fill: #ffffff"/>
   </g>
   <g id="matplotlib.axis_1">
    <g id="xtick_1">
     <g id="text_1">
      <!-- −200 -->
      <g transform="translate(167.026571 366.30265) scale(0.08 -0.08)">
       <defs>
        <path id="DejaVuSans-2212" d="M 678 2272 
L 4684 2272 
L 4684 1741 
L 678 1741 
L 678 2272 
z
" transform="scale(0.015625)"/>
        <path id="DejaVuSans-32" d="M 1228 531 
L 3431 531 
L 3431 0 
L 469 0 
L 469 531 
Q 828 903 1448 1529 
Q 2069 2156 2228 2338 
Q 2531 2678 2651 2914 
Q 2772 3150 2772 3378 
Q 2772 3750 2511 3984 
Q 2250 4219 1831 4219 
Q 1534 4219 1204 4116 
Q 875 4013 500 3803 
L 500 4441 
Q 881 4594 1212 4672 
Q 1544 4750 1819 4750 
Q 2544 4750 2975 4387 
Q 3406 4025 3406 3419 
Q 3406 3131 3298 2873 
Q 3191 2616 2906 2266 
Q 2828 2175 2409 1742 
Q 1991 1309 1228 531 
z
" transform="scale(0.015625)"/>
        <path id="DejaVuSans-30" d="M 2034 4250 
Q 1547 4250 1301 3770 
Q 1056 3291 1056 2328 
Q 1056 1369 1301 889 
Q 1547 409 2034 409 
Q 2525 409 2770 889 
Q 3016 1369 3016 2328 
Q 3016 3291 2770 3770 
Q 2525 4250 2034 4250 
z
M 2034 4750 
Q 2819 4750 3233 4129 
Q 3647 3509 3647 2328 
Q 3647 1150 3233 529 
Q 2819 -91 2034 -91 
Q 1250 -91 836 529 
Q 422 1150 422 2328 
Q 422 3509 836 4129 
Q 1250 4750 2034 4750 
z
" transform="scale(0.015625)"/>
       </defs>
       <use xlink:href="#DejaVuSans-2212"/>
       <use xlink:href="#DejaVuSans-32" x="83.789062"/>
       <use xlink:href="#DejaVuSans-30" x="147.412109"/>
       <use xlink:href="#DejaVuSans-30" x="211.035156"/>
      </g>
     </g>
    </g>
    <g id="xtick_2">
     <g id="text_2">
      <!-- −100 -->
      <g transform="translate(339.601411 366.30265) scale(0.08 -0.08)">
       <defs>
        <path id="DejaVuSans-31" d="M 794 531 
L 1825 531 
L 1825 4091 
L 703 3866 
L 703 4441 
L 1819 4666 
L 2450 4666 
L 2450 531 
L 3481 531 
L 3481 0 
L 794 0 
L 794 531 
z
" transform="scale(0.015625)"/>
       </defs>
       <use xlink:href="#DejaVuSans-2212"/>
       <use xlink:href="#DejaVuSans-31" x="83.789062"/>
       <use xlink:href="#DejaVuSans-30" x="147.412109"/>
       <use xlink:href="#DejaVuSans-30" x="211.035156"/>
      </g>
     </g>
    </g>
    <g id="xtick_3">
     <g id="text_3">
      <!-- 0 -->
      <g transform="translate(520.618125 366.30265) scale(0.08 -0.08)">
       <use xlink:href="#DejaVuSans-30"/>
      </g>
     </g>
    </g>
    <g id="xtick_4">
     <g id="text_4">
      <!-- 100 -->
      <g transform="translate(688.102964 366.30265) scale(0.08 -0.08)">
       <use xlink:href="#DejaVuSans-31"/>
       <use xlink:href="#DejaVuSans-30" x="63.623047"/>
       <use xlink:href="#DejaVuSans-30" x="127.246094"/>
      </g>
     </g>
    </g>
    <g id="xtick_5">
     <g id="text_5">
      <!-- 200 -->
      <g transform="translate(860.677804 366.30265) scale(0.08 -0.08)">
       <use xlink:href="#DejaVuSans-32"/>
       <use xlink:href="#DejaVuSans-30" x="63.623047"/>
       <use xlink:href="#DejaVuSans-30" x="127.246094"/>
      </g>
     </g>
    </g>
    <g id="text_6">
     <!-- Inner Distance (bp) -->
     <g transform="translate(474.927969 379.564837) scale(0.1 -0.1)">
      <defs>
       <path id="DejaVuSans-49" d="M 628 4666 
L 1259 4666 
L 1259 0 
L 628 0 
L 628 4666 
z
" transform="scale(0.015625)"/>
       <path id="DejaVuSans-6e" d="M 3513 2113 
L 3513 0 
L 2938 0 
L 2938 2094 
Q 2938 2591 2744 2837 
Q 2550 3084 2163 3084 
Q 1697 3084 1428 2787 
Q 1159 2491 1159 1978 
L 1159 0 
L 581 0 
L 581 3500 
L 1159 3500 
L 1159 2956 
Q 1366 3272 1645 3428 
Q 1925 3584 2291 3584 
Q 2894 3584 3203 3211 
Q 3513 2838 3513 2113 
z
" transform="scale(0.015625)"/>
       <path id="DejaVuSans-65" d="M 3597 1894 
L 3597 1613 
L 953 1613 
Q 991 1019 1311 708 
Q 1631 397 2203 397 
Q 2534 397 2845 478 
Q 3156 559 3463 722 
L 3463 178 
Q 3153 47 2828 -22 
Q 2503 -91 2169 -91 
Q 1331 -91 842 396 
Q 353 884 353 1716 
Q 353 2575 817 3079 
Q 1281 3584 2069 3584 
Q 2775 3584 3186 3129 
Q 3597 2675 3597 1894 
z
M 3022 2063 
Q 3016 2534 2758 2815 
Q 2500 3097 2075 3097 
Q 1594 3097 1305 2825 
Q 1016 2553 972 2059 
L 3022 2063 
z
" transform="scale(0.015625)"/>
       <path id="DejaVuSans-72" d="M 2631 2963 
Q 2534 3019 2420 3045 
Q 2306 3072 2169 3072 
Q 1681 3072 1420 2755 
Q 1159 2438 1159 1844 
L 1159 0 
L 581 0 
L 581 3500 
L 1159 3500 
L 1159 2956 
Q 1341 3275 1631 3429 
Q 1922 3584 2338 3584 
Q 2397 3584 2469 3576 
Q 2541 3569 2628 3553 
L 2631 2963 
z
" transform="scale(0.015625)"/>
       <path id="DejaVuSans-20" transform="scale(0.015625)"/>
       <path id="DejaVuSans-44" d="M 1259 4147 
L 1259 519 
L 2022 519 
Q 2988 519 3436 956 
Q 3884 1394 3884 2338 
Q 3884 3275 3436 3711 
Q 2988 4147 2022 4147 
L 1259 4147 
z
M 628 4666 
L 1925 4666 
Q 3281 4666 3915 4102 
Q 4550 3538 4550 2338 
Q 4550 1131 3912 565 
Q 3275 0 1925 0 
L 628 0 
L 628 4666 
z
" transform="scale(0.015625)"/>
       <path id="DejaVuSans-69" d="M 603 3500 
L 1178 3500 
L 1178 0 
L 603 0 
L 603 3500 
z
M 603 4863 
L 1178 4863 
L 1178 4134 
L 603 4134 
L 603 4863 
z
" transform="scale(0.015625)"/>
       <path id="DejaVuSans-73" d="M 2834 3397 
L 2834 2853 
Q 2591 2978 2328 3040 
Q 2066 3103 1784 3103 
Q 1356 3103 1142 2972 
Q 928 2841 928 2578 
Q 928 2378 1081 2264 
Q 1234 2150 1697 2047 
L 1894 2003 
Q 2506 1872 2764 1633 
Q 3022 1394 3022 966 
Q 3022 478 2636 193 
Q 2250 -91 1575 -91 
Q 1294 -91 989 -36 
Q 684 19 347 128 
L 347 722 
Q 666 556 975 473 
Q 1284 391 1588 391 
Q 1994 391 2212 530 
Q 2431 669 2431 922 
Q 2431 1156 2273 1281 
Q 2116 1406 1581 1522 
L 1381 1569 
Q 847 1681 609 1914 
Q 372 2147 372 2553 
Q 372 3047 722 3315 
Q 1072 3584 1716 3584 
Q 2034 3584 2315 3537 
Q 2597 3491 2834 3397 
z
" transform="scale(0.015625)"/>
       <path id="DejaVuSans-74" d="M 1172 4494 
L 1172 3500 
L 2356 3500 
L 2356 3053 
L 1172 3053 
L 1172 1153 
Q 1172 725 1289 603 
Q 1406 481 1766 481 
L 2356 481 
L 2356 0 
L 1766 0 
Q 1100 0 847 248 
Q 594 497 594 1153 
L 594 3053 
L 172 3053 
L 172 3500 
L 594 3500 
L 594 4494 
L 1172 4494 
z
" transform="scale(0.015625)"/>
       <path id="DejaVuSans-61" d="M 2194 1759 
Q 1497 1759 1228 1600 
Q 959 1441 959 1056 
Q 959 750 1161 570 
Q 1363 391 1709 391 
Q 2188 391 2477 730 
Q 2766 1069 2766 1631 
L 2766 1759 
L 2194 1759 
z
M 3341 1997 
L 3341 0 
L 2766 0 
L 2766 531 
Q 2569 213 2275 61 
Q 1981 -91 1556 -91 
Q 1019 -91 701 211 
Q 384 513 384 1019 
Q 384 1609 779 1909 
Q 1175 2209 1959 2209 
L 2766 2209 
L 2766 2266 
Q 2766 2663 2505 2880 
Q 2244 3097 1772 3097 
Q 1472 3097 1187 3025 
Q 903 2953 641 2809 
L 641 3341 
Q 956 3463 1253 3523 
Q 1550 3584 1831 3584 
Q 2591 3584 2966 3190 
Q 3341 2797 3341 1997 
z
" transform="scale(0.015625)"/>
       <path id="DejaVuSans-63" d="M 3122 3366 
L 3122 2828 
Q 2878 2963 2633 3030 
Q 2388 3097 2138 3097 
Q 1578 3097 1268 2742 
Q 959 2388 959 1747 
Q 959 1106 1268 751 
Q 1578 397 2138 397 
Q 2388 397 2633 464 
Q 2878 531 3122 666 
L 3122 134 
Q 2881 22 2623 -34 
Q 2366 -91 2075 -91 
Q 1284 -91 818 406 
Q 353 903 353 1747 
Q 353 2603 823 3093 
Q 1294 3584 2113 3584 
Q 2378 3584 2631 3529 
Q 2884 3475 3122 3366 
z
" transform="scale(0.015625)"/>
       <path id="DejaVuSans-28" d="M 1984 4856 
Q 1566 4138 1362 3434 
Q 1159 2731 1159 2009 
Q 1159 1288 1364 580 
Q 1569 -128 1984 -844 
L 1484 -844 
Q 1016 -109 783 600 
Q 550 1309 550 2009 
Q 550 2706 781 3412 
Q 1013 4119 1484 4856 
L 1984 4856 
z
" transform="scale(0.015625)"/>
       <path id="DejaVuSans-62" d="M 3116 1747 
Q 3116 2381 2855 2742 
Q 2594 3103 2138 3103 
Q 1681 3103 1420 2742 
Q 1159 2381 1159 1747 
Q 1159 1113 1420 752 
Q 1681 391 2138 391 
Q 2594 391 2855 752 
Q 3116 1113 3116 1747 
z
M 1159 2969 
Q 1341 3281 1617 3432 
Q 1894 3584 2278 3584 
Q 2916 3584 3314 3078 
Q 3713 2572 3713 1747 
Q 3713 922 3314 415 
Q 2916 -91 2278 -91 
Q 1894 -91 1617 61 
Q 1341 213 1159 525 
L 1159 0 
L 581 0 
L 581 4863 
L 1159 4863 
L 1159 2969 
z
" transform="scale(0.015625)"/>
       <path id="DejaVuSans-70" d="M 1159 525 
L 1159 -1331 
L 581 -1331 
L 581 3500 
L 1159 3500 
L 1159 2969 
Q 1341 3281 1617 3432 
Q 1894 3584 2278 3584 
Q 2916 3584 3314 3078 
Q 3713 2572 3713 1747 
Q 3713 922 3314 415 
Q 2916 -91 2278 -91 
Q 1894 -91 1617 61 
Q 1341 213 1159 525 
z
M 3116 1747 
Q 3116 2381 2855 2742 
Q 2594 3103 2138 3103 
Q 1681 3103 1420 2742 
Q 1159 2381 1159 1747 
Q 1159 1113 1420 752 
Q 1681 391 2138 391 
Q 2594 391 2855 752 
Q 3116 1113 3116 1747 
z
" transform="scale(0.015625)"/>
       <path id="DejaVuSans-29" d="M 513 4856 
L 1013 4856 
Q 1481 4119 1714 3412 
Q 1947 2706 1947 2009 
Q 1947 1309 1714 600 
Q 1481 -109 1013 -844 
L 513 -844 
Q 928 -128 1133 580 
Q 1338 1288 1338 2009 
Q 1338 2731 1133 3434 
Q 928 4138 513 4856 
z
" transform="scale(0.015625)"/>
      </defs>
      <use xlink:href="#DejaVuSans-49"/>
      <use xlink:href="#DejaVuSans-6e" x="29.492188"/>
      <use xlink:href="#DejaVuSans-6e" x="92.871094"/>
      <use xlink:href="#DejaVuSans-65" x="156.25"/>
      <use xlink:href="#DejaVuSans-72" x="217.773438"/>
      <use xlink:href="#DejaVuSans-20" x="258.886719"/>
      <use xlink:href="#DejaVuSans-44" x="290.673828"/>
      <use xlink:href="#DejaVuSans-69" x="367.675781"/>
      <use xlink:href="#DejaVuSans-73" x="395.458984"/>
      <use xlink:href="#DejaVuSans-74" x="447.558594"/>
      <use xlink:href="#DejaVuSans-61" x="486.767578"/>
      <use xlink:href="#DejaVuSans-6e" x="548.046875"/>
      <use xlink:href="#DejaVuSans-63" x="611.425781"/>
      <use xlink:href="#DejaVuSans-65" x="666.40625"/>
      <use xlink:href="#DejaVuSans-20" x="727.929688"/>
      <use xlink:href="#DejaVuSans-28" x="759.716797"/>
      <use xlink:href="#DejaVuSans-62" x="798.730469"/>
      <use xlink:href="#DejaVuSans-70" x="862.207031"/>
      <use xlink:href="#DejaVuSans-29" x="925.683594"/>
     </g>
    </g>
   </g>
   <g id="matplotlib.axis_2">
    <g id="ytick_1">
     <g id="line2d_1">
      <path d="M 53.328125 338.770809 
L 992.998125 338.770809 
" clip-path="url(#p59bd3369e8)" style="fill: none; stroke: #dedede; stroke-linecap: square"/>
     </g>
     <g id="text_7">
      <!-- 0 -->
      <g transform="translate(41.238125 341.810184) scale(0.08 -0.08)">
       <use xlink:href="#DejaVuSans-30"/>
      </g>
     </g>
    </g>
    <g id="ytick_2">
     <g id="line2d_2">
      <path d="M 53.328125 297.848076 
L 992.998125 297.848076 
" clip-path="url(#p59bd3369e8)" style="fill: none; stroke: #dedede; stroke-linecap: square"/>
     </g>
     <g id="text_8">
      <!-- 10000 -->
      <g transform="translate(20.878125 300.887451) scale(0.08 -0.08)">
       <use xlink:href="#DejaVuSans-31"/>
       <use xlink:href="#DejaVuSans-30" x="63.623047"/>
       <use xlink:href="#DejaVuSans-30" x="127.246094"/>
       <use xlink:href="#DejaVuSans-30" x="190.869141"/>
       <use xlink:href="#DejaVuSans-30" x="254.492188"/>
      </g>
     </g>
    </g>
    <g id="ytick_3">
     <g id="line2d_3">
      <path d="M 53.328125 256.925343 
L 992.998125 256.925343 
" clip-path="url(#p59bd3369e8)" style="fill: none; stroke: #dedede; stroke-linecap: square"/>
     </g>
     <g id="text_9">
      <!-- 20000 -->
      <g transform="translate(20.878125 259.964718) scale(0.08 -0.08)">
       <use xlink:href="#DejaVuSans-32"/>
       <use xlink:href="#DejaVuSans-30" x="63.623047"/>
       <use xlink:href="#DejaVuSans-30" x="127.246094"/>
       <use xlink:href="#DejaVuSans-30" x="190.869141"/>
       <use xlink:href="#DejaVuSans-30" x="254.492188"/>
      </g>
     </g>
    </g>
    <g id="ytick_4">
     <g id="line2d_4">
      <path d="M 53.328125 216.00261 
L 992.998125 216.00261 
" clip-path="url(#p59bd3369e8)" style="fill: none; stroke: #dedede; stroke-linecap: square"/>
     </g>
     <g id="text_10">
      <!-- 30000 -->
      <g transform="translate(20.878125 219.041985) scale(0.08 -0.08)">
       <defs>
        <path id="DejaVuSans-33" d="M 2597 2516 
Q 3050 2419 3304 2112 
Q 3559 1806 3559 1356 
Q 3559 666 3084 287 
Q 2609 -91 1734 -91 
Q 1441 -91 1130 -33 
Q 819 25 488 141 
L 488 750 
Q 750 597 1062 519 
Q 1375 441 1716 441 
Q 2309 441 2620 675 
Q 2931 909 2931 1356 
Q 2931 1769 2642 2001 
Q 2353 2234 1838 2234 
L 1294 2234 
L 1294 2753 
L 1863 2753 
Q 2328 2753 2575 2939 
Q 2822 3125 2822 3475 
Q 2822 3834 2567 4026 
Q 2313 4219 1838 4219 
Q 1578 4219 1281 4162 
Q 984 4106 628 3988 
L 628 4550 
Q 988 4650 1302 4700 
Q 1616 4750 1894 4750 
Q 2613 4750 3031 4423 
Q 3450 4097 3450 3541 
Q 3450 3153 3228 2886 
Q 3006 2619 2597 2516 
z
" transform="scale(0.015625)"/>
       </defs>
       <use xlink:href="#DejaVuSans-33"/>
       <use xlink:href="#DejaVuSans-30" x="63.623047"/>
       <use xlink:href="#DejaVuSans-30" x="127.246094"/>
       <use xlink:href="#DejaVuSans-30" x="190.869141"/>
       <use xlink:href="#DejaVuSans-30" x="254.492188"/>
      </g>
     </g>
    </g>
    <g id="ytick_5">
     <g id="line2d_5">
      <path d="M 53.328125 175.079876 
L 992.998125 175.079876 
" clip-path="url(#p59bd3369e8)" style="fill: none; stroke: #dedede; stroke-linecap: square"/>
     </g>
     <g id="text_11">
      <!-- 40000 -->
      <g transform="translate(20.878125 178.119251) scale(0.08 -0.08)">
       <defs>
        <path id="DejaVuSans-34" d="M 2419 4116 
L 825 1625 
L 2419 1625 
L 2419 4116 
z
M 2253 4666 
L 3047 4666 
L 3047 1625 
L 3713 1625 
L 3713 1100 
L 3047 1100 
L 3047 0 
L 2419 0 
L 2419 1100 
L 313 1100 
L 313 1709 
L 2253 4666 
z
" transform="scale(0.015625)"/>
       </defs>
       <use xlink:href="#DejaVuSans-34"/>
       <use xlink:href="#DejaVuSans-30" x="63.623047"/>
       <use xlink:href="#DejaVuSans-30" x="127.246094"/>
       <use xlink:href="#DejaVuSans-30" x="190.869141"/>
       <use xlink:href="#DejaVuSans-30" x="254.492188"/>
      </g>
     </g>
    </g>
    <g id="ytick_6">
     <g id="line2d_6">
      <path d="M 53.328125 134.157143 
L 992.998125 134.157143 
" clip-path="url(#p59bd3369e8)" style="fill: none; stroke: #dedede; stroke-linecap: square"/>
     </g>
     <g id="text_12">
      <!-- 50000 -->
      <g transform="translate(20.878125 137.196518) scale(0.08 -0.08)">
       <defs>
        <path id="DejaVuSans-35" d="M 691 4666 
L 3169 4666 
L 3169 4134 
L 1269 4134 
L 1269 2991 
Q 1406 3038 1543 3061 
Q 1681 3084 1819 3084 
Q 2600 3084 3056 2656 
Q 3513 2228 3513 1497 
Q 3513 744 3044 326 
Q 2575 -91 1722 -91 
Q 1428 -91 1123 -41 
Q 819 9 494 109 
L 494 744 
Q 775 591 1075 516 
Q 1375 441 1709 441 
Q 2250 441 2565 725 
Q 2881 1009 2881 1497 
Q 2881 1984 2565 2268 
Q 2250 2553 1709 2553 
Q 1456 2553 1204 2497 
Q 953 2441 691 2322 
L 691 4666 
z
" transform="scale(0.015625)"/>
       </defs>
       <use xlink:href="#DejaVuSans-35"/>
       <use xlink:href="#DejaVuSans-30" x="63.623047"/>
       <use xlink:href="#DejaVuSans-30" x="127.246094"/>
       <use xlink:href="#DejaVuSans-30" x="190.869141"/>
       <use xlink:href="#DejaVuSans-30" x="254.492188"/>
      </g>
     </g>
    </g>
    <g id="ytick_7">
     <g id="line2d_7">
      <path d="M 53.328125 93.23441 
L 992.998125 93.23441 
" clip-path="url(#p59bd3369e8)" style="fill: none; stroke: #dedede; stroke-linecap: square"/>
     </g>
     <g id="text_13">
      <!-- 60000 -->
      <g transform="translate(20.878125 96.273785) scale(0.08 -0.08)">
       <defs>
        <path id="DejaVuSans-36" d="M 2113 2584 
Q 1688 2584 1439 2293 
Q 1191 2003 1191 1497 
Q 1191 994 1439 701 
Q 1688 409 2113 409 
Q 2538 409 2786 701 
Q 3034 994 3034 1497 
Q 3034 2003 2786 2293 
Q 2538 2584 2113 2584 
z
M 3366 4563 
L 3366 3988 
Q 3128 4100 2886 4159 
Q 2644 4219 2406 4219 
Q 1781 4219 1451 3797 
Q 1122 3375 1075 2522 
Q 1259 2794 1537 2939 
Q 1816 3084 2150 3084 
Q 2853 3084 3261 2657 
Q 3669 2231 3669 1497 
Q 3669 778 3244 343 
Q 2819 -91 2113 -91 
Q 1303 -91 875 529 
Q 447 1150 447 2328 
Q 447 3434 972 4092 
Q 1497 4750 2381 4750 
Q 2619 4750 2861 4703 
Q 3103 4656 3366 4563 
z
" transform="scale(0.015625)"/>
       </defs>
       <use xlink:href="#DejaVuSans-36"/>
       <use xlink:href="#DejaVuSans-30" x="63.623047"/>
       <use xlink:href="#DejaVuSans-30" x="127.246094"/>
       <use xlink:href="#DejaVuSans-30" x="190.869141"/>
       <use xlink:href="#DejaVuSans-30" x="254.492188"/>
      </g>
     </g>
    </g>
    <g id="ytick_8">
     <g id="line2d_8">
      <path d="M 53.328125 52.311677 
L 992.998125 52.311677 
" clip-path="url(#p59bd3369e8)" style="fill: none; stroke: #dedede; stroke-linecap: square"/>
     </g>
     <g id="text_14">
      <!-- 70000 -->
      <g transform="translate(20.878125 55.351052) scale(0.08 -0.08)">
       <defs>
        <path id="DejaVuSans-37" d="M 525 4666 
L 3525 4666 
L 3525 4397 
L 1831 0 
L 1172 0 
L 2766 4134 
L 525 4134 
L 525 4666 
z
" transform="scale(0.015625)"/>
       </defs>
       <use xlink:href="#DejaVuSans-37"/>
       <use xlink:href="#DejaVuSans-30" x="63.623047"/>
       <use xlink:href="#DejaVuSans-30" x="127.246094"/>
       <use xlink:href="#DejaVuSans-30" x="190.869141"/>
       <use xlink:href="#DejaVuSans-30" x="254.492188"/>
      </g>
     </g>
    </g>
    <g id="text_15">
     <!-- Counts -->
     <g transform="translate(14.798437 211.693025) rotate(-90) scale(0.1 -0.1)">
      <defs>
       <path id="DejaVuSans-43" d="M 4122 4306 
L 4122 3641 
Q 3803 3938 3442 4084 
Q 3081 4231 2675 4231 
Q 1875 4231 1450 3742 
Q 1025 3253 1025 2328 
Q 1025 1406 1450 917 
Q 1875 428 2675 428 
Q 3081 428 3442 575 
Q 3803 722 4122 1019 
L 4122 359 
Q 3791 134 3420 21 
Q 3050 -91 2638 -91 
Q 1578 -91 968 557 
Q 359 1206 359 2328 
Q 359 3453 968 4101 
Q 1578 4750 2638 4750 
Q 3056 4750 3426 4639 
Q 3797 4528 4122 4306 
z
" transform="scale(0.015625)"/>
       <path id="DejaVuSans-6f" d="M 1959 3097 
Q 1497 3097 1228 2736 
Q 959 2375 959 1747 
Q 959 1119 1226 758 
Q 1494 397 1959 397 
Q 2419 397 2687 759 
Q 2956 1122 2956 1747 
Q 2956 2369 2687 2733 
Q 2419 3097 1959 3097 
z
M 1959 3584 
Q 2709 3584 3137 3096 
Q 3566 2609 3566 1747 
Q 3566 888 3137 398 
Q 2709 -91 1959 -91 
Q 1206 -91 779 398 
Q 353 888 353 1747 
Q 353 2609 779 3096 
Q 1206 3584 1959 3584 
z
" transform="scale(0.015625)"/>
       <path id="DejaVuSans-75" d="M 544 1381 
L 544 3500 
L 1119 3500 
L 1119 1403 
Q 1119 906 1312 657 
Q 1506 409 1894 409 
Q 2359 409 2629 706 
Q 2900 1003 2900 1516 
L 2900 3500 
L 3475 3500 
L 3475 0 
L 2900 0 
L 2900 538 
Q 2691 219 2414 64 
Q 2138 -91 1772 -91 
Q 1169 -91 856 284 
Q 544 659 544 1381 
z
M 1991 3584 
L 1991 3584 
z
" transform="scale(0.015625)"/>
      </defs>
      <use xlink:href="#DejaVuSans-43"/>
      <use xlink:href="#DejaVuSans-6f" x="69.824219"/>
      <use xlink:href="#DejaVuSans-75" x="131.005859"/>
      <use xlink:href="#DejaVuSans-6e" x="194.384766"/>
      <use xlink:href="#DejaVuSans-74" x="257.763672"/>
      <use xlink:href="#DejaVuSans-73" x="296.972656"/>
     </g>
    </g>
   </g>
   <g id="line2d_9">
    <path d="M 96.040398 338.770809 
L 104.66914 338.770809 
L 113.297882 338.770809 
L 121.926624 338.770809 
L 130.555366 338.770809 
L 139.184108 338.770809 
L 147.81285 338.770809 
L 156.441591 338.770809 
L 165.070333 338.770809 
L 173.699075 338.770809 
L 182.327817 338.770809 
L 190.956559 338.770809 
L 199.585301 338.770809 
L 208.214043 338.770809 
L 216.842785 338.770809 
L 225.471527 338.770809 
L 234.100269 338.770809 
L 242.729011 338.770809 
L 251.357753 338.770809 
L 259.986495 322.368978 
L 268.615237 88.286851 
L 277.243979 67.113429 
L 285.872721 51.206763 
L 294.501463 49.708991 
L 303.130205 50.015911 
L 311.758947 50.056834 
L 320.387689 55.73691 
L 329.016431 69.241411 
L 337.645173 87.284245 
L 346.273915 113.249719 
L 354.902657 147.702568 
L 363.531399 178.832491 
L 372.160141 211.235111 
L 380.788883 234.953927 
L 389.417625 257.375493 
L 398.046367 271.616604 
L 406.675108 283.079061 
L 415.30385 289.949988 
L 423.932592 295.229021 
L 432.561334 299.660953 
L 441.190076 303.262153 
L 449.818818 306.212683 
L 458.44756 308.708969 
L 467.076302 311.102949 
L 475.705044 313.419176 
L 484.333786 316.0014 
L 492.962528 316.91807 
L 501.59127 318.89873 
L 510.220012 320.903944 
L 518.848754 321.206772 
L 527.477496 323.555737 
L 536.106238 324.844803 
L 544.73498 325.548674 
L 553.363722 326.694511 
L 561.992464 328.315051 
L 570.621206 328.364158 
L 579.249948 329.505902 
L 587.87869 330.279342 
L 596.507432 330.807245 
L 605.136174 331.474286 
L 613.764916 331.953082 
L 622.393658 332.665137 
L 631.0224 333.360824 
L 639.651142 333.745497 
L 648.279883 333.872358 
L 656.908625 334.232478 
L 665.537367 334.748104 
L 674.166109 334.95681 
L 682.794851 335.329207 
L 691.423593 335.668866 
L 700.052335 335.795726 
L 708.681077 336.14357 
L 717.309819 336.311353 
L 725.938561 336.569166 
L 734.567303 336.904732 
L 743.196045 336.998855 
L 751.824787 337.047962 
L 760.453529 337.215745 
L 769.082271 337.342606 
L 777.711013 337.342606 
L 786.339755 337.367159 
L 794.968497 337.616788 
L 803.597239 337.600419 
L 812.225981 337.85414 
L 820.854723 337.80094 
L 829.483465 337.895063 
L 838.112207 338.058754 
L 846.740949 338.099676 
L 855.369691 338.136507 
L 863.998433 338.152876 
L 872.627175 338.296105 
L 881.255917 338.21426 
L 889.884659 338.246998 
L 898.5134 338.357489 
L 907.142142 338.377951 
L 915.770884 338.34112 
L 924.399626 338.410689 
L 933.028368 338.382043 
L 941.65711 338.472073 
L 950.285852 338.459796 
" clip-path="url(#p59bd3369e8)" style="fill: none; stroke: #7cb5ec; stroke-linecap: square"/>
   </g>
   <g id="line2d_10">
    <path d="M 96.040398 338.770809 
L 104.66914 338.770809 
L 113.297882 338.770809 
L 121.926624 338.770809 
L 130.555366 338.770809 
L 139.184108 338.770809 
L 147.81285 338.770809 
L 156.441591 338.770809 
L 165.070333 338.770809 
L 173.699075 338.770809 
L 182.327817 338.770809 
L 190.956559 338.770809 
L 199.585301 338.770809 
L 208.214043 338.770809 
L 216.842785 338.770809 
L 225.471527 338.770809 
L 234.100269 338.770809 
L 242.729011 338.770809 
L 251.357753 338.770809 
L 259.986495 329.010737 
L 268.615237 205.665527 
L 277.243979 186.079907 
L 285.872721 169.395709 
L 294.501463 167.304557 
L 303.130205 167.07539 
L 311.758947 164.362212 
L 320.387689 163.707449 
L 329.016431 163.232745 
L 337.645173 162.55752 
L 346.273915 164.640487 
L 354.902657 164.239444 
L 363.531399 169.935889 
L 372.160141 175.68144 
L 380.788883 174.842524 
L 389.417625 189.701569 
L 398.046367 192.914003 
L 406.675108 208.31732 
L 415.30385 219.125014 
L 423.932592 234.556977 
L 432.561334 250.999731 
L 441.190076 261.905639 
L 449.818818 271.964447 
L 458.44756 280.230839 
L 467.076302 288.223049 
L 475.705044 294.639734 
L 484.333786 298.425086 
L 492.962528 299.501354 
L 501.59127 301.510661 
L 510.220012 300.315717 
L 518.848754 282.399744 
L 527.477496 309.785237 
L 536.106238 308.283373 
L 544.73498 310.227203 
L 553.363722 313.558313 
L 561.992464 314.389045 
L 570.621206 318.632732 
L 579.249948 319.974998 
L 587.87869 321.174034 
L 596.507432 321.812428 
L 605.136174 322.896881 
L 613.764916 321.894274 
L 622.393658 324.079548 
L 631.0224 325.274492 
L 639.651142 326.293468 
L 648.279883 327.754409 
L 656.908625 327.713487 
L 665.537367 328.937076 
L 674.166109 328.830677 
L 682.794851 329.469072 
L 691.423593 330.393926 
L 700.052335 331.605239 
L 708.681077 332.055389 
L 717.309819 332.841105 
L 725.938561 332.97615 
L 734.567303 332.628307 
L 743.196045 333.774143 
L 751.824787 334.232478 
L 760.453529 334.473922 
L 769.082271 334.171094 
L 777.711013 334.948626 
L 786.339755 335.206439 
L 794.968497 335.60339 
L 803.597239 335.644312 
L 812.225981 335.591113 
L 820.854723 336.135385 
L 829.483465 336.241784 
L 838.112207 336.479136 
L 846.740949 336.524151 
L 855.369691 336.528243 
L 863.998433 336.970209 
L 872.627175 337.04387 
L 881.255917 337.330329 
L 889.884659 337.211653 
L 898.5134 337.199376 
L 907.142142 337.444913 
L 915.770884 337.547219 
L 924.399626 337.624973 
L 933.028368 337.67408 
L 941.65711 337.780479 
L 950.285852 337.727279 
" clip-path="url(#p59bd3369e8)" style="fill: none; stroke: #434348; stroke-linecap: square"/>
   </g>
   <g id="line2d_11">
    <path d="M 96.040398 338.770809 
L 104.66914 338.770809 
L 113.297882 338.770809 
L 121.926624 338.770809 
L 130.555366 338.770809 
L 139.184108 338.770809 
L 147.81285 338.770809 
L 156.441591 338.770809 
L 165.070333 338.770809 
L 173.699075 338.770809 
L 182.327817 338.770809 
L 190.956559 338.770809 
L 199.585301 338.770809 
L 208.214043 338.770809 
L 216.842785 338.770809 
L 225.471527 338.770809 
L 234.100269 338.770809 
L 242.729011 338.770809 
L 251.357753 338.770809 
L 259.986495 326.056116 
L 268.615237 132.565249 
L 277.243979 110.340112 
L 285.872721 91.175996 
L 294.501463 92.33411 
L 303.130205 92.477339 
L 311.758947 95.44833 
L 320.387689 95.280547 
L 329.016431 100.620963 
L 337.645173 104.381762 
L 346.273915 110.904846 
L 354.902657 121.02913 
L 363.531399 127.515384 
L 372.160141 145.320865 
L 380.788883 156.136743 
L 389.417625 178.603324 
L 398.046367 195.021524 
L 406.675108 223.925251 
L 415.30385 244.456186 
L 423.932592 269.779173 
L 432.561334 287.302288 
L 441.190076 302.983879 
L 449.818818 311.389408 
L 458.44756 316.41472 
L 467.076302 320.24918 
L 475.705044 322.364885 
L 484.333786 323.379769 
L 492.962528 325.605966 
L 501.59127 326.342575 
L 510.220012 327.9713 
L 518.848754 325.249938 
L 527.477496 330.373464 
L 536.106238 330.966844 
L 544.73498 331.728007 
L 553.363722 332.509631 
L 561.992464 333.033442 
L 570.621206 333.528607 
L 579.249948 334.044233 
L 587.87869 334.445276 
L 596.507432 335.038656 
L 605.136174 335.435606 
L 613.764916 335.615666 
L 622.393658 335.889849 
L 631.0224 336.204954 
L 639.651142 336.491413 
L 648.279883 336.63055 
L 656.908625 336.871994 
L 665.537367 336.86381 
L 674.166109 337.264853 
L 682.794851 337.567681 
L 691.423593 337.571773 
L 700.052335 337.641342 
L 708.681077 337.760018 
L 717.309819 337.911432 
L 725.938561 337.976908 
L 734.567303 338.0342 
L 743.196045 338.083307 
L 751.824787 338.148784 
L 760.453529 338.255183 
L 769.082271 338.255183 
L 777.711013 338.349305 
L 786.339755 338.410689 
L 794.968497 338.467981 
L 803.597239 338.496627 
L 812.225981 338.447519 
L 820.854723 338.52118 
L 829.483465 338.594841 
L 838.112207 338.562103 
L 846.740949 338.541642 
L 855.369691 338.558011 
L 863.998433 338.615303 
L 872.627175 338.615303 
L 881.255917 338.62758 
L 889.884659 338.668502 
L 898.5134 338.623487 
L 907.142142 338.672595 
L 915.770884 338.652133 
L 924.399626 338.697148 
L 933.028368 338.721702 
L 941.65711 338.709425 
L 950.285852 338.672595 
" clip-path="url(#p59bd3369e8)" style="fill: none; stroke: #90ed7d; stroke-linecap: square"/>
   </g>
   <g id="line2d_12">
    <path d="M 96.040398 338.770809 
L 104.66914 338.770809 
L 113.297882 338.770809 
L 121.926624 338.770809 
L 130.555366 338.770809 
L 139.184108 338.770809 
L 147.81285 338.770809 
L 156.441591 338.770809 
L 165.070333 338.770809 
L 173.699075 338.770809 
L 182.327817 338.770809 
L 190.956559 338.770809 
L 199.585301 338.770809 
L 208.214043 338.770809 
L 216.842785 338.770809 
L 225.471527 338.770809 
L 234.100269 338.770809 
L 242.729011 338.770809 
L 251.357753 338.770809 
L 259.986495 331.044597 
L 268.615237 175.980176 
L 277.243979 159.705205 
L 285.872721 157.360333 
L 294.501463 155.175059 
L 303.130205 153.165753 
L 311.758947 153.325351 
L 320.387689 154.827216 
L 329.016431 153.939192 
L 337.645173 154.131529 
L 346.273915 157.323502 
L 354.902657 159.332809 
L 363.531399 168.01252 
L 372.160141 172.063871 
L 380.788883 181.361516 
L 389.417625 192.29607 
L 398.046367 202.031588 
L 406.675108 217.901424 
L 415.30385 230.624302 
L 423.932592 246.023527 
L 432.561334 255.656738 
L 441.190076 266.828644 
L 449.818818 273.03253 
L 458.44756 280.169455 
L 467.076302 285.084275 
L 475.705044 290.33057 
L 484.333786 294.025893 
L 492.962528 297.381557 
L 501.59127 300.634914 
L 510.220012 303.078001 
L 518.848754 294.766594 
L 527.477496 306.908369 
L 536.106238 309.347364 
L 544.73498 310.681445 
L 553.363722 311.598114 
L 561.992464 314.405414 
L 570.621206 317.49508 
L 579.249948 319.217927 
L 587.87869 320.040474 
L 596.507432 322.512207 
L 605.136174 324.157301 
L 613.764916 324.934833 
L 622.393658 325.364522 
L 631.0224 328.392804 
L 639.651142 327.615272 
L 648.279883 330.013344 
L 656.908625 329.661409 
L 665.537367 330.917737 
L 674.166109 331.216473 
L 682.794851 332.006281 
L 691.423593 332.665137 
L 700.052335 333.160302 
L 708.681077 333.508146 
L 717.309819 333.823251 
L 725.938561 334.473922 
L 734.567303 334.813581 
L 743.196045 335.267823 
L 751.824787 335.456068 
L 760.453529 335.824372 
L 769.082271 335.456068 
L 777.711013 336.057632 
L 786.339755 336.393198 
L 794.968497 336.704211 
L 803.597239 336.700119 
L 812.225981 337.101162 
L 820.854723 336.957932 
L 829.483465 336.966117 
L 838.112207 337.322144 
L 846.740949 337.518573 
L 855.369691 337.489928 
L 863.998433 337.539035 
L 872.627175 337.719095 
L 881.255917 337.796848 
L 889.884659 337.837771 
L 898.5134 337.895063 
L 907.142142 338.026015 
L 915.770884 338.075123 
L 924.399626 338.197891 
L 933.028368 338.226537 
L 941.65711 338.218352 
L 950.285852 338.337028 
" clip-path="url(#p59bd3369e8)" style="fill: none; stroke: #f7a35c; stroke-linecap: square"/>
   </g>
   <g id="line2d_13">
    <path d="M 96.040398 338.770809 
L 104.66914 338.770809 
L 113.297882 338.770809 
L 121.926624 338.770809 
L 130.555366 338.770809 
L 139.184108 338.770809 
L 147.81285 338.770809 
L 156.441591 338.770809 
L 165.070333 338.770809 
L 173.699075 338.770809 
L 182.327817 338.770809 
L 190.956559 338.770809 
L 199.585301 338.770809 
L 208.214043 338.770809 
L 216.842785 338.770809 
L 225.471527 338.770809 
L 234.100269 338.770809 
L 242.729011 338.770809 
L 251.357753 338.770809 
L 259.986495 325.229477 
L 268.615237 100.228105 
L 277.243979 73.894326 
L 285.872721 67.031584 
L 294.501463 67.203459 
L 303.130205 76.554304 
L 311.758947 78.633179 
L 320.387689 90.116098 
L 329.016431 99.065899 
L 337.645173 114.608353 
L 346.273915 126.197672 
L 354.902657 142.480827 
L 363.531399 156.50914 
L 372.160141 176.176606 
L 380.788883 188.617116 
L 389.417625 211.030497 
L 398.046367 224.436785 
L 406.675108 246.530968 
L 415.30385 260.055932 
L 423.932592 277.685445 
L 432.561334 289.774021 
L 441.190076 300.291163 
L 449.818818 307.07206 
L 458.44756 310.505477 
L 467.076302 314.16397 
L 475.705044 316.095523 
L 484.333786 318.956022 
L 492.962528 320.568377 
L 501.59127 322.127534 
L 510.220012 323.985426 
L 518.848754 321.116742 
L 527.477496 326.56765 
L 536.106238 327.721671 
L 544.73498 328.699724 
L 553.363722 329.837376 
L 561.992464 330.565801 
L 570.621206 331.310595 
L 579.249948 332.014466 
L 587.87869 332.70606 
L 596.507432 333.094826 
L 605.136174 333.892819 
L 613.764916 334.191555 
L 622.393658 334.641705 
L 631.0224 335.104132 
L 639.651142 335.292377 
L 648.279883 335.672958 
L 656.908625 335.988063 
L 665.537367 336.045355 
L 674.166109 336.470951 
L 682.794851 336.843348 
L 691.423593 336.761503 
L 700.052335 336.962024 
L 708.681077 337.199376 
L 717.309819 337.228022 
L 725.938561 337.432636 
L 734.567303 337.477651 
L 743.196045 337.678172 
L 751.824787 337.886878 
L 760.453529 337.972816 
L 769.082271 338.0342 
L 777.711013 338.001462 
L 786.339755 338.152876 
L 794.968497 338.042384 
L 803.597239 338.075123 
L 812.225981 338.255183 
L 820.854723 338.242906 
L 829.483465 338.275644 
L 838.112207 338.422966 
L 846.740949 338.382043 
L 855.369691 338.414781 
L 863.998433 338.504811 
L 872.627175 338.467981 
L 881.255917 338.562103 
L 889.884659 338.541642 
L 898.5134 338.578472 
L 907.142142 338.525273 
L 915.770884 338.562103 
L 924.399626 338.62758 
L 933.028368 338.623487 
L 941.65711 338.643949 
L 950.285852 338.615303 
" clip-path="url(#p59bd3369e8)" style="fill: none; stroke: #8085e9; stroke-linecap: square"/>
   </g>
   <g id="line2d_14">
    <path d="M 96.040398 338.770809 
L 104.66914 338.770809 
L 113.297882 338.770809 
L 121.926624 338.770809 
L 130.555366 338.770809 
L 139.184108 338.770809 
L 147.81285 338.770809 
L 156.441591 338.770809 
L 165.070333 338.770809 
L 173.699075 338.770809 
L 182.327817 338.770809 
L 190.956559 338.770809 
L 199.585301 338.770809 
L 208.214043 338.770809 
L 216.842785 338.770809 
L 225.471527 338.770809 
L 234.100269 338.770809 
L 242.729011 338.770809 
L 251.357753 338.770809 
L 259.986495 326.833648 
L 268.615237 138.658644 
L 277.243979 116.642213 
L 285.872721 110.986692 
L 294.501463 113.425686 
L 303.130205 120.955469 
L 311.758947 124.798114 
L 320.387689 135.994574 
L 329.016431 141.637819 
L 337.645173 155.514718 
L 346.273915 164.317197 
L 354.902657 178.108159 
L 363.531399 187.311681 
L 372.160141 201.131288 
L 380.788883 209.659586 
L 389.417625 221.285734 
L 398.046367 229.552126 
L 406.675108 240.171576 
L 415.30385 247.263485 
L 423.932592 256.761652 
L 432.561334 262.245298 
L 441.190076 269.312654 
L 449.818818 274.186552 
L 458.44756 280.791481 
L 467.076302 284.28219 
L 475.705044 287.592839 
L 484.333786 291.541883 
L 492.962528 296.010645 
L 501.59127 300.192949 
L 510.220012 302.402776 
L 518.848754 300.299348 
L 527.477496 308.672139 
L 536.106238 311.237994 
L 544.73498 313.087702 
L 553.363722 315.256607 
L 561.992464 317.462342 
L 570.621206 319.815399 
L 579.249948 321.309079 
L 587.87869 322.729098 
L 596.507432 323.658044 
L 605.136174 325.507751 
L 613.764916 326.604481 
L 622.393658 327.979484 
L 631.0224 328.54831 
L 639.651142 329.571379 
L 648.279883 330.357095 
L 656.908625 331.146904 
L 665.537367 331.920344 
L 674.166109 332.337755 
L 682.794851 333.098918 
L 691.423593 333.401746 
L 700.052335 334.134263 
L 708.681077 334.432999 
L 717.309819 334.723551 
L 725.938561 335.210531 
L 734.567303 335.357853 
L 743.196045 335.58702 
L 751.824787 336.078093 
L 760.453529 336.102647 
L 769.082271 336.36046 
L 777.711013 336.511874 
L 786.339755 336.736949 
L 794.968497 336.831072 
L 803.597239 336.970209 
L 812.225981 337.285314 
L 820.854723 337.371252 
L 829.483465 337.387621 
L 838.112207 337.555404 
L 846.740949 337.665895 
L 855.369691 337.784571 
L 863.998433 337.829586 
L 872.627175 337.911432 
L 881.255917 337.989185 
L 889.884659 337.972816 
L 898.5134 338.066938 
L 907.142142 338.16106 
L 915.770884 338.128322 
L 924.399626 338.263367 
L 933.028368 338.210168 
L 941.65711 338.332936 
L 950.285852 338.357489 
" clip-path="url(#p59bd3369e8)" style="fill: none; stroke: #f15c80; stroke-linecap: square"/>
   </g>
   <g id="line2d_15">
    <path d="M 96.040398 338.770809 
L 104.66914 338.770809 
L 113.297882 338.770809 
L 121.926624 338.770809 
L 130.555366 338.770809 
L 139.184108 338.770809 
L 147.81285 338.770809 
L 156.441591 338.770809 
L 165.070333 338.770809 
L 173.699075 338.770809 
L 182.327817 338.770809 
L 190.956559 338.770809 
L 199.585301 338.770809 
L 208.214043 338.770809 
L 216.842785 338.770809 
L 225.471527 338.770809 
L 234.100269 338.770809 
L 242.729011 338.770809 
L 251.357753 338.770809 
L 259.986495 328.486926 
L 268.615237 150.509867 
L 277.243979 135.462578 
L 285.872721 132.070084 
L 294.501463 133.686532 
L 303.130205 132.31562 
L 311.758947 135.925005 
L 320.387689 137.038104 
L 329.016431 142.403074 
L 337.645173 148.164995 
L 346.273915 155.588378 
L 354.902657 161.849557 
L 363.531399 172.681804 
L 372.160141 179.143504 
L 380.788883 191.780444 
L 389.417625 201.294979 
L 398.046367 213.751859 
L 406.675108 228.643642 
L 415.30385 241.292859 
L 423.932592 253.164544 
L 432.561334 265.576409 
L 441.190076 274.452549 
L 449.818818 281.478983 
L 458.44756 286.029591 
L 467.076302 288.955566 
L 475.705044 292.663166 
L 484.333786 296.407596 
L 492.962528 299.94332 
L 501.59127 302.619667 
L 510.220012 305.160968 
L 518.848754 306.286343 
L 527.477496 311.070211 
L 536.106238 312.870811 
L 544.73498 314.659135 
L 553.363722 317.306836 
L 561.992464 318.690024 
L 570.621206 320.21235 
L 579.249948 321.914735 
L 587.87869 323.154694 
L 596.507432 324.370099 
L 605.136174 325.560951 
L 613.764916 326.862294 
L 622.393658 327.238783 
L 631.0224 328.450096 
L 639.651142 329.685962 
L 648.279883 330.001067 
L 656.908625 330.85226 
L 665.537367 331.719822 
L 674.166109 331.6257 
L 682.794851 332.517815 
L 691.423593 333.152118 
L 700.052335 333.254425 
L 708.681077 334.113802 
L 717.309819 334.179278 
L 725.938561 334.760381 
L 734.567303 335.030471 
L 743.196045 335.431514 
L 751.824787 335.591113 
L 760.453529 335.648405 
L 769.082271 335.877572 
L 777.711013 336.204954 
L 786.339755 336.368645 
L 794.968497 336.548705 
L 803.597239 336.777872 
L 812.225981 336.945655 
L 820.854723 337.195284 
L 829.483465 337.052054 
L 838.112207 337.301683 
L 846.740949 337.502204 
L 855.369691 337.596327 
L 863.998433 337.543127 
L 872.627175 337.706818 
L 881.255917 337.821402 
L 889.884659 337.796848 
L 898.5134 337.899155 
L 907.142142 337.989185 
L 915.770884 337.956447 
L 924.399626 337.948262 
L 933.028368 338.189706 
L 941.65711 338.181522 
L 950.285852 338.132414 
" clip-path="url(#p59bd3369e8)" style="fill: none; stroke: #e4d354; stroke-linecap: square"/>
   </g>
   <g id="line2d_16">
    <path d="M 96.040398 338.770809 
L 104.66914 338.770809 
L 113.297882 338.770809 
L 121.926624 338.770809 
L 130.555366 338.770809 
L 139.184108 338.770809 
L 147.81285 338.770809 
L 156.441591 338.770809 
L 165.070333 338.770809 
L 173.699075 338.770809 
L 182.327817 338.770809 
L 190.956559 338.770809 
L 199.585301 338.770809 
L 208.214043 338.770809 
L 216.842785 338.770809 
L 225.471527 338.770809 
L 234.100269 338.770809 
L 242.729011 338.770809 
L 251.357753 338.770809 
L 259.986495 328.838862 
L 268.615237 141.56825 
L 277.243979 123.202127 
L 285.872721 118.700627 
L 294.501463 117.812603 
L 303.130205 116.728151 
L 311.758947 118.684258 
L 320.387689 116.945042 
L 329.016431 119.748249 
L 337.645173 123.611355 
L 346.273915 128.80445 
L 354.902657 133.768377 
L 363.531399 142.0184 
L 372.160141 151.692534 
L 380.788883 164.370397 
L 389.417625 179.159873 
L 398.046367 194.591836 
L 406.675108 217.831856 
L 415.30385 234.663376 
L 423.932592 261.435028 
L 432.561334 278.123318 
L 441.190076 292.622243 
L 449.818818 301.031865 
L 458.44756 305.18143 
L 467.076302 308.827645 
L 475.705044 311.418054 
L 484.333786 312.743951 
L 492.962528 315.350729 
L 501.59127 316.578411 
L 510.220012 318.256243 
L 518.848754 319.790845 
L 527.477496 321.95975 
L 536.106238 323.097402 
L 544.73498 324.877541 
L 553.363722 325.708273 
L 561.992464 326.854109 
L 570.621206 327.954931 
L 579.249948 328.679263 
L 587.87869 329.485441 
L 596.507432 330.488048 
L 605.136174 331.060966 
L 613.764916 331.527485 
L 622.393658 332.386863 
L 631.0224 332.812459 
L 639.651142 333.475407 
L 648.279883 333.741405 
L 656.908625 334.392077 
L 665.537367 334.797212 
L 674.166109 335.165516 
L 682.794851 335.37013 
L 691.423593 335.55019 
L 700.052335 335.975786 
L 708.681077 336.213138 
L 717.309819 336.50369 
L 725.938561 336.659196 
L 734.567303 336.769687 
L 743.196045 337.097069 
L 751.824787 337.047962 
L 760.453529 337.248483 
L 769.082271 337.526758 
L 777.711013 337.477651 
L 786.339755 337.719095 
L 794.968497 337.76411 
L 803.597239 337.825494 
L 812.225981 337.841863 
L 820.854723 338.103769 
L 829.483465 338.075123 
L 838.112207 338.042384 
L 846.740949 338.185614 
L 855.369691 338.206075 
L 863.998433 338.279736 
L 872.627175 338.30429 
L 881.255917 338.34112 
L 889.884659 338.361582 
L 898.5134 338.402504 
L 907.142142 338.459796 
L 915.770884 338.402504 
L 924.399626 338.463889 
L 933.028368 338.451612 
L 941.65711 338.545734 
L 950.285852 338.553919 
" clip-path="url(#p59bd3369e8)" style="fill: none; stroke: #2b908f; stroke-linecap: square"/>
   </g>
   <g id="line2d_17">
    <path d="M 96.040398 338.770809 
L 104.66914 338.770809 
L 113.297882 338.770809 
L 121.926624 338.770809 
L 130.555366 338.770809 
L 139.184108 338.770809 
L 147.81285 338.770809 
L 156.441591 338.770809 
L 165.070333 338.770809 
L 173.699075 338.770809 
L 182.327817 338.770809 
L 190.956559 338.770809 
L 199.585301 338.770809 
L 208.214043 338.770809 
L 216.842785 338.770809 
L 225.471527 338.770809 
L 234.100269 338.770809 
L 242.729011 338.770809 
L 251.357753 338.770809 
L 259.986495 328.335512 
L 268.615237 166.093244 
L 277.243979 145.922429 
L 285.872721 136.69026 
L 294.501463 128.620297 
L 303.130205 131.284367 
L 311.758947 123.697293 
L 320.387689 125.583831 
L 329.016431 119.01164 
L 337.645173 122.34275 
L 346.273915 115.913789 
L 354.902657 120.791778 
L 363.531399 117.137378 
L 372.160141 130.253114 
L 380.788883 132.40565 
L 389.417625 156.333172 
L 398.046367 167.349572 
L 406.675108 201.929282 
L 415.30385 223.728822 
L 423.932592 255.497139 
L 432.561334 275.672047 
L 441.190076 293.502082 
L 449.818818 303.082093 
L 458.44756 309.37601 
L 467.076302 312.649828 
L 475.705044 315.432574 
L 484.333786 317.642402 
L 492.962528 319.455279 
L 501.59127 320.998066 
L 510.220012 322.851866 
L 518.848754 323.048295 
L 527.477496 325.48729 
L 536.106238 326.579927 
L 544.73498 327.623457 
L 553.363722 329.170336 
L 561.992464 329.821007 
L 570.621206 330.668108 
L 579.249948 331.376071 
L 587.87869 332.186341 
L 596.507432 332.61603 
L 605.136174 333.103011 
L 613.764916 333.65956 
L 622.393658 334.150633 
L 631.0224 334.523029 
L 639.651142 334.854504 
L 648.279883 335.3333 
L 656.908625 335.456068 
L 665.537367 335.771173 
L 674.166109 336.209046 
L 682.794851 336.364552 
L 691.423593 336.54052 
L 700.052335 336.712396 
L 708.681077 337.105254 
L 717.309819 337.199376 
L 725.938561 337.444913 
L 734.567303 337.334421 
L 743.196045 337.567681 
L 751.824787 337.755925 
L 760.453529 337.837771 
L 769.082271 337.661803 
L 777.711013 337.858232 
L 786.339755 338.017831 
L 794.968497 338.058754 
L 803.597239 338.050569 
L 812.225981 338.177429 
L 820.854723 338.246998 
L 829.483465 338.353397 
L 838.112207 338.373859 
L 846.740949 338.402504 
L 855.369691 338.349305 
L 863.998433 338.422966 
L 872.627175 338.480258 
L 881.255917 338.529365 
L 889.884659 338.472073 
L 898.5134 338.582565 
L 907.142142 338.598934 
L 915.770884 338.553919 
L 924.399626 338.603026 
L 933.028368 338.631672 
L 941.65711 338.603026 
L 950.285852 338.607118 
" clip-path="url(#p59bd3369e8)" style="fill: none; stroke: #f45b5b; stroke-linecap: square"/>
   </g>
   <g id="line2d_18">
    <path d="M 96.040398 338.770809 
L 104.66914 338.770809 
L 113.297882 338.770809 
L 121.926624 338.770809 
L 130.555366 338.770809 
L 139.184108 338.770809 
L 147.81285 338.770809 
L 156.441591 338.770809 
L 165.070333 338.770809 
L 173.699075 338.770809 
L 182.327817 338.770809 
L 190.956559 338.770809 
L 199.585301 338.770809 
L 208.214043 338.770809 
L 216.842785 338.770809 
L 225.471527 338.770809 
L 234.100269 338.770809 
L 242.729011 338.770809 
L 251.357753 338.770809 
L 259.986495 329.620486 
L 268.615237 160.638244 
L 277.243979 143.246082 
L 285.872721 139.914972 
L 294.501463 138.036618 
L 303.130205 140.475613 
L 311.758947 143.708509 
L 320.387689 144.080906 
L 329.016431 150.992756 
L 337.645173 154.810847 
L 346.273915 162.496136 
L 354.902657 168.532239 
L 363.531399 178.390525 
L 372.160141 187.11116 
L 380.788883 199.277488 
L 389.417625 210.539425 
L 398.046367 222.709845 
L 406.675108 235.133987 
L 415.30385 244.550308 
L 423.932592 255.718122 
L 432.561334 261.868809 
L 441.190076 268.907519 
L 449.818818 272.999792 
L 458.44756 277.223018 
L 467.076302 282.055993 
L 475.705044 285.329812 
L 484.333786 288.816429 
L 492.962528 292.45446 
L 501.59127 295.355881 
L 510.220012 299.5832 
L 518.848754 300.049719 
L 527.477496 304.935893 
L 536.106238 307.313504 
L 544.73498 310.051235 
L 553.363722 312.175125 
L 561.992464 314.695965 
L 570.621206 317.053115 
L 579.249948 317.392773 
L 587.87869 319.909521 
L 596.507432 321.546431 
L 605.136174 323.097402 
L 613.764916 324.492867 
L 622.393658 325.495474 
L 631.0224 326.907309 
L 639.651142 327.688933 
L 648.279883 328.99846 
L 656.908625 329.415872 
L 665.537367 330.520786 
L 674.166109 331.073243 
L 682.794851 331.584777 
L 691.423593 332.190434 
L 700.052335 332.734706 
L 708.681077 333.581807 
L 717.309819 333.851897 
L 725.938561 334.228386 
L 734.567303 334.543491 
L 743.196045 334.879057 
L 751.824787 335.31693 
L 760.453529 335.648405 
L 769.082271 335.648405 
L 777.711013 336.139477 
L 786.339755 336.225415 
L 794.968497 336.393198 
L 803.597239 336.691934 
L 812.225981 336.790149 
L 820.854723 336.790149 
L 829.483465 336.986578 
L 838.112207 337.318052 
L 846.740949 337.334421 
L 855.369691 337.477651 
L 863.998433 337.653618 
L 872.627175 337.592234 
L 881.255917 337.669988 
L 889.884659 337.862324 
L 898.5134 337.956447 
L 907.142142 338.0342 
L 915.770884 338.021923 
L 924.399626 338.07103 
L 933.028368 338.173337 
L 941.65711 338.111953 
L 950.285852 338.230629 
" clip-path="url(#p59bd3369e8)" style="fill: none; stroke: #91e8e1; stroke-linecap: square"/>
   </g>
   <g id="line2d_19">
    <path d="M 96.040398 338.770809 
L 104.66914 338.770809 
L 113.297882 338.770809 
L 121.926624 338.770809 
L 130.555366 338.770809 
L 139.184108 338.770809 
L 147.81285 338.770809 
L 156.441591 338.770809 
L 165.070333 338.770809 
L 173.699075 338.770809 
L 182.327817 338.770809 
L 190.956559 338.770809 
L 199.585301 338.770809 
L 208.214043 338.770809 
L 216.842785 338.770809 
L 225.471527 338.770809 
L 234.100269 338.770809 
L 242.729011 338.770809 
L 251.357753 338.770809 
L 259.986495 327.271521 
L 268.615237 131.963685 
L 277.243979 113.818545 
L 285.872721 111.064445 
L 294.501463 111.350904 
L 303.130205 114.182757 
L 311.758947 118.401891 
L 320.387689 123.541786 
L 329.016431 129.250507 
L 337.645173 136.457001 
L 346.273915 146.286641 
L 354.902657 155.911668 
L 363.531399 168.303072 
L 372.160141 178.27185 
L 380.788883 191.710875 
L 389.417625 206.65995 
L 398.046367 220.459095 
L 406.675108 236.288008 
L 415.30385 250.688718 
L 423.932592 262.089792 
L 432.561334 272.124046 
L 441.190076 279.641552 
L 449.818818 285.374827 
L 458.44756 290.031834 
L 467.076302 295.179914 
L 475.705044 298.17955 
L 484.333786 301.592506 
L 492.962528 304.690357 
L 501.59127 307.362611 
L 510.220012 309.822068 
L 518.848754 310.640522 
L 527.477496 315.019255 
L 536.106238 316.733917 
L 544.73498 318.66547 
L 553.363722 321.272248 
L 561.992464 321.984304 
L 570.621206 324.034533 
L 579.249948 325.106708 
L 587.87869 326.293468 
L 596.507432 327.598903 
L 605.136174 328.462373 
L 613.764916 329.428149 
L 622.393658 329.931499 
L 631.0224 331.281949 
L 639.651142 331.682992 
L 648.279883 332.56283 
L 656.908625 332.558738 
L 665.537367 333.434485 
L 674.166109 333.921465 
L 682.794851 334.338877 
L 691.423593 334.731735 
L 700.052335 335.165516 
L 708.681077 335.366038 
L 717.309819 335.787542 
L 725.938561 335.799819 
L 734.567303 336.184492 
L 743.196045 336.225415 
L 751.824787 336.941563 
L 760.453529 337.002947 
L 769.082271 336.925194 
L 777.711013 337.207561 
L 786.339755 337.236207 
L 794.968497 337.26076 
L 803.597239 337.379436 
L 812.225981 337.539035 
L 820.854723 337.751833 
L 829.483465 337.796848 
L 838.112207 337.76411 
L 846.740949 338.07103 
L 855.369691 338.009646 
L 863.998433 338.083307 
L 872.627175 338.128322 
L 881.255917 338.062846 
L 889.884659 338.189706 
L 898.5134 338.332936 
L 907.142142 338.337028 
L 915.770884 338.345213 
L 924.399626 338.386135 
L 933.028368 338.48435 
L 941.65711 338.427058 
L 950.285852 338.488442 
" clip-path="url(#p59bd3369e8)" style="fill: none; stroke: #7cb5ec; stroke-linecap: square"/>
   </g>
   <g id="line2d_20">
    <path d="M 96.040398 338.770809 
L 104.66914 338.770809 
L 113.297882 338.770809 
L 121.926624 338.770809 
L 130.555366 338.770809 
L 139.184108 338.770809 
L 147.81285 338.770809 
L 156.441591 338.770809 
L 165.070333 338.770809 
L 173.699075 338.770809 
L 182.327817 338.770809 
L 190.956559 338.770809 
L 199.585301 338.770809 
L 208.214043 338.770809 
L 216.842785 338.770809 
L 225.471527 338.770809 
L 234.100269 338.770809 
L 242.729011 338.770809 
L 251.357753 338.770809 
L 259.986495 328.621971 
L 268.615237 162.73758 
L 277.243979 143.094668 
L 285.872721 137.774713 
L 294.501463 134.243081 
L 303.130205 136.485647 
L 311.758947 135.266149 
L 320.387689 138.736397 
L 329.016431 138.920549 
L 337.645173 143.843554 
L 346.273915 146.728607 
L 354.902657 150.849526 
L 363.531399 157.650884 
L 372.160141 167.095851 
L 380.788883 173.676227 
L 389.417625 188.981329 
L 398.046367 196.539758 
L 406.675108 216.75968 
L 415.30385 232.355334 
L 423.932592 251.396681 
L 432.561334 264.483772 
L 441.190076 277.145265 
L 449.818818 284.110314 
L 458.44756 289.303409 
L 467.076302 294.451489 
L 475.705044 297.389741 
L 484.333786 301.285585 
L 492.962528 303.024802 
L 501.59127 305.079123 
L 510.220012 308.02556 
L 518.848754 304.064239 
L 527.477496 312.330631 
L 536.106238 315.674018 
L 544.73498 317.335481 
L 553.363722 319.074698 
L 561.992464 321.644645 
L 570.621206 322.782297 
L 579.249948 324.128655 
L 587.87869 325.683719 
L 596.507432 327.111922 
L 605.136174 327.88127 
L 613.764916 329.203074 
L 622.393658 329.870115 
L 631.0224 330.594447 
L 639.651142 331.269672 
L 648.279883 332.153603 
L 656.908625 332.56283 
L 665.537367 333.24624 
L 674.166109 333.340362 
L 682.794851 334.068787 
L 691.423593 334.653982 
L 700.052335 334.960903 
L 708.681077 335.533821 
L 717.309819 335.73025 
L 725.938561 335.938956 
L 734.567303 336.016709 
L 743.196045 336.221323 
L 751.824787 336.671473 
L 760.453529 336.651012 
L 769.082271 337.04387 
L 777.711013 336.831072 
L 786.339755 337.027501 
L 794.968497 337.281222 
L 803.597239 337.072516 
L 812.225981 337.399898 
L 820.854723 337.465374 
L 829.483465 337.575865 
L 838.112207 337.837771 
L 846.740949 337.788663 
L 855.369691 337.952354 
L 863.998433 338.152876 
L 872.627175 338.087399 
L 881.255917 338.189706 
L 889.884659 338.095584 
L 898.5134 338.16106 
L 907.142142 338.230629 
L 915.770884 338.283829 
L 924.399626 338.283829 
L 933.028368 338.377951 
L 941.65711 338.39432 
L 950.285852 338.377951 
" clip-path="url(#p59bd3369e8)" style="fill: none; stroke: #434348; stroke-linecap: square"/>
   </g>
   <g id="line2d_21">
    <path d="M 96.040398 338.770809 
L 104.66914 338.770809 
L 113.297882 338.770809 
L 121.926624 338.770809 
L 130.555366 338.770809 
L 139.184108 338.770809 
L 147.81285 338.770809 
L 156.441591 338.770809 
L 165.070333 338.770809 
L 173.699075 338.770809 
L 182.327817 338.770809 
L 190.956559 338.770809 
L 199.585301 338.770809 
L 208.214043 338.770809 
L 216.842785 338.770809 
L 225.471527 338.770809 
L 234.100269 338.770809 
L 242.729011 338.770809 
L 251.357753 338.770809 
L 259.986495 326.526727 
L 268.615237 151.888963 
L 277.243979 130.555943 
L 285.872721 115.860589 
L 294.501463 111.084906 
L 303.130205 111.244505 
L 311.758947 106.505652 
L 320.387689 105.936826 
L 329.016431 101.463972 
L 337.645173 104.79099 
L 346.273915 101.582648 
L 354.902657 107.201339 
L 363.531399 107.753796 
L 372.160141 126.463669 
L 380.788883 133.056322 
L 389.417625 158.293371 
L 398.046367 175.419535 
L 406.675108 212.528269 
L 415.30385 236.402592 
L 423.932592 265.036228 
L 432.561334 284.793724 
L 441.190076 301.711182 
L 449.818818 310.603692 
L 458.44756 315.637188 
L 467.076302 320.191888 
L 475.705044 322.467192 
L 484.333786 324.194132 
L 492.962528 325.581412 
L 501.59127 327.721671 
L 510.220012 329.649132 
L 518.848754 325.090339 
L 527.477496 331.850775 
L 536.106238 332.967966 
L 544.73498 333.463131 
L 553.363722 334.040141 
L 561.992464 334.551675 
L 570.621206 335.177793 
L 579.249948 335.443791 
L 587.87869 335.934864 
L 596.507432 336.213138 
L 605.136174 336.307261 
L 613.764916 336.605997 
L 622.393658 337.064331 
L 631.0224 337.121623 
L 639.651142 337.297591 
L 648.279883 337.522666 
L 656.908625 337.624973 
L 665.537367 337.612696 
L 674.166109 337.927801 
L 682.794851 337.927801 
L 691.423593 337.997369 
L 700.052335 338.21426 
L 708.681077 338.238814 
L 717.309819 338.201983 
L 725.938561 338.382043 
L 734.567303 338.316567 
L 743.196045 338.455704 
L 751.824787 338.43115 
L 760.453529 338.504811 
L 769.082271 338.463889 
L 777.711013 338.578472 
L 786.339755 338.529365 
L 794.968497 338.61121 
L 803.597239 338.615303 
L 812.225981 338.582565 
L 820.854723 338.590749 
L 829.483465 338.643949 
L 838.112207 338.603026 
L 846.740949 338.639856 
L 855.369691 338.652133 
L 863.998433 338.668502 
L 872.627175 338.668502 
L 881.255917 338.672595 
L 889.884659 338.705333 
L 898.5134 338.688964 
L 907.142142 338.705333 
L 915.770884 338.672595 
L 924.399626 338.713517 
L 933.028368 338.729886 
L 941.65711 338.71761 
L 950.285852 338.713517 
" clip-path="url(#p59bd3369e8)" style="fill: none; stroke: #90ed7d; stroke-linecap: square"/>
   </g>
   <g id="line2d_22">
    <path d="M 96.040398 338.770809 
L 104.66914 338.770809 
L 113.297882 338.770809 
L 121.926624 338.770809 
L 130.555366 338.770809 
L 139.184108 338.770809 
L 147.81285 338.770809 
L 156.441591 338.770809 
L 165.070333 338.770809 
L 173.699075 338.770809 
L 182.327817 338.770809 
L 190.956559 338.770809 
L 199.585301 338.770809 
L 208.214043 338.770809 
L 216.842785 338.770809 
L 225.471527 338.770809 
L 234.100269 338.770809 
L 242.729011 338.770809 
L 251.357753 338.770809 
L 259.986495 325.033048 
L 268.615237 109.280214 
L 277.243979 84.607898 
L 285.872721 73.607867 
L 294.501463 74.815088 
L 303.130205 87.934916 
L 311.758947 95.067748 
L 320.387689 110.196883 
L 329.016431 123.079359 
L 337.645173 140.111401 
L 346.273915 154.876323 
L 354.902657 172.702266 
L 363.531399 184.430721 
L 372.160141 203.590745 
L 380.788883 216.227685 
L 389.417625 231.516418 
L 398.046367 241.190552 
L 406.675108 253.663801 
L 415.30385 260.48562 
L 423.932592 270.47486 
L 432.561334 278.999065 
L 441.190076 285.09246 
L 449.818818 289.348424 
L 458.44756 293.256545 
L 467.076302 296.73907 
L 475.705044 299.501354 
L 484.333786 302.15724 
L 492.962528 304.862232 
L 501.59127 307.223474 
L 510.220012 309.535608 
L 518.848754 308.553463 
L 527.477496 314.97424 
L 536.106238 317.192252 
L 544.73498 318.211228 
L 553.363722 320.588839 
L 561.992464 321.947473 
L 570.621206 323.314293 
L 579.249948 324.423299 
L 587.87869 325.945625 
L 596.507432 327.132384 
L 605.136174 328.364158 
L 613.764916 329.063937 
L 622.393658 329.845561 
L 631.0224 330.81543 
L 639.651142 331.637977 
L 648.279883 332.169972 
L 656.908625 332.689691 
L 665.537367 333.348547 
L 674.166109 333.901004 
L 682.794851 334.322508 
L 691.423593 334.985456 
L 700.052335 335.173701 
L 708.681077 335.394684 
L 717.309819 335.648405 
L 725.938561 335.922587 
L 734.567303 336.159939 
L 743.196045 336.622366 
L 751.824787 336.585535 
L 760.453529 336.884271 
L 769.082271 337.117531 
L 777.711013 337.26076 
L 786.339755 337.281222 
L 794.968497 337.539035 
L 803.597239 337.813217 
L 812.225981 337.809125 
L 820.854723 337.776387 
L 829.483465 337.784571 
L 838.112207 337.899155 
L 846.740949 338.050569 
L 855.369691 338.054661 
L 863.998433 338.263367 
L 872.627175 338.120138 
L 881.255917 338.222444 
L 889.884659 338.296105 
L 898.5134 338.365674 
L 907.142142 338.402504 
L 915.770884 338.390228 
L 924.399626 338.43115 
L 933.028368 338.500719 
L 941.65711 338.533457 
L 950.285852 338.467981 
" clip-path="url(#p59bd3369e8)" style="fill: none; stroke: #f7a35c; stroke-linecap: square"/>
   </g>
   <g id="line2d_23">
    <path d="M 96.040398 338.770809 
L 104.66914 338.770809 
L 113.297882 338.770809 
L 121.926624 338.770809 
L 130.555366 338.770809 
L 139.184108 338.770809 
L 147.81285 338.770809 
L 156.441591 338.770809 
L 165.070333 338.770809 
L 173.699075 338.770809 
L 182.327817 338.770809 
L 190.956559 338.770809 
L 199.585301 338.770809 
L 208.214043 338.770809 
L 216.842785 338.770809 
L 225.471527 338.770809 
L 234.100269 338.770809 
L 242.729011 338.770809 
L 251.357753 338.770809 
L 259.986495 329.17852 
L 268.615237 153.415381 
L 277.243979 134.38631 
L 285.872721 129.696565 
L 294.501463 128.227439 
L 303.130205 128.509806 
L 311.758947 132.422019 
L 320.387689 132.794416 
L 329.016431 136.436539 
L 337.645173 142.464458 
L 346.273915 148.578314 
L 354.902657 151.663888 
L 363.531399 162.52069 
L 372.160141 171.134925 
L 380.788883 181.120072 
L 389.417625 196.204191 
L 398.046367 209.594109 
L 406.675108 225.709482 
L 415.30385 239.087123 
L 423.932592 252.256059 
L 432.561334 262.818216 
L 441.190076 271.95217 
L 449.818818 278.025104 
L 458.44756 284.159422 
L 467.076302 289.491654 
L 475.705044 294.304167 
L 484.333786 298.89979 
L 492.962528 301.866688 
L 501.59127 305.214168 
L 510.220012 308.774446 
L 518.848754 305.459704 
L 527.477496 313.947079 
L 536.106238 315.534881 
L 544.73498 317.568741 
L 553.363722 319.602601 
L 561.992464 321.755137 
L 570.621206 323.50663 
L 579.249948 324.816157 
L 587.87869 326.203438 
L 596.507432 327.316536 
L 605.136174 328.360066 
L 613.764916 330.258881 
L 622.393658 330.177035 
L 631.0224 331.35561 
L 639.651142 332.16588 
L 648.279883 332.640584 
L 656.908625 333.037534 
L 665.537367 333.901004 
L 674.166109 333.941927 
L 682.794851 334.731735 
L 691.423593 335.173701 
L 700.052335 335.529729 
L 708.681077 335.681143 
L 717.309819 335.869387 
L 725.938561 336.249969 
L 734.567303 336.221323 
L 743.196045 336.331814 
L 751.824787 336.798333 
L 760.453529 336.871994 
L 769.082271 336.941563 
L 777.711013 337.342606 
L 786.339755 337.146177 
L 794.968497 337.289406 
L 803.597239 337.616788 
L 812.225981 337.796848 
L 820.854723 337.694541 
L 829.483465 337.76411 
L 838.112207 337.968724 
L 846.740949 338.075123 
L 855.369691 338.193799 
L 863.998433 338.140599 
L 872.627175 338.120138 
L 881.255917 338.197891 
L 889.884659 338.292013 
L 898.5134 338.332936 
L 907.142142 338.398412 
L 915.770884 338.398412 
L 924.399626 338.410689 
L 933.028368 338.435243 
L 941.65711 338.500719 
L 950.285852 338.549826 
" clip-path="url(#p59bd3369e8)" style="fill: none; stroke: #8085e9; stroke-linecap: square"/>
   </g>
   <g id="line2d_24">
    <path d="M 96.040398 338.770809 
L 104.66914 338.770809 
L 113.297882 338.770809 
L 121.926624 338.770809 
L 130.555366 338.770809 
L 139.184108 338.770809 
L 147.81285 338.770809 
L 156.441591 338.770809 
L 165.070333 338.770809 
L 173.699075 338.770809 
L 182.327817 338.770809 
L 190.956559 338.770809 
L 199.585301 338.770809 
L 208.214043 338.770809 
L 216.842785 338.770809 
L 225.471527 338.770809 
L 234.100269 338.770809 
L 242.729011 338.770809 
L 251.357753 338.770809 
L 259.986495 327.819886 
L 268.615237 145.779199 
L 277.243979 130.105793 
L 285.872721 123.631816 
L 294.501463 120.010154 
L 303.130205 119.686865 
L 311.758947 122.236351 
L 320.387689 120.898178 
L 329.016431 123.455848 
L 337.645173 124.544393 
L 346.273915 129.606535 
L 354.902657 133.567856 
L 363.531399 141.036255 
L 372.160141 150.108825 
L 380.788883 160.801935 
L 389.417625 177.502502 
L 398.046367 189.398741 
L 406.675108 214.54576 
L 415.30385 233.304741 
L 423.932592 260.285099 
L 432.561334 278.737159 
L 441.190076 293.800818 
L 449.818818 300.786328 
L 458.44756 306.454127 
L 467.076302 309.19595 
L 475.705044 310.943351 
L 484.333786 313.402807 
L 492.962528 314.810549 
L 501.59127 316.819855 
L 510.220012 319.099251 
L 518.848754 318.861899 
L 527.477496 321.673291 
L 536.106238 322.446731 
L 544.73498 323.870842 
L 553.363722 324.914372 
L 561.992464 326.375313 
L 570.621206 327.37792 
L 579.249948 328.049053 
L 587.87869 328.896154 
L 596.507432 329.636855 
L 605.136174 330.324357 
L 613.764916 331.306503 
L 622.393658 331.75256 
L 631.0224 332.517815 
L 639.651142 332.894305 
L 648.279883 333.540884 
L 656.908625 333.774143 
L 665.537367 334.171094 
L 674.166109 334.576229 
L 682.794851 334.948626 
L 691.423593 335.251454 
L 700.052335 335.717973 
L 708.681077 335.816188 
L 717.309819 336.061724 
L 725.938561 336.454582 
L 734.567303 336.761503 
L 743.196045 336.72058 
L 751.824787 336.970209 
L 760.453529 337.219838 
L 769.082271 337.334421 
L 777.711013 337.408082 
L 786.339755 337.40399 
L 794.968497 337.555404 
L 803.597239 337.768202 
L 812.225981 337.809125 
L 820.854723 337.862324 
L 829.483465 337.817309 
L 838.112207 338.058754 
L 846.740949 338.046477 
L 855.369691 338.173337 
L 863.998433 338.246998 
L 872.627175 338.189706 
L 881.255917 338.255183 
L 889.884659 338.312474 
L 898.5134 338.386135 
L 907.142142 338.373859 
L 915.770884 338.390228 
L 924.399626 338.496627 
L 933.028368 338.463889 
L 941.65711 338.545734 
L 950.285852 338.541642 
" clip-path="url(#p59bd3369e8)" style="fill: none; stroke: #f15c80; stroke-linecap: square"/>
   </g>
   <g id="line2d_25">
    <path d="M 53.328125 338.770809 
L 992.998125 338.770809 
" clip-path="url(#p59bd3369e8)" style="fill: none; stroke: #dedede; stroke-width: 2; stroke-linecap: square"/>
   </g>
   <g id="text_16">
    <!-- RSeQC: Inner Distance -->
    <g transform="translate(432.248125 19.3575) scale(0.16 -0.16)">
     <defs>
      <path id="DejaVuSans-52" d="M 2841 2188 
Q 3044 2119 3236 1894 
Q 3428 1669 3622 1275 
L 4263 0 
L 3584 0 
L 2988 1197 
Q 2756 1666 2539 1819 
Q 2322 1972 1947 1972 
L 1259 1972 
L 1259 0 
L 628 0 
L 628 4666 
L 2053 4666 
Q 2853 4666 3247 4331 
Q 3641 3997 3641 3322 
Q 3641 2881 3436 2590 
Q 3231 2300 2841 2188 
z
M 1259 4147 
L 1259 2491 
L 2053 2491 
Q 2509 2491 2742 2702 
Q 2975 2913 2975 3322 
Q 2975 3731 2742 3939 
Q 2509 4147 2053 4147 
L 1259 4147 
z
" transform="scale(0.015625)"/>
      <path id="DejaVuSans-53" d="M 3425 4513 
L 3425 3897 
Q 3066 4069 2747 4153 
Q 2428 4238 2131 4238 
Q 1616 4238 1336 4038 
Q 1056 3838 1056 3469 
Q 1056 3159 1242 3001 
Q 1428 2844 1947 2747 
L 2328 2669 
Q 3034 2534 3370 2195 
Q 3706 1856 3706 1288 
Q 3706 609 3251 259 
Q 2797 -91 1919 -91 
Q 1588 -91 1214 -16 
Q 841 59 441 206 
L 441 856 
Q 825 641 1194 531 
Q 1563 422 1919 422 
Q 2459 422 2753 634 
Q 3047 847 3047 1241 
Q 3047 1584 2836 1778 
Q 2625 1972 2144 2069 
L 1759 2144 
Q 1053 2284 737 2584 
Q 422 2884 422 3419 
Q 422 4038 858 4394 
Q 1294 4750 2059 4750 
Q 2388 4750 2728 4690 
Q 3069 4631 3425 4513 
z
" transform="scale(0.015625)"/>
      <path id="DejaVuSans-51" d="M 2522 4238 
Q 1834 4238 1429 3725 
Q 1025 3213 1025 2328 
Q 1025 1447 1429 934 
Q 1834 422 2522 422 
Q 3209 422 3611 934 
Q 4013 1447 4013 2328 
Q 4013 3213 3611 3725 
Q 3209 4238 2522 4238 
z
M 3406 84 
L 4238 -825 
L 3475 -825 
L 2784 -78 
Q 2681 -84 2626 -87 
Q 2572 -91 2522 -91 
Q 1538 -91 948 567 
Q 359 1225 359 2328 
Q 359 3434 948 4092 
Q 1538 4750 2522 4750 
Q 3503 4750 4090 4092 
Q 4678 3434 4678 2328 
Q 4678 1516 4351 937 
Q 4025 359 3406 84 
z
" transform="scale(0.015625)"/>
      <path id="DejaVuSans-3a" d="M 750 794 
L 1409 794 
L 1409 0 
L 750 0 
L 750 794 
z
M 750 3309 
L 1409 3309 
L 1409 2516 
L 750 2516 
L 750 3309 
z
" transform="scale(0.015625)"/>
     </defs>
     <use xlink:href="#DejaVuSans-52"/>
     <use xlink:href="#DejaVuSans-53" x="69.482422"/>
     <use xlink:href="#DejaVuSans-65" x="132.958984"/>
     <use xlink:href="#DejaVuSans-51" x="194.482422"/>
     <use xlink:href="#DejaVuSans-43" x="273.193359"/>
     <use xlink:href="#DejaVuSans-3a" x="343.017578"/>
     <use xlink:href="#DejaVuSans-20" x="376.708984"/>
     <use xlink:href="#DejaVuSans-49" x="408.496094"/>
     <use xlink:href="#DejaVuSans-6e" x="437.988281"/>
     <use xlink:href="#DejaVuSans-6e" x="501.367188"/>
     <use xlink:href="#DejaVuSans-65" x="564.746094"/>
     <use xlink:href="#DejaVuSans-72" x="626.269531"/>
     <use xlink:href="#DejaVuSans-20" x="667.382812"/>
     <use xlink:href="#DejaVuSans-44" x="699.169922"/>
     <use xlink:href="#DejaVuSans-69" x="776.171875"/>
     <use xlink:href="#DejaVuSans-73" x="803.955078"/>
     <use xlink:href="#DejaVuSans-74" x="856.054688"/>
     <use xlink:href="#DejaVuSans-61" x="895.263672"/>
     <use xlink:href="#DejaVuSans-6e" x="956.542969"/>
     <use xlink:href="#DejaVuSans-63" x="1019.921875"/>
     <use xlink:href="#DejaVuSans-65" x="1074.902344"/>
    </g>
   </g>
  </g>
 </g>
 <defs>
  <clipPath id="p59bd3369e8">
   <rect x="53.328125" y="35.2559" width="939.67" height="317.968"/>
  </clipPath>
 </defs>
</svg>
