<?xml version="1.0" encoding="utf-8" standalone="no"?>
<!DOCTYPE svg PUBLIC "-//W3C//DTD SVG 1.1//EN"
  "http://www.w3.org/Graphics/SVG/1.1/DTD/svg11.dtd">
<svg xmlns:xlink="http://www.w3.org/1999/xlink" width="1000.318125pt" height="388.844525pt" viewBox="0 0 1000.318125 388.844525" xmlns="http://www.w3.org/2000/svg" version="1.1">
 <metadata>
  <rdf:RDF xmlns:dc="http://purl.org/dc/elements/1.1/" xmlns:cc="http://creativecommons.org/ns#" xmlns:rdf="http://www.w3.org/1999/02/22-rdf-syntax-ns#">
   <cc:Work>
    <dc:type rdf:resource="http://purl.org/dc/dcmitype/StillImage"/>
    <dc:date>2024-08-15T09:46:31.693426</dc:date>
    <dc:format>image/svg+xml</dc:format>
    <dc:creator>
     <cc:Agent>
      <dc:title>Matplotlib v3.8.2, https://matplotlib.org/</dc:title>
     </cc:Agent>
    </dc:creator>
   </cc:Work>
  </rdf:RDF>
 </metadata>
 <defs>
  <style type="text/css">*{stroke-linejoin: round; stroke-linecap: butt}</style>
 </defs>
 <g id="figure_1">
  <g id="axes_1">
   <g id="patch_1">
    <path d="M 38.058125 353.2239 
L 993.118125 353.2239 
L 993.118125 35.2559 
L 38.058125 35.2559 
z
" style="fill: #ffffff"/>
   </g>
   <g id="patch_2">
    <path d="M 38.058125 134.570625 
L 955.533397 134.570625 
L 955.533397 -427.680655 
L 38.058125 -427.680655 
z
" clip-path="url(#pc3feb7479a)" style="fill: #c3e6c3"/>
   </g>
   <g id="patch_3">
    <path d="M 38.058125 197.042989 
L 955.533397 197.042989 
L 955.533397 134.570625 
L 38.058125 134.570625 
z
" clip-path="url(#pc3feb7479a)" style="fill: #e6dcc3"/>
   </g>
   <g id="patch_4">
    <path d="M 38.058125 353.2239 
L 955.533397 353.2239 
L 955.533397 197.042989 
L 38.058125 197.042989 
z
" clip-path="url(#pc3feb7479a)" style="fill: #e6c3c3"/>
   </g>
   <g id="matplotlib.axis_1">
    <g id="xtick_1">
     <g id="text_1">
      <!-- 0 -->
      <g transform="translate(73.097853 366.30265) scale(0.08 -0.08)">
       <defs>
        <path id="DejaVuSans-30" d="M 2034 4250 
Q 1547 4250 1301 3770 
Q 1056 3291 1056 2328 
Q 1056 1369 1301 889 
Q 1547 409 2034 409 
Q 2525 409 2770 889 
Q 3016 1369 3016 2328 
Q 3016 3291 2770 3770 
Q 2525 4250 2034 4250 
z
M 2034 4750 
Q 2819 4750 3233 4129 
Q 3647 3509 3647 2328 
Q 3647 1150 3233 529 
Q 2819 -91 2034 -91 
Q 1250 -91 836 529 
Q 422 1150 422 2328 
Q 422 3509 836 4129 
Q 1250 4750 2034 4750 
z
" transform="scale(0.015625)"/>
       </defs>
       <use xlink:href="#DejaVuSans-30"/>
      </g>
     </g>
    </g>
    <g id="xtick_2">
     <g id="text_2">
      <!-- 20 -->
      <g transform="translate(187.094647 366.30265) scale(0.08 -0.08)">
       <defs>
        <path id="DejaVuSans-32" d="M 1228 531 
L 3431 531 
L 3431 0 
L 469 0 
L 469 531 
Q 828 903 1448 1529 
Q 2069 2156 2228 2338 
Q 2531 2678 2651 2914 
Q 2772 3150 2772 3378 
Q 2772 3750 2511 3984 
Q 2250 4219 1831 4219 
Q 1534 4219 1204 4116 
Q 875 4013 500 3803 
L 500 4441 
Q 881 4594 1212 4672 
Q 1544 4750 1819 4750 
Q 2544 4750 2975 4387 
Q 3406 4025 3406 3419 
Q 3406 3131 3298 2873 
Q 3191 2616 2906 2266 
Q 2828 2175 2409 1742 
Q 1991 1309 1228 531 
z
" transform="scale(0.015625)"/>
       </defs>
       <use xlink:href="#DejaVuSans-32"/>
       <use xlink:href="#DejaVuSans-30" x="63.623047"/>
      </g>
     </g>
    </g>
    <g id="xtick_3">
     <g id="text_3">
      <!-- 40 -->
      <g transform="translate(303.636441 366.30265) scale(0.08 -0.08)">
       <defs>
        <path id="DejaVuSans-34" d="M 2419 4116 
L 825 1625 
L 2419 1625 
L 2419 4116 
z
M 2253 4666 
L 3047 4666 
L 3047 1625 
L 3713 1625 
L 3713 1100 
L 3047 1100 
L 3047 0 
L 2419 0 
L 2419 1100 
L 313 1100 
L 313 1709 
L 2253 4666 
z
" transform="scale(0.015625)"/>
       </defs>
       <use xlink:href="#DejaVuSans-34"/>
       <use xlink:href="#DejaVuSans-30" x="63.623047"/>
      </g>
     </g>
    </g>
    <g id="xtick_4">
     <g id="text_4">
      <!-- 60 -->
      <g transform="translate(420.178235 366.30265) scale(0.08 -0.08)">
       <defs>
        <path id="DejaVuSans-36" d="M 2113 2584 
Q 1688 2584 1439 2293 
Q 1191 2003 1191 1497 
Q 1191 994 1439 701 
Q 1688 409 2113 409 
Q 2538 409 2786 701 
Q 3034 994 3034 1497 
Q 3034 2003 2786 2293 
Q 2538 2584 2113 2584 
z
M 3366 4563 
L 3366 3988 
Q 3128 4100 2886 4159 
Q 2644 4219 2406 4219 
Q 1781 4219 1451 3797 
Q 1122 3375 1075 2522 
Q 1259 2794 1537 2939 
Q 1816 3084 2150 3084 
Q 2853 3084 3261 2657 
Q 3669 2231 3669 1497 
Q 3669 778 3244 343 
Q 2819 -91 2113 -91 
Q 1303 -91 875 529 
Q 447 1150 447 2328 
Q 447 3434 972 4092 
Q 1497 4750 2381 4750 
Q 2619 4750 2861 4703 
Q 3103 4656 3366 4563 
z
" transform="scale(0.015625)"/>
       </defs>
       <use xlink:href="#DejaVuSans-36"/>
       <use xlink:href="#DejaVuSans-30" x="63.623047"/>
      </g>
     </g>
    </g>
    <g id="xtick_5">
     <g id="text_5">
      <!-- 80 -->
      <g transform="translate(536.720029 366.30265) scale(0.08 -0.08)">
       <defs>
        <path id="DejaVuSans-38" d="M 2034 2216 
Q 1584 2216 1326 1975 
Q 1069 1734 1069 1313 
Q 1069 891 1326 650 
Q 1584 409 2034 409 
Q 2484 409 2743 651 
Q 3003 894 3003 1313 
Q 3003 1734 2745 1975 
Q 2488 2216 2034 2216 
z
M 1403 2484 
Q 997 2584 770 2862 
Q 544 3141 544 3541 
Q 544 4100 942 4425 
Q 1341 4750 2034 4750 
Q 2731 4750 3128 4425 
Q 3525 4100 3525 3541 
Q 3525 3141 3298 2862 
Q 3072 2584 2669 2484 
Q 3125 2378 3379 2068 
Q 3634 1759 3634 1313 
Q 3634 634 3220 271 
Q 2806 -91 2034 -91 
Q 1263 -91 848 271 
Q 434 634 434 1313 
Q 434 1759 690 2068 
Q 947 2378 1403 2484 
z
M 1172 3481 
Q 1172 3119 1398 2916 
Q 1625 2713 2034 2713 
Q 2441 2713 2670 2916 
Q 2900 3119 2900 3481 
Q 2900 3844 2670 4047 
Q 2441 4250 2034 4250 
Q 1625 4250 1398 4047 
Q 1172 3844 1172 3481 
z
" transform="scale(0.015625)"/>
       </defs>
       <use xlink:href="#DejaVuSans-38"/>
       <use xlink:href="#DejaVuSans-30" x="63.623047"/>
      </g>
     </g>
    </g>
    <g id="xtick_6">
     <g id="text_6">
      <!-- 100 -->
      <g transform="translate(650.716822 366.30265) scale(0.08 -0.08)">
       <defs>
        <path id="DejaVuSans-31" d="M 794 531 
L 1825 531 
L 1825 4091 
L 703 3866 
L 703 4441 
L 1819 4666 
L 2450 4666 
L 2450 531 
L 3481 531 
L 3481 0 
L 794 0 
L 794 531 
z
" transform="scale(0.015625)"/>
       </defs>
       <use xlink:href="#DejaVuSans-31"/>
       <use xlink:href="#DejaVuSans-30" x="63.623047"/>
       <use xlink:href="#DejaVuSans-30" x="127.246094"/>
      </g>
     </g>
    </g>
    <g id="xtick_7">
     <g id="text_7">
      <!-- 120 -->
      <g transform="translate(767.258616 366.30265) scale(0.08 -0.08)">
       <use xlink:href="#DejaVuSans-31"/>
       <use xlink:href="#DejaVuSans-32" x="63.623047"/>
       <use xlink:href="#DejaVuSans-30" x="127.246094"/>
      </g>
     </g>
    </g>
    <g id="xtick_8">
     <g id="text_8">
      <!-- 140 -->
      <g transform="translate(883.80041 366.30265) scale(0.08 -0.08)">
       <use xlink:href="#DejaVuSans-31"/>
       <use xlink:href="#DejaVuSans-34" x="63.623047"/>
       <use xlink:href="#DejaVuSans-30" x="127.246094"/>
      </g>
     </g>
    </g>
    <g id="text_9">
     <!-- Position (bp) -->
     <g transform="translate(484.285 379.564837) scale(0.1 -0.1)">
      <defs>
       <path id="DejaVuSans-50" d="M 1259 4147 
L 1259 2394 
L 2053 2394 
Q 2494 2394 2734 2622 
Q 2975 2850 2975 3272 
Q 2975 3691 2734 3919 
Q 2494 4147 2053 4147 
L 1259 4147 
z
M 628 4666 
L 2053 4666 
Q 2838 4666 3239 4311 
Q 3641 3956 3641 3272 
Q 3641 2581 3239 2228 
Q 2838 1875 2053 1875 
L 1259 1875 
L 1259 0 
L 628 0 
L 628 4666 
z
" transform="scale(0.015625)"/>
       <path id="DejaVuSans-6f" d="M 1959 3097 
Q 1497 3097 1228 2736 
Q 959 2375 959 1747 
Q 959 1119 1226 758 
Q 1494 397 1959 397 
Q 2419 397 2687 759 
Q 2956 1122 2956 1747 
Q 2956 2369 2687 2733 
Q 2419 3097 1959 3097 
z
M 1959 3584 
Q 2709 3584 3137 3096 
Q 3566 2609 3566 1747 
Q 3566 888 3137 398 
Q 2709 -91 1959 -91 
Q 1206 -91 779 398 
Q 353 888 353 1747 
Q 353 2609 779 3096 
Q 1206 3584 1959 3584 
z
" transform="scale(0.015625)"/>
       <path id="DejaVuSans-73" d="M 2834 3397 
L 2834 2853 
Q 2591 2978 2328 3040 
Q 2066 3103 1784 3103 
Q 1356 3103 1142 2972 
Q 928 2841 928 2578 
Q 928 2378 1081 2264 
Q 1234 2150 1697 2047 
L 1894 2003 
Q 2506 1872 2764 1633 
Q 3022 1394 3022 966 
Q 3022 478 2636 193 
Q 2250 -91 1575 -91 
Q 1294 -91 989 -36 
Q 684 19 347 128 
L 347 722 
Q 666 556 975 473 
Q 1284 391 1588 391 
Q 1994 391 2212 530 
Q 2431 669 2431 922 
Q 2431 1156 2273 1281 
Q 2116 1406 1581 1522 
L 1381 1569 
Q 847 1681 609 1914 
Q 372 2147 372 2553 
Q 372 3047 722 3315 
Q 1072 3584 1716 3584 
Q 2034 3584 2315 3537 
Q 2597 3491 2834 3397 
z
" transform="scale(0.015625)"/>
       <path id="DejaVuSans-69" d="M 603 3500 
L 1178 3500 
L 1178 0 
L 603 0 
L 603 3500 
z
M 603 4863 
L 1178 4863 
L 1178 4134 
L 603 4134 
L 603 4863 
z
" transform="scale(0.015625)"/>
       <path id="DejaVuSans-74" d="M 1172 4494 
L 1172 3500 
L 2356 3500 
L 2356 3053 
L 1172 3053 
L 1172 1153 
Q 1172 725 1289 603 
Q 1406 481 1766 481 
L 2356 481 
L 2356 0 
L 1766 0 
Q 1100 0 847 248 
Q 594 497 594 1153 
L 594 3053 
L 172 3053 
L 172 3500 
L 594 3500 
L 594 4494 
L 1172 4494 
z
" transform="scale(0.015625)"/>
       <path id="DejaVuSans-6e" d="M 3513 2113 
L 3513 0 
L 2938 0 
L 2938 2094 
Q 2938 2591 2744 2837 
Q 2550 3084 2163 3084 
Q 1697 3084 1428 2787 
Q 1159 2491 1159 1978 
L 1159 0 
L 581 0 
L 581 3500 
L 1159 3500 
L 1159 2956 
Q 1366 3272 1645 3428 
Q 1925 3584 2291 3584 
Q 2894 3584 3203 3211 
Q 3513 2838 3513 2113 
z
" transform="scale(0.015625)"/>
       <path id="DejaVuSans-20" transform="scale(0.015625)"/>
       <path id="DejaVuSans-28" d="M 1984 4856 
Q 1566 4138 1362 3434 
Q 1159 2731 1159 2009 
Q 1159 1288 1364 580 
Q 1569 -128 1984 -844 
L 1484 -844 
Q 1016 -109 783 600 
Q 550 1309 550 2009 
Q 550 2706 781 3412 
Q 1013 4119 1484 4856 
L 1984 4856 
z
" transform="scale(0.015625)"/>
       <path id="DejaVuSans-62" d="M 3116 1747 
Q 3116 2381 2855 2742 
Q 2594 3103 2138 3103 
Q 1681 3103 1420 2742 
Q 1159 2381 1159 1747 
Q 1159 1113 1420 752 
Q 1681 391 2138 391 
Q 2594 391 2855 752 
Q 3116 1113 3116 1747 
z
M 1159 2969 
Q 1341 3281 1617 3432 
Q 1894 3584 2278 3584 
Q 2916 3584 3314 3078 
Q 3713 2572 3713 1747 
Q 3713 922 3314 415 
Q 2916 -91 2278 -91 
Q 1894 -91 1617 61 
Q 1341 213 1159 525 
L 1159 0 
L 581 0 
L 581 4863 
L 1159 4863 
L 1159 2969 
z
" transform="scale(0.015625)"/>
       <path id="DejaVuSans-70" d="M 1159 525 
L 1159 -1331 
L 581 -1331 
L 581 3500 
L 1159 3500 
L 1159 2969 
Q 1341 3281 1617 3432 
Q 1894 3584 2278 3584 
Q 2916 3584 3314 3078 
Q 3713 2572 3713 1747 
Q 3713 922 3314 415 
Q 2916 -91 2278 -91 
Q 1894 -91 1617 61 
Q 1341 213 1159 525 
z
M 3116 1747 
Q 3116 2381 2855 2742 
Q 2594 3103 2138 3103 
Q 1681 3103 1420 2742 
Q 1159 2381 1159 1747 
Q 1159 1113 1420 752 
Q 1681 391 2138 391 
Q 2594 391 2855 752 
Q 3116 1113 3116 1747 
z
" transform="scale(0.015625)"/>
       <path id="DejaVuSans-29" d="M 513 4856 
L 1013 4856 
Q 1481 4119 1714 3412 
Q 1947 2706 1947 2009 
Q 1947 1309 1714 600 
Q 1481 -109 1013 -844 
L 513 -844 
Q 928 -128 1133 580 
Q 1338 1288 1338 2009 
Q 1338 2731 1133 3434 
Q 928 4138 513 4856 
z
" transform="scale(0.015625)"/>
      </defs>
      <use xlink:href="#DejaVuSans-50"/>
      <use xlink:href="#DejaVuSans-6f" x="56.677734"/>
      <use xlink:href="#DejaVuSans-73" x="117.859375"/>
      <use xlink:href="#DejaVuSans-69" x="169.958984"/>
      <use xlink:href="#DejaVuSans-74" x="197.742188"/>
      <use xlink:href="#DejaVuSans-69" x="236.951172"/>
      <use xlink:href="#DejaVuSans-6f" x="264.734375"/>
      <use xlink:href="#DejaVuSans-6e" x="325.916016"/>
      <use xlink:href="#DejaVuSans-20" x="389.294922"/>
      <use xlink:href="#DejaVuSans-28" x="421.082031"/>
      <use xlink:href="#DejaVuSans-62" x="460.095703"/>
      <use xlink:href="#DejaVuSans-70" x="523.572266"/>
      <use xlink:href="#DejaVuSans-29" x="587.048828"/>
     </g>
    </g>
   </g>
   <g id="matplotlib.axis_2">
    <g id="ytick_1">
     <g id="line2d_1">
      <path d="M 38.058125 353.2239 
L 993.118125 353.2239 
" clip-path="url(#pc3feb7479a)" style="fill: none; stroke: #dedede; stroke-linecap: square"/>
     </g>
     <g id="text_10">
      <!-- 0 -->
      <g transform="translate(25.968125 356.263275) scale(0.08 -0.08)">
       <use xlink:href="#DejaVuSans-30"/>
      </g>
     </g>
    </g>
    <g id="ytick_2">
     <g id="line2d_2">
      <path d="M 38.058125 314.178672 
L 993.118125 314.178672 
" clip-path="url(#pc3feb7479a)" style="fill: none; stroke: #dedede; stroke-linecap: square"/>
     </g>
     <g id="text_11">
      <!-- 5 -->
      <g transform="translate(25.968125 317.218047) scale(0.08 -0.08)">
       <defs>
        <path id="DejaVuSans-35" d="M 691 4666 
L 3169 4666 
L 3169 4134 
L 1269 4134 
L 1269 2991 
Q 1406 3038 1543 3061 
Q 1681 3084 1819 3084 
Q 2600 3084 3056 2656 
Q 3513 2228 3513 1497 
Q 3513 744 3044 326 
Q 2575 -91 1722 -91 
Q 1428 -91 1123 -41 
Q 819 9 494 109 
L 494 744 
Q 775 591 1075 516 
Q 1375 441 1709 441 
Q 2250 441 2565 725 
Q 2881 1009 2881 1497 
Q 2881 1984 2565 2268 
Q 2250 2553 1709 2553 
Q 1456 2553 1204 2497 
Q 953 2441 691 2322 
L 691 4666 
z
" transform="scale(0.015625)"/>
       </defs>
       <use xlink:href="#DejaVuSans-35"/>
      </g>
     </g>
    </g>
    <g id="ytick_3">
     <g id="line2d_3">
      <path d="M 38.058125 275.133444 
L 993.118125 275.133444 
" clip-path="url(#pc3feb7479a)" style="fill: none; stroke: #dedede; stroke-linecap: square"/>
     </g>
     <g id="text_12">
      <!-- 10 -->
      <g transform="translate(20.878125 278.172819) scale(0.08 -0.08)">
       <use xlink:href="#DejaVuSans-31"/>
       <use xlink:href="#DejaVuSans-30" x="63.623047"/>
      </g>
     </g>
    </g>
    <g id="ytick_4">
     <g id="line2d_4">
      <path d="M 38.058125 236.088217 
L 993.118125 236.088217 
" clip-path="url(#pc3feb7479a)" style="fill: none; stroke: #dedede; stroke-linecap: square"/>
     </g>
     <g id="text_13">
      <!-- 15 -->
      <g transform="translate(20.878125 239.127592) scale(0.08 -0.08)">
       <use xlink:href="#DejaVuSans-31"/>
       <use xlink:href="#DejaVuSans-35" x="63.623047"/>
      </g>
     </g>
    </g>
    <g id="ytick_5">
     <g id="line2d_5">
      <path d="M 38.058125 197.042989 
L 993.118125 197.042989 
" clip-path="url(#pc3feb7479a)" style="fill: none; stroke: #dedede; stroke-linecap: square"/>
     </g>
     <g id="text_14">
      <!-- 20 -->
      <g transform="translate(20.878125 200.082364) scale(0.08 -0.08)">
       <use xlink:href="#DejaVuSans-32"/>
       <use xlink:href="#DejaVuSans-30" x="63.623047"/>
      </g>
     </g>
    </g>
    <g id="ytick_6">
     <g id="line2d_6">
      <path d="M 38.058125 157.997761 
L 993.118125 157.997761 
" clip-path="url(#pc3feb7479a)" style="fill: none; stroke: #dedede; stroke-linecap: square"/>
     </g>
     <g id="text_15">
      <!-- 25 -->
      <g transform="translate(20.878125 161.037136) scale(0.08 -0.08)">
       <use xlink:href="#DejaVuSans-32"/>
       <use xlink:href="#DejaVuSans-35" x="63.623047"/>
      </g>
     </g>
    </g>
    <g id="ytick_7">
     <g id="line2d_7">
      <path d="M 38.058125 118.952533 
L 993.118125 118.952533 
" clip-path="url(#pc3feb7479a)" style="fill: none; stroke: #dedede; stroke-linecap: square"/>
     </g>
     <g id="text_16">
      <!-- 30 -->
      <g transform="translate(20.878125 121.991908) scale(0.08 -0.08)">
       <defs>
        <path id="DejaVuSans-33" d="M 2597 2516 
Q 3050 2419 3304 2112 
Q 3559 1806 3559 1356 
Q 3559 666 3084 287 
Q 2609 -91 1734 -91 
Q 1441 -91 1130 -33 
Q 819 25 488 141 
L 488 750 
Q 750 597 1062 519 
Q 1375 441 1716 441 
Q 2309 441 2620 675 
Q 2931 909 2931 1356 
Q 2931 1769 2642 2001 
Q 2353 2234 1838 2234 
L 1294 2234 
L 1294 2753 
L 1863 2753 
Q 2328 2753 2575 2939 
Q 2822 3125 2822 3475 
Q 2822 3834 2567 4026 
Q 2313 4219 1838 4219 
Q 1578 4219 1281 4162 
Q 984 4106 628 3988 
L 628 4550 
Q 988 4650 1302 4700 
Q 1616 4750 1894 4750 
Q 2613 4750 3031 4423 
Q 3450 4097 3450 3541 
Q 3450 3153 3228 2886 
Q 3006 2619 2597 2516 
z
" transform="scale(0.015625)"/>
       </defs>
       <use xlink:href="#DejaVuSans-33"/>
       <use xlink:href="#DejaVuSans-30" x="63.623047"/>
      </g>
     </g>
    </g>
    <g id="ytick_8">
     <g id="line2d_8">
      <path d="M 38.058125 79.907306 
L 993.118125 79.907306 
" clip-path="url(#pc3feb7479a)" style="fill: none; stroke: #dedede; stroke-linecap: square"/>
     </g>
     <g id="text_17">
      <!-- 35 -->
      <g transform="translate(20.878125 82.946681) scale(0.08 -0.08)">
       <use xlink:href="#DejaVuSans-33"/>
       <use xlink:href="#DejaVuSans-35" x="63.623047"/>
      </g>
     </g>
    </g>
    <g id="ytick_9">
     <g id="line2d_9">
      <path d="M 38.058125 40.862078 
L 993.118125 40.862078 
" clip-path="url(#pc3feb7479a)" style="fill: none; stroke: #dedede; stroke-linecap: square"/>
     </g>
     <g id="text_18">
      <!-- 40 -->
      <g transform="translate(20.878125 43.901453) scale(0.08 -0.08)">
       <use xlink:href="#DejaVuSans-34"/>
       <use xlink:href="#DejaVuSans-30" x="63.623047"/>
      </g>
     </g>
    </g>
    <g id="text_19">
     <!-- Phred Score -->
     <g transform="translate(14.798438 224.20865) rotate(-90) scale(0.1 -0.1)">
      <defs>
       <path id="DejaVuSans-68" d="M 3513 2113 
L 3513 0 
L 2938 0 
L 2938 2094 
Q 2938 2591 2744 2837 
Q 2550 3084 2163 3084 
Q 1697 3084 1428 2787 
Q 1159 2491 1159 1978 
L 1159 0 
L 581 0 
L 581 4863 
L 1159 4863 
L 1159 2956 
Q 1366 3272 1645 3428 
Q 1925 3584 2291 3584 
Q 2894 3584 3203 3211 
Q 3513 2838 3513 2113 
z
" transform="scale(0.015625)"/>
       <path id="DejaVuSans-72" d="M 2631 2963 
Q 2534 3019 2420 3045 
Q 2306 3072 2169 3072 
Q 1681 3072 1420 2755 
Q 1159 2438 1159 1844 
L 1159 0 
L 581 0 
L 581 3500 
L 1159 3500 
L 1159 2956 
Q 1341 3275 1631 3429 
Q 1922 3584 2338 3584 
Q 2397 3584 2469 3576 
Q 2541 3569 2628 3553 
L 2631 2963 
z
" transform="scale(0.015625)"/>
       <path id="DejaVuSans-65" d="M 3597 1894 
L 3597 1613 
L 953 1613 
Q 991 1019 1311 708 
Q 1631 397 2203 397 
Q 2534 397 2845 478 
Q 3156 559 3463 722 
L 3463 178 
Q 3153 47 2828 -22 
Q 2503 -91 2169 -91 
Q 1331 -91 842 396 
Q 353 884 353 1716 
Q 353 2575 817 3079 
Q 1281 3584 2069 3584 
Q 2775 3584 3186 3129 
Q 3597 2675 3597 1894 
z
M 3022 2063 
Q 3016 2534 2758 2815 
Q 2500 3097 2075 3097 
Q 1594 3097 1305 2825 
Q 1016 2553 972 2059 
L 3022 2063 
z
" transform="scale(0.015625)"/>
       <path id="DejaVuSans-64" d="M 2906 2969 
L 2906 4863 
L 3481 4863 
L 3481 0 
L 2906 0 
L 2906 525 
Q 2725 213 2448 61 
Q 2172 -91 1784 -91 
Q 1150 -91 751 415 
Q 353 922 353 1747 
Q 353 2572 751 3078 
Q 1150 3584 1784 3584 
Q 2172 3584 2448 3432 
Q 2725 3281 2906 2969 
z
M 947 1747 
Q 947 1113 1208 752 
Q 1469 391 1925 391 
Q 2381 391 2643 752 
Q 2906 1113 2906 1747 
Q 2906 2381 2643 2742 
Q 2381 3103 1925 3103 
Q 1469 3103 1208 2742 
Q 947 2381 947 1747 
z
" transform="scale(0.015625)"/>
       <path id="DejaVuSans-53" d="M 3425 4513 
L 3425 3897 
Q 3066 4069 2747 4153 
Q 2428 4238 2131 4238 
Q 1616 4238 1336 4038 
Q 1056 3838 1056 3469 
Q 1056 3159 1242 3001 
Q 1428 2844 1947 2747 
L 2328 2669 
Q 3034 2534 3370 2195 
Q 3706 1856 3706 1288 
Q 3706 609 3251 259 
Q 2797 -91 1919 -91 
Q 1588 -91 1214 -16 
Q 841 59 441 206 
L 441 856 
Q 825 641 1194 531 
Q 1563 422 1919 422 
Q 2459 422 2753 634 
Q 3047 847 3047 1241 
Q 3047 1584 2836 1778 
Q 2625 1972 2144 2069 
L 1759 2144 
Q 1053 2284 737 2584 
Q 422 2884 422 3419 
Q 422 4038 858 4394 
Q 1294 4750 2059 4750 
Q 2388 4750 2728 4690 
Q 3069 4631 3425 4513 
z
" transform="scale(0.015625)"/>
       <path id="DejaVuSans-63" d="M 3122 3366 
L 3122 2828 
Q 2878 2963 2633 3030 
Q 2388 3097 2138 3097 
Q 1578 3097 1268 2742 
Q 959 2388 959 1747 
Q 959 1106 1268 751 
Q 1578 397 2138 397 
Q 2388 397 2633 464 
Q 2878 531 3122 666 
L 3122 134 
Q 2881 22 2623 -34 
Q 2366 -91 2075 -91 
Q 1284 -91 818 406 
Q 353 903 353 1747 
Q 353 2603 823 3093 
Q 1294 3584 2113 3584 
Q 2378 3584 2631 3529 
Q 2884 3475 3122 3366 
z
" transform="scale(0.015625)"/>
      </defs>
      <use xlink:href="#DejaVuSans-50"/>
      <use xlink:href="#DejaVuSans-68" x="60.302734"/>
      <use xlink:href="#DejaVuSans-72" x="123.681641"/>
      <use xlink:href="#DejaVuSans-65" x="162.544922"/>
      <use xlink:href="#DejaVuSans-64" x="224.068359"/>
      <use xlink:href="#DejaVuSans-20" x="287.544922"/>
      <use xlink:href="#DejaVuSans-53" x="319.332031"/>
      <use xlink:href="#DejaVuSans-63" x="382.808594"/>
      <use xlink:href="#DejaVuSans-6f" x="437.789062"/>
      <use xlink:href="#DejaVuSans-72" x="498.970703"/>
      <use xlink:href="#DejaVuSans-65" x="537.833984"/>
     </g>
    </g>
   </g>
   <g id="line2d_10">
    <path d="M 81.469943 115.571624 
L 87.297033 108.679314 
L 93.124123 84.388272 
L 98.951212 73.621632 
L 104.778302 70.760071 
L 110.605392 44.113744 
L 116.432481 42.20751 
L 122.259571 41.281757 
L 128.086661 40.859685 
L 145.56793 40.254857 
L 174.703378 40.425197 
L 203.838827 40.711121 
L 232.974275 41.32892 
L 262.109724 42.257436 
L 291.245172 42.773399 
L 320.38062 43.084403 
L 349.516069 43.406029 
L 378.651517 43.748183 
L 407.786966 44.276697 
L 436.922414 44.673829 
L 466.057863 45.275794 
L 495.193311 45.560929 
L 524.32876 47.335513 
L 553.464208 44.464185 
L 582.599656 44.629479 
L 611.735105 45.392913 
L 640.870553 46.022946 
L 670.006002 47.080339 
L 699.14145 48.032597 
L 728.276899 49.329908 
L 757.412347 50.701447 
L 786.547796 52.141603 
L 815.683244 53.485439 
L 844.818692 55.391334 
L 873.954141 57.492751 
L 903.089589 59.655696 
L 932.225038 60.962475 
L 949.706307 53.924095 
" clip-path="url(#pc3feb7479a)" style="fill: none; stroke: #5cb85c; stroke-linecap: square"/>
   </g>
   <g id="line2d_11">
    <path d="M 81.469943 112.225501 
L 87.297033 110.279252 
L 93.124123 87.046901 
L 98.951212 77.746491 
L 104.778302 74.975971 
L 110.605392 50.444398 
L 116.432481 50.313479 
L 122.259571 49.411702 
L 128.086661 49.020765 
L 145.56793 48.827843 
L 174.703378 50.058732 
L 203.838827 50.922985 
L 232.974275 52.238103 
L 262.109724 52.146858 
L 291.245172 55.597592 
L 320.38062 56.804165 
L 349.516069 58.077504 
L 378.651517 58.41814 
L 407.786966 59.347845 
L 436.922414 59.790011 
L 466.057863 60.907852 
L 495.193311 61.990768 
L 524.32876 64.920782 
L 553.464208 59.342051 
L 582.599656 60.904869 
L 611.735105 62.875198 
L 640.870553 64.636656 
L 670.006002 67.168358 
L 699.14145 70.027438 
L 728.276899 73.823971 
L 757.412347 77.644375 
L 786.547796 82.102787 
L 815.683244 87.96846 
L 844.818692 93.275063 
L 873.954141 98.972596 
L 903.089589 104.574193 
L 932.225038 102.418353 
L 949.706307 83.382405 
" clip-path="url(#pc3feb7479a)" style="fill: none; stroke: #5cb85c; stroke-linecap: square"/>
   </g>
   <g id="line2d_12">
    <path d="M 81.469943 116.683968 
L 87.297033 109.201022 
L 93.124123 85.717369 
L 98.951212 74.900471 
L 104.778302 71.169083 
L 110.605392 45.267267 
L 116.432481 43.140412 
L 122.259571 42.185194 
L 128.086661 41.578788 
L 145.56793 40.763222 
L 174.703378 40.943774 
L 203.838827 41.182092 
L 232.974275 41.839579 
L 262.109724 42.845082 
L 291.245172 43.258801 
L 320.38062 44.521731 
L 349.516069 44.467743 
L 378.651517 44.708581 
L 407.786966 45.441343 
L 436.922414 45.782061 
L 466.057863 46.213713 
L 495.193311 47.71898 
L 524.32876 49.582583 
L 553.464208 46.445759 
L 582.599656 46.663299 
L 611.735105 47.511283 
L 640.870553 48.185223 
L 670.006002 49.383863 
L 699.14145 50.360364 
L 728.276899 51.816191 
L 757.412347 53.288155 
L 786.547796 54.848195 
L 815.683244 56.600588 
L 844.818692 58.375384 
L 873.954141 60.238968 
L 903.089589 62.510928 
L 932.225038 63.73886 
L 949.706307 54.893896 
" clip-path="url(#pc3feb7479a)" style="fill: none; stroke: #5cb85c; stroke-linecap: square"/>
   </g>
   <g id="line2d_13">
    <path d="M 81.469943 113.005747 
L 87.297033 112.465833 
L 93.124123 91.378519 
L 98.951212 82.10467 
L 104.778302 79.790348 
L 110.605392 58.240773 
L 116.432481 57.475952 
L 122.259571 57.087255 
L 128.086661 55.232701 
L 145.56793 54.703701 
L 174.703378 56.487394 
L 203.838827 57.536721 
L 232.974275 59.303474 
L 262.109724 59.342276 
L 291.245172 63.765073 
L 320.38062 65.55267 
L 349.516069 66.938339 
L 378.651517 67.621836 
L 407.786966 69.233927 
L 436.922414 70.138884 
L 466.057863 70.954025 
L 495.193311 72.449599 
L 524.32876 77.634034 
L 553.464208 71.353511 
L 582.599656 73.37673 
L 611.735105 76.281023 
L 640.870553 79.017 
L 670.006002 82.340466 
L 699.14145 86.29305 
L 728.276899 91.296294 
L 757.412347 95.732843 
L 786.547796 100.663631 
L 815.683244 107.13544 
L 844.818692 113.387039 
L 873.954141 119.295298 
L 903.089589 125.405245 
L 932.225038 121.27277 
L 949.706307 93.25865 
" clip-path="url(#pc3feb7479a)" style="fill: none; stroke: #5cb85c; stroke-linecap: square"/>
   </g>
   <g id="line2d_14">
    <path d="M 81.469943 114.676626 
L 87.297033 108.227677 
L 93.124123 83.136692 
L 98.951212 73.291484 
L 104.778302 70.395819 
L 110.605392 43.73761 
L 116.432481 42.04551 
L 122.259571 41.042009 
L 128.086661 40.659671 
L 145.56793 40.043865 
L 174.703378 40.173596 
L 203.838827 40.481023 
L 232.974275 41.093627 
L 262.109724 42.00521 
L 291.245172 42.457005 
L 320.38062 42.976227 
L 349.516069 43.239711 
L 378.651517 43.611956 
L 407.786966 44.172883 
L 436.922414 44.609599 
L 466.057863 45.201346 
L 495.193311 45.72447 
L 524.32876 47.627186 
L 553.464208 44.986879 
L 582.599656 45.231839 
L 611.735105 46.072835 
L 640.870553 46.789955 
L 670.006002 47.944946 
L 699.14145 48.860108 
L 728.276899 50.259186 
L 757.412347 51.696194 
L 786.547796 53.151921 
L 815.683244 54.515563 
L 844.818692 56.428879 
L 873.954141 58.483871 
L 903.089589 60.614452 
L 932.225038 61.794677 
L 949.706307 54.241968 
" clip-path="url(#pc3feb7479a)" style="fill: none; stroke: #5cb85c; stroke-linecap: square"/>
   </g>
   <g id="line2d_15">
    <path d="M 81.469943 112.090105 
L 87.297033 109.678951 
L 93.124123 90.550771 
L 98.951212 77.505225 
L 104.778302 76.11023 
L 110.605392 55.504597 
L 116.432481 51.498564 
L 122.259571 50.482416 
L 128.086661 49.537759 
L 145.56793 49.283328 
L 174.703378 50.591005 
L 203.838827 51.598982 
L 232.974275 53.770886 
L 262.109724 53.077243 
L 291.245172 58.19586 
L 320.38062 59.646899 
L 349.516069 60.742229 
L 378.651517 60.927197 
L 407.786966 61.67681 
L 436.922414 62.279273 
L 466.057863 63.5344 
L 495.193311 65.075097 
L 524.32876 69.122713 
L 553.464208 63.346836 
L 582.599656 65.519443 
L 611.735105 68.054517 
L 640.870553 70.53379 
L 670.006002 73.740001 
L 699.14145 77.315028 
L 728.276899 81.769661 
L 757.412347 86.139132 
L 786.547796 91.010154 
L 815.683244 97.314314 
L 844.818692 103.029926 
L 873.954141 108.783943 
L 903.089589 114.262778 
L 932.225038 111.576572 
L 949.706307 89.080038 
" clip-path="url(#pc3feb7479a)" style="fill: none; stroke: #5cb85c; stroke-linecap: square"/>
   </g>
   <g id="line2d_16">
    <path d="M 81.469943 115.590085 
L 87.297033 109.019288 
L 93.124123 84.881883 
L 98.951212 74.889955 
L 104.778302 71.267878 
L 110.605392 45.010113 
L 116.432481 42.529454 
L 122.259571 41.990129 
L 128.086661 41.725479 
L 145.56793 40.947134 
L 174.703378 41.220738 
L 203.838827 41.721516 
L 232.974275 42.219527 
L 262.109724 43.076625 
L 291.245172 43.546319 
L 320.38062 43.844432 
L 349.516069 44.239962 
L 378.651517 44.640175 
L 407.786966 45.22843 
L 436.922414 45.890672 
L 466.057863 46.391384 
L 495.193311 46.752665 
L 524.32876 48.61606 
L 553.464208 45.277145 
L 582.599656 45.6731 
L 611.735105 46.51549 
L 640.870553 47.105229 
L 670.006002 48.326878 
L 699.14145 49.153303 
L 728.276899 50.572822 
L 757.412347 51.685357 
L 786.547796 53.49142 
L 815.683244 54.464492 
L 844.818692 56.549325 
L 873.954141 58.078908 
L 903.089589 60.501517 
L 932.225038 61.63747 
L 949.706307 52.962647 
" clip-path="url(#pc3feb7479a)" style="fill: none; stroke: #5cb85c; stroke-linecap: square"/>
   </g>
   <g id="line2d_17">
    <path d="M 81.469943 112.241557 
L 87.297033 110.242777 
L 93.124123 90.096297 
L 98.951212 79.834477 
L 104.778302 77.665828 
L 110.605392 56.429541 
L 116.432481 53.433521 
L 122.259571 52.892877 
L 128.086661 52.005143 
L 145.56793 51.263897 
L 174.703378 52.684679 
L 203.838827 54.779753 
L 232.974275 56.326805 
L 262.109724 55.56979 
L 291.245172 60.549534 
L 320.38062 61.795895 
L 349.516069 63.04543 
L 378.651517 63.239652 
L 407.786966 64.202267 
L 436.922414 64.581725 
L 466.057863 65.942614 
L 495.193311 67.556817 
L 524.32876 71.076301 
L 553.464208 65.309114 
L 582.599656 67.338429 
L 611.735105 69.851299 
L 640.870553 72.298046 
L 670.006002 75.239534 
L 699.14145 78.662702 
L 728.276899 83.127215 
L 757.412347 87.227458 
L 786.547796 91.845294 
L 815.683244 97.790077 
L 844.818692 104.222019 
L 873.954141 110.68179 
L 903.089589 115.407404 
L 932.225038 111.922415 
L 949.706307 86.736416 
" clip-path="url(#pc3feb7479a)" style="fill: none; stroke: #5cb85c; stroke-linecap: square"/>
   </g>
   <g id="line2d_18">
    <path d="M 81.469943 111.248535 
L 87.297033 106.418164 
L 93.124123 81.196546 
L 98.951212 72.99072 
L 104.778302 70.531859 
L 110.605392 43.819044 
L 116.432481 42.04458 
L 122.259571 41.642814 
L 128.086661 40.761726 
L 145.56793 40.292108 
L 174.703378 40.422623 
L 203.838827 40.712141 
L 232.974275 41.425446 
L 262.109724 42.408951 
L 291.245172 42.881793 
L 320.38062 43.94574 
L 349.516069 43.803635 
L 378.651517 43.993238 
L 407.786966 44.680639 
L 436.922414 45.005299 
L 466.057863 45.46648 
L 495.193311 47.006626 
L 524.32876 48.715435 
L 553.464208 45.820545 
L 582.599656 45.952659 
L 611.735105 46.725318 
L 640.870553 47.36848 
L 670.006002 48.442715 
L 699.14145 49.365783 
L 728.276899 50.686532 
L 757.412347 52.081197 
L 786.547796 53.544552 
L 815.683244 54.920526 
L 844.818692 56.877099 
L 873.954141 59.108447 
L 903.089589 61.195503 
L 932.225038 62.40087 
L 949.706307 54.536947 
" clip-path="url(#pc3feb7479a)" style="fill: none; stroke: #5cb85c; stroke-linecap: square"/>
   </g>
   <g id="line2d_19">
    <path d="M 81.469943 112.406314 
L 87.297033 110.597441 
L 93.124123 88.333259 
L 98.951212 79.608357 
L 104.778302 77.207322 
L 110.605392 54.081903 
L 116.432481 54.603971 
L 122.259571 54.331951 
L 128.086661 52.768937 
L 145.56793 51.787128 
L 174.703378 53.386005 
L 203.838827 54.141465 
L 232.974275 55.501838 
L 262.109724 55.50542 
L 291.245172 59.489262 
L 320.38062 61.050745 
L 349.516069 62.529343 
L 378.651517 62.84141 
L 407.786966 64.490255 
L 436.922414 65.55326 
L 466.057863 66.290271 
L 495.193311 67.343181 
L 524.32876 72.131281 
L 553.464208 66.073524 
L 582.599656 68.097708 
L 611.735105 70.638807 
L 640.870553 73.222859 
L 670.006002 76.432049 
L 699.14145 79.858181 
L 728.276899 84.231184 
L 757.412347 88.675614 
L 786.547796 93.649715 
L 815.683244 99.870537 
L 844.818692 105.767338 
L 873.954141 111.771319 
L 903.089589 117.418149 
L 932.225038 114.665471 
L 949.706307 91.063863 
" clip-path="url(#pc3feb7479a)" style="fill: none; stroke: #5cb85c; stroke-linecap: square"/>
   </g>
   <g id="line2d_20">
    <path d="M 81.469943 111.317123 
L 87.297033 106.77899 
L 93.124123 82.158275 
L 98.951212 73.43818 
L 104.778302 70.756925 
L 110.605392 44.303745 
L 116.432481 42.560846 
L 122.259571 42.165054 
L 128.086661 41.105071 
L 145.56793 40.578041 
L 174.703378 40.608958 
L 203.838827 41.048512 
L 232.974275 41.734724 
L 262.109724 42.745844 
L 291.245172 43.199356 
L 320.38062 43.446781 
L 349.516069 43.846312 
L 378.651517 44.243341 
L 407.786966 44.804132 
L 436.922414 45.249436 
L 466.057863 45.857492 
L 495.193311 46.058954 
L 524.32876 47.83609 
L 553.464208 44.884917 
L 582.599656 45.017986 
L 611.735105 45.802629 
L 640.870553 46.41414 
L 670.006002 47.442927 
L 699.14145 48.309428 
L 728.276899 49.555348 
L 757.412347 50.853959 
L 786.547796 52.220913 
L 815.683244 53.446932 
L 844.818692 55.217601 
L 873.954141 57.210192 
L 903.089589 59.102188 
L 932.225038 60.154638 
L 949.706307 53.383755 
" clip-path="url(#pc3feb7479a)" style="fill: none; stroke: #5cb85c; stroke-linecap: square"/>
   </g>
   <g id="line2d_21">
    <path d="M 81.469943 115.669489 
L 87.297033 113.299233 
L 93.124123 94.982541 
L 98.951212 83.13616 
L 104.778302 81.346541 
L 110.605392 59.197288 
L 116.432481 59.621028 
L 122.259571 59.768155 
L 128.086661 57.57224 
L 145.56793 56.243053 
L 174.703378 57.786296 
L 203.838827 59.508669 
L 232.974275 61.61602 
L 262.109724 61.056461 
L 291.245172 66.302908 
L 320.38062 68.318502 
L 349.516069 69.976658 
L 378.651517 70.521657 
L 407.786966 71.688701 
L 436.922414 72.00283 
L 466.057863 73.633667 
L 495.193311 75.181584 
L 524.32876 78.124908 
L 553.464208 71.376776 
L 582.599656 73.313997 
L 611.735105 75.774391 
L 640.870553 78.127013 
L 670.006002 81.127784 
L 699.14145 84.433373 
L 728.276899 88.543465 
L 757.412347 92.652851 
L 786.547796 97.239125 
L 815.683244 102.98892 
L 844.818692 108.183892 
L 873.954141 113.394985 
L 903.089589 118.225624 
L 932.225038 114.641229 
L 949.706307 91.147853 
" clip-path="url(#pc3feb7479a)" style="fill: none; stroke: #5cb85c; stroke-linecap: square"/>
   </g>
   <g id="line2d_22">
    <path d="M 81.469943 111.872816 
L 87.297033 106.656186 
L 93.124123 82.287195 
L 98.951212 73.023677 
L 104.778302 70.78191 
L 110.605392 44.342295 
L 116.432481 42.612866 
L 122.259571 42.24511 
L 128.086661 41.177318 
L 145.56793 40.553455 
L 174.703378 40.64297 
L 203.838827 41.081922 
L 232.974275 41.750826 
L 262.109724 42.684782 
L 291.245172 43.230795 
L 320.38062 43.708753 
L 349.516069 43.969009 
L 378.651517 44.29353 
L 407.786966 44.903773 
L 436.922414 45.289597 
L 466.057863 45.869301 
L 495.193311 46.412656 
L 524.32876 48.156507 
L 553.464208 45.192661 
L 582.599656 45.328457 
L 611.735105 46.103292 
L 640.870553 46.708072 
L 670.006002 47.768914 
L 699.14145 48.638529 
L 728.276899 49.876505 
L 757.412347 51.177996 
L 786.547796 52.558198 
L 815.683244 53.825037 
L 844.818692 55.585779 
L 873.954141 57.71916 
L 903.089589 59.625414 
L 932.225038 60.645804 
L 949.706307 53.617586 
" clip-path="url(#pc3feb7479a)" style="fill: none; stroke: #5cb85c; stroke-linecap: square"/>
   </g>
   <g id="line2d_23">
    <path d="M 81.469943 112.872549 
L 87.297033 110.758336 
L 93.124123 89.767126 
L 98.951212 79.696077 
L 104.778302 76.808089 
L 110.605392 54.960056 
L 116.432481 53.455517 
L 122.259571 53.249351 
L 128.086661 52.134539 
L 145.56793 51.497101 
L 174.703378 53.097098 
L 203.838827 54.483556 
L 232.974275 56.265122 
L 262.109724 55.28104 
L 291.245172 60.19297 
L 320.38062 61.569649 
L 349.516069 62.862845 
L 378.651517 63.095196 
L 407.786966 64.266145 
L 436.922414 64.599715 
L 466.057863 65.71358 
L 495.193311 66.932972 
L 524.32876 70.521713 
L 553.464208 64.289924 
L 582.599656 66.01755 
L 611.735105 68.261488 
L 640.870553 70.377157 
L 670.006002 73.155301 
L 699.14145 76.114365 
L 728.276899 79.9634 
L 757.412347 83.727665 
L 786.547796 87.950611 
L 815.683244 93.468614 
L 844.818692 98.429125 
L 873.954141 103.577455 
L 903.089589 108.590774 
L 932.225038 105.638343 
L 949.706307 85.28612 
" clip-path="url(#pc3feb7479a)" style="fill: none; stroke: #5cb85c; stroke-linecap: square"/>
   </g>
   <g id="line2d_24">
    <path d="M 81.469943 111.560102 
L 87.297033 106.197124 
L 93.124123 80.589639 
L 98.951212 72.14353 
L 104.778302 70.04542 
L 110.605392 43.075952 
L 116.432481 41.474174 
L 122.259571 41.210243 
L 128.086661 40.304735 
L 145.56793 39.857527 
L 174.703378 39.947317 
L 203.838827 40.34017 
L 232.974275 40.980218 
L 262.109724 41.911936 
L 291.245172 42.426515 
L 320.38062 42.637041 
L 349.516069 42.968561 
L 378.651517 43.297414 
L 407.786966 43.784214 
L 436.922414 44.212623 
L 466.057863 44.831829 
L 495.193311 45.131422 
L 524.32876 46.878243 
L 553.464208 44.235783 
L 582.599656 44.409159 
L 611.735105 45.215553 
L 640.870553 45.850795 
L 670.006002 46.918485 
L 699.14145 47.798833 
L 728.276899 49.070476 
L 757.412347 50.343337 
L 786.547796 51.726593 
L 815.683244 52.977628 
L 844.818692 54.751846 
L 873.954141 56.662378 
L 903.089589 58.657079 
L 932.225038 59.776549 
L 949.706307 53.121486 
" clip-path="url(#pc3feb7479a)" style="fill: none; stroke: #5cb85c; stroke-linecap: square"/>
   </g>
   <g id="line2d_25">
    <path d="M 81.469943 115.645325 
L 87.297033 111.537885 
L 93.124123 90.646011 
L 98.951212 80.262666 
L 104.778302 76.421249 
L 110.605392 54.010719 
L 116.432481 52.194206 
L 122.259571 51.599889 
L 128.086661 51.043877 
L 145.56793 51.012941 
L 174.703378 52.066385 
L 203.838827 53.78883 
L 232.974275 55.822769 
L 262.109724 55.370688 
L 291.245172 60.345129 
L 320.38062 61.966018 
L 349.516069 63.358216 
L 378.651517 63.878341 
L 407.786966 64.977605 
L 436.922414 65.549041 
L 466.057863 67.00721 
L 495.193311 68.830616 
L 524.32876 72.392813 
L 553.464208 66.386873 
L 582.599656 68.581995 
L 611.735105 71.284454 
L 640.870553 73.84666 
L 670.006002 77.176217 
L 699.14145 80.828557 
L 728.276899 85.420771 
L 757.412347 89.985245 
L 786.547796 95.068217 
L 815.683244 101.32077 
L 844.818692 107.114094 
L 873.954141 112.864774 
L 903.089589 118.231677 
L 932.225038 115.289144 
L 949.706307 91.960689 
" clip-path="url(#pc3feb7479a)" style="fill: none; stroke: #5cb85c; stroke-linecap: square"/>
   </g>
   <g id="line2d_26">
    <path d="M 81.469943 111.303928 
L 87.297033 106.450514 
L 93.124123 79.928122 
L 98.951212 71.222388 
L 104.778302 69.591482 
L 110.605392 42.55356 
L 116.432481 41.738915 
L 122.259571 40.675983 
L 128.086661 40.27303 
L 145.56793 39.903867 
L 174.703378 40.222658 
L 203.838827 40.155633 
L 232.974275 40.906652 
L 262.109724 41.734279 
L 291.245172 42.349327 
L 320.38062 44.500079 
L 349.516069 43.69272 
L 378.651517 43.630743 
L 407.786966 44.488248 
L 436.922414 44.793992 
L 466.057863 44.994112 
L 495.193311 48.596088 
L 524.32876 50.398579 
L 553.464208 47.585086 
L 582.599656 47.892552 
L 611.735105 48.810529 
L 640.870553 49.771734 
L 670.006002 51.179348 
L 699.14145 52.417248 
L 728.276899 54.150986 
L 757.412347 55.880059 
L 786.547796 57.641081 
L 815.683244 59.349015 
L 844.818692 61.573829 
L 873.954141 64.125446 
L 903.089589 66.60052 
L 932.225038 67.925303 
L 949.706307 58.301777 
" clip-path="url(#pc3feb7479a)" style="fill: none; stroke: #5cb85c; stroke-linecap: square"/>
   </g>
   <g id="line2d_27">
    <path d="M 81.469943 111.457849 
L 87.297033 109.832169 
L 93.124123 87.249221 
L 98.951212 77.872961 
L 104.778302 76.16462 
L 110.605392 53.368615 
L 116.432481 52.254024 
L 122.259571 52.000038 
L 128.086661 50.786762 
L 145.56793 50.668724 
L 174.703378 52.467342 
L 203.838827 51.808334 
L 232.974275 54.237012 
L 262.109724 54.211265 
L 291.245172 59.30447 
L 320.38062 59.274384 
L 349.516069 60.895556 
L 378.651517 61.062753 
L 407.786966 63.206162 
L 436.922414 65.152177 
L 466.057863 65.065534 
L 495.193311 65.172524 
L 524.32876 73.121576 
L 553.464208 66.99618 
L 582.599656 69.66927 
L 611.735105 72.501524 
L 640.870553 75.813343 
L 670.006002 79.838296 
L 699.14145 84.022449 
L 728.276899 89.299838 
L 757.412347 94.305343 
L 786.547796 99.710028 
L 815.683244 106.450018 
L 844.818692 112.357988 
L 873.954141 118.478556 
L 903.089589 124.06049 
L 932.225038 121.337331 
L 949.706307 95.667537 
" clip-path="url(#pc3feb7479a)" style="fill: none; stroke: #5cb85c; stroke-linecap: square"/>
   </g>
   <g id="line2d_28">
    <path d="M 81.469943 113.547394 
L 87.297033 107.024146 
L 93.124123 81.977786 
L 98.951212 72.687945 
L 104.778302 70.303575 
L 110.605392 43.921598 
L 116.432481 43.479835 
L 122.259571 41.882814 
L 128.086661 40.99081 
L 145.56793 40.54043 
L 174.703378 40.554758 
L 203.838827 40.951778 
L 232.974275 41.61584 
L 262.109724 42.580687 
L 291.245172 43.098641 
L 320.38062 43.30687 
L 349.516069 43.695877 
L 378.651517 44.080871 
L 407.786966 44.650419 
L 436.922414 45.100742 
L 466.057863 45.697153 
L 495.193311 45.933597 
L 524.32876 47.695789 
L 553.464208 44.770513 
L 582.599656 44.901828 
L 611.735105 45.700223 
L 640.870553 46.319688 
L 670.006002 47.359811 
L 699.14145 48.240506 
L 728.276899 49.500271 
L 757.412347 50.791458 
L 786.547796 52.189759 
L 815.683244 53.445963 
L 844.818692 55.233291 
L 873.954141 57.342304 
L 903.089589 59.24335 
L 932.225038 60.333353 
L 949.706307 53.400296 
" clip-path="url(#pc3feb7479a)" style="fill: none; stroke: #5cb85c; stroke-linecap: square"/>
   </g>
   <g id="line2d_29">
    <path d="M 81.469943 115.259872 
L 87.297033 112.886585 
L 93.124123 94.153579 
L 98.951212 82.212504 
L 104.778302 81.091158 
L 110.605392 58.557566 
L 116.432481 59.286134 
L 122.259571 59.274424 
L 128.086661 57.222863 
L 145.56793 55.713948 
L 174.703378 57.494898 
L 203.838827 59.151954 
L 232.974275 61.04111 
L 262.109724 60.490966 
L 291.245172 66.003069 
L 320.38062 67.707373 
L 349.516069 69.335579 
L 378.651517 69.851119 
L 407.786966 70.992135 
L 436.922414 71.189067 
L 466.057863 72.792926 
L 495.193311 74.4491 
L 524.32876 77.446953 
L 553.464208 70.934339 
L 582.599656 72.926852 
L 611.735105 75.53794 
L 640.870553 78.102647 
L 670.006002 81.353989 
L 699.14145 84.778759 
L 728.276899 89.192371 
L 757.412347 93.472596 
L 786.547796 98.30129 
L 815.683244 104.214827 
L 844.818692 109.692214 
L 873.954141 115.083268 
L 903.089589 120.079119 
L 932.225038 116.496438 
L 949.706307 92.403463 
" clip-path="url(#pc3feb7479a)" style="fill: none; stroke: #5cb85c; stroke-linecap: square"/>
   </g>
   <g id="line2d_30">
    <path d="M 81.469943 113.523259 
L 87.297033 107.163259 
L 93.124123 82.220325 
L 98.951212 72.752259 
L 104.778302 70.428604 
L 110.605392 44.031213 
L 116.432481 43.601153 
L 122.259571 41.977081 
L 128.086661 41.136824 
L 145.56793 40.65986 
L 174.703378 40.67945 
L 203.838827 41.049912 
L 232.974275 41.727794 
L 262.109724 42.637615 
L 291.245172 43.179747 
L 320.38062 43.623943 
L 349.516069 43.882106 
L 378.651517 44.245649 
L 407.786966 44.836723 
L 436.922414 45.229736 
L 466.057863 45.77561 
L 495.193311 46.320321 
L 524.32876 48.089104 
L 553.464208 45.118409 
L 582.599656 45.23172 
L 611.735105 45.993251 
L 640.870553 46.585659 
L 670.006002 47.603233 
L 699.14145 48.456133 
L 728.276899 49.727918 
L 757.412347 50.962225 
L 786.547796 52.333415 
L 815.683244 53.548803 
L 844.818692 55.280834 
L 873.954141 57.364479 
L 903.089589 59.299954 
L 932.225038 60.367722 
L 949.706307 53.235058 
" clip-path="url(#pc3feb7479a)" style="fill: none; stroke: #5cb85c; stroke-linecap: square"/>
   </g>
   <g id="line2d_31">
    <path d="M 81.469943 112.393201 
L 87.297033 110.579643 
L 93.124123 89.799411 
L 98.951212 79.153778 
L 104.778302 77.096665 
L 110.605392 54.980591 
L 116.432481 53.225093 
L 122.259571 52.679193 
L 128.086661 51.757228 
L 145.56793 51.131989 
L 174.703378 52.774497 
L 203.838827 53.931055 
L 232.974275 55.948696 
L 262.109724 54.943645 
L 291.245172 60.092817 
L 320.38062 61.177538 
L 349.516069 62.486885 
L 378.651517 62.669907 
L 407.786966 63.774129 
L 436.922414 63.975581 
L 466.057863 65.187366 
L 495.193311 66.313595 
L 524.32876 69.874841 
L 553.464208 63.664524 
L 582.599656 65.36644 
L 611.735105 67.580484 
L 640.870553 69.674238 
L 670.006002 72.415482 
L 699.14145 75.318241 
L 728.276899 79.154541 
L 757.412347 82.868732 
L 786.547796 87.113003 
L 815.683244 92.59414 
L 844.818692 97.58052 
L 873.954141 102.81101 
L 903.089589 107.837855 
L 932.225038 104.912332 
L 949.706307 84.676593 
" clip-path="url(#pc3feb7479a)" style="fill: none; stroke: #5cb85c; stroke-linecap: square"/>
   </g>
   <g id="line2d_32">
    <path d="M 81.469943 113.087134 
L 87.297033 107.051606 
L 93.124123 81.777329 
L 98.951212 72.483128 
L 104.778302 70.28426 
L 110.605392 43.677578 
L 116.432481 43.311901 
L 122.259571 41.737664 
L 128.086661 41.032803 
L 145.56793 40.606831 
L 174.703378 40.580411 
L 203.838827 40.95205 
L 232.974275 41.63585 
L 262.109724 42.606314 
L 291.245172 43.148577 
L 320.38062 43.430129 
L 349.516069 43.768785 
L 378.651517 44.128638 
L 407.786966 44.707411 
L 436.922414 45.098705 
L 466.057863 45.747862 
L 495.193311 46.110989 
L 524.32876 47.907806 
L 553.464208 44.98162 
L 582.599656 45.11534 
L 611.735105 45.905379 
L 640.870553 46.512164 
L 670.006002 47.589011 
L 699.14145 48.491927 
L 728.276899 49.822466 
L 757.412347 51.134101 
L 786.547796 52.567627 
L 815.683244 53.963745 
L 844.818692 55.711328 
L 873.954141 57.704004 
L 903.089589 59.69407 
L 932.225038 60.819514 
L 949.706307 53.384319 
" clip-path="url(#pc3feb7479a)" style="fill: none; stroke: #5cb85c; stroke-linecap: square"/>
   </g>
   <g id="line2d_33">
    <path d="M 81.469943 117.73813 
L 87.297033 113.425357 
L 93.124123 94.436416 
L 98.951212 83.595241 
L 104.778302 79.769604 
L 110.605392 58.563358 
L 116.432481 56.944723 
L 122.259571 56.326626 
L 128.086661 55.574478 
L 145.56793 55.524271 
L 174.703378 56.975117 
L 203.838827 58.822294 
L 232.974275 60.834791 
L 262.109724 60.44014 
L 291.245172 65.672195 
L 320.38062 67.416373 
L 349.516069 69.112401 
L 378.651517 69.82572 
L 407.786966 71.106938 
L 436.922414 71.437896 
L 466.057863 72.995481 
L 495.193311 74.770678 
L 524.32876 78.163511 
L 553.464208 71.700421 
L 582.599656 73.926943 
L 611.735105 76.76813 
L 640.870553 79.556682 
L 670.006002 83.000089 
L 699.14145 86.849326 
L 728.276899 91.644965 
L 757.412347 96.241557 
L 786.547796 101.342893 
L 815.683244 107.755794 
L 844.818692 113.699272 
L 873.954141 119.493135 
L 903.089589 124.982359 
L 932.225038 121.136769 
L 949.706307 94.758504 
" clip-path="url(#pc3feb7479a)" style="fill: none; stroke: #5cb85c; stroke-linecap: square"/>
   </g>
   <g id="line2d_34">
    <path d="M 81.469943 108.363773 
L 87.297033 108.290823 
L 93.124123 79.499466 
L 98.951212 71.692898 
L 104.778302 70.105058 
L 110.605392 42.891902 
L 116.432481 42.372939 
L 122.259571 41.139657 
L 128.086661 40.173743 
L 145.56793 39.81508 
L 174.703378 39.941249 
L 203.838827 40.063765 
L 232.974275 40.684102 
L 262.109724 41.593336 
L 291.245172 42.110688 
L 320.38062 43.042735 
L 349.516069 43.238538 
L 378.651517 43.542479 
L 407.786966 44.354703 
L 436.922414 44.891763 
L 466.057863 45.423795 
L 495.193311 46.785728 
L 524.32876 49.278241 
L 553.464208 46.843775 
L 582.599656 47.326143 
L 611.735105 48.454251 
L 640.870553 49.582511 
L 670.006002 51.242347 
L 699.14145 52.474708 
L 728.276899 54.491103 
L 757.412347 56.575922 
L 786.547796 58.318528 
L 815.683244 60.208953 
L 844.818692 62.62314 
L 873.954141 65.344371 
L 903.089589 67.7718 
L 932.225038 69.213882 
L 949.706307 58.575122 
" clip-path="url(#pc3feb7479a)" style="fill: none; stroke: #5cb85c; stroke-linecap: square"/>
   </g>
   <g id="line2d_35">
    <path d="M 81.469943 110.671685 
L 87.297033 108.697699 
L 93.124123 85.623014 
L 98.951212 76.676372 
L 104.778302 74.782126 
L 110.605392 50.385849 
L 116.432481 50.785678 
L 122.259571 50.326899 
L 128.086661 48.651225 
L 145.56793 48.235265 
L 174.703378 49.883874 
L 203.838827 50.835675 
L 232.974275 52.642475 
L 262.109724 52.596578 
L 291.245172 57.70293 
L 320.38062 59.677481 
L 349.516069 61.381073 
L 378.651517 61.935773 
L 407.786966 62.7496 
L 436.922414 64.154745 
L 466.057863 65.419022 
L 495.193311 67.196638 
L 524.32876 73.075824 
L 553.464208 67.772901 
L 582.599656 71.142416 
L 611.735105 74.194257 
L 640.870553 77.858515 
L 670.006002 82.423276 
L 699.14145 87.751434 
L 728.276899 94.11912 
L 757.412347 99.15508 
L 786.547796 104.781724 
L 815.683244 112.596555 
L 844.818692 119.045935 
L 873.954141 125.351977 
L 903.089589 130.998675 
L 932.225038 127.396157 
L 949.706307 98.096636 
" clip-path="url(#pc3feb7479a)" style="fill: none; stroke: #5cb85c; stroke-linecap: square"/>
   </g>
   <g id="line2d_36">
    <path d="M 81.469943 109.589786 
L 87.297033 111.419686 
L 93.124123 81.727492 
L 98.951212 72.85766 
L 104.778302 70.693395 
L 110.605392 44.999877 
L 116.432481 44.927573 
L 122.259571 42.111187 
L 128.086661 41.084464 
L 145.56793 40.839313 
L 174.703378 40.73194 
L 203.838827 41.067066 
L 232.974275 41.66995 
L 262.109724 42.637789 
L 291.245172 43.097583 
L 320.38062 43.485215 
L 349.516069 43.828763 
L 378.651517 44.210033 
L 407.786966 44.708449 
L 436.922414 45.130716 
L 466.057863 45.753454 
L 495.193311 46.011344 
L 524.32876 47.858774 
L 553.464208 44.975371 
L 582.599656 45.146906 
L 611.735105 45.937376 
L 640.870553 46.600175 
L 670.006002 47.647654 
L 699.14145 48.548133 
L 728.276899 49.865603 
L 757.412347 51.18456 
L 786.547796 52.579206 
L 815.683244 53.837302 
L 844.818692 55.626356 
L 873.954141 57.511418 
L 903.089589 59.603296 
L 932.225038 60.741475 
L 949.706307 53.876812 
" clip-path="url(#pc3feb7479a)" style="fill: none; stroke: #5cb85c; stroke-linecap: square"/>
   </g>
   <g id="line2d_37">
    <path d="M 81.469943 114.703762 
L 87.297033 112.519922 
L 93.124123 96.600027 
L 98.951212 82.460916 
L 104.778302 80.563209 
L 110.605392 60.204856 
L 116.432481 57.450134 
L 122.259571 56.290941 
L 128.086661 54.93828 
L 145.56793 54.510334 
L 174.703378 55.900648 
L 203.838827 57.234282 
L 232.974275 59.620668 
L 262.109724 59.29888 
L 291.245172 65.246258 
L 320.38062 66.80155 
L 349.516069 68.096764 
L 378.651517 68.434497 
L 407.786966 69.254686 
L 436.922414 69.675986 
L 466.057863 71.057339 
L 495.193311 72.583039 
L 524.32876 75.703063 
L 553.464208 69.172885 
L 582.599656 71.125476 
L 611.735105 73.515766 
L 640.870553 75.782272 
L 670.006002 78.77662 
L 699.14145 82.151811 
L 728.276899 86.323716 
L 757.412347 90.485575 
L 786.547796 95.095857 
L 815.683244 100.947277 
L 844.818692 106.295801 
L 873.954141 111.572332 
L 903.089589 116.546919 
L 932.225038 113.318179 
L 949.706307 90.520935 
" clip-path="url(#pc3feb7479a)" style="fill: none; stroke: #5cb85c; stroke-linecap: square"/>
   </g>
   <g id="line2d_38">
    <path d="M 81.469943 108.903744 
L 87.297033 110.530568 
L 93.124123 81.388176 
L 98.951212 73.236314 
L 104.778302 71.154024 
L 110.605392 45.22415 
L 116.432481 44.636608 
L 122.259571 42.234239 
L 128.086661 41.505203 
L 145.56793 41.074919 
L 174.703378 41.272552 
L 203.838827 41.694733 
L 232.974275 42.176824 
L 262.109724 42.999615 
L 291.245172 43.439012 
L 320.38062 43.81077 
L 349.516069 44.190714 
L 378.651517 44.539692 
L 407.786966 45.061235 
L 436.922414 45.666582 
L 466.057863 46.20108 
L 495.193311 46.599449 
L 524.32876 48.536121 
L 553.464208 45.344738 
L 582.599656 45.639684 
L 611.735105 46.50644 
L 640.870553 47.055742 
L 670.006002 48.223082 
L 699.14145 49.059289 
L 728.276899 50.446645 
L 757.412347 51.632051 
L 786.547796 53.223272 
L 815.683244 54.308266 
L 844.818692 56.205278 
L 873.954141 57.954687 
L 903.089589 60.333061 
L 932.225038 61.427669 
L 949.706307 53.095125 
" clip-path="url(#pc3feb7479a)" style="fill: none; stroke: #5cb85c; stroke-linecap: square"/>
   </g>
   <g id="line2d_39">
    <path d="M 81.469943 112.636032 
L 87.297033 110.565237 
L 93.124123 90.776012 
L 98.951212 80.253815 
L 104.778302 77.631999 
L 110.605392 55.61175 
L 116.432481 53.928874 
L 122.259571 53.522849 
L 128.086661 52.136757 
L 145.56793 51.533995 
L 174.703378 53.061613 
L 203.838827 55.081907 
L 232.974275 56.832875 
L 262.109724 56.34648 
L 291.245172 61.698528 
L 320.38062 62.870233 
L 349.516069 64.367261 
L 378.651517 64.656699 
L 407.786966 65.542707 
L 436.922414 65.928164 
L 466.057863 67.294771 
L 495.193311 68.790609 
L 524.32876 72.262134 
L 553.464208 66.123322 
L 582.599656 68.03953 
L 611.735105 70.444444 
L 640.870553 72.658676 
L 670.006002 75.757325 
L 699.14145 79.018314 
L 728.276899 83.257081 
L 757.412347 87.183885 
L 786.547796 91.731819 
L 815.683244 97.341842 
L 844.818692 103.051924 
L 873.954141 109.074731 
L 903.089589 113.912979 
L 932.225038 110.472843 
L 949.706307 86.846258 
" clip-path="url(#pc3feb7479a)" style="fill: none; stroke: #5cb85c; stroke-linecap: square"/>
   </g>
   <g id="line2d_40">
    <path d="M 81.469943 108.87296 
L 87.297033 110.188568 
L 93.124123 80.395569 
L 98.951212 72.22621 
L 104.778302 70.203145 
L 110.605392 43.970924 
L 116.432481 43.840401 
L 122.259571 41.369315 
L 128.086661 40.49107 
L 145.56793 40.223656 
L 174.703378 40.193705 
L 203.838827 40.479078 
L 232.974275 41.03959 
L 262.109724 42.002569 
L 291.245172 42.489366 
L 320.38062 42.838153 
L 349.516069 43.086844 
L 378.651517 43.38773 
L 407.786966 43.897378 
L 436.922414 44.292008 
L 466.057863 44.917063 
L 495.193311 45.355424 
L 524.32876 47.1572 
L 553.464208 44.435975 
L 582.599656 44.615852 
L 611.735105 45.401287 
L 640.870553 46.065523 
L 670.006002 47.139302 
L 699.14145 48.059968 
L 728.276899 49.357204 
L 757.412347 50.668421 
L 786.547796 52.071744 
L 815.683244 53.32234 
L 844.818692 55.123337 
L 873.954141 57.105037 
L 903.089589 59.097021 
L 932.225038 60.233372 
L 949.706307 53.352182 
" clip-path="url(#pc3feb7479a)" style="fill: none; stroke: #5cb85c; stroke-linecap: square"/>
   </g>
   <g id="line2d_41">
    <path d="M 81.469943 116.016707 
L 87.297033 111.747584 
L 93.124123 91.848171 
L 98.951212 80.859115 
L 104.778302 77.200759 
L 110.605392 54.760793 
L 116.432481 53.36577 
L 122.259571 52.868565 
L 128.086661 52.057358 
L 145.56793 51.990997 
L 174.703378 53.17561 
L 203.838827 54.78385 
L 232.974275 56.740878 
L 262.109724 56.222213 
L 291.245172 61.221352 
L 320.38062 62.861592 
L 349.516069 64.202861 
L 378.651517 64.70895 
L 407.786966 65.732506 
L 436.922414 66.437543 
L 466.057863 67.824797 
L 495.193311 69.480298 
L 524.32876 73.109909 
L 553.464208 66.945842 
L 582.599656 69.192011 
L 611.735105 71.859125 
L 640.870553 74.506315 
L 670.006002 77.887892 
L 699.14145 81.558913 
L 728.276899 86.159454 
L 757.412347 90.675712 
L 786.547796 95.666445 
L 815.683244 101.911594 
L 844.818692 107.684602 
L 873.954141 113.352814 
L 903.089589 118.670975 
L 932.225038 115.566894 
L 949.706307 91.978319 
" clip-path="url(#pc3feb7479a)" style="fill: none; stroke: #5cb85c; stroke-linecap: square"/>
   </g>
   <g id="line2d_42">
    <path d="M 38.058125 353.2239 
L 993.118125 353.2239 
" clip-path="url(#pc3feb7479a)" style="fill: none; stroke: #dedede; stroke-width: 2; stroke-linecap: square"/>
   </g>
   <g id="text_20">
    <!-- FastQC: Mean Quality Scores -->
    <g transform="translate(400.349375 19.3575) scale(0.16 -0.16)">
     <defs>
      <path id="DejaVuSans-46" d="M 628 4666 
L 3309 4666 
L 3309 4134 
L 1259 4134 
L 1259 2759 
L 3109 2759 
L 3109 2228 
L 1259 2228 
L 1259 0 
L 628 0 
L 628 4666 
z
" transform="scale(0.015625)"/>
      <path id="DejaVuSans-61" d="M 2194 1759 
Q 1497 1759 1228 1600 
Q 959 1441 959 1056 
Q 959 750 1161 570 
Q 1363 391 1709 391 
Q 2188 391 2477 730 
Q 2766 1069 2766 1631 
L 2766 1759 
L 2194 1759 
z
M 3341 1997 
L 3341 0 
L 2766 0 
L 2766 531 
Q 2569 213 2275 61 
Q 1981 -91 1556 -91 
Q 1019 -91 701 211 
Q 384 513 384 1019 
Q 384 1609 779 1909 
Q 1175 2209 1959 2209 
L 2766 2209 
L 2766 2266 
Q 2766 2663 2505 2880 
Q 2244 3097 1772 3097 
Q 1472 3097 1187 3025 
Q 903 2953 641 2809 
L 641 3341 
Q 956 3463 1253 3523 
Q 1550 3584 1831 3584 
Q 2591 3584 2966 3190 
Q 3341 2797 3341 1997 
z
" transform="scale(0.015625)"/>
      <path id="DejaVuSans-51" d="M 2522 4238 
Q 1834 4238 1429 3725 
Q 1025 3213 1025 2328 
Q 1025 1447 1429 934 
Q 1834 422 2522 422 
Q 3209 422 3611 934 
Q 4013 1447 4013 2328 
Q 4013 3213 3611 3725 
Q 3209 4238 2522 4238 
z
M 3406 84 
L 4238 -825 
L 3475 -825 
L 2784 -78 
Q 2681 -84 2626 -87 
Q 2572 -91 2522 -91 
Q 1538 -91 948 567 
Q 359 1225 359 2328 
Q 359 3434 948 4092 
Q 1538 4750 2522 4750 
Q 3503 4750 4090 4092 
Q 4678 3434 4678 2328 
Q 4678 1516 4351 937 
Q 4025 359 3406 84 
z
" transform="scale(0.015625)"/>
      <path id="DejaVuSans-43" d="M 4122 4306 
L 4122 3641 
Q 3803 3938 3442 4084 
Q 3081 4231 2675 4231 
Q 1875 4231 1450 3742 
Q 1025 3253 1025 2328 
Q 1025 1406 1450 917 
Q 1875 428 2675 428 
Q 3081 428 3442 575 
Q 3803 722 4122 1019 
L 4122 359 
Q 3791 134 3420 21 
Q 3050 -91 2638 -91 
Q 1578 -91 968 557 
Q 359 1206 359 2328 
Q 359 3453 968 4101 
Q 1578 4750 2638 4750 
Q 3056 4750 3426 4639 
Q 3797 4528 4122 4306 
z
" transform="scale(0.015625)"/>
      <path id="DejaVuSans-3a" d="M 750 794 
L 1409 794 
L 1409 0 
L 750 0 
L 750 794 
z
M 750 3309 
L 1409 3309 
L 1409 2516 
L 750 2516 
L 750 3309 
z
" transform="scale(0.015625)"/>
      <path id="DejaVuSans-4d" d="M 628 4666 
L 1569 4666 
L 2759 1491 
L 3956 4666 
L 4897 4666 
L 4897 0 
L 4281 0 
L 4281 4097 
L 3078 897 
L 2444 897 
L 1241 4097 
L 1241 0 
L 628 0 
L 628 4666 
z
" transform="scale(0.015625)"/>
      <path id="DejaVuSans-75" d="M 544 1381 
L 544 3500 
L 1119 3500 
L 1119 1403 
Q 1119 906 1312 657 
Q 1506 409 1894 409 
Q 2359 409 2629 706 
Q 2900 1003 2900 1516 
L 2900 3500 
L 3475 3500 
L 3475 0 
L 2900 0 
L 2900 538 
Q 2691 219 2414 64 
Q 2138 -91 1772 -91 
Q 1169 -91 856 284 
Q 544 659 544 1381 
z
M 1991 3584 
L 1991 3584 
z
" transform="scale(0.015625)"/>
      <path id="DejaVuSans-6c" d="M 603 4863 
L 1178 4863 
L 1178 0 
L 603 0 
L 603 4863 
z
" transform="scale(0.015625)"/>
      <path id="DejaVuSans-79" d="M 2059 -325 
Q 1816 -950 1584 -1140 
Q 1353 -1331 966 -1331 
L 506 -1331 
L 506 -850 
L 844 -850 
Q 1081 -850 1212 -737 
Q 1344 -625 1503 -206 
L 1606 56 
L 191 3500 
L 800 3500 
L 1894 763 
L 2988 3500 
L 3597 3500 
L 2059 -325 
z
" transform="scale(0.015625)"/>
     </defs>
     <use xlink:href="#DejaVuSans-46"/>
     <use xlink:href="#DejaVuSans-61" x="48.394531"/>
     <use xlink:href="#DejaVuSans-73" x="109.673828"/>
     <use xlink:href="#DejaVuSans-74" x="161.773438"/>
     <use xlink:href="#DejaVuSans-51" x="200.982422"/>
     <use xlink:href="#DejaVuSans-43" x="279.693359"/>
     <use xlink:href="#DejaVuSans-3a" x="349.517578"/>
     <use xlink:href="#DejaVuSans-20" x="383.208984"/>
     <use xlink:href="#DejaVuSans-4d" x="414.996094"/>
     <use xlink:href="#DejaVuSans-65" x="501.275391"/>
     <use xlink:href="#DejaVuSans-61" x="562.798828"/>
     <use xlink:href="#DejaVuSans-6e" x="624.078125"/>
     <use xlink:href="#DejaVuSans-20" x="687.457031"/>
     <use xlink:href="#DejaVuSans-51" x="719.244141"/>
     <use xlink:href="#DejaVuSans-75" x="797.955078"/>
     <use xlink:href="#DejaVuSans-61" x="861.333984"/>
     <use xlink:href="#DejaVuSans-6c" x="922.613281"/>
     <use xlink:href="#DejaVuSans-69" x="950.396484"/>
     <use xlink:href="#DejaVuSans-74" x="978.179688"/>
     <use xlink:href="#DejaVuSans-79" x="1017.388672"/>
     <use xlink:href="#DejaVuSans-20" x="1076.568359"/>
     <use xlink:href="#DejaVuSans-53" x="1108.355469"/>
     <use xlink:href="#DejaVuSans-63" x="1171.832031"/>
     <use xlink:href="#DejaVuSans-6f" x="1226.8125"/>
     <use xlink:href="#DejaVuSans-72" x="1287.994141"/>
     <use xlink:href="#DejaVuSans-65" x="1326.857422"/>
     <use xlink:href="#DejaVuSans-73" x="1388.380859"/>
    </g>
   </g>
  </g>
 </g>
 <defs>
  <clipPath id="pc3feb7479a">
   <rect x="38.058125" y="35.2559" width="955.06" height="317.968"/>
  </clipPath>
 </defs>
</svg>
