<?xml version="1.0" encoding="utf-8" standalone="no"?>
<!DOCTYPE svg PUBLIC "-//W3C//DTD SVG 1.1//EN"
  "http://www.w3.org/Graphics/SVG/1.1/DTD/svg11.dtd">
<svg xmlns:xlink="http://www.w3.org/1999/xlink" width="1000.340625pt" height="388.844525pt" viewBox="0 0 1000.340625 388.844525" xmlns="http://www.w3.org/2000/svg" version="1.1">
 <metadata>
  <rdf:RDF xmlns:dc="http://purl.org/dc/elements/1.1/" xmlns:cc="http://creativecommons.org/ns#" xmlns:rdf="http://www.w3.org/1999/02/22-rdf-syntax-ns#">
   <cc:Work>
    <dc:type rdf:resource="http://purl.org/dc/dcmitype/StillImage"/>
    <dc:date>2024-08-15T09:46:27.538559</dc:date>
    <dc:format>image/svg+xml</dc:format>
    <dc:creator>
     <cc:Agent>
      <dc:title>Matplotlib v3.8.2, https://matplotlib.org/</dc:title>
     </cc:Agent>
    </dc:creator>
   </cc:Work>
  </rdf:RDF>
 </metadata>
 <defs>
  <style type="text/css">*{stroke-linejoin: round; stroke-linecap: butt}</style>
 </defs>
 <g id="figure_1">
  <g id="axes_1">
   <g id="patch_1">
    <path d="M 40.600625 353.2239 
L 993.140625 353.2239 
L 993.140625 35.2559 
L 40.600625 35.2559 
z
" style="fill: #ffffff"/>
   </g>
   <g id="matplotlib.axis_1">
    <g id="xtick_1">
     <g id="text_1">
      <!-- 0 -->
      <g transform="translate(75.541183 366.30265) scale(0.08 -0.08)">
       <defs>
        <path id="DejaVuSans-30" d="M 2034 4250 
Q 1547 4250 1301 3770 
Q 1056 3291 1056 2328 
Q 1056 1369 1301 889 
Q 1547 409 2034 409 
Q 2525 409 2770 889 
Q 3016 1369 3016 2328 
Q 3016 3291 2770 3770 
Q 2525 4250 2034 4250 
z
M 2034 4750 
Q 2819 4750 3233 4129 
Q 3647 3509 3647 2328 
Q 3647 1150 3233 529 
Q 2819 -91 2034 -91 
Q 1250 -91 836 529 
Q 422 1150 422 2328 
Q 422 3509 836 4129 
Q 1250 4750 2034 4750 
z
" transform="scale(0.015625)"/>
       </defs>
       <use xlink:href="#DejaVuSans-30"/>
      </g>
     </g>
    </g>
    <g id="xtick_2">
     <g id="text_2">
      <!-- 20 -->
      <g transform="translate(189.230472 366.30265) scale(0.08 -0.08)">
       <defs>
        <path id="DejaVuSans-32" d="M 1228 531 
L 3431 531 
L 3431 0 
L 469 0 
L 469 531 
Q 828 903 1448 1529 
Q 2069 2156 2228 2338 
Q 2531 2678 2651 2914 
Q 2772 3150 2772 3378 
Q 2772 3750 2511 3984 
Q 2250 4219 1831 4219 
Q 1534 4219 1204 4116 
Q 875 4013 500 3803 
L 500 4441 
Q 881 4594 1212 4672 
Q 1544 4750 1819 4750 
Q 2544 4750 2975 4387 
Q 3406 4025 3406 3419 
Q 3406 3131 3298 2873 
Q 3191 2616 2906 2266 
Q 2828 2175 2409 1742 
Q 1991 1309 1228 531 
z
" transform="scale(0.015625)"/>
       </defs>
       <use xlink:href="#DejaVuSans-32"/>
       <use xlink:href="#DejaVuSans-30" x="63.623047"/>
      </g>
     </g>
    </g>
    <g id="xtick_3">
     <g id="text_3">
      <!-- 40 -->
      <g transform="translate(305.464762 366.30265) scale(0.08 -0.08)">
       <defs>
        <path id="DejaVuSans-34" d="M 2419 4116 
L 825 1625 
L 2419 1625 
L 2419 4116 
z
M 2253 4666 
L 3047 4666 
L 3047 1625 
L 3713 1625 
L 3713 1100 
L 3047 1100 
L 3047 0 
L 2419 0 
L 2419 1100 
L 313 1100 
L 313 1709 
L 2253 4666 
z
" transform="scale(0.015625)"/>
       </defs>
       <use xlink:href="#DejaVuSans-34"/>
       <use xlink:href="#DejaVuSans-30" x="63.623047"/>
      </g>
     </g>
    </g>
    <g id="xtick_4">
     <g id="text_4">
      <!-- 60 -->
      <g transform="translate(421.699051 366.30265) scale(0.08 -0.08)">
       <defs>
        <path id="DejaVuSans-36" d="M 2113 2584 
Q 1688 2584 1439 2293 
Q 1191 2003 1191 1497 
Q 1191 994 1439 701 
Q 1688 409 2113 409 
Q 2538 409 2786 701 
Q 3034 994 3034 1497 
Q 3034 2003 2786 2293 
Q 2538 2584 2113 2584 
z
M 3366 4563 
L 3366 3988 
Q 3128 4100 2886 4159 
Q 2644 4219 2406 4219 
Q 1781 4219 1451 3797 
Q 1122 3375 1075 2522 
Q 1259 2794 1537 2939 
Q 1816 3084 2150 3084 
Q 2853 3084 3261 2657 
Q 3669 2231 3669 1497 
Q 3669 778 3244 343 
Q 2819 -91 2113 -91 
Q 1303 -91 875 529 
Q 447 1150 447 2328 
Q 447 3434 972 4092 
Q 1497 4750 2381 4750 
Q 2619 4750 2861 4703 
Q 3103 4656 3366 4563 
z
" transform="scale(0.015625)"/>
       </defs>
       <use xlink:href="#DejaVuSans-36"/>
       <use xlink:href="#DejaVuSans-30" x="63.623047"/>
      </g>
     </g>
    </g>
    <g id="xtick_5">
     <g id="text_5">
      <!-- 80 -->
      <g transform="translate(537.93334 366.30265) scale(0.08 -0.08)">
       <defs>
        <path id="DejaVuSans-38" d="M 2034 2216 
Q 1584 2216 1326 1975 
Q 1069 1734 1069 1313 
Q 1069 891 1326 650 
Q 1584 409 2034 409 
Q 2484 409 2743 651 
Q 3003 894 3003 1313 
Q 3003 1734 2745 1975 
Q 2488 2216 2034 2216 
z
M 1403 2484 
Q 997 2584 770 2862 
Q 544 3141 544 3541 
Q 544 4100 942 4425 
Q 1341 4750 2034 4750 
Q 2731 4750 3128 4425 
Q 3525 4100 3525 3541 
Q 3525 3141 3298 2862 
Q 3072 2584 2669 2484 
Q 3125 2378 3379 2068 
Q 3634 1759 3634 1313 
Q 3634 634 3220 271 
Q 2806 -91 2034 -91 
Q 1263 -91 848 271 
Q 434 634 434 1313 
Q 434 1759 690 2068 
Q 947 2378 1403 2484 
z
M 1172 3481 
Q 1172 3119 1398 2916 
Q 1625 2713 2034 2713 
Q 2441 2713 2670 2916 
Q 2900 3119 2900 3481 
Q 2900 3844 2670 4047 
Q 2441 4250 2034 4250 
Q 1625 4250 1398 4047 
Q 1172 3844 1172 3481 
z
" transform="scale(0.015625)"/>
       </defs>
       <use xlink:href="#DejaVuSans-38"/>
       <use xlink:href="#DejaVuSans-30" x="63.623047"/>
      </g>
     </g>
    </g>
    <g id="xtick_6">
     <g id="text_6">
      <!-- 100 -->
      <g transform="translate(651.622629 366.30265) scale(0.08 -0.08)">
       <defs>
        <path id="DejaVuSans-31" d="M 794 531 
L 1825 531 
L 1825 4091 
L 703 3866 
L 703 4441 
L 1819 4666 
L 2450 4666 
L 2450 531 
L 3481 531 
L 3481 0 
L 794 0 
L 794 531 
z
" transform="scale(0.015625)"/>
       </defs>
       <use xlink:href="#DejaVuSans-31"/>
       <use xlink:href="#DejaVuSans-30" x="63.623047"/>
       <use xlink:href="#DejaVuSans-30" x="127.246094"/>
      </g>
     </g>
    </g>
    <g id="xtick_7">
     <g id="text_7">
      <!-- 120 -->
      <g transform="translate(767.856918 366.30265) scale(0.08 -0.08)">
       <use xlink:href="#DejaVuSans-31"/>
       <use xlink:href="#DejaVuSans-32" x="63.623047"/>
       <use xlink:href="#DejaVuSans-30" x="127.246094"/>
      </g>
     </g>
    </g>
    <g id="xtick_8">
     <g id="text_8">
      <!-- 140 -->
      <g transform="translate(884.091208 366.30265) scale(0.08 -0.08)">
       <use xlink:href="#DejaVuSans-31"/>
       <use xlink:href="#DejaVuSans-34" x="63.623047"/>
       <use xlink:href="#DejaVuSans-30" x="127.246094"/>
      </g>
     </g>
    </g>
    <g id="text_9">
     <!-- Length Trimmed (bp) -->
     <g transform="translate(464.443281 379.564837) scale(0.1 -0.1)">
      <defs>
       <path id="DejaVuSans-4c" d="M 628 4666 
L 1259 4666 
L 1259 531 
L 3531 531 
L 3531 0 
L 628 0 
L 628 4666 
z
" transform="scale(0.015625)"/>
       <path id="DejaVuSans-65" d="M 3597 1894 
L 3597 1613 
L 953 1613 
Q 991 1019 1311 708 
Q 1631 397 2203 397 
Q 2534 397 2845 478 
Q 3156 559 3463 722 
L 3463 178 
Q 3153 47 2828 -22 
Q 2503 -91 2169 -91 
Q 1331 -91 842 396 
Q 353 884 353 1716 
Q 353 2575 817 3079 
Q 1281 3584 2069 3584 
Q 2775 3584 3186 3129 
Q 3597 2675 3597 1894 
z
M 3022 2063 
Q 3016 2534 2758 2815 
Q 2500 3097 2075 3097 
Q 1594 3097 1305 2825 
Q 1016 2553 972 2059 
L 3022 2063 
z
" transform="scale(0.015625)"/>
       <path id="DejaVuSans-6e" d="M 3513 2113 
L 3513 0 
L 2938 0 
L 2938 2094 
Q 2938 2591 2744 2837 
Q 2550 3084 2163 3084 
Q 1697 3084 1428 2787 
Q 1159 2491 1159 1978 
L 1159 0 
L 581 0 
L 581 3500 
L 1159 3500 
L 1159 2956 
Q 1366 3272 1645 3428 
Q 1925 3584 2291 3584 
Q 2894 3584 3203 3211 
Q 3513 2838 3513 2113 
z
" transform="scale(0.015625)"/>
       <path id="DejaVuSans-67" d="M 2906 1791 
Q 2906 2416 2648 2759 
Q 2391 3103 1925 3103 
Q 1463 3103 1205 2759 
Q 947 2416 947 1791 
Q 947 1169 1205 825 
Q 1463 481 1925 481 
Q 2391 481 2648 825 
Q 2906 1169 2906 1791 
z
M 3481 434 
Q 3481 -459 3084 -895 
Q 2688 -1331 1869 -1331 
Q 1566 -1331 1297 -1286 
Q 1028 -1241 775 -1147 
L 775 -588 
Q 1028 -725 1275 -790 
Q 1522 -856 1778 -856 
Q 2344 -856 2625 -561 
Q 2906 -266 2906 331 
L 2906 616 
Q 2728 306 2450 153 
Q 2172 0 1784 0 
Q 1141 0 747 490 
Q 353 981 353 1791 
Q 353 2603 747 3093 
Q 1141 3584 1784 3584 
Q 2172 3584 2450 3431 
Q 2728 3278 2906 2969 
L 2906 3500 
L 3481 3500 
L 3481 434 
z
" transform="scale(0.015625)"/>
       <path id="DejaVuSans-74" d="M 1172 4494 
L 1172 3500 
L 2356 3500 
L 2356 3053 
L 1172 3053 
L 1172 1153 
Q 1172 725 1289 603 
Q 1406 481 1766 481 
L 2356 481 
L 2356 0 
L 1766 0 
Q 1100 0 847 248 
Q 594 497 594 1153 
L 594 3053 
L 172 3053 
L 172 3500 
L 594 3500 
L 594 4494 
L 1172 4494 
z
" transform="scale(0.015625)"/>
       <path id="DejaVuSans-68" d="M 3513 2113 
L 3513 0 
L 2938 0 
L 2938 2094 
Q 2938 2591 2744 2837 
Q 2550 3084 2163 3084 
Q 1697 3084 1428 2787 
Q 1159 2491 1159 1978 
L 1159 0 
L 581 0 
L 581 4863 
L 1159 4863 
L 1159 2956 
Q 1366 3272 1645 3428 
Q 1925 3584 2291 3584 
Q 2894 3584 3203 3211 
Q 3513 2838 3513 2113 
z
" transform="scale(0.015625)"/>
       <path id="DejaVuSans-20" transform="scale(0.015625)"/>
       <path id="DejaVuSans-54" d="M -19 4666 
L 3928 4666 
L 3928 4134 
L 2272 4134 
L 2272 0 
L 1638 0 
L 1638 4134 
L -19 4134 
L -19 4666 
z
" transform="scale(0.015625)"/>
       <path id="DejaVuSans-72" d="M 2631 2963 
Q 2534 3019 2420 3045 
Q 2306 3072 2169 3072 
Q 1681 3072 1420 2755 
Q 1159 2438 1159 1844 
L 1159 0 
L 581 0 
L 581 3500 
L 1159 3500 
L 1159 2956 
Q 1341 3275 1631 3429 
Q 1922 3584 2338 3584 
Q 2397 3584 2469 3576 
Q 2541 3569 2628 3553 
L 2631 2963 
z
" transform="scale(0.015625)"/>
       <path id="DejaVuSans-69" d="M 603 3500 
L 1178 3500 
L 1178 0 
L 603 0 
L 603 3500 
z
M 603 4863 
L 1178 4863 
L 1178 4134 
L 603 4134 
L 603 4863 
z
" transform="scale(0.015625)"/>
       <path id="DejaVuSans-6d" d="M 3328 2828 
Q 3544 3216 3844 3400 
Q 4144 3584 4550 3584 
Q 5097 3584 5394 3201 
Q 5691 2819 5691 2113 
L 5691 0 
L 5113 0 
L 5113 2094 
Q 5113 2597 4934 2840 
Q 4756 3084 4391 3084 
Q 3944 3084 3684 2787 
Q 3425 2491 3425 1978 
L 3425 0 
L 2847 0 
L 2847 2094 
Q 2847 2600 2669 2842 
Q 2491 3084 2119 3084 
Q 1678 3084 1418 2786 
Q 1159 2488 1159 1978 
L 1159 0 
L 581 0 
L 581 3500 
L 1159 3500 
L 1159 2956 
Q 1356 3278 1631 3431 
Q 1906 3584 2284 3584 
Q 2666 3584 2933 3390 
Q 3200 3197 3328 2828 
z
" transform="scale(0.015625)"/>
       <path id="DejaVuSans-64" d="M 2906 2969 
L 2906 4863 
L 3481 4863 
L 3481 0 
L 2906 0 
L 2906 525 
Q 2725 213 2448 61 
Q 2172 -91 1784 -91 
Q 1150 -91 751 415 
Q 353 922 353 1747 
Q 353 2572 751 3078 
Q 1150 3584 1784 3584 
Q 2172 3584 2448 3432 
Q 2725 3281 2906 2969 
z
M 947 1747 
Q 947 1113 1208 752 
Q 1469 391 1925 391 
Q 2381 391 2643 752 
Q 2906 1113 2906 1747 
Q 2906 2381 2643 2742 
Q 2381 3103 1925 3103 
Q 1469 3103 1208 2742 
Q 947 2381 947 1747 
z
" transform="scale(0.015625)"/>
       <path id="DejaVuSans-28" d="M 1984 4856 
Q 1566 4138 1362 3434 
Q 1159 2731 1159 2009 
Q 1159 1288 1364 580 
Q 1569 -128 1984 -844 
L 1484 -844 
Q 1016 -109 783 600 
Q 550 1309 550 2009 
Q 550 2706 781 3412 
Q 1013 4119 1484 4856 
L 1984 4856 
z
" transform="scale(0.015625)"/>
       <path id="DejaVuSans-62" d="M 3116 1747 
Q 3116 2381 2855 2742 
Q 2594 3103 2138 3103 
Q 1681 3103 1420 2742 
Q 1159 2381 1159 1747 
Q 1159 1113 1420 752 
Q 1681 391 2138 391 
Q 2594 391 2855 752 
Q 3116 1113 3116 1747 
z
M 1159 2969 
Q 1341 3281 1617 3432 
Q 1894 3584 2278 3584 
Q 2916 3584 3314 3078 
Q 3713 2572 3713 1747 
Q 3713 922 3314 415 
Q 2916 -91 2278 -91 
Q 1894 -91 1617 61 
Q 1341 213 1159 525 
L 1159 0 
L 581 0 
L 581 4863 
L 1159 4863 
L 1159 2969 
z
" transform="scale(0.015625)"/>
       <path id="DejaVuSans-70" d="M 1159 525 
L 1159 -1331 
L 581 -1331 
L 581 3500 
L 1159 3500 
L 1159 2969 
Q 1341 3281 1617 3432 
Q 1894 3584 2278 3584 
Q 2916 3584 3314 3078 
Q 3713 2572 3713 1747 
Q 3713 922 3314 415 
Q 2916 -91 2278 -91 
Q 1894 -91 1617 61 
Q 1341 213 1159 525 
z
M 3116 1747 
Q 3116 2381 2855 2742 
Q 2594 3103 2138 3103 
Q 1681 3103 1420 2742 
Q 1159 2381 1159 1747 
Q 1159 1113 1420 752 
Q 1681 391 2138 391 
Q 2594 391 2855 752 
Q 3116 1113 3116 1747 
z
" transform="scale(0.015625)"/>
       <path id="DejaVuSans-29" d="M 513 4856 
L 1013 4856 
Q 1481 4119 1714 3412 
Q 1947 2706 1947 2009 
Q 1947 1309 1714 600 
Q 1481 -109 1013 -844 
L 513 -844 
Q 928 -128 1133 580 
Q 1338 1288 1338 2009 
Q 1338 2731 1133 3434 
Q 928 4138 513 4856 
z
" transform="scale(0.015625)"/>
      </defs>
      <use xlink:href="#DejaVuSans-4c"/>
      <use xlink:href="#DejaVuSans-65" x="53.962891"/>
      <use xlink:href="#DejaVuSans-6e" x="115.486328"/>
      <use xlink:href="#DejaVuSans-67" x="178.865234"/>
      <use xlink:href="#DejaVuSans-74" x="242.341797"/>
      <use xlink:href="#DejaVuSans-68" x="281.550781"/>
      <use xlink:href="#DejaVuSans-20" x="344.929688"/>
      <use xlink:href="#DejaVuSans-54" x="376.716797"/>
      <use xlink:href="#DejaVuSans-72" x="423.050781"/>
      <use xlink:href="#DejaVuSans-69" x="464.164062"/>
      <use xlink:href="#DejaVuSans-6d" x="491.947266"/>
      <use xlink:href="#DejaVuSans-6d" x="589.359375"/>
      <use xlink:href="#DejaVuSans-65" x="686.771484"/>
      <use xlink:href="#DejaVuSans-64" x="748.294922"/>
      <use xlink:href="#DejaVuSans-20" x="811.771484"/>
      <use xlink:href="#DejaVuSans-28" x="843.558594"/>
      <use xlink:href="#DejaVuSans-62" x="882.572266"/>
      <use xlink:href="#DejaVuSans-70" x="946.048828"/>
      <use xlink:href="#DejaVuSans-29" x="1009.525391"/>
     </g>
    </g>
   </g>
   <g id="matplotlib.axis_2">
    <g id="ytick_1">
     <g id="line2d_1">
      <path d="M 40.600625 353.2239 
L 993.140625 353.2239 
" clip-path="url(#p54dff4b024)" style="fill: none; stroke: #dedede; stroke-linecap: square"/>
     </g>
     <g id="text_10">
      <!-- 0.0 -->
      <g transform="translate(20.878125 356.263275) scale(0.08 -0.08)">
       <defs>
        <path id="DejaVuSans-2e" d="M 684 794 
L 1344 794 
L 1344 0 
L 684 0 
L 684 794 
z
" transform="scale(0.015625)"/>
       </defs>
       <use xlink:href="#DejaVuSans-30"/>
       <use xlink:href="#DejaVuSans-2e" x="63.623047"/>
       <use xlink:href="#DejaVuSans-30" x="95.410156"/>
      </g>
     </g>
    </g>
    <g id="ytick_2">
     <g id="line2d_2">
      <path d="M 40.600625 290.240737 
L 993.140625 290.240737 
" clip-path="url(#p54dff4b024)" style="fill: none; stroke: #dedede; stroke-linecap: square"/>
     </g>
     <g id="text_11">
      <!-- 0.2 -->
      <g transform="translate(20.878125 293.280112) scale(0.08 -0.08)">
       <use xlink:href="#DejaVuSans-30"/>
       <use xlink:href="#DejaVuSans-2e" x="63.623047"/>
       <use xlink:href="#DejaVuSans-32" x="95.410156"/>
      </g>
     </g>
    </g>
    <g id="ytick_3">
     <g id="line2d_3">
      <path d="M 40.600625 227.257575 
L 993.140625 227.257575 
" clip-path="url(#p54dff4b024)" style="fill: none; stroke: #dedede; stroke-linecap: square"/>
     </g>
     <g id="text_12">
      <!-- 0.4 -->
      <g transform="translate(20.878125 230.29695) scale(0.08 -0.08)">
       <use xlink:href="#DejaVuSans-30"/>
       <use xlink:href="#DejaVuSans-2e" x="63.623047"/>
       <use xlink:href="#DejaVuSans-34" x="95.410156"/>
      </g>
     </g>
    </g>
    <g id="ytick_4">
     <g id="line2d_4">
      <path d="M 40.600625 164.274412 
L 993.140625 164.274412 
" clip-path="url(#p54dff4b024)" style="fill: none; stroke: #dedede; stroke-linecap: square"/>
     </g>
     <g id="text_13">
      <!-- 0.6 -->
      <g transform="translate(20.878125 167.313787) scale(0.08 -0.08)">
       <use xlink:href="#DejaVuSans-30"/>
       <use xlink:href="#DejaVuSans-2e" x="63.623047"/>
       <use xlink:href="#DejaVuSans-36" x="95.410156"/>
      </g>
     </g>
    </g>
    <g id="ytick_5">
     <g id="line2d_5">
      <path d="M 40.600625 101.29125 
L 993.140625 101.29125 
" clip-path="url(#p54dff4b024)" style="fill: none; stroke: #dedede; stroke-linecap: square"/>
     </g>
     <g id="text_14">
      <!-- 0.8 -->
      <g transform="translate(20.878125 104.330625) scale(0.08 -0.08)">
       <use xlink:href="#DejaVuSans-30"/>
       <use xlink:href="#DejaVuSans-2e" x="63.623047"/>
       <use xlink:href="#DejaVuSans-38" x="95.410156"/>
      </g>
     </g>
    </g>
    <g id="ytick_6">
     <g id="line2d_6">
      <path d="M 40.600625 38.308087 
L 993.140625 38.308087 
" clip-path="url(#p54dff4b024)" style="fill: none; stroke: #dedede; stroke-linecap: square"/>
     </g>
     <g id="text_15">
      <!-- 1.0 -->
      <g transform="translate(20.878125 41.347462) scale(0.08 -0.08)">
       <use xlink:href="#DejaVuSans-31"/>
       <use xlink:href="#DejaVuSans-2e" x="63.623047"/>
       <use xlink:href="#DejaVuSans-30" x="95.410156"/>
      </g>
     </g>
    </g>
    <g id="text_16">
     <!-- Observed / Expected -->
     <g transform="translate(14.798438 246.489119) rotate(-90) scale(0.1 -0.1)">
      <defs>
       <path id="DejaVuSans-4f" d="M 2522 4238 
Q 1834 4238 1429 3725 
Q 1025 3213 1025 2328 
Q 1025 1447 1429 934 
Q 1834 422 2522 422 
Q 3209 422 3611 934 
Q 4013 1447 4013 2328 
Q 4013 3213 3611 3725 
Q 3209 4238 2522 4238 
z
M 2522 4750 
Q 3503 4750 4090 4092 
Q 4678 3434 4678 2328 
Q 4678 1225 4090 567 
Q 3503 -91 2522 -91 
Q 1538 -91 948 565 
Q 359 1222 359 2328 
Q 359 3434 948 4092 
Q 1538 4750 2522 4750 
z
" transform="scale(0.015625)"/>
       <path id="DejaVuSans-73" d="M 2834 3397 
L 2834 2853 
Q 2591 2978 2328 3040 
Q 2066 3103 1784 3103 
Q 1356 3103 1142 2972 
Q 928 2841 928 2578 
Q 928 2378 1081 2264 
Q 1234 2150 1697 2047 
L 1894 2003 
Q 2506 1872 2764 1633 
Q 3022 1394 3022 966 
Q 3022 478 2636 193 
Q 2250 -91 1575 -91 
Q 1294 -91 989 -36 
Q 684 19 347 128 
L 347 722 
Q 666 556 975 473 
Q 1284 391 1588 391 
Q 1994 391 2212 530 
Q 2431 669 2431 922 
Q 2431 1156 2273 1281 
Q 2116 1406 1581 1522 
L 1381 1569 
Q 847 1681 609 1914 
Q 372 2147 372 2553 
Q 372 3047 722 3315 
Q 1072 3584 1716 3584 
Q 2034 3584 2315 3537 
Q 2597 3491 2834 3397 
z
" transform="scale(0.015625)"/>
       <path id="DejaVuSans-76" d="M 191 3500 
L 800 3500 
L 1894 563 
L 2988 3500 
L 3597 3500 
L 2284 0 
L 1503 0 
L 191 3500 
z
" transform="scale(0.015625)"/>
       <path id="DejaVuSans-2f" d="M 1625 4666 
L 2156 4666 
L 531 -594 
L 0 -594 
L 1625 4666 
z
" transform="scale(0.015625)"/>
       <path id="DejaVuSans-45" d="M 628 4666 
L 3578 4666 
L 3578 4134 
L 1259 4134 
L 1259 2753 
L 3481 2753 
L 3481 2222 
L 1259 2222 
L 1259 531 
L 3634 531 
L 3634 0 
L 628 0 
L 628 4666 
z
" transform="scale(0.015625)"/>
       <path id="DejaVuSans-78" d="M 3513 3500 
L 2247 1797 
L 3578 0 
L 2900 0 
L 1881 1375 
L 863 0 
L 184 0 
L 1544 1831 
L 300 3500 
L 978 3500 
L 1906 2253 
L 2834 3500 
L 3513 3500 
z
" transform="scale(0.015625)"/>
       <path id="DejaVuSans-63" d="M 3122 3366 
L 3122 2828 
Q 2878 2963 2633 3030 
Q 2388 3097 2138 3097 
Q 1578 3097 1268 2742 
Q 959 2388 959 1747 
Q 959 1106 1268 751 
Q 1578 397 2138 397 
Q 2388 397 2633 464 
Q 2878 531 3122 666 
L 3122 134 
Q 2881 22 2623 -34 
Q 2366 -91 2075 -91 
Q 1284 -91 818 406 
Q 353 903 353 1747 
Q 353 2603 823 3093 
Q 1294 3584 2113 3584 
Q 2378 3584 2631 3529 
Q 2884 3475 3122 3366 
z
" transform="scale(0.015625)"/>
      </defs>
      <use xlink:href="#DejaVuSans-4f"/>
      <use xlink:href="#DejaVuSans-62" x="78.710938"/>
      <use xlink:href="#DejaVuSans-73" x="142.1875"/>
      <use xlink:href="#DejaVuSans-65" x="194.287109"/>
      <use xlink:href="#DejaVuSans-72" x="255.810547"/>
      <use xlink:href="#DejaVuSans-76" x="296.923828"/>
      <use xlink:href="#DejaVuSans-65" x="356.103516"/>
      <use xlink:href="#DejaVuSans-64" x="417.626953"/>
      <use xlink:href="#DejaVuSans-20" x="481.103516"/>
      <use xlink:href="#DejaVuSans-2f" x="512.890625"/>
      <use xlink:href="#DejaVuSans-20" x="546.582031"/>
      <use xlink:href="#DejaVuSans-45" x="578.369141"/>
      <use xlink:href="#DejaVuSans-78" x="641.552734"/>
      <use xlink:href="#DejaVuSans-70" x="700.732422"/>
      <use xlink:href="#DejaVuSans-65" x="764.208984"/>
      <use xlink:href="#DejaVuSans-63" x="825.732422"/>
      <use xlink:href="#DejaVuSans-74" x="880.712891"/>
      <use xlink:href="#DejaVuSans-65" x="919.921875"/>
      <use xlink:href="#DejaVuSans-64" x="981.445312"/>
     </g>
    </g>
    <g id="text_17">
     <!-- 1e7 -->
     <g transform="translate(40.600625 32.2559) scale(0.1 -0.1)">
      <defs>
       <path id="DejaVuSans-37" d="M 525 4666 
L 3525 4666 
L 3525 4397 
L 1831 0 
L 1172 0 
L 2766 4134 
L 525 4134 
L 525 4666 
z
" transform="scale(0.015625)"/>
      </defs>
      <use xlink:href="#DejaVuSans-31"/>
      <use xlink:href="#DejaVuSans-65" x="63.623047"/>
      <use xlink:href="#DejaVuSans-37" x="125.146484"/>
     </g>
    </g>
   </g>
   <g id="line2d_7">
    <path d="M 83.897898 353.223883 
L 130.391613 353.162413 
L 136.203328 352.947836 
L 142.015042 352.147707 
L 147.826757 348.879141 
L 153.638471 332.484489 
L 159.450186 332.417202 
L 165.2619 332.223109 
L 171.073615 332.395368 
L 176.885329 332.149419 
L 182.697044 331.403278 
L 188.508758 332.627146 
L 200.132187 332.168209 
L 205.943901 330.935313 
L 211.755616 331.535753 
L 217.56733 331.169506 
L 223.379045 331.186931 
L 229.190759 331.524836 
L 235.002474 331.980099 
L 240.814188 331.456919 
L 246.625903 332.263104 
L 258.249332 331.870823 
L 264.061046 330.228642 
L 275.684475 331.441173 
L 281.496189 332.492047 
L 287.307904 333.298127 
L 293.119618 333.872848 
L 298.931333 334.70832 
L 304.743047 334.881524 
L 310.554762 335.285351 
L 316.366476 335.563736 
L 322.178191 335.591344 
L 327.989905 336.129745 
L 333.80162 337.452496 
L 339.613334 333.202812 
L 345.425048 342.066013 
L 351.236763 339.960066 
L 357.048477 339.674437 
L 362.860192 340.192894 
L 368.671906 340.95352 
L 374.483621 341.144464 
L 380.295335 341.965765 
L 391.918764 343.0686 
L 397.730479 343.242223 
L 403.542193 344.37802 
L 409.353907 344.820372 
L 415.165622 345.376198 
L 420.977336 346.355166 
L 432.600765 347.68789 
L 438.41248 348.029679 
L 444.224194 348.064529 
L 450.035909 348.499848 
L 455.847623 349.135348 
L 461.659338 349.066696 
L 467.471052 349.730644 
L 473.282767 350.089753 
L 484.906195 350.491166 
L 490.71791 349.929986 
L 496.529624 341.396502 
L 502.341339 350.736065 
L 508.153053 352.408583 
L 513.964768 352.807896 
L 525.588197 352.967664 
L 554.646769 353.085442 
L 618.575628 353.195977 
L 833.609063 353.220856 
L 944.031638 353.214138 
L 949.843352 353.097514 
L 949.843352 353.097514 
" clip-path="url(#p54dff4b024)" style="fill: none; stroke: #7cb5ec; stroke-linecap: square"/>
   </g>
   <g id="line2d_8">
    <path d="M 83.897898 353.223882 
L 130.391613 353.164232 
L 136.203328 352.959282 
L 142.015042 352.187787 
L 147.826757 349.007177 
L 153.638471 331.906409 
L 159.450186 328.171612 
L 165.2619 335.459814 
L 171.073615 331.668123 
L 176.885329 333.198403 
L 182.697044 336.421882 
L 188.508758 332.982056 
L 194.320472 334.589072 
L 200.132187 334.311421 
L 205.943901 332.48302 
L 211.755616 331.000816 
L 217.56733 328.997951 
L 223.379045 333.557093 
L 229.190759 332.577389 
L 235.002474 333.412546 
L 240.814188 330.903822 
L 246.625903 333.771865 
L 252.437617 327.54472 
L 258.249332 337.031034 
L 264.061046 329.771385 
L 269.87276 333.096056 
L 275.684475 333.334237 
L 281.496189 332.94962 
L 287.307904 334.382802 
L 293.119618 333.835583 
L 298.931333 335.333743 
L 304.743047 335.99895 
L 310.554762 336.402987 
L 316.366476 336.544069 
L 322.178191 336.561809 
L 327.989905 337.443889 
L 339.613334 337.801213 
L 345.425048 338.189609 
L 351.236763 338.927982 
L 357.048477 339.959226 
L 362.860192 340.230579 
L 368.671906 340.960973 
L 374.483621 341.522258 
L 380.295335 342.319415 
L 386.10705 341.85292 
L 391.918764 342.935181 
L 397.730479 344.301075 
L 403.542193 343.710713 
L 409.353907 344.796438 
L 415.165622 345.682296 
L 420.977336 346.761408 
L 426.789051 346.510735 
L 432.600765 347.863718 
L 438.41248 348.471296 
L 444.224194 347.577984 
L 450.035909 349.93324 
L 455.847623 349.340673 
L 461.659338 349.712169 
L 467.471052 349.788064 
L 479.094481 350.484657 
L 490.71791 351.030301 
L 508.153053 351.46415 
L 513.964768 350.845761 
L 519.776482 345.084166 
L 525.588197 352.04559 
L 531.399911 352.909614 
L 537.211626 353.055945 
L 618.575628 353.193668 
L 944.031638 353.218861 
L 949.843352 353.119243 
L 949.843352 353.119243 
" clip-path="url(#p54dff4b024)" style="fill: none; stroke: #434348; stroke-linecap: square"/>
   </g>
   <g id="line2d_9">
    <path d="M 83.897898 353.223881 
L 130.391613 353.185574 
L 136.203328 353.036627 
L 142.015042 352.493888 
L 147.826757 350.165606 
L 153.638471 341.876932 
L 159.450186 343.004803 
L 165.2619 342.628715 
L 171.073615 342.925759 
L 176.885329 342.82908 
L 182.697044 341.530997 
L 188.508758 343.200917 
L 194.320472 342.33789 
L 200.132187 342.831914 
L 205.943901 342.292778 
L 211.755616 342.043759 
L 217.56733 342.476611 
L 223.379045 342.250973 
L 235.002474 342.598011 
L 240.814188 342.162088 
L 246.625903 342.814909 
L 252.437617 342.784205 
L 258.249332 343.125888 
L 264.061046 342.738699 
L 269.87276 342.776804 
L 275.684475 342.031635 
L 281.496189 342.519203 
L 287.307904 342.311673 
L 293.119618 342.279867 
L 298.931333 341.853707 
L 304.743047 343.244612 
L 310.554762 342.783654 
L 316.366476 343.017006 
L 322.178191 342.435357 
L 327.989905 342.470785 
L 333.80162 342.965281 
L 339.613334 339.602689 
L 345.425048 346.262686 
L 351.236763 344.440268 
L 357.048477 343.081406 
L 362.860192 343.39152 
L 368.671906 343.886095 
L 374.483621 343.889953 
L 380.295335 343.402857 
L 386.10705 343.791856 
L 391.918764 343.968052 
L 397.730479 343.331292 
L 403.542193 344.087484 
L 409.353907 343.544254 
L 415.165622 343.606056 
L 420.977336 344.468296 
L 432.600765 345.122691 
L 438.41248 345.079154 
L 444.224194 344.471917 
L 450.035909 344.858713 
L 455.847623 345.712371 
L 461.659338 344.674723 
L 467.471052 345.445322 
L 473.282767 345.747877 
L 484.906195 345.308963 
L 490.71791 341.069409 
L 496.529624 282.855017 
L 502.341339 336.403932 
L 508.153053 348.211228 
L 513.964768 351.087905 
L 519.776482 351.755762 
L 525.588197 351.835436 
L 531.399911 352.105476 
L 548.835055 352.30096 
L 560.458483 352.388428 
L 583.705341 352.5921 
L 630.199057 352.945514 
L 699.93963 353.160838 
L 926.596494 353.214453 
L 944.031638 353.176112 
L 949.843352 352.629181 
L 949.843352 352.629181 
" clip-path="url(#p54dff4b024)" style="fill: none; stroke: #90ed7d; stroke-linecap: square"/>
   </g>
   <g id="line2d_10">
    <path d="M 83.897898 353.223883 
L 130.391613 353.189181 
L 136.203328 353.043165 
L 142.015042 352.566345 
L 147.826757 350.403535 
L 153.638471 341.734354 
L 159.450186 339.655673 
L 165.2619 345.172369 
L 171.073615 342.764837 
L 176.885329 343.027713 
L 182.697044 345.708985 
L 188.508758 343.185171 
L 194.320472 344.263837 
L 200.132187 344.577886 
L 205.943901 343.227055 
L 211.755616 342.167048 
L 217.56733 340.586171 
L 223.379045 344.081185 
L 229.190759 343.415453 
L 235.002474 343.878773 
L 240.814188 341.752619 
L 246.625903 344.218882 
L 252.437617 339.937366 
L 258.249332 346.554928 
L 264.061046 342.503142 
L 269.87276 344.153852 
L 275.684475 343.391284 
L 281.496189 343.289251 
L 287.307904 343.815554 
L 293.119618 342.032186 
L 298.931333 343.097861 
L 304.743047 343.637705 
L 316.366476 343.612276 
L 322.178191 343.082902 
L 327.989905 343.692028 
L 333.80162 343.245241 
L 339.613334 343.426082 
L 345.425048 343.286338 
L 357.048477 343.569683 
L 362.860192 343.544569 
L 368.671906 343.821852 
L 374.483621 344.333669 
L 380.295335 343.769734 
L 386.10705 343.040861 
L 391.918764 343.319719 
L 397.730479 344.867766 
L 403.542193 343.115496 
L 409.353907 343.24406 
L 415.165622 344.127635 
L 420.977336 345.13513 
L 426.789051 343.800832 
L 432.600765 345.232124 
L 438.41248 345.656394 
L 444.224194 343.143524 
L 450.035909 347.909223 
L 455.847623 346.339762 
L 461.659338 346.580121 
L 467.471052 345.671353 
L 473.282767 346.212851 
L 479.094481 346.31323 
L 484.906195 346.783321 
L 490.71791 346.902595 
L 496.529624 346.89858 
L 502.341339 346.448644 
L 508.153053 345.678517 
L 513.964768 341.676882 
L 519.776482 293.178745 
L 525.588197 343.275158 
L 531.399911 350.928715 
L 537.211626 352.130276 
L 548.835055 352.368274 
L 630.199057 352.962284 
L 798.738776 353.214374 
L 944.031638 353.205163 
L 949.843352 352.744126 
L 949.843352 352.744126 
" clip-path="url(#p54dff4b024)" style="fill: none; stroke: #f7a35c; stroke-linecap: square"/>
   </g>
   <g id="line2d_11">
    <path d="M 83.897898 353.223889 
L 130.391613 353.183358 
L 136.203328 353.032649 
L 142.015042 352.479675 
L 147.826757 350.119598 
L 153.638471 340.553735 
L 171.073615 340.176466 
L 182.697044 339.485776 
L 188.508758 339.820926 
L 200.132187 339.444522 
L 205.943901 338.913889 
L 211.755616 338.835082 
L 217.56733 338.527803 
L 229.190759 338.394672 
L 235.002474 338.546461 
L 240.814188 338.13093 
L 246.625903 338.564884 
L 252.437617 338.172184 
L 258.249332 338.594565 
L 264.061046 338.089676 
L 269.87276 337.866322 
L 275.684475 336.521868 
L 281.496189 336.948264 
L 287.307904 336.795844 
L 293.119618 336.194985 
L 298.931333 336.580757 
L 304.743047 336.663737 
L 310.554762 336.374329 
L 316.366476 335.608927 
L 322.178191 334.699686 
L 327.989905 331.885283 
L 333.80162 337.680285 
L 339.613334 328.909329 
L 345.425048 340.709618 
L 351.236763 335.70907 
L 357.048477 334.227548 
L 362.860192 333.68235 
L 368.671906 334.527663 
L 374.483621 333.766197 
L 380.295335 333.281226 
L 386.10705 334.241483 
L 391.918764 333.937826 
L 397.730479 332.666904 
L 403.542193 334.580805 
L 409.353907 333.065588 
L 415.165622 332.700207 
L 432.600765 335.496423 
L 438.41248 336.089094 
L 444.224194 334.431456 
L 450.035909 334.634656 
L 455.847623 335.814252 
L 461.659338 332.678556 
L 467.471052 334.238255 
L 473.282767 335.03515 
L 479.094481 335.184735 
L 484.906195 333.196986 
L 490.71791 328.339961 
L 496.529624 176.104933 
L 502.341339 308.81337 
L 508.153053 340.148832 
L 513.964768 347.682169 
L 519.776482 349.599534 
L 525.588197 349.856348 
L 531.399911 350.391862 
L 537.211626 350.687174 
L 554.646769 350.777162 
L 572.081912 351.381642 
L 577.893627 351.427384 
L 583.705341 351.622474 
L 595.32877 351.743166 
L 601.140485 351.966362 
L 647.6342 352.664767 
L 676.692773 352.946538 
L 699.93963 353.071087 
L 944.031638 353.215004 
L 949.843352 353.116435 
L 949.843352 353.116435 
" clip-path="url(#p54dff4b024)" style="fill: none; stroke: #8085e9; stroke-linecap: square"/>
   </g>
   <g id="line2d_12">
    <path d="M 83.897898 353.223889 
L 130.391613 353.184998 
L 136.203328 353.040822 
L 142.015042 352.514316 
L 147.826757 350.251961 
L 153.638471 339.886428 
L 159.450186 336.563673 
L 165.2619 342.662175 
L 171.073615 339.417125 
L 176.885329 340.573259 
L 182.697044 343.326805 
L 188.508758 340.487051 
L 194.320472 341.687904 
L 200.132187 341.628306 
L 211.755616 338.707934 
L 217.56733 336.19034 
L 223.379045 340.599397 
L 229.190759 339.596863 
L 235.002474 340.114191 
L 240.814188 337.736262 
L 246.625903 340.188826 
L 252.437617 334.262032 
L 258.249332 342.982917 
L 264.061046 338.024252 
L 269.87276 339.512623 
L 275.684475 338.828153 
L 281.496189 337.546997 
L 287.307904 338.045903 
L 293.119618 335.996824 
L 298.931333 337.568884 
L 304.743047 338.170924 
L 310.554762 337.983392 
L 316.366476 337.585811 
L 322.178191 336.180105 
L 327.989905 337.251764 
L 333.80162 336.121452 
L 339.613334 335.431786 
L 345.425048 334.856278 
L 351.236763 333.93696 
L 357.048477 335.101676 
L 362.860192 334.011831 
L 368.671906 334.09552 
L 374.483621 334.757945 
L 380.295335 333.899721 
L 386.10705 332.199491 
L 391.918764 332.575815 
L 397.730479 335.899043 
L 403.542193 332.059904 
L 409.353907 332.049512 
L 415.165622 333.815638 
L 420.977336 334.977914 
L 426.789051 332.49 
L 432.600765 335.810788 
L 438.41248 337.138551 
L 444.224194 331.286313 
L 450.035909 341.773719 
L 455.847623 337.614547 
L 461.659338 337.701936 
L 467.471052 334.699371 
L 473.282767 336.315125 
L 479.094481 336.918425 
L 484.906195 336.735853 
L 490.71791 336.902286 
L 496.529624 336.114603 
L 502.341339 335.769219 
L 508.153053 334.213928 
L 513.964768 328.667552 
L 519.776482 205.273223 
L 525.588197 329.143626 
L 531.399911 347.798215 
L 537.211626 350.579867 
L 543.02334 350.886988 
L 548.835055 350.947059 
L 560.458483 351.370857 
L 566.270198 351.338499 
L 572.081912 351.503672 
L 577.893627 351.466276 
L 583.705341 351.694905 
L 595.32877 351.891491 
L 612.763914 352.34308 
L 624.387343 352.467393 
L 636.010771 352.573284 
L 659.257629 352.83616 
L 682.504487 353.019205 
L 711.563059 353.072898 
L 746.433346 353.177922 
L 938.219923 353.221932 
L 949.843352 353.139503 
L 949.843352 353.139503 
" clip-path="url(#p54dff4b024)" style="fill: none; stroke: #f15c80; stroke-linecap: square"/>
   </g>
   <g id="line2d_13">
    <path d="M 83.897898 353.223884 
L 130.391613 353.184993 
L 136.203328 353.065285 
L 142.015042 352.620646 
L 147.826757 350.820207 
L 153.638471 343.651247 
L 159.450186 343.527563 
L 165.2619 342.703507 
L 171.073615 342.933396 
L 182.697044 343.035586 
L 188.508758 343.603064 
L 194.320472 343.504338 
L 200.132187 342.739565 
L 205.943901 343.81146 
L 211.755616 343.181156 
L 217.56733 344.101025 
L 223.379045 344.168889 
L 229.190759 343.564409 
L 235.002474 343.884599 
L 246.625903 343.334756 
L 252.437617 343.278622 
L 258.249332 343.389552 
L 264.061046 343.151396 
L 269.87276 342.636745 
L 275.684475 343.145649 
L 281.496189 343.98364 
L 287.307904 344.335086 
L 293.119618 343.379317 
L 298.931333 344.460738 
L 304.743047 343.891685 
L 310.554762 343.478594 
L 316.366476 343.298698 
L 322.178191 344.019147 
L 327.989905 343.932309 
L 333.80162 344.297218 
L 339.613334 340.799841 
L 345.425048 346.497613 
L 351.236763 345.198271 
L 357.048477 344.706529 
L 362.860192 344.33178 
L 368.671906 344.245493 
L 374.483621 343.98553 
L 380.295335 344.186446 
L 386.10705 344.104332 
L 391.918764 343.823742 
L 397.730479 342.892457 
L 403.542193 344.419405 
L 409.353907 344.916106 
L 415.165622 344.181722 
L 420.977336 343.748004 
L 426.789051 344.903509 
L 432.600765 345.137492 
L 444.224194 344.718575 
L 455.847623 344.965233 
L 461.659338 343.976161 
L 467.471052 345.708513 
L 473.282767 345.676391 
L 484.906195 344.652285 
L 490.71791 341.560993 
L 496.529624 279.990543 
L 502.341339 335.996824 
L 508.153053 348.065579 
L 513.964768 350.903364 
L 519.776482 351.697346 
L 531.399911 352.016434 
L 572.081912 352.430233 
L 601.140485 352.647604 
L 624.387343 352.929454 
L 676.692773 353.147454 
L 734.809917 353.209099 
L 944.031638 353.206029 
L 949.843352 353.025503 
L 949.843352 353.025503 
" clip-path="url(#p54dff4b024)" style="fill: none; stroke: #e4d354; stroke-linecap: square"/>
   </g>
   <g id="line2d_14">
    <path d="M 83.897898 353.223886 
L 130.391613 353.186418 
L 136.203328 353.068256 
L 142.015042 352.64238 
L 147.826757 350.848293 
L 153.638471 343.34255 
L 159.450186 340.504765 
L 165.2619 344.569699 
L 171.073615 342.53794 
L 176.885329 342.999371 
L 182.697044 345.968082 
L 188.508758 343.294683 
L 194.320472 344.63276 
L 200.132187 343.779181 
L 205.943901 344.218095 
L 211.755616 342.939694 
L 217.56733 342.536366 
L 223.379045 345.149144 
L 229.190759 343.935616 
L 235.002474 344.532932 
L 240.814188 343.182101 
L 246.625903 344.082917 
L 252.437617 340.607743 
L 258.249332 346.017996 
L 264.061046 342.715317 
L 269.87276 343.593066 
L 275.684475 344.0419 
L 281.496189 344.320285 
L 287.307904 344.822104 
L 293.119618 343.017872 
L 298.931333 344.599694 
L 304.743047 344.325166 
L 310.554762 343.903494 
L 322.178191 344.102442 
L 327.989905 344.787305 
L 333.80162 344.355398 
L 339.613334 343.725803 
L 345.425048 343.906879 
L 357.048477 344.721252 
L 362.860192 344.237305 
L 368.671906 344.075753 
L 380.295335 344.31131 
L 386.10705 343.420492 
L 391.918764 343.291534 
L 397.730479 344.053394 
L 403.542193 343.571809 
L 409.353907 344.411611 
L 420.977336 344.08276 
L 426.789051 343.916957 
L 432.600765 345.021524 
L 438.41248 345.430442 
L 444.224194 343.460801 
L 450.035909 347.340564 
L 455.847623 345.24102 
L 461.659338 345.57365 
L 473.282767 345.976979 
L 479.094481 345.809916 
L 484.906195 346.016815 
L 490.71791 345.844005 
L 496.529624 345.159615 
L 502.341339 345.473428 
L 508.153053 345.268733 
L 513.964768 342.738699 
L 519.776482 289.601065 
L 525.588197 343.564409 
L 531.399911 351.06279 
L 537.211626 352.127836 
L 543.02334 352.298048 
L 583.705341 352.47196 
L 601.140485 352.682402 
L 630.199057 352.987556 
L 659.257629 353.088014 
L 787.115347 353.219727 
L 944.031638 353.217602 
L 949.843352 353.065261 
L 949.843352 353.065261 
" clip-path="url(#p54dff4b024)" style="fill: none; stroke: #2b908f; stroke-linecap: square"/>
   </g>
   <g id="line2d_15">
    <path d="M 83.897898 353.223882 
L 130.391613 353.171567 
L 136.203328 352.99818 
L 142.015042 352.346676 
L 147.826757 349.617709 
L 153.638471 336.246789 
L 159.450186 335.946254 
L 165.2619 336.12754 
L 171.073615 335.934917 
L 176.885329 336.134259 
L 182.697044 335.047169 
L 188.508758 337.6806 
L 194.320472 336.891631 
L 200.132187 337.122254 
L 205.943901 336.317015 
L 229.190759 335.210506 
L 235.002474 335.724028 
L 240.814188 336.113894 
L 246.625903 336.910316 
L 252.437617 336.824449 
L 258.249332 336.854576 
L 264.061046 336.636444 
L 269.87276 335.92337 
L 275.684475 335.805906 
L 281.496189 335.99937 
L 287.307904 335.565101 
L 293.119618 336.760521 
L 298.931333 336.245529 
L 304.743047 338.376249 
L 310.554762 337.94219 
L 316.366476 337.994571 
L 322.178191 337.051293 
L 327.989905 337.130442 
L 333.80162 337.847506 
L 339.613334 332.518395 
L 345.425048 342.390691 
L 351.236763 339.573349 
L 357.048477 338.412884 
L 362.860192 338.900269 
L 368.671906 338.998838 
L 386.10705 339.044816 
L 391.918764 339.167948 
L 397.730479 338.642353 
L 403.542193 339.791061 
L 409.353907 339.699106 
L 415.165622 340.039635 
L 420.977336 340.889382 
L 432.600765 342.255172 
L 438.41248 342.438873 
L 444.224194 341.550706 
L 455.847623 342.8237 
L 461.659338 341.553015 
L 467.471052 342.855192 
L 473.282767 343.06692 
L 479.094481 343.086235 
L 484.906195 342.364448 
L 490.71791 333.372342 
L 496.529624 269.042494 
L 502.341339 333.6987 
L 508.153053 347.214676 
L 513.964768 350.507646 
L 519.776482 351.2583 
L 531.399911 351.806149 
L 554.646769 352.168092 
L 606.952199 352.731477 
L 630.199057 352.922106 
L 746.433346 353.20364 
L 920.78478 353.20532 
L 944.031638 353.090691 
L 949.843352 351.525979 
L 949.843352 351.525979 
" clip-path="url(#p54dff4b024)" style="fill: none; stroke: #f45b5b; stroke-linecap: square"/>
   </g>
   <g id="line2d_16">
    <path d="M 83.897898 353.223882 
L 130.391613 353.176172 
L 136.203328 353.008249 
L 142.015042 352.411766 
L 147.826757 349.855695 
L 153.638471 335.58851 
L 159.450186 332.291446 
L 165.2619 339.142859 
L 171.073615 335.548935 
L 176.885329 337.940511 
L 182.697044 339.87084 
L 188.508758 337.698445 
L 194.320472 338.757612 
L 200.132187 339.08502 
L 205.943901 337.27058 
L 211.755616 335.902691 
L 217.56733 334.343752 
L 223.379045 337.684169 
L 229.190759 336.545014 
L 235.002474 337.258613 
L 240.814188 336.018055 
L 246.625903 338.259101 
L 252.437617 334.479271 
L 258.249332 340.123612 
L 264.061046 336.660693 
L 269.87276 337.975886 
L 275.684475 335.99937 
L 281.496189 337.489551 
L 287.307904 337.151857 
L 293.119618 337.745578 
L 298.931333 337.427198 
L 304.743047 338.378559 
L 310.554762 339.049224 
L 316.366476 338.398608 
L 322.178191 337.080266 
L 327.989905 338.992854 
L 333.80162 338.218686 
L 339.613334 337.793235 
L 345.425048 338.208819 
L 351.236763 337.839843 
L 357.048477 339.099191 
L 362.860192 339.107484 
L 368.671906 338.557746 
L 374.483621 339.707818 
L 380.295335 339.38482 
L 386.10705 337.669368 
L 391.918764 338.18604 
L 397.730479 340.84162 
L 403.542193 338.238001 
L 409.353907 339.167423 
L 415.165622 340.76856 
L 420.977336 341.591435 
L 426.789051 340.242965 
L 432.600765 342.343769 
L 438.41248 343.214826 
L 444.224194 339.651658 
L 450.035909 346.293443 
L 455.847623 343.740105 
L 461.659338 344.207335 
L 467.471052 343.147329 
L 473.282767 343.785978 
L 479.094481 343.81684 
L 484.906195 344.317556 
L 490.71791 344.271788 
L 496.529624 344.523091 
L 502.341339 344.517108 
L 508.153053 342.996694 
L 513.964768 334.085836 
L 519.776482 285.358283 
L 525.588197 342.09509 
L 531.399911 350.433746 
L 537.211626 351.799536 
L 543.02334 352.037822 
L 566.270198 352.328069 
L 606.952199 352.768007 
L 624.387343 352.912133 
L 670.881058 353.103917 
L 723.186488 353.189049 
L 810.362205 353.219491 
L 944.031638 353.168685 
L 949.843352 351.844674 
L 949.843352 351.844674 
" clip-path="url(#p54dff4b024)" style="fill: none; stroke: #91e8e1; stroke-linecap: square"/>
   </g>
   <g id="line2d_17">
    <path d="M 83.897898 353.223876 
L 130.391613 353.184247 
L 136.203328 353.056414 
L 142.015042 352.584728 
L 147.826757 350.616667 
L 153.638471 341.080326 
L 165.2619 341.080641 
L 171.073615 341.482159 
L 176.885329 341.662186 
L 182.697044 341.595004 
L 188.508758 342.450315 
L 200.132187 342.570613 
L 205.943901 342.352796 
L 211.755616 342.596751 
L 229.190759 342.817087 
L 235.002474 343.053694 
L 240.814188 343.429283 
L 246.625903 343.925171 
L 252.437617 344.019751 
L 258.249332 344.258562 
L 264.061046 344.082209 
L 275.684475 344.262236 
L 287.307904 344.710256 
L 293.119618 344.712775 
L 298.931333 345.366016 
L 304.743047 345.791887 
L 310.554762 345.894025 
L 316.366476 345.783069 
L 322.178191 346.063659 
L 327.989905 345.976008 
L 333.80162 346.479978 
L 339.613334 344.469345 
L 345.425048 348.443058 
L 351.236763 347.405725 
L 357.048477 347.07181 
L 362.860192 347.417377 
L 368.671906 347.610211 
L 380.295335 347.720641 
L 386.10705 348.034507 
L 391.918764 348.13612 
L 397.730479 348.087413 
L 403.542193 348.583825 
L 409.353907 348.592013 
L 415.165622 348.776239 
L 426.789051 349.430319 
L 438.41248 349.847478 
L 444.224194 349.748804 
L 450.035909 349.852621 
L 455.847623 350.218553 
L 461.659338 349.960322 
L 473.282767 350.445818 
L 479.094481 350.578502 
L 484.906195 350.520768 
L 490.71791 349.499076 
L 496.529624 336.171839 
L 502.341339 349.381612 
L 508.153053 352.022706 
L 513.964768 352.650228 
L 525.588197 352.863846 
L 548.835055 352.989708 
L 653.445915 353.189679 
L 839.420778 353.221486 
L 944.031638 353.211303 
L 949.843352 353.061193 
L 949.843352 353.061193 
" clip-path="url(#p54dff4b024)" style="fill: none; stroke: #7cb5ec; stroke-linecap: square"/>
   </g>
   <g id="line2d_18">
    <path d="M 83.897898 353.223877 
L 130.391613 353.18739 
L 136.203328 353.065514 
L 142.015042 352.628833 
L 147.826757 350.799318 
L 153.638471 340.763101 
L 159.450186 339.079351 
L 165.2619 343.205693 
L 171.073615 341.113288 
L 176.885329 343.150268 
L 182.697044 344.088612 
L 188.508758 343.015589 
L 194.320472 343.631249 
L 200.132187 343.962121 
L 205.943901 343.144495 
L 211.755616 342.591712 
L 217.56733 341.915693 
L 223.379045 343.962226 
L 229.190759 343.464344 
L 235.002474 343.978497 
L 240.814188 343.527852 
L 246.625903 344.691151 
L 252.437617 342.983048 
L 258.249332 345.906621 
L 264.061046 344.333617 
L 269.87276 345.153133 
L 275.684475 344.351147 
L 281.496189 345.160061 
L 287.307904 345.204149 
L 293.119618 345.484319 
L 298.931333 345.544783 
L 310.554762 346.529 
L 316.366476 346.301421 
L 322.178191 345.905991 
L 327.989905 346.842656 
L 339.613334 346.561646 
L 345.425048 346.870054 
L 351.236763 346.818302 
L 357.048477 347.423781 
L 362.860192 347.53757 
L 368.671906 347.512062 
L 374.483621 347.967745 
L 380.295335 347.915679 
L 386.10705 347.583863 
L 391.918764 347.882298 
L 397.730479 348.837018 
L 403.542193 348.087203 
L 409.353907 348.451981 
L 415.165622 349.099658 
L 420.977336 349.440082 
L 426.789051 349.003923 
L 432.600765 349.767384 
L 438.41248 350.151581 
L 444.224194 349.195392 
L 450.035909 351.156898 
L 455.847623 350.489906 
L 461.659338 350.68211 
L 467.471052 350.341056 
L 473.282767 350.646734 
L 479.094481 350.726933 
L 484.906195 350.957031 
L 496.529624 351.071765 
L 502.341339 351.14829 
L 508.153053 350.889009 
L 513.964768 349.909096 
L 519.776482 340.625273 
L 525.588197 351.200461 
L 531.399911 352.711112 
L 537.211626 352.951603 
L 572.081912 353.072425 
L 641.822486 353.18653 
L 746.433346 353.217392 
L 944.031638 353.217497 
L 949.843352 353.092895 
L 949.843352 353.092895 
" clip-path="url(#p54dff4b024)" style="fill: none; stroke: #434348; stroke-linecap: square"/>
   </g>
   <g id="line2d_19">
    <path d="M 83.897898 353.223878 
L 130.391613 353.18558 
L 136.203328 353.059362 
L 142.015042 352.607828 
L 147.826757 350.628626 
L 153.638471 343.083506 
L 165.2619 343.058418 
L 176.885329 343.641327 
L 182.697044 343.109749 
L 188.508758 344.022585 
L 194.320472 343.7421 
L 200.132187 343.888221 
L 205.943901 343.562493 
L 211.755616 343.866806 
L 217.56733 343.998126 
L 223.379045 344.012717 
L 229.190759 344.144877 
L 235.002474 344.500417 
L 240.814188 344.437749 
L 246.625903 344.701963 
L 252.437617 344.587544 
L 258.249332 344.688842 
L 264.061046 343.837624 
L 269.87276 344.373086 
L 281.496189 344.832548 
L 287.307904 345.236585 
L 304.743047 345.771102 
L 310.554762 345.75945 
L 316.366476 345.505733 
L 322.178191 345.656683 
L 327.989905 345.580368 
L 333.80162 346.181963 
L 339.613334 343.961911 
L 345.425048 348.23175 
L 351.236763 347.097213 
L 357.048477 346.494779 
L 362.860192 346.670187 
L 368.671906 346.675016 
L 374.483621 346.486486 
L 386.10705 347.003473 
L 397.730479 347.06908 
L 403.542193 347.55636 
L 409.353907 347.413598 
L 415.165622 347.629316 
L 432.600765 348.600516 
L 438.41248 348.598731 
L 444.224194 348.294418 
L 450.035909 348.492605 
L 455.847623 348.932542 
L 461.659338 348.522312 
L 467.471052 348.938316 
L 473.282767 349.160646 
L 479.094481 349.093464 
L 484.906195 348.410727 
L 490.71791 312.16906 
L 496.529624 314.166151 
L 502.341339 343.756691 
L 508.153053 348.930443 
L 513.964768 351.337134 
L 519.776482 351.888237 
L 525.588197 352.274744 
L 531.399911 352.486892 
L 543.02334 352.600997 
L 670.881058 353.158398 
L 810.362205 353.196397 
L 932.408209 353.05437 
L 938.219923 352.985299 
L 944.031638 352.481958 
L 949.843352 344.192114 
L 949.843352 344.192114 
" clip-path="url(#p54dff4b024)" style="fill: none; stroke: #90ed7d; stroke-linecap: square"/>
   </g>
   <g id="line2d_20">
    <path d="M 83.897898 353.223878 
L 130.391613 353.18713 
L 136.203328 353.066759 
L 142.015042 352.635534 
L 147.826757 350.739844 
L 153.638471 342.785176 
L 159.450186 341.286386 
L 165.2619 344.541356 
L 171.073615 343.016324 
L 176.885329 344.439428 
L 182.697044 345.174652 
L 188.508758 344.07696 
L 194.320472 344.594052 
L 200.132187 344.690941 
L 205.943901 343.999281 
L 211.755616 343.744094 
L 217.56733 343.360107 
L 223.379045 344.961979 
L 229.190759 344.503146 
L 235.002474 345.001553 
L 240.814188 344.443207 
L 246.625903 345.204044 
L 252.437617 343.577189 
L 258.249332 346.015687 
L 264.061046 343.877724 
L 269.87276 345.08763 
L 275.684475 344.617461 
L 281.496189 345.3889 
L 293.119618 345.750423 
L 298.931333 345.796401 
L 310.554762 346.124648 
L 316.366476 345.955643 
L 322.178191 345.523054 
L 327.989905 346.366818 
L 333.80162 346.305305 
L 339.613334 346.09809 
L 345.425048 346.476829 
L 351.236763 346.437464 
L 357.048477 346.681419 
L 362.860192 346.714905 
L 368.671906 346.52984 
L 380.295335 346.910678 
L 386.10705 346.549154 
L 391.918764 346.73275 
L 397.730479 347.864768 
L 403.542193 347.029926 
L 409.353907 347.1624 
L 415.165622 347.896049 
L 420.977336 348.182728 
L 426.789051 347.761895 
L 432.600765 348.613533 
L 438.41248 348.863051 
L 444.224194 347.50125 
L 450.035909 350.125023 
L 455.847623 349.22132 
L 461.659338 349.434518 
L 467.471052 348.990382 
L 473.282767 349.421816 
L 479.094481 349.458557 
L 484.906195 349.639528 
L 502.341339 349.550197 
L 508.153053 348.722493 
L 513.964768 310.477752 
L 519.776482 317.504574 
L 525.588197 346.504961 
L 531.399911 351.197312 
L 537.211626 352.15686 
L 548.835055 352.557013 
L 560.458483 352.717935 
L 583.705341 352.85104 
L 647.6342 353.129845 
L 734.809917 353.207314 
L 926.596494 353.199651 
L 938.219923 353.159237 
L 944.031638 352.928194 
L 949.843352 345.839859 
L 949.843352 345.839859 
" clip-path="url(#p54dff4b024)" style="fill: none; stroke: #f7a35c; stroke-linecap: square"/>
   </g>
   <g id="line2d_21">
    <path d="M 83.897898 353.223885 
L 130.391613 353.176166 
L 136.203328 353.022013 
L 142.015042 352.436691 
L 147.826757 350.059671 
L 153.638471 338.340769 
L 159.450186 338.118123 
L 165.2619 338.436188 
L 171.073615 338.397349 
L 182.697044 337.753556 
L 188.508758 337.982185 
L 200.132187 337.777699 
L 205.943901 337.089398 
L 211.755616 337.761114 
L 223.379045 337.396231 
L 229.190759 337.818638 
L 246.625903 337.443889 
L 252.437617 337.081001 
L 258.249332 337.356027 
L 264.061046 336.301479 
L 269.87276 337.047619 
L 275.684475 336.642533 
L 281.496189 336.834107 
L 293.119618 336.757057 
L 298.931333 337.264596 
L 304.743047 337.161199 
L 310.554762 336.660798 
L 322.178191 336.395954 
L 327.989905 335.554499 
L 333.80162 336.698378 
L 339.613334 331.490195 
L 345.425048 341.422745 
L 351.236763 338.499696 
L 357.048477 337.153326 
L 362.860192 336.830852 
L 368.671906 336.925012 
L 374.483621 336.439307 
L 380.295335 336.505754 
L 386.10705 337.022111 
L 391.918764 336.976763 
L 397.730479 336.417578 
L 403.542193 337.409983 
L 409.353907 336.981487 
L 415.165622 337.323486 
L 420.977336 337.849395 
L 426.789051 338.570447 
L 432.600765 339.057832 
L 438.41248 338.932181 
L 444.224194 338.251858 
L 450.035909 338.443746 
L 455.847623 339.331389 
L 461.659338 338.091041 
L 467.471052 339.161439 
L 473.282767 339.733012 
L 479.094481 339.655437 
L 484.906195 338.503895 
L 490.71791 333.584385 
L 496.529624 227.737927 
L 502.341339 323.567228 
L 508.153053 344.30076 
L 513.964768 349.266458 
L 519.776482 350.451171 
L 531.399911 351.208649 
L 543.02334 351.351621 
L 554.646769 351.451869 
L 572.081912 351.843939 
L 577.893627 351.851182 
L 583.705341 352.013364 
L 589.517056 351.980297 
L 624.387343 352.686969 
L 694.127916 353.138663 
L 816.17392 353.220436 
L 944.031638 353.200281 
L 949.843352 352.931868 
L 949.843352 352.931868 
" clip-path="url(#p54dff4b024)" style="fill: none; stroke: #8085e9; stroke-linecap: square"/>
   </g>
   <g id="line2d_22">
    <path d="M 83.897898 353.223885 
L 130.391613 353.179437 
L 136.203328 353.032118 
L 142.015042 352.484873 
L 147.826757 350.255301 
L 153.638471 337.449767 
L 159.450186 335.338151 
L 165.2619 340.744101 
L 171.073615 337.523772 
L 176.885329 340.03806 
L 182.697044 340.983857 
L 188.508758 338.838651 
L 194.320472 339.509001 
L 200.132187 339.829586 
L 205.943901 338.41152 
L 217.56733 336.489694 
L 223.379045 339.486432 
L 229.190759 338.437238 
L 235.002474 338.866678 
L 240.814188 337.592949 
L 246.625903 338.602779 
L 252.437617 335.225307 
L 258.249332 340.075535 
L 264.061046 336.830957 
L 269.87276 338.382338 
L 275.684475 336.634975 
L 281.496189 337.766887 
L 304.743047 337.770246 
L 310.554762 338.171449 
L 316.366476 337.229431 
L 322.178191 336.067706 
L 327.989905 337.968433 
L 339.613334 336.965741 
L 345.425048 337.047619 
L 351.236763 336.629201 
L 357.048477 337.832915 
L 362.860192 336.97225 
L 368.671906 336.441407 
L 374.483621 337.261132 
L 380.295335 336.931101 
L 386.10705 335.055882 
L 391.918764 335.868575 
L 397.730479 338.563729 
L 403.542193 335.424963 
L 409.353907 336.364462 
L 415.165622 337.927284 
L 420.977336 338.72822 
L 426.789051 336.531997 
L 432.600765 339.285936 
L 438.41248 340.024939 
L 444.224194 335.845481 
L 450.035909 343.999281 
L 455.847623 340.742212 
L 461.659338 341.454446 
L 467.471052 339.646725 
L 473.282767 340.756593 
L 479.094481 340.495948 
L 484.906195 340.994879 
L 490.71791 340.411445 
L 496.529624 340.736963 
L 502.341339 340.632096 
L 508.153053 338.007693 
L 513.964768 334.363802 
L 519.776482 251.88882 
L 525.588197 337.12152 
L 531.399911 349.478081 
L 537.211626 351.310157 
L 543.02334 351.538051 
L 554.646769 351.759646 
L 560.458483 351.906187 
L 566.270198 351.854751 
L 572.081912 351.948596 
L 577.893627 351.910911 
L 589.517056 352.106579 
L 612.763914 352.584306 
L 682.504487 353.118298 
L 769.680204 353.213928 
L 944.031638 353.214243 
L 949.843352 352.994536 
L 949.843352 352.994536 
" clip-path="url(#p54dff4b024)" style="fill: none; stroke: #f15c80; stroke-linecap: square"/>
   </g>
   <g id="line2d_23">
    <path d="M 83.897898 353.223883 
L 130.391613 353.192905 
L 136.203328 353.081188 
L 142.015042 352.672025 
L 147.826757 350.857819 
L 153.638471 343.541105 
L 159.450186 343.079359 
L 165.2619 342.162561 
L 171.073615 342.045727 
L 176.885329 341.683574 
L 182.697044 340.491066 
L 188.508758 342.680046 
L 194.320472 341.826861 
L 200.132187 341.902991 
L 205.943901 340.969975 
L 211.755616 339.839978 
L 229.190759 339.691338 
L 235.002474 339.978935 
L 240.814188 339.618907 
L 246.625903 339.771877 
L 252.437617 339.563718 
L 258.249332 340.179772 
L 264.061046 339.822815 
L 269.87276 338.940893 
L 275.684475 337.635174 
L 281.496189 337.229011 
L 287.307904 336.111217 
L 293.119618 336.161919 
L 298.931333 335.770006 
L 304.743047 337.912614 
L 310.554762 336.907403 
L 316.366476 336.534937 
L 322.178191 334.385715 
L 327.989905 334.584191 
L 333.80162 334.985157 
L 339.613334 327.444813 
L 345.425048 339.810455 
L 351.236763 335.740168 
L 357.048477 332.14501 
L 362.860192 332.719653 
L 368.671906 334.769361 
L 374.483621 331.564463 
L 380.295335 331.734517 
L 386.10705 334.281793 
L 397.730479 332.480947 
L 403.542193 334.437361 
L 409.353907 330.570903 
L 415.165622 330.769694 
L 420.977336 332.830739 
L 426.789051 334.418938 
L 432.600765 336.164202 
L 438.41248 337.085252 
L 444.224194 334.871945 
L 450.035909 334.863127 
L 455.847623 336.590834 
L 461.659338 333.316733 
L 467.471052 334.295885 
L 473.282767 336.27332 
L 479.094481 336.805213 
L 484.906195 335.359435 
L 490.71791 327.043531 
L 496.529624 209.316191 
L 502.341339 318.506794 
L 508.153053 342.659419 
L 513.964768 348.653212 
L 519.776482 349.915394 
L 525.588197 350.264321 
L 531.399911 350.801331 
L 537.211626 351.129001 
L 543.02334 351.185056 
L 548.835055 351.086015 
L 566.270198 351.609012 
L 572.081912 351.802527 
L 583.705341 351.998326 
L 606.952199 352.4422 
L 624.387343 352.704997 
L 676.692773 353.04306 
L 717.374774 353.14336 
L 781.303633 353.199888 
L 944.031638 353.136196 
L 949.843352 352.160823 
L 949.843352 352.160823 
" clip-path="url(#p54dff4b024)" style="fill: none; stroke: #e4d354; stroke-linecap: square"/>
   </g>
   <g id="line2d_24">
    <path d="M 83.897898 353.223882 
L 130.391613 353.195184 
L 136.203328 353.082043 
L 142.015042 352.711586 
L 147.826757 350.98042 
L 153.638471 342.673669 
L 159.450186 338.858779 
L 165.2619 344.788959 
L 171.073615 341.553514 
L 176.885329 342.452913 
L 182.697044 344.990662 
L 188.508758 342.891906 
L 194.320472 343.825474 
L 200.132187 343.81146 
L 205.943901 342.105797 
L 211.755616 340.127417 
L 217.56733 339.518134 
L 223.379045 340.586092 
L 229.190759 340.505238 
L 235.002474 340.696943 
L 240.814188 338.744386 
L 246.625903 341.0539 
L 252.437617 336.152944 
L 258.249332 343.733203 
L 264.061046 339.835805 
L 269.87276 341.087989 
L 275.684475 337.690599 
L 281.496189 337.833492 
L 287.307904 333.17258 
L 293.119618 340.813698 
L 298.931333 335.317944 
L 304.743047 340.046327 
L 310.554762 339.265493 
L 316.366476 338.870195 
L 322.178191 336.232302 
L 327.989905 337.051241 
L 333.80162 335.838185 
L 339.613334 333.726517 
L 345.425048 334.660006 
L 351.236763 333.340116 
L 357.048477 333.867285 
L 362.860192 333.579294 
L 368.671906 333.738248 
L 374.483621 333.409397 
L 380.295335 332.311915 
L 386.10705 332.392691 
L 391.918764 330.96258 
L 397.730479 336.089803 
L 403.542193 332.071162 
L 409.353907 329.667961 
L 415.165622 333.343501 
L 420.977336 334.436889 
L 426.789051 332.708001 
L 432.600765 336.61713 
L 438.41248 337.275619 
L 444.224194 330.482412 
L 450.035909 342.638399 
L 455.847623 338.827366 
L 461.659338 338.400891 
L 467.471052 334.469404 
L 473.282767 337.429927 
L 479.094481 338.371762 
L 490.71791 338.422148 
L 496.529624 338.746433 
L 502.341339 337.939776 
L 508.153053 335.377385 
L 513.964768 328.062756 
L 519.776482 241.036165 
L 525.588197 333.929953 
L 531.399911 348.466309 
L 537.211626 350.908009 
L 543.02334 351.199464 
L 548.835055 351.208832 
L 554.646769 351.520442 
L 560.458483 351.714902 
L 566.270198 351.749307 
L 572.081912 351.959119 
L 577.893627 351.917236 
L 589.517056 352.194598 
L 624.387343 352.76861 
L 688.316202 353.115097 
L 839.420778 353.220278 
L 944.031638 353.192172 
L 949.843352 352.342136 
L 949.843352 352.342136 
" clip-path="url(#p54dff4b024)" style="fill: none; stroke: #2b908f; stroke-linecap: square"/>
   </g>
   <g id="line2d_25">
    <path d="M 83.897898 353.223879 
L 130.391613 353.184053 
L 136.203328 353.057634 
L 142.015042 352.574293 
L 147.826757 350.630148 
L 153.638471 343.60275 
L 159.450186 343.521029 
L 171.073615 343.826025 
L 176.885329 343.816026 
L 182.697044 343.655262 
L 188.508758 344.008519 
L 194.320472 343.899479 
L 200.132187 343.917429 
L 205.943901 343.626683 
L 217.56733 344.114252 
L 223.379045 344.099923 
L 235.002474 344.367286 
L 258.249332 344.482624 
L 264.061046 344.149916 
L 269.87276 344.135666 
L 275.684475 344.437985 
L 298.931333 345.169692 
L 304.743047 345.385882 
L 316.366476 344.981845 
L 322.178191 345.313923 
L 327.989905 345.130642 
L 333.80162 345.660567 
L 339.613334 343.443245 
L 345.425048 347.662251 
L 351.236763 346.535954 
L 357.048477 346.078933 
L 368.671906 346.18254 
L 374.483621 346.107747 
L 391.918764 346.311026 
L 397.730479 346.231431 
L 403.542193 346.890077 
L 415.165622 346.954241 
L 426.789051 347.653197 
L 432.600765 347.908908 
L 438.41248 347.902059 
L 444.224194 347.561556 
L 455.847623 348.246498 
L 461.659338 347.930323 
L 467.471052 348.506697 
L 479.094481 348.619201 
L 484.906195 348.451902 
L 490.71791 347.173265 
L 496.529624 322.132026 
L 502.341339 346.29339 
L 508.153053 351.099872 
L 513.964768 352.212233 
L 519.776482 352.478416 
L 537.211626 352.728537 
L 647.6342 353.169813 
L 909.161351 353.222404 
L 944.031638 353.212563 
L 949.843352 353.074709 
L 949.843352 353.074709 
" clip-path="url(#p54dff4b024)" style="fill: none; stroke: #f45b5b; stroke-linecap: square"/>
   </g>
   <g id="line2d_26">
    <path d="M 83.897898 353.223879 
L 130.391613 353.186944 
L 136.203328 353.06346 
L 142.015042 352.619352 
L 147.826757 350.780531 
L 153.638471 343.172811 
L 159.450186 341.358581 
L 165.2619 345.56003 
L 171.073615 343.446394 
L 182.697044 346.009809 
L 188.508758 344.575761 
L 194.320472 344.956573 
L 200.132187 345.096474 
L 205.943901 344.323277 
L 211.755616 343.993954 
L 217.56733 344.270529 
L 229.190759 344.521123 
L 235.002474 344.748098 
L 240.814188 344.137162 
L 246.625903 345.010502 
L 252.437617 342.708467 
L 258.249332 346.294886 
L 264.061046 344.441843 
L 269.87276 345.189059 
L 275.684475 344.330756 
L 281.496189 344.720071 
L 287.307904 343.900109 
L 293.119618 346.584845 
L 298.931333 344.73873 
L 304.743047 346.321811 
L 310.554762 345.954068 
L 316.366476 346.079248 
L 322.178191 345.672927 
L 327.989905 345.889904 
L 333.80162 345.969184 
L 339.613334 345.487914 
L 345.425048 345.828575 
L 351.236763 345.83007 
L 357.048477 346.47675 
L 368.671906 345.998157 
L 374.483621 346.400147 
L 380.295335 346.364404 
L 386.10705 345.405957 
L 391.918764 346.014375 
L 397.730479 347.134215 
L 403.542193 346.128847 
L 420.977336 347.668077 
L 426.789051 346.954241 
L 432.600765 347.982677 
L 438.41248 348.285941 
L 444.224194 346.677824 
L 450.035909 349.890201 
L 455.847623 348.693206 
L 461.659338 349.068586 
L 467.471052 348.579915 
L 490.71791 349.230925 
L 502.341339 349.401846 
L 508.153053 348.955846 
L 513.964768 347.681933 
L 519.776482 330.784574 
L 525.588197 349.767463 
L 531.399911 352.342529 
L 537.211626 352.715232 
L 554.646769 352.883082 
L 630.199057 353.152099 
L 949.843352 353.106909 
L 949.843352 353.106909 
" clip-path="url(#p54dff4b024)" style="fill: none; stroke: #91e8e1; stroke-linecap: square"/>
   </g>
   <g id="line2d_27">
    <path d="M 83.897898 353.223878 
L 130.391613 353.183645 
L 136.203328 353.052313 
L 142.015042 352.566545 
L 147.826757 350.480334 
L 153.638471 342.562819 
L 159.450186 342.529595 
L 171.073615 342.840575 
L 176.885329 342.972131 
L 182.697044 342.67359 
L 188.508758 343.682738 
L 194.320472 343.328537 
L 200.132187 343.659907 
L 205.943901 343.310901 
L 211.755616 343.631171 
L 223.379045 343.832008 
L 246.625903 344.532381 
L 252.437617 344.482703 
L 258.249332 344.663937 
L 264.061046 344.092286 
L 269.87276 344.410509 
L 281.496189 344.827064 
L 287.307904 345.268497 
L 298.931333 345.608527 
L 310.554762 345.779999 
L 316.366476 345.483112 
L 322.178191 345.777165 
L 327.989905 345.677336 
L 333.80162 346.217417 
L 339.613334 344.246831 
L 345.425048 348.134546 
L 351.236763 347.129964 
L 357.048477 346.74246 
L 386.10705 346.987229 
L 391.918764 347.179563 
L 397.730479 347.004628 
L 403.542193 347.66477 
L 409.353907 347.703347 
L 420.977336 348.125177 
L 432.600765 348.573696 
L 438.41248 348.548266 
L 444.224194 348.31263 
L 450.035909 348.51087 
L 455.847623 348.892705 
L 461.659338 348.530001 
L 467.471052 349.110076 
L 473.282767 349.259661 
L 479.094481 349.243285 
L 484.906195 349.000485 
L 490.71791 344.95736 
L 496.529624 325.242213 
L 502.341339 346.691837 
L 508.153053 351.107036 
L 513.964768 352.210343 
L 519.776482 352.515733 
L 537.211626 352.778924 
L 583.705341 352.993775 
L 804.550491 353.218546 
L 944.031638 353.153674 
L 949.843352 352.366463 
L 949.843352 352.366463 
" clip-path="url(#p54dff4b024)" style="fill: none; stroke: #7cb5ec; stroke-linecap: square"/>
   </g>
   <g id="line2d_28">
    <path d="M 83.897898 353.223878 
L 130.391613 353.185098 
L 136.203328 353.059079 
L 142.015042 352.596941 
L 147.826757 350.592975 
L 153.638471 342.275458 
L 159.450186 340.510827 
L 165.2619 344.419877 
L 171.073615 342.47543 
L 176.885329 343.698248 
L 182.697044 345.049158 
L 188.508758 343.830985 
L 194.320472 344.205577 
L 200.132187 344.419169 
L 205.943901 343.759893 
L 211.755616 343.597632 
L 223.379045 344.078351 
L 229.190759 344.182588 
L 235.002474 344.42342 
L 240.814188 344.078036 
L 246.625903 344.944291 
L 252.437617 343.191391 
L 258.249332 346.114203 
L 264.061046 344.210143 
L 269.87276 345.142058 
L 275.684475 344.497976 
L 281.496189 345.038529 
L 287.307904 344.490733 
L 293.119618 346.594292 
L 298.931333 345.257711 
L 304.743047 346.501943 
L 310.554762 346.236705 
L 316.366476 346.330708 
L 322.178191 346.047441 
L 327.989905 346.294886 
L 333.80162 346.387944 
L 339.613334 346.141522 
L 345.425048 346.415893 
L 351.236763 346.499188 
L 357.048477 346.972585 
L 368.671906 346.710024 
L 374.483621 347.015492 
L 380.295335 347.022814 
L 386.10705 346.548787 
L 391.918764 346.896454 
L 397.730479 347.755072 
L 403.542193 347.144529 
L 409.353907 347.466924 
L 415.165622 348.036843 
L 420.977336 348.300979 
L 426.789051 347.831282 
L 432.600765 348.573932 
L 438.41248 348.761071 
L 444.224194 347.559982 
L 450.035909 350.046006 
L 455.847623 349.140938 
L 461.659338 349.368779 
L 467.471052 349.12716 
L 473.282767 349.372243 
L 484.906195 349.594495 
L 496.529624 349.876581 
L 502.341339 349.874062 
L 508.153053 349.576466 
L 513.964768 345.425797 
L 519.776482 330.722063 
L 525.588197 349.759275 
L 531.399911 352.33198 
L 537.211626 352.732238 
L 554.646769 352.907646 
L 694.127916 353.20658 
L 944.031638 353.192487 
L 949.843352 352.53943 
L 949.843352 352.53943 
" clip-path="url(#p54dff4b024)" style="fill: none; stroke: #434348; stroke-linecap: square"/>
   </g>
   <g id="line2d_29">
    <path d="M 83.897898 353.223883 
L 130.391613 353.180981 
L 136.203328 353.045971 
L 142.015042 352.520988 
L 147.826757 350.402491 
L 153.638471 341.980146 
L 171.073615 342.101073 
L 182.697044 341.706641 
L 188.508758 342.217277 
L 194.320472 342.167363 
L 200.132187 342.252705 
L 205.943901 341.616418 
L 211.755616 342.009512 
L 223.379045 341.780332 
L 229.190759 342.25302 
L 240.814188 341.968415 
L 246.625903 342.343244 
L 252.437617 342.288527 
L 258.249332 342.590689 
L 264.061046 341.705224 
L 269.87276 342.379695 
L 275.684475 341.90063 
L 281.496189 342.313248 
L 287.307904 342.422051 
L 293.119618 342.20909 
L 298.931333 342.547388 
L 304.743047 342.608088 
L 310.554762 342.499521 
L 316.366476 342.808217 
L 322.178191 342.782394 
L 327.989905 342.404416 
L 333.80162 343.061094 
L 339.613334 339.819745 
L 345.425048 345.772834 
L 351.236763 344.330756 
L 357.048477 343.412698 
L 362.860192 343.681557 
L 368.671906 343.627707 
L 374.483621 343.764852 
L 380.295335 343.611961 
L 386.10705 343.679274 
L 391.918764 343.879875 
L 397.730479 343.367744 
L 403.542193 344.203609 
L 409.353907 344.097167 
L 415.165622 344.301863 
L 420.977336 344.821474 
L 426.789051 345.218189 
L 432.600765 345.464296 
L 438.41248 345.351949 
L 444.224194 344.89233 
L 455.847623 345.730478 
L 461.659338 345.029712 
L 467.471052 345.742445 
L 473.282767 345.824481 
L 479.094481 345.688831 
L 484.906195 344.357209 
L 490.71791 290.177912 
L 496.529624 276.346731 
L 502.341339 334.832108 
L 508.153053 345.730714 
L 513.964768 349.783917 
L 519.776482 350.849671 
L 525.588197 351.475251 
L 531.399911 351.824965 
L 583.705341 352.501168 
L 665.069344 353.048334 
L 694.127916 353.141707 
L 920.78478 353.10124 
L 938.219923 352.873871 
L 944.031638 352.103666 
L 949.843352 339.79337 
L 949.843352 339.79337 
" clip-path="url(#p54dff4b024)" style="fill: none; stroke: #90ed7d; stroke-linecap: square"/>
   </g>
   <g id="line2d_30">
    <path d="M 83.897898 353.223884 
L 130.391613 353.18496 
L 136.203328 353.053212 
L 142.015042 352.583265 
L 147.826757 350.620274 
L 153.638471 341.421406 
L 159.450186 339.19196 
L 165.2619 344.525689 
L 171.073615 341.638383 
L 176.885329 343.150216 
L 182.697044 344.869183 
L 188.508758 343.088886 
L 194.320472 343.645027 
L 200.132187 343.936088 
L 205.943901 342.874507 
L 211.755616 342.004237 
L 217.56733 342.131069 
L 223.379045 342.376861 
L 235.002474 342.624778 
L 240.814188 341.683574 
L 246.625903 343.22241 
L 252.437617 340.431154 
L 258.249332 344.888472 
L 264.061046 342.232472 
L 269.87276 343.452535 
L 275.684475 341.918265 
L 281.496189 342.529202 
L 287.307904 341.13877 
L 293.119618 344.583397 
L 298.931333 341.889765 
L 304.743047 344.123463 
L 310.554762 343.884914 
L 316.366476 344.04497 
L 322.178191 343.425216 
L 327.989905 343.725882 
L 333.80162 343.668016 
L 339.613334 343.005118 
L 345.425048 343.048104 
L 351.236763 343.212411 
L 357.048477 344.084256 
L 368.671906 343.403723 
L 374.483621 344.212269 
L 380.295335 343.82264 
L 386.10705 342.61415 
L 391.918764 343.28681 
L 397.730479 344.666929 
L 403.542193 343.09794 
L 409.353907 343.805004 
L 415.165622 344.725346 
L 420.977336 345.253145 
L 426.789051 344.175739 
L 432.600765 345.58979 
L 438.41248 345.842273 
L 444.224194 343.582752 
L 450.035909 348.285941 
L 455.847623 346.493598 
L 461.659338 346.871497 
L 467.471052 345.89825 
L 473.282767 346.244106 
L 496.529624 346.792217 
L 502.341339 346.451006 
L 508.153053 344.319026 
L 513.964768 286.687936 
L 519.776482 286.322555 
L 525.588197 340.963676 
L 531.399911 349.578513 
L 537.211626 351.382823 
L 543.02334 351.795048 
L 554.646769 352.240182 
L 630.199057 352.943861 
L 717.374774 353.175797 
L 914.973066 353.208548 
L 938.219923 353.138951 
L 944.031638 352.780577 
L 949.843352 342.104065 
L 949.843352 342.104065 
" clip-path="url(#p54dff4b024)" style="fill: none; stroke: #f7a35c; stroke-linecap: square"/>
   </g>
   <g id="line2d_31">
    <path d="M 83.897898 353.223893 
L 136.203328 353.124426 
L 142.015042 352.83475 
L 147.826757 351.653041 
L 153.638471 346.758915 
L 159.450186 346.520996 
L 165.2619 345.975561 
L 171.073615 345.744807 
L 176.885329 345.301169 
L 182.697044 344.143617 
L 188.508758 345.242674 
L 194.320472 344.644019 
L 200.132187 344.472547 
L 205.943901 343.917823 
L 211.755616 342.994175 
L 217.56733 342.963234 
L 223.379045 343.289645 
L 229.190759 343.018423 
L 235.002474 343.16793 
L 240.814188 342.609033 
L 246.625903 342.48716 
L 252.437617 341.867957 
L 258.249332 342.29333 
L 264.061046 341.878034 
L 275.684475 338.531818 
L 281.496189 338.385461 
L 287.307904 336.940784 
L 293.119618 337.043998 
L 298.931333 336.254661 
L 304.743047 338.163366 
L 310.554762 336.450933 
L 316.366476 335.748828 
L 322.178191 333.438527 
L 327.989905 333.437976 
L 333.80162 333.555833 
L 339.613334 323.723531 
L 345.425048 338.322084 
L 351.236763 331.067998 
L 357.048477 327.410802 
L 362.860192 325.944711 
L 368.671906 328.687471 
L 374.483621 325.879839 
L 380.295335 325.358653 
L 386.10705 329.089146 
L 391.918764 327.344355 
L 397.730479 325.740567 
L 403.542193 327.81846 
L 409.353907 323.012766 
L 415.165622 322.271061 
L 420.977336 323.531275 
L 426.789051 325.160177 
L 432.600765 327.874122 
L 438.41248 329.217395 
L 444.224194 325.559412 
L 450.035909 325.123962 
L 455.847623 326.037139 
L 461.659338 319.459414 
L 467.471052 320.699631 
L 473.282767 323.682829 
L 479.094481 323.851072 
L 484.906195 320.077909 
L 490.71791 310.728294 
L 496.529624 50.397233 
L 502.341339 277.506959 
L 508.153053 330.546104 
L 513.964768 343.838149 
L 519.776482 346.859688 
L 525.588197 347.41638 
L 531.399911 348.516538 
L 537.211626 349.178491 
L 543.02334 349.149283 
L 548.835055 348.703126 
L 554.646769 348.992849 
L 566.270198 349.833595 
L 572.081912 350.129773 
L 577.893627 350.198189 
L 583.705341 350.496572 
L 595.32877 350.568372 
L 601.140485 351.161438 
L 606.952199 351.283704 
L 612.763914 351.598068 
L 624.387343 351.816463 
L 630.199057 352.001948 
L 641.822486 352.085794 
L 647.6342 352.273405 
L 653.445915 352.308204 
L 665.069344 352.573205 
L 688.316202 352.868675 
L 717.374774 352.949372 
L 752.245061 353.069827 
L 775.491918 353.0988 
L 926.596494 353.220436 
L 944.031638 353.206186 
L 949.843352 352.99598 
L 949.843352 352.99598 
" clip-path="url(#p54dff4b024)" style="fill: none; stroke: #8085e9; stroke-linecap: square"/>
   </g>
   <g id="line2d_32">
    <path d="M 83.897898 353.223893 
L 136.203328 353.11853 
L 142.015042 352.870595 
L 147.826757 351.658453 
L 153.638471 345.953439 
L 159.450186 340.832514 
L 165.2619 347.891824 
L 171.073615 345.286053 
L 176.885329 344.449637 
L 182.697044 348.393957 
L 188.508758 344.906265 
L 194.320472 347.135948 
L 200.132187 346.792847 
L 205.943901 345.155836 
L 211.755616 343.236188 
L 217.56733 338.904442 
L 223.379045 345.224015 
L 229.190759 344.372089 
L 235.002474 344.935946 
L 240.814188 341.364958 
L 246.625903 344.536239 
L 252.437617 336.7986 
L 258.249332 347.134767 
L 264.061046 341.169474 
L 269.87276 343.035035 
L 275.684475 342.2716 
L 281.496189 340.364077 
L 287.307904 334.122524 
L 293.119618 339.070245 
L 298.931333 342.01455 
L 304.743047 341.025242 
L 310.554762 337.963552 
L 316.366476 335.841886 
L 322.178191 329.254713 
L 327.989905 338.523079 
L 333.80162 331.07099 
L 339.613334 335.141434 
L 345.425048 333.622989 
L 351.236763 327.906322 
L 357.048477 329.170552 
L 362.860192 327.95907 
L 368.671906 327.675882 
L 374.483621 328.895473 
L 380.295335 326.751053 
L 386.10705 326.741685 
L 391.918764 322.317354 
L 397.730479 331.780967 
L 403.542193 324.462166 
L 409.353907 319.357066 
L 415.165622 326.149879 
L 420.977336 326.716727 
L 426.789051 322.026765 
L 432.600765 328.106923 
L 438.41248 329.871554 
L 444.224194 316.275694 
L 450.035909 337.975047 
L 455.847623 330.520438 
L 461.659338 329.753146 
L 467.471052 321.455744 
L 473.282767 325.483675 
L 479.094481 327.350181 
L 484.906195 327.382302 
L 490.71791 326.400237 
L 496.529624 325.947231 
L 502.341339 324.366983 
L 508.153053 317.768158 
L 513.964768 310.736088 
L 519.776482 107.69711 
L 525.588197 308.901153 
L 531.399911 342.865689 
L 537.211626 348.513468 
L 543.02334 349.230846 
L 548.835055 348.974426 
L 554.646769 349.659447 
L 560.458483 350.173625 
L 566.270198 350.317227 
L 572.081912 350.644976 
L 577.893627 350.617814 
L 589.517056 351.002878 
L 595.32877 351.009727 
L 601.140485 351.509183 
L 618.575628 351.971873 
L 647.6342 352.507624 
L 659.257629 352.602492 
L 682.504487 352.899301 
L 769.680204 353.126985 
L 944.031638 353.216657 
L 949.843352 353.034872 
L 949.843352 353.034872 
" clip-path="url(#p54dff4b024)" style="fill: none; stroke: #f15c80; stroke-linecap: square"/>
   </g>
   <g id="line2d_33">
    <path d="M 83.897898 353.223879 
L 130.391613 353.177943 
L 136.203328 353.015241 
L 142.015042 352.408688 
L 147.826757 349.932836 
L 153.638471 339.036103 
L 159.450186 338.782491 
L 165.2619 338.825319 
L 171.073615 339.210461 
L 176.885329 338.93407 
L 182.697044 339.136876 
L 188.508758 339.950094 
L 200.132187 339.986099 
L 211.755616 339.612504 
L 217.56733 339.571775 
L 223.379045 339.814365 
L 229.190759 339.896243 
L 235.002474 340.327888 
L 240.814188 340.566489 
L 246.625903 341.004957 
L 252.437617 340.978609 
L 258.249332 341.64728 
L 264.061046 341.304651 
L 269.87276 341.488772 
L 275.684475 340.97336 
L 298.931333 342.041554 
L 304.743047 342.606198 
L 310.554762 342.931087 
L 322.178191 342.45189 
L 327.989905 341.32953 
L 333.80162 344.505456 
L 339.613334 340.048767 
L 345.425048 346.610563 
L 351.236763 344.460948 
L 357.048477 343.982905 
L 362.860192 344.18949 
L 368.671906 344.688107 
L 374.483621 344.650527 
L 380.295335 344.887134 
L 386.10705 345.248447 
L 391.918764 345.249182 
L 397.730479 345.095923 
L 403.542193 345.885732 
L 409.353907 345.742445 
L 426.789051 347.027721 
L 432.600765 347.627426 
L 438.41248 347.742055 
L 444.224194 347.437847 
L 455.847623 348.039441 
L 461.659338 347.423886 
L 467.471052 348.19396 
L 479.094481 348.634002 
L 484.906195 348.493864 
L 490.71791 347.715183 
L 496.529624 320.624445 
L 502.341339 345.316154 
L 508.153053 350.787396 
L 513.964768 352.122744 
L 519.776482 352.470097 
L 560.458483 352.826266 
L 589.517056 352.943205 
L 647.6342 353.141392 
L 758.056775 353.217182 
L 944.031638 353.222535 
L 949.843352 353.20385 
L 949.843352 353.20385 
" clip-path="url(#p54dff4b024)" style="fill: none; stroke: #e4d354; stroke-linecap: square"/>
   </g>
   <g id="line2d_34">
    <path d="M 83.897898 353.223879 
L 130.391613 353.181351 
L 136.203328 353.026965 
L 142.015042 352.47156 
L 147.826757 350.12055 
L 153.638471 338.750369 
L 159.450186 335.347809 
L 165.2619 341.706484 
L 171.073615 338.911816 
L 176.885329 340.2437 
L 182.697044 343.252721 
L 188.508758 340.75019 
L 194.320472 342.086377 
L 200.132187 342.154399 
L 211.755616 339.642421 
L 217.56733 337.918257 
L 223.379045 341.919052 
L 229.190759 341.12452 
L 235.002474 341.888925 
L 240.814188 340.331667 
L 246.625903 342.663303 
L 252.437617 338.339089 
L 258.249332 345.219055 
L 264.061046 341.621982 
L 269.87276 342.869678 
L 275.684475 343.03102 
L 281.496189 342.011847 
L 287.307904 340.490279 
L 293.119618 342.607983 
L 298.931333 343.664211 
L 304.743047 344.185711 
L 316.366476 342.892982 
L 322.178191 341.727688 
L 327.989905 344.825515 
L 333.80162 342.791789 
L 339.613334 344.313882 
L 345.425048 344.240821 
L 351.236763 343.567531 
L 357.048477 344.506296 
L 368.671906 344.598146 
L 374.483621 345.246453 
L 380.295335 345.326546 
L 386.10705 344.56445 
L 391.918764 344.805046 
L 397.730479 346.514619 
L 403.542193 344.997144 
L 409.353907 345.340717 
L 415.165622 346.695905 
L 420.977336 347.141616 
L 426.789051 346.350128 
L 432.600765 347.715498 
L 438.41248 348.320241 
L 444.224194 346.476829 
L 450.035909 350.001891 
L 455.847623 348.602405 
L 461.659338 348.889189 
L 467.471052 348.390362 
L 473.282767 348.526406 
L 484.906195 349.42843 
L 490.71791 349.289972 
L 496.529624 349.490468 
L 502.341339 349.317474 
L 508.153053 348.839747 
L 513.964768 348.086363 
L 519.776482 328.350484 
L 525.588197 349.304773 
L 531.399911 352.245771 
L 537.211626 352.732211 
L 595.32877 353.003459 
L 647.6342 353.156613 
L 949.843352 353.208469 
L 949.843352 353.208469 
" clip-path="url(#p54dff4b024)" style="fill: none; stroke: #2b908f; stroke-linecap: square"/>
   </g>
   <g id="line2d_35">
    <path d="M 83.897898 353.223882 
L 130.391613 353.183535 
L 136.203328 353.052939 
L 142.015042 352.590057 
L 147.826757 350.557373 
L 153.638471 343.903179 
L 159.450186 343.99545 
L 165.2619 343.910186 
L 171.073615 344.145271 
L 176.885329 344.115354 
L 182.697044 343.920736 
L 188.508758 344.752507 
L 194.320472 344.527736 
L 205.943901 344.50459 
L 211.755616 344.578437 
L 217.56733 344.851942 
L 223.379045 344.756207 
L 235.002474 344.983655 
L 240.814188 344.747862 
L 246.625903 344.954368 
L 252.437617 344.773764 
L 258.249332 344.790376 
L 264.061046 344.682753 
L 275.684475 344.756207 
L 281.496189 345.197326 
L 287.307904 345.470122 
L 293.119618 345.170086 
L 298.931333 345.687256 
L 304.743047 345.307782 
L 310.554762 345.349194 
L 316.366476 345.104347 
L 322.178191 345.466815 
L 327.989905 345.503818 
L 333.80162 345.861719 
L 339.613334 343.568266 
L 345.425048 347.896233 
L 351.236763 346.695931 
L 362.860192 346.055629 
L 374.483621 345.801413 
L 386.10705 346.105543 
L 391.918764 346.081846 
L 397.730479 345.609472 
L 403.542193 346.498794 
L 409.353907 346.653103 
L 415.165622 346.559258 
L 420.977336 346.625233 
L 426.789051 347.109573 
L 432.600765 347.340485 
L 444.224194 347.0088 
L 450.035909 347.233335 
L 455.847623 347.605015 
L 461.659338 347.02061 
L 467.471052 347.839233 
L 473.282767 347.849232 
L 484.906195 347.351429 
L 490.71791 345.13143 
L 496.529624 311.024 
L 502.341339 343.217922 
L 508.153053 350.152447 
L 513.964768 351.782058 
L 519.776482 352.245142 
L 537.211626 352.544233 
L 583.705341 352.846631 
L 682.504487 353.186268 
L 769.680204 353.219727 
L 944.031638 353.202171 
L 949.843352 352.946223 
L 949.843352 352.946223 
" clip-path="url(#p54dff4b024)" style="fill: none; stroke: #f45b5b; stroke-linecap: square"/>
   </g>
   <g id="line2d_36">
    <path d="M 83.897898 353.223883 
L 130.391613 353.186208 
L 136.203328 353.057184 
L 142.015042 352.625963 
L 147.826757 350.608097 
L 153.638471 343.735093 
L 159.450186 341.256627 
L 165.2619 345.713079 
L 171.073615 343.899322 
L 176.885329 344.157238 
L 182.697044 346.712464 
L 188.508758 344.545765 
L 194.320472 345.726935 
L 200.132187 345.467996 
L 211.755616 344.408304 
L 217.56733 343.359083 
L 223.379045 345.802909 
L 229.190759 345.255979 
L 235.002474 345.696546 
L 240.814188 344.367601 
L 246.625903 345.768504 
L 252.437617 342.500151 
L 258.249332 347.196333 
L 264.061046 344.516242 
L 269.87276 345.545386 
L 275.684475 345.828732 
L 281.496189 345.620179 
L 287.307904 344.663543 
L 293.119618 345.39525 
L 298.931333 346.490764 
L 304.743047 346.105386 
L 310.554762 345.496417 
L 316.366476 345.257553 
L 322.178191 344.700231 
L 327.989905 346.615785 
L 333.80162 345.421703 
L 339.613334 346.359208 
L 345.425048 346.252687 
L 351.236763 345.929111 
L 357.048477 346.435575 
L 368.671906 345.796217 
L 374.483621 346.078303 
L 380.295335 346.142782 
L 386.10705 345.602465 
L 391.918764 345.560266 
L 397.730479 346.631531 
L 403.542193 345.827157 
L 409.353907 346.081609 
L 415.165622 346.747105 
L 420.977336 346.970459 
L 426.789051 346.310711 
L 432.600765 347.211134 
L 438.41248 347.644773 
L 444.224194 345.926986 
L 450.035909 349.310992 
L 455.847623 347.897335 
L 461.659338 348.24453 
L 467.471052 347.959452 
L 479.094481 347.947249 
L 484.906195 348.336564 
L 490.71791 348.214219 
L 502.341339 348.200284 
L 508.153053 347.896705 
L 513.964768 345.882425 
L 519.776482 318.486639 
L 525.588197 347.931897 
L 531.399911 351.935422 
L 537.211626 352.555806 
L 554.646769 352.737985 
L 572.081912 352.817895 
L 589.517056 352.900088 
L 624.387343 353.091478 
L 694.127916 353.196817 
L 926.596494 353.223428 
L 944.031638 353.213744 
L 949.843352 353.001963 
L 949.843352 353.001963 
" clip-path="url(#p54dff4b024)" style="fill: none; stroke: #91e8e1; stroke-linecap: square"/>
   </g>
   <g id="line2d_37">
    <path d="M 83.897898 353.223885 
L 130.391613 353.179319 
L 136.203328 353.031781 
L 142.015042 352.482352 
L 147.826757 350.199224 
L 153.638471 339.110318 
L 165.2619 338.571707 
L 171.073615 338.65264 
L 176.885329 338.14993 
L 182.697044 337.951218 
L 188.508758 338.474503 
L 194.320472 338.012941 
L 200.132187 337.976096 
L 205.943901 337.056542 
L 211.755616 337.406309 
L 217.56733 337.43801 
L 223.379045 337.296823 
L 229.190759 337.815804 
L 235.002474 337.730462 
L 240.814188 337.219668 
L 246.625903 337.449662 
L 252.437617 336.929421 
L 258.249332 337.280657 
L 264.061046 335.969663 
L 269.87276 336.871162 
L 275.684475 335.983834 
L 281.496189 336.421147 
L 287.307904 336.330451 
L 293.119618 336.102032 
L 298.931333 336.821195 
L 304.743047 336.836731 
L 310.554762 335.956226 
L 316.366476 335.691592 
L 322.178191 335.559222 
L 327.989905 334.927711 
L 333.80162 336.106231 
L 339.613334 330.205339 
L 345.425048 340.870487 
L 351.236763 337.616357 
L 357.048477 335.500963 
L 362.860192 335.718675 
L 368.671906 336.331711 
L 374.483621 334.956369 
L 380.295335 335.177544 
L 386.10705 336.161971 
L 391.918764 335.923055 
L 397.730479 335.891983 
L 403.542193 336.829698 
L 409.353907 335.4363 
L 415.165622 335.740719 
L 420.977336 337.08142 
L 426.789051 337.94261 
L 432.600765 338.613801 
L 438.41248 338.798027 
L 444.224194 337.60586 
L 450.035909 337.674092 
L 455.847623 338.911186 
L 461.659338 337.360751 
L 467.471052 338.198007 
L 473.282767 339.209936 
L 479.094481 339.51425 
L 484.906195 337.940406 
L 490.71791 333.220448 
L 496.529624 224.02045 
L 502.341339 322.547006 
L 508.153053 343.967999 
L 513.964768 349.196547 
L 519.776482 350.371498 
L 531.399911 351.153329 
L 543.02334 351.279715 
L 548.835055 351.259665 
L 572.081912 351.795757 
L 577.893627 351.82179 
L 583.705341 352.015148 
L 595.32877 352.142479 
L 601.140485 352.330589 
L 653.445915 352.896178 
L 758.056775 353.200386 
L 944.031638 353.206265 
L 949.843352 352.980785 
L 949.843352 352.980785 
" clip-path="url(#p54dff4b024)" style="fill: none; stroke: #7cb5ec; stroke-linecap: square"/>
   </g>
   <g id="line2d_38">
    <path d="M 83.897898 353.223885 
L 130.391613 353.182529 
L 136.203328 353.03581 
L 142.015042 352.529719 
L 147.826757 350.29498 
L 153.638471 338.2422 
L 159.450186 334.087096 
L 165.2619 341.356822 
L 171.073615 337.977251 
L 176.885329 338.885363 
L 182.697044 342.398879 
L 188.508758 339.079981 
L 194.320472 340.395594 
L 200.132187 340.536992 
L 205.943901 338.666497 
L 211.755616 337.172431 
L 217.56733 334.722911 
L 223.379045 339.699421 
L 229.190759 338.715414 
L 235.002474 339.398361 
L 240.814188 336.416738 
L 246.625903 339.406549 
L 252.437617 332.498241 
L 258.249332 342.223261 
L 264.061046 336.284368 
L 269.87276 338.57853 
L 275.684475 338.707016 
L 281.496189 337.417541 
L 287.307904 334.548448 
L 293.119618 337.380276 
L 298.931333 339.200174 
L 304.743047 339.093627 
L 310.554762 337.065045 
L 316.366476 335.43714 
L 322.178191 333.367198 
L 327.989905 338.498122 
L 333.80162 335.307395 
L 339.613334 337.685534 
L 345.425048 337.231845 
L 351.236763 335.690647 
L 357.048477 336.284159 
L 380.295335 336.007872 
L 386.10705 334.463735 
L 391.918764 334.390465 
L 397.730479 338.44805 
L 403.542193 334.727845 
L 409.353907 334.35047 
L 415.165622 336.828963 
L 420.977336 338.348642 
L 426.789051 335.748697 
L 432.600765 338.741132 
L 438.41248 340.05664 
L 444.224194 334.616469 
L 450.035909 343.788392 
L 455.847623 340.350876 
L 461.659338 341.139845 
L 467.471052 338.883369 
L 473.282767 339.640846 
L 479.094481 340.544655 
L 484.906195 340.845819 
L 490.71791 340.142927 
L 496.529624 340.56166 
L 502.341339 339.245837 
L 508.153053 337.55117 
L 513.964768 333.735335 
L 519.776482 249.291185 
L 525.588197 336.852792 
L 531.399911 349.425176 
L 537.211626 351.302389 
L 560.458483 351.868187 
L 566.270198 351.854961 
L 572.081912 351.967386 
L 577.893627 351.929806 
L 595.32877 352.296158 
L 612.763914 352.612438 
L 705.751345 353.136038 
L 885.914493 353.222535 
L 944.031638 353.215922 
L 949.843352 353.026973 
L 949.843352 353.026973 
" clip-path="url(#p54dff4b024)" style="fill: none; stroke: #434348; stroke-linecap: square"/>
   </g>
   <g id="line2d_39">
    <path d="M 40.600625 353.2239 
L 993.140625 353.2239 
" clip-path="url(#p54dff4b024)" style="fill: none; stroke: #dedede; stroke-width: 2; stroke-linecap: square"/>
   </g>
   <g id="text_18">
    <!-- Cutadapt: Lengths of Trimmed Sequences (3' end) -->
    <g transform="translate(315.518125 19.3575) scale(0.16 -0.16)">
     <defs>
      <path id="DejaVuSans-43" d="M 4122 4306 
L 4122 3641 
Q 3803 3938 3442 4084 
Q 3081 4231 2675 4231 
Q 1875 4231 1450 3742 
Q 1025 3253 1025 2328 
Q 1025 1406 1450 917 
Q 1875 428 2675 428 
Q 3081 428 3442 575 
Q 3803 722 4122 1019 
L 4122 359 
Q 3791 134 3420 21 
Q 3050 -91 2638 -91 
Q 1578 -91 968 557 
Q 359 1206 359 2328 
Q 359 3453 968 4101 
Q 1578 4750 2638 4750 
Q 3056 4750 3426 4639 
Q 3797 4528 4122 4306 
z
" transform="scale(0.015625)"/>
      <path id="DejaVuSans-75" d="M 544 1381 
L 544 3500 
L 1119 3500 
L 1119 1403 
Q 1119 906 1312 657 
Q 1506 409 1894 409 
Q 2359 409 2629 706 
Q 2900 1003 2900 1516 
L 2900 3500 
L 3475 3500 
L 3475 0 
L 2900 0 
L 2900 538 
Q 2691 219 2414 64 
Q 2138 -91 1772 -91 
Q 1169 -91 856 284 
Q 544 659 544 1381 
z
M 1991 3584 
L 1991 3584 
z
" transform="scale(0.015625)"/>
      <path id="DejaVuSans-61" d="M 2194 1759 
Q 1497 1759 1228 1600 
Q 959 1441 959 1056 
Q 959 750 1161 570 
Q 1363 391 1709 391 
Q 2188 391 2477 730 
Q 2766 1069 2766 1631 
L 2766 1759 
L 2194 1759 
z
M 3341 1997 
L 3341 0 
L 2766 0 
L 2766 531 
Q 2569 213 2275 61 
Q 1981 -91 1556 -91 
Q 1019 -91 701 211 
Q 384 513 384 1019 
Q 384 1609 779 1909 
Q 1175 2209 1959 2209 
L 2766 2209 
L 2766 2266 
Q 2766 2663 2505 2880 
Q 2244 3097 1772 3097 
Q 1472 3097 1187 3025 
Q 903 2953 641 2809 
L 641 3341 
Q 956 3463 1253 3523 
Q 1550 3584 1831 3584 
Q 2591 3584 2966 3190 
Q 3341 2797 3341 1997 
z
" transform="scale(0.015625)"/>
      <path id="DejaVuSans-3a" d="M 750 794 
L 1409 794 
L 1409 0 
L 750 0 
L 750 794 
z
M 750 3309 
L 1409 3309 
L 1409 2516 
L 750 2516 
L 750 3309 
z
" transform="scale(0.015625)"/>
      <path id="DejaVuSans-6f" d="M 1959 3097 
Q 1497 3097 1228 2736 
Q 959 2375 959 1747 
Q 959 1119 1226 758 
Q 1494 397 1959 397 
Q 2419 397 2687 759 
Q 2956 1122 2956 1747 
Q 2956 2369 2687 2733 
Q 2419 3097 1959 3097 
z
M 1959 3584 
Q 2709 3584 3137 3096 
Q 3566 2609 3566 1747 
Q 3566 888 3137 398 
Q 2709 -91 1959 -91 
Q 1206 -91 779 398 
Q 353 888 353 1747 
Q 353 2609 779 3096 
Q 1206 3584 1959 3584 
z
" transform="scale(0.015625)"/>
      <path id="DejaVuSans-66" d="M 2375 4863 
L 2375 4384 
L 1825 4384 
Q 1516 4384 1395 4259 
Q 1275 4134 1275 3809 
L 1275 3500 
L 2222 3500 
L 2222 3053 
L 1275 3053 
L 1275 0 
L 697 0 
L 697 3053 
L 147 3053 
L 147 3500 
L 697 3500 
L 697 3744 
Q 697 4328 969 4595 
Q 1241 4863 1831 4863 
L 2375 4863 
z
" transform="scale(0.015625)"/>
      <path id="DejaVuSans-53" d="M 3425 4513 
L 3425 3897 
Q 3066 4069 2747 4153 
Q 2428 4238 2131 4238 
Q 1616 4238 1336 4038 
Q 1056 3838 1056 3469 
Q 1056 3159 1242 3001 
Q 1428 2844 1947 2747 
L 2328 2669 
Q 3034 2534 3370 2195 
Q 3706 1856 3706 1288 
Q 3706 609 3251 259 
Q 2797 -91 1919 -91 
Q 1588 -91 1214 -16 
Q 841 59 441 206 
L 441 856 
Q 825 641 1194 531 
Q 1563 422 1919 422 
Q 2459 422 2753 634 
Q 3047 847 3047 1241 
Q 3047 1584 2836 1778 
Q 2625 1972 2144 2069 
L 1759 2144 
Q 1053 2284 737 2584 
Q 422 2884 422 3419 
Q 422 4038 858 4394 
Q 1294 4750 2059 4750 
Q 2388 4750 2728 4690 
Q 3069 4631 3425 4513 
z
" transform="scale(0.015625)"/>
      <path id="DejaVuSans-71" d="M 947 1747 
Q 947 1113 1208 752 
Q 1469 391 1925 391 
Q 2381 391 2643 752 
Q 2906 1113 2906 1747 
Q 2906 2381 2643 2742 
Q 2381 3103 1925 3103 
Q 1469 3103 1208 2742 
Q 947 2381 947 1747 
z
M 2906 525 
Q 2725 213 2448 61 
Q 2172 -91 1784 -91 
Q 1150 -91 751 415 
Q 353 922 353 1747 
Q 353 2572 751 3078 
Q 1150 3584 1784 3584 
Q 2172 3584 2448 3432 
Q 2725 3281 2906 2969 
L 2906 3500 
L 3481 3500 
L 3481 -1331 
L 2906 -1331 
L 2906 525 
z
" transform="scale(0.015625)"/>
      <path id="DejaVuSans-33" d="M 2597 2516 
Q 3050 2419 3304 2112 
Q 3559 1806 3559 1356 
Q 3559 666 3084 287 
Q 2609 -91 1734 -91 
Q 1441 -91 1130 -33 
Q 819 25 488 141 
L 488 750 
Q 750 597 1062 519 
Q 1375 441 1716 441 
Q 2309 441 2620 675 
Q 2931 909 2931 1356 
Q 2931 1769 2642 2001 
Q 2353 2234 1838 2234 
L 1294 2234 
L 1294 2753 
L 1863 2753 
Q 2328 2753 2575 2939 
Q 2822 3125 2822 3475 
Q 2822 3834 2567 4026 
Q 2313 4219 1838 4219 
Q 1578 4219 1281 4162 
Q 984 4106 628 3988 
L 628 4550 
Q 988 4650 1302 4700 
Q 1616 4750 1894 4750 
Q 2613 4750 3031 4423 
Q 3450 4097 3450 3541 
Q 3450 3153 3228 2886 
Q 3006 2619 2597 2516 
z
" transform="scale(0.015625)"/>
      <path id="DejaVuSans-27" d="M 1147 4666 
L 1147 2931 
L 616 2931 
L 616 4666 
L 1147 4666 
z
" transform="scale(0.015625)"/>
     </defs>
     <use xlink:href="#DejaVuSans-43"/>
     <use xlink:href="#DejaVuSans-75" x="69.824219"/>
     <use xlink:href="#DejaVuSans-74" x="133.203125"/>
     <use xlink:href="#DejaVuSans-61" x="172.412109"/>
     <use xlink:href="#DejaVuSans-64" x="233.691406"/>
     <use xlink:href="#DejaVuSans-61" x="297.167969"/>
     <use xlink:href="#DejaVuSans-70" x="358.447266"/>
     <use xlink:href="#DejaVuSans-74" x="421.923828"/>
     <use xlink:href="#DejaVuSans-3a" x="461.132812"/>
     <use xlink:href="#DejaVuSans-20" x="494.824219"/>
     <use xlink:href="#DejaVuSans-4c" x="526.611328"/>
     <use xlink:href="#DejaVuSans-65" x="580.574219"/>
     <use xlink:href="#DejaVuSans-6e" x="642.097656"/>
     <use xlink:href="#DejaVuSans-67" x="705.476562"/>
     <use xlink:href="#DejaVuSans-74" x="768.953125"/>
     <use xlink:href="#DejaVuSans-68" x="808.162109"/>
     <use xlink:href="#DejaVuSans-73" x="871.541016"/>
     <use xlink:href="#DejaVuSans-20" x="923.640625"/>
     <use xlink:href="#DejaVuSans-6f" x="955.427734"/>
     <use xlink:href="#DejaVuSans-66" x="1016.609375"/>
     <use xlink:href="#DejaVuSans-20" x="1051.814453"/>
     <use xlink:href="#DejaVuSans-54" x="1083.601562"/>
     <use xlink:href="#DejaVuSans-72" x="1129.935547"/>
     <use xlink:href="#DejaVuSans-69" x="1171.048828"/>
     <use xlink:href="#DejaVuSans-6d" x="1198.832031"/>
     <use xlink:href="#DejaVuSans-6d" x="1296.244141"/>
     <use xlink:href="#DejaVuSans-65" x="1393.65625"/>
     <use xlink:href="#DejaVuSans-64" x="1455.179688"/>
     <use xlink:href="#DejaVuSans-20" x="1518.65625"/>
     <use xlink:href="#DejaVuSans-53" x="1550.443359"/>
     <use xlink:href="#DejaVuSans-65" x="1613.919922"/>
     <use xlink:href="#DejaVuSans-71" x="1675.443359"/>
     <use xlink:href="#DejaVuSans-75" x="1738.919922"/>
     <use xlink:href="#DejaVuSans-65" x="1802.298828"/>
     <use xlink:href="#DejaVuSans-6e" x="1863.822266"/>
     <use xlink:href="#DejaVuSans-63" x="1927.201172"/>
     <use xlink:href="#DejaVuSans-65" x="1982.181641"/>
     <use xlink:href="#DejaVuSans-73" x="2043.705078"/>
     <use xlink:href="#DejaVuSans-20" x="2095.804688"/>
     <use xlink:href="#DejaVuSans-28" x="2127.591797"/>
     <use xlink:href="#DejaVuSans-33" x="2166.605469"/>
     <use xlink:href="#DejaVuSans-27" x="2230.228516"/>
     <use xlink:href="#DejaVuSans-20" x="2257.71875"/>
     <use xlink:href="#DejaVuSans-65" x="2289.505859"/>
     <use xlink:href="#DejaVuSans-6e" x="2351.029297"/>
     <use xlink:href="#DejaVuSans-64" x="2414.408203"/>
     <use xlink:href="#DejaVuSans-29" x="2477.884766"/>
    </g>
   </g>
  </g>
 </g>
 <defs>
  <clipPath id="p54dff4b024">
   <rect x="40.600625" y="35.2559" width="952.54" height="317.968"/>
  </clipPath>
 </defs>
</svg>
