<?xml version="1.0" encoding="utf-8" standalone="no"?>
<!DOCTYPE svg PUBLIC "-//W3C//DTD SVG 1.1//EN"
  "http://www.w3.org/Graphics/SVG/1.1/DTD/svg11.dtd">
<svg xmlns:xlink="http://www.w3.org/1999/xlink" width="1000.280625pt" height="388.844525pt" viewBox="0 0 1000.280625 388.844525" xmlns="http://www.w3.org/2000/svg" version="1.1">
 <metadata>
  <rdf:RDF xmlns:dc="http://purl.org/dc/elements/1.1/" xmlns:cc="http://creativecommons.org/ns#" xmlns:rdf="http://www.w3.org/1999/02/22-rdf-syntax-ns#">
   <cc:Work>
    <dc:type rdf:resource="http://purl.org/dc/dcmitype/StillImage"/>
    <dc:date>2024-08-15T09:46:00.902812</dc:date>
    <dc:format>image/svg+xml</dc:format>
    <dc:creator>
     <cc:Agent>
      <dc:title>Matplotlib v3.8.2, https://matplotlib.org/</dc:title>
     </cc:Agent>
    </dc:creator>
   </cc:Work>
  </rdf:RDF>
 </metadata>
 <defs>
  <style type="text/css">*{stroke-linejoin: round; stroke-linecap: butt}</style>
 </defs>
 <g id="figure_1">
  <g id="axes_1">
   <g id="patch_1">
    <path d="M 40.600625 353.2239 
L 985.445625 353.2239 
L 985.445625 35.2559 
L 40.600625 35.2559 
z
" style="fill: #ffffff"/>
   </g>
   <g id="matplotlib.axis_1">
    <g id="xtick_1">
     <g id="text_1">
      <!-- 0 -->
      <g transform="translate(38.055625 366.30265) scale(0.08 -0.08)">
       <defs>
        <path id="DejaVuSans-30" d="M 2034 4250 
Q 1547 4250 1301 3770 
Q 1056 3291 1056 2328 
Q 1056 1369 1301 889 
Q 1547 409 2034 409 
Q 2525 409 2770 889 
Q 3016 1369 3016 2328 
Q 3016 3291 2770 3770 
Q 2525 4250 2034 4250 
z
M 2034 4750 
Q 2819 4750 3233 4129 
Q 3647 3509 3647 2328 
Q 3647 1150 3233 529 
Q 2819 -91 2034 -91 
Q 1250 -91 836 529 
Q 422 1150 422 2328 
Q 422 3509 836 4129 
Q 1250 4750 2034 4750 
z
" transform="scale(0.015625)"/>
       </defs>
       <use xlink:href="#DejaVuSans-30"/>
      </g>
     </g>
    </g>
    <g id="xtick_2">
     <g id="text_2">
      <!-- 20 -->
      <g transform="translate(224.479625 366.30265) scale(0.08 -0.08)">
       <defs>
        <path id="DejaVuSans-32" d="M 1228 531 
L 3431 531 
L 3431 0 
L 469 0 
L 469 531 
Q 828 903 1448 1529 
Q 2069 2156 2228 2338 
Q 2531 2678 2651 2914 
Q 2772 3150 2772 3378 
Q 2772 3750 2511 3984 
Q 2250 4219 1831 4219 
Q 1534 4219 1204 4116 
Q 875 4013 500 3803 
L 500 4441 
Q 881 4594 1212 4672 
Q 1544 4750 1819 4750 
Q 2544 4750 2975 4387 
Q 3406 4025 3406 3419 
Q 3406 3131 3298 2873 
Q 3191 2616 2906 2266 
Q 2828 2175 2409 1742 
Q 1991 1309 1228 531 
z
" transform="scale(0.015625)"/>
       </defs>
       <use xlink:href="#DejaVuSans-32"/>
       <use xlink:href="#DejaVuSans-30" x="63.623047"/>
      </g>
     </g>
    </g>
    <g id="xtick_3">
     <g id="text_3">
      <!-- 40 -->
      <g transform="translate(413.448625 366.30265) scale(0.08 -0.08)">
       <defs>
        <path id="DejaVuSans-34" d="M 2419 4116 
L 825 1625 
L 2419 1625 
L 2419 4116 
z
M 2253 4666 
L 3047 4666 
L 3047 1625 
L 3713 1625 
L 3713 1100 
L 3047 1100 
L 3047 0 
L 2419 0 
L 2419 1100 
L 313 1100 
L 313 1709 
L 2253 4666 
z
" transform="scale(0.015625)"/>
       </defs>
       <use xlink:href="#DejaVuSans-34"/>
       <use xlink:href="#DejaVuSans-30" x="63.623047"/>
      </g>
     </g>
    </g>
    <g id="xtick_4">
     <g id="text_4">
      <!-- 60 -->
      <g transform="translate(602.417625 366.30265) scale(0.08 -0.08)">
       <defs>
        <path id="DejaVuSans-36" d="M 2113 2584 
Q 1688 2584 1439 2293 
Q 1191 2003 1191 1497 
Q 1191 994 1439 701 
Q 1688 409 2113 409 
Q 2538 409 2786 701 
Q 3034 994 3034 1497 
Q 3034 2003 2786 2293 
Q 2538 2584 2113 2584 
z
M 3366 4563 
L 3366 3988 
Q 3128 4100 2886 4159 
Q 2644 4219 2406 4219 
Q 1781 4219 1451 3797 
Q 1122 3375 1075 2522 
Q 1259 2794 1537 2939 
Q 1816 3084 2150 3084 
Q 2853 3084 3261 2657 
Q 3669 2231 3669 1497 
Q 3669 778 3244 343 
Q 2819 -91 2113 -91 
Q 1303 -91 875 529 
Q 447 1150 447 2328 
Q 447 3434 972 4092 
Q 1497 4750 2381 4750 
Q 2619 4750 2861 4703 
Q 3103 4656 3366 4563 
z
" transform="scale(0.015625)"/>
       </defs>
       <use xlink:href="#DejaVuSans-36"/>
       <use xlink:href="#DejaVuSans-30" x="63.623047"/>
      </g>
     </g>
    </g>
    <g id="xtick_5">
     <g id="text_5">
      <!-- 80 -->
      <g transform="translate(791.386625 366.30265) scale(0.08 -0.08)">
       <defs>
        <path id="DejaVuSans-38" d="M 2034 2216 
Q 1584 2216 1326 1975 
Q 1069 1734 1069 1313 
Q 1069 891 1326 650 
Q 1584 409 2034 409 
Q 2484 409 2743 651 
Q 3003 894 3003 1313 
Q 3003 1734 2745 1975 
Q 2488 2216 2034 2216 
z
M 1403 2484 
Q 997 2584 770 2862 
Q 544 3141 544 3541 
Q 544 4100 942 4425 
Q 1341 4750 2034 4750 
Q 2731 4750 3128 4425 
Q 3525 4100 3525 3541 
Q 3525 3141 3298 2862 
Q 3072 2584 2669 2484 
Q 3125 2378 3379 2068 
Q 3634 1759 3634 1313 
Q 3634 634 3220 271 
Q 2806 -91 2034 -91 
Q 1263 -91 848 271 
Q 434 634 434 1313 
Q 434 1759 690 2068 
Q 947 2378 1403 2484 
z
M 1172 3481 
Q 1172 3119 1398 2916 
Q 1625 2713 2034 2713 
Q 2441 2713 2670 2916 
Q 2900 3119 2900 3481 
Q 2900 3844 2670 4047 
Q 2441 4250 2034 4250 
Q 1625 4250 1398 4047 
Q 1172 3844 1172 3481 
z
" transform="scale(0.015625)"/>
       </defs>
       <use xlink:href="#DejaVuSans-38"/>
       <use xlink:href="#DejaVuSans-30" x="63.623047"/>
      </g>
     </g>
    </g>
    <g id="xtick_6">
     <g id="text_6">
      <!-- 100 -->
      <g transform="translate(977.810625 366.30265) scale(0.08 -0.08)">
       <defs>
        <path id="DejaVuSans-31" d="M 794 531 
L 1825 531 
L 1825 4091 
L 703 3866 
L 703 4441 
L 1819 4666 
L 2450 4666 
L 2450 531 
L 3481 531 
L 3481 0 
L 794 0 
L 794 531 
z
" transform="scale(0.015625)"/>
       </defs>
       <use xlink:href="#DejaVuSans-31"/>
       <use xlink:href="#DejaVuSans-30" x="63.623047"/>
       <use xlink:href="#DejaVuSans-30" x="127.246094"/>
      </g>
     </g>
    </g>
    <g id="text_7">
     <!-- Transcript Position (%) -->
     <g transform="translate(457.191094 379.564837) scale(0.1 -0.1)">
      <defs>
       <path id="DejaVuSans-54" d="M -19 4666 
L 3928 4666 
L 3928 4134 
L 2272 4134 
L 2272 0 
L 1638 0 
L 1638 4134 
L -19 4134 
L -19 4666 
z
" transform="scale(0.015625)"/>
       <path id="DejaVuSans-72" d="M 2631 2963 
Q 2534 3019 2420 3045 
Q 2306 3072 2169 3072 
Q 1681 3072 1420 2755 
Q 1159 2438 1159 1844 
L 1159 0 
L 581 0 
L 581 3500 
L 1159 3500 
L 1159 2956 
Q 1341 3275 1631 3429 
Q 1922 3584 2338 3584 
Q 2397 3584 2469 3576 
Q 2541 3569 2628 3553 
L 2631 2963 
z
" transform="scale(0.015625)"/>
       <path id="DejaVuSans-61" d="M 2194 1759 
Q 1497 1759 1228 1600 
Q 959 1441 959 1056 
Q 959 750 1161 570 
Q 1363 391 1709 391 
Q 2188 391 2477 730 
Q 2766 1069 2766 1631 
L 2766 1759 
L 2194 1759 
z
M 3341 1997 
L 3341 0 
L 2766 0 
L 2766 531 
Q 2569 213 2275 61 
Q 1981 -91 1556 -91 
Q 1019 -91 701 211 
Q 384 513 384 1019 
Q 384 1609 779 1909 
Q 1175 2209 1959 2209 
L 2766 2209 
L 2766 2266 
Q 2766 2663 2505 2880 
Q 2244 3097 1772 3097 
Q 1472 3097 1187 3025 
Q 903 2953 641 2809 
L 641 3341 
Q 956 3463 1253 3523 
Q 1550 3584 1831 3584 
Q 2591 3584 2966 3190 
Q 3341 2797 3341 1997 
z
" transform="scale(0.015625)"/>
       <path id="DejaVuSans-6e" d="M 3513 2113 
L 3513 0 
L 2938 0 
L 2938 2094 
Q 2938 2591 2744 2837 
Q 2550 3084 2163 3084 
Q 1697 3084 1428 2787 
Q 1159 2491 1159 1978 
L 1159 0 
L 581 0 
L 581 3500 
L 1159 3500 
L 1159 2956 
Q 1366 3272 1645 3428 
Q 1925 3584 2291 3584 
Q 2894 3584 3203 3211 
Q 3513 2838 3513 2113 
z
" transform="scale(0.015625)"/>
       <path id="DejaVuSans-73" d="M 2834 3397 
L 2834 2853 
Q 2591 2978 2328 3040 
Q 2066 3103 1784 3103 
Q 1356 3103 1142 2972 
Q 928 2841 928 2578 
Q 928 2378 1081 2264 
Q 1234 2150 1697 2047 
L 1894 2003 
Q 2506 1872 2764 1633 
Q 3022 1394 3022 966 
Q 3022 478 2636 193 
Q 2250 -91 1575 -91 
Q 1294 -91 989 -36 
Q 684 19 347 128 
L 347 722 
Q 666 556 975 473 
Q 1284 391 1588 391 
Q 1994 391 2212 530 
Q 2431 669 2431 922 
Q 2431 1156 2273 1281 
Q 2116 1406 1581 1522 
L 1381 1569 
Q 847 1681 609 1914 
Q 372 2147 372 2553 
Q 372 3047 722 3315 
Q 1072 3584 1716 3584 
Q 2034 3584 2315 3537 
Q 2597 3491 2834 3397 
z
" transform="scale(0.015625)"/>
       <path id="DejaVuSans-63" d="M 3122 3366 
L 3122 2828 
Q 2878 2963 2633 3030 
Q 2388 3097 2138 3097 
Q 1578 3097 1268 2742 
Q 959 2388 959 1747 
Q 959 1106 1268 751 
Q 1578 397 2138 397 
Q 2388 397 2633 464 
Q 2878 531 3122 666 
L 3122 134 
Q 2881 22 2623 -34 
Q 2366 -91 2075 -91 
Q 1284 -91 818 406 
Q 353 903 353 1747 
Q 353 2603 823 3093 
Q 1294 3584 2113 3584 
Q 2378 3584 2631 3529 
Q 2884 3475 3122 3366 
z
" transform="scale(0.015625)"/>
       <path id="DejaVuSans-69" d="M 603 3500 
L 1178 3500 
L 1178 0 
L 603 0 
L 603 3500 
z
M 603 4863 
L 1178 4863 
L 1178 4134 
L 603 4134 
L 603 4863 
z
" transform="scale(0.015625)"/>
       <path id="DejaVuSans-70" d="M 1159 525 
L 1159 -1331 
L 581 -1331 
L 581 3500 
L 1159 3500 
L 1159 2969 
Q 1341 3281 1617 3432 
Q 1894 3584 2278 3584 
Q 2916 3584 3314 3078 
Q 3713 2572 3713 1747 
Q 3713 922 3314 415 
Q 2916 -91 2278 -91 
Q 1894 -91 1617 61 
Q 1341 213 1159 525 
z
M 3116 1747 
Q 3116 2381 2855 2742 
Q 2594 3103 2138 3103 
Q 1681 3103 1420 2742 
Q 1159 2381 1159 1747 
Q 1159 1113 1420 752 
Q 1681 391 2138 391 
Q 2594 391 2855 752 
Q 3116 1113 3116 1747 
z
" transform="scale(0.015625)"/>
       <path id="DejaVuSans-74" d="M 1172 4494 
L 1172 3500 
L 2356 3500 
L 2356 3053 
L 1172 3053 
L 1172 1153 
Q 1172 725 1289 603 
Q 1406 481 1766 481 
L 2356 481 
L 2356 0 
L 1766 0 
Q 1100 0 847 248 
Q 594 497 594 1153 
L 594 3053 
L 172 3053 
L 172 3500 
L 594 3500 
L 594 4494 
L 1172 4494 
z
" transform="scale(0.015625)"/>
       <path id="DejaVuSans-20" transform="scale(0.015625)"/>
       <path id="DejaVuSans-50" d="M 1259 4147 
L 1259 2394 
L 2053 2394 
Q 2494 2394 2734 2622 
Q 2975 2850 2975 3272 
Q 2975 3691 2734 3919 
Q 2494 4147 2053 4147 
L 1259 4147 
z
M 628 4666 
L 2053 4666 
Q 2838 4666 3239 4311 
Q 3641 3956 3641 3272 
Q 3641 2581 3239 2228 
Q 2838 1875 2053 1875 
L 1259 1875 
L 1259 0 
L 628 0 
L 628 4666 
z
" transform="scale(0.015625)"/>
       <path id="DejaVuSans-6f" d="M 1959 3097 
Q 1497 3097 1228 2736 
Q 959 2375 959 1747 
Q 959 1119 1226 758 
Q 1494 397 1959 397 
Q 2419 397 2687 759 
Q 2956 1122 2956 1747 
Q 2956 2369 2687 2733 
Q 2419 3097 1959 3097 
z
M 1959 3584 
Q 2709 3584 3137 3096 
Q 3566 2609 3566 1747 
Q 3566 888 3137 398 
Q 2709 -91 1959 -91 
Q 1206 -91 779 398 
Q 353 888 353 1747 
Q 353 2609 779 3096 
Q 1206 3584 1959 3584 
z
" transform="scale(0.015625)"/>
       <path id="DejaVuSans-28" d="M 1984 4856 
Q 1566 4138 1362 3434 
Q 1159 2731 1159 2009 
Q 1159 1288 1364 580 
Q 1569 -128 1984 -844 
L 1484 -844 
Q 1016 -109 783 600 
Q 550 1309 550 2009 
Q 550 2706 781 3412 
Q 1013 4119 1484 4856 
L 1984 4856 
z
" transform="scale(0.015625)"/>
       <path id="DejaVuSans-25" d="M 4653 2053 
Q 4381 2053 4226 1822 
Q 4072 1591 4072 1178 
Q 4072 772 4226 539 
Q 4381 306 4653 306 
Q 4919 306 5073 539 
Q 5228 772 5228 1178 
Q 5228 1588 5073 1820 
Q 4919 2053 4653 2053 
z
M 4653 2450 
Q 5147 2450 5437 2106 
Q 5728 1763 5728 1178 
Q 5728 594 5436 251 
Q 5144 -91 4653 -91 
Q 4153 -91 3862 251 
Q 3572 594 3572 1178 
Q 3572 1766 3864 2108 
Q 4156 2450 4653 2450 
z
M 1428 4353 
Q 1159 4353 1004 4120 
Q 850 3888 850 3481 
Q 850 3069 1003 2837 
Q 1156 2606 1428 2606 
Q 1700 2606 1854 2837 
Q 2009 3069 2009 3481 
Q 2009 3884 1853 4118 
Q 1697 4353 1428 4353 
z
M 4250 4750 
L 4750 4750 
L 1831 -91 
L 1331 -91 
L 4250 4750 
z
M 1428 4750 
Q 1922 4750 2215 4408 
Q 2509 4066 2509 3481 
Q 2509 2891 2217 2550 
Q 1925 2209 1428 2209 
Q 931 2209 642 2551 
Q 353 2894 353 3481 
Q 353 4063 643 4406 
Q 934 4750 1428 4750 
z
" transform="scale(0.015625)"/>
       <path id="DejaVuSans-29" d="M 513 4856 
L 1013 4856 
Q 1481 4119 1714 3412 
Q 1947 2706 1947 2009 
Q 1947 1309 1714 600 
Q 1481 -109 1013 -844 
L 513 -844 
Q 928 -128 1133 580 
Q 1338 1288 1338 2009 
Q 1338 2731 1133 3434 
Q 928 4138 513 4856 
z
" transform="scale(0.015625)"/>
      </defs>
      <use xlink:href="#DejaVuSans-54"/>
      <use xlink:href="#DejaVuSans-72" x="46.333984"/>
      <use xlink:href="#DejaVuSans-61" x="87.447266"/>
      <use xlink:href="#DejaVuSans-6e" x="148.726562"/>
      <use xlink:href="#DejaVuSans-73" x="212.105469"/>
      <use xlink:href="#DejaVuSans-63" x="264.205078"/>
      <use xlink:href="#DejaVuSans-72" x="319.185547"/>
      <use xlink:href="#DejaVuSans-69" x="360.298828"/>
      <use xlink:href="#DejaVuSans-70" x="388.082031"/>
      <use xlink:href="#DejaVuSans-74" x="451.558594"/>
      <use xlink:href="#DejaVuSans-20" x="490.767578"/>
      <use xlink:href="#DejaVuSans-50" x="522.554688"/>
      <use xlink:href="#DejaVuSans-6f" x="579.232422"/>
      <use xlink:href="#DejaVuSans-73" x="640.414062"/>
      <use xlink:href="#DejaVuSans-69" x="692.513672"/>
      <use xlink:href="#DejaVuSans-74" x="720.296875"/>
      <use xlink:href="#DejaVuSans-69" x="759.505859"/>
      <use xlink:href="#DejaVuSans-6f" x="787.289062"/>
      <use xlink:href="#DejaVuSans-6e" x="848.470703"/>
      <use xlink:href="#DejaVuSans-20" x="911.849609"/>
      <use xlink:href="#DejaVuSans-28" x="943.636719"/>
      <use xlink:href="#DejaVuSans-25" x="982.650391"/>
      <use xlink:href="#DejaVuSans-29" x="1077.669922"/>
     </g>
    </g>
   </g>
   <g id="matplotlib.axis_2">
    <g id="ytick_1">
     <g id="line2d_1">
      <path d="M 40.600625 353.2239 
L 985.445625 353.2239 
" clip-path="url(#p985c735656)" style="fill: none; stroke: #dedede; stroke-linecap: square"/>
     </g>
     <g id="text_8">
      <!-- 0.0 -->
      <g transform="translate(20.878125 356.263275) scale(0.08 -0.08)">
       <defs>
        <path id="DejaVuSans-2e" d="M 684 794 
L 1344 794 
L 1344 0 
L 684 0 
L 684 794 
z
" transform="scale(0.015625)"/>
       </defs>
       <use xlink:href="#DejaVuSans-30"/>
       <use xlink:href="#DejaVuSans-2e" x="63.623047"/>
       <use xlink:href="#DejaVuSans-30" x="95.410156"/>
      </g>
     </g>
    </g>
    <g id="ytick_2">
     <g id="line2d_2">
      <path d="M 40.600625 316.175202 
L 985.445625 316.175202 
" clip-path="url(#p985c735656)" style="fill: none; stroke: #dedede; stroke-linecap: square"/>
     </g>
     <g id="text_9">
      <!-- 0.2 -->
      <g transform="translate(20.878125 319.214577) scale(0.08 -0.08)">
       <use xlink:href="#DejaVuSans-30"/>
       <use xlink:href="#DejaVuSans-2e" x="63.623047"/>
       <use xlink:href="#DejaVuSans-32" x="95.410156"/>
      </g>
     </g>
    </g>
    <g id="ytick_3">
     <g id="line2d_3">
      <path d="M 40.600625 279.126503 
L 985.445625 279.126503 
" clip-path="url(#p985c735656)" style="fill: none; stroke: #dedede; stroke-linecap: square"/>
     </g>
     <g id="text_10">
      <!-- 0.4 -->
      <g transform="translate(20.878125 282.165878) scale(0.08 -0.08)">
       <use xlink:href="#DejaVuSans-30"/>
       <use xlink:href="#DejaVuSans-2e" x="63.623047"/>
       <use xlink:href="#DejaVuSans-34" x="95.410156"/>
      </g>
     </g>
    </g>
    <g id="ytick_4">
     <g id="line2d_4">
      <path d="M 40.600625 242.077805 
L 985.445625 242.077805 
" clip-path="url(#p985c735656)" style="fill: none; stroke: #dedede; stroke-linecap: square"/>
     </g>
     <g id="text_11">
      <!-- 0.6 -->
      <g transform="translate(20.878125 245.11718) scale(0.08 -0.08)">
       <use xlink:href="#DejaVuSans-30"/>
       <use xlink:href="#DejaVuSans-2e" x="63.623047"/>
       <use xlink:href="#DejaVuSans-36" x="95.410156"/>
      </g>
     </g>
    </g>
    <g id="ytick_5">
     <g id="line2d_5">
      <path d="M 40.600625 205.029107 
L 985.445625 205.029107 
" clip-path="url(#p985c735656)" style="fill: none; stroke: #dedede; stroke-linecap: square"/>
     </g>
     <g id="text_12">
      <!-- 0.8 -->
      <g transform="translate(20.878125 208.068482) scale(0.08 -0.08)">
       <use xlink:href="#DejaVuSans-30"/>
       <use xlink:href="#DejaVuSans-2e" x="63.623047"/>
       <use xlink:href="#DejaVuSans-38" x="95.410156"/>
      </g>
     </g>
    </g>
    <g id="ytick_6">
     <g id="line2d_6">
      <path d="M 40.600625 167.980409 
L 985.445625 167.980409 
" clip-path="url(#p985c735656)" style="fill: none; stroke: #dedede; stroke-linecap: square"/>
     </g>
     <g id="text_13">
      <!-- 1.0 -->
      <g transform="translate(20.878125 171.019784) scale(0.08 -0.08)">
       <use xlink:href="#DejaVuSans-31"/>
       <use xlink:href="#DejaVuSans-2e" x="63.623047"/>
       <use xlink:href="#DejaVuSans-30" x="95.410156"/>
      </g>
     </g>
    </g>
    <g id="ytick_7">
     <g id="line2d_7">
      <path d="M 40.600625 130.93171 
L 985.445625 130.93171 
" clip-path="url(#p985c735656)" style="fill: none; stroke: #dedede; stroke-linecap: square"/>
     </g>
     <g id="text_14">
      <!-- 1.2 -->
      <g transform="translate(20.878125 133.971085) scale(0.08 -0.08)">
       <use xlink:href="#DejaVuSans-31"/>
       <use xlink:href="#DejaVuSans-2e" x="63.623047"/>
       <use xlink:href="#DejaVuSans-32" x="95.410156"/>
      </g>
     </g>
    </g>
    <g id="ytick_8">
     <g id="line2d_8">
      <path d="M 40.600625 93.883012 
L 985.445625 93.883012 
" clip-path="url(#p985c735656)" style="fill: none; stroke: #dedede; stroke-linecap: square"/>
     </g>
     <g id="text_15">
      <!-- 1.4 -->
      <g transform="translate(20.878125 96.922387) scale(0.08 -0.08)">
       <use xlink:href="#DejaVuSans-31"/>
       <use xlink:href="#DejaVuSans-2e" x="63.623047"/>
       <use xlink:href="#DejaVuSans-34" x="95.410156"/>
      </g>
     </g>
    </g>
    <g id="ytick_9">
     <g id="line2d_9">
      <path d="M 40.600625 56.834314 
L 985.445625 56.834314 
" clip-path="url(#p985c735656)" style="fill: none; stroke: #dedede; stroke-linecap: square"/>
     </g>
     <g id="text_16">
      <!-- 1.6 -->
      <g transform="translate(20.878125 59.873689) scale(0.08 -0.08)">
       <use xlink:href="#DejaVuSans-31"/>
       <use xlink:href="#DejaVuSans-2e" x="63.623047"/>
       <use xlink:href="#DejaVuSans-36" x="95.410156"/>
      </g>
     </g>
    </g>
    <g id="text_17">
     <!-- Percentage total cumulative mapped-read depth -->
     <g transform="translate(14.798438 316.09615) rotate(-90) scale(0.1 -0.1)">
      <defs>
       <path id="DejaVuSans-65" d="M 3597 1894 
L 3597 1613 
L 953 1613 
Q 991 1019 1311 708 
Q 1631 397 2203 397 
Q 2534 397 2845 478 
Q 3156 559 3463 722 
L 3463 178 
Q 3153 47 2828 -22 
Q 2503 -91 2169 -91 
Q 1331 -91 842 396 
Q 353 884 353 1716 
Q 353 2575 817 3079 
Q 1281 3584 2069 3584 
Q 2775 3584 3186 3129 
Q 3597 2675 3597 1894 
z
M 3022 2063 
Q 3016 2534 2758 2815 
Q 2500 3097 2075 3097 
Q 1594 3097 1305 2825 
Q 1016 2553 972 2059 
L 3022 2063 
z
" transform="scale(0.015625)"/>
       <path id="DejaVuSans-67" d="M 2906 1791 
Q 2906 2416 2648 2759 
Q 2391 3103 1925 3103 
Q 1463 3103 1205 2759 
Q 947 2416 947 1791 
Q 947 1169 1205 825 
Q 1463 481 1925 481 
Q 2391 481 2648 825 
Q 2906 1169 2906 1791 
z
M 3481 434 
Q 3481 -459 3084 -895 
Q 2688 -1331 1869 -1331 
Q 1566 -1331 1297 -1286 
Q 1028 -1241 775 -1147 
L 775 -588 
Q 1028 -725 1275 -790 
Q 1522 -856 1778 -856 
Q 2344 -856 2625 -561 
Q 2906 -266 2906 331 
L 2906 616 
Q 2728 306 2450 153 
Q 2172 0 1784 0 
Q 1141 0 747 490 
Q 353 981 353 1791 
Q 353 2603 747 3093 
Q 1141 3584 1784 3584 
Q 2172 3584 2450 3431 
Q 2728 3278 2906 2969 
L 2906 3500 
L 3481 3500 
L 3481 434 
z
" transform="scale(0.015625)"/>
       <path id="DejaVuSans-6c" d="M 603 4863 
L 1178 4863 
L 1178 0 
L 603 0 
L 603 4863 
z
" transform="scale(0.015625)"/>
       <path id="DejaVuSans-75" d="M 544 1381 
L 544 3500 
L 1119 3500 
L 1119 1403 
Q 1119 906 1312 657 
Q 1506 409 1894 409 
Q 2359 409 2629 706 
Q 2900 1003 2900 1516 
L 2900 3500 
L 3475 3500 
L 3475 0 
L 2900 0 
L 2900 538 
Q 2691 219 2414 64 
Q 2138 -91 1772 -91 
Q 1169 -91 856 284 
Q 544 659 544 1381 
z
M 1991 3584 
L 1991 3584 
z
" transform="scale(0.015625)"/>
       <path id="DejaVuSans-6d" d="M 3328 2828 
Q 3544 3216 3844 3400 
Q 4144 3584 4550 3584 
Q 5097 3584 5394 3201 
Q 5691 2819 5691 2113 
L 5691 0 
L 5113 0 
L 5113 2094 
Q 5113 2597 4934 2840 
Q 4756 3084 4391 3084 
Q 3944 3084 3684 2787 
Q 3425 2491 3425 1978 
L 3425 0 
L 2847 0 
L 2847 2094 
Q 2847 2600 2669 2842 
Q 2491 3084 2119 3084 
Q 1678 3084 1418 2786 
Q 1159 2488 1159 1978 
L 1159 0 
L 581 0 
L 581 3500 
L 1159 3500 
L 1159 2956 
Q 1356 3278 1631 3431 
Q 1906 3584 2284 3584 
Q 2666 3584 2933 3390 
Q 3200 3197 3328 2828 
z
" transform="scale(0.015625)"/>
       <path id="DejaVuSans-76" d="M 191 3500 
L 800 3500 
L 1894 563 
L 2988 3500 
L 3597 3500 
L 2284 0 
L 1503 0 
L 191 3500 
z
" transform="scale(0.015625)"/>
       <path id="DejaVuSans-64" d="M 2906 2969 
L 2906 4863 
L 3481 4863 
L 3481 0 
L 2906 0 
L 2906 525 
Q 2725 213 2448 61 
Q 2172 -91 1784 -91 
Q 1150 -91 751 415 
Q 353 922 353 1747 
Q 353 2572 751 3078 
Q 1150 3584 1784 3584 
Q 2172 3584 2448 3432 
Q 2725 3281 2906 2969 
z
M 947 1747 
Q 947 1113 1208 752 
Q 1469 391 1925 391 
Q 2381 391 2643 752 
Q 2906 1113 2906 1747 
Q 2906 2381 2643 2742 
Q 2381 3103 1925 3103 
Q 1469 3103 1208 2742 
Q 947 2381 947 1747 
z
" transform="scale(0.015625)"/>
       <path id="DejaVuSans-2d" d="M 313 2009 
L 1997 2009 
L 1997 1497 
L 313 1497 
L 313 2009 
z
" transform="scale(0.015625)"/>
       <path id="DejaVuSans-68" d="M 3513 2113 
L 3513 0 
L 2938 0 
L 2938 2094 
Q 2938 2591 2744 2837 
Q 2550 3084 2163 3084 
Q 1697 3084 1428 2787 
Q 1159 2491 1159 1978 
L 1159 0 
L 581 0 
L 581 4863 
L 1159 4863 
L 1159 2956 
Q 1366 3272 1645 3428 
Q 1925 3584 2291 3584 
Q 2894 3584 3203 3211 
Q 3513 2838 3513 2113 
z
" transform="scale(0.015625)"/>
      </defs>
      <use xlink:href="#DejaVuSans-50"/>
      <use xlink:href="#DejaVuSans-65" x="56.677734"/>
      <use xlink:href="#DejaVuSans-72" x="118.201172"/>
      <use xlink:href="#DejaVuSans-63" x="157.064453"/>
      <use xlink:href="#DejaVuSans-65" x="212.044922"/>
      <use xlink:href="#DejaVuSans-6e" x="273.568359"/>
      <use xlink:href="#DejaVuSans-74" x="336.947266"/>
      <use xlink:href="#DejaVuSans-61" x="376.15625"/>
      <use xlink:href="#DejaVuSans-67" x="437.435547"/>
      <use xlink:href="#DejaVuSans-65" x="500.912109"/>
      <use xlink:href="#DejaVuSans-20" x="562.435547"/>
      <use xlink:href="#DejaVuSans-74" x="594.222656"/>
      <use xlink:href="#DejaVuSans-6f" x="633.431641"/>
      <use xlink:href="#DejaVuSans-74" x="694.613281"/>
      <use xlink:href="#DejaVuSans-61" x="733.822266"/>
      <use xlink:href="#DejaVuSans-6c" x="795.101562"/>
      <use xlink:href="#DejaVuSans-20" x="822.884766"/>
      <use xlink:href="#DejaVuSans-63" x="854.671875"/>
      <use xlink:href="#DejaVuSans-75" x="909.652344"/>
      <use xlink:href="#DejaVuSans-6d" x="973.03125"/>
      <use xlink:href="#DejaVuSans-75" x="1070.443359"/>
      <use xlink:href="#DejaVuSans-6c" x="1133.822266"/>
      <use xlink:href="#DejaVuSans-61" x="1161.605469"/>
      <use xlink:href="#DejaVuSans-74" x="1222.884766"/>
      <use xlink:href="#DejaVuSans-69" x="1262.09375"/>
      <use xlink:href="#DejaVuSans-76" x="1289.876953"/>
      <use xlink:href="#DejaVuSans-65" x="1349.056641"/>
      <use xlink:href="#DejaVuSans-20" x="1410.580078"/>
      <use xlink:href="#DejaVuSans-6d" x="1442.367188"/>
      <use xlink:href="#DejaVuSans-61" x="1539.779297"/>
      <use xlink:href="#DejaVuSans-70" x="1601.058594"/>
      <use xlink:href="#DejaVuSans-70" x="1664.535156"/>
      <use xlink:href="#DejaVuSans-65" x="1728.011719"/>
      <use xlink:href="#DejaVuSans-64" x="1789.535156"/>
      <use xlink:href="#DejaVuSans-2d" x="1853.011719"/>
      <use xlink:href="#DejaVuSans-72" x="1889.095703"/>
      <use xlink:href="#DejaVuSans-65" x="1927.958984"/>
      <use xlink:href="#DejaVuSans-61" x="1989.482422"/>
      <use xlink:href="#DejaVuSans-64" x="2050.761719"/>
      <use xlink:href="#DejaVuSans-20" x="2114.238281"/>
      <use xlink:href="#DejaVuSans-64" x="2146.025391"/>
      <use xlink:href="#DejaVuSans-65" x="2209.501953"/>
      <use xlink:href="#DejaVuSans-70" x="2271.025391"/>
      <use xlink:href="#DejaVuSans-74" x="2334.501953"/>
      <use xlink:href="#DejaVuSans-68" x="2373.710938"/>
     </g>
    </g>
   </g>
   <g id="line2d_10">
    <path d="M 40.600625 250.93099 
L 50.049075 241.818834 
L 59.497525 233.313003 
L 68.945975 225.178762 
L 78.394425 217.151881 
L 87.842875 208.476827 
L 97.291325 199.986071 
L 106.739775 191.242813 
L 116.188225 184.427076 
L 125.636675 178.185752 
L 135.085125 172.822171 
L 144.533575 164.548678 
L 153.982025 161.033083 
L 163.430475 157.658596 
L 172.878925 154.183877 
L 182.327375 151.62416 
L 191.775825 150.613554 
L 201.224275 148.090494 
L 210.672725 147.31019 
L 220.121175 146.307395 
L 229.569625 144.748146 
L 239.018075 143.867359 
L 248.466525 142.224556 
L 257.914975 140.578641 
L 267.363425 139.36734 
L 276.811875 137.790869 
L 286.260325 135.533744 
L 295.708775 134.480336 
L 305.157225 134.288583 
L 314.605675 134.198398 
L 324.054125 133.997697 
L 333.502575 132.941025 
L 342.951025 132.502746 
L 352.399475 132.515865 
L 361.847925 132.117401 
L 371.296375 132.043986 
L 380.744825 132.093461 
L 390.193275 132.234655 
L 399.641725 132.865952 
L 409.090175 132.993464 
L 418.538625 133.298254 
L 427.987075 133.84993 
L 437.435525 133.921558 
L 446.883975 133.614689 
L 456.332425 134.232906 
L 465.780875 135.951141 
L 475.229325 138.944618 
L 484.677775 139.372309 
L 494.126225 140.810908 
L 503.574675 141.401635 
L 513.023125 141.567561 
L 522.471575 142.099789 
L 531.920025 143.311622 
L 541.368475 144.138137 
L 550.816925 145.315955 
L 560.265375 146.097204 
L 569.713825 147.059135 
L 579.162275 147.355561 
L 588.610725 147.563953 
L 598.059175 148.677636 
L 607.507625 148.777536 
L 616.956075 149.52187 
L 626.404525 150.453844 
L 635.852975 151.239705 
L 645.301425 151.975757 
L 654.749875 153.773888 
L 664.198325 155.289215 
L 673.646775 156.723102 
L 683.095225 157.860844 
L 692.543675 158.3388 
L 701.992125 160.417951 
L 711.440575 160.730506 
L 720.889025 161.066994 
L 730.337475 161.569516 
L 739.785925 161.932407 
L 749.234375 162.441178 
L 758.682825 163.919524 
L 768.131275 165.344512 
L 777.579725 166.914549 
L 787.028175 167.501129 
L 796.476625 168.731096 
L 805.925075 170.399856 
L 815.373525 172.168834 
L 824.821975 173.921135 
L 834.270425 176.815948 
L 843.718875 179.689202 
L 853.167325 184.03031 
L 862.615775 187.998739 
L 872.064225 192.853816 
L 881.512675 198.923781 
L 890.961125 206.317761 
L 900.409575 215.033985 
L 909.858025 224.444795 
L 919.306475 235.00655 
L 928.754925 246.865659 
L 938.203375 259.083332 
L 947.651825 273.852686 
L 957.100275 292.573553 
L 966.548725 315.636418 
L 975.997175 341.027659 
" clip-path="url(#p985c735656)" style="fill: none; stroke: #7cb5ec; stroke-linecap: square"/>
   </g>
   <g id="line2d_11">
    <path d="M 40.600625 314.315587 
L 50.049075 292.780683 
L 59.497525 275.428642 
L 68.945975 253.585098 
L 78.394425 230.593267 
L 87.842875 214.718579 
L 97.291325 200.182467 
L 106.739775 189.138163 
L 116.188225 196.575465 
L 125.636675 204.837299 
L 135.085125 222.55893 
L 144.533575 223.541895 
L 153.982025 214.032949 
L 163.430475 209.080083 
L 172.878925 195.925936 
L 182.327375 186.493105 
L 191.775825 176.805752 
L 201.224275 177.510561 
L 210.672725 171.315037 
L 220.121175 168.833951 
L 229.569625 172.003117 
L 239.018075 182.769145 
L 248.466525 197.000532 
L 257.914975 208.590706 
L 267.363425 213.106918 
L 276.811875 212.798701 
L 286.260325 216.832086 
L 295.708775 211.166144 
L 305.157225 205.902498 
L 314.605675 208.438439 
L 324.054125 190.953675 
L 333.502575 185.431962 
L 342.951025 170.028994 
L 352.399475 159.17856 
L 361.847925 144.16746 
L 371.296375 129.111382 
L 380.744825 105.431017 
L 390.193275 80.87853 
L 399.641725 78.233259 
L 409.090175 75.134465 
L 418.538625 81.593846 
L 427.987075 82.536724 
L 437.435525 85.114115 
L 446.883975 86.869288 
L 456.332425 92.956054 
L 465.780875 99.347347 
L 475.229325 106.35726 
L 484.677775 92.936911 
L 494.126225 80.12625 
L 503.574675 77.554861 
L 513.023125 74.955285 
L 522.471575 89.582081 
L 531.920025 104.114024 
L 541.368475 110.642408 
L 550.816925 129.313775 
L 560.265375 134.27656 
L 569.713825 138.952187 
L 579.162275 139.96019 
L 588.610725 136.813638 
L 598.059175 126.270766 
L 607.507625 133.250216 
L 616.956075 118.119342 
L 626.404525 99.155562 
L 635.852975 103.595456 
L 645.301425 105.178945 
L 654.749875 115.007254 
L 664.198325 119.521813 
L 673.646775 128.624049 
L 683.095225 135.482764 
L 692.543675 126.70517 
L 701.992125 128.157969 
L 711.440575 135.54049 
L 720.889025 137.151811 
L 730.337475 141.740578 
L 739.785925 134.111262 
L 749.234375 133.292079 
L 758.682825 141.584755 
L 768.131275 150.580265 
L 777.579725 154.699329 
L 787.028175 138.369505 
L 796.476625 117.408422 
L 805.925075 88.671822 
L 815.373525 59.502917 
L 824.821975 50.277195 
L 834.270425 71.09717 
L 843.718875 90.188027 
L 853.167325 136.898563 
L 862.615775 206.741672 
L 872.064225 231.105702 
L 881.512675 256.703939 
L 890.961125 271.895572 
L 900.409575 283.810512 
L 909.858025 311.343992 
L 919.306475 307.227555 
L 928.754925 313.751349 
L 938.203375 319.282798 
L 947.651825 329.783589 
L 957.100275 340.634974 
L 966.548725 345.45879 
L 975.997175 350.703088 
" clip-path="url(#p985c735656)" style="fill: none; stroke: #434348; stroke-linecap: square"/>
   </g>
   <g id="line2d_12">
    <path d="M 40.600625 258.860824 
L 50.049075 250.757547 
L 59.497525 242.619884 
L 68.945975 234.530918 
L 78.394425 225.751171 
L 87.842875 217.132119 
L 97.291325 209.195623 
L 106.739775 201.250909 
L 116.188225 194.258405 
L 125.636675 188.234523 
L 135.085125 182.17441 
L 144.533575 172.812518 
L 153.982025 168.500142 
L 163.430475 163.960936 
L 172.878925 159.739279 
L 182.327375 156.302039 
L 191.775825 154.612346 
L 201.224275 151.400412 
L 210.672725 149.928023 
L 220.121175 148.358107 
L 229.569625 146.63487 
L 239.018075 145.543452 
L 248.466525 144.479542 
L 257.914975 142.771785 
L 267.363425 141.538252 
L 276.811875 139.362421 
L 286.260325 136.722355 
L 295.708775 135.506531 
L 305.157225 134.592806 
L 314.605675 135.093555 
L 324.054125 135.4659 
L 333.502575 134.595184 
L 342.951025 134.029961 
L 352.399475 134.218473 
L 361.847925 133.74886 
L 371.296375 133.061011 
L 380.744825 132.175149 
L 390.193275 131.555983 
L 399.641725 132.64595 
L 409.090175 133.306282 
L 418.538625 133.733715 
L 427.987075 133.892266 
L 437.435525 133.576972 
L 446.883975 132.963577 
L 456.332425 132.964889 
L 465.780875 135.308558 
L 475.229325 138.247967 
L 484.677775 138.611608 
L 494.126225 140.122168 
L 503.574675 141.051604 
L 513.023125 141.346392 
L 522.471575 142.615644 
L 531.920025 144.68028 
L 541.368475 146.36647 
L 550.816925 148.037771 
L 560.265375 147.980801 
L 569.713825 148.42432 
L 579.162275 148.182742 
L 588.610725 148.182499 
L 598.059175 149.125205 
L 607.507625 149.650945 
L 616.956075 149.70687 
L 626.404525 150.130133 
L 635.852975 150.718484 
L 645.301425 151.162323 
L 654.749875 152.919701 
L 664.198325 153.461596 
L 673.646775 154.255288 
L 683.095225 154.528531 
L 692.543675 154.012112 
L 701.992125 155.16949 
L 711.440575 155.384099 
L 720.889025 155.3863 
L 730.337475 155.64604 
L 739.785925 155.92829 
L 749.234375 156.11623 
L 758.682825 157.402941 
L 768.131275 158.999733 
L 777.579725 160.914111 
L 787.028175 161.737907 
L 796.476625 163.49866 
L 805.925075 164.87487 
L 815.373525 166.768817 
L 824.821975 168.575687 
L 834.270425 171.369162 
L 843.718875 174.219359 
L 853.167325 178.966004 
L 862.615775 183.024732 
L 872.064225 187.801374 
L 881.512675 193.288914 
L 890.961125 200.450295 
L 900.409575 209.032852 
L 909.858025 218.97364 
L 919.306475 229.479704 
L 928.754925 240.871032 
L 938.203375 253.08219 
L 947.651825 268.057095 
L 957.100275 287.409048 
L 966.548725 312.200785 
L 975.997175 340.021622 
" clip-path="url(#p985c735656)" style="fill: none; stroke: #90ed7d; stroke-linecap: square"/>
   </g>
   <g id="line2d_13">
    <path d="M 40.600625 314.040247 
L 50.049075 277.399854 
L 59.497525 249.934643 
L 68.945975 223.614356 
L 78.394425 192.09909 
L 87.842875 163.961544 
L 97.291325 141.804395 
L 106.739775 124.702316 
L 116.188225 126.441775 
L 125.636675 122.090008 
L 135.085125 136.140959 
L 144.533575 115.426267 
L 153.982025 115.585251 
L 163.430475 110.934783 
L 172.878925 107.101739 
L 182.327375 101.181213 
L 191.775825 113.854609 
L 201.224275 136.569344 
L 210.672725 146.331847 
L 220.121175 143.253606 
L 229.569625 142.482761 
L 239.018075 143.870141 
L 248.466525 145.45836 
L 257.914975 152.285531 
L 267.363425 141.480329 
L 276.811875 134.306006 
L 286.260325 125.44764 
L 295.708775 127.495459 
L 305.157225 127.321237 
L 314.605675 123.805173 
L 324.054125 129.254456 
L 333.502575 142.544771 
L 342.951025 162.601644 
L 352.399475 168.178701 
L 361.847925 167.832525 
L 371.296375 147.5496 
L 380.744825 130.057813 
L 390.193275 113.67856 
L 399.641725 100.142213 
L 409.090175 85.427607 
L 418.538625 84.675348 
L 427.987075 81.336405 
L 437.435525 77.101192 
L 446.883975 93.603974 
L 456.332425 110.186763 
L 465.780875 122.323714 
L 475.229325 135.788933 
L 484.677775 139.308652 
L 494.126225 144.271917 
L 503.574675 160.224131 
L 513.023125 161.443684 
L 522.471575 143.819303 
L 531.920025 136.540858 
L 541.368475 133.348312 
L 550.816925 136.80263 
L 560.265375 145.399974 
L 569.713825 138.8376 
L 579.162275 135.793079 
L 588.610725 137.237108 
L 598.059175 139.223544 
L 607.507625 141.363094 
L 616.956075 137.337593 
L 626.404525 143.908877 
L 635.852975 161.936297 
L 645.301425 176.5318 
L 654.749875 185.867835 
L 664.198325 191.335954 
L 673.646775 181.365922 
L 683.095225 175.430976 
L 692.543675 169.162607 
L 701.992125 162.630312 
L 711.440575 151.213161 
L 720.889025 146.458477 
L 730.337475 152.062864 
L 739.785925 155.889224 
L 749.234375 161.141278 
L 758.682825 164.183467 
L 768.131275 167.814277 
L 777.579725 176.874074 
L 787.028175 183.94734 
L 796.476625 175.534342 
L 805.925075 168.908354 
L 815.373525 157.780728 
L 824.821975 155.973574 
L 834.270425 160.535424 
L 843.718875 165.516253 
L 853.167325 183.338774 
L 862.615775 212.843745 
L 872.064225 232.427618 
L 881.512675 252.607325 
L 890.961125 282.163393 
L 900.409575 299.089536 
L 909.858025 313.011248 
L 919.306475 314.29502 
L 928.754925 318.207604 
L 938.203375 324.017653 
L 947.651825 331.289276 
L 957.100275 338.31672 
L 966.548725 344.407268 
L 975.997175 350.366091 
" clip-path="url(#p985c735656)" style="fill: none; stroke: #f7a35c; stroke-linecap: square"/>
   </g>
   <g id="line2d_14">
    <path d="M 40.600625 254.332126 
L 50.049075 245.241546 
L 59.497525 237.024341 
L 68.945975 229.509642 
L 78.394425 221.575275 
L 87.842875 213.078092 
L 97.291325 204.679594 
L 106.739775 194.654983 
L 116.188225 187.435785 
L 125.636675 180.455833 
L 135.085125 174.009731 
L 144.533575 162.896891 
L 153.982025 158.819438 
L 163.430475 154.565508 
L 172.878925 150.418498 
L 182.327375 147.284717 
L 191.775825 146.181996 
L 201.224275 142.925195 
L 210.672725 140.124126 
L 220.121175 138.55426 
L 229.569625 136.90365 
L 239.018075 135.770626 
L 248.466525 134.376966 
L 257.914975 132.645072 
L 267.363425 131.543032 
L 276.811875 129.945784 
L 286.260325 127.650199 
L 295.708775 126.964442 
L 305.157225 126.481138 
L 314.605675 126.37799 
L 324.054125 125.585799 
L 333.502575 124.33681 
L 342.951025 123.981168 
L 352.399475 124.286468 
L 361.847925 125.022745 
L 371.296375 125.284593 
L 380.744825 125.60258 
L 390.193275 125.786176 
L 399.641725 127.047008 
L 409.090175 127.808942 
L 418.538625 128.061697 
L 427.987075 128.504901 
L 437.435525 127.614941 
L 446.883975 127.378696 
L 456.332425 128.220662 
L 465.780875 130.300962 
L 475.229325 134.130565 
L 484.677775 134.64325 
L 494.126225 136.710051 
L 503.574675 137.936768 
L 513.023125 138.644444 
L 522.471575 139.805125 
L 531.920025 141.634721 
L 541.368475 142.842858 
L 550.816925 144.709851 
L 560.265375 146.147931 
L 569.713825 147.510292 
L 579.162275 148.343236 
L 588.610725 149.479983 
L 598.059175 151.29522 
L 607.507625 151.826872 
L 616.956075 152.523514 
L 626.404525 153.861782 
L 635.852975 155.16735 
L 645.301425 155.899264 
L 654.749875 157.657136 
L 664.198325 158.74728 
L 673.646775 160.268914 
L 683.095225 161.926856 
L 692.543675 162.515734 
L 701.992125 164.120056 
L 711.440575 164.549119 
L 720.889025 164.811599 
L 730.337475 165.422027 
L 739.785925 167.342465 
L 749.234375 168.843213 
L 758.682825 170.38505 
L 768.131275 171.743373 
L 777.579725 173.347544 
L 787.028175 173.953544 
L 796.476625 175.332041 
L 805.925075 177.021421 
L 815.373525 179.495216 
L 824.821975 181.578336 
L 834.270425 184.373996 
L 843.718875 187.17647 
L 853.167325 191.342162 
L 862.615775 195.123841 
L 872.064225 199.795977 
L 881.512675 205.617088 
L 890.961125 212.705519 
L 900.409575 221.255293 
L 909.858025 230.343497 
L 919.306475 240.584333 
L 928.754925 251.921116 
L 938.203375 263.834662 
L 947.651825 278.363723 
L 957.100275 296.394865 
L 966.548725 317.971554 
L 975.997175 341.812154 
" clip-path="url(#p985c735656)" style="fill: none; stroke: #8085e9; stroke-linecap: square"/>
   </g>
   <g id="line2d_15">
    <path d="M 40.600625 255.917941 
L 50.049075 249.388298 
L 59.497525 242.435152 
L 68.945975 235.5932 
L 78.394425 228.167759 
L 87.842875 220.295009 
L 97.291325 212.726792 
L 106.739775 205.609233 
L 116.188225 199.383204 
L 125.636675 193.470714 
L 135.085125 187.771291 
L 144.533575 179.562723 
L 153.982025 175.668879 
L 163.430475 172.069842 
L 172.878925 168.314137 
L 182.327375 164.646541 
L 191.775825 162.019188 
L 201.224275 158.920113 
L 210.672725 156.911114 
L 220.121175 155.184757 
L 229.569625 152.966369 
L 239.018075 151.440998 
L 248.466525 149.387206 
L 257.914975 147.522696 
L 267.363425 146.149993 
L 276.811875 144.469245 
L 286.260325 142.371423 
L 295.708775 141.13399 
L 305.157225 140.439689 
L 314.605675 139.523689 
L 324.054125 138.208378 
L 333.502575 136.643726 
L 342.951025 135.966815 
L 352.399475 135.225259 
L 361.847925 134.185221 
L 371.296375 133.38564 
L 380.744825 132.926594 
L 390.193275 132.644581 
L 399.641725 133.245952 
L 409.090175 133.126338 
L 418.538625 132.578644 
L 427.987075 132.311956 
L 437.435525 131.358996 
L 446.883975 130.332485 
L 456.332425 130.51876 
L 465.780875 130.931887 
L 475.229325 132.426864 
L 484.677775 132.974407 
L 494.126225 135.03347 
L 503.574675 135.673193 
L 513.023125 135.93758 
L 522.471575 136.656584 
L 531.920025 137.911336 
L 541.368475 139.160537 
L 550.816925 140.838726 
L 560.265375 141.930617 
L 569.713825 142.863689 
L 579.162275 143.153268 
L 588.610725 143.58682 
L 598.059175 144.464032 
L 607.507625 144.553787 
L 616.956075 144.792478 
L 626.404525 145.176424 
L 635.852975 145.741385 
L 645.301425 146.050818 
L 654.749875 147.260973 
L 664.198325 147.824651 
L 673.646775 148.622535 
L 683.095225 149.93541 
L 692.543675 150.323767 
L 701.992125 151.812813 
L 711.440575 152.38457 
L 720.889025 152.556376 
L 730.337475 153.003191 
L 739.785925 153.432963 
L 749.234375 154.269774 
L 758.682825 156.15719 
L 768.131275 157.708738 
L 777.579725 159.543288 
L 787.028175 160.392957 
L 796.476625 162.018846 
L 805.925075 163.950077 
L 815.373525 165.743335 
L 824.821975 167.62996 
L 834.270425 170.940541 
L 843.718875 173.896241 
L 853.167325 178.285326 
L 862.615775 182.288815 
L 872.064225 187.135568 
L 881.512675 193.446973 
L 890.961125 200.966043 
L 900.409575 210.142514 
L 909.858025 219.80844 
L 919.306475 230.590586 
L 928.754925 242.613528 
L 938.203375 255.478762 
L 947.651825 271.215581 
L 957.100275 290.352126 
L 966.548725 313.97234 
L 975.997175 340.357639 
" clip-path="url(#p985c735656)" style="fill: none; stroke: #f15c80; stroke-linecap: square"/>
   </g>
   <g id="line2d_16">
    <path d="M 40.600625 252.271814 
L 50.049075 244.820996 
L 59.497525 237.288537 
L 68.945975 229.866114 
L 78.394425 221.952949 
L 87.842875 213.540357 
L 97.291325 205.591046 
L 106.739775 197.345588 
L 116.188225 191.261999 
L 125.636675 185.142811 
L 135.085125 179.412598 
L 144.533575 170.351651 
L 153.982025 166.895475 
L 163.430475 163.49009 
L 172.878925 159.829123 
L 182.327375 156.42242 
L 191.775825 154.268254 
L 201.224275 151.295243 
L 210.672725 149.840956 
L 220.121175 148.20686 
L 229.569625 146.108856 
L 239.018075 144.895324 
L 248.466525 143.24388 
L 257.914975 141.506862 
L 267.363425 140.062444 
L 276.811875 138.459709 
L 286.260325 136.354129 
L 295.708775 135.56232 
L 305.157225 135.111879 
L 314.605675 134.764663 
L 324.054125 134.088578 
L 333.502575 132.555823 
L 342.951025 132.184518 
L 352.399475 131.839935 
L 361.847925 130.998592 
L 371.296375 130.38502 
L 380.744825 129.946612 
L 390.193275 129.786317 
L 399.641725 130.675572 
L 409.090175 130.762774 
L 418.538625 130.703907 
L 427.987075 130.730461 
L 437.435525 130.05314 
L 446.883975 129.613336 
L 456.332425 130.176982 
L 465.780875 131.251994 
L 475.229325 133.298784 
L 484.677775 133.88633 
L 494.126225 135.871057 
L 503.574675 136.695967 
L 513.023125 137.173101 
L 522.471575 138.263526 
L 531.920025 139.569511 
L 541.368475 140.893132 
L 550.816925 142.802098 
L 560.265375 144.159879 
L 569.713825 145.755342 
L 579.162275 146.220547 
L 588.610725 146.669463 
L 598.059175 147.699288 
L 607.507625 148.040948 
L 616.956075 148.543259 
L 626.404525 149.116129 
L 635.852975 149.568637 
L 645.301425 150.072342 
L 654.749875 151.545524 
L 664.198325 152.536064 
L 673.646775 153.666262 
L 683.095225 154.811002 
L 692.543675 155.226591 
L 701.992125 156.596327 
L 711.440575 157.289299 
L 720.889025 157.728211 
L 730.337475 158.448921 
L 739.785925 159.182088 
L 749.234375 160.14219 
L 758.682825 162.233936 
L 768.131275 163.874975 
L 777.579725 165.734148 
L 787.028175 166.764211 
L 796.476625 168.342991 
L 805.925075 170.503685 
L 815.373525 172.890895 
L 824.821975 174.675712 
L 834.270425 177.751602 
L 843.718875 180.623784 
L 853.167325 184.999844 
L 862.615775 189.203697 
L 872.064225 194.276696 
L 881.512675 200.579173 
L 890.961125 208.05115 
L 900.409575 216.772948 
L 909.858025 225.849173 
L 919.306475 236.312487 
L 928.754925 248.235791 
L 938.203375 260.729805 
L 947.651825 275.736123 
L 957.100275 293.901682 
L 966.548725 316.374514 
L 975.997175 341.231522 
" clip-path="url(#p985c735656)" style="fill: none; stroke: #e4d354; stroke-linecap: square"/>
   </g>
   <g id="line2d_17">
    <path d="M 40.600625 255.879471 
L 50.049075 247.171261 
L 59.497525 238.563967 
L 68.945975 230.265712 
L 78.394425 221.240198 
L 87.842875 211.951223 
L 97.291325 203.50725 
L 106.739775 194.937134 
L 116.188225 188.480677 
L 125.636675 182.975798 
L 135.085125 177.94858 
L 144.533575 168.262197 
L 153.982025 164.439318 
L 163.430475 160.065883 
L 172.878925 155.781132 
L 182.327375 152.277792 
L 191.775825 151.044628 
L 201.224275 148.306443 
L 210.672725 147.034862 
L 220.121175 145.960818 
L 229.569625 144.547565 
L 239.018075 143.671727 
L 248.466525 142.798747 
L 257.914975 141.31889 
L 267.363425 140.252822 
L 276.811875 138.76511 
L 286.260325 136.478417 
L 295.708775 135.912174 
L 305.157225 135.393949 
L 314.605675 135.884022 
L 324.054125 136.183519 
L 333.502575 135.27476 
L 342.951025 135.172269 
L 352.399475 135.335521 
L 361.847925 135.34019 
L 371.296375 134.715357 
L 380.744825 134.043191 
L 390.193275 133.58292 
L 399.641725 134.751684 
L 409.090175 134.868647 
L 418.538625 134.889157 
L 427.987075 134.960431 
L 437.435525 134.363964 
L 446.883975 133.627817 
L 456.332425 134.086772 
L 465.780875 136.165104 
L 475.229325 138.721477 
L 484.677775 138.998654 
L 494.126225 140.272167 
L 503.574675 141.188401 
L 513.023125 141.503338 
L 522.471575 141.957911 
L 531.920025 143.608814 
L 541.368475 144.926271 
L 550.816925 146.445449 
L 560.265375 146.742372 
L 569.713825 147.42116 
L 579.162275 147.682806 
L 588.610725 147.922072 
L 598.059175 148.720333 
L 607.507625 148.745459 
L 616.956075 149.148655 
L 626.404525 149.898106 
L 635.852975 150.282999 
L 645.301425 150.753272 
L 654.749875 152.399241 
L 664.198325 153.290881 
L 673.646775 154.354154 
L 683.095225 155.38329 
L 692.543675 155.125683 
L 701.992125 156.308208 
L 711.440575 156.709474 
L 720.889025 157.256524 
L 730.337475 158.026167 
L 739.785925 158.547838 
L 749.234375 159.151784 
L 758.682825 160.92416 
L 768.131275 162.478906 
L 777.579725 164.001858 
L 787.028175 165.095968 
L 796.476625 166.682179 
L 805.925075 168.394397 
L 815.373525 170.047066 
L 824.821975 171.278005 
L 834.270425 173.687656 
L 843.718875 176.497437 
L 853.167325 181.002811 
L 862.615775 185.023905 
L 872.064225 189.918681 
L 881.512675 196.056844 
L 890.961125 203.748551 
L 900.409575 212.593567 
L 909.858025 221.93419 
L 919.306475 232.341494 
L 928.754925 244.018126 
L 938.203375 256.241763 
L 947.651825 271.059699 
L 957.100275 290.200267 
L 966.548725 314.143207 
L 975.997175 340.698103 
" clip-path="url(#p985c735656)" style="fill: none; stroke: #2b908f; stroke-linecap: square"/>
   </g>
   <g id="line2d_18">
    <path d="M 40.600625 250.324203 
L 50.049075 240.987895 
L 59.497525 232.060711 
L 68.945975 223.936142 
L 78.394425 215.447294 
L 87.842875 207.021556 
L 97.291325 199.23285 
L 106.739775 191.140217 
L 116.188225 184.786324 
L 125.636675 178.776628 
L 135.085125 173.483422 
L 144.533575 164.17856 
L 153.982025 160.102648 
L 163.430475 155.939104 
L 172.878925 151.99791 
L 182.327375 148.821249 
L 191.775825 147.429301 
L 201.224275 144.245722 
L 210.672725 143.08615 
L 220.121175 142.135119 
L 229.569625 140.884407 
L 239.018075 140.116117 
L 248.466525 139.352046 
L 257.914975 138.498252 
L 267.363425 137.768229 
L 276.811875 136.451124 
L 286.260325 134.510981 
L 295.708775 134.287632 
L 305.157225 134.06455 
L 314.605675 134.429878 
L 324.054125 134.479533 
L 333.502575 133.505066 
L 342.951025 133.142007 
L 352.399475 133.405028 
L 361.847925 133.811262 
L 371.296375 133.417925 
L 380.744825 133.490968 
L 390.193275 134.042336 
L 399.641725 135.489921 
L 409.090175 136.416418 
L 418.538625 136.935105 
L 427.987075 137.201435 
L 437.435525 136.426359 
L 446.883975 135.818083 
L 456.332425 135.935354 
L 465.780875 137.175095 
L 475.229325 139.38156 
L 484.677775 139.535932 
L 494.126225 140.927872 
L 503.574675 141.670608 
L 513.023125 142.221119 
L 522.471575 143.276712 
L 531.920025 144.98971 
L 541.368475 146.16184 
L 550.816925 148.219543 
L 560.265375 148.894589 
L 569.713825 149.824995 
L 579.162275 150.166726 
L 588.610725 150.606829 
L 598.059175 151.855287 
L 607.507625 151.976902 
L 616.956075 151.701374 
L 626.404525 152.486794 
L 635.852975 153.200709 
L 645.301425 154.052806 
L 654.749875 156.002406 
L 664.198325 156.691652 
L 673.646775 157.695126 
L 683.095225 158.440515 
L 692.543675 158.635103 
L 701.992125 159.588688 
L 711.440575 159.784523 
L 720.889025 160.050706 
L 730.337475 160.978868 
L 739.785925 161.618673 
L 749.234375 162.002916 
L 758.682825 163.430234 
L 768.131275 165.057055 
L 777.579725 167.143296 
L 787.028175 167.699577 
L 796.476625 168.881816 
L 805.925075 170.343007 
L 815.373525 172.020782 
L 824.821975 173.850323 
L 834.270425 176.980825 
L 843.718875 179.714587 
L 853.167325 183.53514 
L 862.615775 187.024841 
L 872.064225 191.335348 
L 881.512675 197.130462 
L 890.961125 204.111072 
L 900.409575 213.26648 
L 909.858025 222.896253 
L 919.306475 233.085214 
L 928.754925 244.693612 
L 938.203375 257.307155 
L 947.651825 272.463525 
L 957.100275 291.514363 
L 966.548725 314.902707 
L 975.997175 340.824001 
" clip-path="url(#p985c735656)" style="fill: none; stroke: #f45b5b; stroke-linecap: square"/>
   </g>
   <g id="line2d_19">
    <path d="M 40.600625 254.602608 
L 50.049075 246.46097 
L 59.497525 238.740683 
L 68.945975 231.119682 
L 78.394425 222.969151 
L 87.842875 214.399778 
L 97.291325 206.252783 
L 106.739775 197.673085 
L 116.188225 191.206944 
L 125.636675 185.185608 
L 135.085125 179.945158 
L 144.533575 170.853012 
L 153.982025 167.06441 
L 163.430475 163.073095 
L 172.878925 159.293147 
L 182.327375 155.725889 
L 191.775825 153.943274 
L 201.224275 151.259367 
L 210.672725 150.230643 
L 220.121175 149.189532 
L 229.569625 147.732336 
L 239.018075 146.602718 
L 248.466525 145.200485 
L 257.914975 143.391797 
L 267.363425 141.852057 
L 276.811875 140.088859 
L 286.260325 137.798426 
L 295.708775 136.903548 
L 305.157225 136.339114 
L 314.605675 136.325856 
L 324.054125 136.27559 
L 333.502575 135.223598 
L 342.951025 134.751317 
L 352.399475 134.40064 
L 361.847925 133.908583 
L 371.296375 133.115098 
L 380.744825 132.637418 
L 390.193275 132.54997 
L 399.641725 133.385513 
L 409.090175 133.307845 
L 418.538625 133.309882 
L 427.987075 133.536459 
L 437.435525 133.10106 
L 446.883975 132.908855 
L 456.332425 133.76398 
L 465.780875 135.390014 
L 475.229325 137.540801 
L 484.677775 137.505091 
L 494.126225 138.827969 
L 503.574675 139.355056 
L 513.023125 139.378819 
L 522.471575 139.639888 
L 531.920025 140.63498 
L 541.368475 141.525315 
L 550.816925 142.924253 
L 560.265375 143.639089 
L 569.713825 144.808115 
L 579.162275 145.329498 
L 588.610725 145.644451 
L 598.059175 146.441813 
L 607.507625 146.645266 
L 616.956075 147.282285 
L 626.404525 148.507205 
L 635.852975 149.095572 
L 645.301425 149.633724 
L 654.749875 150.94592 
L 664.198325 151.636608 
L 673.646775 152.634722 
L 683.095225 153.753371 
L 692.543675 153.955278 
L 701.992125 155.159829 
L 711.440575 155.503999 
L 720.889025 156.113304 
L 730.337475 156.955746 
L 739.785925 157.581532 
L 749.234375 158.345789 
L 758.682825 159.954232 
L 768.131275 160.942759 
L 777.579725 162.439197 
L 787.028175 163.226023 
L 796.476625 164.643893 
L 805.925075 166.315026 
L 815.373525 168.387586 
L 824.821975 170.468962 
L 834.270425 173.402686 
L 843.718875 176.493682 
L 853.167325 180.855741 
L 862.615775 185.140862 
L 872.064225 190.367267 
L 881.512675 196.997408 
L 890.961125 204.778031 
L 900.409575 213.95005 
L 909.858025 223.784166 
L 919.306475 234.632976 
L 928.754925 246.7711 
L 938.203375 259.398633 
L 947.651825 274.493828 
L 957.100275 293.465812 
L 966.548725 316.073091 
L 975.997175 341.122738 
" clip-path="url(#p985c735656)" style="fill: none; stroke: #91e8e1; stroke-linecap: square"/>
   </g>
   <g id="line2d_20">
    <path d="M 40.600625 250.532063 
L 50.049075 242.327819 
L 59.497525 234.134539 
L 68.945975 226.261776 
L 78.394425 217.938467 
L 87.842875 209.304169 
L 97.291325 200.98536 
L 106.739775 192.72276 
L 116.188225 186.033129 
L 125.636675 179.930921 
L 135.085125 174.791408 
L 144.533575 166.791818 
L 153.982025 163.009268 
L 163.430475 159.2353 
L 172.878925 155.585678 
L 182.327375 152.286341 
L 191.775825 150.555586 
L 201.224275 147.792224 
L 210.672725 146.444534 
L 220.121175 145.246384 
L 229.569625 144.121311 
L 239.018075 143.370941 
L 248.466525 142.535278 
L 257.914975 141.104733 
L 267.363425 140.033337 
L 276.811875 138.539684 
L 286.260325 136.305649 
L 295.708775 135.691378 
L 305.157225 135.087959 
L 314.605675 135.068795 
L 324.054125 134.973447 
L 333.502575 133.942181 
L 342.951025 133.903608 
L 352.399475 133.97413 
L 361.847925 133.473721 
L 371.296375 132.732844 
L 380.744825 132.614074 
L 390.193275 132.800439 
L 399.641725 133.711 
L 409.090175 133.468511 
L 418.538625 133.321861 
L 427.987075 133.330713 
L 437.435525 132.453874 
L 446.883975 131.816384 
L 456.332425 132.488618 
L 465.780875 133.434083 
L 475.229325 135.635818 
L 484.677775 136.032062 
L 494.126225 137.542088 
L 503.574675 138.110217 
L 513.023125 138.380698 
L 522.471575 139.285969 
L 531.920025 140.501488 
L 541.368475 141.772563 
L 550.816925 143.57932 
L 560.265375 144.579223 
L 569.713825 145.894024 
L 579.162275 146.517423 
L 588.610725 147.096891 
L 598.059175 148.076505 
L 607.507625 148.611264 
L 616.956075 149.217995 
L 626.404525 150.608381 
L 635.852975 151.384422 
L 645.301425 152.23566 
L 654.749875 153.887119 
L 664.198325 154.990815 
L 673.646775 156.354061 
L 683.095225 157.65173 
L 692.543675 157.881635 
L 701.992125 159.014014 
L 711.440575 159.382276 
L 720.889025 159.829827 
L 730.337475 160.554502 
L 739.785925 161.073818 
L 749.234375 161.868542 
L 758.682825 163.515202 
L 768.131275 164.589084 
L 777.579725 166.167322 
L 787.028175 166.769963 
L 796.476625 168.058606 
L 805.925075 169.817618 
L 815.373525 171.543185 
L 824.821975 173.215103 
L 834.270425 176.318059 
L 843.718875 179.268425 
L 853.167325 183.659766 
L 862.615775 187.946105 
L 872.064225 193.155848 
L 881.512675 199.464264 
L 890.961125 207.324109 
L 900.409575 216.706378 
L 909.858025 226.835401 
L 919.306475 237.582564 
L 928.754925 249.567156 
L 938.203375 262.161728 
L 947.651825 276.933149 
L 957.100275 295.317846 
L 966.548725 317.072758 
L 975.997175 341.292783 
" clip-path="url(#p985c735656)" style="fill: none; stroke: #7cb5ec; stroke-linecap: square"/>
   </g>
   <g id="line2d_21">
    <path d="M 40.600625 261.584682 
L 50.049075 250.841216 
L 59.497525 240.684457 
L 68.945975 230.578344 
L 78.394425 219.656134 
L 87.842875 209.900037 
L 97.291325 200.755757 
L 106.739775 192.288533 
L 116.188225 188.244114 
L 125.636675 184.338542 
L 135.085125 182.330719 
L 144.533575 175.481212 
L 153.982025 170.647073 
L 163.430475 166.375303 
L 172.878925 160.865332 
L 182.327375 156.714503 
L 191.775825 154.447375 
L 201.224275 152.529281 
L 210.672725 150.671271 
L 220.121175 150.125918 
L 229.569625 149.822436 
L 239.018075 151.226636 
L 248.466525 153.19029 
L 257.914975 153.880732 
L 267.363425 153.667619 
L 276.811875 152.137961 
L 286.260325 150.488837 
L 295.708775 148.961773 
L 305.157225 147.596265 
L 314.605675 147.836546 
L 324.054125 145.484829 
L 333.502575 143.282358 
L 342.951025 139.820376 
L 352.399475 137.456981 
L 361.847925 134.111217 
L 371.296375 131.37924 
L 380.744825 127.293678 
L 390.193275 124.394791 
L 399.641725 125.053178 
L 409.090175 126.268143 
L 418.538625 128.050271 
L 427.987075 128.43134 
L 437.435525 128.768558 
L 446.883975 127.916826 
L 456.332425 128.941409 
L 465.780875 129.595634 
L 475.229325 132.151068 
L 484.677775 130.495093 
L 494.126225 129.947992 
L 503.574675 129.612434 
L 513.023125 128.693349 
L 522.471575 131.436919 
L 531.920025 134.630155 
L 541.368475 136.567752 
L 550.816925 140.925072 
L 560.265375 142.635178 
L 569.713825 144.416207 
L 579.162275 145.085013 
L 588.610725 145.449273 
L 598.059175 145.730564 
L 607.507625 148.213029 
L 616.956075 146.301201 
L 626.404525 144.638932 
L 635.852975 144.928737 
L 645.301425 144.663327 
L 654.749875 147.343214 
L 664.198325 147.964038 
L 673.646775 150.20456 
L 683.095225 152.539954 
L 692.543675 151.864933 
L 701.992125 152.801425 
L 711.440575 155.309546 
L 720.889025 156.104015 
L 730.337475 156.672245 
L 739.785925 156.290312 
L 749.234375 156.026656 
L 758.682825 158.681345 
L 768.131275 160.509188 
L 777.579725 161.905105 
L 787.028175 159.542427 
L 796.476625 156.324277 
L 805.925075 152.239134 
L 815.373525 148.006053 
L 824.821975 148.47606 
L 834.270425 155.371347 
L 843.718875 163.456105 
L 853.167325 175.572303 
L 862.615775 190.664075 
L 872.064225 198.871451 
L 881.512675 208.235055 
L 890.961125 217.78173 
L 900.409575 227.992376 
L 909.858025 240.857916 
L 919.306475 249.471683 
L 928.754925 259.847079 
L 938.203375 270.570553 
L 947.651825 284.122524 
L 957.100275 301.764416 
L 966.548725 321.202934 
L 975.997175 342.815818 
" clip-path="url(#p985c735656)" style="fill: none; stroke: #434348; stroke-linecap: square"/>
   </g>
   <g id="line2d_22">
    <path d="M 40.600625 266.208846 
L 50.049075 258.053469 
L 59.497525 249.723936 
L 68.945975 240.35136 
L 78.394425 228.923429 
L 87.842875 220.416677 
L 97.291325 213.320204 
L 106.739775 207.767975 
L 116.188225 201.256733 
L 125.636675 194.815381 
L 135.085125 188.135507 
L 144.533575 176.54308 
L 153.982025 171.180594 
L 163.430475 164.102777 
L 172.878925 160.072826 
L 182.327375 155.441196 
L 191.775825 152.208834 
L 201.224275 149.399608 
L 210.672725 147.481077 
L 220.121175 147.478912 
L 229.569625 147.366404 
L 239.018075 146.561715 
L 248.466525 145.347483 
L 257.914975 143.532743 
L 267.363425 142.115317 
L 276.811875 139.712527 
L 286.260325 136.892865 
L 295.708775 135.767663 
L 305.157225 134.276801 
L 314.605675 134.356479 
L 324.054125 134.070521 
L 333.502575 132.899752 
L 342.951025 131.663337 
L 352.399475 131.252615 
L 361.847925 130.238734 
L 371.296375 127.271455 
L 380.744825 123.947159 
L 390.193275 122.318808 
L 399.641725 122.619192 
L 409.090175 125.095887 
L 418.538625 126.78683 
L 427.987075 128.880394 
L 437.435525 130.263082 
L 446.883975 131.404625 
L 456.332425 131.475192 
L 465.780875 133.87105 
L 475.229325 138.355123 
L 484.677775 139.223918 
L 494.126225 141.209298 
L 503.574675 142.727676 
L 513.023125 144.096017 
L 522.471575 145.722181 
L 531.920025 148.16907 
L 541.368475 149.854153 
L 550.816925 151.825009 
L 560.265375 150.664456 
L 569.713825 149.240937 
L 579.162275 144.093648 
L 588.610725 141.628604 
L 598.059175 142.716025 
L 607.507625 148.706416 
L 616.956075 150.552168 
L 626.404525 150.852957 
L 635.852975 152.437635 
L 645.301425 153.501063 
L 654.749875 156.187409 
L 664.198325 157.451598 
L 673.646775 157.673245 
L 683.095225 157.965573 
L 692.543675 157.248506 
L 701.992125 157.414613 
L 711.440575 157.126166 
L 720.889025 156.825822 
L 730.337475 157.455951 
L 739.785925 157.277617 
L 749.234375 157.504137 
L 758.682825 158.570077 
L 768.131275 160.279407 
L 777.579725 162.271972 
L 787.028175 162.874784 
L 796.476625 163.924772 
L 805.925075 164.925972 
L 815.373525 166.255394 
L 824.821975 168.918131 
L 834.270425 172.741312 
L 843.718875 175.90665 
L 853.167325 180.562138 
L 862.615775 183.239131 
L 872.064225 185.648518 
L 881.512675 186.307475 
L 890.961125 192.117744 
L 900.409575 200.77563 
L 909.858025 216.881398 
L 919.306475 227.362215 
L 928.754925 238.377062 
L 938.203375 249.955984 
L 947.651825 264.820997 
L 957.100275 285.28035 
L 966.548725 311.369816 
L 975.997175 340.095901 
" clip-path="url(#p985c735656)" style="fill: none; stroke: #90ed7d; stroke-linecap: square"/>
   </g>
   <g id="line2d_23">
    <path d="M 40.600625 256.517199 
L 50.049075 248.961593 
L 59.497525 240.916825 
L 68.945975 233.226684 
L 78.394425 225.064371 
L 87.842875 216.42216 
L 97.291325 208.203127 
L 106.739775 200.644022 
L 116.188225 193.947982 
L 125.636675 187.952613 
L 135.085125 182.849388 
L 144.533575 175.788386 
L 153.982025 172.02022 
L 163.430475 168.189411 
L 172.878925 164.505779 
L 182.327375 161.385866 
L 191.775825 159.957777 
L 201.224275 157.293556 
L 210.672725 156.023465 
L 220.121175 154.994788 
L 229.569625 153.518025 
L 239.018075 152.338652 
L 248.466525 151.032337 
L 257.914975 149.327446 
L 267.363425 148.006302 
L 276.811875 146.240472 
L 286.260325 144.079802 
L 295.708775 142.953549 
L 305.157225 142.345605 
L 314.605675 142.064532 
L 324.054125 141.763685 
L 333.502575 140.777025 
L 342.951025 140.018536 
L 352.399475 139.452251 
L 361.847925 138.536663 
L 371.296375 137.721883 
L 380.744825 137.031296 
L 390.193275 136.619323 
L 399.641725 137.189014 
L 409.090175 137.134135 
L 418.538625 137.139854 
L 427.987075 137.232661 
L 437.435525 136.824128 
L 446.883975 136.151768 
L 456.332425 136.415063 
L 465.780875 137.382689 
L 475.229325 138.813983 
L 484.677775 138.802287 
L 494.126225 139.881893 
L 503.574675 140.228639 
L 513.023125 140.382598 
L 522.471575 141.188136 
L 531.920025 142.411929 
L 541.368475 143.185098 
L 550.816925 144.277067 
L 560.265375 144.773743 
L 569.713825 145.404214 
L 579.162275 145.51539 
L 588.610725 145.595456 
L 598.059175 146.064013 
L 607.507625 146.235896 
L 616.956075 146.452815 
L 626.404525 146.716822 
L 635.852975 146.972723 
L 645.301425 147.310212 
L 654.749875 148.558919 
L 664.198325 148.99163 
L 673.646775 149.860001 
L 683.095225 150.590988 
L 692.543675 150.521001 
L 701.992125 151.603267 
L 711.440575 151.982156 
L 720.889025 152.126883 
L 730.337475 152.440522 
L 739.785925 152.541703 
L 749.234375 152.758308 
L 758.682825 154.013387 
L 768.131275 155.114184 
L 777.579725 156.258858 
L 787.028175 156.901934 
L 796.476625 158.440699 
L 805.925075 160.262399 
L 815.373525 161.890417 
L 824.821975 163.491908 
L 834.270425 166.259868 
L 843.718875 168.956875 
L 853.167325 173.288562 
L 862.615775 177.350765 
L 872.064225 182.294868 
L 881.512675 188.459854 
L 890.961125 195.930703 
L 900.409575 205.14749 
L 909.858025 214.995673 
L 919.306475 226.044693 
L 928.754925 238.235373 
L 938.203375 251.258284 
L 947.651825 267.275448 
L 957.100275 287.486182 
L 966.548725 312.400632 
L 975.997175 339.931614 
" clip-path="url(#p985c735656)" style="fill: none; stroke: #f7a35c; stroke-linecap: square"/>
   </g>
   <g id="line2d_24">
    <path d="M 40.600625 269.441573 
L 50.049075 251.108298 
L 59.497525 235.554789 
L 68.945975 221.262397 
L 78.394425 203.794566 
L 87.842875 186.511514 
L 97.291325 173.398877 
L 106.739775 162.720109 
L 116.188225 159.955665 
L 125.636675 156.586406 
L 135.085125 161.504112 
L 144.533575 146.107101 
L 153.982025 143.026162 
L 163.430475 138.167066 
L 172.878925 132.659733 
L 182.327375 126.967764 
L 191.775825 127.969339 
L 201.224275 133.792634 
L 210.672725 132.440653 
L 220.121175 134.900707 
L 229.569625 135.399157 
L 239.018075 138.718132 
L 248.466525 142.344439 
L 257.914975 146.739183 
L 267.363425 145.936862 
L 276.811875 145.02705 
L 286.260325 142.007213 
L 295.708775 143.017044 
L 305.157225 142.748909 
L 314.605675 140.948324 
L 324.054125 142.235836 
L 333.502575 144.322789 
L 342.951025 147.753072 
L 352.399475 148.639626 
L 361.847925 148.910605 
L 371.296375 136.341612 
L 380.744825 130.235593 
L 390.193275 124.747934 
L 399.641725 121.289921 
L 409.090175 118.022264 
L 418.538625 120.451479 
L 427.987075 120.927171 
L 437.435525 121.435622 
L 446.883975 128.424344 
L 456.332425 135.163451 
L 465.780875 139.28126 
L 475.229325 144.385454 
L 484.677775 145.903593 
L 494.126225 149.835042 
L 503.574675 155.667269 
L 513.023125 155.556851 
L 522.471575 147.114739 
L 531.920025 147.476189 
L 541.368475 149.030646 
L 550.816925 151.070457 
L 560.265375 153.120013 
L 569.713825 151.811713 
L 579.162275 150.569698 
L 588.610725 148.985904 
L 598.059175 149.320279 
L 607.507625 150.240889 
L 616.956075 149.489762 
L 626.404525 150.919124 
L 635.852975 155.725728 
L 645.301425 159.896716 
L 654.749875 164.395138 
L 664.198325 166.152899 
L 673.646775 158.815249 
L 683.095225 157.3864 
L 692.543675 156.026755 
L 701.992125 155.106818 
L 711.440575 153.446107 
L 720.889025 153.617573 
L 730.337475 157.123253 
L 739.785925 161.222322 
L 749.234375 166.187269 
L 758.682825 169.956103 
L 768.131275 171.697663 
L 777.579725 174.297487 
L 787.028175 174.0884 
L 796.476625 165.229532 
L 805.925075 155.697857 
L 815.373525 148.663221 
L 824.821975 150.367161 
L 834.270425 159.721948 
L 843.718875 171.015321 
L 853.167325 185.011345 
L 862.615775 203.771253 
L 872.064225 212.7997 
L 881.512675 220.403305 
L 890.961125 229.930848 
L 900.409575 239.183562 
L 909.858025 247.98122 
L 919.306475 256.033299 
L 928.754925 265.43457 
L 938.203375 275.519968 
L 947.651825 288.064549 
L 957.100275 303.40413 
L 966.548725 322.141623 
L 975.997175 343.088599 
" clip-path="url(#p985c735656)" style="fill: none; stroke: #8085e9; stroke-linecap: square"/>
   </g>
   <g id="line2d_25">
    <path d="M 40.600625 251.62049 
L 50.049075 243.780782 
L 59.497525 235.983319 
L 68.945975 228.339977 
L 78.394425 220.391257 
L 87.842875 212.264475 
L 97.291325 204.528423 
L 106.739775 196.744351 
L 116.188225 190.764368 
L 125.636675 185.111564 
L 135.085125 179.779147 
L 144.533575 170.765718 
L 153.982025 167.038863 
L 163.430475 163.374852 
L 172.878925 159.693796 
L 182.327375 156.251398 
L 191.775825 153.920254 
L 201.224275 150.58044 
L 210.672725 147.807988 
L 220.121175 146.347438 
L 229.569625 144.769494 
L 239.018075 143.622334 
L 248.466525 142.404691 
L 257.914975 141.142167 
L 267.363425 139.763908 
L 276.811875 138.129028 
L 286.260325 136.280652 
L 295.708775 136.054449 
L 305.157225 135.634502 
L 314.605675 135.385638 
L 324.054125 135.208603 
L 333.502575 134.123452 
L 342.951025 133.957216 
L 352.399475 134.120439 
L 361.847925 134.434684 
L 371.296375 133.79236 
L 380.744825 133.599743 
L 390.193275 133.464989 
L 399.641725 134.416296 
L 409.090175 134.627547 
L 418.538625 134.273845 
L 427.987075 134.37097 
L 437.435525 133.82787 
L 446.883975 133.231469 
L 456.332425 133.895783 
L 465.780875 135.018609 
L 475.229325 137.365312 
L 484.677775 138.068538 
L 494.126225 139.737127 
L 503.574675 140.418052 
L 513.023125 140.422675 
L 522.471575 140.96394 
L 531.920025 142.333004 
L 541.368475 143.490008 
L 550.816925 144.946439 
L 560.265375 145.342946 
L 569.713825 146.479841 
L 579.162275 146.716234 
L 588.610725 147.270641 
L 598.059175 148.406463 
L 607.507625 148.333901 
L 616.956075 148.443616 
L 626.404525 148.808447 
L 635.852975 149.579221 
L 645.301425 150.239545 
L 654.749875 151.975527 
L 664.198325 152.863635 
L 673.646775 153.647872 
L 683.095225 154.717575 
L 692.543675 155.0018 
L 701.992125 156.120221 
L 711.440575 156.392133 
L 720.889025 156.851 
L 730.337475 157.757928 
L 739.785925 158.512823 
L 749.234375 159.377744 
L 758.682825 161.197792 
L 768.131275 162.350545 
L 777.579725 163.836099 
L 787.028175 164.837456 
L 796.476625 166.295571 
L 805.925075 167.723223 
L 815.373525 169.485951 
L 824.821975 171.512947 
L 834.270425 174.578964 
L 843.718875 177.726678 
L 853.167325 181.958341 
L 862.615775 185.887912 
L 872.064225 190.688324 
L 881.512675 196.94029 
L 890.961125 204.582875 
L 900.409575 213.611243 
L 909.858025 223.319984 
L 919.306475 233.832019 
L 928.754925 245.156783 
L 938.203375 257.315226 
L 947.651825 272.534129 
L 957.100275 291.763241 
L 966.548725 314.875051 
L 975.997175 340.806383 
" clip-path="url(#p985c735656)" style="fill: none; stroke: #f15c80; stroke-linecap: square"/>
   </g>
   <g id="line2d_26">
    <path d="M 40.600625 353.2239 
L 985.445625 353.2239 
" clip-path="url(#p985c735656)" style="fill: none; stroke: #dedede; stroke-width: 2; stroke-linecap: square"/>
   </g>
   <g id="text_18">
    <!-- Qualimap RNAseq: Coverage Profile Along Genes (total) -->
    <g transform="translate(289.641875 19.3575) scale(0.16 -0.16)">
     <defs>
      <path id="DejaVuSans-51" d="M 2522 4238 
Q 1834 4238 1429 3725 
Q 1025 3213 1025 2328 
Q 1025 1447 1429 934 
Q 1834 422 2522 422 
Q 3209 422 3611 934 
Q 4013 1447 4013 2328 
Q 4013 3213 3611 3725 
Q 3209 4238 2522 4238 
z
M 3406 84 
L 4238 -825 
L 3475 -825 
L 2784 -78 
Q 2681 -84 2626 -87 
Q 2572 -91 2522 -91 
Q 1538 -91 948 567 
Q 359 1225 359 2328 
Q 359 3434 948 4092 
Q 1538 4750 2522 4750 
Q 3503 4750 4090 4092 
Q 4678 3434 4678 2328 
Q 4678 1516 4351 937 
Q 4025 359 3406 84 
z
" transform="scale(0.015625)"/>
      <path id="DejaVuSans-52" d="M 2841 2188 
Q 3044 2119 3236 1894 
Q 3428 1669 3622 1275 
L 4263 0 
L 3584 0 
L 2988 1197 
Q 2756 1666 2539 1819 
Q 2322 1972 1947 1972 
L 1259 1972 
L 1259 0 
L 628 0 
L 628 4666 
L 2053 4666 
Q 2853 4666 3247 4331 
Q 3641 3997 3641 3322 
Q 3641 2881 3436 2590 
Q 3231 2300 2841 2188 
z
M 1259 4147 
L 1259 2491 
L 2053 2491 
Q 2509 2491 2742 2702 
Q 2975 2913 2975 3322 
Q 2975 3731 2742 3939 
Q 2509 4147 2053 4147 
L 1259 4147 
z
" transform="scale(0.015625)"/>
      <path id="DejaVuSans-4e" d="M 628 4666 
L 1478 4666 
L 3547 763 
L 3547 4666 
L 4159 4666 
L 4159 0 
L 3309 0 
L 1241 3903 
L 1241 0 
L 628 0 
L 628 4666 
z
" transform="scale(0.015625)"/>
      <path id="DejaVuSans-41" d="M 2188 4044 
L 1331 1722 
L 3047 1722 
L 2188 4044 
z
M 1831 4666 
L 2547 4666 
L 4325 0 
L 3669 0 
L 3244 1197 
L 1141 1197 
L 716 0 
L 50 0 
L 1831 4666 
z
" transform="scale(0.015625)"/>
      <path id="DejaVuSans-71" d="M 947 1747 
Q 947 1113 1208 752 
Q 1469 391 1925 391 
Q 2381 391 2643 752 
Q 2906 1113 2906 1747 
Q 2906 2381 2643 2742 
Q 2381 3103 1925 3103 
Q 1469 3103 1208 2742 
Q 947 2381 947 1747 
z
M 2906 525 
Q 2725 213 2448 61 
Q 2172 -91 1784 -91 
Q 1150 -91 751 415 
Q 353 922 353 1747 
Q 353 2572 751 3078 
Q 1150 3584 1784 3584 
Q 2172 3584 2448 3432 
Q 2725 3281 2906 2969 
L 2906 3500 
L 3481 3500 
L 3481 -1331 
L 2906 -1331 
L 2906 525 
z
" transform="scale(0.015625)"/>
      <path id="DejaVuSans-3a" d="M 750 794 
L 1409 794 
L 1409 0 
L 750 0 
L 750 794 
z
M 750 3309 
L 1409 3309 
L 1409 2516 
L 750 2516 
L 750 3309 
z
" transform="scale(0.015625)"/>
      <path id="DejaVuSans-43" d="M 4122 4306 
L 4122 3641 
Q 3803 3938 3442 4084 
Q 3081 4231 2675 4231 
Q 1875 4231 1450 3742 
Q 1025 3253 1025 2328 
Q 1025 1406 1450 917 
Q 1875 428 2675 428 
Q 3081 428 3442 575 
Q 3803 722 4122 1019 
L 4122 359 
Q 3791 134 3420 21 
Q 3050 -91 2638 -91 
Q 1578 -91 968 557 
Q 359 1206 359 2328 
Q 359 3453 968 4101 
Q 1578 4750 2638 4750 
Q 3056 4750 3426 4639 
Q 3797 4528 4122 4306 
z
" transform="scale(0.015625)"/>
      <path id="DejaVuSans-66" d="M 2375 4863 
L 2375 4384 
L 1825 4384 
Q 1516 4384 1395 4259 
Q 1275 4134 1275 3809 
L 1275 3500 
L 2222 3500 
L 2222 3053 
L 1275 3053 
L 1275 0 
L 697 0 
L 697 3053 
L 147 3053 
L 147 3500 
L 697 3500 
L 697 3744 
Q 697 4328 969 4595 
Q 1241 4863 1831 4863 
L 2375 4863 
z
" transform="scale(0.015625)"/>
      <path id="DejaVuSans-47" d="M 3809 666 
L 3809 1919 
L 2778 1919 
L 2778 2438 
L 4434 2438 
L 4434 434 
Q 4069 175 3628 42 
Q 3188 -91 2688 -91 
Q 1594 -91 976 548 
Q 359 1188 359 2328 
Q 359 3472 976 4111 
Q 1594 4750 2688 4750 
Q 3144 4750 3555 4637 
Q 3966 4525 4313 4306 
L 4313 3634 
Q 3963 3931 3569 4081 
Q 3175 4231 2741 4231 
Q 1884 4231 1454 3753 
Q 1025 3275 1025 2328 
Q 1025 1384 1454 906 
Q 1884 428 2741 428 
Q 3075 428 3337 486 
Q 3600 544 3809 666 
z
" transform="scale(0.015625)"/>
     </defs>
     <use xlink:href="#DejaVuSans-51"/>
     <use xlink:href="#DejaVuSans-75" x="78.710938"/>
     <use xlink:href="#DejaVuSans-61" x="142.089844"/>
     <use xlink:href="#DejaVuSans-6c" x="203.369141"/>
     <use xlink:href="#DejaVuSans-69" x="231.152344"/>
     <use xlink:href="#DejaVuSans-6d" x="258.935547"/>
     <use xlink:href="#DejaVuSans-61" x="356.347656"/>
     <use xlink:href="#DejaVuSans-70" x="417.626953"/>
     <use xlink:href="#DejaVuSans-20" x="481.103516"/>
     <use xlink:href="#DejaVuSans-52" x="512.890625"/>
     <use xlink:href="#DejaVuSans-4e" x="582.373047"/>
     <use xlink:href="#DejaVuSans-41" x="657.177734"/>
     <use xlink:href="#DejaVuSans-73" x="725.585938"/>
     <use xlink:href="#DejaVuSans-65" x="777.685547"/>
     <use xlink:href="#DejaVuSans-71" x="839.208984"/>
     <use xlink:href="#DejaVuSans-3a" x="902.685547"/>
     <use xlink:href="#DejaVuSans-20" x="936.376953"/>
     <use xlink:href="#DejaVuSans-43" x="968.164062"/>
     <use xlink:href="#DejaVuSans-6f" x="1037.988281"/>
     <use xlink:href="#DejaVuSans-76" x="1099.169922"/>
     <use xlink:href="#DejaVuSans-65" x="1158.349609"/>
     <use xlink:href="#DejaVuSans-72" x="1219.873047"/>
     <use xlink:href="#DejaVuSans-61" x="1260.986328"/>
     <use xlink:href="#DejaVuSans-67" x="1322.265625"/>
     <use xlink:href="#DejaVuSans-65" x="1385.742188"/>
     <use xlink:href="#DejaVuSans-20" x="1447.265625"/>
     <use xlink:href="#DejaVuSans-50" x="1479.052734"/>
     <use xlink:href="#DejaVuSans-72" x="1537.605469"/>
     <use xlink:href="#DejaVuSans-6f" x="1576.46875"/>
     <use xlink:href="#DejaVuSans-66" x="1637.650391"/>
     <use xlink:href="#DejaVuSans-69" x="1672.855469"/>
     <use xlink:href="#DejaVuSans-6c" x="1700.638672"/>
     <use xlink:href="#DejaVuSans-65" x="1728.421875"/>
     <use xlink:href="#DejaVuSans-20" x="1789.945312"/>
     <use xlink:href="#DejaVuSans-41" x="1821.732422"/>
     <use xlink:href="#DejaVuSans-6c" x="1890.140625"/>
     <use xlink:href="#DejaVuSans-6f" x="1917.923828"/>
     <use xlink:href="#DejaVuSans-6e" x="1979.105469"/>
     <use xlink:href="#DejaVuSans-67" x="2042.484375"/>
     <use xlink:href="#DejaVuSans-20" x="2105.960938"/>
     <use xlink:href="#DejaVuSans-47" x="2137.748047"/>
     <use xlink:href="#DejaVuSans-65" x="2215.238281"/>
     <use xlink:href="#DejaVuSans-6e" x="2276.761719"/>
     <use xlink:href="#DejaVuSans-65" x="2340.140625"/>
     <use xlink:href="#DejaVuSans-73" x="2401.664062"/>
     <use xlink:href="#DejaVuSans-20" x="2453.763672"/>
     <use xlink:href="#DejaVuSans-28" x="2485.550781"/>
     <use xlink:href="#DejaVuSans-74" x="2524.564453"/>
     <use xlink:href="#DejaVuSans-6f" x="2563.773438"/>
     <use xlink:href="#DejaVuSans-74" x="2624.955078"/>
     <use xlink:href="#DejaVuSans-61" x="2664.164062"/>
     <use xlink:href="#DejaVuSans-6c" x="2725.443359"/>
     <use xlink:href="#DejaVuSans-29" x="2753.226562"/>
    </g>
   </g>
  </g>
 </g>
 <defs>
  <clipPath id="p985c735656">
   <rect x="40.600625" y="35.2559" width="944.845" height="317.968"/>
  </clipPath>
 </defs>
</svg>
