<?xml version="1.0" encoding="utf-8" standalone="no"?>
<!DOCTYPE svg PUBLIC "-//W3C//DTD SVG 1.1//EN"
  "http://www.w3.org/Graphics/SVG/1.1/DTD/svg11.dtd">
<svg xmlns:xlink="http://www.w3.org/1999/xlink" width="1000.340625pt" height="388.844525pt" viewBox="0 0 1000.340625 388.844525" xmlns="http://www.w3.org/2000/svg" version="1.1">
 <metadata>
  <rdf:RDF xmlns:dc="http://purl.org/dc/elements/1.1/" xmlns:cc="http://creativecommons.org/ns#" xmlns:rdf="http://www.w3.org/1999/02/22-rdf-syntax-ns#">
   <cc:Work>
    <dc:type rdf:resource="http://purl.org/dc/dcmitype/StillImage"/>
    <dc:date>2024-08-15T09:46:34.531507</dc:date>
    <dc:format>image/svg+xml</dc:format>
    <dc:creator>
     <cc:Agent>
      <dc:title>Matplotlib v3.8.2, https://matplotlib.org/</dc:title>
     </cc:Agent>
    </dc:creator>
   </cc:Work>
  </rdf:RDF>
 </metadata>
 <defs>
  <style type="text/css">*{stroke-linejoin: round; stroke-linecap: butt}</style>
 </defs>
 <g id="figure_1">
  <g id="axes_1">
   <g id="patch_1">
    <path d="M 40.600625 353.2239 
L 993.140625 353.2239 
L 993.140625 35.2559 
L 40.600625 35.2559 
z
" style="fill: #ffffff"/>
   </g>
   <g id="matplotlib.axis_1">
    <g id="xtick_1">
     <g id="text_1">
      <!-- 20 -->
      <g transform="translate(65.2775 366.30265) scale(0.08 -0.08)">
       <defs>
        <path id="DejaVuSans-32" d="M 1228 531 
L 3431 531 
L 3431 0 
L 469 0 
L 469 531 
Q 828 903 1448 1529 
Q 2069 2156 2228 2338 
Q 2531 2678 2651 2914 
Q 2772 3150 2772 3378 
Q 2772 3750 2511 3984 
Q 2250 4219 1831 4219 
Q 1534 4219 1204 4116 
Q 875 4013 500 3803 
L 500 4441 
Q 881 4594 1212 4672 
Q 1544 4750 1819 4750 
Q 2544 4750 2975 4387 
Q 3406 4025 3406 3419 
Q 3406 3131 3298 2873 
Q 3191 2616 2906 2266 
Q 2828 2175 2409 1742 
Q 1991 1309 1228 531 
z
" transform="scale(0.015625)"/>
        <path id="DejaVuSans-30" d="M 2034 4250 
Q 1547 4250 1301 3770 
Q 1056 3291 1056 2328 
Q 1056 1369 1301 889 
Q 1547 409 2034 409 
Q 2525 409 2770 889 
Q 3016 1369 3016 2328 
Q 3016 3291 2770 3770 
Q 2525 4250 2034 4250 
z
M 2034 4750 
Q 2819 4750 3233 4129 
Q 3647 3509 3647 2328 
Q 3647 1150 3233 529 
Q 2819 -91 2034 -91 
Q 1250 -91 836 529 
Q 422 1150 422 2328 
Q 422 3509 836 4129 
Q 1250 4750 2034 4750 
z
" transform="scale(0.015625)"/>
       </defs>
       <use xlink:href="#DejaVuSans-32"/>
       <use xlink:href="#DejaVuSans-30" x="63.623047"/>
      </g>
     </g>
    </g>
    <g id="xtick_2">
     <g id="text_2">
      <!-- 40 -->
      <g transform="translate(200.581477 366.30265) scale(0.08 -0.08)">
       <defs>
        <path id="DejaVuSans-34" d="M 2419 4116 
L 825 1625 
L 2419 1625 
L 2419 4116 
z
M 2253 4666 
L 3047 4666 
L 3047 1625 
L 3713 1625 
L 3713 1100 
L 3047 1100 
L 3047 0 
L 2419 0 
L 2419 1100 
L 313 1100 
L 313 1709 
L 2253 4666 
z
" transform="scale(0.015625)"/>
       </defs>
       <use xlink:href="#DejaVuSans-34"/>
       <use xlink:href="#DejaVuSans-30" x="63.623047"/>
      </g>
     </g>
    </g>
    <g id="xtick_3">
     <g id="text_3">
      <!-- 60 -->
      <g transform="translate(335.885455 366.30265) scale(0.08 -0.08)">
       <defs>
        <path id="DejaVuSans-36" d="M 2113 2584 
Q 1688 2584 1439 2293 
Q 1191 2003 1191 1497 
Q 1191 994 1439 701 
Q 1688 409 2113 409 
Q 2538 409 2786 701 
Q 3034 994 3034 1497 
Q 3034 2003 2786 2293 
Q 2538 2584 2113 2584 
z
M 3366 4563 
L 3366 3988 
Q 3128 4100 2886 4159 
Q 2644 4219 2406 4219 
Q 1781 4219 1451 3797 
Q 1122 3375 1075 2522 
Q 1259 2794 1537 2939 
Q 1816 3084 2150 3084 
Q 2853 3084 3261 2657 
Q 3669 2231 3669 1497 
Q 3669 778 3244 343 
Q 2819 -91 2113 -91 
Q 1303 -91 875 529 
Q 447 1150 447 2328 
Q 447 3434 972 4092 
Q 1497 4750 2381 4750 
Q 2619 4750 2861 4703 
Q 3103 4656 3366 4563 
z
" transform="scale(0.015625)"/>
       </defs>
       <use xlink:href="#DejaVuSans-36"/>
       <use xlink:href="#DejaVuSans-30" x="63.623047"/>
      </g>
     </g>
    </g>
    <g id="xtick_4">
     <g id="text_4">
      <!-- 80 -->
      <g transform="translate(471.189432 366.30265) scale(0.08 -0.08)">
       <defs>
        <path id="DejaVuSans-38" d="M 2034 2216 
Q 1584 2216 1326 1975 
Q 1069 1734 1069 1313 
Q 1069 891 1326 650 
Q 1584 409 2034 409 
Q 2484 409 2743 651 
Q 3003 894 3003 1313 
Q 3003 1734 2745 1975 
Q 2488 2216 2034 2216 
z
M 1403 2484 
Q 997 2584 770 2862 
Q 544 3141 544 3541 
Q 544 4100 942 4425 
Q 1341 4750 2034 4750 
Q 2731 4750 3128 4425 
Q 3525 4100 3525 3541 
Q 3525 3141 3298 2862 
Q 3072 2584 2669 2484 
Q 3125 2378 3379 2068 
Q 3634 1759 3634 1313 
Q 3634 634 3220 271 
Q 2806 -91 2034 -91 
Q 1263 -91 848 271 
Q 434 634 434 1313 
Q 434 1759 690 2068 
Q 947 2378 1403 2484 
z
M 1172 3481 
Q 1172 3119 1398 2916 
Q 1625 2713 2034 2713 
Q 2441 2713 2670 2916 
Q 2900 3119 2900 3481 
Q 2900 3844 2670 4047 
Q 2441 4250 2034 4250 
Q 1625 4250 1398 4047 
Q 1172 3844 1172 3481 
z
" transform="scale(0.015625)"/>
       </defs>
       <use xlink:href="#DejaVuSans-38"/>
       <use xlink:href="#DejaVuSans-30" x="63.623047"/>
      </g>
     </g>
    </g>
    <g id="xtick_5">
     <g id="text_5">
      <!-- 100 -->
      <g transform="translate(603.948409 366.30265) scale(0.08 -0.08)">
       <defs>
        <path id="DejaVuSans-31" d="M 794 531 
L 1825 531 
L 1825 4091 
L 703 3866 
L 703 4441 
L 1819 4666 
L 2450 4666 
L 2450 531 
L 3481 531 
L 3481 0 
L 794 0 
L 794 531 
z
" transform="scale(0.015625)"/>
       </defs>
       <use xlink:href="#DejaVuSans-31"/>
       <use xlink:href="#DejaVuSans-30" x="63.623047"/>
       <use xlink:href="#DejaVuSans-30" x="127.246094"/>
      </g>
     </g>
    </g>
    <g id="xtick_6">
     <g id="text_6">
      <!-- 120 -->
      <g transform="translate(739.252386 366.30265) scale(0.08 -0.08)">
       <use xlink:href="#DejaVuSans-31"/>
       <use xlink:href="#DejaVuSans-32" x="63.623047"/>
       <use xlink:href="#DejaVuSans-30" x="127.246094"/>
      </g>
     </g>
    </g>
    <g id="xtick_7">
     <g id="text_7">
      <!-- 140 -->
      <g transform="translate(874.556364 366.30265) scale(0.08 -0.08)">
       <use xlink:href="#DejaVuSans-31"/>
       <use xlink:href="#DejaVuSans-34" x="63.623047"/>
       <use xlink:href="#DejaVuSans-30" x="127.246094"/>
      </g>
     </g>
    </g>
    <g id="text_8">
     <!-- Sequence Length (bp) -->
     <g transform="translate(461.530781 379.564837) scale(0.1 -0.1)">
      <defs>
       <path id="DejaVuSans-53" d="M 3425 4513 
L 3425 3897 
Q 3066 4069 2747 4153 
Q 2428 4238 2131 4238 
Q 1616 4238 1336 4038 
Q 1056 3838 1056 3469 
Q 1056 3159 1242 3001 
Q 1428 2844 1947 2747 
L 2328 2669 
Q 3034 2534 3370 2195 
Q 3706 1856 3706 1288 
Q 3706 609 3251 259 
Q 2797 -91 1919 -91 
Q 1588 -91 1214 -16 
Q 841 59 441 206 
L 441 856 
Q 825 641 1194 531 
Q 1563 422 1919 422 
Q 2459 422 2753 634 
Q 3047 847 3047 1241 
Q 3047 1584 2836 1778 
Q 2625 1972 2144 2069 
L 1759 2144 
Q 1053 2284 737 2584 
Q 422 2884 422 3419 
Q 422 4038 858 4394 
Q 1294 4750 2059 4750 
Q 2388 4750 2728 4690 
Q 3069 4631 3425 4513 
z
" transform="scale(0.015625)"/>
       <path id="DejaVuSans-65" d="M 3597 1894 
L 3597 1613 
L 953 1613 
Q 991 1019 1311 708 
Q 1631 397 2203 397 
Q 2534 397 2845 478 
Q 3156 559 3463 722 
L 3463 178 
Q 3153 47 2828 -22 
Q 2503 -91 2169 -91 
Q 1331 -91 842 396 
Q 353 884 353 1716 
Q 353 2575 817 3079 
Q 1281 3584 2069 3584 
Q 2775 3584 3186 3129 
Q 3597 2675 3597 1894 
z
M 3022 2063 
Q 3016 2534 2758 2815 
Q 2500 3097 2075 3097 
Q 1594 3097 1305 2825 
Q 1016 2553 972 2059 
L 3022 2063 
z
" transform="scale(0.015625)"/>
       <path id="DejaVuSans-71" d="M 947 1747 
Q 947 1113 1208 752 
Q 1469 391 1925 391 
Q 2381 391 2643 752 
Q 2906 1113 2906 1747 
Q 2906 2381 2643 2742 
Q 2381 3103 1925 3103 
Q 1469 3103 1208 2742 
Q 947 2381 947 1747 
z
M 2906 525 
Q 2725 213 2448 61 
Q 2172 -91 1784 -91 
Q 1150 -91 751 415 
Q 353 922 353 1747 
Q 353 2572 751 3078 
Q 1150 3584 1784 3584 
Q 2172 3584 2448 3432 
Q 2725 3281 2906 2969 
L 2906 3500 
L 3481 3500 
L 3481 -1331 
L 2906 -1331 
L 2906 525 
z
" transform="scale(0.015625)"/>
       <path id="DejaVuSans-75" d="M 544 1381 
L 544 3500 
L 1119 3500 
L 1119 1403 
Q 1119 906 1312 657 
Q 1506 409 1894 409 
Q 2359 409 2629 706 
Q 2900 1003 2900 1516 
L 2900 3500 
L 3475 3500 
L 3475 0 
L 2900 0 
L 2900 538 
Q 2691 219 2414 64 
Q 2138 -91 1772 -91 
Q 1169 -91 856 284 
Q 544 659 544 1381 
z
M 1991 3584 
L 1991 3584 
z
" transform="scale(0.015625)"/>
       <path id="DejaVuSans-6e" d="M 3513 2113 
L 3513 0 
L 2938 0 
L 2938 2094 
Q 2938 2591 2744 2837 
Q 2550 3084 2163 3084 
Q 1697 3084 1428 2787 
Q 1159 2491 1159 1978 
L 1159 0 
L 581 0 
L 581 3500 
L 1159 3500 
L 1159 2956 
Q 1366 3272 1645 3428 
Q 1925 3584 2291 3584 
Q 2894 3584 3203 3211 
Q 3513 2838 3513 2113 
z
" transform="scale(0.015625)"/>
       <path id="DejaVuSans-63" d="M 3122 3366 
L 3122 2828 
Q 2878 2963 2633 3030 
Q 2388 3097 2138 3097 
Q 1578 3097 1268 2742 
Q 959 2388 959 1747 
Q 959 1106 1268 751 
Q 1578 397 2138 397 
Q 2388 397 2633 464 
Q 2878 531 3122 666 
L 3122 134 
Q 2881 22 2623 -34 
Q 2366 -91 2075 -91 
Q 1284 -91 818 406 
Q 353 903 353 1747 
Q 353 2603 823 3093 
Q 1294 3584 2113 3584 
Q 2378 3584 2631 3529 
Q 2884 3475 3122 3366 
z
" transform="scale(0.015625)"/>
       <path id="DejaVuSans-20" transform="scale(0.015625)"/>
       <path id="DejaVuSans-4c" d="M 628 4666 
L 1259 4666 
L 1259 531 
L 3531 531 
L 3531 0 
L 628 0 
L 628 4666 
z
" transform="scale(0.015625)"/>
       <path id="DejaVuSans-67" d="M 2906 1791 
Q 2906 2416 2648 2759 
Q 2391 3103 1925 3103 
Q 1463 3103 1205 2759 
Q 947 2416 947 1791 
Q 947 1169 1205 825 
Q 1463 481 1925 481 
Q 2391 481 2648 825 
Q 2906 1169 2906 1791 
z
M 3481 434 
Q 3481 -459 3084 -895 
Q 2688 -1331 1869 -1331 
Q 1566 -1331 1297 -1286 
Q 1028 -1241 775 -1147 
L 775 -588 
Q 1028 -725 1275 -790 
Q 1522 -856 1778 -856 
Q 2344 -856 2625 -561 
Q 2906 -266 2906 331 
L 2906 616 
Q 2728 306 2450 153 
Q 2172 0 1784 0 
Q 1141 0 747 490 
Q 353 981 353 1791 
Q 353 2603 747 3093 
Q 1141 3584 1784 3584 
Q 2172 3584 2450 3431 
Q 2728 3278 2906 2969 
L 2906 3500 
L 3481 3500 
L 3481 434 
z
" transform="scale(0.015625)"/>
       <path id="DejaVuSans-74" d="M 1172 4494 
L 1172 3500 
L 2356 3500 
L 2356 3053 
L 1172 3053 
L 1172 1153 
Q 1172 725 1289 603 
Q 1406 481 1766 481 
L 2356 481 
L 2356 0 
L 1766 0 
Q 1100 0 847 248 
Q 594 497 594 1153 
L 594 3053 
L 172 3053 
L 172 3500 
L 594 3500 
L 594 4494 
L 1172 4494 
z
" transform="scale(0.015625)"/>
       <path id="DejaVuSans-68" d="M 3513 2113 
L 3513 0 
L 2938 0 
L 2938 2094 
Q 2938 2591 2744 2837 
Q 2550 3084 2163 3084 
Q 1697 3084 1428 2787 
Q 1159 2491 1159 1978 
L 1159 0 
L 581 0 
L 581 4863 
L 1159 4863 
L 1159 2956 
Q 1366 3272 1645 3428 
Q 1925 3584 2291 3584 
Q 2894 3584 3203 3211 
Q 3513 2838 3513 2113 
z
" transform="scale(0.015625)"/>
       <path id="DejaVuSans-28" d="M 1984 4856 
Q 1566 4138 1362 3434 
Q 1159 2731 1159 2009 
Q 1159 1288 1364 580 
Q 1569 -128 1984 -844 
L 1484 -844 
Q 1016 -109 783 600 
Q 550 1309 550 2009 
Q 550 2706 781 3412 
Q 1013 4119 1484 4856 
L 1984 4856 
z
" transform="scale(0.015625)"/>
       <path id="DejaVuSans-62" d="M 3116 1747 
Q 3116 2381 2855 2742 
Q 2594 3103 2138 3103 
Q 1681 3103 1420 2742 
Q 1159 2381 1159 1747 
Q 1159 1113 1420 752 
Q 1681 391 2138 391 
Q 2594 391 2855 752 
Q 3116 1113 3116 1747 
z
M 1159 2969 
Q 1341 3281 1617 3432 
Q 1894 3584 2278 3584 
Q 2916 3584 3314 3078 
Q 3713 2572 3713 1747 
Q 3713 922 3314 415 
Q 2916 -91 2278 -91 
Q 1894 -91 1617 61 
Q 1341 213 1159 525 
L 1159 0 
L 581 0 
L 581 4863 
L 1159 4863 
L 1159 2969 
z
" transform="scale(0.015625)"/>
       <path id="DejaVuSans-70" d="M 1159 525 
L 1159 -1331 
L 581 -1331 
L 581 3500 
L 1159 3500 
L 1159 2969 
Q 1341 3281 1617 3432 
Q 1894 3584 2278 3584 
Q 2916 3584 3314 3078 
Q 3713 2572 3713 1747 
Q 3713 922 3314 415 
Q 2916 -91 2278 -91 
Q 1894 -91 1617 61 
Q 1341 213 1159 525 
z
M 3116 1747 
Q 3116 2381 2855 2742 
Q 2594 3103 2138 3103 
Q 1681 3103 1420 2742 
Q 1159 2381 1159 1747 
Q 1159 1113 1420 752 
Q 1681 391 2138 391 
Q 2594 391 2855 752 
Q 3116 1113 3116 1747 
z
" transform="scale(0.015625)"/>
       <path id="DejaVuSans-29" d="M 513 4856 
L 1013 4856 
Q 1481 4119 1714 3412 
Q 1947 2706 1947 2009 
Q 1947 1309 1714 600 
Q 1481 -109 1013 -844 
L 513 -844 
Q 928 -128 1133 580 
Q 1338 1288 1338 2009 
Q 1338 2731 1133 3434 
Q 928 4138 513 4856 
z
" transform="scale(0.015625)"/>
      </defs>
      <use xlink:href="#DejaVuSans-53"/>
      <use xlink:href="#DejaVuSans-65" x="63.476562"/>
      <use xlink:href="#DejaVuSans-71" x="125"/>
      <use xlink:href="#DejaVuSans-75" x="188.476562"/>
      <use xlink:href="#DejaVuSans-65" x="251.855469"/>
      <use xlink:href="#DejaVuSans-6e" x="313.378906"/>
      <use xlink:href="#DejaVuSans-63" x="376.757812"/>
      <use xlink:href="#DejaVuSans-65" x="431.738281"/>
      <use xlink:href="#DejaVuSans-20" x="493.261719"/>
      <use xlink:href="#DejaVuSans-4c" x="525.048828"/>
      <use xlink:href="#DejaVuSans-65" x="579.011719"/>
      <use xlink:href="#DejaVuSans-6e" x="640.535156"/>
      <use xlink:href="#DejaVuSans-67" x="703.914062"/>
      <use xlink:href="#DejaVuSans-74" x="767.390625"/>
      <use xlink:href="#DejaVuSans-68" x="806.599609"/>
      <use xlink:href="#DejaVuSans-20" x="869.978516"/>
      <use xlink:href="#DejaVuSans-28" x="901.765625"/>
      <use xlink:href="#DejaVuSans-62" x="940.779297"/>
      <use xlink:href="#DejaVuSans-70" x="1004.255859"/>
      <use xlink:href="#DejaVuSans-29" x="1067.732422"/>
     </g>
    </g>
   </g>
   <g id="matplotlib.axis_2">
    <g id="ytick_1">
     <g id="line2d_1">
      <path d="M 40.600625 353.2239 
L 993.140625 353.2239 
" clip-path="url(#p963bd7d331)" style="fill: none; stroke: #dedede; stroke-linecap: square"/>
     </g>
     <g id="text_9">
      <!-- 0.0 -->
      <g transform="translate(20.878125 356.263275) scale(0.08 -0.08)">
       <defs>
        <path id="DejaVuSans-2e" d="M 684 794 
L 1344 794 
L 1344 0 
L 684 0 
L 684 794 
z
" transform="scale(0.015625)"/>
       </defs>
       <use xlink:href="#DejaVuSans-30"/>
       <use xlink:href="#DejaVuSans-2e" x="63.623047"/>
       <use xlink:href="#DejaVuSans-30" x="95.410156"/>
      </g>
     </g>
    </g>
    <g id="ytick_2">
     <g id="line2d_2">
      <path d="M 40.600625 303.530376 
L 993.140625 303.530376 
" clip-path="url(#p963bd7d331)" style="fill: none; stroke: #dedede; stroke-linecap: square"/>
     </g>
     <g id="text_10">
      <!-- 0.2 -->
      <g transform="translate(20.878125 306.569751) scale(0.08 -0.08)">
       <use xlink:href="#DejaVuSans-30"/>
       <use xlink:href="#DejaVuSans-2e" x="63.623047"/>
       <use xlink:href="#DejaVuSans-32" x="95.410156"/>
      </g>
     </g>
    </g>
    <g id="ytick_3">
     <g id="line2d_3">
      <path d="M 40.600625 253.836851 
L 993.140625 253.836851 
" clip-path="url(#p963bd7d331)" style="fill: none; stroke: #dedede; stroke-linecap: square"/>
     </g>
     <g id="text_11">
      <!-- 0.4 -->
      <g transform="translate(20.878125 256.876226) scale(0.08 -0.08)">
       <use xlink:href="#DejaVuSans-30"/>
       <use xlink:href="#DejaVuSans-2e" x="63.623047"/>
       <use xlink:href="#DejaVuSans-34" x="95.410156"/>
      </g>
     </g>
    </g>
    <g id="ytick_4">
     <g id="line2d_4">
      <path d="M 40.600625 204.143327 
L 993.140625 204.143327 
" clip-path="url(#p963bd7d331)" style="fill: none; stroke: #dedede; stroke-linecap: square"/>
     </g>
     <g id="text_12">
      <!-- 0.6 -->
      <g transform="translate(20.878125 207.182702) scale(0.08 -0.08)">
       <use xlink:href="#DejaVuSans-30"/>
       <use xlink:href="#DejaVuSans-2e" x="63.623047"/>
       <use xlink:href="#DejaVuSans-36" x="95.410156"/>
      </g>
     </g>
    </g>
    <g id="ytick_5">
     <g id="line2d_5">
      <path d="M 40.600625 154.449802 
L 993.140625 154.449802 
" clip-path="url(#p963bd7d331)" style="fill: none; stroke: #dedede; stroke-linecap: square"/>
     </g>
     <g id="text_13">
      <!-- 0.8 -->
      <g transform="translate(20.878125 157.489177) scale(0.08 -0.08)">
       <use xlink:href="#DejaVuSans-30"/>
       <use xlink:href="#DejaVuSans-2e" x="63.623047"/>
       <use xlink:href="#DejaVuSans-38" x="95.410156"/>
      </g>
     </g>
    </g>
    <g id="ytick_6">
     <g id="line2d_6">
      <path d="M 40.600625 104.756278 
L 993.140625 104.756278 
" clip-path="url(#p963bd7d331)" style="fill: none; stroke: #dedede; stroke-linecap: square"/>
     </g>
     <g id="text_14">
      <!-- 1.0 -->
      <g transform="translate(20.878125 107.795653) scale(0.08 -0.08)">
       <use xlink:href="#DejaVuSans-31"/>
       <use xlink:href="#DejaVuSans-2e" x="63.623047"/>
       <use xlink:href="#DejaVuSans-30" x="95.410156"/>
      </g>
     </g>
    </g>
    <g id="ytick_7">
     <g id="line2d_7">
      <path d="M 40.600625 55.062754 
L 993.140625 55.062754 
" clip-path="url(#p963bd7d331)" style="fill: none; stroke: #dedede; stroke-linecap: square"/>
     </g>
     <g id="text_15">
      <!-- 1.2 -->
      <g transform="translate(20.878125 58.102129) scale(0.08 -0.08)">
       <use xlink:href="#DejaVuSans-31"/>
       <use xlink:href="#DejaVuSans-2e" x="63.623047"/>
       <use xlink:href="#DejaVuSans-32" x="95.410156"/>
      </g>
     </g>
    </g>
    <g id="text_16">
     <!-- Read Count -->
     <g transform="translate(14.798438 223.241463) rotate(-90) scale(0.1 -0.1)">
      <defs>
       <path id="DejaVuSans-52" d="M 2841 2188 
Q 3044 2119 3236 1894 
Q 3428 1669 3622 1275 
L 4263 0 
L 3584 0 
L 2988 1197 
Q 2756 1666 2539 1819 
Q 2322 1972 1947 1972 
L 1259 1972 
L 1259 0 
L 628 0 
L 628 4666 
L 2053 4666 
Q 2853 4666 3247 4331 
Q 3641 3997 3641 3322 
Q 3641 2881 3436 2590 
Q 3231 2300 2841 2188 
z
M 1259 4147 
L 1259 2491 
L 2053 2491 
Q 2509 2491 2742 2702 
Q 2975 2913 2975 3322 
Q 2975 3731 2742 3939 
Q 2509 4147 2053 4147 
L 1259 4147 
z
" transform="scale(0.015625)"/>
       <path id="DejaVuSans-61" d="M 2194 1759 
Q 1497 1759 1228 1600 
Q 959 1441 959 1056 
Q 959 750 1161 570 
Q 1363 391 1709 391 
Q 2188 391 2477 730 
Q 2766 1069 2766 1631 
L 2766 1759 
L 2194 1759 
z
M 3341 1997 
L 3341 0 
L 2766 0 
L 2766 531 
Q 2569 213 2275 61 
Q 1981 -91 1556 -91 
Q 1019 -91 701 211 
Q 384 513 384 1019 
Q 384 1609 779 1909 
Q 1175 2209 1959 2209 
L 2766 2209 
L 2766 2266 
Q 2766 2663 2505 2880 
Q 2244 3097 1772 3097 
Q 1472 3097 1187 3025 
Q 903 2953 641 2809 
L 641 3341 
Q 956 3463 1253 3523 
Q 1550 3584 1831 3584 
Q 2591 3584 2966 3190 
Q 3341 2797 3341 1997 
z
" transform="scale(0.015625)"/>
       <path id="DejaVuSans-64" d="M 2906 2969 
L 2906 4863 
L 3481 4863 
L 3481 0 
L 2906 0 
L 2906 525 
Q 2725 213 2448 61 
Q 2172 -91 1784 -91 
Q 1150 -91 751 415 
Q 353 922 353 1747 
Q 353 2572 751 3078 
Q 1150 3584 1784 3584 
Q 2172 3584 2448 3432 
Q 2725 3281 2906 2969 
z
M 947 1747 
Q 947 1113 1208 752 
Q 1469 391 1925 391 
Q 2381 391 2643 752 
Q 2906 1113 2906 1747 
Q 2906 2381 2643 2742 
Q 2381 3103 1925 3103 
Q 1469 3103 1208 2742 
Q 947 2381 947 1747 
z
" transform="scale(0.015625)"/>
       <path id="DejaVuSans-43" d="M 4122 4306 
L 4122 3641 
Q 3803 3938 3442 4084 
Q 3081 4231 2675 4231 
Q 1875 4231 1450 3742 
Q 1025 3253 1025 2328 
Q 1025 1406 1450 917 
Q 1875 428 2675 428 
Q 3081 428 3442 575 
Q 3803 722 4122 1019 
L 4122 359 
Q 3791 134 3420 21 
Q 3050 -91 2638 -91 
Q 1578 -91 968 557 
Q 359 1206 359 2328 
Q 359 3453 968 4101 
Q 1578 4750 2638 4750 
Q 3056 4750 3426 4639 
Q 3797 4528 4122 4306 
z
" transform="scale(0.015625)"/>
       <path id="DejaVuSans-6f" d="M 1959 3097 
Q 1497 3097 1228 2736 
Q 959 2375 959 1747 
Q 959 1119 1226 758 
Q 1494 397 1959 397 
Q 2419 397 2687 759 
Q 2956 1122 2956 1747 
Q 2956 2369 2687 2733 
Q 2419 3097 1959 3097 
z
M 1959 3584 
Q 2709 3584 3137 3096 
Q 3566 2609 3566 1747 
Q 3566 888 3137 398 
Q 2709 -91 1959 -91 
Q 1206 -91 779 398 
Q 353 888 353 1747 
Q 353 2609 779 3096 
Q 1206 3584 1959 3584 
z
" transform="scale(0.015625)"/>
      </defs>
      <use xlink:href="#DejaVuSans-52"/>
      <use xlink:href="#DejaVuSans-65" x="64.982422"/>
      <use xlink:href="#DejaVuSans-61" x="126.505859"/>
      <use xlink:href="#DejaVuSans-64" x="187.785156"/>
      <use xlink:href="#DejaVuSans-20" x="251.261719"/>
      <use xlink:href="#DejaVuSans-43" x="283.048828"/>
      <use xlink:href="#DejaVuSans-6f" x="352.873047"/>
      <use xlink:href="#DejaVuSans-75" x="414.054688"/>
      <use xlink:href="#DejaVuSans-6e" x="477.433594"/>
      <use xlink:href="#DejaVuSans-74" x="540.8125"/>
     </g>
    </g>
    <g id="text_17">
     <!-- 1e7 -->
     <g transform="translate(40.600625 32.2559) scale(0.1 -0.1)">
      <defs>
       <path id="DejaVuSans-37" d="M 525 4666 
L 3525 4666 
L 3525 4397 
L 1831 0 
L 1172 0 
L 2766 4134 
L 525 4134 
L 525 4666 
z
" transform="scale(0.015625)"/>
      </defs>
      <use xlink:href="#DejaVuSans-31"/>
      <use xlink:href="#DejaVuSans-65" x="63.623047"/>
      <use xlink:href="#DejaVuSans-37" x="125.146484"/>
     </g>
    </g>
   </g>
   <g id="line2d_8">
    <path d="M 83.897898 353.213862 
L 117.723892 353.198382 
L 151.549886 353.19478 
L 185.375881 353.187624 
L 219.201875 353.15746 
L 253.027869 353.10717 
L 286.853864 353.065502 
L 320.679858 352.973718 
L 354.505852 352.772658 
L 388.331847 351.299742 
L 422.157841 351.174514 
L 455.983835 350.84117 
L 489.80983 349.311926 
L 523.635824 347.23501 
L 557.461818 343.931236 
L 591.287812 340.341177 
L 625.113807 336.817484 
L 658.939801 333.505037 
L 692.765795 330.969227 
L 726.59179 327.184195 
L 760.417784 327.80683 
L 794.243778 327.178058 
L 828.069773 328.136398 
L 861.895767 328.432571 
L 895.721761 330.065227 
L 929.547756 222.323802 
L 949.843352 163.165823 
" clip-path="url(#p963bd7d331)" style="fill: none; stroke: #f0ad4e; stroke-linecap: square"/>
   </g>
   <g id="line2d_9">
    <path d="M 83.897898 352.803344 
L 117.723892 352.840962 
L 151.549886 352.843322 
L 185.375881 352.813133 
L 219.201875 352.788957 
L 253.027869 352.749203 
L 286.853864 352.703832 
L 320.679858 352.597389 
L 354.505852 352.383185 
L 388.331847 352.037517 
L 422.157841 349.809011 
L 455.983835 350.350074 
L 489.80983 348.799686 
L 523.635824 346.60758 
L 557.461818 343.156588 
L 591.287812 339.445873 
L 625.113807 335.812382 
L 658.939801 332.441621 
L 692.765795 329.930483 
L 726.59179 326.185579 
L 760.417784 326.810649 
L 794.243778 326.21532 
L 828.069773 327.045128 
L 861.895767 326.60785 
L 895.721761 326.631355 
L 929.547756 212.018235 
L 949.843352 193.162325 
" clip-path="url(#p963bd7d331)" style="fill: none; stroke: #f0ad4e; stroke-linecap: square"/>
   </g>
   <g id="line2d_10">
    <path d="M 83.897898 353.166305 
L 117.723892 353.117481 
L 151.549886 353.054718 
L 185.375881 352.909961 
L 219.201875 352.639927 
L 253.027869 352.109572 
L 286.853864 351.107527 
L 320.679858 349.874134 
L 354.505852 347.8488 
L 388.331847 334.454556 
L 422.157841 338.058107 
L 455.983835 342.600543 
L 489.80983 341.435602 
L 523.635824 340.248225 
L 557.461818 338.56836 
L 591.287812 338.325359 
L 625.113807 337.582192 
L 658.939801 336.903528 
L 692.765795 336.446621 
L 726.59179 336.46543 
L 760.417784 336.298559 
L 794.243778 335.824955 
L 828.069773 336.276793 
L 861.895767 335.514345 
L 895.721761 336.925542 
L 929.547756 230.191306 
L 949.843352 134.758669 
" clip-path="url(#p963bd7d331)" style="fill: none; stroke: #f0ad4e; stroke-linecap: square"/>
   </g>
   <g id="line2d_11">
    <path d="M 83.897898 352.481603 
L 117.723892 352.449476 
L 151.549886 352.380054 
L 185.375881 352.171441 
L 219.201875 351.886225 
L 253.027869 351.361685 
L 286.853864 350.377256 
L 320.679858 349.110817 
L 354.505852 347.111174 
L 388.331847 345.314828 
L 422.157841 326.690912 
L 455.983835 339.930311 
L 489.80983 340.405952 
L 523.635824 338.982755 
L 557.461818 337.002666 
L 591.287812 336.39884 
L 625.113807 335.403529 
L 658.939801 334.532625 
L 692.765795 333.980853 
L 726.59179 334.088738 
L 760.417784 333.99273 
L 794.243778 333.42841 
L 828.069773 333.607232 
L 861.895767 331.920833 
L 895.721761 330.500666 
L 929.547756 224.176749 
L 949.843352 183.018759 
" clip-path="url(#p963bd7d331)" style="fill: none; stroke: #f0ad4e; stroke-linecap: square"/>
   </g>
   <g id="line2d_12">
    <path d="M 83.897898 353.117158 
L 117.723892 352.979706 
L 151.549886 352.763614 
L 185.375881 352.480882 
L 219.201875 351.702483 
L 253.027869 350.469487 
L 286.853864 347.668735 
L 320.679858 344.509072 
L 354.505852 339.194747 
L 388.331847 332.002926 
L 422.157841 329.159438 
L 455.983835 327.018393 
L 489.80983 324.802633 
L 523.635824 324.952335 
L 557.461818 321.966549 
L 591.287812 322.634281 
L 625.113807 323.016573 
L 658.939801 325.298922 
L 692.765795 326.892072 
L 726.59179 328.399227 
L 760.417784 329.83778 
L 794.243778 330.332727 
L 828.069773 331.789816 
L 861.895767 332.922033 
L 895.721761 335.037138 
L 929.547756 256.879735 
L 949.843352 221.311321 
" clip-path="url(#p963bd7d331)" style="fill: none; stroke: #f0ad4e; stroke-linecap: square"/>
   </g>
   <g id="line2d_13">
    <path d="M 83.897898 352.780087 
L 117.723892 352.67091 
L 151.549886 352.42945 
L 185.375881 352.12053 
L 219.201875 351.334279 
L 253.027869 350.105134 
L 286.853864 347.305501 
L 320.679858 344.159503 
L 354.505852 338.899543 
L 388.331847 334.005749 
L 422.157841 327.071366 
L 455.983835 326.728232 
L 489.80983 324.658696 
L 523.635824 324.680859 
L 557.461818 321.649703 
L 591.287812 322.17956 
L 625.113807 322.442663 
L 658.939801 324.74474 
L 692.765795 326.36788 
L 726.59179 327.887011 
L 760.417784 329.314606 
L 794.243778 329.875795 
L 828.069773 331.314845 
L 861.895767 331.749788 
L 895.721761 332.24312 
L 929.547756 250.102333 
L 949.843352 240.317902 
" clip-path="url(#p963bd7d331)" style="fill: none; stroke: #f0ad4e; stroke-linecap: square"/>
   </g>
   <g id="line2d_14">
    <path d="M 83.897898 353.207278 
L 117.723892 353.194208 
L 151.549886 353.154776 
L 185.375881 353.076733 
L 219.201875 352.868914 
L 253.027869 352.423635 
L 286.853864 351.357933 
L 320.679858 349.889912 
L 354.505852 347.179428 
L 388.331847 344.997535 
L 422.157841 343.280499 
L 455.983835 341.43354 
L 489.80983 341.104718 
L 523.635824 339.987732 
L 557.461818 339.082713 
L 591.287812 338.364468 
L 625.113807 338.999874 
L 658.939801 338.501597 
L 692.765795 338.341981 
L 726.59179 337.173289 
L 760.417784 337.650372 
L 794.243778 337.595485 
L 828.069773 337.035663 
L 861.895767 336.950289 
L 895.721761 335.995602 
L 929.547756 214.366229 
L 949.843352 77.431598 
" clip-path="url(#p963bd7d331)" style="fill: none; stroke: #f0ad4e; stroke-linecap: square"/>
   </g>
   <g id="line2d_15">
    <path d="M 83.897898 352.840862 
L 117.723892 352.82347 
L 151.549886 352.752159 
L 185.375881 352.647604 
L 219.201875 352.41243 
L 253.027869 351.938502 
L 286.853864 350.87285 
L 320.679858 349.394865 
L 354.505852 346.664703 
L 388.331847 344.948114 
L 422.157841 342.321414 
L 455.983835 340.839951 
L 489.80983 340.356507 
L 523.635824 339.058711 
L 557.461818 337.759946 
L 591.287812 336.71596 
L 625.113807 336.977348 
L 658.939801 336.320747 
L 692.765795 336.046016 
L 726.59179 334.873771 
L 760.417784 335.149645 
L 794.243778 334.703695 
L 828.069773 333.719912 
L 861.895767 332.555171 
L 895.721761 328.199856 
L 929.547756 199.369667 
L 949.843352 132.382126 
" clip-path="url(#p963bd7d331)" style="fill: none; stroke: #f0ad4e; stroke-linecap: square"/>
   </g>
   <g id="line2d_16">
    <path d="M 83.897898 353.198854 
L 117.723892 353.161609 
L 151.549886 353.125457 
L 185.375881 353.040208 
L 219.201875 352.815866 
L 253.027869 352.376625 
L 286.853864 351.511039 
L 320.679858 350.477712 
L 354.505852 348.392373 
L 388.331847 336.083212 
L 422.157841 339.201679 
L 455.983835 342.584839 
L 489.80983 341.113389 
L 523.635824 340.019734 
L 557.461818 337.654024 
L 591.287812 336.380031 
L 625.113807 335.519514 
L 658.939801 334.712988 
L 692.765795 334.08506 
L 726.59179 333.055013 
L 760.417784 332.919697 
L 794.243778 332.681665 
L 828.069773 333.107092 
L 861.895767 332.759113 
L 895.721761 333.535972 
L 929.547756 240.239659 
L 949.843352 184.977081 
" clip-path="url(#p963bd7d331)" style="fill: none; stroke: #f0ad4e; stroke-linecap: square"/>
   </g>
   <g id="line2d_17">
    <path d="M 83.897898 352.859845 
L 117.723892 352.820612 
L 151.549886 352.752035 
L 185.375881 352.644747 
L 219.201875 352.40746 
L 253.027869 351.971573 
L 286.853864 351.085116 
L 320.679858 350.011487 
L 354.505852 347.951541 
L 388.331847 346.251998 
L 422.157841 329.403632 
L 455.983835 340.526534 
L 489.80983 340.560673 
L 523.635824 339.296743 
L 557.461818 336.765579 
L 591.287812 335.304042 
L 625.113807 334.275933 
L 658.939801 333.416956 
L 692.765795 332.777375 
L 726.59179 331.719102 
L 760.417784 331.614075 
L 794.243778 331.312659 
L 828.069773 331.663818 
L 861.895767 330.547552 
L 895.721761 329.559968 
L 929.547756 231.388969 
L 949.843352 217.839483 
" clip-path="url(#p963bd7d331)" style="fill: none; stroke: #f0ad4e; stroke-linecap: square"/>
   </g>
   <g id="line2d_18">
    <path d="M 83.897898 353.210259 
L 117.723892 353.201712 
L 151.549886 353.197562 
L 185.375881 353.184071 
L 219.201875 353.148714 
L 253.027869 353.076062 
L 286.853864 352.945094 
L 320.679858 352.748755 
L 354.505852 352.341244 
L 388.331847 351.637757 
L 422.157841 351.113018 
L 455.983835 350.689431 
L 489.80983 349.881737 
L 523.635824 349.154895 
L 557.461818 347.94933 
L 591.287812 346.911381 
L 625.113807 345.880887 
L 658.939801 344.843733 
L 692.765795 343.767645 
L 726.59179 342.465078 
L 760.417784 341.482389 
L 794.243778 340.365452 
L 828.069773 339.534079 
L 861.895767 338.275019 
L 895.721761 337.166705 
L 929.547756 177.471396 
L 949.843352 85.532065 
" clip-path="url(#p963bd7d331)" style="fill: none; stroke: #f0ad4e; stroke-linecap: square"/>
   </g>
   <g id="line2d_19">
    <path d="M 83.897898 352.63282 
L 117.723892 352.612694 
L 151.549886 352.566256 
L 185.375881 352.498449 
L 219.201875 352.438022 
L 253.027869 352.359059 
L 286.853864 352.201828 
L 320.679858 351.998234 
L 354.505852 351.55872 
L 388.331847 351.126336 
L 422.157841 350.16181 
L 455.983835 349.965496 
L 489.80983 348.912813 
L 523.635824 347.903662 
L 557.461818 346.397153 
L 591.287812 345.070708 
L 625.113807 343.773335 
L 658.939801 342.585958 
L 692.765795 341.421887 
L 726.59179 339.983185 
L 760.417784 338.961163 
L 794.243778 337.619512 
L 828.069773 336.429675 
L 861.895767 333.800441 
L 895.721761 329.235246 
L 929.547756 168.877199 
L 949.843352 138.083812 
" clip-path="url(#p963bd7d331)" style="fill: none; stroke: #f0ad4e; stroke-linecap: square"/>
   </g>
   <g id="line2d_20">
    <path d="M 83.897898 353.206308 
L 117.723892 353.192121 
L 151.549886 353.184269 
L 185.375881 353.167374 
L 219.201875 353.104884 
L 253.027869 352.969444 
L 286.853864 352.697024 
L 320.679858 352.33041 
L 354.505852 351.533997 
L 388.331847 348.179162 
L 422.157841 348.382906 
L 455.983835 349.050911 
L 489.80983 348.383825 
L 523.635824 347.65579 
L 557.461818 346.612003 
L 591.287812 345.705667 
L 625.113807 345.218621 
L 658.939801 344.484648 
L 692.765795 344.081907 
L 726.59179 342.750642 
L 760.417784 342.753847 
L 794.243778 341.907045 
L 828.069773 341.560109 
L 861.895767 340.599608 
L 895.721761 339.518898 
L 929.547756 215.182669 
L 949.843352 134.213307 
" clip-path="url(#p963bd7d331)" style="fill: none; stroke: #f0ad4e; stroke-linecap: square"/>
   </g>
   <g id="line2d_21">
    <path d="M 83.897898 352.867424 
L 117.723892 352.861038 
L 151.549886 352.841881 
L 185.375881 352.796884 
L 219.201875 352.722766 
L 253.027869 352.59155 
L 286.853864 352.30452 
L 320.679858 351.916712 
L 354.505852 351.118559 
L 388.331847 350.292678 
L 422.157841 345.715854 
L 455.983835 348.254051 
L 489.80983 347.798088 
L 523.635824 346.916549 
L 557.461818 345.706338 
L 591.287812 344.620733 
L 625.113807 343.980258 
L 658.939801 343.123964 
L 692.765795 342.666362 
L 726.59179 341.238915 
L 760.417784 341.182886 
L 794.243778 340.188543 
L 828.069773 339.548093 
L 861.895767 337.603809 
L 895.721761 334.332683 
L 929.547756 204.726903 
L 949.843352 171.709357 
" clip-path="url(#p963bd7d331)" style="fill: none; stroke: #f0ad4e; stroke-linecap: square"/>
   </g>
   <g id="line2d_22">
    <path d="M 83.897898 353.187549 
L 117.723892 353.142427 
L 151.549886 353.096809 
L 185.375881 352.988055 
L 219.201875 352.680949 
L 253.027869 352.071358 
L 286.853864 350.567334 
L 320.679858 348.748402 
L 354.505852 345.534274 
L 388.331847 342.462146 
L 422.157841 340.414276 
L 455.983835 338.830543 
L 489.80983 337.393084 
L 523.635824 336.114916 
L 557.461818 334.507555 
L 591.287812 333.7867 
L 625.113807 333.792763 
L 658.939801 333.566831 
L 692.765795 334.00314 
L 726.59179 333.605468 
L 760.417784 334.490038 
L 794.243778 334.525047 
L 828.069773 335.033238 
L 861.895767 335.194021 
L 895.721761 335.605409 
L 929.547756 240.078454 
L 949.843352 195.776552 
" clip-path="url(#p963bd7d331)" style="fill: none; stroke: #f0ad4e; stroke-linecap: square"/>
   </g>
   <g id="line2d_23">
    <path d="M 83.897898 352.84772 
L 117.723892 352.798871 
L 151.549886 352.711709 
L 185.375881 352.561311 
L 219.201875 352.231446 
L 253.027869 351.619222 
L 286.853864 350.10747 
L 320.679858 348.266648 
L 354.505852 345.061565 
L 388.331847 342.632197 
L 422.157841 339.392801 
L 455.983835 338.373636 
L 489.80983 336.841684 
L 523.635824 335.405765 
L 557.461818 333.661622 
L 591.287812 332.769374 
L 625.113807 332.633214 
L 658.939801 332.364993 
L 692.765795 332.767312 
L 726.59179 332.378436 
L 760.417784 333.277839 
L 794.243778 333.284721 
L 828.069773 333.66438 
L 861.895767 333.049696 
L 895.721761 331.331194 
L 929.547756 234.50448 
L 949.843352 224.658031 
" clip-path="url(#p963bd7d331)" style="fill: none; stroke: #f0ad4e; stroke-linecap: square"/>
   </g>
   <g id="line2d_24">
    <path d="M 83.897898 353.152043 
L 117.723892 353.023908 
L 151.549886 352.915403 
L 185.375881 352.743488 
L 219.201875 352.217308 
L 253.027869 351.424647 
L 286.853864 349.682541 
L 320.679858 347.469539 
L 354.505852 342.891349 
L 388.331847 308.31375 
L 422.157841 318.776622 
L 455.983835 328.568806 
L 489.80983 325.870423 
L 523.635824 325.621756 
L 557.461818 320.022414 
L 591.287812 321.066823 
L 625.113807 321.88525 
L 658.939801 324.42049 
L 692.765795 327.242411 
L 726.59179 330.361723 
L 760.417784 331.814762 
L 794.243778 332.760753 
L 828.069773 335.001881 
L 861.895767 337.220125 
L 895.721761 339.075905 
L 929.547756 266.429265 
L 949.843352 225.440331 
" clip-path="url(#p963bd7d331)" style="fill: none; stroke: #f0ad4e; stroke-linecap: square"/>
   </g>
   <g id="line2d_25">
    <path d="M 83.897898 352.720455 
L 117.723892 352.615775 
L 151.549886 352.488386 
L 185.375881 352.323602 
L 219.201875 351.771781 
L 253.027869 351.00824 
L 286.853864 349.26355 
L 320.679858 346.956379 
L 354.505852 342.471315 
L 388.331847 337.246314 
L 422.157841 292.054551 
L 455.983835 323.406692 
L 489.80983 325.46296 
L 523.635824 325.162687 
L 557.461818 319.625611 
L 591.287812 320.522306 
L 625.113807 321.251509 
L 658.939801 323.818229 
L 692.765795 326.67347 
L 726.59179 329.726516 
L 760.417784 331.259288 
L 794.243778 332.389567 
L 828.069773 334.517816 
L 861.895767 335.853404 
L 895.721761 336.035183 
L 929.547756 260.996172 
L 949.843352 247.791957 
" clip-path="url(#p963bd7d331)" style="fill: none; stroke: #f0ad4e; stroke-linecap: square"/>
   </g>
   <g id="line2d_26">
    <path d="M 83.897898 353.209216 
L 117.723892 353.194705 
L 151.549886 353.183723 
L 185.375881 353.163796 
L 219.201875 353.096039 
L 253.027869 352.940871 
L 286.853864 352.65958 
L 320.679858 352.204512 
L 354.505852 351.18003 
L 388.331847 349.555797 
L 422.157841 348.337039 
L 455.983835 347.201343 
L 489.80983 345.917088 
L 523.635824 344.719723 
L 557.461818 343.427915 
L 591.287812 342.156928 
L 625.113807 341.739602 
L 658.939801 340.809041 
L 692.765795 340.313845 
L 726.59179 339.089521 
L 760.417784 339.056823 
L 794.243778 338.310327 
L 828.069773 338.092098 
L 861.895767 337.386797 
L 895.721761 336.458348 
L 929.547756 187.897222 
L 949.843352 86.981724 
" clip-path="url(#p963bd7d331)" style="fill: none; stroke: #f0ad4e; stroke-linecap: square"/>
   </g>
   <g id="line2d_27">
    <path d="M 83.897898 352.697596 
L 117.723892 352.665121 
L 151.549886 352.602184 
L 185.375881 352.52742 
L 219.201875 352.418269 
L 253.027869 352.260541 
L 286.853864 351.958082 
L 320.679858 351.488329 
L 354.505852 350.437261 
L 388.331847 349.224068 
L 422.157841 347.244527 
L 455.983835 346.459667 
L 489.80983 344.953705 
L 523.635824 343.478776 
L 557.461818 341.836231 
L 591.287812 340.220173 
L 625.113807 339.529334 
L 658.939801 338.440797 
L 692.765795 337.867557 
L 726.59179 336.512142 
L 760.417784 336.416556 
L 794.243778 335.484157 
L 828.069773 334.835085 
L 861.895767 332.736154 
L 895.721761 328.325432 
L 929.547756 173.158669 
L 949.843352 146.50582 
" clip-path="url(#p963bd7d331)" style="fill: none; stroke: #f0ad4e; stroke-linecap: square"/>
   </g>
   <g id="line2d_28">
    <path d="M 83.897898 353.203426 
L 117.723892 353.18581 
L 151.549886 353.175151 
L 185.375881 353.153037 
L 219.201875 353.082746 
L 253.027869 352.934858 
L 286.853864 352.66363 
L 320.679858 352.269312 
L 354.505852 351.33321 
L 388.331847 346.893516 
L 422.157841 347.054996 
L 455.983835 347.79451 
L 489.80983 346.776414 
L 523.635824 345.729073 
L 557.461818 344.649108 
L 591.287812 343.345945 
L 625.113807 342.722515 
L 658.939801 341.674553 
L 692.765795 341.014002 
L 726.59179 339.337194 
L 760.417784 338.943223 
L 794.243778 337.754679 
L 828.069773 336.909988 
L 861.895767 335.586202 
L 895.721761 334.249968 
L 929.547756 169.161421 
L 949.843352 50.396755 
" clip-path="url(#p963bd7d331)" style="fill: none; stroke: #f0ad4e; stroke-linecap: square"/>
   </g>
   <g id="line2d_29">
    <path d="M 83.897898 352.830625 
L 117.723892 352.812462 
L 151.549886 352.772608 
L 185.375881 352.722964 
L 219.201875 352.618931 
L 253.027869 352.480907 
L 286.853864 352.190995 
L 320.679858 351.760152 
L 354.505852 350.804471 
L 388.331847 349.821558 
L 422.157841 343.478304 
L 455.983835 346.774476 
L 489.80983 346.042813 
L 523.635824 344.785815 
L 557.461818 343.458203 
L 591.287812 341.927643 
L 625.113807 341.069212 
L 658.939801 339.866728 
L 692.765795 339.127288 
L 726.59179 337.305052 
L 760.417784 336.825782 
L 794.243778 335.438488 
L 828.069773 334.194187 
L 861.895767 331.53044 
L 895.721761 327.214781 
L 929.547756 151.465905 
L 949.843352 103.67445 
" clip-path="url(#p963bd7d331)" style="fill: none; stroke: #f0ad4e; stroke-linecap: square"/>
   </g>
   <g id="line2d_30">
    <path d="M 83.897898 353.186307 
L 117.723892 353.153186 
L 151.549886 353.119096 
L 185.375881 353.03089 
L 219.201875 352.83224 
L 253.027869 352.384079 
L 286.853864 351.48982 
L 320.679858 350.394351 
L 354.505852 348.274823 
L 388.331847 344.791431 
L 422.157841 343.402422 
L 455.983835 343.22596 
L 489.80983 341.855388 
L 523.635824 340.740266 
L 557.461818 339.284394 
L 591.287812 338.242023 
L 625.113807 337.615114 
L 658.939801 336.988777 
L 692.765795 336.313392 
L 726.59179 335.592513 
L 760.417784 335.634156 
L 794.243778 335.246994 
L 828.069773 335.322379 
L 861.895767 335.015571 
L 895.721761 334.664859 
L 929.547756 214.721041 
L 949.843352 125.451246 
" clip-path="url(#p963bd7d331)" style="fill: none; stroke: #f0ad4e; stroke-linecap: square"/>
   </g>
   <g id="line2d_31">
    <path d="M 83.897898 352.613962 
L 117.723892 352.572219 
L 151.549886 352.486299 
L 185.375881 352.348722 
L 219.201875 352.128928 
L 253.027869 351.69083 
L 286.853864 350.7795 
L 320.679858 349.661868 
L 354.505852 347.555285 
L 388.331847 345.857108 
L 422.157841 341.121837 
L 455.983835 342.255197 
L 489.80983 340.889619 
L 523.635824 339.466745 
L 557.461818 337.670274 
L 591.287812 336.267724 
L 625.113807 335.36601 
L 658.939801 334.549223 
L 692.765795 333.827996 
L 726.59179 333.045149 
L 760.417784 333.114769 
L 794.243778 332.612666 
L 828.069773 332.438639 
L 861.895767 330.942566 
L 895.721761 327.680509 
L 929.547756 203.573715 
L 949.843352 179.45536 
" clip-path="url(#p963bd7d331)" style="fill: none; stroke: #f0ad4e; stroke-linecap: square"/>
   </g>
   <g id="line2d_32">
    <path d="M 83.897898 352.876542 
L 117.723892 352.382365 
L 151.549886 351.793472 
L 185.375881 351.396768 
L 219.201875 349.932449 
L 253.027869 348.378732 
L 286.853864 343.534483 
L 320.679858 338.687376 
L 354.505852 329.389519 
L 388.331847 312.558273 
L 422.157841 312.293506 
L 455.983835 309.317634 
L 489.80983 306.450168 
L 523.635824 311.58336 
L 557.461818 306.942109 
L 591.287812 311.914965 
L 625.113807 313.616869 
L 658.939801 322.47546 
L 692.765795 327.993876 
L 726.59179 332.73034 
L 760.417784 336.407239 
L 794.243778 337.581273 
L 828.069773 340.141955 
L 861.895767 342.472433 
L 895.721761 344.106629 
L 929.547756 311.337949 
L 949.843352 291.047685 
" clip-path="url(#p963bd7d331)" style="fill: none; stroke: #f0ad4e; stroke-linecap: square"/>
   </g>
   <g id="line2d_33">
    <path d="M 83.897898 352.544018 
L 117.723892 352.06937 
L 151.549886 351.460153 
L 185.375881 351.048665 
L 219.201875 349.576892 
L 253.027869 348.031846 
L 286.853864 343.175 
L 320.679858 338.411229 
L 354.505852 329.216362 
L 388.331847 320.350689 
L 422.157841 305.140495 
L 455.983835 308.700813 
L 489.80983 306.883372 
L 523.635824 311.792247 
L 557.461818 307.255924 
L 591.287812 312.051846 
L 625.113807 313.698665 
L 658.939801 322.659078 
L 692.765795 328.119154 
L 726.59179 332.845406 
L 760.417784 336.416979 
L 794.243778 337.80313 
L 828.069773 340.286862 
L 861.895767 342.007823 
L 895.721761 342.513554 
L 929.547756 304.857864 
L 949.843352 300.425996 
" clip-path="url(#p963bd7d331)" style="fill: none; stroke: #f0ad4e; stroke-linecap: square"/>
   </g>
   <g id="line2d_34">
    <path d="M 83.897898 353.206184 
L 117.723892 353.19637 
L 151.549886 353.185984 
L 185.375881 353.161236 
L 219.201875 353.089529 
L 253.027869 352.944871 
L 286.853864 352.609489 
L 320.679858 352.184436 
L 354.505852 351.376593 
L 388.331847 350.279186 
L 422.157841 349.420209 
L 455.983835 348.766664 
L 489.80983 347.50835 
L 523.635824 346.626488 
L 557.461818 344.767603 
L 591.287812 343.542806 
L 625.113807 342.122317 
L 658.939801 341.143752 
L 692.765795 340.068061 
L 726.59179 338.968393 
L 760.417784 338.159706 
L 794.243778 337.069107 
L 828.069773 336.647929 
L 861.895767 335.849951 
L 895.721761 336.193532 
L 929.547756 207.830785 
L 949.843352 145.586416 
" clip-path="url(#p963bd7d331)" style="fill: none; stroke: #f0ad4e; stroke-linecap: square"/>
   </g>
   <g id="line2d_35">
    <path d="M 83.897898 352.774844 
L 117.723892 352.761427 
L 151.549886 352.718517 
L 185.375881 352.664674 
L 219.201875 352.577511 
L 253.027869 352.412405 
L 286.853864 352.074389 
L 320.679858 351.633111 
L 354.505852 350.809018 
L 388.331847 350.111644 
L 422.157841 348.52821 
L 455.983835 348.236211 
L 489.80983 346.829809 
L 523.635824 345.765473 
L 557.461818 343.712808 
L 591.287812 342.278156 
L 625.113807 340.69015 
L 658.939801 339.647107 
L 692.765795 338.519536 
L 726.59179 337.394674 
L 760.417784 336.606485 
L 794.243778 335.448303 
L 828.069773 334.824152 
L 861.895767 333.043285 
L 895.721761 330.630019 
L 929.547756 201.252182 
L 949.843352 181.561844 
" clip-path="url(#p963bd7d331)" style="fill: none; stroke: #f0ad4e; stroke-linecap: square"/>
   </g>
   <g id="line2d_36">
    <path d="M 83.897898 353.199153 
L 117.723892 353.181462 
L 151.549886 353.163796 
L 185.375881 353.119096 
L 219.201875 353.01551 
L 253.027869 352.787715 
L 286.853864 352.286655 
L 320.679858 351.582597 
L 354.505852 350.132019 
L 388.331847 348.257107 
L 422.157841 346.854283 
L 455.983835 345.595745 
L 489.80983 344.64394 
L 523.635824 343.667189 
L 557.461818 342.647379 
L 591.287812 341.639321 
L 625.113807 341.722955 
L 658.939801 341.100842 
L 692.765795 340.667266 
L 726.59179 339.666289 
L 760.417784 339.730245 
L 794.243778 339.223023 
L 828.069773 338.686457 
L 861.895767 337.797142 
L 895.721761 336.65839 
L 929.547756 208.848036 
L 949.843352 91.392994 
" clip-path="url(#p963bd7d331)" style="fill: none; stroke: #f0ad4e; stroke-linecap: square"/>
   </g>
   <g id="line2d_37">
    <path d="M 83.897898 352.840067 
L 117.723892 352.816562 
L 151.549886 352.769179 
L 185.375881 352.688204 
L 219.201875 352.559348 
L 253.027869 352.302731 
L 286.853864 351.797373 
L 320.679858 351.088221 
L 354.505852 349.612547 
L 388.331847 348.261654 
L 422.157841 345.827044 
L 455.983835 345.007299 
L 489.80983 343.929844 
L 523.635824 342.779414 
L 557.461818 341.397115 
L 591.287812 340.0658 
L 625.113807 339.851199 
L 658.939801 339.105796 
L 692.765795 338.546942 
L 726.59179 337.535754 
L 760.417784 337.470432 
L 794.243778 336.698766 
L 828.069773 335.761596 
L 861.895767 333.857489 
L 895.721761 329.683357 
L 929.547756 195.294003 
L 949.843352 141.718868 
" clip-path="url(#p963bd7d331)" style="fill: none; stroke: #f0ad4e; stroke-linecap: square"/>
   </g>
   <g id="line2d_38">
    <path d="M 83.897898 353.169486 
L 117.723892 353.118003 
L 151.549886 353.060234 
L 185.375881 352.930783 
L 219.201875 352.605986 
L 253.027869 351.944043 
L 286.853864 350.556053 
L 320.679858 348.807164 
L 354.505852 345.656943 
L 388.331847 340.786977 
L 422.157841 339.377818 
L 455.983835 338.08114 
L 489.80983 336.720581 
L 523.635824 335.546199 
L 557.461818 333.277143 
L 591.287812 332.568389 
L 625.113807 332.603845 
L 658.939801 332.626058 
L 692.765795 333.420385 
L 726.59179 333.214554 
L 760.417784 334.363145 
L 794.243778 334.44581 
L 828.069773 335.317012 
L 861.895767 335.884885 
L 895.721761 336.327456 
L 929.547756 242.434796 
L 949.843352 191.936883 
" clip-path="url(#p963bd7d331)" style="fill: none; stroke: #f0ad4e; stroke-linecap: square"/>
   </g>
   <g id="line2d_39">
    <path d="M 83.897898 352.763887 
L 117.723892 352.718939 
L 151.549886 352.64912 
L 185.375881 352.473751 
L 219.201875 352.144035 
L 253.027869 351.465967 
L 286.853864 350.07261 
L 320.679858 348.311944 
L 354.505852 345.166194 
L 388.331847 342.246849 
L 422.157841 337.128292 
L 455.983835 337.512944 
L 489.80983 336.180189 
L 523.635824 334.834836 
L 557.461818 332.412004 
L 591.287812 331.51188 
L 625.113807 331.405958 
L 658.939801 331.393435 
L 692.765795 332.177276 
L 726.59179 331.979098 
L 760.417784 333.148462 
L 794.243778 333.244643 
L 828.069773 333.947683 
L 861.895767 333.640055 
L 895.721761 331.962476 
L 929.547756 234.308762 
L 949.843352 223.980485 
" clip-path="url(#p963bd7d331)" style="fill: none; stroke: #f0ad4e; stroke-linecap: square"/>
   </g>
   <g id="line2d_40">
    <path d="M 40.600625 353.2239 
L 993.140625 353.2239 
" clip-path="url(#p963bd7d331)" style="fill: none; stroke: #dedede; stroke-width: 2; stroke-linecap: square"/>
   </g>
   <g id="text_18">
    <!-- FastQC: Sequence Length Distribution -->
    <g transform="translate(364.858125 19.3575) scale(0.16 -0.16)">
     <defs>
      <path id="DejaVuSans-46" d="M 628 4666 
L 3309 4666 
L 3309 4134 
L 1259 4134 
L 1259 2759 
L 3109 2759 
L 3109 2228 
L 1259 2228 
L 1259 0 
L 628 0 
L 628 4666 
z
" transform="scale(0.015625)"/>
      <path id="DejaVuSans-73" d="M 2834 3397 
L 2834 2853 
Q 2591 2978 2328 3040 
Q 2066 3103 1784 3103 
Q 1356 3103 1142 2972 
Q 928 2841 928 2578 
Q 928 2378 1081 2264 
Q 1234 2150 1697 2047 
L 1894 2003 
Q 2506 1872 2764 1633 
Q 3022 1394 3022 966 
Q 3022 478 2636 193 
Q 2250 -91 1575 -91 
Q 1294 -91 989 -36 
Q 684 19 347 128 
L 347 722 
Q 666 556 975 473 
Q 1284 391 1588 391 
Q 1994 391 2212 530 
Q 2431 669 2431 922 
Q 2431 1156 2273 1281 
Q 2116 1406 1581 1522 
L 1381 1569 
Q 847 1681 609 1914 
Q 372 2147 372 2553 
Q 372 3047 722 3315 
Q 1072 3584 1716 3584 
Q 2034 3584 2315 3537 
Q 2597 3491 2834 3397 
z
" transform="scale(0.015625)"/>
      <path id="DejaVuSans-51" d="M 2522 4238 
Q 1834 4238 1429 3725 
Q 1025 3213 1025 2328 
Q 1025 1447 1429 934 
Q 1834 422 2522 422 
Q 3209 422 3611 934 
Q 4013 1447 4013 2328 
Q 4013 3213 3611 3725 
Q 3209 4238 2522 4238 
z
M 3406 84 
L 4238 -825 
L 3475 -825 
L 2784 -78 
Q 2681 -84 2626 -87 
Q 2572 -91 2522 -91 
Q 1538 -91 948 567 
Q 359 1225 359 2328 
Q 359 3434 948 4092 
Q 1538 4750 2522 4750 
Q 3503 4750 4090 4092 
Q 4678 3434 4678 2328 
Q 4678 1516 4351 937 
Q 4025 359 3406 84 
z
" transform="scale(0.015625)"/>
      <path id="DejaVuSans-3a" d="M 750 794 
L 1409 794 
L 1409 0 
L 750 0 
L 750 794 
z
M 750 3309 
L 1409 3309 
L 1409 2516 
L 750 2516 
L 750 3309 
z
" transform="scale(0.015625)"/>
      <path id="DejaVuSans-44" d="M 1259 4147 
L 1259 519 
L 2022 519 
Q 2988 519 3436 956 
Q 3884 1394 3884 2338 
Q 3884 3275 3436 3711 
Q 2988 4147 2022 4147 
L 1259 4147 
z
M 628 4666 
L 1925 4666 
Q 3281 4666 3915 4102 
Q 4550 3538 4550 2338 
Q 4550 1131 3912 565 
Q 3275 0 1925 0 
L 628 0 
L 628 4666 
z
" transform="scale(0.015625)"/>
      <path id="DejaVuSans-69" d="M 603 3500 
L 1178 3500 
L 1178 0 
L 603 0 
L 603 3500 
z
M 603 4863 
L 1178 4863 
L 1178 4134 
L 603 4134 
L 603 4863 
z
" transform="scale(0.015625)"/>
      <path id="DejaVuSans-72" d="M 2631 2963 
Q 2534 3019 2420 3045 
Q 2306 3072 2169 3072 
Q 1681 3072 1420 2755 
Q 1159 2438 1159 1844 
L 1159 0 
L 581 0 
L 581 3500 
L 1159 3500 
L 1159 2956 
Q 1341 3275 1631 3429 
Q 1922 3584 2338 3584 
Q 2397 3584 2469 3576 
Q 2541 3569 2628 3553 
L 2631 2963 
z
" transform="scale(0.015625)"/>
     </defs>
     <use xlink:href="#DejaVuSans-46"/>
     <use xlink:href="#DejaVuSans-61" x="48.394531"/>
     <use xlink:href="#DejaVuSans-73" x="109.673828"/>
     <use xlink:href="#DejaVuSans-74" x="161.773438"/>
     <use xlink:href="#DejaVuSans-51" x="200.982422"/>
     <use xlink:href="#DejaVuSans-43" x="279.693359"/>
     <use xlink:href="#DejaVuSans-3a" x="349.517578"/>
     <use xlink:href="#DejaVuSans-20" x="383.208984"/>
     <use xlink:href="#DejaVuSans-53" x="414.996094"/>
     <use xlink:href="#DejaVuSans-65" x="478.472656"/>
     <use xlink:href="#DejaVuSans-71" x="539.996094"/>
     <use xlink:href="#DejaVuSans-75" x="603.472656"/>
     <use xlink:href="#DejaVuSans-65" x="666.851562"/>
     <use xlink:href="#DejaVuSans-6e" x="728.375"/>
     <use xlink:href="#DejaVuSans-63" x="791.753906"/>
     <use xlink:href="#DejaVuSans-65" x="846.734375"/>
     <use xlink:href="#DejaVuSans-20" x="908.257812"/>
     <use xlink:href="#DejaVuSans-4c" x="940.044922"/>
     <use xlink:href="#DejaVuSans-65" x="994.007812"/>
     <use xlink:href="#DejaVuSans-6e" x="1055.53125"/>
     <use xlink:href="#DejaVuSans-67" x="1118.910156"/>
     <use xlink:href="#DejaVuSans-74" x="1182.386719"/>
     <use xlink:href="#DejaVuSans-68" x="1221.595703"/>
     <use xlink:href="#DejaVuSans-20" x="1284.974609"/>
     <use xlink:href="#DejaVuSans-44" x="1316.761719"/>
     <use xlink:href="#DejaVuSans-69" x="1393.763672"/>
     <use xlink:href="#DejaVuSans-73" x="1421.546875"/>
     <use xlink:href="#DejaVuSans-74" x="1473.646484"/>
     <use xlink:href="#DejaVuSans-72" x="1512.855469"/>
     <use xlink:href="#DejaVuSans-69" x="1553.96875"/>
     <use xlink:href="#DejaVuSans-62" x="1581.751953"/>
     <use xlink:href="#DejaVuSans-75" x="1645.228516"/>
     <use xlink:href="#DejaVuSans-74" x="1708.607422"/>
     <use xlink:href="#DejaVuSans-69" x="1747.816406"/>
     <use xlink:href="#DejaVuSans-6f" x="1775.599609"/>
     <use xlink:href="#DejaVuSans-6e" x="1836.78125"/>
    </g>
   </g>
  </g>
 </g>
 <defs>
  <clipPath id="p963bd7d331">
   <rect x="40.600625" y="35.2559" width="952.54" height="317.968"/>
  </clipPath>
 </defs>
</svg>
