<?xml version="1.0" encoding="utf-8" standalone="no"?>
<!DOCTYPE svg PUBLIC "-//W3C//DTD SVG 1.1//EN"
  "http://www.w3.org/Graphics/SVG/1.1/DTD/svg11.dtd">
<svg xmlns:xlink="http://www.w3.org/1999/xlink" width="1000.340625pt" height="388.844525pt" viewBox="0 0 1000.340625 388.844525" xmlns="http://www.w3.org/2000/svg" version="1.1">
 <metadata>
  <rdf:RDF xmlns:dc="http://purl.org/dc/elements/1.1/" xmlns:cc="http://creativecommons.org/ns#" xmlns:rdf="http://www.w3.org/1999/02/22-rdf-syntax-ns#">
   <cc:Work>
    <dc:type rdf:resource="http://purl.org/dc/dcmitype/StillImage"/>
    <dc:date>2024-08-15T09:46:20.358793</dc:date>
    <dc:format>image/svg+xml</dc:format>
    <dc:creator>
     <cc:Agent>
      <dc:title>Matplotlib v3.8.2, https://matplotlib.org/</dc:title>
     </cc:Agent>
    </dc:creator>
   </cc:Work>
  </rdf:RDF>
 </metadata>
 <defs>
  <style type="text/css">*{stroke-linejoin: round; stroke-linecap: butt}</style>
 </defs>
 <g id="figure_1">
  <g id="axes_1">
   <g id="patch_1">
    <path d="M 40.600625 353.2239 
L 993.140625 353.2239 
L 993.140625 35.2559 
L 40.600625 35.2559 
z
" style="fill: #ffffff"/>
   </g>
   <g id="patch_2">
    <path d="M 683.278215 353.2239 
L 2335.877733 353.2239 
L 2335.877733 35.2559 
L 683.278215 35.2559 
z
" clip-path="url(#p5d48250406)" style="fill: #c3e6c3"/>
   </g>
   <g id="patch_3">
    <path d="M 499.656047 353.2239 
L 683.278215 353.2239 
L 683.278215 35.2559 
L 499.656047 35.2559 
z
" clip-path="url(#p5d48250406)" style="fill: #e6dcc3"/>
   </g>
   <g id="patch_4">
    <path d="M 40.600625 353.2239 
L 499.656047 353.2239 
L 499.656047 35.2559 
L 40.600625 35.2559 
z
" clip-path="url(#p5d48250406)" style="fill: #e6c3c3"/>
   </g>
   <g id="matplotlib.axis_1">
    <g id="xtick_1">
     <g id="text_1">
      <!-- 0 -->
      <g transform="translate(38.055625 366.30265) scale(0.08 -0.08)">
       <defs>
        <path id="DejaVuSans-30" d="M 2034 4250 
Q 1547 4250 1301 3770 
Q 1056 3291 1056 2328 
Q 1056 1369 1301 889 
Q 1547 409 2034 409 
Q 2525 409 2770 889 
Q 3016 1369 3016 2328 
Q 3016 3291 2770 3770 
Q 2525 4250 2034 4250 
z
M 2034 4750 
Q 2819 4750 3233 4129 
Q 3647 3509 3647 2328 
Q 3647 1150 3233 529 
Q 2819 -91 2034 -91 
Q 1250 -91 836 529 
Q 422 1150 422 2328 
Q 422 3509 836 4129 
Q 1250 4750 2034 4750 
z
" transform="scale(0.015625)"/>
       </defs>
       <use xlink:href="#DejaVuSans-30"/>
      </g>
     </g>
    </g>
    <g id="xtick_2">
     <g id="text_2">
      <!-- 5 -->
      <g transform="translate(152.81948 366.30265) scale(0.08 -0.08)">
       <defs>
        <path id="DejaVuSans-35" d="M 691 4666 
L 3169 4666 
L 3169 4134 
L 1269 4134 
L 1269 2991 
Q 1406 3038 1543 3061 
Q 1681 3084 1819 3084 
Q 2600 3084 3056 2656 
Q 3513 2228 3513 1497 
Q 3513 744 3044 326 
Q 2575 -91 1722 -91 
Q 1428 -91 1123 -41 
Q 819 9 494 109 
L 494 744 
Q 775 591 1075 516 
Q 1375 441 1709 441 
Q 2250 441 2565 725 
Q 2881 1009 2881 1497 
Q 2881 1984 2565 2268 
Q 2250 2553 1709 2553 
Q 1456 2553 1204 2497 
Q 953 2441 691 2322 
L 691 4666 
z
" transform="scale(0.015625)"/>
       </defs>
       <use xlink:href="#DejaVuSans-35"/>
      </g>
     </g>
    </g>
    <g id="xtick_3">
     <g id="text_3">
      <!-- 10 -->
      <g transform="translate(265.038336 366.30265) scale(0.08 -0.08)">
       <defs>
        <path id="DejaVuSans-31" d="M 794 531 
L 1825 531 
L 1825 4091 
L 703 3866 
L 703 4441 
L 1819 4666 
L 2450 4666 
L 2450 531 
L 3481 531 
L 3481 0 
L 794 0 
L 794 531 
z
" transform="scale(0.015625)"/>
       </defs>
       <use xlink:href="#DejaVuSans-31"/>
       <use xlink:href="#DejaVuSans-30" x="63.623047"/>
      </g>
     </g>
    </g>
    <g id="xtick_4">
     <g id="text_4">
      <!-- 15 -->
      <g transform="translate(379.802191 366.30265) scale(0.08 -0.08)">
       <use xlink:href="#DejaVuSans-31"/>
       <use xlink:href="#DejaVuSans-35" x="63.623047"/>
      </g>
     </g>
    </g>
    <g id="xtick_5">
     <g id="text_5">
      <!-- 20 -->
      <g transform="translate(494.566047 366.30265) scale(0.08 -0.08)">
       <defs>
        <path id="DejaVuSans-32" d="M 1228 531 
L 3431 531 
L 3431 0 
L 469 0 
L 469 531 
Q 828 903 1448 1529 
Q 2069 2156 2228 2338 
Q 2531 2678 2651 2914 
Q 2772 3150 2772 3378 
Q 2772 3750 2511 3984 
Q 2250 4219 1831 4219 
Q 1534 4219 1204 4116 
Q 875 4013 500 3803 
L 500 4441 
Q 881 4594 1212 4672 
Q 1544 4750 1819 4750 
Q 2544 4750 2975 4387 
Q 3406 4025 3406 3419 
Q 3406 3131 3298 2873 
Q 3191 2616 2906 2266 
Q 2828 2175 2409 1742 
Q 1991 1309 1228 531 
z
" transform="scale(0.015625)"/>
       </defs>
       <use xlink:href="#DejaVuSans-32"/>
       <use xlink:href="#DejaVuSans-30" x="63.623047"/>
      </g>
     </g>
    </g>
    <g id="xtick_6">
     <g id="text_6">
      <!-- 25 -->
      <g transform="translate(609.329902 366.30265) scale(0.08 -0.08)">
       <use xlink:href="#DejaVuSans-32"/>
       <use xlink:href="#DejaVuSans-35" x="63.623047"/>
      </g>
     </g>
    </g>
    <g id="xtick_7">
     <g id="text_7">
      <!-- 30 -->
      <g transform="translate(724.093758 366.30265) scale(0.08 -0.08)">
       <defs>
        <path id="DejaVuSans-33" d="M 2597 2516 
Q 3050 2419 3304 2112 
Q 3559 1806 3559 1356 
Q 3559 666 3084 287 
Q 2609 -91 1734 -91 
Q 1441 -91 1130 -33 
Q 819 25 488 141 
L 488 750 
Q 750 597 1062 519 
Q 1375 441 1716 441 
Q 2309 441 2620 675 
Q 2931 909 2931 1356 
Q 2931 1769 2642 2001 
Q 2353 2234 1838 2234 
L 1294 2234 
L 1294 2753 
L 1863 2753 
Q 2328 2753 2575 2939 
Q 2822 3125 2822 3475 
Q 2822 3834 2567 4026 
Q 2313 4219 1838 4219 
Q 1578 4219 1281 4162 
Q 984 4106 628 3988 
L 628 4550 
Q 988 4650 1302 4700 
Q 1616 4750 1894 4750 
Q 2613 4750 3031 4423 
Q 3450 4097 3450 3541 
Q 3450 3153 3228 2886 
Q 3006 2619 2597 2516 
z
" transform="scale(0.015625)"/>
       </defs>
       <use xlink:href="#DejaVuSans-33"/>
       <use xlink:href="#DejaVuSans-30" x="63.623047"/>
      </g>
     </g>
    </g>
    <g id="xtick_8">
     <g id="text_8">
      <!-- 35 -->
      <g transform="translate(838.857613 366.30265) scale(0.08 -0.08)">
       <use xlink:href="#DejaVuSans-33"/>
       <use xlink:href="#DejaVuSans-35" x="63.623047"/>
      </g>
     </g>
    </g>
    <g id="xtick_9">
     <g id="text_9">
      <!-- 40 -->
      <g transform="translate(953.621468 366.30265) scale(0.08 -0.08)">
       <defs>
        <path id="DejaVuSans-34" d="M 2419 4116 
L 825 1625 
L 2419 1625 
L 2419 4116 
z
M 2253 4666 
L 3047 4666 
L 3047 1625 
L 3713 1625 
L 3713 1100 
L 3047 1100 
L 3047 0 
L 2419 0 
L 2419 1100 
L 313 1100 
L 313 1709 
L 2253 4666 
z
" transform="scale(0.015625)"/>
       </defs>
       <use xlink:href="#DejaVuSans-34"/>
       <use xlink:href="#DejaVuSans-30" x="63.623047"/>
      </g>
     </g>
    </g>
    <g id="text_10">
     <!-- Mean Sequence Quality (Phred Score) -->
     <g transform="translate(422.078438 379.564837) scale(0.1 -0.1)">
      <defs>
       <path id="DejaVuSans-4d" d="M 628 4666 
L 1569 4666 
L 2759 1491 
L 3956 4666 
L 4897 4666 
L 4897 0 
L 4281 0 
L 4281 4097 
L 3078 897 
L 2444 897 
L 1241 4097 
L 1241 0 
L 628 0 
L 628 4666 
z
" transform="scale(0.015625)"/>
       <path id="DejaVuSans-65" d="M 3597 1894 
L 3597 1613 
L 953 1613 
Q 991 1019 1311 708 
Q 1631 397 2203 397 
Q 2534 397 2845 478 
Q 3156 559 3463 722 
L 3463 178 
Q 3153 47 2828 -22 
Q 2503 -91 2169 -91 
Q 1331 -91 842 396 
Q 353 884 353 1716 
Q 353 2575 817 3079 
Q 1281 3584 2069 3584 
Q 2775 3584 3186 3129 
Q 3597 2675 3597 1894 
z
M 3022 2063 
Q 3016 2534 2758 2815 
Q 2500 3097 2075 3097 
Q 1594 3097 1305 2825 
Q 1016 2553 972 2059 
L 3022 2063 
z
" transform="scale(0.015625)"/>
       <path id="DejaVuSans-61" d="M 2194 1759 
Q 1497 1759 1228 1600 
Q 959 1441 959 1056 
Q 959 750 1161 570 
Q 1363 391 1709 391 
Q 2188 391 2477 730 
Q 2766 1069 2766 1631 
L 2766 1759 
L 2194 1759 
z
M 3341 1997 
L 3341 0 
L 2766 0 
L 2766 531 
Q 2569 213 2275 61 
Q 1981 -91 1556 -91 
Q 1019 -91 701 211 
Q 384 513 384 1019 
Q 384 1609 779 1909 
Q 1175 2209 1959 2209 
L 2766 2209 
L 2766 2266 
Q 2766 2663 2505 2880 
Q 2244 3097 1772 3097 
Q 1472 3097 1187 3025 
Q 903 2953 641 2809 
L 641 3341 
Q 956 3463 1253 3523 
Q 1550 3584 1831 3584 
Q 2591 3584 2966 3190 
Q 3341 2797 3341 1997 
z
" transform="scale(0.015625)"/>
       <path id="DejaVuSans-6e" d="M 3513 2113 
L 3513 0 
L 2938 0 
L 2938 2094 
Q 2938 2591 2744 2837 
Q 2550 3084 2163 3084 
Q 1697 3084 1428 2787 
Q 1159 2491 1159 1978 
L 1159 0 
L 581 0 
L 581 3500 
L 1159 3500 
L 1159 2956 
Q 1366 3272 1645 3428 
Q 1925 3584 2291 3584 
Q 2894 3584 3203 3211 
Q 3513 2838 3513 2113 
z
" transform="scale(0.015625)"/>
       <path id="DejaVuSans-20" transform="scale(0.015625)"/>
       <path id="DejaVuSans-53" d="M 3425 4513 
L 3425 3897 
Q 3066 4069 2747 4153 
Q 2428 4238 2131 4238 
Q 1616 4238 1336 4038 
Q 1056 3838 1056 3469 
Q 1056 3159 1242 3001 
Q 1428 2844 1947 2747 
L 2328 2669 
Q 3034 2534 3370 2195 
Q 3706 1856 3706 1288 
Q 3706 609 3251 259 
Q 2797 -91 1919 -91 
Q 1588 -91 1214 -16 
Q 841 59 441 206 
L 441 856 
Q 825 641 1194 531 
Q 1563 422 1919 422 
Q 2459 422 2753 634 
Q 3047 847 3047 1241 
Q 3047 1584 2836 1778 
Q 2625 1972 2144 2069 
L 1759 2144 
Q 1053 2284 737 2584 
Q 422 2884 422 3419 
Q 422 4038 858 4394 
Q 1294 4750 2059 4750 
Q 2388 4750 2728 4690 
Q 3069 4631 3425 4513 
z
" transform="scale(0.015625)"/>
       <path id="DejaVuSans-71" d="M 947 1747 
Q 947 1113 1208 752 
Q 1469 391 1925 391 
Q 2381 391 2643 752 
Q 2906 1113 2906 1747 
Q 2906 2381 2643 2742 
Q 2381 3103 1925 3103 
Q 1469 3103 1208 2742 
Q 947 2381 947 1747 
z
M 2906 525 
Q 2725 213 2448 61 
Q 2172 -91 1784 -91 
Q 1150 -91 751 415 
Q 353 922 353 1747 
Q 353 2572 751 3078 
Q 1150 3584 1784 3584 
Q 2172 3584 2448 3432 
Q 2725 3281 2906 2969 
L 2906 3500 
L 3481 3500 
L 3481 -1331 
L 2906 -1331 
L 2906 525 
z
" transform="scale(0.015625)"/>
       <path id="DejaVuSans-75" d="M 544 1381 
L 544 3500 
L 1119 3500 
L 1119 1403 
Q 1119 906 1312 657 
Q 1506 409 1894 409 
Q 2359 409 2629 706 
Q 2900 1003 2900 1516 
L 2900 3500 
L 3475 3500 
L 3475 0 
L 2900 0 
L 2900 538 
Q 2691 219 2414 64 
Q 2138 -91 1772 -91 
Q 1169 -91 856 284 
Q 544 659 544 1381 
z
M 1991 3584 
L 1991 3584 
z
" transform="scale(0.015625)"/>
       <path id="DejaVuSans-63" d="M 3122 3366 
L 3122 2828 
Q 2878 2963 2633 3030 
Q 2388 3097 2138 3097 
Q 1578 3097 1268 2742 
Q 959 2388 959 1747 
Q 959 1106 1268 751 
Q 1578 397 2138 397 
Q 2388 397 2633 464 
Q 2878 531 3122 666 
L 3122 134 
Q 2881 22 2623 -34 
Q 2366 -91 2075 -91 
Q 1284 -91 818 406 
Q 353 903 353 1747 
Q 353 2603 823 3093 
Q 1294 3584 2113 3584 
Q 2378 3584 2631 3529 
Q 2884 3475 3122 3366 
z
" transform="scale(0.015625)"/>
       <path id="DejaVuSans-51" d="M 2522 4238 
Q 1834 4238 1429 3725 
Q 1025 3213 1025 2328 
Q 1025 1447 1429 934 
Q 1834 422 2522 422 
Q 3209 422 3611 934 
Q 4013 1447 4013 2328 
Q 4013 3213 3611 3725 
Q 3209 4238 2522 4238 
z
M 3406 84 
L 4238 -825 
L 3475 -825 
L 2784 -78 
Q 2681 -84 2626 -87 
Q 2572 -91 2522 -91 
Q 1538 -91 948 567 
Q 359 1225 359 2328 
Q 359 3434 948 4092 
Q 1538 4750 2522 4750 
Q 3503 4750 4090 4092 
Q 4678 3434 4678 2328 
Q 4678 1516 4351 937 
Q 4025 359 3406 84 
z
" transform="scale(0.015625)"/>
       <path id="DejaVuSans-6c" d="M 603 4863 
L 1178 4863 
L 1178 0 
L 603 0 
L 603 4863 
z
" transform="scale(0.015625)"/>
       <path id="DejaVuSans-69" d="M 603 3500 
L 1178 3500 
L 1178 0 
L 603 0 
L 603 3500 
z
M 603 4863 
L 1178 4863 
L 1178 4134 
L 603 4134 
L 603 4863 
z
" transform="scale(0.015625)"/>
       <path id="DejaVuSans-74" d="M 1172 4494 
L 1172 3500 
L 2356 3500 
L 2356 3053 
L 1172 3053 
L 1172 1153 
Q 1172 725 1289 603 
Q 1406 481 1766 481 
L 2356 481 
L 2356 0 
L 1766 0 
Q 1100 0 847 248 
Q 594 497 594 1153 
L 594 3053 
L 172 3053 
L 172 3500 
L 594 3500 
L 594 4494 
L 1172 4494 
z
" transform="scale(0.015625)"/>
       <path id="DejaVuSans-79" d="M 2059 -325 
Q 1816 -950 1584 -1140 
Q 1353 -1331 966 -1331 
L 506 -1331 
L 506 -850 
L 844 -850 
Q 1081 -850 1212 -737 
Q 1344 -625 1503 -206 
L 1606 56 
L 191 3500 
L 800 3500 
L 1894 763 
L 2988 3500 
L 3597 3500 
L 2059 -325 
z
" transform="scale(0.015625)"/>
       <path id="DejaVuSans-28" d="M 1984 4856 
Q 1566 4138 1362 3434 
Q 1159 2731 1159 2009 
Q 1159 1288 1364 580 
Q 1569 -128 1984 -844 
L 1484 -844 
Q 1016 -109 783 600 
Q 550 1309 550 2009 
Q 550 2706 781 3412 
Q 1013 4119 1484 4856 
L 1984 4856 
z
" transform="scale(0.015625)"/>
       <path id="DejaVuSans-50" d="M 1259 4147 
L 1259 2394 
L 2053 2394 
Q 2494 2394 2734 2622 
Q 2975 2850 2975 3272 
Q 2975 3691 2734 3919 
Q 2494 4147 2053 4147 
L 1259 4147 
z
M 628 4666 
L 2053 4666 
Q 2838 4666 3239 4311 
Q 3641 3956 3641 3272 
Q 3641 2581 3239 2228 
Q 2838 1875 2053 1875 
L 1259 1875 
L 1259 0 
L 628 0 
L 628 4666 
z
" transform="scale(0.015625)"/>
       <path id="DejaVuSans-68" d="M 3513 2113 
L 3513 0 
L 2938 0 
L 2938 2094 
Q 2938 2591 2744 2837 
Q 2550 3084 2163 3084 
Q 1697 3084 1428 2787 
Q 1159 2491 1159 1978 
L 1159 0 
L 581 0 
L 581 4863 
L 1159 4863 
L 1159 2956 
Q 1366 3272 1645 3428 
Q 1925 3584 2291 3584 
Q 2894 3584 3203 3211 
Q 3513 2838 3513 2113 
z
" transform="scale(0.015625)"/>
       <path id="DejaVuSans-72" d="M 2631 2963 
Q 2534 3019 2420 3045 
Q 2306 3072 2169 3072 
Q 1681 3072 1420 2755 
Q 1159 2438 1159 1844 
L 1159 0 
L 581 0 
L 581 3500 
L 1159 3500 
L 1159 2956 
Q 1341 3275 1631 3429 
Q 1922 3584 2338 3584 
Q 2397 3584 2469 3576 
Q 2541 3569 2628 3553 
L 2631 2963 
z
" transform="scale(0.015625)"/>
       <path id="DejaVuSans-64" d="M 2906 2969 
L 2906 4863 
L 3481 4863 
L 3481 0 
L 2906 0 
L 2906 525 
Q 2725 213 2448 61 
Q 2172 -91 1784 -91 
Q 1150 -91 751 415 
Q 353 922 353 1747 
Q 353 2572 751 3078 
Q 1150 3584 1784 3584 
Q 2172 3584 2448 3432 
Q 2725 3281 2906 2969 
z
M 947 1747 
Q 947 1113 1208 752 
Q 1469 391 1925 391 
Q 2381 391 2643 752 
Q 2906 1113 2906 1747 
Q 2906 2381 2643 2742 
Q 2381 3103 1925 3103 
Q 1469 3103 1208 2742 
Q 947 2381 947 1747 
z
" transform="scale(0.015625)"/>
       <path id="DejaVuSans-6f" d="M 1959 3097 
Q 1497 3097 1228 2736 
Q 959 2375 959 1747 
Q 959 1119 1226 758 
Q 1494 397 1959 397 
Q 2419 397 2687 759 
Q 2956 1122 2956 1747 
Q 2956 2369 2687 2733 
Q 2419 3097 1959 3097 
z
M 1959 3584 
Q 2709 3584 3137 3096 
Q 3566 2609 3566 1747 
Q 3566 888 3137 398 
Q 2709 -91 1959 -91 
Q 1206 -91 779 398 
Q 353 888 353 1747 
Q 353 2609 779 3096 
Q 1206 3584 1959 3584 
z
" transform="scale(0.015625)"/>
       <path id="DejaVuSans-29" d="M 513 4856 
L 1013 4856 
Q 1481 4119 1714 3412 
Q 1947 2706 1947 2009 
Q 1947 1309 1714 600 
Q 1481 -109 1013 -844 
L 513 -844 
Q 928 -128 1133 580 
Q 1338 1288 1338 2009 
Q 1338 2731 1133 3434 
Q 928 4138 513 4856 
z
" transform="scale(0.015625)"/>
      </defs>
      <use xlink:href="#DejaVuSans-4d"/>
      <use xlink:href="#DejaVuSans-65" x="86.279297"/>
      <use xlink:href="#DejaVuSans-61" x="147.802734"/>
      <use xlink:href="#DejaVuSans-6e" x="209.082031"/>
      <use xlink:href="#DejaVuSans-20" x="272.460938"/>
      <use xlink:href="#DejaVuSans-53" x="304.248047"/>
      <use xlink:href="#DejaVuSans-65" x="367.724609"/>
      <use xlink:href="#DejaVuSans-71" x="429.248047"/>
      <use xlink:href="#DejaVuSans-75" x="492.724609"/>
      <use xlink:href="#DejaVuSans-65" x="556.103516"/>
      <use xlink:href="#DejaVuSans-6e" x="617.626953"/>
      <use xlink:href="#DejaVuSans-63" x="681.005859"/>
      <use xlink:href="#DejaVuSans-65" x="735.986328"/>
      <use xlink:href="#DejaVuSans-20" x="797.509766"/>
      <use xlink:href="#DejaVuSans-51" x="829.296875"/>
      <use xlink:href="#DejaVuSans-75" x="908.007812"/>
      <use xlink:href="#DejaVuSans-61" x="971.386719"/>
      <use xlink:href="#DejaVuSans-6c" x="1032.666016"/>
      <use xlink:href="#DejaVuSans-69" x="1060.449219"/>
      <use xlink:href="#DejaVuSans-74" x="1088.232422"/>
      <use xlink:href="#DejaVuSans-79" x="1127.441406"/>
      <use xlink:href="#DejaVuSans-20" x="1186.621094"/>
      <use xlink:href="#DejaVuSans-28" x="1218.408203"/>
      <use xlink:href="#DejaVuSans-50" x="1257.421875"/>
      <use xlink:href="#DejaVuSans-68" x="1317.724609"/>
      <use xlink:href="#DejaVuSans-72" x="1381.103516"/>
      <use xlink:href="#DejaVuSans-65" x="1419.966797"/>
      <use xlink:href="#DejaVuSans-64" x="1481.490234"/>
      <use xlink:href="#DejaVuSans-20" x="1544.966797"/>
      <use xlink:href="#DejaVuSans-53" x="1576.753906"/>
      <use xlink:href="#DejaVuSans-63" x="1640.230469"/>
      <use xlink:href="#DejaVuSans-6f" x="1695.210938"/>
      <use xlink:href="#DejaVuSans-72" x="1756.392578"/>
      <use xlink:href="#DejaVuSans-65" x="1795.255859"/>
      <use xlink:href="#DejaVuSans-29" x="1856.779297"/>
     </g>
    </g>
   </g>
   <g id="matplotlib.axis_2">
    <g id="ytick_1">
     <g id="line2d_1">
      <path d="M 40.600625 353.2239 
L 993.140625 353.2239 
" clip-path="url(#p5d48250406)" style="fill: none; stroke: #dedede; stroke-linecap: square"/>
     </g>
     <g id="text_11">
      <!-- 0.0 -->
      <g transform="translate(20.878125 356.263275) scale(0.08 -0.08)">
       <defs>
        <path id="DejaVuSans-2e" d="M 684 794 
L 1344 794 
L 1344 0 
L 684 0 
L 684 794 
z
" transform="scale(0.015625)"/>
       </defs>
       <use xlink:href="#DejaVuSans-30"/>
       <use xlink:href="#DejaVuSans-2e" x="63.623047"/>
       <use xlink:href="#DejaVuSans-30" x="95.410156"/>
      </g>
     </g>
    </g>
    <g id="ytick_2">
     <g id="line2d_2">
      <path d="M 40.600625 309.276821 
L 993.140625 309.276821 
" clip-path="url(#p5d48250406)" style="fill: none; stroke: #dedede; stroke-linecap: square"/>
     </g>
     <g id="text_12">
      <!-- 0.2 -->
      <g transform="translate(20.878125 312.316196) scale(0.08 -0.08)">
       <use xlink:href="#DejaVuSans-30"/>
       <use xlink:href="#DejaVuSans-2e" x="63.623047"/>
       <use xlink:href="#DejaVuSans-32" x="95.410156"/>
      </g>
     </g>
    </g>
    <g id="ytick_3">
     <g id="line2d_3">
      <path d="M 40.600625 265.329741 
L 993.140625 265.329741 
" clip-path="url(#p5d48250406)" style="fill: none; stroke: #dedede; stroke-linecap: square"/>
     </g>
     <g id="text_13">
      <!-- 0.4 -->
      <g transform="translate(20.878125 268.369116) scale(0.08 -0.08)">
       <use xlink:href="#DejaVuSans-30"/>
       <use xlink:href="#DejaVuSans-2e" x="63.623047"/>
       <use xlink:href="#DejaVuSans-34" x="95.410156"/>
      </g>
     </g>
    </g>
    <g id="ytick_4">
     <g id="line2d_4">
      <path d="M 40.600625 221.382662 
L 993.140625 221.382662 
" clip-path="url(#p5d48250406)" style="fill: none; stroke: #dedede; stroke-linecap: square"/>
     </g>
     <g id="text_14">
      <!-- 0.6 -->
      <g transform="translate(20.878125 224.422037) scale(0.08 -0.08)">
       <defs>
        <path id="DejaVuSans-36" d="M 2113 2584 
Q 1688 2584 1439 2293 
Q 1191 2003 1191 1497 
Q 1191 994 1439 701 
Q 1688 409 2113 409 
Q 2538 409 2786 701 
Q 3034 994 3034 1497 
Q 3034 2003 2786 2293 
Q 2538 2584 2113 2584 
z
M 3366 4563 
L 3366 3988 
Q 3128 4100 2886 4159 
Q 2644 4219 2406 4219 
Q 1781 4219 1451 3797 
Q 1122 3375 1075 2522 
Q 1259 2794 1537 2939 
Q 1816 3084 2150 3084 
Q 2853 3084 3261 2657 
Q 3669 2231 3669 1497 
Q 3669 778 3244 343 
Q 2819 -91 2113 -91 
Q 1303 -91 875 529 
Q 447 1150 447 2328 
Q 447 3434 972 4092 
Q 1497 4750 2381 4750 
Q 2619 4750 2861 4703 
Q 3103 4656 3366 4563 
z
" transform="scale(0.015625)"/>
       </defs>
       <use xlink:href="#DejaVuSans-30"/>
       <use xlink:href="#DejaVuSans-2e" x="63.623047"/>
       <use xlink:href="#DejaVuSans-36" x="95.410156"/>
      </g>
     </g>
    </g>
    <g id="ytick_5">
     <g id="line2d_5">
      <path d="M 40.600625 177.435582 
L 993.140625 177.435582 
" clip-path="url(#p5d48250406)" style="fill: none; stroke: #dedede; stroke-linecap: square"/>
     </g>
     <g id="text_15">
      <!-- 0.8 -->
      <g transform="translate(20.878125 180.474957) scale(0.08 -0.08)">
       <defs>
        <path id="DejaVuSans-38" d="M 2034 2216 
Q 1584 2216 1326 1975 
Q 1069 1734 1069 1313 
Q 1069 891 1326 650 
Q 1584 409 2034 409 
Q 2484 409 2743 651 
Q 3003 894 3003 1313 
Q 3003 1734 2745 1975 
Q 2488 2216 2034 2216 
z
M 1403 2484 
Q 997 2584 770 2862 
Q 544 3141 544 3541 
Q 544 4100 942 4425 
Q 1341 4750 2034 4750 
Q 2731 4750 3128 4425 
Q 3525 4100 3525 3541 
Q 3525 3141 3298 2862 
Q 3072 2584 2669 2484 
Q 3125 2378 3379 2068 
Q 3634 1759 3634 1313 
Q 3634 634 3220 271 
Q 2806 -91 2034 -91 
Q 1263 -91 848 271 
Q 434 634 434 1313 
Q 434 1759 690 2068 
Q 947 2378 1403 2484 
z
M 1172 3481 
Q 1172 3119 1398 2916 
Q 1625 2713 2034 2713 
Q 2441 2713 2670 2916 
Q 2900 3119 2900 3481 
Q 2900 3844 2670 4047 
Q 2441 4250 2034 4250 
Q 1625 4250 1398 4047 
Q 1172 3844 1172 3481 
z
" transform="scale(0.015625)"/>
       </defs>
       <use xlink:href="#DejaVuSans-30"/>
       <use xlink:href="#DejaVuSans-2e" x="63.623047"/>
       <use xlink:href="#DejaVuSans-38" x="95.410156"/>
      </g>
     </g>
    </g>
    <g id="ytick_6">
     <g id="line2d_6">
      <path d="M 40.600625 133.488503 
L 993.140625 133.488503 
" clip-path="url(#p5d48250406)" style="fill: none; stroke: #dedede; stroke-linecap: square"/>
     </g>
     <g id="text_16">
      <!-- 1.0 -->
      <g transform="translate(20.878125 136.527878) scale(0.08 -0.08)">
       <use xlink:href="#DejaVuSans-31"/>
       <use xlink:href="#DejaVuSans-2e" x="63.623047"/>
       <use xlink:href="#DejaVuSans-30" x="95.410156"/>
      </g>
     </g>
    </g>
    <g id="ytick_7">
     <g id="line2d_7">
      <path d="M 40.600625 89.541423 
L 993.140625 89.541423 
" clip-path="url(#p5d48250406)" style="fill: none; stroke: #dedede; stroke-linecap: square"/>
     </g>
     <g id="text_17">
      <!-- 1.2 -->
      <g transform="translate(20.878125 92.580798) scale(0.08 -0.08)">
       <use xlink:href="#DejaVuSans-31"/>
       <use xlink:href="#DejaVuSans-2e" x="63.623047"/>
       <use xlink:href="#DejaVuSans-32" x="95.410156"/>
      </g>
     </g>
    </g>
    <g id="ytick_8">
     <g id="line2d_8">
      <path d="M 40.600625 45.594344 
L 993.140625 45.594344 
" clip-path="url(#p5d48250406)" style="fill: none; stroke: #dedede; stroke-linecap: square"/>
     </g>
     <g id="text_18">
      <!-- 1.4 -->
      <g transform="translate(20.878125 48.633719) scale(0.08 -0.08)">
       <use xlink:href="#DejaVuSans-31"/>
       <use xlink:href="#DejaVuSans-2e" x="63.623047"/>
       <use xlink:href="#DejaVuSans-34" x="95.410156"/>
      </g>
     </g>
    </g>
    <g id="text_19">
     <!-- Count -->
     <g transform="translate(14.798438 209.088338) rotate(-90) scale(0.1 -0.1)">
      <defs>
       <path id="DejaVuSans-43" d="M 4122 4306 
L 4122 3641 
Q 3803 3938 3442 4084 
Q 3081 4231 2675 4231 
Q 1875 4231 1450 3742 
Q 1025 3253 1025 2328 
Q 1025 1406 1450 917 
Q 1875 428 2675 428 
Q 3081 428 3442 575 
Q 3803 722 4122 1019 
L 4122 359 
Q 3791 134 3420 21 
Q 3050 -91 2638 -91 
Q 1578 -91 968 557 
Q 359 1206 359 2328 
Q 359 3453 968 4101 
Q 1578 4750 2638 4750 
Q 3056 4750 3426 4639 
Q 3797 4528 4122 4306 
z
" transform="scale(0.015625)"/>
      </defs>
      <use xlink:href="#DejaVuSans-43"/>
      <use xlink:href="#DejaVuSans-6f" x="69.824219"/>
      <use xlink:href="#DejaVuSans-75" x="131.005859"/>
      <use xlink:href="#DejaVuSans-6e" x="194.384766"/>
      <use xlink:href="#DejaVuSans-74" x="257.763672"/>
     </g>
    </g>
    <g id="text_20">
     <!-- 1e7 -->
     <g transform="translate(40.600625 32.2559) scale(0.1 -0.1)">
      <defs>
       <path id="DejaVuSans-37" d="M 525 4666 
L 3525 4666 
L 3525 4397 
L 1831 0 
L 1172 0 
L 2766 4134 
L 525 4134 
L 525 4666 
z
" transform="scale(0.015625)"/>
      </defs>
      <use xlink:href="#DejaVuSans-31"/>
      <use xlink:href="#DejaVuSans-65" x="63.623047"/>
      <use xlink:href="#DejaVuSans-37" x="125.146484"/>
     </g>
    </g>
   </g>
   <g id="line2d_9">
    <path d="M 338.986649 353.223878 
L 361.93942 353.223856 
L 384.892191 353.223504 
L 407.844962 353.221219 
L 430.797733 353.215968 
L 453.750505 353.20252 
L 476.703276 353.175866 
L 499.656047 353.138203 
L 522.608818 353.079622 
L 545.561589 352.979576 
L 568.51436 352.816972 
L 591.467131 352.594314 
L 614.419902 351.472455 
L 637.372673 351.237712 
L 660.325444 351.447955 
L 683.278215 350.989213 
L 706.230986 350.321217 
L 729.183758 349.459393 
L 752.136529 348.375746 
L 775.0893 346.991721 
L 798.042071 345.251856 
L 820.994842 342.999107 
L 843.947613 339.765502 
L 866.900384 334.858745 
L 889.853155 326.481619 
L 912.805926 309.651118 
L 935.758697 262.157905 
L 958.711468 84.668285 
" clip-path="url(#p5d48250406)" style="fill: none; stroke: #5cb85c; stroke-linecap: square"/>
   </g>
   <g id="line2d_10">
    <path d="M 293.081107 353.223373 
L 316.033878 353.205882 
L 338.986649 353.056088 
L 361.93942 352.580778 
L 384.892191 352.014784 
L 407.844962 351.629017 
L 430.797733 351.411127 
L 453.750505 351.257444 
L 476.703276 351.077766 
L 499.656047 350.793736 
L 522.608818 350.42401 
L 545.561589 349.962148 
L 568.51436 349.409667 
L 591.467131 348.710293 
L 614.419902 347.635743 
L 637.372673 346.800815 
L 660.325444 346.607228 
L 683.278215 345.613408 
L 706.230986 344.393657 
L 729.183758 342.919123 
L 752.136529 341.09321 
L 775.0893 338.789701 
L 798.042071 335.840655 
L 820.994842 331.950701 
L 843.947613 326.58061 
L 866.900384 318.732013 
L 889.853155 306.415185 
L 912.805926 286.223215 
L 935.758697 253.640719 
L 958.711468 257.680752 
" clip-path="url(#p5d48250406)" style="fill: none; stroke: #5cb85c; stroke-linecap: square"/>
   </g>
   <g id="line2d_11">
    <path d="M 316.033878 353.223878 
L 338.986649 353.223856 
L 361.93942 353.223812 
L 384.892191 353.222538 
L 407.844962 353.218121 
L 430.797733 353.210562 
L 453.750505 353.194324 
L 476.703276 353.166571 
L 499.656047 353.116076 
L 522.608818 353.015283 
L 545.561589 352.833738 
L 568.51436 352.477591 
L 591.467131 351.541056 
L 614.419902 342.09305 
L 637.372673 344.470872 
L 660.325444 350.556906 
L 683.278215 350.469253 
L 706.230986 349.736523 
L 729.183758 348.733322 
L 752.136529 347.451781 
L 775.0893 345.79981 
L 798.042071 343.591513 
L 820.994842 340.588126 
L 843.947613 336.268589 
L 866.900384 330.031576 
L 889.853155 320.046777 
L 912.805926 301.740534 
L 935.758697 253.239768 
L 958.711468 109.649497 
" clip-path="url(#p5d48250406)" style="fill: none; stroke: #5cb85c; stroke-linecap: square"/>
   </g>
   <g id="line2d_12">
    <path d="M 293.081107 353.222955 
L 316.033878 353.202608 
L 338.986649 353.022952 
L 361.93942 352.385082 
L 384.892191 351.46015 
L 407.844962 350.597513 
L 430.797733 349.970783 
L 453.750505 349.470292 
L 476.703276 348.947124 
L 499.656047 348.310243 
L 522.608818 347.505902 
L 545.561589 346.550602 
L 568.51436 345.375809 
L 591.467131 343.456156 
L 614.419902 337.877668 
L 637.372673 335.565854 
L 660.325444 342.219881 
L 683.278215 341.251375 
L 706.230986 339.72962 
L 729.183758 337.951697 
L 752.136529 335.79139 
L 775.0893 333.137184 
L 798.042071 329.898636 
L 820.994842 325.630496 
L 843.947613 320.066686 
L 866.900384 312.782743 
L 889.853155 303.233789 
L 912.805926 291.488163 
L 935.758697 279.292827 
L 958.711468 296.963025 
" clip-path="url(#p5d48250406)" style="fill: none; stroke: #5cb85c; stroke-linecap: square"/>
   </g>
   <g id="line2d_13">
    <path d="M 338.986649 353.223878 
L 361.93942 353.223614 
L 384.892191 353.222098 
L 407.844962 353.216451 
L 430.797733 353.204102 
L 453.750505 353.180326 
L 476.703276 353.14106 
L 499.656047 353.076963 
L 522.608818 352.968765 
L 545.561589 352.781902 
L 568.51436 352.533733 
L 591.467131 352.110105 
L 614.419902 349.888229 
L 637.372673 350.103547 
L 660.325444 350.658687 
L 683.278215 350.061622 
L 706.230986 349.191646 
L 729.183758 348.070468 
L 752.136529 346.564094 
L 775.0893 344.61102 
L 798.042071 342.053278 
L 820.994842 338.381982 
L 843.947613 332.784289 
L 866.900384 325.266152 
L 889.853155 313.750172 
L 912.805926 294.981187 
L 935.758697 246.605758 
L 958.711468 78.188442 
" clip-path="url(#p5d48250406)" style="fill: none; stroke: #5cb85c; stroke-linecap: square"/>
   </g>
   <g id="line2d_14">
    <path d="M 293.081107 353.223614 
L 316.033878 353.216209 
L 338.986649 353.158243 
L 361.93942 352.899593 
L 384.892191 352.419207 
L 407.844962 351.904235 
L 430.797733 351.530817 
L 453.750505 351.233647 
L 476.703276 350.892112 
L 499.656047 350.402651 
L 522.608818 349.783986 
L 545.561589 349.059057 
L 568.51436 348.177061 
L 591.467131 347.019869 
L 614.419902 345.255833 
L 637.372673 344.402952 
L 660.325444 344.154761 
L 683.278215 342.66601 
L 706.230986 340.811333 
L 729.183758 338.555573 
L 752.136529 335.698662 
L 775.0893 332.138333 
L 798.042071 327.407628 
L 820.994842 321.062307 
L 843.947613 312.459204 
L 866.900384 301.118968 
L 889.853155 286.643042 
L 912.805926 270.178466 
L 935.758697 256.738549 
L 958.711468 289.279449 
" clip-path="url(#p5d48250406)" style="fill: none; stroke: #5cb85c; stroke-linecap: square"/>
   </g>
   <g id="line2d_15">
    <path d="M 361.93942 353.223856 
L 384.892191 353.223351 
L 407.844962 353.221549 
L 430.797733 353.215286 
L 453.750505 353.206739 
L 476.703276 353.186809 
L 499.656047 353.147586 
L 522.608818 353.070041 
L 545.561589 352.936618 
L 568.51436 352.721827 
L 591.467131 352.395739 
L 614.419902 351.5186 
L 637.372673 351.01835 
L 660.325444 350.870468 
L 683.278215 350.138617 
L 706.230986 349.281759 
L 729.183758 348.16959 
L 752.136529 346.840389 
L 775.0893 345.167873 
L 798.042071 342.888931 
L 820.994842 339.76792 
L 843.947613 335.109573 
L 866.900384 328.260662 
L 889.853155 317.134207 
L 912.805926 297.571208 
L 935.758697 245.056338 
L 958.711468 75.442255 
" clip-path="url(#p5d48250406)" style="fill: none; stroke: #5cb85c; stroke-linecap: square"/>
   </g>
   <g id="line2d_16">
    <path d="M 293.081107 353.222999 
L 316.033878 353.216319 
L 338.986649 353.163341 
L 361.93942 352.957229 
L 384.892191 352.559266 
L 407.844962 352.038977 
L 430.797733 351.496077 
L 453.750505 350.9786 
L 476.703276 350.418648 
L 499.656047 349.753905 
L 522.608818 349.079009 
L 545.561589 348.348499 
L 568.51436 347.521766 
L 591.467131 346.574377 
L 614.419902 345.370183 
L 637.372673 343.920897 
L 660.325444 343.181091 
L 683.278215 341.793023 
L 706.230986 340.134724 
L 729.183758 338.110521 
L 752.136529 335.692729 
L 775.0893 332.761437 
L 798.042071 329.015454 
L 820.994842 324.125308 
L 843.947613 317.720439 
L 866.900384 308.778021 
L 889.853155 296.37598 
L 912.805926 279.252857 
L 935.758697 257.800244 
L 958.711468 272.095921 
" clip-path="url(#p5d48250406)" style="fill: none; stroke: #5cb85c; stroke-linecap: square"/>
   </g>
   <g id="line2d_17">
    <path d="M 361.93942 353.22379 
L 384.892191 353.221351 
L 407.844962 353.21533 
L 430.797733 353.200542 
L 453.750505 353.178217 
L 476.703276 353.142246 
L 499.656047 353.077996 
L 522.608818 352.971314 
L 545.561589 352.757929 
L 568.51436 352.400991 
L 591.467131 351.528026 
L 614.419902 342.513272 
L 637.372673 344.377375 
L 660.325444 350.441962 
L 683.278215 350.589141 
L 706.230986 350.157998 
L 729.183758 349.354601 
L 752.136529 348.320966 
L 775.0893 346.957288 
L 798.042071 345.097316 
L 820.994842 342.548297 
L 843.947613 338.825343 
L 866.900384 333.408206 
L 889.853155 324.501363 
L 912.805926 308.38676 
L 935.758697 264.773876 
L 958.711468 107.447133 
" clip-path="url(#p5d48250406)" style="fill: none; stroke: #5cb85c; stroke-linecap: square"/>
   </g>
   <g id="line2d_18">
    <path d="M 270.128336 353.223878 
L 293.081107 353.223636 
L 316.033878 353.217528 
L 338.986649 353.15286 
L 361.93942 352.89199 
L 384.892191 352.458144 
L 407.844962 351.978484 
L 430.797733 351.548527 
L 453.750505 351.127712 
L 476.703276 350.617003 
L 499.656047 350.007369 
L 522.608818 349.26451 
L 545.561589 348.374801 
L 568.51436 347.259051 
L 591.467131 345.406901 
L 614.419902 340.050016 
L 637.372673 337.970528 
L 660.325444 344.348194 
L 683.278215 343.533921 
L 706.230986 342.160421 
L 729.183758 340.444529 
L 752.136529 338.300307 
L 775.0893 335.760803 
L 798.042071 332.459828 
L 820.994842 328.223088 
L 843.947613 322.667078 
L 866.900384 315.071858 
L 889.853155 304.771564 
L 912.805926 291.169349 
L 935.758697 275.630849 
L 958.711468 286.199506 
" clip-path="url(#p5d48250406)" style="fill: none; stroke: #5cb85c; stroke-linecap: square"/>
   </g>
   <g id="line2d_19">
    <path d="M 361.93942 353.22379 
L 384.892191 353.223175 
L 407.844962 353.22078 
L 430.797733 353.215814 
L 453.750505 353.204409 
L 476.703276 353.186919 
L 499.656047 353.153167 
L 522.608818 353.09964 
L 545.561589 353.007636 
L 568.51436 352.87028 
L 591.467131 352.674913 
L 614.419902 352.150602 
L 637.372673 351.749651 
L 660.325444 351.491858 
L 683.278215 350.948562 
L 706.230986 350.242157 
L 729.183758 349.320454 
L 752.136529 348.157021 
L 775.0893 346.700879 
L 798.042071 344.813066 
L 820.994842 342.327683 
L 843.947613 338.819805 
L 866.900384 333.473116 
L 889.853155 324.368182 
L 912.805926 306.544037 
L 935.758697 257.956718 
L 958.711468 90.925031 
" clip-path="url(#p5d48250406)" style="fill: none; stroke: #5cb85c; stroke-linecap: square"/>
   </g>
   <g id="line2d_20">
    <path d="M 270.128336 353.223878 
L 293.081107 353.223592 
L 316.033878 353.211309 
L 338.986649 353.097926 
L 361.93942 352.666343 
L 384.892191 351.97121 
L 407.844962 351.247929 
L 430.797733 350.595425 
L 453.750505 350.018993 
L 476.703276 349.417314 
L 499.656047 348.754482 
L 522.608818 348.013534 
L 545.561589 347.215323 
L 568.51436 346.332427 
L 591.467131 345.391652 
L 614.419902 344.200356 
L 637.372673 343.018004 
L 660.325444 342.054134 
L 683.278215 340.649454 
L 706.230986 339.021215 
L 729.183758 337.146278 
L 752.136529 334.887618 
L 775.0893 332.193926 
L 798.042071 328.878053 
L 820.994842 324.755531 
L 843.947613 319.512095 
L 866.900384 312.762593 
L 889.853155 304.08834 
L 912.805926 293.715929 
L 935.758697 283.857654 
L 958.711468 301.842425 
" clip-path="url(#p5d48250406)" style="fill: none; stroke: #5cb85c; stroke-linecap: square"/>
   </g>
   <g id="line2d_21">
    <path d="M 338.986649 353.223878 
L 361.93942 353.223658 
L 384.892191 353.222274 
L 407.844962 353.216517 
L 430.797733 353.205025 
L 453.750505 353.188457 
L 476.703276 353.162704 
L 499.656047 353.119789 
L 522.608818 353.044025 
L 545.561589 352.902625 
L 568.51436 352.66597 
L 591.467131 352.179805 
L 614.419902 346.025149 
L 637.372673 343.169138 
L 660.325444 350.522297 
L 683.278215 350.917667 
L 706.230986 350.459299 
L 729.183758 349.721054 
L 752.136529 348.788519 
L 775.0893 347.565318 
L 798.042071 345.993023 
L 820.994842 343.858448 
L 843.947613 340.797248 
L 866.900384 336.160062 
L 889.853155 328.353325 
L 912.805926 313.30969 
L 935.758697 272.656093 
L 958.711468 131.269966 
" clip-path="url(#p5d48250406)" style="fill: none; stroke: #5cb85c; stroke-linecap: square"/>
   </g>
   <g id="line2d_22">
    <path d="M 293.081107 353.223483 
L 316.033878 353.212606 
L 338.986649 353.122514 
L 361.93942 352.818906 
L 384.892191 352.415867 
L 407.844962 352.081408 
L 430.797733 351.776876 
L 453.750505 351.489419 
L 476.703276 351.113803 
L 499.656047 350.643745 
L 522.608818 350.117281 
L 545.561589 349.447308 
L 568.51436 348.697439 
L 591.467131 347.622823 
L 614.419902 344.805354 
L 637.372673 335.551065 
L 660.325444 344.065592 
L 683.278215 344.917001 
L 706.230986 343.7007 
L 729.183758 342.238536 
L 752.136529 340.444902 
L 775.0893 338.230123 
L 798.042071 335.352249 
L 820.994842 331.786515 
L 843.947613 326.922408 
L 866.900384 320.317799 
L 889.853155 310.826988 
L 912.805926 297.647544 
L 935.758697 280.896939 
L 958.711468 286.881631 
" clip-path="url(#p5d48250406)" style="fill: none; stroke: #5cb85c; stroke-linecap: square"/>
   </g>
   <g id="line2d_23">
    <path d="M 338.986649 353.223856 
L 361.93942 353.223658 
L 384.892191 353.221219 
L 407.844962 353.213946 
L 430.797733 353.19885 
L 453.750505 353.173361 
L 476.703276 353.138884 
L 499.656047 353.089642 
L 522.608818 353.023567 
L 545.561589 352.921764 
L 568.51436 352.773618 
L 591.467131 352.548719 
L 614.419902 351.732754 
L 637.372673 351.357665 
L 660.325444 351.477443 
L 683.278215 350.990378 
L 706.230986 350.331281 
L 729.183758 349.477807 
L 752.136529 348.389831 
L 775.0893 346.99605 
L 798.042071 345.115488 
L 820.994842 342.454976 
L 843.947613 338.345902 
L 866.900384 332.526869 
L 889.853155 323.268428 
L 912.805926 307.513268 
L 935.758697 265.353868 
L 958.711468 95.443208 
" clip-path="url(#p5d48250406)" style="fill: none; stroke: #5cb85c; stroke-linecap: square"/>
   </g>
   <g id="line2d_24">
    <path d="M 293.081107 353.22368 
L 316.033878 353.214957 
L 338.986649 353.144092 
L 361.93942 352.902493 
L 384.892191 352.551949 
L 407.844962 352.149548 
L 430.797733 351.722931 
L 453.750505 351.302204 
L 476.703276 350.813381 
L 499.656047 350.252462 
L 522.608818 349.62648 
L 545.561589 348.942905 
L 568.51436 348.162581 
L 591.467131 347.289594 
L 614.419902 346.099837 
L 637.372673 344.878503 
L 660.325444 344.354456 
L 683.278215 343.088363 
L 706.230986 341.571112 
L 729.183758 339.741683 
L 752.136529 337.453183 
L 775.0893 334.62565 
L 798.042071 331.002828 
L 820.994842 326.22187 
L 843.947613 319.92656 
L 866.900384 311.392807 
L 889.853155 300.553721 
L 912.805926 288.056248 
L 935.758697 276.552199 
L 958.711468 293.155823 
" clip-path="url(#p5d48250406)" style="fill: none; stroke: #5cb85c; stroke-linecap: square"/>
   </g>
   <g id="line2d_25">
    <path d="M 361.93942 353.223614 
L 384.892191 353.220956 
L 407.844962 353.213221 
L 430.797733 353.194631 
L 453.750505 353.163714 
L 476.703276 353.114252 
L 499.656047 353.026731 
L 522.608818 352.839868 
L 545.561589 352.48115 
L 568.51436 351.761078 
L 591.467131 349.766276 
L 614.419902 326.977847 
L 637.372673 333.2919 
L 660.325444 349.058288 
L 683.278215 349.933692 
L 706.230986 349.444363 
L 729.183758 348.578034 
L 752.136529 347.375994 
L 775.0893 345.852261 
L 798.042071 343.685164 
L 820.994842 340.66611 
L 843.947613 336.037757 
L 866.900384 329.43651 
L 889.853155 318.614916 
L 912.805926 300.270064 
L 935.758697 254.528626 
L 958.711468 93.690885 
" clip-path="url(#p5d48250406)" style="fill: none; stroke: #5cb85c; stroke-linecap: square"/>
   </g>
   <g id="line2d_26">
    <path d="M 293.081107 353.223439 
L 316.033878 353.208145 
L 338.986649 353.057099 
L 361.93942 352.573351 
L 384.892191 352.001226 
L 407.844962 351.575269 
L 430.797733 351.218353 
L 453.750505 350.804657 
L 476.703276 350.204384 
L 499.656047 349.360556 
L 522.608818 348.232083 
L 545.561589 346.846937 
L 568.51436 344.827591 
L 591.467131 340.878133 
L 614.419902 328.198389 
L 637.372673 328.49378 
L 660.325444 343.62566 
L 683.278215 342.781305 
L 706.230986 341.146144 
L 729.183758 339.039607 
L 752.136529 336.521703 
L 775.0893 333.309435 
L 798.042071 329.205371 
L 820.994842 323.74833 
L 843.947613 316.487174 
L 866.900384 307.066282 
L 889.853155 295.139199 
L 912.805926 281.521032 
L 935.758697 270.076993 
L 958.711468 291.747979 
" clip-path="url(#p5d48250406)" style="fill: none; stroke: #5cb85c; stroke-linecap: square"/>
   </g>
   <g id="line2d_27">
    <path d="M 361.93942 353.223834 
L 384.892191 353.222845 
L 407.844962 353.220033 
L 430.797733 353.212979 
L 453.750505 353.200147 
L 476.703276 353.175404 
L 499.656047 353.135786 
L 522.608818 353.075337 
L 545.561589 352.974456 
L 568.51436 352.82218 
L 591.467131 352.611849 
L 614.419902 351.972902 
L 637.372673 351.552966 
L 660.325444 351.407304 
L 683.278215 350.841375 
L 706.230986 350.097373 
L 729.183758 349.134361 
L 752.136529 347.910874 
L 775.0893 346.372506 
L 798.042071 344.37131 
L 820.994842 341.708469 
L 843.947613 337.851651 
L 866.900384 331.972587 
L 889.853155 322.096931 
L 912.805926 302.973513 
L 935.758697 251.094535 
L 958.711468 75.193779 
" clip-path="url(#p5d48250406)" style="fill: none; stroke: #5cb85c; stroke-linecap: square"/>
   </g>
   <g id="line2d_28">
    <path d="M 293.081107 353.223658 
L 316.033878 353.214803 
L 338.986649 353.129612 
L 361.93942 352.829936 
L 384.892191 352.291233 
L 407.844962 351.627456 
L 430.797733 350.930346 
L 453.750505 350.232862 
L 476.703276 349.508746 
L 499.656047 348.731234 
L 522.608818 347.895185 
L 545.561589 346.992446 
L 568.51436 346.014645 
L 591.467131 344.901554 
L 614.419902 343.632626 
L 637.372673 342.397757 
L 660.325444 341.359661 
L 683.278215 339.842783 
L 706.230986 338.060202 
L 729.183758 336.034593 
L 752.136529 333.56068 
L 775.0893 330.638485 
L 798.042071 327.063786 
L 820.994842 322.573141 
L 843.947613 316.905352 
L 866.900384 309.457465 
L 889.853155 299.839361 
L 912.805926 288.459199 
L 935.758697 277.933961 
L 958.711468 300.816217 
" clip-path="url(#p5d48250406)" style="fill: none; stroke: #5cb85c; stroke-linecap: square"/>
   </g>
   <g id="line2d_29">
    <path d="M 361.93942 353.223768 
L 384.892191 353.222669 
L 407.844962 353.218341 
L 430.797733 353.207398 
L 453.750505 353.190544 
L 476.703276 353.163253 
L 499.656047 353.113285 
L 522.608818 353.033653 
L 545.561589 352.889968 
L 568.51436 352.658631 
L 591.467131 352.227905 
L 614.419902 348.752834 
L 637.372673 348.661314 
L 660.325444 350.87038 
L 683.278215 350.481317 
L 706.230986 349.734084 
L 729.183758 348.706404 
L 752.136529 347.400253 
L 775.0893 345.741338 
L 798.042071 343.626935 
L 820.994842 340.76275 
L 843.947613 336.676594 
L 866.900384 330.469399 
L 889.853155 319.977451 
L 912.805926 299.517251 
L 935.758697 243.773413 
L 958.711468 50.397232 
" clip-path="url(#p5d48250406)" style="fill: none; stroke: #5cb85c; stroke-linecap: square"/>
   </g>
   <g id="line2d_30">
    <path d="M 293.081107 353.223526 
L 316.033878 353.214298 
L 338.986649 353.140159 
L 361.93942 352.865753 
L 384.892191 352.428062 
L 407.844962 352.008719 
L 430.797733 351.588959 
L 453.750505 351.144302 
L 476.703276 350.616388 
L 499.656047 350.00693 
L 522.608818 349.285648 
L 545.561589 348.46408 
L 568.51436 347.486631 
L 591.467131 346.259123 
L 614.419902 343.902856 
L 637.372673 341.402905 
L 660.325444 343.330973 
L 683.278215 342.191293 
L 706.230986 340.484828 
L 729.183758 338.446673 
L 752.136529 335.961289 
L 775.0893 332.880621 
L 798.042071 329.051424 
L 820.994842 324.007354 
L 843.947613 317.491387 
L 866.900384 308.453033 
L 889.853155 295.676869 
L 912.805926 277.57922 
L 935.758697 254.013434 
L 958.711468 261.763326 
" clip-path="url(#p5d48250406)" style="fill: none; stroke: #5cb85c; stroke-linecap: square"/>
   </g>
   <g id="line2d_31">
    <path d="M 361.93942 353.223746 
L 384.892191 353.221175 
L 407.844962 353.214847 
L 430.797733 353.198806 
L 453.750505 353.171823 
L 476.703276 353.137324 
L 499.656047 353.076985 
L 522.608818 352.981114 
L 545.561589 352.788121 
L 568.51436 352.467461 
L 591.467131 351.779975 
L 614.419902 342.740917 
L 637.372673 335.311927 
L 660.325444 348.929611 
L 683.278215 350.054151 
L 706.230986 349.583148 
L 729.183758 348.731586 
L 752.136529 347.548508 
L 775.0893 346.028005 
L 798.042071 343.985081 
L 820.994842 341.193145 
L 843.947613 337.021051 
L 866.900384 330.921219 
L 889.853155 320.908448 
L 912.805926 302.639076 
L 935.758697 253.28132 
L 958.711468 80.335785 
" clip-path="url(#p5d48250406)" style="fill: none; stroke: #5cb85c; stroke-linecap: square"/>
   </g>
   <g id="line2d_32">
    <path d="M 293.081107 353.223702 
L 316.033878 353.212166 
L 338.986649 353.08461 
L 361.93942 352.652698 
L 384.892191 351.997645 
L 407.844962 351.308071 
L 430.797733 350.614938 
L 453.750505 349.927649 
L 476.703276 349.18813 
L 499.656047 348.374494 
L 522.608818 347.464943 
L 545.561589 346.422013 
L 568.51436 345.140054 
L 591.467131 343.331918 
L 614.419902 338.568736 
L 637.372673 322.868004 
L 660.325444 338.521888 
L 683.278215 339.64322 
L 706.230986 337.944577 
L 729.183758 335.971287 
L 752.136529 333.57437 
L 775.0893 330.637628 
L 798.042071 327.054535 
L 820.994842 322.458923 
L 843.947613 316.675861 
L 866.900384 309.271217 
L 889.853155 300.075818 
L 912.805926 289.957487 
L 935.758697 281.536215 
L 958.711468 300.44326 
" clip-path="url(#p5d48250406)" style="fill: none; stroke: #5cb85c; stroke-linecap: square"/>
   </g>
   <g id="line2d_33">
    <path d="M 338.986649 353.223878 
L 361.93942 353.223526 
L 384.892191 353.22056 
L 407.844962 353.211463 
L 430.797733 353.192258 
L 453.750505 353.157804 
L 476.703276 353.093135 
L 499.656047 352.986652 
L 522.608818 352.792669 
L 545.561589 352.514067 
L 568.51436 352.103096 
L 591.467131 351.284757 
L 614.419902 344.907223 
L 637.372673 346.416014 
L 660.325444 349.89359 
L 683.278215 349.451263 
L 706.230986 348.478956 
L 729.183758 347.158895 
L 752.136529 345.385103 
L 775.0893 343.321458 
L 798.042071 340.617856 
L 820.994842 336.754468 
L 843.947613 330.239402 
L 866.900384 321.977724 
L 889.853155 309.62108 
L 912.805926 291.937434 
L 935.758697 252.248453 
L 958.711468 122.184039 
" clip-path="url(#p5d48250406)" style="fill: none; stroke: #5cb85c; stroke-linecap: square"/>
   </g>
   <g id="line2d_34">
    <path d="M 270.128336 353.223878 
L 293.081107 353.223219 
L 316.033878 353.209947 
L 338.986649 353.088917 
L 361.93942 352.762983 
L 384.892191 352.346497 
L 407.844962 351.983713 
L 430.797733 351.641651 
L 453.750505 351.240634 
L 476.703276 350.716587 
L 499.656047 350.01216 
L 522.608818 349.165871 
L 545.561589 348.212241 
L 568.51436 347.041403 
L 591.467131 345.234716 
L 614.419902 340.836713 
L 637.372673 340.80083 
L 660.325444 343.135343 
L 683.278215 341.500182 
L 706.230986 339.304168 
L 729.183758 336.570286 
L 752.136529 333.055069 
L 775.0893 328.961465 
L 798.042071 323.569114 
L 820.994842 316.417034 
L 843.947613 307.144816 
L 866.900384 296.416719 
L 889.853155 285.599738 
L 912.805926 278.07824 
L 935.758697 280.976923 
L 958.711468 318.797472 
" clip-path="url(#p5d48250406)" style="fill: none; stroke: #5cb85c; stroke-linecap: square"/>
   </g>
   <g id="line2d_35">
    <path d="M 361.93942 353.223856 
L 384.892191 353.223131 
L 407.844962 353.220648 
L 430.797733 353.214429 
L 453.750505 353.2023 
L 476.703276 353.18571 
L 499.656047 353.150882 
L 522.608818 353.097486 
L 545.561589 353.003176 
L 568.51436 352.874543 
L 591.467131 352.674452 
L 614.419902 352.104568 
L 637.372673 351.885514 
L 660.325444 351.621985 
L 683.278215 351.085149 
L 706.230986 350.428448 
L 729.183758 349.55144 
L 752.136529 348.468958 
L 775.0893 347.07177 
L 798.042071 345.332037 
L 820.994842 342.940481 
L 843.947613 339.494261 
L 866.900384 334.390709 
L 889.853155 325.811953 
L 912.805926 309.336347 
L 935.758697 264.250027 
L 958.711468 116.301833 
" clip-path="url(#p5d48250406)" style="fill: none; stroke: #5cb85c; stroke-linecap: square"/>
   </g>
   <g id="line2d_36">
    <path d="M 293.081107 353.223153 
L 316.033878 353.214495 
L 338.986649 353.132578 
L 361.93942 352.810292 
L 384.892191 352.252779 
L 407.844962 351.647606 
L 430.797733 351.161508 
L 453.750505 350.766247 
L 476.703276 350.33194 
L 499.656047 349.822374 
L 522.608818 349.223947 
L 545.561589 348.514245 
L 568.51436 347.701796 
L 591.467131 346.808989 
L 614.419902 345.711345 
L 637.372673 344.79507 
L 660.325444 343.758578 
L 683.278215 342.428608 
L 706.230986 340.887427 
L 729.183758 339.017216 
L 752.136529 336.774926 
L 775.0893 334.021355 
L 798.042071 330.629454 
L 820.994842 326.323585 
L 843.947613 320.728001 
L 866.900384 313.559507 
L 889.853155 304.544797 
L 912.805926 294.480015 
L 935.758697 286.358792 
L 958.711468 309.187169 
" clip-path="url(#p5d48250406)" style="fill: none; stroke: #5cb85c; stroke-linecap: square"/>
   </g>
   <g id="line2d_37">
    <path d="M 361.93942 353.22368 
L 384.892191 353.222538 
L 407.844962 353.217791 
L 430.797733 353.207684 
L 453.750505 353.19217 
L 476.703276 353.161693 
L 499.656047 353.120449 
L 522.608818 353.047936 
L 545.561589 352.919632 
L 568.51436 352.723299 
L 591.467131 352.42793 
L 614.419902 351.51994 
L 637.372673 351.057858 
L 660.325444 351.058078 
L 683.278215 350.477977 
L 706.230986 349.682754 
L 729.183758 348.71983 
L 752.136529 347.544861 
L 775.0893 346.044375 
L 798.042071 344.117538 
L 820.994842 341.408838 
L 843.947613 337.561381 
L 866.900384 331.739272 
L 889.853155 322.057884 
L 912.805926 304.035362 
L 935.758697 255.183745 
L 958.711468 92.042254 
" clip-path="url(#p5d48250406)" style="fill: none; stroke: #5cb85c; stroke-linecap: square"/>
   </g>
   <g id="line2d_38">
    <path d="M 293.081107 353.222999 
L 316.033878 353.21522 
L 338.986649 353.155079 
L 361.93942 352.94121 
L 384.892191 352.554762 
L 407.844962 352.082924 
L 430.797733 351.592914 
L 453.750505 351.103871 
L 476.703276 350.560487 
L 499.656047 349.958852 
L 522.608818 349.295712 
L 545.561589 348.542481 
L 568.51436 347.748204 
L 591.467131 346.813933 
L 614.419902 345.567484 
L 637.372673 344.180558 
L 660.325444 343.638251 
L 683.278215 342.302084 
L 706.230986 340.712342 
L 729.183758 338.824837 
L 752.136529 336.544577 
L 775.0893 333.759343 
L 798.042071 330.303806 
L 820.994842 325.887586 
L 843.947613 319.983999 
L 866.900384 312.015515 
L 889.853155 300.896442 
L 912.805926 286.171336 
L 935.758697 268.808306 
L 958.711468 285.003332 
" clip-path="url(#p5d48250406)" style="fill: none; stroke: #5cb85c; stroke-linecap: square"/>
   </g>
   <g id="line2d_39">
    <path d="M 338.986649 353.223878 
L 361.93942 353.22357 
L 384.892191 353.221483 
L 407.844962 353.213594 
L 430.797733 353.197356 
L 453.750505 353.172108 
L 476.703276 353.136995 
L 499.656047 353.086785 
L 522.608818 353.015393 
L 545.561589 352.909305 
L 568.51436 352.729188 
L 591.467131 352.4385 
L 614.419902 350.695163 
L 637.372673 350.547874 
L 660.325444 351.3389 
L 683.278215 350.928654 
L 706.230986 350.261559 
L 729.183758 349.39066 
L 752.136529 348.264142 
L 775.0893 346.808066 
L 798.042071 344.870967 
L 820.994842 342.129108 
L 843.947613 337.952026 
L 866.900384 332.053823 
L 889.853155 322.43451 
L 912.805926 305.854024 
L 935.758697 262.41271 
L 958.711468 95.332242 
" clip-path="url(#p5d48250406)" style="fill: none; stroke: #5cb85c; stroke-linecap: square"/>
   </g>
   <g id="line2d_40">
    <path d="M 270.128336 353.223878 
L 293.081107 353.223021 
L 316.033878 353.209068 
L 338.986649 353.101288 
L 361.93942 352.770564 
L 384.892191 352.34887 
L 407.844962 351.915881 
L 430.797733 351.480673 
L 453.750505 351.069372 
L 476.703276 350.567892 
L 499.656047 349.996426 
L 522.608818 349.345438 
L 545.561589 348.586187 
L 568.51436 347.720649 
L 591.467131 346.632585 
L 614.419902 344.916408 
L 637.372673 344.024853 
L 660.325444 343.867874 
L 683.278215 342.602264 
L 706.230986 340.999163 
L 729.183758 339.052461 
L 752.136529 336.678044 
L 775.0893 333.729591 
L 798.042071 329.928212 
L 820.994842 324.970938 
L 843.947613 318.391774 
L 866.900384 309.837212 
L 889.853155 298.99182 
L 912.805926 286.982445 
L 935.758697 277.204681 
L 958.711468 300.144749 
" clip-path="url(#p5d48250406)" style="fill: none; stroke: #5cb85c; stroke-linecap: square"/>
   </g>
   <g id="line2d_41">
    <path d="M 40.600625 353.2239 
L 993.140625 353.2239 
" clip-path="url(#p5d48250406)" style="fill: none; stroke: #dedede; stroke-width: 2; stroke-linecap: square"/>
   </g>
   <g id="text_21">
    <!-- FastQC: Per Sequence Quality Scores -->
    <g transform="translate(368.678125 19.3575) scale(0.16 -0.16)">
     <defs>
      <path id="DejaVuSans-46" d="M 628 4666 
L 3309 4666 
L 3309 4134 
L 1259 4134 
L 1259 2759 
L 3109 2759 
L 3109 2228 
L 1259 2228 
L 1259 0 
L 628 0 
L 628 4666 
z
" transform="scale(0.015625)"/>
      <path id="DejaVuSans-73" d="M 2834 3397 
L 2834 2853 
Q 2591 2978 2328 3040 
Q 2066 3103 1784 3103 
Q 1356 3103 1142 2972 
Q 928 2841 928 2578 
Q 928 2378 1081 2264 
Q 1234 2150 1697 2047 
L 1894 2003 
Q 2506 1872 2764 1633 
Q 3022 1394 3022 966 
Q 3022 478 2636 193 
Q 2250 -91 1575 -91 
Q 1294 -91 989 -36 
Q 684 19 347 128 
L 347 722 
Q 666 556 975 473 
Q 1284 391 1588 391 
Q 1994 391 2212 530 
Q 2431 669 2431 922 
Q 2431 1156 2273 1281 
Q 2116 1406 1581 1522 
L 1381 1569 
Q 847 1681 609 1914 
Q 372 2147 372 2553 
Q 372 3047 722 3315 
Q 1072 3584 1716 3584 
Q 2034 3584 2315 3537 
Q 2597 3491 2834 3397 
z
" transform="scale(0.015625)"/>
      <path id="DejaVuSans-3a" d="M 750 794 
L 1409 794 
L 1409 0 
L 750 0 
L 750 794 
z
M 750 3309 
L 1409 3309 
L 1409 2516 
L 750 2516 
L 750 3309 
z
" transform="scale(0.015625)"/>
     </defs>
     <use xlink:href="#DejaVuSans-46"/>
     <use xlink:href="#DejaVuSans-61" x="48.394531"/>
     <use xlink:href="#DejaVuSans-73" x="109.673828"/>
     <use xlink:href="#DejaVuSans-74" x="161.773438"/>
     <use xlink:href="#DejaVuSans-51" x="200.982422"/>
     <use xlink:href="#DejaVuSans-43" x="279.693359"/>
     <use xlink:href="#DejaVuSans-3a" x="349.517578"/>
     <use xlink:href="#DejaVuSans-20" x="383.208984"/>
     <use xlink:href="#DejaVuSans-50" x="414.996094"/>
     <use xlink:href="#DejaVuSans-65" x="471.673828"/>
     <use xlink:href="#DejaVuSans-72" x="533.197266"/>
     <use xlink:href="#DejaVuSans-20" x="574.310547"/>
     <use xlink:href="#DejaVuSans-53" x="606.097656"/>
     <use xlink:href="#DejaVuSans-65" x="669.574219"/>
     <use xlink:href="#DejaVuSans-71" x="731.097656"/>
     <use xlink:href="#DejaVuSans-75" x="794.574219"/>
     <use xlink:href="#DejaVuSans-65" x="857.953125"/>
     <use xlink:href="#DejaVuSans-6e" x="919.476562"/>
     <use xlink:href="#DejaVuSans-63" x="982.855469"/>
     <use xlink:href="#DejaVuSans-65" x="1037.835938"/>
     <use xlink:href="#DejaVuSans-20" x="1099.359375"/>
     <use xlink:href="#DejaVuSans-51" x="1131.146484"/>
     <use xlink:href="#DejaVuSans-75" x="1209.857422"/>
     <use xlink:href="#DejaVuSans-61" x="1273.236328"/>
     <use xlink:href="#DejaVuSans-6c" x="1334.515625"/>
     <use xlink:href="#DejaVuSans-69" x="1362.298828"/>
     <use xlink:href="#DejaVuSans-74" x="1390.082031"/>
     <use xlink:href="#DejaVuSans-79" x="1429.291016"/>
     <use xlink:href="#DejaVuSans-20" x="1488.470703"/>
     <use xlink:href="#DejaVuSans-53" x="1520.257812"/>
     <use xlink:href="#DejaVuSans-63" x="1583.734375"/>
     <use xlink:href="#DejaVuSans-6f" x="1638.714844"/>
     <use xlink:href="#DejaVuSans-72" x="1699.896484"/>
     <use xlink:href="#DejaVuSans-65" x="1738.759766"/>
     <use xlink:href="#DejaVuSans-73" x="1800.283203"/>
    </g>
   </g>
  </g>
 </g>
 <defs>
  <clipPath id="p5d48250406">
   <rect x="40.600625" y="35.2559" width="952.54" height="317.968"/>
  </clipPath>
 </defs>
</svg>
