<?xml version="1.0" encoding="utf-8" standalone="no"?>
<!DOCTYPE svg PUBLIC "-//W3C//DTD SVG 1.1//EN"
  "http://www.w3.org/Graphics/SVG/1.1/DTD/svg11.dtd">
<svg xmlns:xlink="http://www.w3.org/1999/xlink" width="1000.278125pt" height="388.844525pt" viewBox="0 0 1000.278125 388.844525" xmlns="http://www.w3.org/2000/svg" version="1.1">
 <metadata>
  <rdf:RDF xmlns:dc="http://purl.org/dc/elements/1.1/" xmlns:cc="http://creativecommons.org/ns#" xmlns:rdf="http://www.w3.org/1999/02/22-rdf-syntax-ns#">
   <cc:Work>
    <dc:type rdf:resource="http://purl.org/dc/dcmitype/StillImage"/>
    <dc:date>2024-08-15T09:46:22.607060</dc:date>
    <dc:format>image/svg+xml</dc:format>
    <dc:creator>
     <cc:Agent>
      <dc:title>Matplotlib v3.8.2, https://matplotlib.org/</dc:title>
     </cc:Agent>
    </dc:creator>
   </cc:Work>
  </rdf:RDF>
 </metadata>
 <defs>
  <style type="text/css">*{stroke-linejoin: round; stroke-linecap: butt}</style>
 </defs>
 <g id="figure_1">
  <g id="axes_1">
   <g id="patch_1">
    <path d="M 43.148125 353.2239 
L 993.078125 353.2239 
L 993.078125 35.2559 
L 43.148125 35.2559 
z
" style="fill: #ffffff"/>
   </g>
   <g id="matplotlib.axis_1">
    <g id="xtick_1">
     <g id="text_1">
      <!-- 1.0 -->
      <g transform="translate(79.965511 366.30265) scale(0.08 -0.08)">
       <defs>
        <path id="DejaVuSans-31" d="M 794 531 
L 1825 531 
L 1825 4091 
L 703 3866 
L 703 4441 
L 1819 4666 
L 2450 4666 
L 2450 531 
L 3481 531 
L 3481 0 
L 794 0 
L 794 531 
z
" transform="scale(0.015625)"/>
        <path id="DejaVuSans-2e" d="M 684 794 
L 1344 794 
L 1344 0 
L 684 0 
L 684 794 
z
" transform="scale(0.015625)"/>
        <path id="DejaVuSans-30" d="M 2034 4250 
Q 1547 4250 1301 3770 
Q 1056 3291 1056 2328 
Q 1056 1369 1301 889 
Q 1547 409 2034 409 
Q 2525 409 2770 889 
Q 3016 1369 3016 2328 
Q 3016 3291 2770 3770 
Q 2525 4250 2034 4250 
z
M 2034 4750 
Q 2819 4750 3233 4129 
Q 3647 3509 3647 2328 
Q 3647 1150 3233 529 
Q 2819 -91 2034 -91 
Q 1250 -91 836 529 
Q 422 1150 422 2328 
Q 422 3509 836 4129 
Q 1250 4750 2034 4750 
z
" transform="scale(0.015625)"/>
       </defs>
       <use xlink:href="#DejaVuSans-31"/>
       <use xlink:href="#DejaVuSans-2e" x="63.623047"/>
       <use xlink:href="#DejaVuSans-30" x="95.410156"/>
      </g>
     </g>
    </g>
    <g id="xtick_2">
     <g id="text_2">
      <!-- 2.0 -->
      <g transform="translate(137.537027 366.30265) scale(0.08 -0.08)">
       <defs>
        <path id="DejaVuSans-32" d="M 1228 531 
L 3431 531 
L 3431 0 
L 469 0 
L 469 531 
Q 828 903 1448 1529 
Q 2069 2156 2228 2338 
Q 2531 2678 2651 2914 
Q 2772 3150 2772 3378 
Q 2772 3750 2511 3984 
Q 2250 4219 1831 4219 
Q 1534 4219 1204 4116 
Q 875 4013 500 3803 
L 500 4441 
Q 881 4594 1212 4672 
Q 1544 4750 1819 4750 
Q 2544 4750 2975 4387 
Q 3406 4025 3406 3419 
Q 3406 3131 3298 2873 
Q 3191 2616 2906 2266 
Q 2828 2175 2409 1742 
Q 1991 1309 1228 531 
z
" transform="scale(0.015625)"/>
       </defs>
       <use xlink:href="#DejaVuSans-32"/>
       <use xlink:href="#DejaVuSans-2e" x="63.623047"/>
       <use xlink:href="#DejaVuSans-30" x="95.410156"/>
      </g>
     </g>
    </g>
    <g id="xtick_3">
     <g id="text_3">
      <!-- 3.0 -->
      <g transform="translate(195.108542 366.30265) scale(0.08 -0.08)">
       <defs>
        <path id="DejaVuSans-33" d="M 2597 2516 
Q 3050 2419 3304 2112 
Q 3559 1806 3559 1356 
Q 3559 666 3084 287 
Q 2609 -91 1734 -91 
Q 1441 -91 1130 -33 
Q 819 25 488 141 
L 488 750 
Q 750 597 1062 519 
Q 1375 441 1716 441 
Q 2309 441 2620 675 
Q 2931 909 2931 1356 
Q 2931 1769 2642 2001 
Q 2353 2234 1838 2234 
L 1294 2234 
L 1294 2753 
L 1863 2753 
Q 2328 2753 2575 2939 
Q 2822 3125 2822 3475 
Q 2822 3834 2567 4026 
Q 2313 4219 1838 4219 
Q 1578 4219 1281 4162 
Q 984 4106 628 3988 
L 628 4550 
Q 988 4650 1302 4700 
Q 1616 4750 1894 4750 
Q 2613 4750 3031 4423 
Q 3450 4097 3450 3541 
Q 3450 3153 3228 2886 
Q 3006 2619 2597 2516 
z
" transform="scale(0.015625)"/>
       </defs>
       <use xlink:href="#DejaVuSans-33"/>
       <use xlink:href="#DejaVuSans-2e" x="63.623047"/>
       <use xlink:href="#DejaVuSans-30" x="95.410156"/>
      </g>
     </g>
    </g>
    <g id="xtick_4">
     <g id="text_4">
      <!-- 4.0 -->
      <g transform="translate(252.680057 366.30265) scale(0.08 -0.08)">
       <defs>
        <path id="DejaVuSans-34" d="M 2419 4116 
L 825 1625 
L 2419 1625 
L 2419 4116 
z
M 2253 4666 
L 3047 4666 
L 3047 1625 
L 3713 1625 
L 3713 1100 
L 3047 1100 
L 3047 0 
L 2419 0 
L 2419 1100 
L 313 1100 
L 313 1709 
L 2253 4666 
z
" transform="scale(0.015625)"/>
       </defs>
       <use xlink:href="#DejaVuSans-34"/>
       <use xlink:href="#DejaVuSans-2e" x="63.623047"/>
       <use xlink:href="#DejaVuSans-30" x="95.410156"/>
      </g>
     </g>
    </g>
    <g id="xtick_5">
     <g id="text_5">
      <!-- 5.0 -->
      <g transform="translate(310.251572 366.30265) scale(0.08 -0.08)">
       <defs>
        <path id="DejaVuSans-35" d="M 691 4666 
L 3169 4666 
L 3169 4134 
L 1269 4134 
L 1269 2991 
Q 1406 3038 1543 3061 
Q 1681 3084 1819 3084 
Q 2600 3084 3056 2656 
Q 3513 2228 3513 1497 
Q 3513 744 3044 326 
Q 2575 -91 1722 -91 
Q 1428 -91 1123 -41 
Q 819 9 494 109 
L 494 744 
Q 775 591 1075 516 
Q 1375 441 1709 441 
Q 2250 441 2565 725 
Q 2881 1009 2881 1497 
Q 2881 1984 2565 2268 
Q 2250 2553 1709 2553 
Q 1456 2553 1204 2497 
Q 953 2441 691 2322 
L 691 4666 
z
" transform="scale(0.015625)"/>
       </defs>
       <use xlink:href="#DejaVuSans-35"/>
       <use xlink:href="#DejaVuSans-2e" x="63.623047"/>
       <use xlink:href="#DejaVuSans-30" x="95.410156"/>
      </g>
     </g>
    </g>
    <g id="xtick_6">
     <g id="text_6">
      <!-- 6.0 -->
      <g transform="translate(367.823087 366.30265) scale(0.08 -0.08)">
       <defs>
        <path id="DejaVuSans-36" d="M 2113 2584 
Q 1688 2584 1439 2293 
Q 1191 2003 1191 1497 
Q 1191 994 1439 701 
Q 1688 409 2113 409 
Q 2538 409 2786 701 
Q 3034 994 3034 1497 
Q 3034 2003 2786 2293 
Q 2538 2584 2113 2584 
z
M 3366 4563 
L 3366 3988 
Q 3128 4100 2886 4159 
Q 2644 4219 2406 4219 
Q 1781 4219 1451 3797 
Q 1122 3375 1075 2522 
Q 1259 2794 1537 2939 
Q 1816 3084 2150 3084 
Q 2853 3084 3261 2657 
Q 3669 2231 3669 1497 
Q 3669 778 3244 343 
Q 2819 -91 2113 -91 
Q 1303 -91 875 529 
Q 447 1150 447 2328 
Q 447 3434 972 4092 
Q 1497 4750 2381 4750 
Q 2619 4750 2861 4703 
Q 3103 4656 3366 4563 
z
" transform="scale(0.015625)"/>
       </defs>
       <use xlink:href="#DejaVuSans-36"/>
       <use xlink:href="#DejaVuSans-2e" x="63.623047"/>
       <use xlink:href="#DejaVuSans-30" x="95.410156"/>
      </g>
     </g>
    </g>
    <g id="xtick_7">
     <g id="text_7">
      <!-- 7.0 -->
      <g transform="translate(425.394602 366.30265) scale(0.08 -0.08)">
       <defs>
        <path id="DejaVuSans-37" d="M 525 4666 
L 3525 4666 
L 3525 4397 
L 1831 0 
L 1172 0 
L 2766 4134 
L 525 4134 
L 525 4666 
z
" transform="scale(0.015625)"/>
       </defs>
       <use xlink:href="#DejaVuSans-37"/>
       <use xlink:href="#DejaVuSans-2e" x="63.623047"/>
       <use xlink:href="#DejaVuSans-30" x="95.410156"/>
      </g>
     </g>
    </g>
    <g id="xtick_8">
     <g id="text_8">
      <!-- 8.0 -->
      <g transform="translate(482.966117 366.30265) scale(0.08 -0.08)">
       <defs>
        <path id="DejaVuSans-38" d="M 2034 2216 
Q 1584 2216 1326 1975 
Q 1069 1734 1069 1313 
Q 1069 891 1326 650 
Q 1584 409 2034 409 
Q 2484 409 2743 651 
Q 3003 894 3003 1313 
Q 3003 1734 2745 1975 
Q 2488 2216 2034 2216 
z
M 1403 2484 
Q 997 2584 770 2862 
Q 544 3141 544 3541 
Q 544 4100 942 4425 
Q 1341 4750 2034 4750 
Q 2731 4750 3128 4425 
Q 3525 4100 3525 3541 
Q 3525 3141 3298 2862 
Q 3072 2584 2669 2484 
Q 3125 2378 3379 2068 
Q 3634 1759 3634 1313 
Q 3634 634 3220 271 
Q 2806 -91 2034 -91 
Q 1263 -91 848 271 
Q 434 634 434 1313 
Q 434 1759 690 2068 
Q 947 2378 1403 2484 
z
M 1172 3481 
Q 1172 3119 1398 2916 
Q 1625 2713 2034 2713 
Q 2441 2713 2670 2916 
Q 2900 3119 2900 3481 
Q 2900 3844 2670 4047 
Q 2441 4250 2034 4250 
Q 1625 4250 1398 4047 
Q 1172 3844 1172 3481 
z
" transform="scale(0.015625)"/>
       </defs>
       <use xlink:href="#DejaVuSans-38"/>
       <use xlink:href="#DejaVuSans-2e" x="63.623047"/>
       <use xlink:href="#DejaVuSans-30" x="95.410156"/>
      </g>
     </g>
    </g>
    <g id="xtick_9">
     <g id="text_9">
      <!-- 9.0 -->
      <g transform="translate(540.537633 366.30265) scale(0.08 -0.08)">
       <defs>
        <path id="DejaVuSans-39" d="M 703 97 
L 703 672 
Q 941 559 1184 500 
Q 1428 441 1663 441 
Q 2288 441 2617 861 
Q 2947 1281 2994 2138 
Q 2813 1869 2534 1725 
Q 2256 1581 1919 1581 
Q 1219 1581 811 2004 
Q 403 2428 403 3163 
Q 403 3881 828 4315 
Q 1253 4750 1959 4750 
Q 2769 4750 3195 4129 
Q 3622 3509 3622 2328 
Q 3622 1225 3098 567 
Q 2575 -91 1691 -91 
Q 1453 -91 1209 -44 
Q 966 3 703 97 
z
M 1959 2075 
Q 2384 2075 2632 2365 
Q 2881 2656 2881 3163 
Q 2881 3666 2632 3958 
Q 2384 4250 1959 4250 
Q 1534 4250 1286 3958 
Q 1038 3666 1038 3163 
Q 1038 2656 1286 2365 
Q 1534 2075 1959 2075 
z
" transform="scale(0.015625)"/>
       </defs>
       <use xlink:href="#DejaVuSans-39"/>
       <use xlink:href="#DejaVuSans-2e" x="63.623047"/>
       <use xlink:href="#DejaVuSans-30" x="95.410156"/>
      </g>
     </g>
    </g>
    <g id="xtick_10">
     <g id="text_10">
      <!-- &gt;10 -->
      <g transform="translate(596.028523 366.30265) scale(0.08 -0.08)">
       <defs>
        <path id="DejaVuSans-3e" d="M 678 3150 
L 678 3719 
L 4684 2266 
L 4684 1747 
L 678 294 
L 678 863 
L 3897 2003 
L 678 3150 
z
" transform="scale(0.015625)"/>
       </defs>
       <use xlink:href="#DejaVuSans-3e"/>
       <use xlink:href="#DejaVuSans-31" x="83.789062"/>
       <use xlink:href="#DejaVuSans-30" x="147.412109"/>
      </g>
     </g>
    </g>
    <g id="xtick_11">
     <g id="text_11">
      <!-- &gt;50 -->
      <g transform="translate(653.600038 366.30265) scale(0.08 -0.08)">
       <use xlink:href="#DejaVuSans-3e"/>
       <use xlink:href="#DejaVuSans-35" x="83.789062"/>
       <use xlink:href="#DejaVuSans-30" x="147.412109"/>
      </g>
     </g>
    </g>
    <g id="xtick_12">
     <g id="text_12">
      <!-- &gt;100 -->
      <g transform="translate(708.626553 366.30265) scale(0.08 -0.08)">
       <use xlink:href="#DejaVuSans-3e"/>
       <use xlink:href="#DejaVuSans-31" x="83.789062"/>
       <use xlink:href="#DejaVuSans-30" x="147.412109"/>
       <use xlink:href="#DejaVuSans-30" x="211.035156"/>
      </g>
     </g>
    </g>
    <g id="xtick_13">
     <g id="text_13">
      <!-- &gt;500 -->
      <g transform="translate(766.198068 366.30265) scale(0.08 -0.08)">
       <use xlink:href="#DejaVuSans-3e"/>
       <use xlink:href="#DejaVuSans-35" x="83.789062"/>
       <use xlink:href="#DejaVuSans-30" x="147.412109"/>
       <use xlink:href="#DejaVuSans-30" x="211.035156"/>
      </g>
     </g>
    </g>
    <g id="xtick_14">
     <g id="text_14">
      <!-- &gt;1k -->
      <g transform="translate(826.543333 366.30265) scale(0.08 -0.08)">
       <defs>
        <path id="DejaVuSans-6b" d="M 581 4863 
L 1159 4863 
L 1159 1991 
L 2875 3500 
L 3609 3500 
L 1753 1863 
L 3688 0 
L 2938 0 
L 1159 1709 
L 1159 0 
L 581 0 
L 581 4863 
z
" transform="scale(0.015625)"/>
       </defs>
       <use xlink:href="#DejaVuSans-3e"/>
       <use xlink:href="#DejaVuSans-31" x="83.789062"/>
       <use xlink:href="#DejaVuSans-6b" x="147.412109"/>
      </g>
     </g>
    </g>
    <g id="xtick_15">
     <g id="text_15">
      <!-- &gt;5k -->
      <g transform="translate(884.114848 366.30265) scale(0.08 -0.08)">
       <use xlink:href="#DejaVuSans-3e"/>
       <use xlink:href="#DejaVuSans-35" x="83.789062"/>
       <use xlink:href="#DejaVuSans-6b" x="147.412109"/>
      </g>
     </g>
    </g>
    <g id="xtick_16">
     <g id="text_16">
      <!-- &gt;10k+ -->
      <g transform="translate(935.789489 366.30265) scale(0.08 -0.08)">
       <defs>
        <path id="DejaVuSans-2b" d="M 2944 4013 
L 2944 2272 
L 4684 2272 
L 4684 1741 
L 2944 1741 
L 2944 0 
L 2419 0 
L 2419 1741 
L 678 1741 
L 678 2272 
L 2419 2272 
L 2419 4013 
L 2944 4013 
z
" transform="scale(0.015625)"/>
       </defs>
       <use xlink:href="#DejaVuSans-3e"/>
       <use xlink:href="#DejaVuSans-31" x="83.789062"/>
       <use xlink:href="#DejaVuSans-30" x="147.412109"/>
       <use xlink:href="#DejaVuSans-6b" x="211.035156"/>
       <use xlink:href="#DejaVuSans-2b" x="268.945312"/>
      </g>
     </g>
    </g>
    <g id="text_17">
     <!-- Sequence Duplication Level -->
     <g transform="translate(448.708437 379.564837) scale(0.1 -0.1)">
      <defs>
       <path id="DejaVuSans-53" d="M 3425 4513 
L 3425 3897 
Q 3066 4069 2747 4153 
Q 2428 4238 2131 4238 
Q 1616 4238 1336 4038 
Q 1056 3838 1056 3469 
Q 1056 3159 1242 3001 
Q 1428 2844 1947 2747 
L 2328 2669 
Q 3034 2534 3370 2195 
Q 3706 1856 3706 1288 
Q 3706 609 3251 259 
Q 2797 -91 1919 -91 
Q 1588 -91 1214 -16 
Q 841 59 441 206 
L 441 856 
Q 825 641 1194 531 
Q 1563 422 1919 422 
Q 2459 422 2753 634 
Q 3047 847 3047 1241 
Q 3047 1584 2836 1778 
Q 2625 1972 2144 2069 
L 1759 2144 
Q 1053 2284 737 2584 
Q 422 2884 422 3419 
Q 422 4038 858 4394 
Q 1294 4750 2059 4750 
Q 2388 4750 2728 4690 
Q 3069 4631 3425 4513 
z
" transform="scale(0.015625)"/>
       <path id="DejaVuSans-65" d="M 3597 1894 
L 3597 1613 
L 953 1613 
Q 991 1019 1311 708 
Q 1631 397 2203 397 
Q 2534 397 2845 478 
Q 3156 559 3463 722 
L 3463 178 
Q 3153 47 2828 -22 
Q 2503 -91 2169 -91 
Q 1331 -91 842 396 
Q 353 884 353 1716 
Q 353 2575 817 3079 
Q 1281 3584 2069 3584 
Q 2775 3584 3186 3129 
Q 3597 2675 3597 1894 
z
M 3022 2063 
Q 3016 2534 2758 2815 
Q 2500 3097 2075 3097 
Q 1594 3097 1305 2825 
Q 1016 2553 972 2059 
L 3022 2063 
z
" transform="scale(0.015625)"/>
       <path id="DejaVuSans-71" d="M 947 1747 
Q 947 1113 1208 752 
Q 1469 391 1925 391 
Q 2381 391 2643 752 
Q 2906 1113 2906 1747 
Q 2906 2381 2643 2742 
Q 2381 3103 1925 3103 
Q 1469 3103 1208 2742 
Q 947 2381 947 1747 
z
M 2906 525 
Q 2725 213 2448 61 
Q 2172 -91 1784 -91 
Q 1150 -91 751 415 
Q 353 922 353 1747 
Q 353 2572 751 3078 
Q 1150 3584 1784 3584 
Q 2172 3584 2448 3432 
Q 2725 3281 2906 2969 
L 2906 3500 
L 3481 3500 
L 3481 -1331 
L 2906 -1331 
L 2906 525 
z
" transform="scale(0.015625)"/>
       <path id="DejaVuSans-75" d="M 544 1381 
L 544 3500 
L 1119 3500 
L 1119 1403 
Q 1119 906 1312 657 
Q 1506 409 1894 409 
Q 2359 409 2629 706 
Q 2900 1003 2900 1516 
L 2900 3500 
L 3475 3500 
L 3475 0 
L 2900 0 
L 2900 538 
Q 2691 219 2414 64 
Q 2138 -91 1772 -91 
Q 1169 -91 856 284 
Q 544 659 544 1381 
z
M 1991 3584 
L 1991 3584 
z
" transform="scale(0.015625)"/>
       <path id="DejaVuSans-6e" d="M 3513 2113 
L 3513 0 
L 2938 0 
L 2938 2094 
Q 2938 2591 2744 2837 
Q 2550 3084 2163 3084 
Q 1697 3084 1428 2787 
Q 1159 2491 1159 1978 
L 1159 0 
L 581 0 
L 581 3500 
L 1159 3500 
L 1159 2956 
Q 1366 3272 1645 3428 
Q 1925 3584 2291 3584 
Q 2894 3584 3203 3211 
Q 3513 2838 3513 2113 
z
" transform="scale(0.015625)"/>
       <path id="DejaVuSans-63" d="M 3122 3366 
L 3122 2828 
Q 2878 2963 2633 3030 
Q 2388 3097 2138 3097 
Q 1578 3097 1268 2742 
Q 959 2388 959 1747 
Q 959 1106 1268 751 
Q 1578 397 2138 397 
Q 2388 397 2633 464 
Q 2878 531 3122 666 
L 3122 134 
Q 2881 22 2623 -34 
Q 2366 -91 2075 -91 
Q 1284 -91 818 406 
Q 353 903 353 1747 
Q 353 2603 823 3093 
Q 1294 3584 2113 3584 
Q 2378 3584 2631 3529 
Q 2884 3475 3122 3366 
z
" transform="scale(0.015625)"/>
       <path id="DejaVuSans-20" transform="scale(0.015625)"/>
       <path id="DejaVuSans-44" d="M 1259 4147 
L 1259 519 
L 2022 519 
Q 2988 519 3436 956 
Q 3884 1394 3884 2338 
Q 3884 3275 3436 3711 
Q 2988 4147 2022 4147 
L 1259 4147 
z
M 628 4666 
L 1925 4666 
Q 3281 4666 3915 4102 
Q 4550 3538 4550 2338 
Q 4550 1131 3912 565 
Q 3275 0 1925 0 
L 628 0 
L 628 4666 
z
" transform="scale(0.015625)"/>
       <path id="DejaVuSans-70" d="M 1159 525 
L 1159 -1331 
L 581 -1331 
L 581 3500 
L 1159 3500 
L 1159 2969 
Q 1341 3281 1617 3432 
Q 1894 3584 2278 3584 
Q 2916 3584 3314 3078 
Q 3713 2572 3713 1747 
Q 3713 922 3314 415 
Q 2916 -91 2278 -91 
Q 1894 -91 1617 61 
Q 1341 213 1159 525 
z
M 3116 1747 
Q 3116 2381 2855 2742 
Q 2594 3103 2138 3103 
Q 1681 3103 1420 2742 
Q 1159 2381 1159 1747 
Q 1159 1113 1420 752 
Q 1681 391 2138 391 
Q 2594 391 2855 752 
Q 3116 1113 3116 1747 
z
" transform="scale(0.015625)"/>
       <path id="DejaVuSans-6c" d="M 603 4863 
L 1178 4863 
L 1178 0 
L 603 0 
L 603 4863 
z
" transform="scale(0.015625)"/>
       <path id="DejaVuSans-69" d="M 603 3500 
L 1178 3500 
L 1178 0 
L 603 0 
L 603 3500 
z
M 603 4863 
L 1178 4863 
L 1178 4134 
L 603 4134 
L 603 4863 
z
" transform="scale(0.015625)"/>
       <path id="DejaVuSans-61" d="M 2194 1759 
Q 1497 1759 1228 1600 
Q 959 1441 959 1056 
Q 959 750 1161 570 
Q 1363 391 1709 391 
Q 2188 391 2477 730 
Q 2766 1069 2766 1631 
L 2766 1759 
L 2194 1759 
z
M 3341 1997 
L 3341 0 
L 2766 0 
L 2766 531 
Q 2569 213 2275 61 
Q 1981 -91 1556 -91 
Q 1019 -91 701 211 
Q 384 513 384 1019 
Q 384 1609 779 1909 
Q 1175 2209 1959 2209 
L 2766 2209 
L 2766 2266 
Q 2766 2663 2505 2880 
Q 2244 3097 1772 3097 
Q 1472 3097 1187 3025 
Q 903 2953 641 2809 
L 641 3341 
Q 956 3463 1253 3523 
Q 1550 3584 1831 3584 
Q 2591 3584 2966 3190 
Q 3341 2797 3341 1997 
z
" transform="scale(0.015625)"/>
       <path id="DejaVuSans-74" d="M 1172 4494 
L 1172 3500 
L 2356 3500 
L 2356 3053 
L 1172 3053 
L 1172 1153 
Q 1172 725 1289 603 
Q 1406 481 1766 481 
L 2356 481 
L 2356 0 
L 1766 0 
Q 1100 0 847 248 
Q 594 497 594 1153 
L 594 3053 
L 172 3053 
L 172 3500 
L 594 3500 
L 594 4494 
L 1172 4494 
z
" transform="scale(0.015625)"/>
       <path id="DejaVuSans-6f" d="M 1959 3097 
Q 1497 3097 1228 2736 
Q 959 2375 959 1747 
Q 959 1119 1226 758 
Q 1494 397 1959 397 
Q 2419 397 2687 759 
Q 2956 1122 2956 1747 
Q 2956 2369 2687 2733 
Q 2419 3097 1959 3097 
z
M 1959 3584 
Q 2709 3584 3137 3096 
Q 3566 2609 3566 1747 
Q 3566 888 3137 398 
Q 2709 -91 1959 -91 
Q 1206 -91 779 398 
Q 353 888 353 1747 
Q 353 2609 779 3096 
Q 1206 3584 1959 3584 
z
" transform="scale(0.015625)"/>
       <path id="DejaVuSans-4c" d="M 628 4666 
L 1259 4666 
L 1259 531 
L 3531 531 
L 3531 0 
L 628 0 
L 628 4666 
z
" transform="scale(0.015625)"/>
       <path id="DejaVuSans-76" d="M 191 3500 
L 800 3500 
L 1894 563 
L 2988 3500 
L 3597 3500 
L 2284 0 
L 1503 0 
L 191 3500 
z
" transform="scale(0.015625)"/>
      </defs>
      <use xlink:href="#DejaVuSans-53"/>
      <use xlink:href="#DejaVuSans-65" x="63.476562"/>
      <use xlink:href="#DejaVuSans-71" x="125"/>
      <use xlink:href="#DejaVuSans-75" x="188.476562"/>
      <use xlink:href="#DejaVuSans-65" x="251.855469"/>
      <use xlink:href="#DejaVuSans-6e" x="313.378906"/>
      <use xlink:href="#DejaVuSans-63" x="376.757812"/>
      <use xlink:href="#DejaVuSans-65" x="431.738281"/>
      <use xlink:href="#DejaVuSans-20" x="493.261719"/>
      <use xlink:href="#DejaVuSans-44" x="525.048828"/>
      <use xlink:href="#DejaVuSans-75" x="602.050781"/>
      <use xlink:href="#DejaVuSans-70" x="665.429688"/>
      <use xlink:href="#DejaVuSans-6c" x="728.90625"/>
      <use xlink:href="#DejaVuSans-69" x="756.689453"/>
      <use xlink:href="#DejaVuSans-63" x="784.472656"/>
      <use xlink:href="#DejaVuSans-61" x="839.453125"/>
      <use xlink:href="#DejaVuSans-74" x="900.732422"/>
      <use xlink:href="#DejaVuSans-69" x="939.941406"/>
      <use xlink:href="#DejaVuSans-6f" x="967.724609"/>
      <use xlink:href="#DejaVuSans-6e" x="1028.90625"/>
      <use xlink:href="#DejaVuSans-20" x="1092.285156"/>
      <use xlink:href="#DejaVuSans-4c" x="1124.072266"/>
      <use xlink:href="#DejaVuSans-65" x="1178.035156"/>
      <use xlink:href="#DejaVuSans-76" x="1239.558594"/>
      <use xlink:href="#DejaVuSans-65" x="1298.738281"/>
      <use xlink:href="#DejaVuSans-6c" x="1360.261719"/>
     </g>
    </g>
   </g>
   <g id="matplotlib.axis_2">
    <g id="ytick_1">
     <g id="line2d_1">
      <path d="M 43.148125 353.2239 
L 993.078125 353.2239 
" clip-path="url(#pc31a192036)" style="fill: none; stroke: #dedede; stroke-linecap: square"/>
     </g>
     <g id="text_18">
      <!-- 0 -->
      <g transform="translate(31.058125 356.263275) scale(0.08 -0.08)">
       <use xlink:href="#DejaVuSans-30"/>
      </g>
     </g>
    </g>
    <g id="ytick_2">
     <g id="line2d_2">
      <path d="M 43.148125 289.6303 
L 993.078125 289.6303 
" clip-path="url(#pc31a192036)" style="fill: none; stroke: #dedede; stroke-linecap: square"/>
     </g>
     <g id="text_19">
      <!-- 20 -->
      <g transform="translate(25.968125 292.669675) scale(0.08 -0.08)">
       <use xlink:href="#DejaVuSans-32"/>
       <use xlink:href="#DejaVuSans-30" x="63.623047"/>
      </g>
     </g>
    </g>
    <g id="ytick_3">
     <g id="line2d_3">
      <path d="M 43.148125 226.0367 
L 993.078125 226.0367 
" clip-path="url(#pc31a192036)" style="fill: none; stroke: #dedede; stroke-linecap: square"/>
     </g>
     <g id="text_20">
      <!-- 40 -->
      <g transform="translate(25.968125 229.076075) scale(0.08 -0.08)">
       <use xlink:href="#DejaVuSans-34"/>
       <use xlink:href="#DejaVuSans-30" x="63.623047"/>
      </g>
     </g>
    </g>
    <g id="ytick_4">
     <g id="line2d_4">
      <path d="M 43.148125 162.4431 
L 993.078125 162.4431 
" clip-path="url(#pc31a192036)" style="fill: none; stroke: #dedede; stroke-linecap: square"/>
     </g>
     <g id="text_21">
      <!-- 60 -->
      <g transform="translate(25.968125 165.482475) scale(0.08 -0.08)">
       <use xlink:href="#DejaVuSans-36"/>
       <use xlink:href="#DejaVuSans-30" x="63.623047"/>
      </g>
     </g>
    </g>
    <g id="ytick_5">
     <g id="line2d_5">
      <path d="M 43.148125 98.8495 
L 993.078125 98.8495 
" clip-path="url(#pc31a192036)" style="fill: none; stroke: #dedede; stroke-linecap: square"/>
     </g>
     <g id="text_22">
      <!-- 80 -->
      <g transform="translate(25.968125 101.888875) scale(0.08 -0.08)">
       <use xlink:href="#DejaVuSans-38"/>
       <use xlink:href="#DejaVuSans-30" x="63.623047"/>
      </g>
     </g>
    </g>
    <g id="ytick_6">
     <g id="line2d_6">
      <path d="M 43.148125 35.2559 
L 993.078125 35.2559 
" clip-path="url(#pc31a192036)" style="fill: none; stroke: #dedede; stroke-linecap: square"/>
     </g>
     <g id="text_23">
      <!-- 100 -->
      <g transform="translate(20.878125 38.295275) scale(0.08 -0.08)">
       <use xlink:href="#DejaVuSans-31"/>
       <use xlink:href="#DejaVuSans-30" x="63.623047"/>
       <use xlink:href="#DejaVuSans-30" x="127.246094"/>
      </g>
     </g>
    </g>
    <g id="text_24">
     <!-- % of Library -->
     <g transform="translate(14.798437 224.471931) rotate(-90) scale(0.1 -0.1)">
      <defs>
       <path id="DejaVuSans-25" d="M 4653 2053 
Q 4381 2053 4226 1822 
Q 4072 1591 4072 1178 
Q 4072 772 4226 539 
Q 4381 306 4653 306 
Q 4919 306 5073 539 
Q 5228 772 5228 1178 
Q 5228 1588 5073 1820 
Q 4919 2053 4653 2053 
z
M 4653 2450 
Q 5147 2450 5437 2106 
Q 5728 1763 5728 1178 
Q 5728 594 5436 251 
Q 5144 -91 4653 -91 
Q 4153 -91 3862 251 
Q 3572 594 3572 1178 
Q 3572 1766 3864 2108 
Q 4156 2450 4653 2450 
z
M 1428 4353 
Q 1159 4353 1004 4120 
Q 850 3888 850 3481 
Q 850 3069 1003 2837 
Q 1156 2606 1428 2606 
Q 1700 2606 1854 2837 
Q 2009 3069 2009 3481 
Q 2009 3884 1853 4118 
Q 1697 4353 1428 4353 
z
M 4250 4750 
L 4750 4750 
L 1831 -91 
L 1331 -91 
L 4250 4750 
z
M 1428 4750 
Q 1922 4750 2215 4408 
Q 2509 4066 2509 3481 
Q 2509 2891 2217 2550 
Q 1925 2209 1428 2209 
Q 931 2209 642 2551 
Q 353 2894 353 3481 
Q 353 4063 643 4406 
Q 934 4750 1428 4750 
z
" transform="scale(0.015625)"/>
       <path id="DejaVuSans-66" d="M 2375 4863 
L 2375 4384 
L 1825 4384 
Q 1516 4384 1395 4259 
Q 1275 4134 1275 3809 
L 1275 3500 
L 2222 3500 
L 2222 3053 
L 1275 3053 
L 1275 0 
L 697 0 
L 697 3053 
L 147 3053 
L 147 3500 
L 697 3500 
L 697 3744 
Q 697 4328 969 4595 
Q 1241 4863 1831 4863 
L 2375 4863 
z
" transform="scale(0.015625)"/>
       <path id="DejaVuSans-62" d="M 3116 1747 
Q 3116 2381 2855 2742 
Q 2594 3103 2138 3103 
Q 1681 3103 1420 2742 
Q 1159 2381 1159 1747 
Q 1159 1113 1420 752 
Q 1681 391 2138 391 
Q 2594 391 2855 752 
Q 3116 1113 3116 1747 
z
M 1159 2969 
Q 1341 3281 1617 3432 
Q 1894 3584 2278 3584 
Q 2916 3584 3314 3078 
Q 3713 2572 3713 1747 
Q 3713 922 3314 415 
Q 2916 -91 2278 -91 
Q 1894 -91 1617 61 
Q 1341 213 1159 525 
L 1159 0 
L 581 0 
L 581 4863 
L 1159 4863 
L 1159 2969 
z
" transform="scale(0.015625)"/>
       <path id="DejaVuSans-72" d="M 2631 2963 
Q 2534 3019 2420 3045 
Q 2306 3072 2169 3072 
Q 1681 3072 1420 2755 
Q 1159 2438 1159 1844 
L 1159 0 
L 581 0 
L 581 3500 
L 1159 3500 
L 1159 2956 
Q 1341 3275 1631 3429 
Q 1922 3584 2338 3584 
Q 2397 3584 2469 3576 
Q 2541 3569 2628 3553 
L 2631 2963 
z
" transform="scale(0.015625)"/>
       <path id="DejaVuSans-79" d="M 2059 -325 
Q 1816 -950 1584 -1140 
Q 1353 -1331 966 -1331 
L 506 -1331 
L 506 -850 
L 844 -850 
Q 1081 -850 1212 -737 
Q 1344 -625 1503 -206 
L 1606 56 
L 191 3500 
L 800 3500 
L 1894 763 
L 2988 3500 
L 3597 3500 
L 2059 -325 
z
" transform="scale(0.015625)"/>
      </defs>
      <use xlink:href="#DejaVuSans-25"/>
      <use xlink:href="#DejaVuSans-20" x="95.019531"/>
      <use xlink:href="#DejaVuSans-6f" x="126.806641"/>
      <use xlink:href="#DejaVuSans-66" x="187.988281"/>
      <use xlink:href="#DejaVuSans-20" x="223.193359"/>
      <use xlink:href="#DejaVuSans-4c" x="254.980469"/>
      <use xlink:href="#DejaVuSans-69" x="310.693359"/>
      <use xlink:href="#DejaVuSans-62" x="338.476562"/>
      <use xlink:href="#DejaVuSans-72" x="401.953125"/>
      <use xlink:href="#DejaVuSans-61" x="443.066406"/>
      <use xlink:href="#DejaVuSans-72" x="504.345703"/>
      <use xlink:href="#DejaVuSans-79" x="545.458984"/>
     </g>
    </g>
   </g>
   <g id="line2d_7">
    <path d="M 86.326761 274.317576 
L 143.898277 331.00856 
L 201.469792 325.548153 
L 259.041307 324.466848 
L 316.612822 327.570652 
L 374.184337 332.434173 
L 431.755852 337.414653 
L 489.327367 342.450844 
L 546.898883 345.540182 
L 604.470398 323.075846 
L 662.041913 349.601193 
L 719.613428 344.417769 
L 777.184943 348.097405 
L 834.756458 339.268843 
L 892.327973 347.093795 
L 949.899489 341.307907 
" clip-path="url(#pc31a192036)" style="fill: none; stroke: #d9534f; stroke-linecap: square"/>
   </g>
   <g id="line2d_8">
    <path d="M 86.326761 261.062779 
L 143.898277 328.972168 
L 201.469792 324.045607 
L 259.041307 324.301431 
L 316.612822 327.730663 
L 374.184337 333.1305 
L 431.755852 338.804674 
L 489.327367 343.416335 
L 546.898883 346.520013 
L 604.470398 328.642139 
L 662.041913 349.906014 
L 719.613428 344.285645 
L 777.184943 347.914219 
L 834.756458 340.748717 
L 892.327973 347.307794 
L 949.899489 346.825704 
" clip-path="url(#pc31a192036)" style="fill: none; stroke: #d9534f; stroke-linecap: square"/>
   </g>
   <g id="line2d_9">
    <path d="M 86.326761 322.740203 
L 143.898277 342.376684 
L 201.469792 344.896658 
L 259.041307 347.41194 
L 316.612822 349.247953 
L 374.184337 350.431661 
L 431.755852 351.248036 
L 489.327367 351.720791 
L 546.898883 352.029572 
L 604.470398 338.905181 
L 662.041913 348.325676 
L 719.613428 336.432823 
L 777.184943 340.414335 
L 834.756458 293.954898 
L 892.327973 311.732553 
L 949.899489 251.745437 
" clip-path="url(#pc31a192036)" style="fill: none; stroke: #d9534f; stroke-linecap: square"/>
   </g>
   <g id="line2d_10">
    <path d="M 86.326761 288.896799 
L 143.898277 342.055987 
L 201.469792 345.325257 
L 259.041307 347.519487 
L 316.612822 349.226581 
L 374.184337 350.386427 
L 431.755852 350.9626 
L 489.327367 351.495852 
L 546.898883 351.718951 
L 604.470398 338.332611 
L 662.041913 350.179357 
L 719.613428 343.407848 
L 777.184943 341.690512 
L 834.756458 279.255646 
L 892.327973 311.266563 
L 949.899489 291.893923 
" clip-path="url(#pc31a192036)" style="fill: none; stroke: #d9534f; stroke-linecap: square"/>
   </g>
   <g id="line2d_11">
    <path d="M 86.326761 200.513078 
L 143.898277 311.509239 
L 201.469792 337.001938 
L 259.041307 345.75173 
L 316.612822 349.266677 
L 374.184337 350.517585 
L 431.755852 351.32945 
L 489.327367 351.765829 
L 546.898883 351.988488 
L 604.470398 342.24558 
L 662.041913 349.841007 
L 719.613428 343.604844 
L 777.184943 347.699167 
L 834.756458 336.177125 
L 892.327973 343.856544 
L 949.899489 320.546117 
" clip-path="url(#pc31a192036)" style="fill: none; stroke: #f0ad4e; stroke-linecap: square"/>
   </g>
   <g id="line2d_12">
    <path d="M 86.326761 186.463315 
L 143.898277 313.219656 
L 201.469792 338.844544 
L 259.041307 347.258739 
L 316.612822 350.026438 
L 374.184337 351.137852 
L 431.755852 351.65583 
L 489.327367 351.924703 
L 546.898883 352.318186 
L 604.470398 343.083726 
L 662.041913 349.875727 
L 719.613428 344.064923 
L 777.184943 347.868043 
L 834.756458 336.228618 
L 892.327973 344.419873 
L 949.899489 325.224227 
" clip-path="url(#pc31a192036)" style="fill: none; stroke: #f0ad4e; stroke-linecap: square"/>
   </g>
   <g id="line2d_13">
    <path d="M 86.326761 305.177636 
L 143.898277 342.270675 
L 201.469792 348.534709 
L 259.041307 350.376695 
L 316.612822 351.134484 
L 374.184337 351.591663 
L 431.755852 351.794699 
L 489.327367 352.069542 
L 546.898883 352.203187 
L 604.470398 341.531191 
L 662.041913 349.101968 
L 719.613428 336.794586 
L 777.184943 340.904947 
L 834.756458 296.410737 
L 892.327973 314.186471 
L 949.899489 249.53121 
" clip-path="url(#pc31a192036)" style="fill: none; stroke: #d9534f; stroke-linecap: square"/>
   </g>
   <g id="line2d_14">
    <path d="M 86.326761 284.087052 
L 143.898277 342.455305 
L 201.469792 348.315183 
L 259.041307 350.114471 
L 316.612822 350.866397 
L 374.184337 351.396732 
L 431.755852 351.63265 
L 489.327367 351.890461 
L 546.898883 352.05203 
L 604.470398 340.895198 
L 662.041913 350.656671 
L 719.613428 343.027811 
L 777.184943 341.899572 
L 834.756458 282.438166 
L 892.327973 308.755318 
L 949.899489 283.131384 
" clip-path="url(#pc31a192036)" style="fill: none; stroke: #d9534f; stroke-linecap: square"/>
   </g>
   <g id="line2d_15">
    <path d="M 86.326761 199.063203 
L 143.898277 311.1369 
L 201.469792 335.539896 
L 259.041307 344.699372 
L 316.612822 348.121527 
L 374.184337 349.894195 
L 431.755852 350.625007 
L 489.327367 351.343781 
L 546.898883 351.676052 
L 604.470398 340.141844 
L 662.041913 349.897215 
L 719.613428 343.902739 
L 777.184943 348.031324 
L 834.756458 337.793315 
L 892.327973 346.673547 
L 949.899489 325.074483 
" clip-path="url(#pc31a192036)" style="fill: none; stroke: #f0ad4e; stroke-linecap: square"/>
   </g>
   <g id="line2d_16">
    <path d="M 86.326761 176.653739 
L 143.898277 316.05387 
L 201.469792 338.572561 
L 259.041307 346.189106 
L 316.612822 349.014973 
L 374.184337 350.418946 
L 431.755852 351.219933 
L 489.327367 351.796638 
L 546.898883 352.032869 
L 604.470398 342.966825 
L 662.041913 350.290163 
L 719.613428 344.531832 
L 777.184943 347.828459 
L 834.756458 338.689248 
L 892.327973 346.496601 
L 949.899489 330.858637 
" clip-path="url(#pc31a192036)" style="fill: none; stroke: #f0ad4e; stroke-linecap: square"/>
   </g>
   <g id="line2d_17">
    <path d="M 86.326761 183.251633 
L 143.898277 302.918784 
L 201.469792 331.36719 
L 259.041307 342.750031 
L 316.612822 346.970717 
L 374.184337 348.965632 
L 431.755852 350.121046 
L 489.327367 350.727487 
L 546.898883 351.384346 
L 604.470398 338.716389 
L 662.041913 350.59392 
L 719.613428 347.308498 
L 777.184943 350.065043 
L 834.756458 345.069756 
L 892.327973 350.018766 
L 949.899489 343.385162 
" clip-path="url(#pc31a192036)" style="fill: none; stroke: #f0ad4e; stroke-linecap: square"/>
   </g>
   <g id="line2d_18">
    <path d="M 86.326761 151.692566 
L 143.898277 309.939492 
L 201.469792 336.209283 
L 259.041307 345.615181 
L 316.612822 348.65904 
L 374.184337 350.300286 
L 431.755852 350.946121 
L 489.327367 351.558594 
L 546.898883 352.037316 
L 604.470398 343.371389 
L 662.041913 351.098064 
L 719.613428 347.662776 
L 777.184943 350.685793 
L 834.756458 346.579353 
L 892.327973 349.419563 
L 949.899489 347.839583 
" clip-path="url(#pc31a192036)" style="fill: none; stroke: #5cb85c; stroke-linecap: square"/>
   </g>
   <g id="line2d_19">
    <path d="M 86.326761 277.831371 
L 143.898277 328.220504 
L 201.469792 323.937294 
L 259.041307 324.64076 
L 316.612822 329.633889 
L 374.184337 335.034531 
L 431.755852 340.015541 
L 489.327367 344.299893 
L 546.898883 347.123884 
L 604.470398 326.24274 
L 662.041913 349.526965 
L 719.613428 344.721305 
L 777.184943 348.657311 
L 834.756458 341.143825 
L 892.327973 343.934752 
L 949.899489 328.649835 
" clip-path="url(#pc31a192036)" style="fill: none; stroke: #d9534f; stroke-linecap: square"/>
   </g>
   <g id="line2d_20">
    <path d="M 86.326761 252.297748 
L 143.898277 327.843025 
L 201.469792 323.969945 
L 259.041307 326.937317 
L 316.612822 331.645455 
L 374.184337 336.883262 
L 431.755852 341.792457 
L 489.327367 345.463636 
L 546.898883 348.22434 
L 604.470398 333.403313 
L 662.041913 350.168169 
L 719.613428 344.806632 
L 777.184943 349.040402 
L 834.756458 340.356769 
L 892.327973 347.288939 
L 949.899489 333.492993 
" clip-path="url(#pc31a192036)" style="fill: none; stroke: #d9534f; stroke-linecap: square"/>
   </g>
   <g id="line2d_21">
    <path d="M 86.326761 225.178001 
L 143.898277 297.072563 
L 201.469792 317.887326 
L 259.041307 333.796822 
L 316.612822 343.066337 
L 374.184337 347.737303 
L 431.755852 349.816663 
L 489.327367 350.865951 
L 546.898883 351.575681 
L 604.470398 340.88566 
L 662.041913 349.758017 
L 719.613428 344.534096 
L 777.184943 348.463459 
L 834.756458 339.024087 
L 892.327973 348.935133 
L 949.899489 345.017301 
" clip-path="url(#pc31a192036)" style="fill: none; stroke: #f0ad4e; stroke-linecap: square"/>
   </g>
   <g id="line2d_22">
    <path d="M 86.326761 196.678021 
L 143.898277 301.107082 
L 201.469792 323.292102 
L 259.041307 337.935116 
L 316.612822 345.355283 
L 374.184337 349.362154 
L 431.755852 350.83792 
L 489.327367 351.661806 
L 546.898883 352.017833 
L 604.470398 343.926226 
L 662.041913 350.270859 
L 719.613428 345.110497 
L 777.184943 348.288953 
L 834.756458 341.035573 
L 892.327973 348.836279 
L 949.899489 347.898698 
" clip-path="url(#pc31a192036)" style="fill: none; stroke: #f0ad4e; stroke-linecap: square"/>
   </g>
   <g id="line2d_23">
    <path d="M 86.326761 288.329474 
L 143.898277 326.055811 
L 201.469792 326.82328 
L 259.041307 332.200876 
L 316.612822 337.654639 
L 374.184337 342.883635 
L 431.755852 346.559437 
L 489.327367 349.062404 
L 546.898883 350.307894 
L 604.470398 339.587488 
L 662.041913 349.821136 
L 719.613428 344.572194 
L 777.184943 347.25511 
L 834.756458 334.518017 
L 892.327973 342.66389 
L 949.899489 275.319113 
" clip-path="url(#pc31a192036)" style="fill: none; stroke: #d9534f; stroke-linecap: square"/>
   </g>
   <g id="line2d_24">
    <path d="M 86.326761 263.272582 
L 143.898277 326.404362 
L 201.469792 328.948478 
L 259.041307 334.682425 
L 316.612822 340.233679 
L 374.184337 344.953797 
L 431.755852 347.998722 
L 489.327367 349.894269 
L 546.898883 351.006227 
L 604.470398 341.109743 
L 662.041913 349.70103 
L 719.613428 344.624777 
L 777.184943 347.874122 
L 834.756458 336.932108 
L 892.327973 342.716062 
L 949.899489 283.262018 
" clip-path="url(#pc31a192036)" style="fill: none; stroke: #d9534f; stroke-linecap: square"/>
   </g>
   <g id="line2d_25">
    <path d="M 86.326761 207.979419 
L 143.898277 309.228355 
L 201.469792 332.37535 
L 259.041307 341.696322 
L 316.612822 345.564256 
L 374.184337 347.875737 
L 431.755852 349.051842 
L 489.327367 350.066457 
L 546.898883 350.510099 
L 604.470398 331.25181 
L 662.041913 348.547804 
L 719.613428 343.445424 
L 777.184943 347.658495 
L 834.756458 340.142134 
L 892.327973 348.079135 
L 949.899489 340.14176 
" clip-path="url(#pc31a192036)" style="fill: none; stroke: #f0ad4e; stroke-linecap: square"/>
   </g>
   <g id="line2d_26">
    <path d="M 86.326761 178.164624 
L 143.898277 313.902344 
L 201.469792 335.058573 
L 259.041307 343.467734 
L 316.612822 347.003927 
L 374.184337 348.884533 
L 431.755852 350.201633 
L 489.327367 350.85831 
L 546.898883 351.162157 
L 604.470398 337.435631 
L 662.041913 349.912486 
L 719.613428 344.177095 
L 777.184943 348.235594 
L 834.756458 340.83934 
L 892.327973 348.276705 
L 949.899489 346.033715 
" clip-path="url(#pc31a192036)" style="fill: none; stroke: #f0ad4e; stroke-linecap: square"/>
   </g>
   <g id="line2d_27">
    <path d="M 86.326761 269.738091 
L 143.898277 309.436998 
L 201.469792 315.115234 
L 259.041307 325.873966 
L 316.612822 335.909803 
L 374.184337 342.305831 
L 431.755852 346.078028 
L 489.327367 348.245748 
L 546.898883 349.624513 
L 604.470398 329.615573 
L 662.041913 348.868835 
L 719.613428 343.954237 
L 777.184943 348.17318 
L 834.756458 339.357347 
L 892.327973 345.830933 
L 949.899489 335.486085 
" clip-path="url(#pc31a192036)" style="fill: none; stroke: #d9534f; stroke-linecap: square"/>
   </g>
   <g id="line2d_28">
    <path d="M 86.326761 252.590824 
L 143.898277 309.407593 
L 201.469792 315.712352 
L 259.041307 327.789403 
L 316.612822 337.274457 
L 374.184337 343.291318 
L 431.755852 346.926926 
L 489.327367 348.85157 
L 546.898883 350.114414 
L 604.470398 333.42943 
L 662.041913 349.321704 
L 719.613428 344.04088 
L 777.184943 347.978172 
L 834.756458 338.917542 
L 892.327973 347.464569 
L 949.899489 340.503246 
" clip-path="url(#pc31a192036)" style="fill: none; stroke: #d9534f; stroke-linecap: square"/>
   </g>
   <g id="line2d_29">
    <path d="M 86.326761 275.772314 
L 143.898277 325.142881 
L 201.469792 328.280001 
L 259.041307 334.057357 
L 316.612822 340.01471 
L 374.184337 344.325999 
L 431.755852 347.139042 
L 489.327367 349.056403 
L 546.898883 350.277797 
L 604.470398 335.427889 
L 662.041913 348.990821 
L 719.613428 337.655242 
L 777.184943 341.458427 
L 834.756458 314.360898 
L 892.327973 337.399431 
L 949.899489 324.25519 
" clip-path="url(#pc31a192036)" style="fill: none; stroke: #d9534f; stroke-linecap: square"/>
   </g>
   <g id="line2d_30">
    <path d="M 86.326761 239.530328 
L 143.898277 326.538831 
L 201.469792 331.313057 
L 259.041307 337.361183 
L 316.612822 342.61404 
L 374.184337 346.480122 
L 431.755852 348.661548 
L 489.327367 350.272524 
L 546.898883 351.070005 
L 604.470398 340.820169 
L 662.041913 350.334501 
L 719.613428 339.910495 
L 777.184943 340.860602 
L 834.756458 312.924598 
L 892.327973 342.470241 
L 949.899489 332.452153 
" clip-path="url(#pc31a192036)" style="fill: none; stroke: #d9534f; stroke-linecap: square"/>
   </g>
   <g id="line2d_31">
    <path d="M 86.326761 296.2058 
L 143.898277 331.627436 
L 201.469792 342.05294 
L 259.041307 347.834247 
L 316.612822 350.44532 
L 374.184337 351.44881 
L 431.755852 352.078359 
L 489.327367 352.266899 
L 546.898883 352.467584 
L 604.470398 341.331336 
L 662.041913 348.523303 
L 719.613428 340.887637 
L 777.184943 345.334998 
L 834.756458 326.538411 
L 892.327973 337.077363 
L 949.899489 217.493956 
" clip-path="url(#pc31a192036)" style="fill: none; stroke: #d9534f; stroke-linecap: square"/>
   </g>
   <g id="line2d_32">
    <path d="M 86.326761 280.296016 
L 143.898277 332.400659 
L 201.469792 342.922323 
L 259.041307 348.520542 
L 316.612822 350.763971 
L 374.184337 351.622021 
L 431.755852 352.04124 
L 489.327367 352.227039 
L 546.898883 352.421657 
L 604.470398 339.938468 
L 662.041913 348.10186 
L 719.613428 340.16009 
L 777.184943 345.917684 
L 834.756458 330.265306 
L 892.327973 340.400337 
L 949.899489 225.615187 
" clip-path="url(#pc31a192036)" style="fill: none; stroke: #d9534f; stroke-linecap: square"/>
   </g>
   <g id="line2d_33">
    <path d="M 86.326761 174.676498 
L 143.898277 298.769293 
L 201.469792 331.310953 
L 259.041307 343.728179 
L 316.612822 348.360171 
L 374.184337 350.220337 
L 431.755852 351.075243 
L 489.327367 351.626314 
L 546.898883 352.09019 
L 604.470398 343.763705 
L 662.041913 350.602295 
L 719.613428 346.262063 
L 777.184943 349.641927 
L 834.756458 343.234558 
L 892.327973 348.973169 
L 949.899489 349.279505 
" clip-path="url(#pc31a192036)" style="fill: none; stroke: #f0ad4e; stroke-linecap: square"/>
   </g>
   <g id="line2d_34">
    <path d="M 86.326761 146.335564 
L 143.898277 307.652704 
L 201.469792 336.368843 
L 259.041307 346.089874 
L 316.612822 349.717428 
L 374.184337 351.268369 
L 431.755852 351.781664 
L 489.327367 352.169934 
L 546.898883 352.353076 
L 604.470398 346.58168 
L 662.041913 351.100455 
L 719.613428 347.25473 
L 777.184943 349.625236 
L 834.756458 344.135098 
L 892.327973 350.929841 
L 949.899489 350.249904 
" clip-path="url(#pc31a192036)" style="fill: none; stroke: #5cb85c; stroke-linecap: square"/>
   </g>
   <g id="line2d_35">
    <path d="M 86.326761 244.443071 
L 143.898277 323.254656 
L 201.469792 341.143751 
L 259.041307 347.20298 
L 316.612822 349.488599 
L 374.184337 350.857838 
L 431.755852 351.260168 
L 489.327367 351.815505 
L 546.898883 352.013318 
L 604.470398 342.469415 
L 662.041913 349.511502 
L 719.613428 339.435594 
L 777.184943 342.50443 
L 834.756458 307.145388 
L 892.327973 324.379922 
L 949.899489 316.688261 
" clip-path="url(#pc31a192036)" style="fill: none; stroke: #d9534f; stroke-linecap: square"/>
   </g>
   <g id="line2d_36">
    <path d="M 86.326761 220.781337 
L 143.898277 325.86672 
L 201.469792 342.662308 
L 259.041307 348.047155 
L 316.612822 349.942255 
L 374.184337 350.982483 
L 431.755852 351.579715 
L 489.327367 351.938244 
L 546.898883 352.117745 
L 604.470398 343.639049 
L 662.041913 350.934464 
L 719.613428 343.711835 
L 777.184943 341.771997 
L 834.756458 298.149801 
L 892.327973 330.228743 
L 949.899489 331.260547 
" clip-path="url(#pc31a192036)" style="fill: none; stroke: #d9534f; stroke-linecap: square"/>
   </g>
   <g id="line2d_37">
    <path d="M 86.326761 257.452365 
L 143.898277 312.321769 
L 201.469792 316.819332 
L 259.041307 326.996374 
L 316.612822 335.788849 
L 374.184337 342.72392 
L 431.755852 346.95563 
L 489.327367 348.990121 
L 546.898883 350.261745 
L 604.470398 335.823735 
L 662.041913 349.833892 
L 719.613428 345.097277 
L 777.184943 348.419657 
L 834.756458 339.291919 
L 892.327973 347.167774 
L 949.899489 329.670041 
" clip-path="url(#pc31a192036)" style="fill: none; stroke: #d9534f; stroke-linecap: square"/>
   </g>
   <g id="line2d_38">
    <path d="M 86.326761 225.617493 
L 143.898277 313.986604 
L 201.469792 321.09402 
L 259.041307 330.996993 
L 316.612822 339.775418 
L 374.184337 345.146172 
L 431.755852 348.585653 
L 489.327367 350.121398 
L 546.898883 351.005215 
L 604.470398 339.901768 
L 662.041913 350.450146 
L 719.613428 345.867214 
L 777.184943 349.410366 
L 834.756458 339.444373 
L 892.327973 345.624299 
L 949.899489 336.587267 
" clip-path="url(#pc31a192036)" style="fill: none; stroke: #f0ad4e; stroke-linecap: square"/>
   </g>
   <g id="line2d_39">
    <path d="M 43.148125 353.2239 
L 993.078125 353.2239 
" clip-path="url(#pc31a192036)" style="fill: none; stroke: #dedede; stroke-width: 2; stroke-linecap: square"/>
   </g>
   <g id="text_25">
    <!-- FastQC: Sequence Duplication Levels -->
    <g transform="translate(369.699375 19.3575) scale(0.16 -0.16)">
     <defs>
      <path id="DejaVuSans-46" d="M 628 4666 
L 3309 4666 
L 3309 4134 
L 1259 4134 
L 1259 2759 
L 3109 2759 
L 3109 2228 
L 1259 2228 
L 1259 0 
L 628 0 
L 628 4666 
z
" transform="scale(0.015625)"/>
      <path id="DejaVuSans-73" d="M 2834 3397 
L 2834 2853 
Q 2591 2978 2328 3040 
Q 2066 3103 1784 3103 
Q 1356 3103 1142 2972 
Q 928 2841 928 2578 
Q 928 2378 1081 2264 
Q 1234 2150 1697 2047 
L 1894 2003 
Q 2506 1872 2764 1633 
Q 3022 1394 3022 966 
Q 3022 478 2636 193 
Q 2250 -91 1575 -91 
Q 1294 -91 989 -36 
Q 684 19 347 128 
L 347 722 
Q 666 556 975 473 
Q 1284 391 1588 391 
Q 1994 391 2212 530 
Q 2431 669 2431 922 
Q 2431 1156 2273 1281 
Q 2116 1406 1581 1522 
L 1381 1569 
Q 847 1681 609 1914 
Q 372 2147 372 2553 
Q 372 3047 722 3315 
Q 1072 3584 1716 3584 
Q 2034 3584 2315 3537 
Q 2597 3491 2834 3397 
z
" transform="scale(0.015625)"/>
      <path id="DejaVuSans-51" d="M 2522 4238 
Q 1834 4238 1429 3725 
Q 1025 3213 1025 2328 
Q 1025 1447 1429 934 
Q 1834 422 2522 422 
Q 3209 422 3611 934 
Q 4013 1447 4013 2328 
Q 4013 3213 3611 3725 
Q 3209 4238 2522 4238 
z
M 3406 84 
L 4238 -825 
L 3475 -825 
L 2784 -78 
Q 2681 -84 2626 -87 
Q 2572 -91 2522 -91 
Q 1538 -91 948 567 
Q 359 1225 359 2328 
Q 359 3434 948 4092 
Q 1538 4750 2522 4750 
Q 3503 4750 4090 4092 
Q 4678 3434 4678 2328 
Q 4678 1516 4351 937 
Q 4025 359 3406 84 
z
" transform="scale(0.015625)"/>
      <path id="DejaVuSans-43" d="M 4122 4306 
L 4122 3641 
Q 3803 3938 3442 4084 
Q 3081 4231 2675 4231 
Q 1875 4231 1450 3742 
Q 1025 3253 1025 2328 
Q 1025 1406 1450 917 
Q 1875 428 2675 428 
Q 3081 428 3442 575 
Q 3803 722 4122 1019 
L 4122 359 
Q 3791 134 3420 21 
Q 3050 -91 2638 -91 
Q 1578 -91 968 557 
Q 359 1206 359 2328 
Q 359 3453 968 4101 
Q 1578 4750 2638 4750 
Q 3056 4750 3426 4639 
Q 3797 4528 4122 4306 
z
" transform="scale(0.015625)"/>
      <path id="DejaVuSans-3a" d="M 750 794 
L 1409 794 
L 1409 0 
L 750 0 
L 750 794 
z
M 750 3309 
L 1409 3309 
L 1409 2516 
L 750 2516 
L 750 3309 
z
" transform="scale(0.015625)"/>
     </defs>
     <use xlink:href="#DejaVuSans-46"/>
     <use xlink:href="#DejaVuSans-61" x="48.394531"/>
     <use xlink:href="#DejaVuSans-73" x="109.673828"/>
     <use xlink:href="#DejaVuSans-74" x="161.773438"/>
     <use xlink:href="#DejaVuSans-51" x="200.982422"/>
     <use xlink:href="#DejaVuSans-43" x="279.693359"/>
     <use xlink:href="#DejaVuSans-3a" x="349.517578"/>
     <use xlink:href="#DejaVuSans-20" x="383.208984"/>
     <use xlink:href="#DejaVuSans-53" x="414.996094"/>
     <use xlink:href="#DejaVuSans-65" x="478.472656"/>
     <use xlink:href="#DejaVuSans-71" x="539.996094"/>
     <use xlink:href="#DejaVuSans-75" x="603.472656"/>
     <use xlink:href="#DejaVuSans-65" x="666.851562"/>
     <use xlink:href="#DejaVuSans-6e" x="728.375"/>
     <use xlink:href="#DejaVuSans-63" x="791.753906"/>
     <use xlink:href="#DejaVuSans-65" x="846.734375"/>
     <use xlink:href="#DejaVuSans-20" x="908.257812"/>
     <use xlink:href="#DejaVuSans-44" x="940.044922"/>
     <use xlink:href="#DejaVuSans-75" x="1017.046875"/>
     <use xlink:href="#DejaVuSans-70" x="1080.425781"/>
     <use xlink:href="#DejaVuSans-6c" x="1143.902344"/>
     <use xlink:href="#DejaVuSans-69" x="1171.685547"/>
     <use xlink:href="#DejaVuSans-63" x="1199.46875"/>
     <use xlink:href="#DejaVuSans-61" x="1254.449219"/>
     <use xlink:href="#DejaVuSans-74" x="1315.728516"/>
     <use xlink:href="#DejaVuSans-69" x="1354.9375"/>
     <use xlink:href="#DejaVuSans-6f" x="1382.720703"/>
     <use xlink:href="#DejaVuSans-6e" x="1443.902344"/>
     <use xlink:href="#DejaVuSans-20" x="1507.28125"/>
     <use xlink:href="#DejaVuSans-4c" x="1539.068359"/>
     <use xlink:href="#DejaVuSans-65" x="1593.03125"/>
     <use xlink:href="#DejaVuSans-76" x="1654.554688"/>
     <use xlink:href="#DejaVuSans-65" x="1713.734375"/>
     <use xlink:href="#DejaVuSans-6c" x="1775.257812"/>
     <use xlink:href="#DejaVuSans-73" x="1803.041016"/>
    </g>
   </g>
  </g>
 </g>
 <defs>
  <clipPath id="pc31a192036">
   <rect x="43.148125" y="35.2559" width="949.93" height="317.968"/>
  </clipPath>
 </defs>
</svg>
