<?xml version="1.0" encoding="utf-8" standalone="no"?>
<!DOCTYPE svg PUBLIC "-//W3C//DTD SVG 1.1//EN"
  "http://www.w3.org/Graphics/SVG/1.1/DTD/svg11.dtd">
<svg xmlns:xlink="http://www.w3.org/1999/xlink" width="1000.358125pt" height="388.844525pt" viewBox="0 0 1000.358125 388.844525" xmlns="http://www.w3.org/2000/svg" version="1.1">
 <metadata>
  <rdf:RDF xmlns:dc="http://purl.org/dc/elements/1.1/" xmlns:cc="http://creativecommons.org/ns#" xmlns:rdf="http://www.w3.org/1999/02/22-rdf-syntax-ns#">
   <cc:Work>
    <dc:type rdf:resource="http://purl.org/dc/dcmitype/StillImage"/>
    <dc:date>2024-08-15T09:46:22.016616</dc:date>
    <dc:format>image/svg+xml</dc:format>
    <dc:creator>
     <cc:Agent>
      <dc:title>Matplotlib v3.8.2, https://matplotlib.org/</dc:title>
     </cc:Agent>
    </dc:creator>
   </cc:Work>
  </rdf:RDF>
 </metadata>
 <defs>
  <style type="text/css">*{stroke-linejoin: round; stroke-linecap: butt}</style>
 </defs>
 <g id="figure_1">
  <g id="axes_1">
   <g id="patch_1">
    <path d="M 32.968125 353.2239 
L 993.158125 353.2239 
L 993.158125 35.2559 
L 32.968125 35.2559 
z
" style="fill: #ffffff"/>
   </g>
   <g id="patch_2">
    <path d="M 32.968125 -918.6481 
L 993.158125 -918.6481 
L 993.158125 -6006.1361 
L 32.968125 -6006.1361 
z
" clip-path="url(#p0ff1acbd7a)" style="fill: #e6c3c3"/>
   </g>
   <g id="patch_3">
    <path d="M 32.968125 35.2559 
L 993.158125 35.2559 
L 993.158125 -918.6481 
L 32.968125 -918.6481 
z
" clip-path="url(#p0ff1acbd7a)" style="fill: #e6dcc3"/>
   </g>
   <g id="patch_4">
    <path d="M 32.968125 353.2239 
L 993.158125 353.2239 
L 993.158125 35.2559 
L 32.968125 35.2559 
z
" clip-path="url(#p0ff1acbd7a)" style="fill: #c3e6c3"/>
   </g>
   <g id="matplotlib.axis_1">
    <g id="xtick_1">
     <g id="text_1">
      <!-- 0 -->
      <g transform="translate(30.423125 366.30265) scale(0.08 -0.08)">
       <defs>
        <path id="DejaVuSans-30" d="M 2034 4250 
Q 1547 4250 1301 3770 
Q 1056 3291 1056 2328 
Q 1056 1369 1301 889 
Q 1547 409 2034 409 
Q 2525 409 2770 889 
Q 3016 1369 3016 2328 
Q 3016 3291 2770 3770 
Q 2525 4250 2034 4250 
z
M 2034 4750 
Q 2819 4750 3233 4129 
Q 3647 3509 3647 2328 
Q 3647 1150 3233 529 
Q 2819 -91 2034 -91 
Q 1250 -91 836 529 
Q 422 1150 422 2328 
Q 422 3509 836 4129 
Q 1250 4750 2034 4750 
z
" transform="scale(0.015625)"/>
       </defs>
       <use xlink:href="#DejaVuSans-30"/>
      </g>
     </g>
    </g>
    <g id="xtick_2">
     <g id="text_2">
      <!-- 20 -->
      <g transform="translate(149.845734 366.30265) scale(0.08 -0.08)">
       <defs>
        <path id="DejaVuSans-32" d="M 1228 531 
L 3431 531 
L 3431 0 
L 469 0 
L 469 531 
Q 828 903 1448 1529 
Q 2069 2156 2228 2338 
Q 2531 2678 2651 2914 
Q 2772 3150 2772 3378 
Q 2772 3750 2511 3984 
Q 2250 4219 1831 4219 
Q 1534 4219 1204 4116 
Q 875 4013 500 3803 
L 500 4441 
Q 881 4594 1212 4672 
Q 1544 4750 1819 4750 
Q 2544 4750 2975 4387 
Q 3406 4025 3406 3419 
Q 3406 3131 3298 2873 
Q 3191 2616 2906 2266 
Q 2828 2175 2409 1742 
Q 1991 1309 1228 531 
z
" transform="scale(0.015625)"/>
       </defs>
       <use xlink:href="#DejaVuSans-32"/>
       <use xlink:href="#DejaVuSans-30" x="63.623047"/>
      </g>
     </g>
    </g>
    <g id="xtick_3">
     <g id="text_3">
      <!-- 40 -->
      <g transform="translate(271.813343 366.30265) scale(0.08 -0.08)">
       <defs>
        <path id="DejaVuSans-34" d="M 2419 4116 
L 825 1625 
L 2419 1625 
L 2419 4116 
z
M 2253 4666 
L 3047 4666 
L 3047 1625 
L 3713 1625 
L 3713 1100 
L 3047 1100 
L 3047 0 
L 2419 0 
L 2419 1100 
L 313 1100 
L 313 1709 
L 2253 4666 
z
" transform="scale(0.015625)"/>
       </defs>
       <use xlink:href="#DejaVuSans-34"/>
       <use xlink:href="#DejaVuSans-30" x="63.623047"/>
      </g>
     </g>
    </g>
    <g id="xtick_4">
     <g id="text_4">
      <!-- 60 -->
      <g transform="translate(393.780951 366.30265) scale(0.08 -0.08)">
       <defs>
        <path id="DejaVuSans-36" d="M 2113 2584 
Q 1688 2584 1439 2293 
Q 1191 2003 1191 1497 
Q 1191 994 1439 701 
Q 1688 409 2113 409 
Q 2538 409 2786 701 
Q 3034 994 3034 1497 
Q 3034 2003 2786 2293 
Q 2538 2584 2113 2584 
z
M 3366 4563 
L 3366 3988 
Q 3128 4100 2886 4159 
Q 2644 4219 2406 4219 
Q 1781 4219 1451 3797 
Q 1122 3375 1075 2522 
Q 1259 2794 1537 2939 
Q 1816 3084 2150 3084 
Q 2853 3084 3261 2657 
Q 3669 2231 3669 1497 
Q 3669 778 3244 343 
Q 2819 -91 2113 -91 
Q 1303 -91 875 529 
Q 447 1150 447 2328 
Q 447 3434 972 4092 
Q 1497 4750 2381 4750 
Q 2619 4750 2861 4703 
Q 3103 4656 3366 4563 
z
" transform="scale(0.015625)"/>
       </defs>
       <use xlink:href="#DejaVuSans-36"/>
       <use xlink:href="#DejaVuSans-30" x="63.623047"/>
      </g>
     </g>
    </g>
    <g id="xtick_5">
     <g id="text_5">
      <!-- 80 -->
      <g transform="translate(515.74856 366.30265) scale(0.08 -0.08)">
       <defs>
        <path id="DejaVuSans-38" d="M 2034 2216 
Q 1584 2216 1326 1975 
Q 1069 1734 1069 1313 
Q 1069 891 1326 650 
Q 1584 409 2034 409 
Q 2484 409 2743 651 
Q 3003 894 3003 1313 
Q 3003 1734 2745 1975 
Q 2488 2216 2034 2216 
z
M 1403 2484 
Q 997 2584 770 2862 
Q 544 3141 544 3541 
Q 544 4100 942 4425 
Q 1341 4750 2034 4750 
Q 2731 4750 3128 4425 
Q 3525 4100 3525 3541 
Q 3525 3141 3298 2862 
Q 3072 2584 2669 2484 
Q 3125 2378 3379 2068 
Q 3634 1759 3634 1313 
Q 3634 634 3220 271 
Q 2806 -91 2034 -91 
Q 1263 -91 848 271 
Q 434 634 434 1313 
Q 434 1759 690 2068 
Q 947 2378 1403 2484 
z
M 1172 3481 
Q 1172 3119 1398 2916 
Q 1625 2713 2034 2713 
Q 2441 2713 2670 2916 
Q 2900 3119 2900 3481 
Q 2900 3844 2670 4047 
Q 2441 4250 2034 4250 
Q 1625 4250 1398 4047 
Q 1172 3844 1172 3481 
z
" transform="scale(0.015625)"/>
       </defs>
       <use xlink:href="#DejaVuSans-38"/>
       <use xlink:href="#DejaVuSans-30" x="63.623047"/>
      </g>
     </g>
    </g>
    <g id="xtick_6">
     <g id="text_6">
      <!-- 100 -->
      <g transform="translate(635.171169 366.30265) scale(0.08 -0.08)">
       <defs>
        <path id="DejaVuSans-31" d="M 794 531 
L 1825 531 
L 1825 4091 
L 703 3866 
L 703 4441 
L 1819 4666 
L 2450 4666 
L 2450 531 
L 3481 531 
L 3481 0 
L 794 0 
L 794 531 
z
" transform="scale(0.015625)"/>
       </defs>
       <use xlink:href="#DejaVuSans-31"/>
       <use xlink:href="#DejaVuSans-30" x="63.623047"/>
       <use xlink:href="#DejaVuSans-30" x="127.246094"/>
      </g>
     </g>
    </g>
    <g id="xtick_7">
     <g id="text_7">
      <!-- 120 -->
      <g transform="translate(757.138778 366.30265) scale(0.08 -0.08)">
       <use xlink:href="#DejaVuSans-31"/>
       <use xlink:href="#DejaVuSans-32" x="63.623047"/>
       <use xlink:href="#DejaVuSans-30" x="127.246094"/>
      </g>
     </g>
    </g>
    <g id="xtick_8">
     <g id="text_8">
      <!-- 140 -->
      <g transform="translate(879.106386 366.30265) scale(0.08 -0.08)">
       <use xlink:href="#DejaVuSans-31"/>
       <use xlink:href="#DejaVuSans-34" x="63.623047"/>
       <use xlink:href="#DejaVuSans-30" x="127.246094"/>
      </g>
     </g>
    </g>
    <g id="text_9">
     <!-- Position in Read (bp) -->
     <g transform="translate(461.46 379.564837) scale(0.1 -0.1)">
      <defs>
       <path id="DejaVuSans-50" d="M 1259 4147 
L 1259 2394 
L 2053 2394 
Q 2494 2394 2734 2622 
Q 2975 2850 2975 3272 
Q 2975 3691 2734 3919 
Q 2494 4147 2053 4147 
L 1259 4147 
z
M 628 4666 
L 2053 4666 
Q 2838 4666 3239 4311 
Q 3641 3956 3641 3272 
Q 3641 2581 3239 2228 
Q 2838 1875 2053 1875 
L 1259 1875 
L 1259 0 
L 628 0 
L 628 4666 
z
" transform="scale(0.015625)"/>
       <path id="DejaVuSans-6f" d="M 1959 3097 
Q 1497 3097 1228 2736 
Q 959 2375 959 1747 
Q 959 1119 1226 758 
Q 1494 397 1959 397 
Q 2419 397 2687 759 
Q 2956 1122 2956 1747 
Q 2956 2369 2687 2733 
Q 2419 3097 1959 3097 
z
M 1959 3584 
Q 2709 3584 3137 3096 
Q 3566 2609 3566 1747 
Q 3566 888 3137 398 
Q 2709 -91 1959 -91 
Q 1206 -91 779 398 
Q 353 888 353 1747 
Q 353 2609 779 3096 
Q 1206 3584 1959 3584 
z
" transform="scale(0.015625)"/>
       <path id="DejaVuSans-73" d="M 2834 3397 
L 2834 2853 
Q 2591 2978 2328 3040 
Q 2066 3103 1784 3103 
Q 1356 3103 1142 2972 
Q 928 2841 928 2578 
Q 928 2378 1081 2264 
Q 1234 2150 1697 2047 
L 1894 2003 
Q 2506 1872 2764 1633 
Q 3022 1394 3022 966 
Q 3022 478 2636 193 
Q 2250 -91 1575 -91 
Q 1294 -91 989 -36 
Q 684 19 347 128 
L 347 722 
Q 666 556 975 473 
Q 1284 391 1588 391 
Q 1994 391 2212 530 
Q 2431 669 2431 922 
Q 2431 1156 2273 1281 
Q 2116 1406 1581 1522 
L 1381 1569 
Q 847 1681 609 1914 
Q 372 2147 372 2553 
Q 372 3047 722 3315 
Q 1072 3584 1716 3584 
Q 2034 3584 2315 3537 
Q 2597 3491 2834 3397 
z
" transform="scale(0.015625)"/>
       <path id="DejaVuSans-69" d="M 603 3500 
L 1178 3500 
L 1178 0 
L 603 0 
L 603 3500 
z
M 603 4863 
L 1178 4863 
L 1178 4134 
L 603 4134 
L 603 4863 
z
" transform="scale(0.015625)"/>
       <path id="DejaVuSans-74" d="M 1172 4494 
L 1172 3500 
L 2356 3500 
L 2356 3053 
L 1172 3053 
L 1172 1153 
Q 1172 725 1289 603 
Q 1406 481 1766 481 
L 2356 481 
L 2356 0 
L 1766 0 
Q 1100 0 847 248 
Q 594 497 594 1153 
L 594 3053 
L 172 3053 
L 172 3500 
L 594 3500 
L 594 4494 
L 1172 4494 
z
" transform="scale(0.015625)"/>
       <path id="DejaVuSans-6e" d="M 3513 2113 
L 3513 0 
L 2938 0 
L 2938 2094 
Q 2938 2591 2744 2837 
Q 2550 3084 2163 3084 
Q 1697 3084 1428 2787 
Q 1159 2491 1159 1978 
L 1159 0 
L 581 0 
L 581 3500 
L 1159 3500 
L 1159 2956 
Q 1366 3272 1645 3428 
Q 1925 3584 2291 3584 
Q 2894 3584 3203 3211 
Q 3513 2838 3513 2113 
z
" transform="scale(0.015625)"/>
       <path id="DejaVuSans-20" transform="scale(0.015625)"/>
       <path id="DejaVuSans-52" d="M 2841 2188 
Q 3044 2119 3236 1894 
Q 3428 1669 3622 1275 
L 4263 0 
L 3584 0 
L 2988 1197 
Q 2756 1666 2539 1819 
Q 2322 1972 1947 1972 
L 1259 1972 
L 1259 0 
L 628 0 
L 628 4666 
L 2053 4666 
Q 2853 4666 3247 4331 
Q 3641 3997 3641 3322 
Q 3641 2881 3436 2590 
Q 3231 2300 2841 2188 
z
M 1259 4147 
L 1259 2491 
L 2053 2491 
Q 2509 2491 2742 2702 
Q 2975 2913 2975 3322 
Q 2975 3731 2742 3939 
Q 2509 4147 2053 4147 
L 1259 4147 
z
" transform="scale(0.015625)"/>
       <path id="DejaVuSans-65" d="M 3597 1894 
L 3597 1613 
L 953 1613 
Q 991 1019 1311 708 
Q 1631 397 2203 397 
Q 2534 397 2845 478 
Q 3156 559 3463 722 
L 3463 178 
Q 3153 47 2828 -22 
Q 2503 -91 2169 -91 
Q 1331 -91 842 396 
Q 353 884 353 1716 
Q 353 2575 817 3079 
Q 1281 3584 2069 3584 
Q 2775 3584 3186 3129 
Q 3597 2675 3597 1894 
z
M 3022 2063 
Q 3016 2534 2758 2815 
Q 2500 3097 2075 3097 
Q 1594 3097 1305 2825 
Q 1016 2553 972 2059 
L 3022 2063 
z
" transform="scale(0.015625)"/>
       <path id="DejaVuSans-61" d="M 2194 1759 
Q 1497 1759 1228 1600 
Q 959 1441 959 1056 
Q 959 750 1161 570 
Q 1363 391 1709 391 
Q 2188 391 2477 730 
Q 2766 1069 2766 1631 
L 2766 1759 
L 2194 1759 
z
M 3341 1997 
L 3341 0 
L 2766 0 
L 2766 531 
Q 2569 213 2275 61 
Q 1981 -91 1556 -91 
Q 1019 -91 701 211 
Q 384 513 384 1019 
Q 384 1609 779 1909 
Q 1175 2209 1959 2209 
L 2766 2209 
L 2766 2266 
Q 2766 2663 2505 2880 
Q 2244 3097 1772 3097 
Q 1472 3097 1187 3025 
Q 903 2953 641 2809 
L 641 3341 
Q 956 3463 1253 3523 
Q 1550 3584 1831 3584 
Q 2591 3584 2966 3190 
Q 3341 2797 3341 1997 
z
" transform="scale(0.015625)"/>
       <path id="DejaVuSans-64" d="M 2906 2969 
L 2906 4863 
L 3481 4863 
L 3481 0 
L 2906 0 
L 2906 525 
Q 2725 213 2448 61 
Q 2172 -91 1784 -91 
Q 1150 -91 751 415 
Q 353 922 353 1747 
Q 353 2572 751 3078 
Q 1150 3584 1784 3584 
Q 2172 3584 2448 3432 
Q 2725 3281 2906 2969 
z
M 947 1747 
Q 947 1113 1208 752 
Q 1469 391 1925 391 
Q 2381 391 2643 752 
Q 2906 1113 2906 1747 
Q 2906 2381 2643 2742 
Q 2381 3103 1925 3103 
Q 1469 3103 1208 2742 
Q 947 2381 947 1747 
z
" transform="scale(0.015625)"/>
       <path id="DejaVuSans-28" d="M 1984 4856 
Q 1566 4138 1362 3434 
Q 1159 2731 1159 2009 
Q 1159 1288 1364 580 
Q 1569 -128 1984 -844 
L 1484 -844 
Q 1016 -109 783 600 
Q 550 1309 550 2009 
Q 550 2706 781 3412 
Q 1013 4119 1484 4856 
L 1984 4856 
z
" transform="scale(0.015625)"/>
       <path id="DejaVuSans-62" d="M 3116 1747 
Q 3116 2381 2855 2742 
Q 2594 3103 2138 3103 
Q 1681 3103 1420 2742 
Q 1159 2381 1159 1747 
Q 1159 1113 1420 752 
Q 1681 391 2138 391 
Q 2594 391 2855 752 
Q 3116 1113 3116 1747 
z
M 1159 2969 
Q 1341 3281 1617 3432 
Q 1894 3584 2278 3584 
Q 2916 3584 3314 3078 
Q 3713 2572 3713 1747 
Q 3713 922 3314 415 
Q 2916 -91 2278 -91 
Q 1894 -91 1617 61 
Q 1341 213 1159 525 
L 1159 0 
L 581 0 
L 581 4863 
L 1159 4863 
L 1159 2969 
z
" transform="scale(0.015625)"/>
       <path id="DejaVuSans-70" d="M 1159 525 
L 1159 -1331 
L 581 -1331 
L 581 3500 
L 1159 3500 
L 1159 2969 
Q 1341 3281 1617 3432 
Q 1894 3584 2278 3584 
Q 2916 3584 3314 3078 
Q 3713 2572 3713 1747 
Q 3713 922 3314 415 
Q 2916 -91 2278 -91 
Q 1894 -91 1617 61 
Q 1341 213 1159 525 
z
M 3116 1747 
Q 3116 2381 2855 2742 
Q 2594 3103 2138 3103 
Q 1681 3103 1420 2742 
Q 1159 2381 1159 1747 
Q 1159 1113 1420 752 
Q 1681 391 2138 391 
Q 2594 391 2855 752 
Q 3116 1113 3116 1747 
z
" transform="scale(0.015625)"/>
       <path id="DejaVuSans-29" d="M 513 4856 
L 1013 4856 
Q 1481 4119 1714 3412 
Q 1947 2706 1947 2009 
Q 1947 1309 1714 600 
Q 1481 -109 1013 -844 
L 513 -844 
Q 928 -128 1133 580 
Q 1338 1288 1338 2009 
Q 1338 2731 1133 3434 
Q 928 4138 513 4856 
z
" transform="scale(0.015625)"/>
      </defs>
      <use xlink:href="#DejaVuSans-50"/>
      <use xlink:href="#DejaVuSans-6f" x="56.677734"/>
      <use xlink:href="#DejaVuSans-73" x="117.859375"/>
      <use xlink:href="#DejaVuSans-69" x="169.958984"/>
      <use xlink:href="#DejaVuSans-74" x="197.742188"/>
      <use xlink:href="#DejaVuSans-69" x="236.951172"/>
      <use xlink:href="#DejaVuSans-6f" x="264.734375"/>
      <use xlink:href="#DejaVuSans-6e" x="325.916016"/>
      <use xlink:href="#DejaVuSans-20" x="389.294922"/>
      <use xlink:href="#DejaVuSans-69" x="421.082031"/>
      <use xlink:href="#DejaVuSans-6e" x="448.865234"/>
      <use xlink:href="#DejaVuSans-20" x="512.244141"/>
      <use xlink:href="#DejaVuSans-52" x="544.03125"/>
      <use xlink:href="#DejaVuSans-65" x="609.013672"/>
      <use xlink:href="#DejaVuSans-61" x="670.537109"/>
      <use xlink:href="#DejaVuSans-64" x="731.816406"/>
      <use xlink:href="#DejaVuSans-20" x="795.292969"/>
      <use xlink:href="#DejaVuSans-28" x="827.080078"/>
      <use xlink:href="#DejaVuSans-62" x="866.09375"/>
      <use xlink:href="#DejaVuSans-70" x="929.570312"/>
      <use xlink:href="#DejaVuSans-29" x="993.046875"/>
     </g>
    </g>
   </g>
   <g id="matplotlib.axis_2">
    <g id="ytick_1">
     <g id="line2d_1">
      <path d="M 32.968125 353.2239 
L 993.158125 353.2239 
" clip-path="url(#p0ff1acbd7a)" style="fill: none; stroke: #dedede; stroke-linecap: square"/>
     </g>
     <g id="text_10">
      <!-- 0 -->
      <g transform="translate(20.878125 356.263275) scale(0.08 -0.08)">
       <use xlink:href="#DejaVuSans-30"/>
      </g>
     </g>
    </g>
    <g id="ytick_2">
     <g id="line2d_2">
      <path d="M 32.968125 289.6303 
L 993.158125 289.6303 
" clip-path="url(#p0ff1acbd7a)" style="fill: none; stroke: #dedede; stroke-linecap: square"/>
     </g>
     <g id="text_11">
      <!-- 1 -->
      <g transform="translate(20.878125 292.669675) scale(0.08 -0.08)">
       <use xlink:href="#DejaVuSans-31"/>
      </g>
     </g>
    </g>
    <g id="ytick_3">
     <g id="line2d_3">
      <path d="M 32.968125 226.0367 
L 993.158125 226.0367 
" clip-path="url(#p0ff1acbd7a)" style="fill: none; stroke: #dedede; stroke-linecap: square"/>
     </g>
     <g id="text_12">
      <!-- 2 -->
      <g transform="translate(20.878125 229.076075) scale(0.08 -0.08)">
       <use xlink:href="#DejaVuSans-32"/>
      </g>
     </g>
    </g>
    <g id="ytick_4">
     <g id="line2d_4">
      <path d="M 32.968125 162.4431 
L 993.158125 162.4431 
" clip-path="url(#p0ff1acbd7a)" style="fill: none; stroke: #dedede; stroke-linecap: square"/>
     </g>
     <g id="text_13">
      <!-- 3 -->
      <g transform="translate(20.878125 165.482475) scale(0.08 -0.08)">
       <defs>
        <path id="DejaVuSans-33" d="M 2597 2516 
Q 3050 2419 3304 2112 
Q 3559 1806 3559 1356 
Q 3559 666 3084 287 
Q 2609 -91 1734 -91 
Q 1441 -91 1130 -33 
Q 819 25 488 141 
L 488 750 
Q 750 597 1062 519 
Q 1375 441 1716 441 
Q 2309 441 2620 675 
Q 2931 909 2931 1356 
Q 2931 1769 2642 2001 
Q 2353 2234 1838 2234 
L 1294 2234 
L 1294 2753 
L 1863 2753 
Q 2328 2753 2575 2939 
Q 2822 3125 2822 3475 
Q 2822 3834 2567 4026 
Q 2313 4219 1838 4219 
Q 1578 4219 1281 4162 
Q 984 4106 628 3988 
L 628 4550 
Q 988 4650 1302 4700 
Q 1616 4750 1894 4750 
Q 2613 4750 3031 4423 
Q 3450 4097 3450 3541 
Q 3450 3153 3228 2886 
Q 3006 2619 2597 2516 
z
" transform="scale(0.015625)"/>
       </defs>
       <use xlink:href="#DejaVuSans-33"/>
      </g>
     </g>
    </g>
    <g id="ytick_5">
     <g id="line2d_5">
      <path d="M 32.968125 98.8495 
L 993.158125 98.8495 
" clip-path="url(#p0ff1acbd7a)" style="fill: none; stroke: #dedede; stroke-linecap: square"/>
     </g>
     <g id="text_14">
      <!-- 4 -->
      <g transform="translate(20.878125 101.888875) scale(0.08 -0.08)">
       <use xlink:href="#DejaVuSans-34"/>
      </g>
     </g>
    </g>
    <g id="ytick_6">
     <g id="line2d_6">
      <path d="M 32.968125 35.2559 
L 993.158125 35.2559 
" clip-path="url(#p0ff1acbd7a)" style="fill: none; stroke: #dedede; stroke-linecap: square"/>
     </g>
     <g id="text_15">
      <!-- 5 -->
      <g transform="translate(20.878125 38.295275) scale(0.08 -0.08)">
       <defs>
        <path id="DejaVuSans-35" d="M 691 4666 
L 3169 4666 
L 3169 4134 
L 1269 4134 
L 1269 2991 
Q 1406 3038 1543 3061 
Q 1681 3084 1819 3084 
Q 2600 3084 3056 2656 
Q 3513 2228 3513 1497 
Q 3513 744 3044 326 
Q 2575 -91 1722 -91 
Q 1428 -91 1123 -41 
Q 819 9 494 109 
L 494 744 
Q 775 591 1075 516 
Q 1375 441 1709 441 
Q 2250 441 2565 725 
Q 2881 1009 2881 1497 
Q 2881 1984 2565 2268 
Q 2250 2553 1709 2553 
Q 1456 2553 1204 2497 
Q 953 2441 691 2322 
L 691 4666 
z
" transform="scale(0.015625)"/>
       </defs>
       <use xlink:href="#DejaVuSans-35"/>
      </g>
     </g>
    </g>
    <g id="text_16">
     <!-- Percentage N-Count -->
     <g transform="translate(14.798438 244.344588) rotate(-90) scale(0.1 -0.1)">
      <defs>
       <path id="DejaVuSans-72" d="M 2631 2963 
Q 2534 3019 2420 3045 
Q 2306 3072 2169 3072 
Q 1681 3072 1420 2755 
Q 1159 2438 1159 1844 
L 1159 0 
L 581 0 
L 581 3500 
L 1159 3500 
L 1159 2956 
Q 1341 3275 1631 3429 
Q 1922 3584 2338 3584 
Q 2397 3584 2469 3576 
Q 2541 3569 2628 3553 
L 2631 2963 
z
" transform="scale(0.015625)"/>
       <path id="DejaVuSans-63" d="M 3122 3366 
L 3122 2828 
Q 2878 2963 2633 3030 
Q 2388 3097 2138 3097 
Q 1578 3097 1268 2742 
Q 959 2388 959 1747 
Q 959 1106 1268 751 
Q 1578 397 2138 397 
Q 2388 397 2633 464 
Q 2878 531 3122 666 
L 3122 134 
Q 2881 22 2623 -34 
Q 2366 -91 2075 -91 
Q 1284 -91 818 406 
Q 353 903 353 1747 
Q 353 2603 823 3093 
Q 1294 3584 2113 3584 
Q 2378 3584 2631 3529 
Q 2884 3475 3122 3366 
z
" transform="scale(0.015625)"/>
       <path id="DejaVuSans-67" d="M 2906 1791 
Q 2906 2416 2648 2759 
Q 2391 3103 1925 3103 
Q 1463 3103 1205 2759 
Q 947 2416 947 1791 
Q 947 1169 1205 825 
Q 1463 481 1925 481 
Q 2391 481 2648 825 
Q 2906 1169 2906 1791 
z
M 3481 434 
Q 3481 -459 3084 -895 
Q 2688 -1331 1869 -1331 
Q 1566 -1331 1297 -1286 
Q 1028 -1241 775 -1147 
L 775 -588 
Q 1028 -725 1275 -790 
Q 1522 -856 1778 -856 
Q 2344 -856 2625 -561 
Q 2906 -266 2906 331 
L 2906 616 
Q 2728 306 2450 153 
Q 2172 0 1784 0 
Q 1141 0 747 490 
Q 353 981 353 1791 
Q 353 2603 747 3093 
Q 1141 3584 1784 3584 
Q 2172 3584 2450 3431 
Q 2728 3278 2906 2969 
L 2906 3500 
L 3481 3500 
L 3481 434 
z
" transform="scale(0.015625)"/>
       <path id="DejaVuSans-4e" d="M 628 4666 
L 1478 4666 
L 3547 763 
L 3547 4666 
L 4159 4666 
L 4159 0 
L 3309 0 
L 1241 3903 
L 1241 0 
L 628 0 
L 628 4666 
z
" transform="scale(0.015625)"/>
       <path id="DejaVuSans-2d" d="M 313 2009 
L 1997 2009 
L 1997 1497 
L 313 1497 
L 313 2009 
z
" transform="scale(0.015625)"/>
       <path id="DejaVuSans-43" d="M 4122 4306 
L 4122 3641 
Q 3803 3938 3442 4084 
Q 3081 4231 2675 4231 
Q 1875 4231 1450 3742 
Q 1025 3253 1025 2328 
Q 1025 1406 1450 917 
Q 1875 428 2675 428 
Q 3081 428 3442 575 
Q 3803 722 4122 1019 
L 4122 359 
Q 3791 134 3420 21 
Q 3050 -91 2638 -91 
Q 1578 -91 968 557 
Q 359 1206 359 2328 
Q 359 3453 968 4101 
Q 1578 4750 2638 4750 
Q 3056 4750 3426 4639 
Q 3797 4528 4122 4306 
z
" transform="scale(0.015625)"/>
       <path id="DejaVuSans-75" d="M 544 1381 
L 544 3500 
L 1119 3500 
L 1119 1403 
Q 1119 906 1312 657 
Q 1506 409 1894 409 
Q 2359 409 2629 706 
Q 2900 1003 2900 1516 
L 2900 3500 
L 3475 3500 
L 3475 0 
L 2900 0 
L 2900 538 
Q 2691 219 2414 64 
Q 2138 -91 1772 -91 
Q 1169 -91 856 284 
Q 544 659 544 1381 
z
M 1991 3584 
L 1991 3584 
z
" transform="scale(0.015625)"/>
      </defs>
      <use xlink:href="#DejaVuSans-50"/>
      <use xlink:href="#DejaVuSans-65" x="56.677734"/>
      <use xlink:href="#DejaVuSans-72" x="118.201172"/>
      <use xlink:href="#DejaVuSans-63" x="157.064453"/>
      <use xlink:href="#DejaVuSans-65" x="212.044922"/>
      <use xlink:href="#DejaVuSans-6e" x="273.568359"/>
      <use xlink:href="#DejaVuSans-74" x="336.947266"/>
      <use xlink:href="#DejaVuSans-61" x="376.15625"/>
      <use xlink:href="#DejaVuSans-67" x="437.435547"/>
      <use xlink:href="#DejaVuSans-65" x="500.912109"/>
      <use xlink:href="#DejaVuSans-20" x="562.435547"/>
      <use xlink:href="#DejaVuSans-4e" x="594.222656"/>
      <use xlink:href="#DejaVuSans-2d" x="669.027344"/>
      <use xlink:href="#DejaVuSans-43" x="705.111328"/>
      <use xlink:href="#DejaVuSans-6f" x="774.935547"/>
      <use xlink:href="#DejaVuSans-75" x="836.117188"/>
      <use xlink:href="#DejaVuSans-6e" x="899.496094"/>
      <use xlink:href="#DejaVuSans-74" x="962.875"/>
     </g>
    </g>
   </g>
   <g id="line2d_7">
    <path d="M 39.066505 310.311366 
L 45.164886 353.043662 
L 51.263266 351.429792 
L 57.361647 353.2239 
L 63.460027 353.092442 
L 69.558408 353.2239 
L 75.656788 353.164096 
L 81.755169 353.2239 
L 87.853549 353.2239 
L 106.14869 353.145742 
L 136.640592 353.221475 
L 167.132495 353.210396 
L 197.624397 353.223735 
L 228.116299 353.194522 
L 258.608201 353.148608 
L 289.100103 353.20042 
L 319.592006 353.166797 
L 350.083908 353.082631 
L 380.57581 353.167789 
L 411.067712 353.135049 
L 441.559614 353.145962 
L 472.051517 353.177215 
L 502.543419 353.100104 
L 533.035321 353.083899 
L 563.527223 353.108041 
L 594.019125 353.196782 
L 624.511028 353.170986 
L 655.00293 353.129537 
L 685.494832 353.142545 
L 715.986734 353.169498 
L 746.478636 353.171096 
L 776.970538 353.106828 
L 807.462441 353.169002 
L 837.954343 353.105726 
L 868.446245 353.170931 
L 898.938147 353.214916 
L 929.430049 353.212656 
L 947.725191 353.177325 
" clip-path="url(#p0ff1acbd7a)" style="fill: none; stroke: #5cb85c; stroke-linecap: square"/>
   </g>
   <g id="line2d_8">
    <path d="M 39.066505 276.480437 
L 45.164886 349.407493 
L 51.263266 353.216735 
L 57.361647 353.072324 
L 63.460027 353.10512 
L 69.558408 353.202128 
L 75.656788 353.009213 
L 81.755169 353.186144 
L 87.853549 353.116419 
L 106.14869 353.168616 
L 136.640592 353.060639 
L 167.132495 353.109584 
L 197.624397 353.004583 
L 228.116299 353.185262 
L 258.608201 353.015056 
L 289.100103 353.020788 
L 319.592006 353.052096 
L 350.083908 352.893575 
L 380.57581 352.991631 
L 411.067712 353.117521 
L 441.559614 353.048292 
L 472.051517 353.004363 
L 502.543419 352.973 
L 533.035321 353.008772 
L 563.527223 352.855598 
L 594.019125 353.02415 
L 624.511028 353.125348 
L 655.00293 352.968646 
L 685.494832 353.092828 
L 715.986734 353.083844 
L 746.478636 353.022828 
L 776.970538 353.125293 
L 807.462441 353.172309 
L 837.954343 353.126616 
L 868.446245 353.18416 
L 898.938147 344.921836 
L 929.430049 353.218829 
L 947.725191 352.978071 
" clip-path="url(#p0ff1acbd7a)" style="fill: none; stroke: #5cb85c; stroke-linecap: square"/>
   </g>
   <g id="line2d_9">
    <path d="M 39.066505 312.572429 
L 45.164886 353.056843 
L 51.263266 351.489456 
L 57.361647 353.2239 
L 63.460027 353.083996 
L 69.558408 353.2239 
L 75.656788 353.174248 
L 81.755169 353.2239 
L 87.853549 353.2239 
L 106.14869 353.14813 
L 136.640592 353.221831 
L 167.132495 353.211797 
L 197.624397 353.223693 
L 228.116299 353.197471 
L 258.608201 353.151129 
L 289.100103 353.199591 
L 319.592006 353.165559 
L 350.083908 353.089117 
L 380.57581 353.170318 
L 411.067712 353.134269 
L 441.559614 353.147819 
L 472.051517 353.176162 
L 502.543419 353.107012 
L 533.035321 353.090513 
L 563.527223 353.112339 
L 594.019125 353.197626 
L 624.511028 353.173731 
L 655.00293 353.135768 
L 685.494832 353.145544 
L 715.986734 353.171766 
L 746.478636 353.171921 
L 776.970538 353.113529 
L 807.462441 353.172955 
L 837.954343 353.109856 
L 868.446245 353.174197 
L 898.938147 353.215521 
L 929.430049 353.213504 
L 947.725191 353.170887 
" clip-path="url(#p0ff1acbd7a)" style="fill: none; stroke: #5cb85c; stroke-linecap: square"/>
   </g>
   <g id="line2d_10">
    <path d="M 39.066505 279.793581 
L 45.164886 349.526925 
L 51.263266 353.213556 
L 57.361647 353.085806 
L 63.460027 353.115029 
L 69.558408 353.204763 
L 75.656788 353.02788 
L 81.755169 353.178386 
L 87.853549 353.123562 
L 106.14869 353.173473 
L 136.640592 353.069411 
L 167.132495 353.116528 
L 197.624397 353.014536 
L 228.116299 353.189816 
L 258.608201 353.026587 
L 289.100103 353.029173 
L 319.592006 353.058757 
L 350.083908 352.897958 
L 380.57581 352.997985 
L 411.067712 353.119735 
L 441.559614 353.052188 
L 472.051517 353.01407 
L 502.543419 352.977452 
L 533.035321 353.014329 
L 563.527223 352.865167 
L 594.019125 353.035017 
L 624.511028 353.128269 
L 655.00293 352.972022 
L 685.494832 353.099202 
L 715.986734 353.09041 
L 746.478636 353.027983 
L 776.970538 353.136182 
L 807.462441 353.178334 
L 837.954343 353.13763 
L 868.446245 353.18873 
L 898.938147 345.019025 
L 929.430049 353.219193 
L 947.725191 352.997623 
" clip-path="url(#p0ff1acbd7a)" style="fill: none; stroke: #5cb85c; stroke-linecap: square"/>
   </g>
   <g id="line2d_11">
    <path d="M 39.066505 307.525161 
L 45.164886 353.040167 
L 51.263266 351.232041 
L 57.361647 353.2239 
L 63.460027 353.079033 
L 69.558408 353.2239 
L 75.656788 353.163598 
L 81.755169 353.2239 
L 87.853549 353.2239 
L 106.14869 353.139288 
L 136.640592 353.221874 
L 167.132495 353.210992 
L 197.624397 353.223712 
L 228.116299 353.191817 
L 258.608201 353.143246 
L 289.100103 353.198743 
L 319.592006 353.158039 
L 350.083908 353.065371 
L 380.57581 353.162561 
L 411.067712 353.126286 
L 441.559614 353.13943 
L 472.051517 353.173538 
L 502.543419 353.080682 
L 533.035321 353.065936 
L 563.527223 353.099338 
L 594.019125 353.193042 
L 624.511028 353.164917 
L 655.00293 353.12247 
L 685.494832 353.134153 
L 715.986734 353.165388 
L 746.478636 353.16633 
L 776.970538 353.097595 
L 807.462441 353.166236 
L 837.954343 353.09637 
L 868.446245 353.164728 
L 898.938147 353.214007 
L 929.430049 353.212216 
L 947.725191 353.175847 
" clip-path="url(#p0ff1acbd7a)" style="fill: none; stroke: #5cb85c; stroke-linecap: square"/>
   </g>
   <g id="line2d_12">
    <path d="M 39.066505 272.437263 
L 45.164886 349.252432 
L 51.263266 353.212829 
L 57.361647 353.059011 
L 63.460027 353.090811 
L 69.558408 353.197989 
L 75.656788 352.981278 
L 81.755169 353.179616 
L 87.853549 353.102353 
L 106.14869 353.158274 
L 136.640592 353.043135 
L 167.132495 353.097831 
L 197.624397 352.977697 
L 228.116299 353.176883 
L 258.608201 352.984246 
L 289.100103 353.003467 
L 319.592006 353.029519 
L 350.083908 352.851204 
L 380.57581 352.973363 
L 411.067712 353.10796 
L 441.559614 353.03065 
L 472.051517 352.987591 
L 502.543419 352.94651 
L 533.035321 352.980383 
L 563.527223 352.829109 
L 594.019125 353.005351 
L 624.511028 353.116628 
L 655.00293 352.93982 
L 685.494832 353.07696 
L 715.986734 353.071119 
L 746.478636 353.004409 
L 776.970538 353.108808 
L 807.462441 353.159735 
L 837.954343 353.109467 
L 868.446245 353.174857 
L 898.938147 344.938513 
L 929.430049 353.218482 
L 947.725191 352.964789 
" clip-path="url(#p0ff1acbd7a)" style="fill: none; stroke: #5cb85c; stroke-linecap: square"/>
   </g>
   <g id="line2d_13">
    <path d="M 39.066505 312.955005 
L 45.164886 353.041285 
L 51.263266 351.540561 
L 57.361647 353.2239 
L 63.460027 353.088567 
L 69.558408 353.2239 
L 75.656788 353.171793 
L 81.755169 353.2239 
L 87.853549 353.2239 
L 106.14869 353.147139 
L 136.640592 353.221825 
L 167.132495 353.210729 
L 197.624397 353.223659 
L 228.116299 353.191767 
L 258.608201 353.150565 
L 289.100103 353.19968 
L 319.592006 353.167885 
L 350.083908 353.090063 
L 380.57581 353.171455 
L 411.067712 353.137731 
L 441.559614 353.147621 
L 472.051517 353.179802 
L 502.543419 353.106708 
L 533.035321 353.088278 
L 563.527223 353.114042 
L 594.019125 353.197847 
L 624.511028 353.172372 
L 655.00293 353.13749 
L 685.494832 353.143617 
L 715.986734 353.172083 
L 746.478636 353.171938 
L 776.970538 353.108397 
L 807.462441 353.171552 
L 837.954343 353.107432 
L 868.446245 353.175894 
L 898.938147 353.215216 
L 929.430049 353.213479 
L 947.725191 353.177342 
" clip-path="url(#p0ff1acbd7a)" style="fill: none; stroke: #5cb85c; stroke-linecap: square"/>
   </g>
   <g id="line2d_14">
    <path d="M 39.066505 280.174048 
L 45.164886 349.511292 
L 51.263266 353.213286 
L 57.361647 353.088567 
L 63.460027 353.108107 
L 69.558408 353.203636 
L 75.656788 353.045627 
L 81.755169 353.190127 
L 87.853549 353.11848 
L 106.14869 353.173241 
L 136.640592 353.073611 
L 167.132495 353.116454 
L 197.624397 353.013495 
L 228.116299 353.189886 
L 258.608201 353.022372 
L 289.100103 353.02382 
L 319.592006 353.063768 
L 350.083908 352.904842 
L 380.57581 352.998297 
L 411.067712 353.121375 
L 441.559614 353.056049 
L 472.051517 353.018368 
L 502.543419 352.983726 
L 533.035321 353.017644 
L 563.527223 352.86914 
L 594.019125 353.033758 
L 624.511028 353.129239 
L 655.00293 352.978274 
L 685.494832 353.097493 
L 715.986734 353.090111 
L 746.478636 353.03207 
L 776.970538 353.136283 
L 807.462441 353.177728 
L 837.954343 353.137297 
L 868.446245 353.190127 
L 898.938147 345.054714 
L 929.430049 353.219654 
L 947.725191 352.978323 
" clip-path="url(#p0ff1acbd7a)" style="fill: none; stroke: #5cb85c; stroke-linecap: square"/>
   </g>
   <g id="line2d_15">
    <path d="M 39.066505 310.034458 
L 45.164886 353.030855 
L 51.263266 351.440783 
L 57.361647 353.2239 
L 63.460027 353.089237 
L 69.558408 353.2239 
L 75.656788 353.174881 
L 81.755169 353.2239 
L 87.853549 353.2239 
L 106.14869 353.145305 
L 136.640592 353.221201 
L 167.132495 353.211453 
L 197.624397 353.22368 
L 228.116299 353.194158 
L 258.608201 353.147398 
L 289.100103 353.199556 
L 319.592006 353.165684 
L 350.083908 353.083454 
L 380.57581 353.172293 
L 411.067712 353.134841 
L 441.559614 353.147894 
L 472.051517 353.180059 
L 502.543419 353.10565 
L 533.035321 353.083564 
L 563.527223 353.112259 
L 594.019125 353.19906 
L 624.511028 353.170806 
L 655.00293 353.136273 
L 685.494832 353.14872 
L 715.986734 353.175267 
L 746.478636 353.175157 
L 776.970538 353.111323 
L 807.462441 353.170751 
L 837.954343 353.105264 
L 868.446245 353.173725 
L 898.938147 353.216024 
L 929.430049 353.213986 
L 947.725191 353.179012 
" clip-path="url(#p0ff1acbd7a)" style="fill: none; stroke: #5cb85c; stroke-linecap: square"/>
   </g>
   <g id="line2d_16">
    <path d="M 39.066505 276.434194 
L 45.164886 349.440937 
L 51.263266 353.212058 
L 57.361647 353.080975 
L 63.460027 353.111268 
L 69.558408 353.196637 
L 75.656788 352.996157 
L 81.755169 353.187825 
L 87.853549 353.122283 
L 106.14869 353.1702 
L 136.640592 353.065113 
L 167.132495 353.11303 
L 197.624397 353.004418 
L 228.116299 353.188486 
L 258.608201 353.01268 
L 289.100103 353.022924 
L 319.592006 353.053932 
L 350.083908 352.884846 
L 380.57581 352.993183 
L 411.067712 353.119805 
L 441.559614 353.05195 
L 472.051517 353.012625 
L 502.543419 352.975448 
L 533.035321 353.007888 
L 563.527223 352.856592 
L 594.019125 353.033995 
L 624.511028 353.12746 
L 655.00293 352.968233 
L 685.494832 353.096617 
L 715.986734 353.082738 
L 746.478636 353.022704 
L 776.970538 353.133188 
L 807.462441 353.173174 
L 837.954343 353.134069 
L 868.446245 353.18788 
L 898.938147 345.052128 
L 929.430049 353.218337 
L 947.725191 352.979634 
" clip-path="url(#p0ff1acbd7a)" style="fill: none; stroke: #5cb85c; stroke-linecap: square"/>
   </g>
   <g id="line2d_17">
    <path d="M 39.066505 312.738398 
L 45.164886 353.04166 
L 51.263266 351.594368 
L 57.361647 353.2239 
L 63.460027 353.106765 
L 69.558408 353.2239 
L 75.656788 353.172415 
L 81.755169 353.2239 
L 87.853549 353.2239 
L 106.14869 353.149261 
L 136.640592 353.221993 
L 167.132495 353.210007 
L 197.624397 353.223519 
L 228.116299 353.193935 
L 258.608201 353.150677 
L 289.100103 353.201018 
L 319.592006 353.168602 
L 350.083908 353.096795 
L 380.57581 353.176719 
L 411.067712 353.141198 
L 441.559614 353.15095 
L 472.051517 353.183039 
L 502.543419 353.116409 
L 533.035321 353.09843 
L 563.527223 353.121475 
L 594.019125 353.200963 
L 624.511028 353.177264 
L 655.00293 353.144902 
L 685.494832 353.151767 
L 715.986734 353.175957 
L 746.478636 353.176011 
L 776.970538 353.1157 
L 807.462441 353.17405 
L 837.954343 353.111015 
L 868.446245 353.176501 
L 898.938147 353.216817 
L 929.430049 353.215183 
L 947.725191 353.177319 
" clip-path="url(#p0ff1acbd7a)" style="fill: none; stroke: #5cb85c; stroke-linecap: square"/>
   </g>
   <g id="line2d_18">
    <path d="M 39.066505 280.264897 
L 45.164886 349.639039 
L 51.263266 353.218724 
L 57.361647 353.096686 
L 63.460027 353.117117 
L 69.558408 353.201835 
L 75.656788 353.037302 
L 81.755169 353.185491 
L 87.853549 353.131554 
L 106.14869 353.175357 
L 136.640592 353.076365 
L 167.132495 353.123709 
L 197.624397 353.021339 
L 228.116299 353.19241 
L 258.608201 353.032726 
L 289.100103 353.028476 
L 319.592006 353.068956 
L 350.083908 352.915591 
L 380.57581 353.001671 
L 411.067712 353.124417 
L 441.559614 353.061219 
L 472.051517 353.028803 
L 502.543419 352.992301 
L 533.035321 353.027223 
L 563.527223 352.871952 
L 594.019125 353.047871 
L 624.511028 353.133843 
L 655.00293 352.983801 
L 685.494832 353.108345 
L 715.986734 353.090911 
L 746.478636 353.037302 
L 776.970538 353.140762 
L 807.462441 353.181786 
L 837.954343 353.142505 
L 868.446245 353.191211 
L 898.938147 345.102828 
L 929.430049 353.219868 
L 947.725191 352.982276 
" clip-path="url(#p0ff1acbd7a)" style="fill: none; stroke: #5cb85c; stroke-linecap: square"/>
   </g>
   <g id="line2d_19">
    <path d="M 39.066505 310.438819 
L 45.164886 353.037213 
L 51.263266 351.534801 
L 57.361647 353.2239 
L 63.460027 353.10303 
L 69.558408 353.2239 
L 75.656788 353.175921 
L 81.755169 353.2239 
L 87.853549 353.2239 
L 106.14869 353.146826 
L 136.640592 353.22187 
L 167.132495 353.209814 
L 197.624397 353.223715 
L 228.116299 353.193452 
L 258.608201 353.147442 
L 289.100103 353.200157 
L 319.592006 353.166695 
L 350.083908 353.087345 
L 380.57581 353.172846 
L 411.067712 353.135877 
L 441.559614 353.147503 
L 472.051517 353.178689 
L 502.543419 353.109181 
L 533.035321 353.086422 
L 563.527223 353.112995 
L 594.019125 353.198865 
L 624.511028 353.174383 
L 655.00293 353.139322 
L 685.494832 353.152116 
L 715.986734 353.178197 
L 746.478636 353.178074 
L 776.970538 353.116378 
L 807.462441 353.172784 
L 837.954343 353.104261 
L 868.446245 353.175798 
L 898.938147 353.216703 
L 929.430049 353.215165 
L 947.725191 353.177151 
" clip-path="url(#p0ff1acbd7a)" style="fill: none; stroke: #5cb85c; stroke-linecap: square"/>
   </g>
   <g id="line2d_20">
    <path d="M 39.066505 277.490926 
L 45.164886 349.538145 
L 51.263266 353.214981 
L 57.361647 353.083654 
L 63.460027 353.118716 
L 69.558408 353.202064 
L 75.656788 353.007688 
L 81.755169 353.185763 
L 87.853549 353.126712 
L 106.14869 353.169155 
L 136.640592 353.070614 
L 167.132495 353.116932 
L 197.624397 353.015069 
L 228.116299 353.190561 
L 258.608201 353.026879 
L 289.100103 353.026818 
L 319.592006 353.060096 
L 350.083908 352.902996 
L 380.57581 352.995939 
L 411.067712 353.122222 
L 441.559614 353.050315 
L 472.051517 353.018329 
L 502.543419 352.977117 
L 533.035321 353.017714 
L 563.527223 352.861168 
L 594.019125 353.035368 
L 624.511028 353.128619 
L 655.00293 352.974287 
L 685.494832 353.10463 
L 715.986734 353.090298 
L 746.478636 353.028294 
L 776.970538 353.139384 
L 807.462441 353.179489 
L 837.954343 353.141229 
L 868.446245 353.1889 
L 898.938147 345.089405 
L 929.430049 353.219287 
L 947.725191 352.992003 
" clip-path="url(#p0ff1acbd7a)" style="fill: none; stroke: #5cb85c; stroke-linecap: square"/>
   </g>
   <g id="line2d_21">
    <path d="M 39.066505 306.87176 
L 45.164886 353.037395 
L 51.263266 351.3116 
L 57.361647 353.2239 
L 63.460027 353.081589 
L 69.558408 353.2239 
L 75.656788 353.168866 
L 81.755169 353.2239 
L 87.853549 353.2239 
L 106.14869 353.141905 
L 136.640592 353.221843 
L 167.132495 353.21117 
L 197.624397 353.2234 
L 228.116299 353.197217 
L 258.608201 353.148742 
L 289.100103 353.198273 
L 319.592006 353.159971 
L 350.083908 353.080033 
L 380.57581 353.167254 
L 411.067712 353.131565 
L 441.559614 353.144017 
L 472.051517 353.17726 
L 502.543419 353.095987 
L 533.035321 353.078143 
L 563.527223 353.109051 
L 594.019125 353.197328 
L 624.511028 353.170367 
L 655.00293 353.129174 
L 685.494832 353.141071 
L 715.986734 353.170811 
L 746.478636 353.169477 
L 776.970538 353.10666 
L 807.462441 353.167754 
L 837.954343 353.10238 
L 868.446245 353.169366 
L 898.938147 353.216229 
L 929.430049 353.214227 
L 947.725191 353.170534 
" clip-path="url(#p0ff1acbd7a)" style="fill: none; stroke: #5cb85c; stroke-linecap: square"/>
   </g>
   <g id="line2d_22">
    <path d="M 39.066505 272.269422 
L 45.164886 349.3262 
L 51.263266 353.214172 
L 57.361647 353.067692 
L 63.460027 353.109106 
L 69.558408 353.201108 
L 75.656788 352.995703 
L 81.755169 353.17915 
L 87.853549 353.117723 
L 106.14869 353.16642 
L 136.640592 353.060354 
L 167.132495 353.108662 
L 197.624397 352.993368 
L 228.116299 353.185487 
L 258.608201 353.013769 
L 289.100103 353.019606 
L 319.592006 353.049514 
L 350.083908 352.873238 
L 380.57581 352.980582 
L 411.067712 353.115333 
L 441.559614 353.043621 
L 472.051517 352.999538 
L 502.543419 352.959069 
L 533.035321 353.000483 
L 563.527223 352.844942 
L 594.019125 353.023331 
L 624.511028 353.121058 
L 655.00293 352.955845 
L 685.494832 353.08687 
L 715.986734 353.0807 
L 746.478636 353.017105 
L 776.970538 353.125783 
L 807.462441 353.172535 
L 837.954343 353.12684 
L 868.446245 353.184598 
L 898.938147 344.923686 
L 929.430049 353.218174 
L 947.725191 352.979581 
" clip-path="url(#p0ff1acbd7a)" style="fill: none; stroke: #5cb85c; stroke-linecap: square"/>
   </g>
   <g id="line2d_23">
    <path d="M 39.066505 307.532374 
L 45.164886 353.044554 
L 51.263266 351.217972 
L 57.361647 353.2239 
L 63.460027 353.081938 
L 69.558408 353.2239 
L 75.656788 353.171137 
L 81.755169 353.2239 
L 87.853549 353.2239 
L 106.14869 353.143644 
L 136.640592 353.221676 
L 167.132495 353.211029 
L 197.624397 353.223569 
L 228.116299 353.192148 
L 258.608201 353.145915 
L 289.100103 353.198678 
L 319.592006 353.163803 
L 350.083908 353.072332 
L 380.57581 353.166784 
L 411.067712 353.130158 
L 441.559614 353.143691 
L 472.051517 353.174592 
L 502.543419 353.090739 
L 533.035321 353.074366 
L 563.527223 353.107586 
L 594.019125 353.19546 
L 624.511028 353.169718 
L 655.00293 353.130631 
L 685.494832 353.142792 
L 715.986734 353.171563 
L 746.478636 353.171847 
L 776.970538 353.103327 
L 807.462441 353.166405 
L 837.954343 353.10238 
L 868.446245 353.170759 
L 898.938147 353.213584 
L 929.430049 353.211549 
L 947.725191 353.167115 
" clip-path="url(#p0ff1acbd7a)" style="fill: none; stroke: #5cb85c; stroke-linecap: square"/>
   </g>
   <g id="line2d_24">
    <path d="M 39.066505 273.18908 
L 45.164886 349.22624 
L 51.263266 353.214436 
L 57.361647 353.052126 
L 63.460027 353.098973 
L 69.558408 353.196691 
L 75.656788 352.979015 
L 81.755169 353.179892 
L 87.853549 353.103469 
L 106.14869 353.162714 
L 136.640592 353.049192 
L 167.132495 353.10186 
L 197.624397 352.984504 
L 228.116299 353.181169 
L 258.608201 352.99889 
L 289.100103 353.005657 
L 319.592006 353.042425 
L 350.083908 352.867858 
L 380.57581 352.978258 
L 411.067712 353.109336 
L 441.559614 353.037929 
L 472.051517 352.993968 
L 502.543419 352.962169 
L 533.035321 352.992075 
L 563.527223 352.836201 
L 594.019125 353.013748 
L 624.511028 353.119274 
L 655.00293 352.95526 
L 685.494832 353.083736 
L 715.986734 353.071811 
L 746.478636 353.004521 
L 776.970538 353.118611 
L 807.462441 353.163282 
L 837.954343 353.120126 
L 868.446245 353.180649 
L 898.938147 344.94617 
L 929.430049 353.219215 
L 947.725191 352.976649 
" clip-path="url(#p0ff1acbd7a)" style="fill: none; stroke: #5cb85c; stroke-linecap: square"/>
   </g>
   <g id="line2d_25">
    <path d="M 39.066505 313.872917 
L 45.164886 353.041628 
L 51.263266 351.639185 
L 57.361647 353.2239 
L 63.460027 353.095569 
L 69.558408 353.2239 
L 75.656788 353.172261 
L 81.755169 353.2239 
L 87.853549 353.2239 
L 106.14869 353.152781 
L 136.640592 353.222008 
L 167.132495 353.212192 
L 197.624397 353.223849 
L 228.116299 353.195524 
L 258.608201 353.151963 
L 289.100103 353.201353 
L 319.592006 353.170573 
L 350.083908 353.100119 
L 380.57581 353.176811 
L 411.067712 353.143322 
L 441.559614 353.155644 
L 472.051517 353.18448 
L 502.543419 353.119394 
L 533.035321 353.10196 
L 563.527223 353.122155 
L 594.019125 353.201301 
L 624.511028 353.176862 
L 655.00293 353.143833 
L 685.494832 353.149918 
L 715.986734 353.175737 
L 746.478636 353.173846 
L 776.970538 353.120519 
L 807.462441 353.175942 
L 837.954343 353.116582 
L 868.446245 353.178856 
L 898.938147 353.215617 
L 929.430049 353.213981 
L 947.725191 353.178652 
" clip-path="url(#p0ff1acbd7a)" style="fill: none; stroke: #5cb85c; stroke-linecap: square"/>
   </g>
   <g id="line2d_26">
    <path d="M 39.066505 281.656091 
L 45.164886 349.609912 
L 51.263266 353.215975 
L 57.361647 353.092501 
L 63.460027 353.116531 
L 69.558408 353.202682 
L 75.656788 353.027568 
L 81.755169 353.188622 
L 87.853549 353.126245 
L 106.14869 353.177834 
L 136.640592 353.076702 
L 167.132495 353.122769 
L 197.624397 353.026137 
L 228.116299 353.191536 
L 258.608201 353.03534 
L 289.100103 353.035544 
L 319.592006 353.069851 
L 350.083908 352.921068 
L 380.57581 353.010185 
L 411.067712 353.126348 
L 441.559614 353.066681 
L 472.051517 353.031147 
L 502.543419 352.993977 
L 533.035321 353.029051 
L 563.527223 352.87628 
L 594.019125 353.048275 
L 624.511028 353.134324 
L 655.00293 352.986768 
L 685.494832 353.106766 
L 715.986734 353.094188 
L 746.478636 353.036413 
L 776.970538 353.142095 
L 807.462441 353.181259 
L 837.954343 353.144703 
L 868.446245 353.193019 
L 898.938147 345.05353 
L 929.430049 353.219401 
L 947.725191 352.989989 
" clip-path="url(#p0ff1acbd7a)" style="fill: none; stroke: #5cb85c; stroke-linecap: square"/>
   </g>
   <g id="line2d_27">
    <path d="M 39.066505 313.014469 
L 45.164886 353.045709 
L 51.263266 351.551056 
L 57.361647 353.2239 
L 63.460027 353.095453 
L 69.558408 353.2239 
L 75.656788 353.17112 
L 81.755169 353.2239 
L 87.853549 353.2239 
L 106.14869 353.15211 
L 136.640592 353.221751 
L 167.132495 353.210635 
L 197.624397 353.22348 
L 228.116299 353.194194 
L 258.608201 353.153324 
L 289.100103 353.201247 
L 319.592006 353.170373 
L 350.083908 353.092557 
L 380.57581 353.17481 
L 411.067712 353.140853 
L 441.559614 353.149121 
L 472.051517 353.181629 
L 502.543419 353.111241 
L 533.035321 353.094379 
L 563.527223 353.116986 
L 594.019125 353.196716 
L 624.511028 353.173315 
L 655.00293 353.138751 
L 685.494832 353.14828 
L 715.986734 353.175417 
L 746.478636 353.17425 
L 776.970538 353.111941 
L 807.462441 353.1707 
L 837.954343 353.109045 
L 868.446245 353.177332 
L 898.938147 353.214652 
L 929.430049 353.212737 
L 947.725191 353.177426 
" clip-path="url(#p0ff1acbd7a)" style="fill: none; stroke: #5cb85c; stroke-linecap: square"/>
   </g>
   <g id="line2d_28">
    <path d="M 39.066505 280.449019 
L 45.164886 349.537245 
L 51.263266 353.216193 
L 57.361647 353.081441 
L 63.460027 353.112268 
L 69.558408 353.200546 
L 75.656788 353.021421 
L 81.755169 353.1863 
L 87.853549 353.119975 
L 106.14869 353.171354 
L 136.640592 353.066634 
L 167.132495 353.116659 
L 197.624397 353.009744 
L 228.116299 353.187888 
L 258.608201 353.022028 
L 289.100103 353.02399 
L 319.592006 353.062991 
L 350.083908 352.905025 
L 380.57581 352.99391 
L 411.067712 353.120395 
L 441.559614 353.056732 
L 472.051517 353.014368 
L 502.543419 352.978123 
L 533.035321 353.01647 
L 563.527223 352.860326 
L 594.019125 353.028334 
L 624.511028 353.129363 
L 655.00293 352.976255 
L 685.494832 353.100685 
L 715.986734 353.084337 
L 746.478636 353.025018 
L 776.970538 353.136416 
L 807.462441 353.175931 
L 837.954343 353.137724 
L 868.446245 353.188589 
L 898.938147 345.06118 
L 929.430049 353.219183 
L 947.725191 352.981019 
" clip-path="url(#p0ff1acbd7a)" style="fill: none; stroke: #5cb85c; stroke-linecap: square"/>
   </g>
   <g id="line2d_29">
    <path d="M 39.066505 310.511208 
L 45.164886 353.038658 
L 51.263266 351.43946 
L 57.361647 353.2239 
L 63.460027 353.095712 
L 69.558408 353.2239 
L 75.656788 353.175344 
L 81.755169 353.2239 
L 87.853549 353.2239 
L 106.14869 353.142423 
L 136.640592 353.222152 
L 167.132495 353.211373 
L 197.624397 353.223657 
L 228.116299 353.194038 
L 258.608201 353.147764 
L 289.100103 353.199039 
L 319.592006 353.163642 
L 350.083908 353.07828 
L 380.57581 353.1701 
L 411.067712 353.13645 
L 441.559614 353.146501 
L 472.051517 353.178112 
L 502.543419 353.098819 
L 533.035321 353.081388 
L 563.527223 353.111104 
L 594.019125 353.196709 
L 624.511028 353.171459 
L 655.00293 353.13174 
L 685.494832 353.142568 
L 715.986734 353.171508 
L 746.478636 353.171168 
L 776.970538 353.10887 
L 807.462441 353.169663 
L 837.954343 353.101927 
L 868.446245 353.17044 
L 898.938147 353.21584 
L 929.430049 353.213363 
L 947.725191 353.170731 
" clip-path="url(#p0ff1acbd7a)" style="fill: none; stroke: #5cb85c; stroke-linecap: square"/>
   </g>
   <g id="line2d_30">
    <path d="M 39.066505 276.92805 
L 45.164886 349.436517 
L 51.263266 353.213218 
L 57.361647 353.075804 
L 63.460027 353.111492 
L 69.558408 353.199379 
L 75.656788 353.018265 
L 81.755169 353.183113 
L 87.853549 353.129701 
L 106.14869 353.170974 
L 136.640592 353.063325 
L 167.132495 353.111929 
L 197.624397 353.004038 
L 228.116299 353.186657 
L 258.608201 353.013118 
L 289.100103 353.021032 
L 319.592006 353.048029 
L 350.083908 352.886726 
L 380.57581 352.990733 
L 411.067712 353.118193 
L 441.559614 353.046621 
L 472.051517 353.009864 
L 502.543419 352.97403 
L 533.035321 353.006271 
L 563.527223 352.853611 
L 594.019125 353.027442 
L 624.511028 353.125671 
L 655.00293 352.967086 
L 685.494832 353.094789 
L 715.986734 353.084884 
L 746.478636 353.022246 
L 776.970538 353.129264 
L 807.462441 353.175878 
L 837.954343 353.12941 
L 868.446245 353.185152 
L 898.938147 344.953762 
L 929.430049 353.219141 
L 947.725191 352.980634 
" clip-path="url(#p0ff1acbd7a)" style="fill: none; stroke: #5cb85c; stroke-linecap: square"/>
   </g>
   <g id="line2d_31">
    <path d="M 39.066505 300.870863 
L 45.164886 353.04306 
L 51.263266 351.070084 
L 57.361647 353.2239 
L 63.460027 353.078257 
L 69.558408 353.2239 
L 75.656788 353.161516 
L 81.755169 353.2239 
L 87.853549 353.2239 
L 106.14869 353.132145 
L 136.640592 353.221618 
L 167.132495 353.211569 
L 197.624397 353.223512 
L 228.116299 353.195694 
L 258.608201 353.143748 
L 289.100103 353.198947 
L 319.592006 353.158506 
L 350.083908 353.062139 
L 380.57581 353.163604 
L 411.067712 353.128116 
L 441.559614 353.141126 
L 472.051517 353.172925 
L 502.543419 353.07748 
L 533.035321 353.066897 
L 563.527223 353.097822 
L 594.019125 353.193412 
L 624.511028 353.168847 
L 655.00293 353.118503 
L 685.494832 353.134767 
L 715.986734 353.167439 
L 746.478636 353.168459 
L 776.970538 353.102919 
L 807.462441 353.163555 
L 837.954343 353.094715 
L 868.446245 353.163021 
L 898.938147 353.214336 
L 929.430049 353.211957 
L 947.725191 353.171711 
" clip-path="url(#p0ff1acbd7a)" style="fill: none; stroke: #5cb85c; stroke-linecap: square"/>
   </g>
   <g id="line2d_32">
    <path d="M 39.066505 263.743334 
L 45.164886 349.12114 
L 51.263266 353.213462 
L 57.361647 353.055197 
L 63.460027 353.098162 
L 69.558408 353.195985 
L 75.656788 352.979948 
L 81.755169 353.181178 
L 87.853549 353.102774 
L 106.14869 353.163895 
L 136.640592 353.047041 
L 167.132495 353.102143 
L 197.624397 352.979948 
L 228.116299 353.181809 
L 258.608201 352.992522 
L 289.100103 353.010776 
L 319.592006 353.031069 
L 350.083908 352.856977 
L 380.57581 352.968637 
L 411.067712 353.10923 
L 441.559614 353.03136 
L 472.051517 352.996406 
L 502.543419 352.94679 
L 533.035321 352.982424 
L 563.527223 352.829159 
L 594.019125 353.009951 
L 624.511028 353.116367 
L 655.00293 352.93878 
L 685.494832 353.079325 
L 715.986734 353.070635 
L 746.478636 353.000581 
L 776.970538 353.114182 
L 807.462441 353.163749 
L 837.954343 353.11224 
L 868.446245 353.176323 
L 898.938147 344.791225 
L 929.430049 353.218997 
L 947.725191 352.990386 
" clip-path="url(#p0ff1acbd7a)" style="fill: none; stroke: #5cb85c; stroke-linecap: square"/>
   </g>
   <g id="line2d_33">
    <path d="M 39.066505 313.485625 
L 45.164886 353.040104 
L 51.263266 351.603721 
L 57.361647 353.2239 
L 63.460027 353.108954 
L 69.558408 353.2239 
L 75.656788 353.16953 
L 81.755169 353.2239 
L 87.853549 353.2239 
L 106.14869 353.154223 
L 136.640592 353.221654 
L 167.132495 353.21078 
L 197.624397 353.223309 
L 228.116299 353.195947 
L 258.608201 353.1518 
L 289.100103 353.202447 
L 319.592006 353.169116 
L 350.083908 353.096425 
L 380.57581 353.176444 
L 411.067712 353.140158 
L 441.559614 353.158833 
L 472.051517 353.184009 
L 502.543419 353.116164 
L 533.035321 353.097311 
L 563.527223 353.121955 
L 594.019125 353.201797 
L 624.511028 353.177508 
L 655.00293 353.14654 
L 685.494832 353.161256 
L 715.986734 353.182708 
L 746.478636 353.18194 
L 776.970538 353.122428 
L 807.462441 353.17804 
L 837.954343 353.1125 
L 868.446245 353.179044 
L 898.938147 353.217104 
L 929.430049 353.21539 
L 947.725191 353.179576 
" clip-path="url(#p0ff1acbd7a)" style="fill: none; stroke: #5cb85c; stroke-linecap: square"/>
   </g>
   <g id="line2d_34">
    <path d="M 39.066505 280.419842 
L 45.164886 349.62511 
L 51.263266 353.216217 
L 57.361647 353.086201 
L 63.460027 353.130525 
L 69.558408 353.204398 
L 75.656788 353.03124 
L 81.755169 353.187555 
L 87.853549 353.125206 
L 106.14869 353.171657 
L 136.640592 353.07314 
L 167.132495 353.117819 
L 197.624397 353.015933 
L 228.116299 353.190155 
L 258.608201 353.031062 
L 289.100103 353.034904 
L 319.592006 353.070422 
L 350.083908 352.914757 
L 380.57581 353.003109 
L 411.067712 353.130643 
L 441.559614 353.065871 
L 472.051517 353.027221 
L 502.543419 352.986029 
L 533.035321 353.024562 
L 563.527223 352.872324 
L 594.019125 353.044064 
L 624.511028 353.13478 
L 655.00293 352.981952 
L 685.494832 353.107595 
L 715.986734 353.088683 
L 746.478636 353.030826 
L 776.970538 353.140867 
L 807.462441 353.177153 
L 837.954343 353.144649 
L 868.446245 353.190214 
L 898.938147 345.024723 
L 929.430049 353.218463 
L 947.725191 352.993417 
" clip-path="url(#p0ff1acbd7a)" style="fill: none; stroke: #5cb85c; stroke-linecap: square"/>
   </g>
   <g id="line2d_35">
    <path d="M 39.066505 310.383804 
L 45.164886 353.05125 
L 51.263266 351.569472 
L 57.361647 353.2239 
L 63.460027 353.108536 
L 69.558408 353.2239 
L 75.656788 353.173742 
L 81.755169 353.2239 
L 87.853549 353.2239 
L 106.14869 353.148452 
L 136.640592 353.22163 
L 167.132495 353.210753 
L 197.624397 353.223583 
L 228.116299 353.193066 
L 258.608201 353.152728 
L 289.100103 353.201725 
L 319.592006 353.170521 
L 350.083908 353.092169 
L 380.57581 353.175431 
L 411.067712 353.140479 
L 441.559614 353.151355 
L 472.051517 353.183245 
L 502.543419 353.110067 
L 533.035321 353.090162 
L 563.527223 353.118357 
L 594.019125 353.19956 
L 624.511028 353.174903 
L 655.00293 353.142644 
L 685.494832 353.151619 
L 715.986734 353.178916 
L 746.478636 353.176593 
L 776.970538 353.11635 
L 807.462441 353.1739 
L 837.954343 353.110807 
L 868.446245 353.176751 
L 898.938147 353.216244 
L 929.430049 353.214924 
L 947.725191 353.181398 
" clip-path="url(#p0ff1acbd7a)" style="fill: none; stroke: #5cb85c; stroke-linecap: square"/>
   </g>
   <g id="line2d_36">
    <path d="M 39.066505 276.467375 
L 45.164886 349.603008 
L 51.263266 353.214132 
L 57.361647 353.093225 
L 63.460027 353.115136 
L 69.558408 353.196445 
L 75.656788 353.005844 
L 81.755169 353.191165 
L 87.853549 353.130711 
L 106.14869 353.171577 
L 136.640592 353.075907 
L 167.132495 353.117776 
L 197.624397 353.011916 
L 228.116299 353.188578 
L 258.608201 353.022317 
L 289.100103 353.028706 
L 319.592006 353.064133 
L 350.083908 352.905897 
L 380.57581 353.000353 
L 411.067712 353.12728 
L 441.559614 353.061071 
L 472.051517 353.016034 
L 502.543419 352.980818 
L 533.035321 353.024798 
L 563.527223 352.866457 
L 594.019125 353.038473 
L 624.511028 353.132507 
L 655.00293 352.981926 
L 685.494832 353.102412 
L 715.986734 353.090954 
L 746.478636 353.034936 
L 776.970538 353.1371 
L 807.462441 353.174956 
L 837.954343 353.138737 
L 868.446245 353.187575 
L 898.938147 345.02948 
L 929.430049 353.21862 
L 947.725191 352.958062 
" clip-path="url(#p0ff1acbd7a)" style="fill: none; stroke: #5cb85c; stroke-linecap: square"/>
   </g>
   <g id="line2d_37">
    <path d="M 39.066505 308.044407 
L 45.164886 353.023194 
L 51.263266 351.387825 
L 57.361647 353.2239 
L 63.460027 353.090005 
L 69.558408 353.2239 
L 75.656788 353.16827 
L 81.755169 353.2239 
L 87.853549 353.2239 
L 106.14869 353.147763 
L 136.640592 353.222046 
L 167.132495 353.210701 
L 197.624397 353.223682 
L 228.116299 353.19314 
L 258.608201 353.143563 
L 289.100103 353.198157 
L 319.592006 353.163197 
L 350.083908 353.081224 
L 380.57581 353.170015 
L 411.067712 353.13211 
L 441.559614 353.142091 
L 472.051517 353.176614 
L 502.543419 353.09895 
L 533.035321 353.081334 
L 563.527223 353.108167 
L 594.019125 353.196085 
L 624.511028 353.169633 
L 655.00293 353.132655 
L 685.494832 353.143618 
L 715.986734 353.172306 
L 746.478636 353.173833 
L 776.970538 353.107185 
L 807.462441 353.171433 
L 837.954343 353.099332 
L 868.446245 353.172087 
L 898.938147 353.215283 
L 929.430049 353.212774 
L 947.725191 353.176723 
" clip-path="url(#p0ff1acbd7a)" style="fill: none; stroke: #5cb85c; stroke-linecap: square"/>
   </g>
   <g id="line2d_38">
    <path d="M 39.066505 273.213525 
L 45.164886 349.41622 
L 51.263266 353.21381 
L 57.361647 353.067917 
L 63.460027 353.103913 
L 69.558408 353.200448 
L 75.656788 353.007105 
L 81.755169 353.182177 
L 87.853549 353.11673 
L 106.14869 353.166143 
L 136.640592 353.063117 
L 167.132495 353.108276 
L 197.624397 352.998761 
L 228.116299 353.18425 
L 258.608201 353.008032 
L 289.100103 353.01774 
L 319.592006 353.0539 
L 350.083908 352.884228 
L 380.57581 352.984689 
L 411.067712 353.117711 
L 441.559614 353.04261 
L 472.051517 353.005414 
L 502.543419 352.965382 
L 533.035321 353.005305 
L 563.527223 352.84954 
L 594.019125 353.023958 
L 624.511028 353.12382 
L 655.00293 352.961074 
L 685.494832 353.088642 
L 715.986734 353.08177 
L 746.478636 353.017522 
L 776.970538 353.126001 
L 807.462441 353.173069 
L 837.954343 353.127801 
L 868.446245 353.184904 
L 898.938147 344.858729 
L 929.430049 353.219319 
L 947.725191 352.97929 
" clip-path="url(#p0ff1acbd7a)" style="fill: none; stroke: #5cb85c; stroke-linecap: square"/>
   </g>
   <g id="line2d_39">
    <path d="M 32.968125 353.2239 
L 993.158125 353.2239 
" clip-path="url(#p0ff1acbd7a)" style="fill: none; stroke: #dedede; stroke-width: 2; stroke-linecap: square"/>
   </g>
   <g id="text_17">
    <!-- FastQC: Per Base N Content -->
    <g transform="translate(402.209375 19.3575) scale(0.16 -0.16)">
     <defs>
      <path id="DejaVuSans-46" d="M 628 4666 
L 3309 4666 
L 3309 4134 
L 1259 4134 
L 1259 2759 
L 3109 2759 
L 3109 2228 
L 1259 2228 
L 1259 0 
L 628 0 
L 628 4666 
z
" transform="scale(0.015625)"/>
      <path id="DejaVuSans-51" d="M 2522 4238 
Q 1834 4238 1429 3725 
Q 1025 3213 1025 2328 
Q 1025 1447 1429 934 
Q 1834 422 2522 422 
Q 3209 422 3611 934 
Q 4013 1447 4013 2328 
Q 4013 3213 3611 3725 
Q 3209 4238 2522 4238 
z
M 3406 84 
L 4238 -825 
L 3475 -825 
L 2784 -78 
Q 2681 -84 2626 -87 
Q 2572 -91 2522 -91 
Q 1538 -91 948 567 
Q 359 1225 359 2328 
Q 359 3434 948 4092 
Q 1538 4750 2522 4750 
Q 3503 4750 4090 4092 
Q 4678 3434 4678 2328 
Q 4678 1516 4351 937 
Q 4025 359 3406 84 
z
" transform="scale(0.015625)"/>
      <path id="DejaVuSans-3a" d="M 750 794 
L 1409 794 
L 1409 0 
L 750 0 
L 750 794 
z
M 750 3309 
L 1409 3309 
L 1409 2516 
L 750 2516 
L 750 3309 
z
" transform="scale(0.015625)"/>
      <path id="DejaVuSans-42" d="M 1259 2228 
L 1259 519 
L 2272 519 
Q 2781 519 3026 730 
Q 3272 941 3272 1375 
Q 3272 1813 3026 2020 
Q 2781 2228 2272 2228 
L 1259 2228 
z
M 1259 4147 
L 1259 2741 
L 2194 2741 
Q 2656 2741 2882 2914 
Q 3109 3088 3109 3444 
Q 3109 3797 2882 3972 
Q 2656 4147 2194 4147 
L 1259 4147 
z
M 628 4666 
L 2241 4666 
Q 2963 4666 3353 4366 
Q 3744 4066 3744 3513 
Q 3744 3084 3544 2831 
Q 3344 2578 2956 2516 
Q 3422 2416 3680 2098 
Q 3938 1781 3938 1306 
Q 3938 681 3513 340 
Q 3088 0 2303 0 
L 628 0 
L 628 4666 
z
" transform="scale(0.015625)"/>
     </defs>
     <use xlink:href="#DejaVuSans-46"/>
     <use xlink:href="#DejaVuSans-61" x="48.394531"/>
     <use xlink:href="#DejaVuSans-73" x="109.673828"/>
     <use xlink:href="#DejaVuSans-74" x="161.773438"/>
     <use xlink:href="#DejaVuSans-51" x="200.982422"/>
     <use xlink:href="#DejaVuSans-43" x="279.693359"/>
     <use xlink:href="#DejaVuSans-3a" x="349.517578"/>
     <use xlink:href="#DejaVuSans-20" x="383.208984"/>
     <use xlink:href="#DejaVuSans-50" x="414.996094"/>
     <use xlink:href="#DejaVuSans-65" x="471.673828"/>
     <use xlink:href="#DejaVuSans-72" x="533.197266"/>
     <use xlink:href="#DejaVuSans-20" x="574.310547"/>
     <use xlink:href="#DejaVuSans-42" x="606.097656"/>
     <use xlink:href="#DejaVuSans-61" x="674.701172"/>
     <use xlink:href="#DejaVuSans-73" x="735.980469"/>
     <use xlink:href="#DejaVuSans-65" x="788.080078"/>
     <use xlink:href="#DejaVuSans-20" x="849.603516"/>
     <use xlink:href="#DejaVuSans-4e" x="881.390625"/>
     <use xlink:href="#DejaVuSans-20" x="956.195312"/>
     <use xlink:href="#DejaVuSans-43" x="987.982422"/>
     <use xlink:href="#DejaVuSans-6f" x="1057.806641"/>
     <use xlink:href="#DejaVuSans-6e" x="1118.988281"/>
     <use xlink:href="#DejaVuSans-74" x="1182.367188"/>
     <use xlink:href="#DejaVuSans-65" x="1221.576172"/>
     <use xlink:href="#DejaVuSans-6e" x="1283.099609"/>
     <use xlink:href="#DejaVuSans-74" x="1346.478516"/>
    </g>
   </g>
  </g>
 </g>
 <defs>
  <clipPath id="p0ff1acbd7a">
   <rect x="32.968125" y="35.2559" width="960.19" height="317.968"/>
  </clipPath>
 </defs>
</svg>
