<?xml version="1.0" encoding="utf-8" standalone="no"?>
<!DOCTYPE svg PUBLIC "-//W3C//DTD SVG 1.1//EN"
  "http://www.w3.org/Graphics/SVG/1.1/DTD/svg11.dtd">
<svg xmlns:xlink="http://www.w3.org/1999/xlink" width="1000.318125pt" height="388.844525pt" viewBox="0 0 1000.318125 388.844525" xmlns="http://www.w3.org/2000/svg" version="1.1">
 <metadata>
  <rdf:RDF xmlns:dc="http://purl.org/dc/elements/1.1/" xmlns:cc="http://creativecommons.org/ns#" xmlns:rdf="http://www.w3.org/1999/02/22-rdf-syntax-ns#">
   <cc:Work>
    <dc:type rdf:resource="http://purl.org/dc/dcmitype/StillImage"/>
    <dc:date>2024-08-15T09:46:19.743627</dc:date>
    <dc:format>image/svg+xml</dc:format>
    <dc:creator>
     <cc:Agent>
      <dc:title>Matplotlib v3.8.2, https://matplotlib.org/</dc:title>
     </cc:Agent>
    </dc:creator>
   </cc:Work>
  </rdf:RDF>
 </metadata>
 <defs>
  <style type="text/css">*{stroke-linejoin: round; stroke-linecap: butt}</style>
 </defs>
 <g id="figure_1">
  <g id="axes_1">
   <g id="patch_1">
    <path d="M 38.058125 353.2239 
L 993.118125 353.2239 
L 993.118125 35.2559 
L 38.058125 35.2559 
z
" style="fill: #ffffff"/>
   </g>
   <g id="patch_2">
    <path d="M 38.058125 135.368562 
L 955.533397 135.368562 
L 955.533397 -424.830878 
L 38.058125 -424.830878 
z
" clip-path="url(#pf84f53a5ca)" style="fill: #c3e6c3"/>
   </g>
   <g id="patch_3">
    <path d="M 38.058125 197.612944 
L 955.533397 197.612944 
L 955.533397 135.368562 
L 38.058125 135.368562 
z
" clip-path="url(#pf84f53a5ca)" style="fill: #e6dcc3"/>
   </g>
   <g id="patch_4">
    <path d="M 38.058125 353.2239 
L 955.533397 353.2239 
L 955.533397 197.612944 
L 38.058125 197.612944 
z
" clip-path="url(#pf84f53a5ca)" style="fill: #e6c3c3"/>
   </g>
   <g id="matplotlib.axis_1">
    <g id="xtick_1">
     <g id="text_1">
      <!-- 0 -->
      <g transform="translate(73.097853 366.30265) scale(0.08 -0.08)">
       <defs>
        <path id="DejaVuSans-30" d="M 2034 4250 
Q 1547 4250 1301 3770 
Q 1056 3291 1056 2328 
Q 1056 1369 1301 889 
Q 1547 409 2034 409 
Q 2525 409 2770 889 
Q 3016 1369 3016 2328 
Q 3016 3291 2770 3770 
Q 2525 4250 2034 4250 
z
M 2034 4750 
Q 2819 4750 3233 4129 
Q 3647 3509 3647 2328 
Q 3647 1150 3233 529 
Q 2819 -91 2034 -91 
Q 1250 -91 836 529 
Q 422 1150 422 2328 
Q 422 3509 836 4129 
Q 1250 4750 2034 4750 
z
" transform="scale(0.015625)"/>
       </defs>
       <use xlink:href="#DejaVuSans-30"/>
      </g>
     </g>
    </g>
    <g id="xtick_2">
     <g id="text_2">
      <!-- 20 -->
      <g transform="translate(187.094647 366.30265) scale(0.08 -0.08)">
       <defs>
        <path id="DejaVuSans-32" d="M 1228 531 
L 3431 531 
L 3431 0 
L 469 0 
L 469 531 
Q 828 903 1448 1529 
Q 2069 2156 2228 2338 
Q 2531 2678 2651 2914 
Q 2772 3150 2772 3378 
Q 2772 3750 2511 3984 
Q 2250 4219 1831 4219 
Q 1534 4219 1204 4116 
Q 875 4013 500 3803 
L 500 4441 
Q 881 4594 1212 4672 
Q 1544 4750 1819 4750 
Q 2544 4750 2975 4387 
Q 3406 4025 3406 3419 
Q 3406 3131 3298 2873 
Q 3191 2616 2906 2266 
Q 2828 2175 2409 1742 
Q 1991 1309 1228 531 
z
" transform="scale(0.015625)"/>
       </defs>
       <use xlink:href="#DejaVuSans-32"/>
       <use xlink:href="#DejaVuSans-30" x="63.623047"/>
      </g>
     </g>
    </g>
    <g id="xtick_3">
     <g id="text_3">
      <!-- 40 -->
      <g transform="translate(303.636441 366.30265) scale(0.08 -0.08)">
       <defs>
        <path id="DejaVuSans-34" d="M 2419 4116 
L 825 1625 
L 2419 1625 
L 2419 4116 
z
M 2253 4666 
L 3047 4666 
L 3047 1625 
L 3713 1625 
L 3713 1100 
L 3047 1100 
L 3047 0 
L 2419 0 
L 2419 1100 
L 313 1100 
L 313 1709 
L 2253 4666 
z
" transform="scale(0.015625)"/>
       </defs>
       <use xlink:href="#DejaVuSans-34"/>
       <use xlink:href="#DejaVuSans-30" x="63.623047"/>
      </g>
     </g>
    </g>
    <g id="xtick_4">
     <g id="text_4">
      <!-- 60 -->
      <g transform="translate(420.178235 366.30265) scale(0.08 -0.08)">
       <defs>
        <path id="DejaVuSans-36" d="M 2113 2584 
Q 1688 2584 1439 2293 
Q 1191 2003 1191 1497 
Q 1191 994 1439 701 
Q 1688 409 2113 409 
Q 2538 409 2786 701 
Q 3034 994 3034 1497 
Q 3034 2003 2786 2293 
Q 2538 2584 2113 2584 
z
M 3366 4563 
L 3366 3988 
Q 3128 4100 2886 4159 
Q 2644 4219 2406 4219 
Q 1781 4219 1451 3797 
Q 1122 3375 1075 2522 
Q 1259 2794 1537 2939 
Q 1816 3084 2150 3084 
Q 2853 3084 3261 2657 
Q 3669 2231 3669 1497 
Q 3669 778 3244 343 
Q 2819 -91 2113 -91 
Q 1303 -91 875 529 
Q 447 1150 447 2328 
Q 447 3434 972 4092 
Q 1497 4750 2381 4750 
Q 2619 4750 2861 4703 
Q 3103 4656 3366 4563 
z
" transform="scale(0.015625)"/>
       </defs>
       <use xlink:href="#DejaVuSans-36"/>
       <use xlink:href="#DejaVuSans-30" x="63.623047"/>
      </g>
     </g>
    </g>
    <g id="xtick_5">
     <g id="text_5">
      <!-- 80 -->
      <g transform="translate(536.720029 366.30265) scale(0.08 -0.08)">
       <defs>
        <path id="DejaVuSans-38" d="M 2034 2216 
Q 1584 2216 1326 1975 
Q 1069 1734 1069 1313 
Q 1069 891 1326 650 
Q 1584 409 2034 409 
Q 2484 409 2743 651 
Q 3003 894 3003 1313 
Q 3003 1734 2745 1975 
Q 2488 2216 2034 2216 
z
M 1403 2484 
Q 997 2584 770 2862 
Q 544 3141 544 3541 
Q 544 4100 942 4425 
Q 1341 4750 2034 4750 
Q 2731 4750 3128 4425 
Q 3525 4100 3525 3541 
Q 3525 3141 3298 2862 
Q 3072 2584 2669 2484 
Q 3125 2378 3379 2068 
Q 3634 1759 3634 1313 
Q 3634 634 3220 271 
Q 2806 -91 2034 -91 
Q 1263 -91 848 271 
Q 434 634 434 1313 
Q 434 1759 690 2068 
Q 947 2378 1403 2484 
z
M 1172 3481 
Q 1172 3119 1398 2916 
Q 1625 2713 2034 2713 
Q 2441 2713 2670 2916 
Q 2900 3119 2900 3481 
Q 2900 3844 2670 4047 
Q 2441 4250 2034 4250 
Q 1625 4250 1398 4047 
Q 1172 3844 1172 3481 
z
" transform="scale(0.015625)"/>
       </defs>
       <use xlink:href="#DejaVuSans-38"/>
       <use xlink:href="#DejaVuSans-30" x="63.623047"/>
      </g>
     </g>
    </g>
    <g id="xtick_6">
     <g id="text_6">
      <!-- 100 -->
      <g transform="translate(650.716822 366.30265) scale(0.08 -0.08)">
       <defs>
        <path id="DejaVuSans-31" d="M 794 531 
L 1825 531 
L 1825 4091 
L 703 3866 
L 703 4441 
L 1819 4666 
L 2450 4666 
L 2450 531 
L 3481 531 
L 3481 0 
L 794 0 
L 794 531 
z
" transform="scale(0.015625)"/>
       </defs>
       <use xlink:href="#DejaVuSans-31"/>
       <use xlink:href="#DejaVuSans-30" x="63.623047"/>
       <use xlink:href="#DejaVuSans-30" x="127.246094"/>
      </g>
     </g>
    </g>
    <g id="xtick_7">
     <g id="text_7">
      <!-- 120 -->
      <g transform="translate(767.258616 366.30265) scale(0.08 -0.08)">
       <use xlink:href="#DejaVuSans-31"/>
       <use xlink:href="#DejaVuSans-32" x="63.623047"/>
       <use xlink:href="#DejaVuSans-30" x="127.246094"/>
      </g>
     </g>
    </g>
    <g id="xtick_8">
     <g id="text_8">
      <!-- 140 -->
      <g transform="translate(883.80041 366.30265) scale(0.08 -0.08)">
       <use xlink:href="#DejaVuSans-31"/>
       <use xlink:href="#DejaVuSans-34" x="63.623047"/>
       <use xlink:href="#DejaVuSans-30" x="127.246094"/>
      </g>
     </g>
    </g>
    <g id="text_9">
     <!-- Position (bp) -->
     <g transform="translate(484.285 379.564837) scale(0.1 -0.1)">
      <defs>
       <path id="DejaVuSans-50" d="M 1259 4147 
L 1259 2394 
L 2053 2394 
Q 2494 2394 2734 2622 
Q 2975 2850 2975 3272 
Q 2975 3691 2734 3919 
Q 2494 4147 2053 4147 
L 1259 4147 
z
M 628 4666 
L 2053 4666 
Q 2838 4666 3239 4311 
Q 3641 3956 3641 3272 
Q 3641 2581 3239 2228 
Q 2838 1875 2053 1875 
L 1259 1875 
L 1259 0 
L 628 0 
L 628 4666 
z
" transform="scale(0.015625)"/>
       <path id="DejaVuSans-6f" d="M 1959 3097 
Q 1497 3097 1228 2736 
Q 959 2375 959 1747 
Q 959 1119 1226 758 
Q 1494 397 1959 397 
Q 2419 397 2687 759 
Q 2956 1122 2956 1747 
Q 2956 2369 2687 2733 
Q 2419 3097 1959 3097 
z
M 1959 3584 
Q 2709 3584 3137 3096 
Q 3566 2609 3566 1747 
Q 3566 888 3137 398 
Q 2709 -91 1959 -91 
Q 1206 -91 779 398 
Q 353 888 353 1747 
Q 353 2609 779 3096 
Q 1206 3584 1959 3584 
z
" transform="scale(0.015625)"/>
       <path id="DejaVuSans-73" d="M 2834 3397 
L 2834 2853 
Q 2591 2978 2328 3040 
Q 2066 3103 1784 3103 
Q 1356 3103 1142 2972 
Q 928 2841 928 2578 
Q 928 2378 1081 2264 
Q 1234 2150 1697 2047 
L 1894 2003 
Q 2506 1872 2764 1633 
Q 3022 1394 3022 966 
Q 3022 478 2636 193 
Q 2250 -91 1575 -91 
Q 1294 -91 989 -36 
Q 684 19 347 128 
L 347 722 
Q 666 556 975 473 
Q 1284 391 1588 391 
Q 1994 391 2212 530 
Q 2431 669 2431 922 
Q 2431 1156 2273 1281 
Q 2116 1406 1581 1522 
L 1381 1569 
Q 847 1681 609 1914 
Q 372 2147 372 2553 
Q 372 3047 722 3315 
Q 1072 3584 1716 3584 
Q 2034 3584 2315 3537 
Q 2597 3491 2834 3397 
z
" transform="scale(0.015625)"/>
       <path id="DejaVuSans-69" d="M 603 3500 
L 1178 3500 
L 1178 0 
L 603 0 
L 603 3500 
z
M 603 4863 
L 1178 4863 
L 1178 4134 
L 603 4134 
L 603 4863 
z
" transform="scale(0.015625)"/>
       <path id="DejaVuSans-74" d="M 1172 4494 
L 1172 3500 
L 2356 3500 
L 2356 3053 
L 1172 3053 
L 1172 1153 
Q 1172 725 1289 603 
Q 1406 481 1766 481 
L 2356 481 
L 2356 0 
L 1766 0 
Q 1100 0 847 248 
Q 594 497 594 1153 
L 594 3053 
L 172 3053 
L 172 3500 
L 594 3500 
L 594 4494 
L 1172 4494 
z
" transform="scale(0.015625)"/>
       <path id="DejaVuSans-6e" d="M 3513 2113 
L 3513 0 
L 2938 0 
L 2938 2094 
Q 2938 2591 2744 2837 
Q 2550 3084 2163 3084 
Q 1697 3084 1428 2787 
Q 1159 2491 1159 1978 
L 1159 0 
L 581 0 
L 581 3500 
L 1159 3500 
L 1159 2956 
Q 1366 3272 1645 3428 
Q 1925 3584 2291 3584 
Q 2894 3584 3203 3211 
Q 3513 2838 3513 2113 
z
" transform="scale(0.015625)"/>
       <path id="DejaVuSans-20" transform="scale(0.015625)"/>
       <path id="DejaVuSans-28" d="M 1984 4856 
Q 1566 4138 1362 3434 
Q 1159 2731 1159 2009 
Q 1159 1288 1364 580 
Q 1569 -128 1984 -844 
L 1484 -844 
Q 1016 -109 783 600 
Q 550 1309 550 2009 
Q 550 2706 781 3412 
Q 1013 4119 1484 4856 
L 1984 4856 
z
" transform="scale(0.015625)"/>
       <path id="DejaVuSans-62" d="M 3116 1747 
Q 3116 2381 2855 2742 
Q 2594 3103 2138 3103 
Q 1681 3103 1420 2742 
Q 1159 2381 1159 1747 
Q 1159 1113 1420 752 
Q 1681 391 2138 391 
Q 2594 391 2855 752 
Q 3116 1113 3116 1747 
z
M 1159 2969 
Q 1341 3281 1617 3432 
Q 1894 3584 2278 3584 
Q 2916 3584 3314 3078 
Q 3713 2572 3713 1747 
Q 3713 922 3314 415 
Q 2916 -91 2278 -91 
Q 1894 -91 1617 61 
Q 1341 213 1159 525 
L 1159 0 
L 581 0 
L 581 4863 
L 1159 4863 
L 1159 2969 
z
" transform="scale(0.015625)"/>
       <path id="DejaVuSans-70" d="M 1159 525 
L 1159 -1331 
L 581 -1331 
L 581 3500 
L 1159 3500 
L 1159 2969 
Q 1341 3281 1617 3432 
Q 1894 3584 2278 3584 
Q 2916 3584 3314 3078 
Q 3713 2572 3713 1747 
Q 3713 922 3314 415 
Q 2916 -91 2278 -91 
Q 1894 -91 1617 61 
Q 1341 213 1159 525 
z
M 3116 1747 
Q 3116 2381 2855 2742 
Q 2594 3103 2138 3103 
Q 1681 3103 1420 2742 
Q 1159 2381 1159 1747 
Q 1159 1113 1420 752 
Q 1681 391 2138 391 
Q 2594 391 2855 752 
Q 3116 1113 3116 1747 
z
" transform="scale(0.015625)"/>
       <path id="DejaVuSans-29" d="M 513 4856 
L 1013 4856 
Q 1481 4119 1714 3412 
Q 1947 2706 1947 2009 
Q 1947 1309 1714 600 
Q 1481 -109 1013 -844 
L 513 -844 
Q 928 -128 1133 580 
Q 1338 1288 1338 2009 
Q 1338 2731 1133 3434 
Q 928 4138 513 4856 
z
" transform="scale(0.015625)"/>
      </defs>
      <use xlink:href="#DejaVuSans-50"/>
      <use xlink:href="#DejaVuSans-6f" x="56.677734"/>
      <use xlink:href="#DejaVuSans-73" x="117.859375"/>
      <use xlink:href="#DejaVuSans-69" x="169.958984"/>
      <use xlink:href="#DejaVuSans-74" x="197.742188"/>
      <use xlink:href="#DejaVuSans-69" x="236.951172"/>
      <use xlink:href="#DejaVuSans-6f" x="264.734375"/>
      <use xlink:href="#DejaVuSans-6e" x="325.916016"/>
      <use xlink:href="#DejaVuSans-20" x="389.294922"/>
      <use xlink:href="#DejaVuSans-28" x="421.082031"/>
      <use xlink:href="#DejaVuSans-62" x="460.095703"/>
      <use xlink:href="#DejaVuSans-70" x="523.572266"/>
      <use xlink:href="#DejaVuSans-29" x="587.048828"/>
     </g>
    </g>
   </g>
   <g id="matplotlib.axis_2">
    <g id="ytick_1">
     <g id="line2d_1">
      <path d="M 38.058125 353.2239 
L 993.118125 353.2239 
" clip-path="url(#pf84f53a5ca)" style="fill: none; stroke: #dedede; stroke-linecap: square"/>
     </g>
     <g id="text_10">
      <!-- 0 -->
      <g transform="translate(25.968125 356.263275) scale(0.08 -0.08)">
       <use xlink:href="#DejaVuSans-30"/>
      </g>
     </g>
    </g>
    <g id="ytick_2">
     <g id="line2d_2">
      <path d="M 38.058125 314.321161 
L 993.118125 314.321161 
" clip-path="url(#pf84f53a5ca)" style="fill: none; stroke: #dedede; stroke-linecap: square"/>
     </g>
     <g id="text_11">
      <!-- 5 -->
      <g transform="translate(25.968125 317.360536) scale(0.08 -0.08)">
       <defs>
        <path id="DejaVuSans-35" d="M 691 4666 
L 3169 4666 
L 3169 4134 
L 1269 4134 
L 1269 2991 
Q 1406 3038 1543 3061 
Q 1681 3084 1819 3084 
Q 2600 3084 3056 2656 
Q 3513 2228 3513 1497 
Q 3513 744 3044 326 
Q 2575 -91 1722 -91 
Q 1428 -91 1123 -41 
Q 819 9 494 109 
L 494 744 
Q 775 591 1075 516 
Q 1375 441 1709 441 
Q 2250 441 2565 725 
Q 2881 1009 2881 1497 
Q 2881 1984 2565 2268 
Q 2250 2553 1709 2553 
Q 1456 2553 1204 2497 
Q 953 2441 691 2322 
L 691 4666 
z
" transform="scale(0.015625)"/>
       </defs>
       <use xlink:href="#DejaVuSans-35"/>
      </g>
     </g>
    </g>
    <g id="ytick_3">
     <g id="line2d_3">
      <path d="M 38.058125 275.418422 
L 993.118125 275.418422 
" clip-path="url(#pf84f53a5ca)" style="fill: none; stroke: #dedede; stroke-linecap: square"/>
     </g>
     <g id="text_12">
      <!-- 10 -->
      <g transform="translate(20.878125 278.457797) scale(0.08 -0.08)">
       <use xlink:href="#DejaVuSans-31"/>
       <use xlink:href="#DejaVuSans-30" x="63.623047"/>
      </g>
     </g>
    </g>
    <g id="ytick_4">
     <g id="line2d_4">
      <path d="M 38.058125 236.515683 
L 993.118125 236.515683 
" clip-path="url(#pf84f53a5ca)" style="fill: none; stroke: #dedede; stroke-linecap: square"/>
     </g>
     <g id="text_13">
      <!-- 15 -->
      <g transform="translate(20.878125 239.555058) scale(0.08 -0.08)">
       <use xlink:href="#DejaVuSans-31"/>
       <use xlink:href="#DejaVuSans-35" x="63.623047"/>
      </g>
     </g>
    </g>
    <g id="ytick_5">
     <g id="line2d_5">
      <path d="M 38.058125 197.612944 
L 993.118125 197.612944 
" clip-path="url(#pf84f53a5ca)" style="fill: none; stroke: #dedede; stroke-linecap: square"/>
     </g>
     <g id="text_14">
      <!-- 20 -->
      <g transform="translate(20.878125 200.652319) scale(0.08 -0.08)">
       <use xlink:href="#DejaVuSans-32"/>
       <use xlink:href="#DejaVuSans-30" x="63.623047"/>
      </g>
     </g>
    </g>
    <g id="ytick_6">
     <g id="line2d_6">
      <path d="M 38.058125 158.710206 
L 993.118125 158.710206 
" clip-path="url(#pf84f53a5ca)" style="fill: none; stroke: #dedede; stroke-linecap: square"/>
     </g>
     <g id="text_15">
      <!-- 25 -->
      <g transform="translate(20.878125 161.749581) scale(0.08 -0.08)">
       <use xlink:href="#DejaVuSans-32"/>
       <use xlink:href="#DejaVuSans-35" x="63.623047"/>
      </g>
     </g>
    </g>
    <g id="ytick_7">
     <g id="line2d_7">
      <path d="M 38.058125 119.807467 
L 993.118125 119.807467 
" clip-path="url(#pf84f53a5ca)" style="fill: none; stroke: #dedede; stroke-linecap: square"/>
     </g>
     <g id="text_16">
      <!-- 30 -->
      <g transform="translate(20.878125 122.846842) scale(0.08 -0.08)">
       <defs>
        <path id="DejaVuSans-33" d="M 2597 2516 
Q 3050 2419 3304 2112 
Q 3559 1806 3559 1356 
Q 3559 666 3084 287 
Q 2609 -91 1734 -91 
Q 1441 -91 1130 -33 
Q 819 25 488 141 
L 488 750 
Q 750 597 1062 519 
Q 1375 441 1716 441 
Q 2309 441 2620 675 
Q 2931 909 2931 1356 
Q 2931 1769 2642 2001 
Q 2353 2234 1838 2234 
L 1294 2234 
L 1294 2753 
L 1863 2753 
Q 2328 2753 2575 2939 
Q 2822 3125 2822 3475 
Q 2822 3834 2567 4026 
Q 2313 4219 1838 4219 
Q 1578 4219 1281 4162 
Q 984 4106 628 3988 
L 628 4550 
Q 988 4650 1302 4700 
Q 1616 4750 1894 4750 
Q 2613 4750 3031 4423 
Q 3450 4097 3450 3541 
Q 3450 3153 3228 2886 
Q 3006 2619 2597 2516 
z
" transform="scale(0.015625)"/>
       </defs>
       <use xlink:href="#DejaVuSans-33"/>
       <use xlink:href="#DejaVuSans-30" x="63.623047"/>
      </g>
     </g>
    </g>
    <g id="ytick_8">
     <g id="line2d_8">
      <path d="M 38.058125 80.904728 
L 993.118125 80.904728 
" clip-path="url(#pf84f53a5ca)" style="fill: none; stroke: #dedede; stroke-linecap: square"/>
     </g>
     <g id="text_17">
      <!-- 35 -->
      <g transform="translate(20.878125 83.944103) scale(0.08 -0.08)">
       <use xlink:href="#DejaVuSans-33"/>
       <use xlink:href="#DejaVuSans-35" x="63.623047"/>
      </g>
     </g>
    </g>
    <g id="ytick_9">
     <g id="line2d_9">
      <path d="M 38.058125 42.001989 
L 993.118125 42.001989 
" clip-path="url(#pf84f53a5ca)" style="fill: none; stroke: #dedede; stroke-linecap: square"/>
     </g>
     <g id="text_18">
      <!-- 40 -->
      <g transform="translate(20.878125 45.041364) scale(0.08 -0.08)">
       <use xlink:href="#DejaVuSans-34"/>
       <use xlink:href="#DejaVuSans-30" x="63.623047"/>
      </g>
     </g>
    </g>
    <g id="text_19">
     <!-- Phred Score -->
     <g transform="translate(14.798438 224.20865) rotate(-90) scale(0.1 -0.1)">
      <defs>
       <path id="DejaVuSans-68" d="M 3513 2113 
L 3513 0 
L 2938 0 
L 2938 2094 
Q 2938 2591 2744 2837 
Q 2550 3084 2163 3084 
Q 1697 3084 1428 2787 
Q 1159 2491 1159 1978 
L 1159 0 
L 581 0 
L 581 4863 
L 1159 4863 
L 1159 2956 
Q 1366 3272 1645 3428 
Q 1925 3584 2291 3584 
Q 2894 3584 3203 3211 
Q 3513 2838 3513 2113 
z
" transform="scale(0.015625)"/>
       <path id="DejaVuSans-72" d="M 2631 2963 
Q 2534 3019 2420 3045 
Q 2306 3072 2169 3072 
Q 1681 3072 1420 2755 
Q 1159 2438 1159 1844 
L 1159 0 
L 581 0 
L 581 3500 
L 1159 3500 
L 1159 2956 
Q 1341 3275 1631 3429 
Q 1922 3584 2338 3584 
Q 2397 3584 2469 3576 
Q 2541 3569 2628 3553 
L 2631 2963 
z
" transform="scale(0.015625)"/>
       <path id="DejaVuSans-65" d="M 3597 1894 
L 3597 1613 
L 953 1613 
Q 991 1019 1311 708 
Q 1631 397 2203 397 
Q 2534 397 2845 478 
Q 3156 559 3463 722 
L 3463 178 
Q 3153 47 2828 -22 
Q 2503 -91 2169 -91 
Q 1331 -91 842 396 
Q 353 884 353 1716 
Q 353 2575 817 3079 
Q 1281 3584 2069 3584 
Q 2775 3584 3186 3129 
Q 3597 2675 3597 1894 
z
M 3022 2063 
Q 3016 2534 2758 2815 
Q 2500 3097 2075 3097 
Q 1594 3097 1305 2825 
Q 1016 2553 972 2059 
L 3022 2063 
z
" transform="scale(0.015625)"/>
       <path id="DejaVuSans-64" d="M 2906 2969 
L 2906 4863 
L 3481 4863 
L 3481 0 
L 2906 0 
L 2906 525 
Q 2725 213 2448 61 
Q 2172 -91 1784 -91 
Q 1150 -91 751 415 
Q 353 922 353 1747 
Q 353 2572 751 3078 
Q 1150 3584 1784 3584 
Q 2172 3584 2448 3432 
Q 2725 3281 2906 2969 
z
M 947 1747 
Q 947 1113 1208 752 
Q 1469 391 1925 391 
Q 2381 391 2643 752 
Q 2906 1113 2906 1747 
Q 2906 2381 2643 2742 
Q 2381 3103 1925 3103 
Q 1469 3103 1208 2742 
Q 947 2381 947 1747 
z
" transform="scale(0.015625)"/>
       <path id="DejaVuSans-53" d="M 3425 4513 
L 3425 3897 
Q 3066 4069 2747 4153 
Q 2428 4238 2131 4238 
Q 1616 4238 1336 4038 
Q 1056 3838 1056 3469 
Q 1056 3159 1242 3001 
Q 1428 2844 1947 2747 
L 2328 2669 
Q 3034 2534 3370 2195 
Q 3706 1856 3706 1288 
Q 3706 609 3251 259 
Q 2797 -91 1919 -91 
Q 1588 -91 1214 -16 
Q 841 59 441 206 
L 441 856 
Q 825 641 1194 531 
Q 1563 422 1919 422 
Q 2459 422 2753 634 
Q 3047 847 3047 1241 
Q 3047 1584 2836 1778 
Q 2625 1972 2144 2069 
L 1759 2144 
Q 1053 2284 737 2584 
Q 422 2884 422 3419 
Q 422 4038 858 4394 
Q 1294 4750 2059 4750 
Q 2388 4750 2728 4690 
Q 3069 4631 3425 4513 
z
" transform="scale(0.015625)"/>
       <path id="DejaVuSans-63" d="M 3122 3366 
L 3122 2828 
Q 2878 2963 2633 3030 
Q 2388 3097 2138 3097 
Q 1578 3097 1268 2742 
Q 959 2388 959 1747 
Q 959 1106 1268 751 
Q 1578 397 2138 397 
Q 2388 397 2633 464 
Q 2878 531 3122 666 
L 3122 134 
Q 2881 22 2623 -34 
Q 2366 -91 2075 -91 
Q 1284 -91 818 406 
Q 353 903 353 1747 
Q 353 2603 823 3093 
Q 1294 3584 2113 3584 
Q 2378 3584 2631 3529 
Q 2884 3475 3122 3366 
z
" transform="scale(0.015625)"/>
      </defs>
      <use xlink:href="#DejaVuSans-50"/>
      <use xlink:href="#DejaVuSans-68" x="60.302734"/>
      <use xlink:href="#DejaVuSans-72" x="123.681641"/>
      <use xlink:href="#DejaVuSans-65" x="162.544922"/>
      <use xlink:href="#DejaVuSans-64" x="224.068359"/>
      <use xlink:href="#DejaVuSans-20" x="287.544922"/>
      <use xlink:href="#DejaVuSans-53" x="319.332031"/>
      <use xlink:href="#DejaVuSans-63" x="382.808594"/>
      <use xlink:href="#DejaVuSans-6f" x="437.789062"/>
      <use xlink:href="#DejaVuSans-72" x="498.970703"/>
      <use xlink:href="#DejaVuSans-65" x="537.833984"/>
     </g>
    </g>
   </g>
   <g id="line2d_10">
    <path d="M 81.469943 116.541557 
L 87.297033 109.623372 
L 93.124123 85.48208 
L 98.951212 74.725538 
L 104.778302 71.858019 
L 110.605392 45.358147 
L 116.432481 43.464434 
L 122.259571 42.516354 
L 128.086661 42.122331 
L 145.56793 41.518179 
L 174.703378 41.702184 
L 203.838827 41.96819 
L 232.974275 42.603223 
L 262.109724 43.539933 
L 291.245172 44.062445 
L 320.38062 44.389777 
L 349.516069 44.746813 
L 378.651517 45.09768 
L 407.786966 45.644557 
L 436.922414 46.06039 
L 466.057863 46.688692 
L 495.193311 47.471273 
L 524.32876 49.479795 
L 553.464208 46.650471 
L 582.599656 46.835703 
L 611.735105 47.599898 
L 640.870553 48.23118 
L 670.006002 49.260498 
L 699.14145 50.150259 
L 728.276899 51.374448 
L 757.412347 52.656828 
L 786.547796 54.008064 
L 815.683244 55.266463 
L 844.818692 57.116822 
L 873.954141 59.298357 
L 903.089589 61.932597 
L 932.225038 65.127654 
L 949.706307 67.057768 
" clip-path="url(#pf84f53a5ca)" style="fill: none; stroke: #5cb85c; stroke-linecap: square"/>
   </g>
   <g id="line2d_11">
    <path d="M 81.469943 113.549038 
L 87.297033 111.721686 
L 93.124123 88.70975 
L 98.951212 79.47693 
L 104.778302 76.775526 
L 110.605392 52.492828 
L 116.432481 52.42252 
L 122.259571 51.515271 
L 128.086661 51.119975 
L 145.56793 50.964322 
L 174.703378 52.219873 
L 203.838827 53.152252 
L 232.974275 54.575506 
L 262.109724 54.5857 
L 291.245172 58.093705 
L 320.38062 59.401675 
L 349.516069 60.782617 
L 378.651517 61.232956 
L 407.786966 62.265537 
L 436.922414 62.814195 
L 466.057863 64.028542 
L 495.193311 65.197906 
L 524.32876 68.770068 
L 553.464208 63.433011 
L 582.599656 65.106739 
L 611.735105 67.171718 
L 640.870553 69.078846 
L 670.006002 71.727646 
L 699.14145 74.669966 
L 728.276899 78.501764 
L 757.412347 82.225949 
L 786.547796 86.438189 
L 815.683244 91.914234 
L 844.818692 96.81953 
L 873.954141 102.090409 
L 903.089589 107.582758 
L 932.225038 109.451683 
L 949.706307 113.065155 
" clip-path="url(#pf84f53a5ca)" style="fill: none; stroke: #5cb85c; stroke-linecap: square"/>
   </g>
   <g id="line2d_12">
    <path d="M 81.469943 117.62746 
L 87.297033 110.158594 
L 93.124123 86.81659 
L 98.951212 76.019962 
L 104.778302 72.287943 
L 110.605392 46.53282 
L 116.432481 44.407792 
L 122.259571 43.443773 
L 128.086661 42.848858 
L 145.56793 42.029028 
L 174.703378 42.221672 
L 203.838827 42.456814 
L 232.974275 43.140516 
L 262.109724 44.160769 
L 291.245172 44.58511 
L 320.38062 45.847867 
L 349.516069 45.865138 
L 378.651517 46.059024 
L 407.786966 46.80055 
L 436.922414 47.134067 
L 466.057863 47.564532 
L 495.193311 53.243034 
L 524.32876 56.76846 
L 553.464208 53.839651 
L 582.599656 54.073753 
L 611.735105 54.862577 
L 640.870553 55.506556 
L 670.006002 56.647471 
L 699.14145 57.63813 
L 728.276899 59.157956 
L 757.412347 60.779256 
L 786.547796 62.663818 
L 815.683244 64.951403 
L 844.818692 67.905484 
L 873.954141 71.652146 
L 903.089589 76.442265 
L 932.225038 82.019444 
L 949.706307 85.392871 
" clip-path="url(#pf84f53a5ca)" style="fill: none; stroke: #5cb85c; stroke-linecap: square"/>
   </g>
   <g id="line2d_13">
    <path d="M 81.469943 114.329639 
L 87.297033 113.973046 
L 93.124123 93.122267 
L 98.951212 83.985738 
L 104.778302 81.715303 
L 110.605392 60.439893 
L 116.432481 59.745368 
L 122.259571 59.360094 
L 128.086661 57.515888 
L 145.56793 57.042508 
L 174.703378 58.861042 
L 203.838827 60.014199 
L 232.974275 61.931738 
L 262.109724 62.141716 
L 291.245172 66.63363 
L 320.38062 68.574527 
L 349.516069 70.108878 
L 378.651517 70.924822 
L 407.786966 72.621273 
L 436.922414 73.581949 
L 466.057863 74.407083 
L 495.193311 75.803211 
L 524.32876 85.956617 
L 553.464208 80.477843 
L 582.599656 82.478195 
L 611.735105 85.286256 
L 640.870553 88.116772 
L 670.006002 91.522213 
L 699.14145 95.417139 
L 728.276899 100.29535 
L 757.412347 104.622647 
L 786.547796 109.310818 
L 815.683244 115.370799 
L 844.818692 121.350267 
L 873.954141 127.594946 
L 903.089589 134.855082 
L 932.225038 138.41824 
L 949.706307 143.323921 
" clip-path="url(#pf84f53a5ca)" style="fill: none; stroke: #5cb85c; stroke-linecap: square"/>
   </g>
   <g id="line2d_14">
    <path d="M 81.469943 115.590067 
L 87.297033 109.153898 
L 93.124123 84.182256 
L 98.951212 74.362064 
L 104.778302 71.470927 
L 110.605392 44.93103 
L 116.432481 43.24354 
L 122.259571 42.239002 
L 128.086661 41.859504 
L 145.56793 41.243654 
L 174.703378 41.376977 
L 203.838827 41.68505 
L 232.974275 42.31344 
L 262.109724 43.238732 
L 291.245172 43.700579 
L 320.38062 44.237803 
L 349.516069 44.532557 
L 378.651517 44.918178 
L 407.786966 45.499131 
L 436.922414 45.954173 
L 466.057863 46.554732 
L 495.193311 47.817203 
L 524.32876 49.955913 
L 553.464208 47.354144 
L 582.599656 47.57056 
L 611.735105 48.37547 
L 640.870553 49.119252 
L 670.006002 50.3585 
L 699.14145 51.572187 
L 728.276899 53.384321 
L 757.412347 55.459541 
L 786.547796 57.96914 
L 815.683244 61.075936 
L 844.818692 65.643483 
L 873.954141 71.923054 
L 903.089589 79.777442 
L 932.225038 89.026113 
L 949.706307 94.804184 
" clip-path="url(#pf84f53a5ca)" style="fill: none; stroke: #5cb85c; stroke-linecap: square"/>
   </g>
   <g id="line2d_15">
    <path d="M 81.469943 113.152088 
L 87.297033 110.863076 
L 93.124123 91.891709 
L 98.951212 78.937507 
L 104.778302 77.565559 
L 110.605392 57.123167 
L 116.432481 53.170071 
L 122.259571 52.167915 
L 128.086661 51.234352 
L 145.56793 50.995791 
L 174.703378 52.324247 
L 203.838827 53.378433 
L 232.974275 55.617353 
L 262.109724 55.007418 
L 291.245172 60.159915 
L 320.38062 61.689148 
L 349.516069 62.87331 
L 378.651517 63.131147 
L 407.786966 63.935931 
L 436.922414 64.573935 
L 466.057863 65.855048 
L 495.193311 67.493253 
L 524.32876 72.319922 
L 553.464208 66.897051 
L 582.599656 69.21604 
L 611.735105 71.896345 
L 640.870553 74.472228 
L 670.006002 77.745417 
L 699.14145 81.21553 
L 728.276899 85.512531 
L 757.412347 89.587045 
L 786.547796 94.114667 
L 815.683244 100.171117 
L 844.818692 106.447977 
L 873.954141 113.505964 
L 903.089589 121.996767 
L 932.225038 128.100624 
L 949.706307 134.320708 
" clip-path="url(#pf84f53a5ca)" style="fill: none; stroke: #5cb85c; stroke-linecap: square"/>
   </g>
   <g id="line2d_16">
    <path d="M 81.469943 116.50408 
L 87.297033 109.956128 
L 93.124123 85.939667 
L 98.951212 75.97352 
L 104.778302 72.357556 
L 110.605392 46.225474 
L 116.432481 43.749625 
L 122.259571 43.211439 
L 128.086661 42.946425 
L 145.56793 42.168182 
L 174.703378 42.444891 
L 203.838827 42.947416 
L 232.974275 43.461497 
L 262.109724 44.328401 
L 291.245172 44.804193 
L 320.38062 45.109192 
L 349.516069 45.524624 
L 378.651517 45.913325 
L 407.786966 46.50858 
L 436.922414 47.163813 
L 466.057863 47.645646 
L 495.193311 48.221337 
L 524.32876 50.171027 
L 553.464208 46.86753 
L 582.599656 47.238251 
L 611.735105 48.069739 
L 640.870553 48.653692 
L 670.006002 49.871602 
L 699.14145 50.795437 
L 728.276899 52.326739 
L 757.412347 53.715107 
L 786.547796 55.87421 
L 815.683244 57.569545 
L 844.818692 60.724187 
L 873.954141 64.289513 
L 903.089589 69.254445 
L 932.225038 74.790361 
L 949.706307 78.274207 
" clip-path="url(#pf84f53a5ca)" style="fill: none; stroke: #5cb85c; stroke-linecap: square"/>
   </g>
   <g id="line2d_17">
    <path d="M 81.469943 113.308961 
L 87.297033 111.359161 
L 93.124123 91.356749 
L 98.951212 81.17608 
L 104.778302 79.025665 
L 110.605392 57.950275 
L 116.432481 54.987274 
L 122.259571 54.443811 
L 128.086661 53.56765 
L 145.56793 52.840598 
L 174.703378 54.285783 
L 203.838827 56.428548 
L 232.974275 58.049502 
L 262.109724 57.390964 
L 291.245172 62.421018 
L 320.38062 63.757053 
L 349.516069 65.094514 
L 378.651517 65.372398 
L 407.786966 66.373294 
L 436.922414 66.748189 
L 466.057863 68.03344 
L 495.193311 69.53229 
L 524.32876 73.142191 
L 553.464208 67.465204 
L 582.599656 69.397431 
L 611.735105 71.829242 
L 640.870553 74.183024 
L 670.006002 77.08291 
L 699.14145 80.433302 
L 728.276899 84.723478 
L 757.412347 88.602947 
L 786.547796 92.964884 
L 815.683244 98.704588 
L 844.818692 104.95038 
L 873.954141 111.868622 
L 903.089589 118.719367 
L 932.225038 122.678045 
L 949.706307 127.552277 
" clip-path="url(#pf84f53a5ca)" style="fill: none; stroke: #5cb85c; stroke-linecap: square"/>
   </g>
   <g id="line2d_18">
    <path d="M 81.469943 112.140936 
L 87.297033 107.35325 
L 93.124123 82.271539 
L 98.951212 74.054078 
L 104.778302 71.61911 
L 110.605392 45.008778 
L 116.432481 43.252525 
L 122.259571 42.847106 
L 128.086661 41.976585 
L 145.56793 41.506768 
L 174.703378 41.649378 
L 203.838827 41.932247 
L 232.974275 42.668204 
L 262.109724 43.66458 
L 291.245172 44.155994 
L 320.38062 45.231564 
L 349.516069 45.237901 
L 378.651517 45.332118 
L 407.786966 46.060561 
L 436.922414 46.395263 
L 466.057863 46.885911 
L 495.193311 52.856046 
L 524.32876 56.455821 
L 553.464208 53.8048 
L 582.599656 53.983341 
L 611.735105 54.731703 
L 640.870553 55.369591 
L 670.006002 56.401708 
L 699.14145 57.338735 
L 728.276899 58.713308 
L 757.412347 60.22898 
L 786.547796 61.956696 
L 815.683244 63.896651 
L 844.818692 66.841917 
L 873.954141 70.734308 
L 903.089589 75.364324 
L 932.225038 80.809034 
L 949.706307 84.156487 
" clip-path="url(#pf84f53a5ca)" style="fill: none; stroke: #5cb85c; stroke-linecap: square"/>
   </g>
   <g id="line2d_19">
    <path d="M 81.469943 113.489454 
L 87.297033 111.775708 
L 93.124123 89.65378 
L 98.951212 81.018501 
L 104.778302 78.640305 
L 110.605392 55.686559 
L 116.432481 56.249945 
L 122.259571 55.96749 
L 128.086661 54.423006 
L 145.56793 53.471216 
L 174.703378 55.096718 
L 203.838827 55.88924 
L 232.974275 57.341595 
L 262.109724 57.456842 
L 291.245172 61.487124 
L 320.38062 63.140745 
L 349.516069 64.715301 
L 378.651517 65.133483 
L 407.786966 66.857813 
L 436.922414 67.999074 
L 466.057863 68.739899 
L 495.193311 69.740585 
L 524.32876 79.870224 
L 553.464208 74.618436 
L 582.599656 76.573973 
L 611.735105 79.000793 
L 640.870553 81.541819 
L 670.006002 84.662702 
L 699.14145 87.901078 
L 728.276899 92.127179 
L 757.412347 96.268408 
L 786.547796 100.794101 
L 815.683244 106.48352 
L 844.818692 112.093308 
L 873.954141 118.231688 
L 903.089589 125.109961 
L 932.225038 128.800812 
L 949.706307 133.549927 
" clip-path="url(#pf84f53a5ca)" style="fill: none; stroke: #5cb85c; stroke-linecap: square"/>
   </g>
   <g id="line2d_20">
    <path d="M 81.469943 112.262313 
L 87.297033 107.737557 
L 93.124123 83.2791 
L 98.951212 74.567625 
L 104.778302 71.885495 
L 110.605392 45.573667 
L 116.432481 43.841501 
L 122.259571 43.44441 
L 128.086661 42.384914 
L 145.56793 41.856164 
L 174.703378 41.892158 
L 203.838827 42.334257 
L 232.974275 43.045816 
L 262.109724 44.074733 
L 291.245172 44.538127 
L 320.38062 44.796428 
L 349.516069 45.223929 
L 378.651517 45.626041 
L 407.786966 46.207081 
L 436.922414 46.668485 
L 466.057863 47.297031 
L 495.193311 47.677282 
L 524.32876 49.558962 
L 553.464208 46.630841 
L 582.599656 46.77498 
L 611.735105 47.568607 
L 640.870553 48.186807 
L 670.006002 49.220101 
L 699.14145 50.082897 
L 728.276899 51.338983 
L 757.412347 52.650696 
L 786.547796 54.055037 
L 815.683244 55.364107 
L 844.818692 57.297923 
L 873.954141 59.616504 
L 903.089589 62.178778 
L 932.225038 65.226514 
L 949.706307 67.037557 
" clip-path="url(#pf84f53a5ca)" style="fill: none; stroke: #5cb85c; stroke-linecap: square"/>
   </g>
   <g id="line2d_21">
    <path d="M 81.469943 116.958759 
L 87.297033 114.679826 
L 93.124123 96.566014 
L 98.951212 84.838939 
L 104.778302 83.082711 
L 110.605392 61.184579 
L 116.432481 61.648057 
L 122.259571 61.781699 
L 128.086661 59.617054 
L 145.56793 58.317769 
L 174.703378 59.897247 
L 203.838827 61.702117 
L 232.974275 63.94319 
L 262.109724 63.550037 
L 291.245172 68.897888 
L 320.38062 71.073464 
L 349.516069 72.898712 
L 378.651517 73.625255 
L 407.786966 74.960652 
L 436.922414 75.44926 
L 466.057863 77.228683 
L 495.193311 78.904394 
L 524.32876 82.105258 
L 553.464208 75.678052 
L 582.599656 77.806167 
L 611.735105 80.470796 
L 640.870553 83.127378 
L 670.006002 86.46668 
L 699.14145 90.127369 
L 728.276899 94.509788 
L 757.412347 98.808035 
L 786.547796 103.513414 
L 815.683244 109.254337 
L 844.818692 114.573464 
L 873.954141 120.126013 
L 903.089589 126.039699 
L 932.225038 128.162194 
L 949.706307 131.935387 
" clip-path="url(#pf84f53a5ca)" style="fill: none; stroke: #5cb85c; stroke-linecap: square"/>
   </g>
   <g id="line2d_22">
    <path d="M 81.469943 112.557278 
L 87.297033 107.559375 
L 93.124123 83.310161 
L 98.951212 73.935361 
L 104.778302 71.811092 
L 110.605392 45.367861 
L 116.432481 43.731316 
L 122.259571 43.358123 
L 128.086661 42.314926 
L 145.56793 41.705835 
L 174.703378 41.822194 
L 203.838827 42.220961 
L 232.974275 42.904267 
L 262.109724 43.837785 
L 291.245172 44.41725 
L 320.38062 44.93617 
L 349.516069 45.855591 
L 378.651517 45.552864 
L 407.786966 46.303234 
L 436.922414 46.668192 
L 466.057863 47.204746 
L 495.193311 52.299989 
L 524.32876 56.772478 
L 553.464208 53.974702 
L 582.599656 54.1527 
L 611.735105 54.914896 
L 640.870553 55.52892 
L 670.006002 56.566189 
L 699.14145 57.438391 
L 728.276899 58.690425 
L 757.412347 60.033394 
L 786.547796 61.522272 
L 815.683244 63.041497 
L 844.818692 65.255564 
L 873.954141 68.175128 
L 903.089589 71.383847 
L 932.225038 75.066426 
L 949.706307 77.290626 
" clip-path="url(#pf84f53a5ca)" style="fill: none; stroke: #5cb85c; stroke-linecap: square"/>
   </g>
   <g id="line2d_23">
    <path d="M 81.469943 113.855292 
L 87.297033 111.853132 
L 93.124123 90.838054 
L 98.951212 80.877293 
L 104.778302 78.048579 
L 110.605392 56.26697 
L 116.432481 54.927098 
L 122.259571 54.585923 
L 128.086661 53.473179 
L 145.56793 52.975453 
L 174.703378 54.584395 
L 203.838827 55.93412 
L 232.974275 57.856997 
L 262.109724 56.967464 
L 291.245172 61.790421 
L 320.38062 63.248684 
L 349.516069 64.57226 
L 378.651517 64.95025 
L 407.786966 66.25439 
L 436.922414 66.917887 
L 466.057863 67.896415 
L 495.193311 68.975189 
L 524.32876 78.555911 
L 553.464208 73.997989 
L 582.599656 75.737784 
L 611.735105 78.015706 
L 640.870553 80.334873 
L 670.006002 83.246797 
L 699.14145 86.242843 
L 728.276899 90.288866 
L 757.412347 94.108809 
L 786.547796 98.208805 
L 815.683244 103.476657 
L 844.818692 108.332888 
L 873.954141 113.685735 
L 903.089589 119.657175 
L 932.225038 122.115536 
L 949.706307 126.001205 
" clip-path="url(#pf84f53a5ca)" style="fill: none; stroke: #5cb85c; stroke-linecap: square"/>
   </g>
   <g id="line2d_24">
    <path d="M 81.469943 112.487293 
L 87.297033 107.140329 
L 93.124123 81.679838 
L 98.951212 73.236676 
L 104.778302 71.146019 
L 110.605392 44.303502 
L 116.432481 42.71328 
L 122.259571 42.443804 
L 128.086661 41.54543 
L 145.56793 41.094468 
L 174.703378 41.189669 
L 203.838827 41.583602 
L 232.974275 42.246801 
L 262.109724 43.197576 
L 291.245172 43.726335 
L 320.38062 43.954936 
L 349.516069 44.327305 
L 378.651517 44.65524 
L 407.786966 45.160838 
L 436.922414 45.594579 
L 466.057863 46.208702 
L 495.193311 46.824258 
L 524.32876 48.67949 
L 553.464208 46.053091 
L 582.599656 46.194776 
L 611.735105 46.950124 
L 640.870553 47.556053 
L 670.006002 48.611484 
L 699.14145 49.575206 
L 728.276899 50.951269 
L 757.412347 52.475887 
L 786.547796 54.313517 
L 815.683244 56.449557 
L 844.818692 59.791838 
L 873.954141 64.306453 
L 903.089589 69.973145 
L 932.225038 76.643113 
L 949.706307 80.832761 
" clip-path="url(#pf84f53a5ca)" style="fill: none; stroke: #5cb85c; stroke-linecap: square"/>
   </g>
   <g id="line2d_25">
    <path d="M 81.469943 116.747198 
L 87.297033 112.694574 
L 93.124123 91.96092 
L 98.951212 81.651654 
L 104.778302 77.850961 
L 110.605392 55.612721 
L 116.432481 53.836035 
L 122.259571 53.234867 
L 128.086661 52.68543 
L 145.56793 52.672545 
L 174.703378 53.752905 
L 203.838827 55.528352 
L 232.974275 57.649815 
L 262.109724 57.309972 
L 291.245172 62.353769 
L 320.38062 64.085731 
L 349.516069 65.590222 
L 378.651517 66.20929 
L 407.786966 67.374363 
L 436.922414 67.970295 
L 466.057863 69.385215 
L 495.193311 71.147411 
L 524.32876 74.928589 
L 553.464208 69.06462 
L 582.599656 71.161877 
L 611.735105 73.71734 
L 640.870553 76.106779 
L 670.006002 79.239384 
L 699.14145 82.645494 
L 728.276899 86.909354 
L 757.412347 91.085054 
L 786.547796 95.741366 
L 815.683244 101.744358 
L 844.818692 107.735992 
L 873.954141 114.477717 
L 903.089589 122.217856 
L 932.225038 126.984312 
L 949.706307 132.390817 
" clip-path="url(#pf84f53a5ca)" style="fill: none; stroke: #5cb85c; stroke-linecap: square"/>
   </g>
   <g id="line2d_26">
    <path d="M 81.469943 112.236251 
L 87.297033 107.391626 
L 93.124123 81.02013 
L 98.951212 72.31645 
L 104.778302 70.680953 
L 110.605392 43.759023 
L 116.432481 42.97129 
L 122.259571 41.892107 
L 128.086661 41.516175 
L 145.56793 41.138017 
L 174.703378 41.473564 
L 203.838827 41.394166 
L 232.974275 42.163152 
L 262.109724 42.998926 
L 291.245172 43.627499 
L 320.38062 45.771905 
L 349.516069 45.080199 
L 378.651517 44.956254 
L 407.786966 45.839459 
L 436.922414 46.155453 
L 466.057863 46.40806 
L 495.193311 59.266809 
L 524.32876 64.728456 
L 553.464208 62.281784 
L 582.599656 62.566227 
L 611.735105 63.27574 
L 640.870553 63.99873 
L 670.006002 65.083064 
L 699.14145 66.12122 
L 728.276899 67.779663 
L 757.412347 69.569077 
L 786.547796 71.711474 
L 815.683244 74.24689 
L 844.818692 78.159664 
L 873.954141 83.729513 
L 903.089589 90.84061 
L 932.225038 99.335575 
L 949.706307 104.641635 
" clip-path="url(#pf84f53a5ca)" style="fill: none; stroke: #5cb85c; stroke-linecap: square"/>
   </g>
   <g id="line2d_27">
    <path d="M 81.469943 112.64436 
L 87.297033 111.147475 
L 93.124123 88.723439 
L 98.951212 79.446066 
L 104.778302 77.779881 
L 110.605392 55.177798 
L 116.432481 54.121834 
L 122.259571 53.861617 
L 128.086661 52.662627 
L 145.56793 52.576098 
L 174.703378 54.395936 
L 203.838827 53.792538 
L 232.974275 56.30969 
L 262.109724 56.391273 
L 291.245172 61.531363 
L 320.38062 61.587031 
L 349.516069 63.292394 
L 378.651517 63.542074 
L 407.786966 65.72519 
L 436.922414 67.677276 
L 466.057863 67.628748 
L 495.193311 67.724469 
L 524.32876 86.93478 
L 553.464208 82.192692 
L 582.599656 84.63309 
L 611.735105 87.199002 
L 640.870553 90.249606 
L 670.006002 93.924587 
L 699.14145 97.507019 
L 728.276899 102.320039 
L 757.412347 106.56387 
L 786.547796 111.170759 
L 815.683244 116.818389 
L 844.818692 122.655365 
L 873.954141 128.927068 
L 903.089589 136.617651 
L 932.225038 141.985605 
L 949.706307 147.795555 
" clip-path="url(#pf84f53a5ca)" style="fill: none; stroke: #5cb85c; stroke-linecap: square"/>
   </g>
   <g id="line2d_28">
    <path d="M 81.469943 114.491199 
L 87.297033 107.971672 
L 93.124123 83.077991 
L 98.951212 73.801465 
L 104.778302 71.41724 
L 110.605392 45.168226 
L 116.432481 44.731761 
L 122.259571 43.139439 
L 128.086661 42.245657 
L 145.56793 41.796909 
L 174.703378 41.816126 
L 203.838827 42.216593 
L 232.974275 42.902692 
L 262.109724 43.886749 
L 291.245172 44.415173 
L 320.38062 44.635727 
L 349.516069 45.053977 
L 378.651517 45.445957 
L 407.786966 46.03617 
L 436.922414 46.499041 
L 466.057863 47.106676 
L 495.193311 47.563646 
L 524.32876 49.430125 
L 553.464208 46.521977 
L 582.599656 46.645918 
L 611.735105 47.424863 
L 640.870553 48.021272 
L 670.006002 49.034861 
L 699.14145 49.903758 
L 728.276899 51.16883 
L 757.412347 52.498586 
L 786.547796 53.984013 
L 815.683244 55.417834 
L 844.818692 57.560274 
L 873.954141 60.312356 
L 903.089589 63.496195 
L 932.225038 67.379669 
L 949.706307 69.823717 
" clip-path="url(#pf84f53a5ca)" style="fill: none; stroke: #5cb85c; stroke-linecap: square"/>
   </g>
   <g id="line2d_29">
    <path d="M 81.469943 116.415731 
L 87.297033 114.110807 
L 93.124123 95.541979 
L 98.951212 83.701003 
L 104.778302 82.602524 
L 110.605392 60.276661 
L 116.432481 61.036071 
L 122.259571 61.010388 
L 128.086661 58.982767 
L 145.56793 57.497314 
L 174.703378 59.312242 
L 203.838827 61.037386 
L 232.974275 63.042042 
L 262.109724 62.637606 
L 291.245172 68.243192 
L 320.38062 70.089963 
L 349.516069 71.871231 
L 378.651517 72.547381 
L 407.786966 73.833316 
L 436.922414 74.167126 
L 466.057863 75.866095 
L 495.193311 77.578997 
L 524.32876 80.813086 
L 553.464208 74.528726 
L 582.599656 76.595876 
L 611.735105 79.278087 
L 640.870553 82.00599 
L 670.006002 85.444887 
L 699.14145 89.093461 
L 728.276899 93.626668 
L 757.412347 97.953479 
L 786.547796 102.748468 
L 815.683244 108.629567 
L 844.818692 114.238562 
L 873.954141 120.13874 
L 903.089589 126.513545 
L 932.225038 129.306236 
L 949.706307 133.476597 
" clip-path="url(#pf84f53a5ca)" style="fill: none; stroke: #5cb85c; stroke-linecap: square"/>
   </g>
   <g id="line2d_30">
    <path d="M 81.469943 114.427484 
L 87.297033 108.09281 
L 93.124123 83.277582 
L 98.951212 73.822182 
L 104.778302 71.506004 
L 110.605392 45.219319 
L 116.432481 44.806591 
L 122.259571 43.17949 
L 128.086661 42.351961 
L 145.56793 41.873576 
L 174.703378 41.904026 
L 203.838827 42.266745 
L 232.974275 42.960393 
L 262.109724 43.879941 
L 291.245172 44.433307 
L 320.38062 44.889547 
L 349.516069 45.224319 
L 378.651517 45.546199 
L 407.786966 46.165551 
L 436.922414 46.569363 
L 466.057863 47.127658 
L 495.193311 49.155378 
L 524.32876 51.606938 
L 553.464208 48.728143 
L 582.599656 48.866732 
L 611.735105 49.62547 
L 640.870553 50.222745 
L 670.006002 51.227719 
L 699.14145 52.088929 
L 728.276899 53.378811 
L 757.412347 54.67291 
L 786.547796 56.147151 
L 815.683244 57.560967 
L 844.818692 59.64319 
L 873.954141 62.335359 
L 903.089589 65.393133 
L 932.225038 69.022294 
L 949.706307 71.208316 
" clip-path="url(#pf84f53a5ca)" style="fill: none; stroke: #5cb85c; stroke-linecap: square"/>
   </g>
   <g id="line2d_31">
    <path d="M 81.469943 113.490417 
L 87.297033 111.740111 
L 93.124123 91.0858 
L 98.951212 80.518057 
L 104.778302 78.49369 
L 110.605392 56.535601 
L 116.432481 54.826626 
L 122.259571 54.268472 
L 128.086661 53.353196 
L 145.56793 52.762379 
L 174.703378 54.423346 
L 203.838827 55.612771 
L 232.974275 57.71848 
L 262.109724 56.81184 
L 291.245172 62.014873 
L 320.38062 63.184255 
L 349.516069 64.591179 
L 378.651517 64.886425 
L 407.786966 66.091132 
L 436.922414 66.40726 
L 466.057863 67.672025 
L 495.193311 68.814531 
L 524.32876 74.209843 
L 553.464208 68.382428 
L 582.599656 70.137146 
L 611.735105 72.404792 
L 640.870553 74.645803 
L 670.006002 77.508432 
L 699.14145 80.514967 
L 728.276899 84.499039 
L 757.412347 88.261025 
L 786.547796 92.451323 
L 815.683244 97.830133 
L 844.818692 102.854866 
L 873.954141 108.414533 
L 903.089589 114.52674 
L 932.225038 117.013209 
L 949.706307 121.00692 
" clip-path="url(#pf84f53a5ca)" style="fill: none; stroke: #5cb85c; stroke-linecap: square"/>
   </g>
   <g id="line2d_32">
    <path d="M 81.469943 113.725158 
L 87.297033 107.933614 
L 93.124123 82.668871 
L 98.951212 73.437393 
L 104.778302 71.288313 
L 110.605392 44.63652 
L 116.432481 44.415725 
L 122.259571 42.788085 
L 128.086661 42.179992 
L 145.56793 41.707703 
L 174.703378 41.694672 
L 203.838827 42.088404 
L 232.974275 42.783464 
L 262.109724 43.715738 
L 291.245172 44.241437 
L 320.38062 44.601515 
L 349.516069 45.937456 
L 378.651517 45.349845 
L 407.786966 46.149829 
L 436.922414 46.49536 
L 466.057863 47.054497 
L 495.193311 53.499341 
L 524.32876 59.157048 
L 553.464208 56.415798 
L 582.599656 56.576386 
L 611.735105 57.343164 
L 640.870553 57.947059 
L 670.006002 58.973135 
L 699.14145 59.893501 
L 728.276899 61.241568 
L 757.412347 62.670988 
L 786.547796 64.343424 
L 815.683244 66.254539 
L 844.818692 68.975567 
L 873.954141 72.598583 
L 903.089589 76.916386 
L 932.225038 81.931893 
L 949.706307 85.007926 
" clip-path="url(#pf84f53a5ca)" style="fill: none; stroke: #5cb85c; stroke-linecap: square"/>
   </g>
   <g id="line2d_33">
    <path d="M 81.469943 118.436328 
L 87.297033 114.345128 
L 93.124123 95.117341 
L 98.951212 84.510755 
L 104.778302 80.782559 
L 110.605392 59.559146 
L 116.432481 58.077033 
L 122.259571 57.364984 
L 128.086661 56.629716 
L 145.56793 56.780549 
L 174.703378 58.292873 
L 203.838827 59.887018 
L 232.974275 62.188151 
L 262.109724 61.856256 
L 291.245172 67.13198 
L 320.38062 68.72081 
L 349.516069 70.437693 
L 378.651517 71.334761 
L 407.786966 72.798043 
L 436.922414 73.536484 
L 466.057863 74.851297 
L 495.193311 76.287469 
L 524.32876 87.533077 
L 553.464208 83.558084 
L 582.599656 85.658714 
L 611.735105 88.367355 
L 640.870553 91.192231 
L 670.006002 94.673493 
L 699.14145 98.473638 
L 728.276899 103.198125 
L 757.412347 107.639199 
L 786.547796 112.424015 
L 815.683244 118.425157 
L 844.818692 124.285871 
L 873.954141 130.501512 
L 903.089589 137.451051 
L 932.225038 140.890638 
L 949.706307 145.536531 
" clip-path="url(#pf84f53a5ca)" style="fill: none; stroke: #5cb85c; stroke-linecap: square"/>
   </g>
   <g id="line2d_34">
    <path d="M 81.469943 109.297041 
L 87.297033 109.234973 
L 93.124123 80.569285 
L 98.951212 72.785161 
L 104.778302 71.194964 
L 110.605392 44.110391 
L 116.432481 43.607472 
L 122.259571 42.355693 
L 128.086661 41.397222 
L 145.56793 41.037073 
L 174.703378 41.169112 
L 203.838827 41.293165 
L 232.974275 41.933745 
L 262.109724 42.86009 
L 291.245172 43.387589 
L 320.38062 44.340409 
L 349.516069 44.60029 
L 378.651517 44.917778 
L 407.786966 45.759014 
L 436.922414 46.358933 
L 466.057863 46.924115 
L 495.193311 50.679924 
L 524.32876 53.901436 
L 553.464208 51.424328 
L 582.599656 51.692631 
L 611.735105 52.506471 
L 640.870553 53.407883 
L 670.006002 54.942502 
L 699.14145 56.497098 
L 728.276899 58.901183 
L 757.412347 61.654572 
L 786.547796 65.022469 
L 815.683244 69.42514 
L 844.818692 75.946306 
L 873.954141 85.387108 
L 903.089589 97.489077 
L 932.225038 111.559657 
L 949.706307 120.423539 
" clip-path="url(#pf84f53a5ca)" style="fill: none; stroke: #5cb85c; stroke-linecap: square"/>
   </g>
   <g id="line2d_35">
    <path d="M 81.469943 111.755783 
L 87.297033 109.888445 
L 93.124123 86.985927 
L 98.951212 78.114245 
L 104.778302 76.24961 
L 110.605392 52.046439 
L 116.432481 52.471705 
L 122.259571 52.013073 
L 128.086661 50.35573 
L 145.56793 49.961603 
L 174.703378 51.632619 
L 203.838827 52.632179 
L 232.974275 54.505713 
L 262.109724 54.541566 
L 291.245172 59.671237 
L 320.38062 61.71481 
L 349.516069 63.515417 
L 378.651517 64.136016 
L 407.786966 65.025801 
L 436.922414 66.475296 
L 466.057863 67.840451 
L 495.193311 69.915206 
L 524.32876 78.335639 
L 553.464208 73.769869 
L 582.599656 77.245641 
L 611.735105 80.624469 
L 640.870553 84.209229 
L 670.006002 88.533188 
L 699.14145 92.897524 
L 728.276899 98.251593 
L 757.412347 102.687579 
L 786.547796 107.50094 
L 815.683244 113.924399 
L 844.818692 121.108363 
L 873.954141 129.296335 
L 903.089589 139.70069 
L 932.225038 148.874613 
L 949.706307 156.660531 
" clip-path="url(#pf84f53a5ca)" style="fill: none; stroke: #5cb85c; stroke-linecap: square"/>
   </g>
   <g id="line2d_36">
    <path d="M 81.469943 110.524985 
L 87.297033 112.347821 
L 93.124123 82.800552 
L 98.951212 73.954237 
L 104.778302 71.788643 
L 110.605392 46.224844 
L 116.432481 46.163767 
L 122.259571 43.343689 
L 128.086661 42.320303 
L 145.56793 42.075449 
L 174.703378 41.973247 
L 203.838827 42.307698 
L 232.974275 42.928468 
L 262.109724 43.909857 
L 291.245172 44.377087 
L 320.38062 44.775917 
L 349.516069 45.137246 
L 378.651517 45.53063 
L 407.786966 46.045423 
L 436.922414 46.482601 
L 466.057863 47.121528 
L 495.193311 47.566033 
L 524.32876 49.49229 
L 553.464208 46.635866 
L 582.599656 46.811197 
L 611.735105 47.606552 
L 640.870553 48.273399 
L 670.006002 49.329266 
L 699.14145 50.250805 
L 728.276899 51.606695 
L 757.412347 53.005148 
L 786.547796 54.541667 
L 815.683244 56.083471 
L 844.818692 58.33565 
L 873.954141 61.040335 
L 903.089589 64.387587 
L 932.225038 68.352159 
L 949.706307 70.770881 
" clip-path="url(#pf84f53a5ca)" style="fill: none; stroke: #5cb85c; stroke-linecap: square"/>
   </g>
   <g id="line2d_37">
    <path d="M 81.469943 115.89632 
L 87.297033 113.849694 
L 93.124123 98.101423 
L 98.951212 84.092865 
L 104.778302 82.22796 
L 110.605392 62.073967 
L 116.432481 59.375724 
L 122.259571 58.241408 
L 128.086661 56.908198 
L 145.56793 56.498847 
L 174.703378 57.917739 
L 203.838827 59.323996 
L 232.974275 61.813754 
L 262.109724 61.626659 
L 291.245172 67.641299 
L 320.38062 69.328554 
L 349.516069 70.762474 
L 378.651517 71.245249 
L 407.786966 72.19544 
L 436.922414 72.746702 
L 466.057863 74.238378 
L 495.193311 75.870964 
L 524.32876 79.231096 
L 553.464208 72.97859 
L 582.599656 75.09242 
L 611.735105 77.67755 
L 640.870553 80.205683 
L 670.006002 83.51676 
L 699.14145 87.213315 
L 728.276899 91.675843 
L 757.412347 96.043605 
L 786.547796 100.791975 
L 815.683244 106.67904 
L 844.818692 112.252064 
L 873.954141 117.983913 
L 903.089589 124.17212 
L 932.225038 126.906765 
L 949.706307 131.011258 
" clip-path="url(#pf84f53a5ca)" style="fill: none; stroke: #5cb85c; stroke-linecap: square"/>
   </g>
   <g id="line2d_38">
    <path d="M 81.469943 109.831019 
L 87.297033 111.45658 
L 93.124123 82.449976 
L 98.951212 74.325082 
L 104.778302 72.241592 
L 110.605392 46.43667 
L 116.432481 45.860046 
L 122.259571 43.456891 
L 128.086661 42.728476 
L 145.56793 42.299761 
L 174.703378 42.501141 
L 203.838827 42.923541 
L 232.974275 43.426527 
L 262.109724 44.264344 
L 291.245172 44.714116 
L 320.38062 45.096139 
L 349.516069 45.510501 
L 378.651517 45.849378 
L 407.786966 46.387147 
L 436.922414 46.999286 
L 466.057863 47.53725 
L 495.193311 48.248617 
L 524.32876 50.334421 
L 553.464208 47.177107 
L 582.599656 47.475429 
L 611.735105 48.345839 
L 640.870553 48.897939 
L 670.006002 50.070577 
L 699.14145 50.963858 
L 728.276899 52.436648 
L 757.412347 53.804967 
L 786.547796 55.649863 
L 815.683244 57.203337 
L 844.818692 59.760876 
L 873.954141 62.742727 
L 903.089589 66.868368 
L 932.225038 71.52526 
L 949.706307 74.219835 
" clip-path="url(#pf84f53a5ca)" style="fill: none; stroke: #5cb85c; stroke-linecap: square"/>
   </g>
   <g id="line2d_39">
    <path d="M 81.469943 113.717667 
L 87.297033 111.698923 
L 93.124123 92.052262 
L 98.951212 81.615979 
L 104.778302 79.015946 
L 110.605392 57.168687 
L 116.432481 55.514567 
L 122.259571 55.104611 
L 128.086661 53.73213 
L 145.56793 53.146649 
L 174.703378 54.700603 
L 203.838827 56.77029 
L 232.974275 58.603934 
L 262.109724 58.226021 
L 291.245172 63.629733 
L 320.38062 64.909029 
L 349.516069 66.509657 
L 378.651517 66.912504 
L 407.786966 67.887208 
L 436.922414 68.348684 
L 466.057863 69.73463 
L 495.193311 71.220412 
L 524.32876 75.004665 
L 553.464208 69.059854 
L 582.599656 71.002231 
L 611.735105 73.457847 
L 640.870553 75.785827 
L 670.006002 79.022732 
L 699.14145 82.456618 
L 728.276899 86.812461 
L 757.412347 90.79968 
L 786.547796 95.323076 
L 815.683244 100.960327 
L 844.818692 106.750054 
L 873.954141 113.221858 
L 903.089589 119.654787 
L 932.225038 122.871062 
L 949.706307 127.383593 
" clip-path="url(#pf84f53a5ca)" style="fill: none; stroke: #5cb85c; stroke-linecap: square"/>
   </g>
   <g id="line2d_40">
    <path d="M 81.469943 109.813518 
L 87.297033 111.127519 
L 93.124123 81.478671 
L 98.951212 73.329788 
L 104.778302 71.304096 
L 110.605392 45.207048 
L 116.432481 45.0947 
L 122.259571 42.607941 
L 128.086661 41.736676 
L 145.56793 41.469201 
L 174.703378 41.445744 
L 203.838827 41.730057 
L 232.974275 42.315079 
L 262.109724 43.296463 
L 291.245172 43.796054 
L 320.38062 44.160707 
L 349.516069 44.448578 
L 378.651517 44.749961 
L 407.786966 45.276085 
L 436.922414 45.678167 
L 466.057863 46.297289 
L 495.193311 47.497497 
L 524.32876 49.580404 
L 553.464208 46.896521 
L 582.599656 47.049285 
L 611.735105 47.786937 
L 640.870553 48.415566 
L 670.006002 49.458675 
L 699.14145 50.43411 
L 728.276899 51.860931 
L 757.412347 53.422051 
L 786.547796 55.2954 
L 815.683244 57.427335 
L 844.818692 60.741685 
L 873.954141 65.239148 
L 903.089589 70.965995 
L 932.225038 77.74165 
L 949.706307 82.02425 
" clip-path="url(#pf84f53a5ca)" style="fill: none; stroke: #5cb85c; stroke-linecap: square"/>
   </g>
   <g id="line2d_41">
    <path d="M 81.469943 117.171045 
L 87.297033 112.978896 
L 93.124123 93.247424 
L 98.951212 82.35031 
L 104.778302 78.737059 
L 110.605392 56.494769 
L 116.432481 55.140057 
L 122.259571 54.638478 
L 128.086661 53.840744 
L 145.56793 53.795073 
L 174.703378 55.010385 
L 203.838827 56.68049 
L 232.974275 58.737058 
L 262.109724 58.345224 
L 291.245172 63.406348 
L 320.38062 65.158976 
L 349.516069 66.610346 
L 378.651517 67.213129 
L 407.786966 68.30468 
L 436.922414 69.04007 
L 466.057863 70.408816 
L 495.193311 72.045774 
L 524.32876 76.475505 
L 553.464208 70.603346 
L 582.599656 72.876525 
L 611.735105 75.577531 
L 640.870553 78.256754 
L 670.006002 81.662949 
L 699.14145 85.299245 
L 728.276899 89.8503 
L 757.412347 94.198556 
L 786.547796 98.966572 
L 815.683244 105.084694 
L 844.818692 111.098589 
L 873.954141 117.708224 
L 903.089589 125.248907 
L 932.225038 129.935931 
L 949.706307 135.305569 
" clip-path="url(#pf84f53a5ca)" style="fill: none; stroke: #5cb85c; stroke-linecap: square"/>
   </g>
   <g id="line2d_42">
    <path d="M 38.058125 353.2239 
L 993.118125 353.2239 
" clip-path="url(#pf84f53a5ca)" style="fill: none; stroke: #dedede; stroke-width: 2; stroke-linecap: square"/>
   </g>
   <g id="text_20">
    <!-- FastQC: Mean Quality Scores -->
    <g transform="translate(400.349375 19.3575) scale(0.16 -0.16)">
     <defs>
      <path id="DejaVuSans-46" d="M 628 4666 
L 3309 4666 
L 3309 4134 
L 1259 4134 
L 1259 2759 
L 3109 2759 
L 3109 2228 
L 1259 2228 
L 1259 0 
L 628 0 
L 628 4666 
z
" transform="scale(0.015625)"/>
      <path id="DejaVuSans-61" d="M 2194 1759 
Q 1497 1759 1228 1600 
Q 959 1441 959 1056 
Q 959 750 1161 570 
Q 1363 391 1709 391 
Q 2188 391 2477 730 
Q 2766 1069 2766 1631 
L 2766 1759 
L 2194 1759 
z
M 3341 1997 
L 3341 0 
L 2766 0 
L 2766 531 
Q 2569 213 2275 61 
Q 1981 -91 1556 -91 
Q 1019 -91 701 211 
Q 384 513 384 1019 
Q 384 1609 779 1909 
Q 1175 2209 1959 2209 
L 2766 2209 
L 2766 2266 
Q 2766 2663 2505 2880 
Q 2244 3097 1772 3097 
Q 1472 3097 1187 3025 
Q 903 2953 641 2809 
L 641 3341 
Q 956 3463 1253 3523 
Q 1550 3584 1831 3584 
Q 2591 3584 2966 3190 
Q 3341 2797 3341 1997 
z
" transform="scale(0.015625)"/>
      <path id="DejaVuSans-51" d="M 2522 4238 
Q 1834 4238 1429 3725 
Q 1025 3213 1025 2328 
Q 1025 1447 1429 934 
Q 1834 422 2522 422 
Q 3209 422 3611 934 
Q 4013 1447 4013 2328 
Q 4013 3213 3611 3725 
Q 3209 4238 2522 4238 
z
M 3406 84 
L 4238 -825 
L 3475 -825 
L 2784 -78 
Q 2681 -84 2626 -87 
Q 2572 -91 2522 -91 
Q 1538 -91 948 567 
Q 359 1225 359 2328 
Q 359 3434 948 4092 
Q 1538 4750 2522 4750 
Q 3503 4750 4090 4092 
Q 4678 3434 4678 2328 
Q 4678 1516 4351 937 
Q 4025 359 3406 84 
z
" transform="scale(0.015625)"/>
      <path id="DejaVuSans-43" d="M 4122 4306 
L 4122 3641 
Q 3803 3938 3442 4084 
Q 3081 4231 2675 4231 
Q 1875 4231 1450 3742 
Q 1025 3253 1025 2328 
Q 1025 1406 1450 917 
Q 1875 428 2675 428 
Q 3081 428 3442 575 
Q 3803 722 4122 1019 
L 4122 359 
Q 3791 134 3420 21 
Q 3050 -91 2638 -91 
Q 1578 -91 968 557 
Q 359 1206 359 2328 
Q 359 3453 968 4101 
Q 1578 4750 2638 4750 
Q 3056 4750 3426 4639 
Q 3797 4528 4122 4306 
z
" transform="scale(0.015625)"/>
      <path id="DejaVuSans-3a" d="M 750 794 
L 1409 794 
L 1409 0 
L 750 0 
L 750 794 
z
M 750 3309 
L 1409 3309 
L 1409 2516 
L 750 2516 
L 750 3309 
z
" transform="scale(0.015625)"/>
      <path id="DejaVuSans-4d" d="M 628 4666 
L 1569 4666 
L 2759 1491 
L 3956 4666 
L 4897 4666 
L 4897 0 
L 4281 0 
L 4281 4097 
L 3078 897 
L 2444 897 
L 1241 4097 
L 1241 0 
L 628 0 
L 628 4666 
z
" transform="scale(0.015625)"/>
      <path id="DejaVuSans-75" d="M 544 1381 
L 544 3500 
L 1119 3500 
L 1119 1403 
Q 1119 906 1312 657 
Q 1506 409 1894 409 
Q 2359 409 2629 706 
Q 2900 1003 2900 1516 
L 2900 3500 
L 3475 3500 
L 3475 0 
L 2900 0 
L 2900 538 
Q 2691 219 2414 64 
Q 2138 -91 1772 -91 
Q 1169 -91 856 284 
Q 544 659 544 1381 
z
M 1991 3584 
L 1991 3584 
z
" transform="scale(0.015625)"/>
      <path id="DejaVuSans-6c" d="M 603 4863 
L 1178 4863 
L 1178 0 
L 603 0 
L 603 4863 
z
" transform="scale(0.015625)"/>
      <path id="DejaVuSans-79" d="M 2059 -325 
Q 1816 -950 1584 -1140 
Q 1353 -1331 966 -1331 
L 506 -1331 
L 506 -850 
L 844 -850 
Q 1081 -850 1212 -737 
Q 1344 -625 1503 -206 
L 1606 56 
L 191 3500 
L 800 3500 
L 1894 763 
L 2988 3500 
L 3597 3500 
L 2059 -325 
z
" transform="scale(0.015625)"/>
     </defs>
     <use xlink:href="#DejaVuSans-46"/>
     <use xlink:href="#DejaVuSans-61" x="48.394531"/>
     <use xlink:href="#DejaVuSans-73" x="109.673828"/>
     <use xlink:href="#DejaVuSans-74" x="161.773438"/>
     <use xlink:href="#DejaVuSans-51" x="200.982422"/>
     <use xlink:href="#DejaVuSans-43" x="279.693359"/>
     <use xlink:href="#DejaVuSans-3a" x="349.517578"/>
     <use xlink:href="#DejaVuSans-20" x="383.208984"/>
     <use xlink:href="#DejaVuSans-4d" x="414.996094"/>
     <use xlink:href="#DejaVuSans-65" x="501.275391"/>
     <use xlink:href="#DejaVuSans-61" x="562.798828"/>
     <use xlink:href="#DejaVuSans-6e" x="624.078125"/>
     <use xlink:href="#DejaVuSans-20" x="687.457031"/>
     <use xlink:href="#DejaVuSans-51" x="719.244141"/>
     <use xlink:href="#DejaVuSans-75" x="797.955078"/>
     <use xlink:href="#DejaVuSans-61" x="861.333984"/>
     <use xlink:href="#DejaVuSans-6c" x="922.613281"/>
     <use xlink:href="#DejaVuSans-69" x="950.396484"/>
     <use xlink:href="#DejaVuSans-74" x="978.179688"/>
     <use xlink:href="#DejaVuSans-79" x="1017.388672"/>
     <use xlink:href="#DejaVuSans-20" x="1076.568359"/>
     <use xlink:href="#DejaVuSans-53" x="1108.355469"/>
     <use xlink:href="#DejaVuSans-63" x="1171.832031"/>
     <use xlink:href="#DejaVuSans-6f" x="1226.8125"/>
     <use xlink:href="#DejaVuSans-72" x="1287.994141"/>
     <use xlink:href="#DejaVuSans-65" x="1326.857422"/>
     <use xlink:href="#DejaVuSans-73" x="1388.380859"/>
    </g>
   </g>
  </g>
 </g>
 <defs>
  <clipPath id="pf84f53a5ca">
   <rect x="38.058125" y="35.2559" width="955.06" height="317.968"/>
  </clipPath>
 </defs>
</svg>
