<?xml version="1.0" encoding="utf-8" standalone="no"?>
<!DOCTYPE svg PUBLIC "-//W3C//DTD SVG 1.1//EN"
  "http://www.w3.org/Graphics/SVG/1.1/DTD/svg11.dtd">
<svg xmlns:xlink="http://www.w3.org/1999/xlink" width="1000.138125pt" height="388.844525pt" viewBox="0 0 1000.138125 388.844525" xmlns="http://www.w3.org/2000/svg" version="1.1">
 <metadata>
  <rdf:RDF xmlns:dc="http://purl.org/dc/elements/1.1/" xmlns:cc="http://creativecommons.org/ns#" xmlns:rdf="http://www.w3.org/1999/02/22-rdf-syntax-ns#">
   <cc:Work>
    <dc:type rdf:resource="http://purl.org/dc/dcmitype/StillImage"/>
    <dc:date>2024-08-15T09:46:00.438154</dc:date>
    <dc:format>image/svg+xml</dc:format>
    <dc:creator>
     <cc:Agent>
      <dc:title>Matplotlib v3.8.2, https://matplotlib.org/</dc:title>
     </cc:Agent>
    </dc:creator>
   </cc:Work>
  </rdf:RDF>
 </metadata>
 <defs>
  <style type="text/css">*{stroke-linejoin: round; stroke-linecap: butt}</style>
 </defs>
 <g id="figure_1">
  <g id="axes_1">
   <g id="patch_1">
    <path d="M 53.328125 353.2239 
L 985.303125 353.2239 
L 985.303125 35.2559 
L 53.328125 35.2559 
z
" style="fill: #ffffff"/>
   </g>
   <g id="matplotlib.axis_1">
    <g id="xtick_1">
     <g id="text_1">
      <!-- 0 -->
      <g transform="translate(50.783125 366.30265) scale(0.08 -0.08)">
       <defs>
        <path id="DejaVuSans-30" d="M 2034 4250 
Q 1547 4250 1301 3770 
Q 1056 3291 1056 2328 
Q 1056 1369 1301 889 
Q 1547 409 2034 409 
Q 2525 409 2770 889 
Q 3016 1369 3016 2328 
Q 3016 3291 2770 3770 
Q 2525 4250 2034 4250 
z
M 2034 4750 
Q 2819 4750 3233 4129 
Q 3647 3509 3647 2328 
Q 3647 1150 3233 529 
Q 2819 -91 2034 -91 
Q 1250 -91 836 529 
Q 422 1150 422 2328 
Q 422 3509 836 4129 
Q 1250 4750 2034 4750 
z
" transform="scale(0.015625)"/>
       </defs>
       <use xlink:href="#DejaVuSans-30"/>
      </g>
     </g>
    </g>
    <g id="xtick_2">
     <g id="text_2">
      <!-- 20 -->
      <g transform="translate(234.633125 366.30265) scale(0.08 -0.08)">
       <defs>
        <path id="DejaVuSans-32" d="M 1228 531 
L 3431 531 
L 3431 0 
L 469 0 
L 469 531 
Q 828 903 1448 1529 
Q 2069 2156 2228 2338 
Q 2531 2678 2651 2914 
Q 2772 3150 2772 3378 
Q 2772 3750 2511 3984 
Q 2250 4219 1831 4219 
Q 1534 4219 1204 4116 
Q 875 4013 500 3803 
L 500 4441 
Q 881 4594 1212 4672 
Q 1544 4750 1819 4750 
Q 2544 4750 2975 4387 
Q 3406 4025 3406 3419 
Q 3406 3131 3298 2873 
Q 3191 2616 2906 2266 
Q 2828 2175 2409 1742 
Q 1991 1309 1228 531 
z
" transform="scale(0.015625)"/>
       </defs>
       <use xlink:href="#DejaVuSans-32"/>
       <use xlink:href="#DejaVuSans-30" x="63.623047"/>
      </g>
     </g>
    </g>
    <g id="xtick_3">
     <g id="text_3">
      <!-- 40 -->
      <g transform="translate(421.028125 366.30265) scale(0.08 -0.08)">
       <defs>
        <path id="DejaVuSans-34" d="M 2419 4116 
L 825 1625 
L 2419 1625 
L 2419 4116 
z
M 2253 4666 
L 3047 4666 
L 3047 1625 
L 3713 1625 
L 3713 1100 
L 3047 1100 
L 3047 0 
L 2419 0 
L 2419 1100 
L 313 1100 
L 313 1709 
L 2253 4666 
z
" transform="scale(0.015625)"/>
       </defs>
       <use xlink:href="#DejaVuSans-34"/>
       <use xlink:href="#DejaVuSans-30" x="63.623047"/>
      </g>
     </g>
    </g>
    <g id="xtick_4">
     <g id="text_4">
      <!-- 60 -->
      <g transform="translate(607.423125 366.30265) scale(0.08 -0.08)">
       <defs>
        <path id="DejaVuSans-36" d="M 2113 2584 
Q 1688 2584 1439 2293 
Q 1191 2003 1191 1497 
Q 1191 994 1439 701 
Q 1688 409 2113 409 
Q 2538 409 2786 701 
Q 3034 994 3034 1497 
Q 3034 2003 2786 2293 
Q 2538 2584 2113 2584 
z
M 3366 4563 
L 3366 3988 
Q 3128 4100 2886 4159 
Q 2644 4219 2406 4219 
Q 1781 4219 1451 3797 
Q 1122 3375 1075 2522 
Q 1259 2794 1537 2939 
Q 1816 3084 2150 3084 
Q 2853 3084 3261 2657 
Q 3669 2231 3669 1497 
Q 3669 778 3244 343 
Q 2819 -91 2113 -91 
Q 1303 -91 875 529 
Q 447 1150 447 2328 
Q 447 3434 972 4092 
Q 1497 4750 2381 4750 
Q 2619 4750 2861 4703 
Q 3103 4656 3366 4563 
z
" transform="scale(0.015625)"/>
       </defs>
       <use xlink:href="#DejaVuSans-36"/>
       <use xlink:href="#DejaVuSans-30" x="63.623047"/>
      </g>
     </g>
    </g>
    <g id="xtick_5">
     <g id="text_5">
      <!-- 80 -->
      <g transform="translate(793.818125 366.30265) scale(0.08 -0.08)">
       <defs>
        <path id="DejaVuSans-38" d="M 2034 2216 
Q 1584 2216 1326 1975 
Q 1069 1734 1069 1313 
Q 1069 891 1326 650 
Q 1584 409 2034 409 
Q 2484 409 2743 651 
Q 3003 894 3003 1313 
Q 3003 1734 2745 1975 
Q 2488 2216 2034 2216 
z
M 1403 2484 
Q 997 2584 770 2862 
Q 544 3141 544 3541 
Q 544 4100 942 4425 
Q 1341 4750 2034 4750 
Q 2731 4750 3128 4425 
Q 3525 4100 3525 3541 
Q 3525 3141 3298 2862 
Q 3072 2584 2669 2484 
Q 3125 2378 3379 2068 
Q 3634 1759 3634 1313 
Q 3634 634 3220 271 
Q 2806 -91 2034 -91 
Q 1263 -91 848 271 
Q 434 634 434 1313 
Q 434 1759 690 2068 
Q 947 2378 1403 2484 
z
M 1172 3481 
Q 1172 3119 1398 2916 
Q 1625 2713 2034 2713 
Q 2441 2713 2670 2916 
Q 2900 3119 2900 3481 
Q 2900 3844 2670 4047 
Q 2441 4250 2034 4250 
Q 1625 4250 1398 4047 
Q 1172 3844 1172 3481 
z
" transform="scale(0.015625)"/>
       </defs>
       <use xlink:href="#DejaVuSans-38"/>
       <use xlink:href="#DejaVuSans-30" x="63.623047"/>
      </g>
     </g>
    </g>
    <g id="xtick_6">
     <g id="text_6">
      <!-- 100 -->
      <g transform="translate(977.668125 366.30265) scale(0.08 -0.08)">
       <defs>
        <path id="DejaVuSans-31" d="M 794 531 
L 1825 531 
L 1825 4091 
L 703 3866 
L 703 4441 
L 1819 4666 
L 2450 4666 
L 2450 531 
L 3481 531 
L 3481 0 
L 794 0 
L 794 531 
z
" transform="scale(0.015625)"/>
       </defs>
       <use xlink:href="#DejaVuSans-31"/>
       <use xlink:href="#DejaVuSans-30" x="63.623047"/>
       <use xlink:href="#DejaVuSans-30" x="127.246094"/>
      </g>
     </g>
    </g>
    <g id="text_7">
     <!-- Transcript Position (%) -->
     <g transform="translate(463.483594 379.564837) scale(0.1 -0.1)">
      <defs>
       <path id="DejaVuSans-54" d="M -19 4666 
L 3928 4666 
L 3928 4134 
L 2272 4134 
L 2272 0 
L 1638 0 
L 1638 4134 
L -19 4134 
L -19 4666 
z
" transform="scale(0.015625)"/>
       <path id="DejaVuSans-72" d="M 2631 2963 
Q 2534 3019 2420 3045 
Q 2306 3072 2169 3072 
Q 1681 3072 1420 2755 
Q 1159 2438 1159 1844 
L 1159 0 
L 581 0 
L 581 3500 
L 1159 3500 
L 1159 2956 
Q 1341 3275 1631 3429 
Q 1922 3584 2338 3584 
Q 2397 3584 2469 3576 
Q 2541 3569 2628 3553 
L 2631 2963 
z
" transform="scale(0.015625)"/>
       <path id="DejaVuSans-61" d="M 2194 1759 
Q 1497 1759 1228 1600 
Q 959 1441 959 1056 
Q 959 750 1161 570 
Q 1363 391 1709 391 
Q 2188 391 2477 730 
Q 2766 1069 2766 1631 
L 2766 1759 
L 2194 1759 
z
M 3341 1997 
L 3341 0 
L 2766 0 
L 2766 531 
Q 2569 213 2275 61 
Q 1981 -91 1556 -91 
Q 1019 -91 701 211 
Q 384 513 384 1019 
Q 384 1609 779 1909 
Q 1175 2209 1959 2209 
L 2766 2209 
L 2766 2266 
Q 2766 2663 2505 2880 
Q 2244 3097 1772 3097 
Q 1472 3097 1187 3025 
Q 903 2953 641 2809 
L 641 3341 
Q 956 3463 1253 3523 
Q 1550 3584 1831 3584 
Q 2591 3584 2966 3190 
Q 3341 2797 3341 1997 
z
" transform="scale(0.015625)"/>
       <path id="DejaVuSans-6e" d="M 3513 2113 
L 3513 0 
L 2938 0 
L 2938 2094 
Q 2938 2591 2744 2837 
Q 2550 3084 2163 3084 
Q 1697 3084 1428 2787 
Q 1159 2491 1159 1978 
L 1159 0 
L 581 0 
L 581 3500 
L 1159 3500 
L 1159 2956 
Q 1366 3272 1645 3428 
Q 1925 3584 2291 3584 
Q 2894 3584 3203 3211 
Q 3513 2838 3513 2113 
z
" transform="scale(0.015625)"/>
       <path id="DejaVuSans-73" d="M 2834 3397 
L 2834 2853 
Q 2591 2978 2328 3040 
Q 2066 3103 1784 3103 
Q 1356 3103 1142 2972 
Q 928 2841 928 2578 
Q 928 2378 1081 2264 
Q 1234 2150 1697 2047 
L 1894 2003 
Q 2506 1872 2764 1633 
Q 3022 1394 3022 966 
Q 3022 478 2636 193 
Q 2250 -91 1575 -91 
Q 1294 -91 989 -36 
Q 684 19 347 128 
L 347 722 
Q 666 556 975 473 
Q 1284 391 1588 391 
Q 1994 391 2212 530 
Q 2431 669 2431 922 
Q 2431 1156 2273 1281 
Q 2116 1406 1581 1522 
L 1381 1569 
Q 847 1681 609 1914 
Q 372 2147 372 2553 
Q 372 3047 722 3315 
Q 1072 3584 1716 3584 
Q 2034 3584 2315 3537 
Q 2597 3491 2834 3397 
z
" transform="scale(0.015625)"/>
       <path id="DejaVuSans-63" d="M 3122 3366 
L 3122 2828 
Q 2878 2963 2633 3030 
Q 2388 3097 2138 3097 
Q 1578 3097 1268 2742 
Q 959 2388 959 1747 
Q 959 1106 1268 751 
Q 1578 397 2138 397 
Q 2388 397 2633 464 
Q 2878 531 3122 666 
L 3122 134 
Q 2881 22 2623 -34 
Q 2366 -91 2075 -91 
Q 1284 -91 818 406 
Q 353 903 353 1747 
Q 353 2603 823 3093 
Q 1294 3584 2113 3584 
Q 2378 3584 2631 3529 
Q 2884 3475 3122 3366 
z
" transform="scale(0.015625)"/>
       <path id="DejaVuSans-69" d="M 603 3500 
L 1178 3500 
L 1178 0 
L 603 0 
L 603 3500 
z
M 603 4863 
L 1178 4863 
L 1178 4134 
L 603 4134 
L 603 4863 
z
" transform="scale(0.015625)"/>
       <path id="DejaVuSans-70" d="M 1159 525 
L 1159 -1331 
L 581 -1331 
L 581 3500 
L 1159 3500 
L 1159 2969 
Q 1341 3281 1617 3432 
Q 1894 3584 2278 3584 
Q 2916 3584 3314 3078 
Q 3713 2572 3713 1747 
Q 3713 922 3314 415 
Q 2916 -91 2278 -91 
Q 1894 -91 1617 61 
Q 1341 213 1159 525 
z
M 3116 1747 
Q 3116 2381 2855 2742 
Q 2594 3103 2138 3103 
Q 1681 3103 1420 2742 
Q 1159 2381 1159 1747 
Q 1159 1113 1420 752 
Q 1681 391 2138 391 
Q 2594 391 2855 752 
Q 3116 1113 3116 1747 
z
" transform="scale(0.015625)"/>
       <path id="DejaVuSans-74" d="M 1172 4494 
L 1172 3500 
L 2356 3500 
L 2356 3053 
L 1172 3053 
L 1172 1153 
Q 1172 725 1289 603 
Q 1406 481 1766 481 
L 2356 481 
L 2356 0 
L 1766 0 
Q 1100 0 847 248 
Q 594 497 594 1153 
L 594 3053 
L 172 3053 
L 172 3500 
L 594 3500 
L 594 4494 
L 1172 4494 
z
" transform="scale(0.015625)"/>
       <path id="DejaVuSans-20" transform="scale(0.015625)"/>
       <path id="DejaVuSans-50" d="M 1259 4147 
L 1259 2394 
L 2053 2394 
Q 2494 2394 2734 2622 
Q 2975 2850 2975 3272 
Q 2975 3691 2734 3919 
Q 2494 4147 2053 4147 
L 1259 4147 
z
M 628 4666 
L 2053 4666 
Q 2838 4666 3239 4311 
Q 3641 3956 3641 3272 
Q 3641 2581 3239 2228 
Q 2838 1875 2053 1875 
L 1259 1875 
L 1259 0 
L 628 0 
L 628 4666 
z
" transform="scale(0.015625)"/>
       <path id="DejaVuSans-6f" d="M 1959 3097 
Q 1497 3097 1228 2736 
Q 959 2375 959 1747 
Q 959 1119 1226 758 
Q 1494 397 1959 397 
Q 2419 397 2687 759 
Q 2956 1122 2956 1747 
Q 2956 2369 2687 2733 
Q 2419 3097 1959 3097 
z
M 1959 3584 
Q 2709 3584 3137 3096 
Q 3566 2609 3566 1747 
Q 3566 888 3137 398 
Q 2709 -91 1959 -91 
Q 1206 -91 779 398 
Q 353 888 353 1747 
Q 353 2609 779 3096 
Q 1206 3584 1959 3584 
z
" transform="scale(0.015625)"/>
       <path id="DejaVuSans-28" d="M 1984 4856 
Q 1566 4138 1362 3434 
Q 1159 2731 1159 2009 
Q 1159 1288 1364 580 
Q 1569 -128 1984 -844 
L 1484 -844 
Q 1016 -109 783 600 
Q 550 1309 550 2009 
Q 550 2706 781 3412 
Q 1013 4119 1484 4856 
L 1984 4856 
z
" transform="scale(0.015625)"/>
       <path id="DejaVuSans-25" d="M 4653 2053 
Q 4381 2053 4226 1822 
Q 4072 1591 4072 1178 
Q 4072 772 4226 539 
Q 4381 306 4653 306 
Q 4919 306 5073 539 
Q 5228 772 5228 1178 
Q 5228 1588 5073 1820 
Q 4919 2053 4653 2053 
z
M 4653 2450 
Q 5147 2450 5437 2106 
Q 5728 1763 5728 1178 
Q 5728 594 5436 251 
Q 5144 -91 4653 -91 
Q 4153 -91 3862 251 
Q 3572 594 3572 1178 
Q 3572 1766 3864 2108 
Q 4156 2450 4653 2450 
z
M 1428 4353 
Q 1159 4353 1004 4120 
Q 850 3888 850 3481 
Q 850 3069 1003 2837 
Q 1156 2606 1428 2606 
Q 1700 2606 1854 2837 
Q 2009 3069 2009 3481 
Q 2009 3884 1853 4118 
Q 1697 4353 1428 4353 
z
M 4250 4750 
L 4750 4750 
L 1831 -91 
L 1331 -91 
L 4250 4750 
z
M 1428 4750 
Q 1922 4750 2215 4408 
Q 2509 4066 2509 3481 
Q 2509 2891 2217 2550 
Q 1925 2209 1428 2209 
Q 931 2209 642 2551 
Q 353 2894 353 3481 
Q 353 4063 643 4406 
Q 934 4750 1428 4750 
z
" transform="scale(0.015625)"/>
       <path id="DejaVuSans-29" d="M 513 4856 
L 1013 4856 
Q 1481 4119 1714 3412 
Q 1947 2706 1947 2009 
Q 1947 1309 1714 600 
Q 1481 -109 1013 -844 
L 513 -844 
Q 928 -128 1133 580 
Q 1338 1288 1338 2009 
Q 1338 2731 1133 3434 
Q 928 4138 513 4856 
z
" transform="scale(0.015625)"/>
      </defs>
      <use xlink:href="#DejaVuSans-54"/>
      <use xlink:href="#DejaVuSans-72" x="46.333984"/>
      <use xlink:href="#DejaVuSans-61" x="87.447266"/>
      <use xlink:href="#DejaVuSans-6e" x="148.726562"/>
      <use xlink:href="#DejaVuSans-73" x="212.105469"/>
      <use xlink:href="#DejaVuSans-63" x="264.205078"/>
      <use xlink:href="#DejaVuSans-72" x="319.185547"/>
      <use xlink:href="#DejaVuSans-69" x="360.298828"/>
      <use xlink:href="#DejaVuSans-70" x="388.082031"/>
      <use xlink:href="#DejaVuSans-74" x="451.558594"/>
      <use xlink:href="#DejaVuSans-20" x="490.767578"/>
      <use xlink:href="#DejaVuSans-50" x="522.554688"/>
      <use xlink:href="#DejaVuSans-6f" x="579.232422"/>
      <use xlink:href="#DejaVuSans-73" x="640.414062"/>
      <use xlink:href="#DejaVuSans-69" x="692.513672"/>
      <use xlink:href="#DejaVuSans-74" x="720.296875"/>
      <use xlink:href="#DejaVuSans-69" x="759.505859"/>
      <use xlink:href="#DejaVuSans-6f" x="787.289062"/>
      <use xlink:href="#DejaVuSans-6e" x="848.470703"/>
      <use xlink:href="#DejaVuSans-20" x="911.849609"/>
      <use xlink:href="#DejaVuSans-28" x="943.636719"/>
      <use xlink:href="#DejaVuSans-25" x="982.650391"/>
      <use xlink:href="#DejaVuSans-29" x="1077.669922"/>
     </g>
    </g>
   </g>
   <g id="matplotlib.axis_2">
    <g id="ytick_1">
     <g id="line2d_1">
      <path d="M 53.328125 353.2239 
L 985.303125 353.2239 
" clip-path="url(#p81a88b81b2)" style="fill: none; stroke: #dedede; stroke-linecap: square"/>
     </g>
     <g id="text_8">
      <!-- 0 -->
      <g transform="translate(41.238125 356.263275) scale(0.08 -0.08)">
       <use xlink:href="#DejaVuSans-30"/>
      </g>
     </g>
    </g>
    <g id="ytick_2">
     <g id="line2d_2">
      <path d="M 53.328125 309.30224 
L 985.303125 309.30224 
" clip-path="url(#p81a88b81b2)" style="fill: none; stroke: #dedede; stroke-linecap: square"/>
     </g>
     <g id="text_9">
      <!-- 10000 -->
      <g transform="translate(20.878125 312.341615) scale(0.08 -0.08)">
       <use xlink:href="#DejaVuSans-31"/>
       <use xlink:href="#DejaVuSans-30" x="63.623047"/>
       <use xlink:href="#DejaVuSans-30" x="127.246094"/>
       <use xlink:href="#DejaVuSans-30" x="190.869141"/>
       <use xlink:href="#DejaVuSans-30" x="254.492188"/>
      </g>
     </g>
    </g>
    <g id="ytick_3">
     <g id="line2d_3">
      <path d="M 53.328125 265.38058 
L 985.303125 265.38058 
" clip-path="url(#p81a88b81b2)" style="fill: none; stroke: #dedede; stroke-linecap: square"/>
     </g>
     <g id="text_10">
      <!-- 20000 -->
      <g transform="translate(20.878125 268.419955) scale(0.08 -0.08)">
       <use xlink:href="#DejaVuSans-32"/>
       <use xlink:href="#DejaVuSans-30" x="63.623047"/>
       <use xlink:href="#DejaVuSans-30" x="127.246094"/>
       <use xlink:href="#DejaVuSans-30" x="190.869141"/>
       <use xlink:href="#DejaVuSans-30" x="254.492188"/>
      </g>
     </g>
    </g>
    <g id="ytick_4">
     <g id="line2d_4">
      <path d="M 53.328125 221.45892 
L 985.303125 221.45892 
" clip-path="url(#p81a88b81b2)" style="fill: none; stroke: #dedede; stroke-linecap: square"/>
     </g>
     <g id="text_11">
      <!-- 30000 -->
      <g transform="translate(20.878125 224.498295) scale(0.08 -0.08)">
       <defs>
        <path id="DejaVuSans-33" d="M 2597 2516 
Q 3050 2419 3304 2112 
Q 3559 1806 3559 1356 
Q 3559 666 3084 287 
Q 2609 -91 1734 -91 
Q 1441 -91 1130 -33 
Q 819 25 488 141 
L 488 750 
Q 750 597 1062 519 
Q 1375 441 1716 441 
Q 2309 441 2620 675 
Q 2931 909 2931 1356 
Q 2931 1769 2642 2001 
Q 2353 2234 1838 2234 
L 1294 2234 
L 1294 2753 
L 1863 2753 
Q 2328 2753 2575 2939 
Q 2822 3125 2822 3475 
Q 2822 3834 2567 4026 
Q 2313 4219 1838 4219 
Q 1578 4219 1281 4162 
Q 984 4106 628 3988 
L 628 4550 
Q 988 4650 1302 4700 
Q 1616 4750 1894 4750 
Q 2613 4750 3031 4423 
Q 3450 4097 3450 3541 
Q 3450 3153 3228 2886 
Q 3006 2619 2597 2516 
z
" transform="scale(0.015625)"/>
       </defs>
       <use xlink:href="#DejaVuSans-33"/>
       <use xlink:href="#DejaVuSans-30" x="63.623047"/>
       <use xlink:href="#DejaVuSans-30" x="127.246094"/>
       <use xlink:href="#DejaVuSans-30" x="190.869141"/>
       <use xlink:href="#DejaVuSans-30" x="254.492188"/>
      </g>
     </g>
    </g>
    <g id="ytick_5">
     <g id="line2d_5">
      <path d="M 53.328125 177.53726 
L 985.303125 177.53726 
" clip-path="url(#p81a88b81b2)" style="fill: none; stroke: #dedede; stroke-linecap: square"/>
     </g>
     <g id="text_12">
      <!-- 40000 -->
      <g transform="translate(20.878125 180.576635) scale(0.08 -0.08)">
       <use xlink:href="#DejaVuSans-34"/>
       <use xlink:href="#DejaVuSans-30" x="63.623047"/>
       <use xlink:href="#DejaVuSans-30" x="127.246094"/>
       <use xlink:href="#DejaVuSans-30" x="190.869141"/>
       <use xlink:href="#DejaVuSans-30" x="254.492188"/>
      </g>
     </g>
    </g>
    <g id="ytick_6">
     <g id="line2d_6">
      <path d="M 53.328125 133.6156 
L 985.303125 133.6156 
" clip-path="url(#p81a88b81b2)" style="fill: none; stroke: #dedede; stroke-linecap: square"/>
     </g>
     <g id="text_13">
      <!-- 50000 -->
      <g transform="translate(20.878125 136.654975) scale(0.08 -0.08)">
       <defs>
        <path id="DejaVuSans-35" d="M 691 4666 
L 3169 4666 
L 3169 4134 
L 1269 4134 
L 1269 2991 
Q 1406 3038 1543 3061 
Q 1681 3084 1819 3084 
Q 2600 3084 3056 2656 
Q 3513 2228 3513 1497 
Q 3513 744 3044 326 
Q 2575 -91 1722 -91 
Q 1428 -91 1123 -41 
Q 819 9 494 109 
L 494 744 
Q 775 591 1075 516 
Q 1375 441 1709 441 
Q 2250 441 2565 725 
Q 2881 1009 2881 1497 
Q 2881 1984 2565 2268 
Q 2250 2553 1709 2553 
Q 1456 2553 1204 2497 
Q 953 2441 691 2322 
L 691 4666 
z
" transform="scale(0.015625)"/>
       </defs>
       <use xlink:href="#DejaVuSans-35"/>
       <use xlink:href="#DejaVuSans-30" x="63.623047"/>
       <use xlink:href="#DejaVuSans-30" x="127.246094"/>
       <use xlink:href="#DejaVuSans-30" x="190.869141"/>
       <use xlink:href="#DejaVuSans-30" x="254.492188"/>
      </g>
     </g>
    </g>
    <g id="ytick_7">
     <g id="line2d_7">
      <path d="M 53.328125 89.69394 
L 985.303125 89.69394 
" clip-path="url(#p81a88b81b2)" style="fill: none; stroke: #dedede; stroke-linecap: square"/>
     </g>
     <g id="text_14">
      <!-- 60000 -->
      <g transform="translate(20.878125 92.733315) scale(0.08 -0.08)">
       <use xlink:href="#DejaVuSans-36"/>
       <use xlink:href="#DejaVuSans-30" x="63.623047"/>
       <use xlink:href="#DejaVuSans-30" x="127.246094"/>
       <use xlink:href="#DejaVuSans-30" x="190.869141"/>
       <use xlink:href="#DejaVuSans-30" x="254.492188"/>
      </g>
     </g>
    </g>
    <g id="ytick_8">
     <g id="line2d_8">
      <path d="M 53.328125 45.77228 
L 985.303125 45.77228 
" clip-path="url(#p81a88b81b2)" style="fill: none; stroke: #dedede; stroke-linecap: square"/>
     </g>
     <g id="text_15">
      <!-- 70000 -->
      <g transform="translate(20.878125 48.811655) scale(0.08 -0.08)">
       <defs>
        <path id="DejaVuSans-37" d="M 525 4666 
L 3525 4666 
L 3525 4397 
L 1831 0 
L 1172 0 
L 2766 4134 
L 525 4134 
L 525 4666 
z
" transform="scale(0.015625)"/>
       </defs>
       <use xlink:href="#DejaVuSans-37"/>
       <use xlink:href="#DejaVuSans-30" x="63.623047"/>
       <use xlink:href="#DejaVuSans-30" x="127.246094"/>
       <use xlink:href="#DejaVuSans-30" x="190.869141"/>
       <use xlink:href="#DejaVuSans-30" x="254.492188"/>
      </g>
     </g>
    </g>
    <g id="text_16">
     <!-- Cumulative mapped-read depth -->
     <g transform="translate(14.798438 274.104744) rotate(-90) scale(0.1 -0.1)">
      <defs>
       <path id="DejaVuSans-43" d="M 4122 4306 
L 4122 3641 
Q 3803 3938 3442 4084 
Q 3081 4231 2675 4231 
Q 1875 4231 1450 3742 
Q 1025 3253 1025 2328 
Q 1025 1406 1450 917 
Q 1875 428 2675 428 
Q 3081 428 3442 575 
Q 3803 722 4122 1019 
L 4122 359 
Q 3791 134 3420 21 
Q 3050 -91 2638 -91 
Q 1578 -91 968 557 
Q 359 1206 359 2328 
Q 359 3453 968 4101 
Q 1578 4750 2638 4750 
Q 3056 4750 3426 4639 
Q 3797 4528 4122 4306 
z
" transform="scale(0.015625)"/>
       <path id="DejaVuSans-75" d="M 544 1381 
L 544 3500 
L 1119 3500 
L 1119 1403 
Q 1119 906 1312 657 
Q 1506 409 1894 409 
Q 2359 409 2629 706 
Q 2900 1003 2900 1516 
L 2900 3500 
L 3475 3500 
L 3475 0 
L 2900 0 
L 2900 538 
Q 2691 219 2414 64 
Q 2138 -91 1772 -91 
Q 1169 -91 856 284 
Q 544 659 544 1381 
z
M 1991 3584 
L 1991 3584 
z
" transform="scale(0.015625)"/>
       <path id="DejaVuSans-6d" d="M 3328 2828 
Q 3544 3216 3844 3400 
Q 4144 3584 4550 3584 
Q 5097 3584 5394 3201 
Q 5691 2819 5691 2113 
L 5691 0 
L 5113 0 
L 5113 2094 
Q 5113 2597 4934 2840 
Q 4756 3084 4391 3084 
Q 3944 3084 3684 2787 
Q 3425 2491 3425 1978 
L 3425 0 
L 2847 0 
L 2847 2094 
Q 2847 2600 2669 2842 
Q 2491 3084 2119 3084 
Q 1678 3084 1418 2786 
Q 1159 2488 1159 1978 
L 1159 0 
L 581 0 
L 581 3500 
L 1159 3500 
L 1159 2956 
Q 1356 3278 1631 3431 
Q 1906 3584 2284 3584 
Q 2666 3584 2933 3390 
Q 3200 3197 3328 2828 
z
" transform="scale(0.015625)"/>
       <path id="DejaVuSans-6c" d="M 603 4863 
L 1178 4863 
L 1178 0 
L 603 0 
L 603 4863 
z
" transform="scale(0.015625)"/>
       <path id="DejaVuSans-76" d="M 191 3500 
L 800 3500 
L 1894 563 
L 2988 3500 
L 3597 3500 
L 2284 0 
L 1503 0 
L 191 3500 
z
" transform="scale(0.015625)"/>
       <path id="DejaVuSans-65" d="M 3597 1894 
L 3597 1613 
L 953 1613 
Q 991 1019 1311 708 
Q 1631 397 2203 397 
Q 2534 397 2845 478 
Q 3156 559 3463 722 
L 3463 178 
Q 3153 47 2828 -22 
Q 2503 -91 2169 -91 
Q 1331 -91 842 396 
Q 353 884 353 1716 
Q 353 2575 817 3079 
Q 1281 3584 2069 3584 
Q 2775 3584 3186 3129 
Q 3597 2675 3597 1894 
z
M 3022 2063 
Q 3016 2534 2758 2815 
Q 2500 3097 2075 3097 
Q 1594 3097 1305 2825 
Q 1016 2553 972 2059 
L 3022 2063 
z
" transform="scale(0.015625)"/>
       <path id="DejaVuSans-64" d="M 2906 2969 
L 2906 4863 
L 3481 4863 
L 3481 0 
L 2906 0 
L 2906 525 
Q 2725 213 2448 61 
Q 2172 -91 1784 -91 
Q 1150 -91 751 415 
Q 353 922 353 1747 
Q 353 2572 751 3078 
Q 1150 3584 1784 3584 
Q 2172 3584 2448 3432 
Q 2725 3281 2906 2969 
z
M 947 1747 
Q 947 1113 1208 752 
Q 1469 391 1925 391 
Q 2381 391 2643 752 
Q 2906 1113 2906 1747 
Q 2906 2381 2643 2742 
Q 2381 3103 1925 3103 
Q 1469 3103 1208 2742 
Q 947 2381 947 1747 
z
" transform="scale(0.015625)"/>
       <path id="DejaVuSans-2d" d="M 313 2009 
L 1997 2009 
L 1997 1497 
L 313 1497 
L 313 2009 
z
" transform="scale(0.015625)"/>
       <path id="DejaVuSans-68" d="M 3513 2113 
L 3513 0 
L 2938 0 
L 2938 2094 
Q 2938 2591 2744 2837 
Q 2550 3084 2163 3084 
Q 1697 3084 1428 2787 
Q 1159 2491 1159 1978 
L 1159 0 
L 581 0 
L 581 4863 
L 1159 4863 
L 1159 2956 
Q 1366 3272 1645 3428 
Q 1925 3584 2291 3584 
Q 2894 3584 3203 3211 
Q 3513 2838 3513 2113 
z
" transform="scale(0.015625)"/>
      </defs>
      <use xlink:href="#DejaVuSans-43"/>
      <use xlink:href="#DejaVuSans-75" x="69.824219"/>
      <use xlink:href="#DejaVuSans-6d" x="133.203125"/>
      <use xlink:href="#DejaVuSans-75" x="230.615234"/>
      <use xlink:href="#DejaVuSans-6c" x="293.994141"/>
      <use xlink:href="#DejaVuSans-61" x="321.777344"/>
      <use xlink:href="#DejaVuSans-74" x="383.056641"/>
      <use xlink:href="#DejaVuSans-69" x="422.265625"/>
      <use xlink:href="#DejaVuSans-76" x="450.048828"/>
      <use xlink:href="#DejaVuSans-65" x="509.228516"/>
      <use xlink:href="#DejaVuSans-20" x="570.751953"/>
      <use xlink:href="#DejaVuSans-6d" x="602.539062"/>
      <use xlink:href="#DejaVuSans-61" x="699.951172"/>
      <use xlink:href="#DejaVuSans-70" x="761.230469"/>
      <use xlink:href="#DejaVuSans-70" x="824.707031"/>
      <use xlink:href="#DejaVuSans-65" x="888.183594"/>
      <use xlink:href="#DejaVuSans-64" x="949.707031"/>
      <use xlink:href="#DejaVuSans-2d" x="1013.183594"/>
      <use xlink:href="#DejaVuSans-72" x="1049.267578"/>
      <use xlink:href="#DejaVuSans-65" x="1088.130859"/>
      <use xlink:href="#DejaVuSans-61" x="1149.654297"/>
      <use xlink:href="#DejaVuSans-64" x="1210.933594"/>
      <use xlink:href="#DejaVuSans-20" x="1274.410156"/>
      <use xlink:href="#DejaVuSans-64" x="1306.197266"/>
      <use xlink:href="#DejaVuSans-65" x="1369.673828"/>
      <use xlink:href="#DejaVuSans-70" x="1431.197266"/>
      <use xlink:href="#DejaVuSans-74" x="1494.673828"/>
      <use xlink:href="#DejaVuSans-68" x="1533.882812"/>
     </g>
    </g>
   </g>
   <g id="line2d_9">
    <path d="M 53.328125 251.112776 
L 62.647875 242.016814 
L 71.967625 233.526098 
L 81.287375 225.406313 
L 90.607125 217.393696 
L 99.926875 208.734059 
L 109.246625 200.258392 
L 118.566375 191.530671 
L 127.886125 184.727047 
L 137.205875 178.496814 
L 146.525625 173.142765 
L 155.845375 164.883975 
L 165.165125 161.374627 
L 174.484875 158.006137 
L 183.804625 154.537593 
L 193.124375 151.982426 
L 202.444125 150.973615 
L 211.763875 148.455039 
L 221.083625 147.676122 
L 230.403375 146.675108 
L 239.723125 145.118631 
L 249.042875 144.239409 
L 258.362625 142.599525 
L 267.682375 140.956535 
L 277.002125 139.747387 
L 286.321875 138.173718 
L 295.641625 135.920603 
L 304.961375 134.869067 
L 314.281125 134.677656 
L 323.600875 134.587631 
L 332.920625 134.387286 
L 342.240375 133.332492 
L 351.560125 132.894992 
L 360.879875 132.908088 
L 370.199625 132.510331 
L 379.519375 132.437047 
L 388.839125 132.486435 
L 398.158875 132.627378 
L 407.478625 133.257553 
L 416.798375 133.384838 
L 426.118125 133.689086 
L 435.437875 134.239782 
L 444.757625 134.311283 
L 454.077375 134.004959 
L 463.397125 134.622077 
L 472.716875 136.337259 
L 482.036625 139.325417 
L 491.356375 139.752347 
L 500.676125 141.188389 
L 509.995875 141.778066 
L 519.315625 141.943698 
L 528.635375 142.474981 
L 537.955125 143.684659 
L 547.274875 144.509706 
L 556.594625 145.68543 
L 565.914375 146.465291 
L 575.234125 147.425513 
L 584.553875 147.721412 
L 593.873625 147.929434 
L 603.193375 149.041137 
L 612.513125 149.14086 
L 621.832875 149.883871 
L 631.152625 150.814189 
L 640.472375 151.598654 
L 649.792125 152.333397 
L 659.111875 154.128333 
L 668.431625 155.640967 
L 677.751375 157.072306 
L 687.071125 158.208026 
L 696.390875 158.685132 
L 705.710625 160.760588 
L 715.030375 161.072588 
L 724.350125 161.408478 
L 733.669875 161.910107 
L 742.989625 162.272354 
L 752.309375 162.78022 
L 761.629125 164.255939 
L 770.948875 165.678394 
L 780.268625 167.245642 
L 789.588375 167.831179 
L 798.908125 169.05896 
L 808.227875 170.724755 
L 817.547625 172.490589 
L 826.867375 174.239776 
L 836.187125 177.129444 
L 845.506875 179.997592 
L 854.826625 184.330986 
L 864.146375 188.292363 
L 873.466125 193.138811 
L 882.785875 199.19799 
L 892.105625 206.578829 
L 901.425375 215.279564 
L 910.745125 224.67365 
L 920.064875 235.216635 
L 929.384625 247.05467 
L 938.704375 259.25063 
L 948.024125 273.993737 
L 957.343875 292.681335 
L 966.663625 315.703215 
L 975.983375 341.049333 
" clip-path="url(#p81a88b81b2)" style="fill: none; stroke: #7cb5ec; stroke-linecap: square"/>
   </g>
   <g id="line2d_10">
    <path d="M 53.328125 331.762448 
L 62.647875 319.884002 
L 71.967625 310.312783 
L 81.287375 298.264094 
L 90.607125 285.582021 
L 99.926875 276.825696 
L 109.246625 268.807716 
L 118.566375 262.715784 
L 127.886125 266.818128 
L 137.205875 271.375276 
L 146.525625 281.150358 
L 155.845375 281.692552 
L 165.165125 276.447509 
L 174.484875 273.715556 
L 183.804625 266.459854 
L 193.124375 261.256795 
L 202.444125 255.913344 
L 211.763875 256.30211 
L 221.083625 252.884719 
L 230.403375 251.516176 
L 239.723125 253.264257 
L 249.042875 259.202695 
L 258.362625 267.052591 
L 267.682375 273.445619 
L 277.002125 275.936719 
L 286.321875 275.766709 
L 295.641625 277.991486 
L 304.961375 274.866206 
L 314.281125 271.96283 
L 323.600875 273.361631 
L 332.920625 263.717203 
L 342.240375 260.671479 
L 351.560125 252.17535 
L 360.879875 246.190355 
L 370.199625 237.910376 
L 379.519375 229.605588 
L 388.839125 216.543726 
L 398.158875 203.00081 
L 407.478625 201.541705 
L 416.798375 199.832439 
L 426.118125 203.395372 
L 435.437875 203.915454 
L 444.757625 205.337119 
L 454.077375 206.305255 
L 463.397125 209.662656 
L 472.716875 213.188032 
L 482.036625 217.054633 
L 491.356375 209.652098 
L 500.676125 202.58586 
L 509.995875 201.167507 
L 519.315625 199.733605 
L 528.635375 207.801606 
L 537.955125 215.817286 
L 547.274875 219.418279 
L 556.594625 229.717226 
L 565.914375 232.45465 
L 575.234125 235.033682 
L 584.553875 235.589686 
L 593.873625 233.854078 
L 603.193375 228.038731 
L 612.513125 231.888529 
L 621.832875 223.542485 
L 631.152625 213.082245 
L 640.472375 215.531249 
L 649.792125 216.404686 
L 659.111875 221.825887 
L 668.431625 224.316074 
L 677.751375 229.33678 
L 687.071125 233.119981 
L 696.390875 228.278345 
L 705.710625 229.079695 
L 715.030375 233.151822 
L 724.350125 234.040611 
L 733.669875 236.571731 
L 742.989625 232.363474 
L 752.309375 231.911621 
L 761.629125 236.485781 
L 770.948875 241.447617 
L 780.268625 243.719654 
L 789.588375 234.71228 
L 798.908125 223.150348 
L 808.227875 207.299515 
L 817.547625 191.210227 
L 826.867375 186.121408 
L 836.187125 197.605506 
L 845.506875 208.135839 
L 854.826625 233.900923 
L 864.146375 272.42571 
L 873.466125 285.864675 
L 882.785875 299.984417 
L 892.105625 308.363976 
L 901.425375 314.936142 
L 910.745125 330.123345 
L 920.064875 327.852758 
L 929.384625 331.45122 
L 938.704375 334.502314 
L 948.024125 340.29445 
L 957.343875 346.27997 
L 966.663625 348.94074 
L 975.983375 351.833445 
" clip-path="url(#p81a88b81b2)" style="fill: none; stroke: #434348; stroke-linecap: square"/>
   </g>
   <g id="line2d_11">
    <path d="M 53.328125 303.305792 
L 62.647875 299.019155 
L 71.967625 294.714327 
L 81.287375 290.435261 
L 90.607125 285.790771 
L 99.926875 281.231288 
L 109.246625 277.032878 
L 118.566375 272.830121 
L 127.886125 269.131084 
L 137.205875 265.944448 
L 146.525625 262.738645 
L 155.845375 257.7862 
L 165.165125 255.504951 
L 174.484875 253.103709 
L 183.804625 250.870451 
L 193.124375 249.05215 
L 202.444125 248.158301 
L 211.763875 246.459186 
L 221.083625 245.680292 
L 230.403375 244.849806 
L 239.723125 243.938213 
L 249.042875 243.360852 
L 258.362625 242.798044 
L 267.682375 241.894639 
L 277.002125 241.2421 
L 286.321875 240.091084 
L 295.641625 238.694488 
L 304.961375 238.051317 
L 314.281125 237.567956 
L 323.600875 237.832852 
L 332.920625 238.029823 
L 342.240375 237.569214 
L 351.560125 237.270211 
L 360.879875 237.369934 
L 370.199625 237.121508 
L 379.519375 236.757636 
L 388.839125 236.289014 
L 398.158875 235.961475 
L 407.478625 236.538068 
L 416.798375 236.887384 
L 426.118125 237.113496 
L 435.437875 237.19737 
L 444.757625 237.030579 
L 454.077375 236.706093 
L 463.397125 236.706787 
L 472.716875 237.946589 
L 482.036625 239.501537 
L 491.356375 239.693904 
L 500.676125 240.492991 
L 509.995875 240.984663 
L 519.315625 241.140606 
L 528.635375 241.812041 
L 537.955125 242.904234 
L 547.274875 243.796229 
L 556.594625 244.680348 
L 565.914375 244.650211 
L 575.234125 244.884833 
L 584.553875 244.757038 
L 593.873625 244.756909 
L 603.193375 245.255601 
L 612.513125 245.533718 
L 621.832875 245.563302 
L 631.152625 245.787209 
L 640.472375 246.098447 
L 649.792125 246.333238 
L 659.111875 247.262891 
L 668.431625 247.549554 
L 677.751375 247.969418 
L 687.071125 248.113963 
L 696.390875 247.840777 
L 705.710625 248.45303 
L 715.030375 248.566559 
L 724.350125 248.567723 
L 733.669875 248.705126 
L 742.989625 248.854436 
L 752.309375 248.953857 
L 761.629125 249.634527 
L 770.948875 250.479231 
L 780.268625 251.491938 
L 789.588375 251.927726 
L 798.908125 252.859165 
L 808.227875 253.587181 
L 817.547625 254.58908 
L 826.867375 255.544915 
L 836.187125 257.022664 
L 845.506875 258.530419 
L 854.826625 261.041397 
L 864.146375 263.188466 
L 873.466125 265.715311 
L 882.785875 268.618223 
L 892.105625 272.406596 
L 901.425375 276.946772 
L 910.745125 282.205454 
L 920.064875 287.763166 
L 929.384625 293.789184 
L 938.704375 300.248891 
L 948.024125 308.170623 
L 957.343875 318.407814 
L 966.663625 331.522654 
L 975.983375 346.239889 
" clip-path="url(#p81a88b81b2)" style="fill: none; stroke: #90ed7d; stroke-linecap: square"/>
   </g>
   <g id="line2d_12">
    <path d="M 53.328125 324.037151 
L 62.647875 296.744801 
L 71.967625 276.286774 
L 81.287375 256.681567 
L 90.607125 233.206774 
L 99.926875 212.247944 
L 109.246625 195.743736 
L 118.566375 183.004901 
L 127.886125 184.300573 
L 137.205875 181.05907 
L 146.525625 191.52521 
L 155.845375 176.095446 
L 165.165125 176.213868 
L 174.484875 172.749872 
L 183.804625 169.89475 
L 193.124375 165.484724 
L 202.444125 174.924764 
L 211.763875 191.844301 
L 221.083625 199.116102 
L 230.403375 196.823211 
L 239.723125 196.249031 
L 249.042875 197.28245 
L 258.362625 198.465468 
L 267.682375 203.550826 
L 277.002125 195.502349 
L 286.321875 190.158408 
L 295.641625 183.560071 
L 304.961375 185.085432 
L 314.281125 184.955659 
L 323.600875 182.336646 
L 332.920625 186.395656 
L 342.240375 196.295221 
L 351.560125 211.234995 
L 360.879875 215.389181 
L 370.199625 215.131324 
L 379.519375 200.023171 
L 388.839125 186.994053 
L 398.158875 174.793631 
L 407.478625 164.710804 
L 416.798375 153.750328 
L 426.118125 153.189992 
L 435.437875 150.702911 
L 444.757625 147.548226 
L 454.077375 159.840662 
L 463.397125 172.192694 
L 472.716875 181.233151 
L 482.036625 191.262996 
L 491.356375 193.884731 
L 500.676125 197.581721 
L 509.995875 209.464056 
L 519.315625 210.372464 
L 528.635375 197.244582 
L 537.955125 191.823083 
L 547.274875 189.445049 
L 556.594625 192.018069 
L 565.914375 198.421977 
L 575.234125 193.533858 
L 584.553875 191.266084 
L 593.873625 192.341699 
L 603.193375 193.821337 
L 612.513125 195.415024 
L 621.832875 192.416547 
L 631.152625 197.311303 
L 640.472375 210.739397 
L 649.792125 221.611158 
L 659.111875 228.565295 
L 668.431625 232.638337 
L 677.751375 225.211953 
L 687.071125 220.791186 
L 696.390875 216.122063 
L 705.710625 211.256349 
L 715.030375 202.752049 
L 724.350125 199.210425 
L 733.669875 203.384968 
L 742.989625 206.235111 
L 752.309375 210.147211 
L 761.629125 212.413248 
L 770.948875 215.117732 
L 780.268625 221.866107 
L 789.588375 227.134775 
L 798.908125 220.868181 
L 808.227875 215.932678 
L 817.547625 207.644036 
L 826.867375 206.297941 
L 836.187125 209.695929 
L 845.506875 213.406001 
L 854.826625 226.681472 
L 864.146375 248.658857 
L 873.466125 263.246307 
L 882.785875 278.277576 
L 892.105625 300.293021 
L 901.425375 312.900806 
L 910.745125 323.27068 
L 920.064875 324.226923 
L 929.384625 327.141292 
L 938.704375 331.469027 
L 948.024125 336.885445 
L 957.343875 342.119981 
L 966.663625 346.656651 
L 975.983375 351.095203 
" clip-path="url(#p81a88b81b2)" style="fill: none; stroke: #f7a35c; stroke-linecap: square"/>
   </g>
   <g id="line2d_13">
    <path d="M 53.328125 265.250756 
L 62.647875 257.163866 
L 71.967625 249.853923 
L 81.287375 243.168921 
L 90.607125 236.110586 
L 99.926875 228.551576 
L 109.246625 221.080356 
L 118.566375 212.162561 
L 127.886125 205.740434 
L 137.205875 199.531137 
L 146.525625 193.796749 
L 155.845375 183.910876 
L 165.165125 180.283615 
L 174.484875 176.49936 
L 183.804625 172.810222 
L 193.124375 170.022441 
L 202.444125 169.041472 
L 211.763875 166.144254 
L 221.083625 163.65245 
L 230.403375 162.255913 
L 239.723125 160.787547 
L 249.042875 159.77962 
L 258.362625 158.539834 
L 267.682375 156.999157 
L 277.002125 156.018794 
L 286.321875 154.597898 
L 295.641625 152.555768 
L 304.961375 151.945726 
L 314.281125 151.515783 
L 323.600875 151.424023 
L 332.920625 150.719298 
L 342.240375 149.60821 
L 351.560125 149.291834 
L 360.879875 149.563427 
L 370.199625 150.218411 
L 379.519375 150.451349 
L 388.839125 150.734227 
L 398.158875 150.897551 
L 407.478625 152.019175 
L 416.798375 152.696985 
L 426.118125 152.921833 
L 435.437875 153.316103 
L 444.757625 152.524403 
L 454.077375 152.314242 
L 463.397125 153.063247 
L 472.716875 154.913861 
L 482.036625 158.320638 
L 491.356375 158.776717 
L 500.676125 160.615322 
L 509.995875 161.706598 
L 519.315625 162.336139 
L 528.635375 163.36867 
L 537.955125 164.99626 
L 547.274875 166.071007 
L 556.594625 167.731866 
L 565.914375 169.011167 
L 575.234125 170.22311 
L 584.553875 170.964089 
L 593.873625 171.975328 
L 603.193375 173.590145 
L 612.513125 174.063097 
L 621.832875 174.682823 
L 631.152625 175.873333 
L 640.472375 177.034753 
L 649.792125 177.685857 
L 659.111875 179.249642 
L 668.431625 180.219424 
L 677.751375 181.573054 
L 687.071125 183.047943 
L 696.390875 183.571803 
L 705.710625 184.998992 
L 715.030375 185.380682 
L 724.350125 185.614182 
L 733.669875 186.157212 
L 742.989625 187.865615 
L 752.309375 189.200665 
L 761.629125 190.572269 
L 770.948875 191.78062 
L 780.268625 193.207674 
L 789.588375 193.746765 
L 798.908125 194.973063 
L 808.227875 196.475919 
L 817.547625 198.676582 
L 826.867375 200.529705 
L 836.187125 203.016696 
L 845.506875 205.50975 
L 854.826625 209.215508 
L 864.146375 212.579652 
L 873.466125 216.735938 
L 882.785875 221.914341 
L 892.105625 228.220139 
L 901.425375 235.825933 
L 910.745125 243.910709 
L 920.064875 253.020856 
L 929.384625 263.105946 
L 938.704375 273.704119 
L 948.024125 286.629027 
L 957.343875 302.669353 
L 966.663625 321.863761 
L 975.983375 343.072124 
" clip-path="url(#p81a88b81b2)" style="fill: none; stroke: #8085e9; stroke-linecap: square"/>
   </g>
   <g id="line2d_14">
    <path d="M 53.328125 260.489398 
L 62.647875 254.266519 
L 71.967625 247.640034 
L 81.287375 241.119518 
L 90.607125 234.042926 
L 99.926875 226.54004 
L 109.246625 219.327379 
L 118.566375 212.544205 
L 127.886125 206.610676 
L 137.205875 200.975957 
L 146.525625 195.544294 
L 155.845375 187.721366 
L 165.165125 184.010456 
L 174.484875 180.580503 
L 183.804625 177.001241 
L 193.124375 173.50595 
L 202.444125 171.002031 
L 211.763875 168.048551 
L 221.083625 166.133935 
L 230.403375 164.488683 
L 239.723125 162.374515 
L 249.042875 160.920806 
L 258.362625 158.963502 
L 267.682375 157.186587 
L 277.002125 155.878374 
L 286.321875 154.276588 
L 295.641625 152.277322 
L 304.961375 151.098024 
L 314.281125 150.436341 
L 323.600875 149.563375 
L 332.920625 148.309858 
L 342.240375 146.818713 
L 351.560125 146.173604 
L 360.879875 145.466886 
L 370.199625 144.475709 
L 379.519375 143.713694 
L 388.839125 143.276213 
L 398.158875 143.007449 
L 407.478625 143.580568 
L 416.798375 143.466573 
L 426.118125 142.94461 
L 435.437875 142.690451 
L 444.757625 141.782261 
L 454.077375 140.803976 
L 463.397125 140.9815 
L 472.716875 141.375218 
L 482.036625 142.799961 
L 491.356375 143.32178 
L 500.676125 145.284107 
L 509.995875 145.893777 
L 519.315625 146.145742 
L 528.635375 146.830967 
L 537.955125 148.026771 
L 547.274875 149.217284 
L 556.594625 150.816632 
L 565.914375 151.857225 
L 575.234125 152.746461 
L 584.553875 153.022435 
L 593.873625 153.435619 
L 603.193375 154.27162 
L 612.513125 154.357158 
L 621.832875 154.584636 
L 631.152625 154.950543 
L 640.472375 155.488962 
L 649.792125 155.783858 
L 659.111875 156.93716 
L 668.431625 157.474356 
L 677.751375 158.234755 
L 687.071125 159.485951 
L 696.390875 159.856063 
L 705.710625 161.275154 
L 715.030375 161.820049 
L 724.350125 161.983784 
L 733.669875 162.409607 
L 742.989625 162.819188 
L 752.309375 163.616686 
L 761.629125 165.41543 
L 770.948875 166.894087 
L 780.268625 168.642449 
L 789.588375 169.4522 
L 798.908125 171.001704 
L 808.227875 172.842205 
L 817.547625 174.551216 
L 826.867375 176.349207 
L 836.187125 179.504256 
L 845.506875 182.321097 
L 854.826625 186.503981 
L 864.146375 190.319386 
L 873.466125 194.938437 
L 882.785875 200.95333 
L 892.105625 208.119153 
L 901.425375 216.864511 
L 910.745125 226.076329 
L 920.064875 236.351928 
L 929.384625 247.810029 
L 938.704375 260.070852 
L 948.024125 275.068351 
L 957.343875 293.305856 
L 966.663625 315.816388 
L 975.983375 340.962099 
" clip-path="url(#p81a88b81b2)" style="fill: none; stroke: #f15c80; stroke-linecap: square"/>
   </g>
   <g id="line2d_15">
    <path d="M 53.328125 260.359823 
L 62.647875 253.505944 
L 71.967625 246.576966 
L 81.287375 239.749207 
L 90.607125 232.470023 
L 99.926875 224.731426 
L 109.246625 217.418992 
L 118.566375 209.834138 
L 127.886125 204.23795 
L 137.205875 198.609014 
L 146.525625 193.33789 
L 155.845375 185.002882 
L 165.165125 181.823605 
L 174.484875 178.691051 
L 183.804625 175.323391 
L 193.124375 172.189623 
L 202.444125 170.208043 
L 211.763875 167.473222 
L 221.083625 166.135449 
L 230.403375 164.632272 
L 239.723125 162.702354 
L 249.042875 161.586047 
L 258.362625 160.066912 
L 267.682375 158.46906 
L 277.002125 157.140365 
L 286.321875 155.666036 
L 295.641625 153.72915 
L 304.961375 153.000778 
L 314.281125 152.586425 
L 323.600875 152.267027 
L 332.920625 151.645108 
L 342.240375 150.235154 
L 351.560125 149.893596 
L 360.879875 149.576621 
L 370.199625 148.802684 
L 379.519375 148.238269 
L 388.839125 147.834986 
L 398.158875 147.687533 
L 407.478625 148.505543 
L 416.798375 148.585759 
L 426.118125 148.531608 
L 435.437875 148.556035 
L 444.757625 147.932979 
L 454.077375 147.528411 
L 463.397125 148.046899 
L 472.716875 149.035784 
L 482.036625 150.918591 
L 491.356375 151.459064 
L 500.676125 153.28478 
L 509.995875 154.043601 
L 519.315625 154.482508 
L 528.635375 155.485571 
L 537.955125 156.686924 
L 547.274875 157.9045 
L 556.594625 159.660525 
L 565.914375 160.909524 
L 575.234125 162.377163 
L 584.553875 162.805097 
L 593.873625 163.218048 
L 603.193375 164.165366 
L 612.513125 164.479652 
L 621.832875 164.94172 
L 631.152625 165.468693 
L 640.472375 165.884947 
L 649.792125 166.348297 
L 659.111875 167.703451 
L 668.431625 168.614632 
L 677.751375 169.654281 
L 687.071125 170.707308 
L 696.390875 171.089601 
L 705.710625 172.349597 
L 715.030375 172.98705 
L 724.350125 173.390798 
L 733.669875 174.053767 
L 742.989625 174.728195 
L 752.309375 175.611376 
L 761.629125 177.535536 
L 770.948875 179.0451 
L 780.268625 180.755321 
L 789.588375 181.702858 
L 798.908125 183.15515 
L 808.227875 185.142735 
L 817.547625 187.338689 
L 826.867375 188.980511 
L 836.187125 191.809969 
L 845.506875 194.452039 
L 854.826625 198.477501 
L 864.146375 202.344553 
L 873.466125 207.011117 
L 882.785875 212.808656 
L 892.105625 219.681999 
L 901.425375 227.70503 
L 910.745125 236.054093 
L 920.064875 245.679114 
L 929.384625 256.647155 
L 938.704375 268.140182 
L 948.024125 281.944234 
L 957.343875 298.654418 
L 966.663625 319.326787 
L 975.983375 342.192319 
" clip-path="url(#p81a88b81b2)" style="fill: none; stroke: #e4d354; stroke-linecap: square"/>
   </g>
   <g id="line2d_16">
    <path d="M 53.328125 294.976396 
L 62.647875 289.765708 
L 71.967625 284.615404 
L 81.287375 279.650018 
L 90.607125 274.249466 
L 99.926875 268.691268 
L 109.246625 263.63869 
L 118.566375 258.510632 
L 127.886125 254.647314 
L 137.205875 251.353387 
L 146.525625 248.345275 
L 155.845375 242.549282 
L 165.165125 240.261805 
L 174.484875 237.644894 
L 183.804625 235.081049 
L 193.124375 232.984773 
L 202.444125 232.246891 
L 211.763875 230.608456 
L 221.083625 229.847587 
L 230.403375 229.204917 
L 239.723125 228.359275 
L 249.042875 227.835205 
L 258.362625 227.312844 
L 267.682375 226.427349 
L 277.002125 225.789451 
L 286.321875 224.899256 
L 295.641625 223.530979 
L 304.961375 223.192159 
L 314.281125 222.882071 
L 323.600875 223.175314 
L 332.920625 223.354523 
L 342.240375 222.810753 
L 351.560125 222.749426 
L 360.879875 222.84711 
L 370.199625 222.849904 
L 379.519375 222.476026 
L 388.839125 222.073825 
L 398.158875 221.798415 
L 407.478625 222.497762 
L 416.798375 222.567749 
L 426.118125 222.580022 
L 435.437875 222.622669 
L 444.757625 222.265764 
L 454.077375 221.82528 
L 463.397125 222.099902 
L 472.716875 223.343504 
L 482.036625 224.873148 
L 491.356375 225.039001 
L 500.676125 225.801027 
L 509.995875 226.349269 
L 519.315625 226.537716 
L 528.635375 226.809717 
L 537.955125 227.79756 
L 547.274875 228.58588 
L 556.594625 229.494903 
L 565.914375 229.672571 
L 575.234125 230.078734 
L 584.553875 230.235294 
L 593.873625 230.378463 
L 603.193375 230.856114 
L 612.513125 230.871149 
L 621.832875 231.112406 
L 631.152625 231.560852 
L 640.472375 231.791159 
L 649.792125 232.072554 
L 659.111875 233.057444 
L 668.431625 233.59097 
L 677.751375 234.227195 
L 687.071125 234.842995 
L 696.390875 234.688851 
L 705.710625 235.396433 
L 715.030375 235.636537 
L 724.350125 235.963872 
L 733.669875 236.424399 
L 742.989625 236.736549 
L 752.309375 237.09793 
L 761.629125 238.158457 
L 770.948875 239.088763 
L 780.268625 240.000044 
L 789.588375 240.654721 
L 798.908125 241.603855 
L 808.227875 242.628386 
L 817.547625 243.617286 
L 826.867375 244.353836 
L 836.187125 245.795687 
L 845.506875 247.476962 
L 854.826625 250.17282 
L 864.146375 252.578902 
L 873.466125 255.507765 
L 882.785875 259.180628 
L 892.105625 263.783076 
L 901.425375 269.075625 
L 910.745125 274.664727 
L 920.064875 280.892094 
L 929.384625 287.878982 
L 938.704375 295.193179 
L 948.024125 304.059714 
L 957.343875 315.512761 
L 966.663625 329.839379 
L 975.983375 345.728901 
" clip-path="url(#p81a88b81b2)" style="fill: none; stroke: #2b908f; stroke-linecap: square"/>
   </g>
   <g id="line2d_17">
    <path d="M 53.328125 300.871041 
L 62.647875 296.120955 
L 71.967625 291.579021 
L 81.287375 287.445438 
L 90.607125 283.126519 
L 99.926875 278.839709 
L 109.246625 274.877005 
L 118.566375 270.75967 
L 127.886125 267.526964 
L 137.205875 264.469378 
L 146.525625 261.776323 
L 155.845375 257.042236 
L 165.165125 254.968511 
L 174.484875 252.850202 
L 183.804625 250.845018 
L 193.124375 249.22881 
L 202.444125 248.520621 
L 211.763875 246.900894 
L 221.083625 246.310932 
L 230.403375 245.82707 
L 239.723125 245.190739 
L 249.042875 244.799851 
L 258.362625 244.411111 
L 267.682375 243.976721 
L 277.002125 243.605303 
L 286.321875 242.935192 
L 295.641625 241.948095 
L 304.961375 241.83446 
L 314.281125 241.720961 
L 323.600875 241.906832 
L 332.920625 241.932095 
L 342.240375 241.436309 
L 351.560125 241.251594 
L 360.879875 241.385413 
L 370.199625 241.592095 
L 379.519375 241.391974 
L 388.839125 241.429137 
L 398.158875 241.709659 
L 407.478625 242.446156 
L 416.798375 242.917535 
L 426.118125 243.18143 
L 435.437875 243.316932 
L 444.757625 242.922593 
L 454.077375 242.613117 
L 463.397125 242.672781 
L 472.716875 243.303531 
L 482.036625 244.426127 
L 491.356375 244.504667 
L 500.676125 245.212853 
L 509.995875 245.590738 
L 519.315625 245.870825 
L 528.635375 246.407885 
L 537.955125 247.279417 
L 547.274875 247.875768 
L 556.594625 248.922677 
L 565.914375 249.266124 
L 575.234125 249.739492 
L 584.553875 249.913356 
L 593.873625 250.13727 
L 603.193375 250.772455 
L 612.513125 250.83433 
L 621.832875 250.694148 
L 631.152625 251.09375 
L 640.472375 251.456973 
L 649.792125 251.890499 
L 659.111875 252.882408 
L 668.431625 253.23308 
L 677.751375 253.743623 
L 687.071125 254.122859 
L 696.390875 254.22186 
L 705.710625 254.707021 
L 715.030375 254.806657 
L 724.350125 254.942085 
L 733.669875 255.414311 
L 742.989625 255.739828 
L 752.309375 255.935322 
L 761.629125 256.661506 
L 770.948875 257.489193 
L 780.268625 258.550622 
L 789.588375 258.833644 
L 798.908125 259.435138 
L 808.227875 260.178556 
L 817.547625 261.032168 
L 826.867375 261.962994 
L 836.187125 263.555717 
L 845.506875 264.946588 
L 854.826625 266.890393 
L 864.146375 268.665868 
L 873.466125 270.858948 
L 882.785875 273.807361 
L 892.105625 277.358925 
L 901.425375 282.016974 
L 910.745125 286.916368 
L 920.064875 292.100263 
L 929.384625 298.006333 
L 938.704375 304.423796 
L 948.024125 312.134988 
L 957.343875 321.827591 
L 966.663625 333.72701 
L 975.983375 346.915133 
" clip-path="url(#p81a88b81b2)" style="fill: none; stroke: #f45b5b; stroke-linecap: square"/>
   </g>
   <g id="line2d_18">
    <path d="M 53.328125 225.531441 
L 62.647875 214.989846 
L 71.967625 204.993805 
L 81.287375 195.126318 
L 90.607125 184.573208 
L 99.926875 173.477792 
L 109.246625 162.92926 
L 118.566375 151.820474 
L 127.886125 143.448272 
L 137.205875 135.651993 
L 146.525625 128.866784 
L 155.845375 117.094494 
L 165.165125 112.189105 
L 174.484875 107.021246 
L 183.804625 102.127061 
L 193.124375 97.508262 
L 202.444125 95.200176 
L 211.763875 91.725118 
L 221.083625 90.39315 
L 230.403375 89.045146 
L 239.723125 87.158403 
L 249.042875 85.695801 
L 258.362625 83.880224 
L 267.682375 81.538379 
L 277.002125 79.54476 
L 286.321875 77.261815 
L 295.641625 74.296218 
L 304.961375 73.137551 
L 314.281125 72.406735 
L 323.600875 72.389569 
L 332.920625 72.324486 
L 342.240375 70.962393 
L 351.560125 70.350894 
L 360.879875 69.896847 
L 370.199625 69.259743 
L 379.519375 68.232358 
L 388.839125 67.61387 
L 398.158875 67.500644 
L 407.478625 68.582485 
L 416.798375 68.481923 
L 426.118125 68.484559 
L 435.437875 68.777926 
L 444.757625 68.214182 
L 454.077375 67.96532 
L 463.397125 69.072515 
L 472.716875 71.177864 
L 482.036625 73.962651 
L 491.356375 73.916414 
L 500.676125 75.629244 
L 509.995875 76.311704 
L 519.315625 76.342472 
L 528.635375 76.680498 
L 537.955125 77.968919 
L 547.274875 79.121703 
L 556.594625 80.933014 
L 565.914375 81.858567 
L 575.234125 83.372193 
L 584.553875 84.047267 
L 593.873625 84.45506 
L 603.193375 85.487465 
L 612.513125 85.750891 
L 621.832875 86.575689 
L 631.152625 88.161684 
L 640.472375 88.923488 
L 649.792125 89.620274 
L 659.111875 91.319274 
L 668.431625 92.21356 
L 677.751375 93.505894 
L 687.071125 94.954294 
L 696.390875 95.215718 
L 705.710625 96.775341 
L 715.030375 97.220965 
L 724.350125 98.009877 
L 733.669875 99.100651 
L 742.989625 99.910904 
L 752.309375 100.900445 
L 761.629125 102.983018 
L 770.948875 104.262939 
L 780.268625 106.20049 
L 789.588375 107.219254 
L 798.908125 109.055078 
L 808.227875 111.21882 
L 817.547625 113.902321 
L 826.867375 116.597236 
L 836.187125 120.395751 
L 845.506875 124.397898 
L 854.826625 130.045785 
L 864.146375 135.594056 
L 873.466125 142.361079 
L 882.785875 150.945625 
L 892.105625 161.019787 
L 901.425375 172.895494 
L 910.745125 185.62847 
L 920.064875 199.675246 
L 929.384625 215.391395 
L 938.704375 231.741219 
L 948.024125 251.286111 
L 957.343875 275.850576 
L 966.663625 305.121932 
L 975.983375 337.555609 
" clip-path="url(#p81a88b81b2)" style="fill: none; stroke: #91e8e1; stroke-linecap: square"/>
   </g>
   <g id="line2d_19">
    <path d="M 53.328125 212.738037 
L 62.647875 201.514357 
L 71.967625 190.305676 
L 81.287375 179.535472 
L 90.607125 168.148909 
L 99.926875 156.3369 
L 109.246625 144.956492 
L 118.566375 133.652978 
L 127.886125 124.50134 
L 137.205875 116.153315 
L 146.525625 109.12229 
L 155.845375 98.178584 
L 165.165125 93.003929 
L 174.484875 87.841015 
L 183.804625 82.84821 
L 193.124375 78.334607 
L 202.444125 75.966876 
L 211.763875 72.186504 
L 221.083625 70.34282 
L 230.403375 68.70371 
L 239.723125 67.164572 
L 249.042875 66.138041 
L 258.362625 64.994827 
L 267.682375 63.037794 
L 277.002125 61.572088 
L 286.321875 59.52872 
L 295.641625 56.472487 
L 304.961375 55.632143 
L 314.281125 54.806645 
L 323.600875 54.780428 
L 332.920625 54.649989 
L 342.240375 53.239183 
L 351.560125 53.186414 
L 360.879875 53.28289 
L 370.199625 52.598314 
L 379.519375 51.58477 
L 388.839125 51.422288 
L 398.158875 51.677241 
L 407.478625 52.922919 
L 416.798375 52.591186 
L 426.118125 52.390565 
L 435.437875 52.402674 
L 444.757625 51.203129 
L 454.077375 50.331021 
L 463.397125 51.250661 
L 472.716875 52.544088 
L 482.036625 55.556134 
L 491.356375 56.09821 
L 500.676125 58.163975 
L 509.995875 58.941196 
L 519.315625 59.311222 
L 528.635375 60.549664 
L 537.955125 62.212534 
L 547.274875 63.951407 
L 556.594625 66.423111 
L 565.914375 67.791012 
L 575.234125 69.589704 
L 584.553875 70.442533 
L 593.873625 71.235265 
L 603.193375 72.57541 
L 612.513125 73.306978 
L 621.832875 74.137007 
L 631.152625 76.039101 
L 640.472375 77.100751 
L 649.792125 78.265273 
L 659.111875 80.524524 
L 668.431625 82.034418 
L 677.751375 83.899383 
L 687.071125 85.674638 
L 696.390875 85.989155 
L 705.710625 87.538288 
L 715.030375 88.042083 
L 724.350125 88.654347 
L 733.669875 89.645727 
L 742.989625 90.356168 
L 752.309375 91.443378 
L 761.629125 93.696063 
L 770.948875 95.16517 
L 780.268625 97.324252 
L 789.588375 98.148685 
L 798.908125 99.911592 
L 808.227875 102.31798 
L 817.547625 104.678613 
L 826.867375 106.965852 
L 836.187125 111.210799 
L 845.506875 115.246999 
L 854.826625 121.2545 
L 864.146375 127.118355 
L 873.466125 134.245457 
L 882.785875 142.875581 
L 892.105625 153.628112 
L 901.425375 166.463369 
L 910.745125 180.320211 
L 920.064875 195.02269 
L 929.384625 211.418011 
L 938.704375 228.647806 
L 948.024125 248.855604 
L 957.343875 274.006483 
L 966.663625 303.76793 
L 975.983375 336.901734 
" clip-path="url(#p81a88b81b2)" style="fill: none; stroke: #7cb5ec; stroke-linecap: square"/>
   </g>
   <g id="line2d_20">
    <path d="M 53.328125 259.218908 
L 62.647875 248.198087 
L 71.967625 237.77912 
L 81.287375 227.412105 
L 90.607125 216.207925 
L 99.926875 206.199963 
L 109.246625 196.819614 
L 118.566375 188.133799 
L 127.886125 183.984967 
L 137.205875 179.978569 
L 146.525625 177.918912 
L 155.845375 170.892576 
L 165.165125 165.933639 
L 174.484875 161.551588 
L 183.804625 155.89937 
L 193.124375 151.641383 
L 202.444125 149.315726 
L 211.763875 147.348115 
L 221.083625 145.442138 
L 230.403375 144.882706 
L 239.723125 144.571389 
L 249.042875 146.01184 
L 258.362625 148.026188 
L 267.682375 148.734455 
L 277.002125 148.515841 
L 286.321875 146.946692 
L 295.641625 145.254994 
L 304.961375 143.688507 
L 314.281125 142.287747 
L 323.600875 142.534231 
L 332.920625 140.121801 
L 342.240375 137.862472 
L 351.560125 134.311115 
L 360.879875 131.886705 
L 370.199625 128.454567 
L 379.519375 125.65206 
L 388.839125 121.461025 
L 398.158875 118.4873 
L 407.478625 119.162684 
L 416.798375 120.409014 
L 426.118125 122.23715 
L 435.437875 122.628057 
L 444.757625 122.973981 
L 454.077375 122.10026 
L 463.397125 123.151294 
L 472.716875 123.822409 
L 482.036625 126.443814 
L 491.356375 124.745088 
L 500.676125 124.183863 
L 509.995875 123.839643 
L 519.315625 122.89683 
L 528.635375 125.711229 
L 537.955125 128.986902 
L 547.274875 130.97452 
L 556.594625 135.444329 
L 565.914375 137.198584 
L 575.234125 139.025592 
L 584.553875 139.711664 
L 593.873625 140.085328 
L 603.193375 140.37388 
L 612.513125 142.920433 
L 621.832875 140.959249 
L 631.152625 139.254066 
L 640.472375 139.551354 
L 649.792125 139.279092 
L 659.111875 142.028163 
L 668.431625 142.665015 
L 677.751375 144.963378 
L 687.071125 147.359063 
L 696.390875 146.666616 
L 705.710625 147.627284 
L 715.030375 150.200155 
L 724.350125 151.015135 
L 733.669875 151.598034 
L 742.989625 151.206241 
L 752.309375 150.935778 
L 761.629125 153.659001 
L 770.948875 155.534033 
L 780.268625 156.965986 
L 789.588375 154.542313 
L 798.908125 151.241083 
L 808.227875 147.050477 
L 817.547625 142.708114 
L 826.867375 143.190254 
L 836.187125 150.263552 
L 845.506875 158.557027 
L 854.826625 170.986019 
L 864.146375 186.467403 
L 873.466125 194.886661 
L 882.785875 204.491998 
L 892.105625 214.285131 
L 901.425375 224.759377 
L 910.745125 237.957056 
L 920.064875 246.793198 
L 929.384625 257.436447 
L 938.704375 268.43676 
L 948.024125 282.338591 
L 957.343875 300.435929 
L 966.663625 320.376275 
L 975.983375 342.547122 
" clip-path="url(#p81a88b81b2)" style="fill: none; stroke: #434348; stroke-linecap: square"/>
   </g>
   <g id="line2d_21">
    <path d="M 53.328125 337.269815 
L 62.647875 335.774539 
L 71.967625 334.247331 
L 81.287375 332.528883 
L 90.607125 330.433588 
L 99.926875 328.873887 
L 109.246625 327.572759 
L 118.566375 326.554766 
L 127.886125 325.360939 
L 137.205875 324.179927 
L 146.525625 322.955182 
L 155.845375 320.829727 
L 165.165125 319.846523 
L 174.484875 318.548815 
L 183.804625 317.809929 
L 193.124375 316.960727 
L 202.444125 316.368078 
L 211.763875 315.85301 
L 221.083625 315.50125 
L 230.403375 315.500853 
L 239.723125 315.480225 
L 249.042875 315.332687 
L 258.362625 315.110059 
L 267.682375 314.777329 
L 277.002125 314.517446 
L 286.321875 314.076898 
L 295.641625 313.559917 
L 304.961375 313.353613 
L 314.281125 313.080265 
L 323.600875 313.094874 
L 332.920625 313.042444 
L 342.240375 312.827785 
L 351.560125 312.601091 
L 360.879875 312.525785 
L 370.199625 312.339892 
L 379.519375 311.795845 
L 388.839125 311.186341 
L 398.158875 310.887785 
L 407.478625 310.94286 
L 416.798375 311.396958 
L 426.118125 311.70699 
L 435.437875 312.090842 
L 444.757625 312.344356 
L 454.077375 312.553656 
L 463.397125 312.566594 
L 472.716875 313.005872 
L 482.036625 313.82802 
L 491.356375 313.987312 
L 500.676125 314.351329 
L 509.995875 314.629721 
L 519.315625 314.880605 
L 528.635375 315.178759 
L 537.955125 315.627393 
L 547.274875 315.936351 
L 556.594625 316.297704 
L 565.914375 316.084918 
L 575.234125 315.823918 
L 584.553875 314.88017 
L 593.873625 314.428208 
L 603.193375 314.627585 
L 612.513125 315.725914 
L 621.832875 316.064331 
L 631.152625 316.11948 
L 640.472375 316.410028 
L 649.792125 316.605006 
L 659.111875 317.097544 
L 668.431625 317.329331 
L 677.751375 317.36997 
L 687.071125 317.423568 
L 696.390875 317.292094 
L 705.710625 317.32255 
L 715.030375 317.269664 
L 724.350125 317.214596 
L 733.669875 317.330129 
L 742.989625 317.297432 
L 752.309375 317.338964 
L 761.629125 317.534403 
L 770.948875 317.847806 
L 780.268625 318.21314 
L 789.588375 318.323664 
L 798.908125 318.516178 
L 808.227875 318.699747 
L 817.547625 318.943494 
L 826.867375 319.431703 
L 836.187125 320.132678 
L 845.506875 320.713038 
L 854.826625 321.566615 
L 864.146375 322.057438 
L 873.466125 322.499196 
L 882.785875 322.620014 
L 892.105625 323.685319 
L 901.425375 325.27273 
L 910.745125 328.225699 
L 920.064875 330.147342 
L 929.384625 332.166898 
L 938.704375 334.289877 
L 948.024125 337.015355 
L 957.343875 340.766548 
L 966.663625 345.550014 
L 975.983375 350.8169 
" clip-path="url(#p81a88b81b2)" style="fill: none; stroke: #90ed7d; stroke-linecap: square"/>
   </g>
   <g id="line2d_22">
    <path d="M 53.328125 291.464859 
L 62.647875 286.639681 
L 71.967625 281.502114 
L 81.287375 276.591019 
L 90.607125 271.378385 
L 99.926875 265.859278 
L 109.246625 260.610422 
L 118.566375 255.78301 
L 127.886125 251.50677 
L 137.205875 247.677995 
L 146.525625 244.418962 
L 155.845375 239.90965 
L 165.165125 237.503216 
L 174.484875 235.056776 
L 183.804625 232.704328 
L 193.124375 230.711882 
L 202.444125 229.799872 
L 211.763875 228.098442 
L 221.083625 227.287334 
L 230.403375 226.630397 
L 239.723125 225.687304 
L 249.042875 224.93413 
L 258.362625 224.099889 
L 267.682375 223.011108 
L 277.002125 222.167396 
L 286.321875 221.039697 
L 295.641625 219.659846 
L 304.961375 218.940595 
L 314.281125 218.552349 
L 323.600875 218.37285 
L 332.920625 218.180722 
L 342.240375 217.550619 
L 351.560125 217.066231 
L 360.879875 216.704589 
L 370.199625 216.119874 
L 379.519375 215.599538 
L 388.839125 215.158514 
L 398.158875 214.895419 
L 407.478625 215.259236 
L 416.798375 215.224189 
L 426.118125 215.227841 
L 435.437875 215.28711 
L 444.757625 215.026211 
L 454.077375 214.596828 
L 463.397125 214.764974 
L 472.716875 215.382921 
L 482.036625 216.296977 
L 491.356375 216.289508 
L 500.676125 216.978968 
L 509.995875 217.200408 
L 519.315625 217.298729 
L 528.635375 217.813164 
L 537.955125 218.594705 
L 547.274875 219.088468 
L 556.594625 219.785824 
L 565.914375 220.103012 
L 575.234125 220.505645 
L 584.553875 220.576644 
L 593.873625 220.627776 
L 603.193375 220.927007 
L 612.513125 221.036775 
L 621.832875 221.175304 
L 631.152625 221.343905 
L 640.472375 221.507329 
L 649.792125 221.722857 
L 659.111875 222.520309 
L 668.431625 222.796648 
L 677.751375 223.351209 
L 687.071125 223.818033 
L 696.390875 223.773338 
L 705.710625 224.464498 
L 715.030375 224.706464 
L 724.350125 224.79889 
L 733.669875 224.999187 
L 742.989625 225.063803 
L 752.309375 225.202132 
L 761.629125 226.003654 
L 770.948875 226.706647 
L 780.268625 227.437661 
L 789.588375 227.848344 
L 798.908125 228.831033 
L 808.227875 229.994411 
L 817.547625 231.034099 
L 826.867375 232.056847 
L 836.187125 233.824527 
L 845.506875 235.546895 
L 854.826625 238.313207 
L 864.146375 240.90742 
L 873.466125 244.064834 
L 882.785875 248.00193 
L 892.105625 252.77298 
L 901.425375 258.659024 
L 910.745125 264.948292 
L 920.064875 272.004441 
L 929.384625 279.789679 
L 938.704375 288.106399 
L 948.024125 298.335315 
L 957.343875 311.242337 
L 966.663625 327.153256 
L 975.983375 344.735152 
" clip-path="url(#p81a88b81b2)" style="fill: none; stroke: #f7a35c; stroke-linecap: square"/>
   </g>
   <g id="line2d_23">
    <path d="M 53.328125 302.662697 
L 62.647875 291.59888 
L 71.967625 282.212603 
L 81.287375 273.587389 
L 90.607125 263.045851 
L 99.926875 252.615824 
L 109.246625 244.702572 
L 118.566375 238.258118 
L 127.886125 236.589824 
L 137.205875 234.556533 
L 146.525625 237.524285 
L 155.845375 228.232452 
L 165.165125 226.373158 
L 174.484875 223.440776 
L 183.804625 220.117195 
L 193.124375 216.682189 
L 202.444125 217.286622 
L 211.763875 220.800881 
L 221.083625 219.984984 
L 230.403375 221.469584 
L 239.723125 221.77039 
L 249.042875 223.773335 
L 258.362625 225.96175 
L 267.682375 228.613902 
L 277.002125 228.129715 
L 286.321875 227.58066 
L 295.641625 225.75824 
L 304.961375 226.367655 
L 314.281125 226.205841 
L 323.600875 225.119218 
L 332.920625 225.896209 
L 342.240375 227.15565 
L 351.560125 229.225767 
L 360.879875 229.760787 
L 370.199625 229.924319 
L 379.519375 222.339146 
L 388.839125 218.654268 
L 398.158875 215.34256 
L 407.478625 213.255708 
L 416.798375 211.283733 
L 426.118125 212.749722 
L 435.437875 213.036794 
L 444.757625 213.343636 
L 454.077375 217.56121 
L 463.397125 221.628146 
L 472.716875 224.113174 
L 482.036625 227.193468 
L 491.356375 228.109638 
L 500.676125 230.4822 
L 509.995875 234.00185 
L 519.315625 233.935214 
L 528.635375 228.840544 
L 537.955125 229.058673 
L 547.274875 229.996761 
L 556.594625 231.227752 
L 565.914375 232.464625 
L 575.234125 231.675088 
L 584.553875 230.925553 
L 593.873625 229.96976 
L 603.193375 230.17155 
L 612.513125 230.727122 
L 621.832875 230.27383 
L 631.152625 231.136425 
L 640.472375 234.037129 
L 649.792125 236.554249 
L 659.111875 239.26897 
L 668.431625 240.329748 
L 677.751375 235.901602 
L 687.071125 235.039316 
L 696.390875 234.218793 
L 705.710625 233.663627 
L 715.030375 232.661416 
L 724.350125 232.764893 
L 733.669875 234.880511 
L 742.989625 237.354229 
L 752.309375 240.35049 
L 761.629125 242.624917 
L 770.948875 243.675919 
L 780.268625 245.244868 
L 789.588375 245.118687 
L 798.908125 239.772512 
L 808.227875 234.020309 
L 817.547625 229.775027 
L 826.867375 230.803325 
L 836.187125 236.44878 
L 845.506875 243.264137 
L 854.826625 251.710498 
L 864.146375 263.031782 
L 873.466125 268.480295 
L 882.785875 273.068941 
L 892.105625 278.818651 
L 901.425375 284.402505 
L 910.745125 289.711741 
L 920.064875 294.571033 
L 929.384625 300.24454 
L 938.704375 306.330905 
L 948.024125 313.901345 
L 957.343875 323.15852 
L 966.663625 334.466277 
L 975.983375 347.107419 
" clip-path="url(#p81a88b81b2)" style="fill: none; stroke: #8085e9; stroke-linecap: square"/>
   </g>
   <g id="line2d_24">
    <path d="M 53.328125 272.648759 
L 62.647875 266.43159 
L 71.967625 260.247923 
L 81.287375 254.186479 
L 90.607125 247.882859 
L 99.926875 241.43803 
L 109.246625 235.303064 
L 118.566375 229.130017 
L 127.886125 224.387676 
L 137.205875 219.9048 
L 146.525625 215.676003 
L 155.845375 208.52803 
L 165.165125 205.572501 
L 174.484875 202.666809 
L 183.804625 199.747601 
L 193.124375 197.017656 
L 202.444125 195.168975 
L 211.763875 192.520383 
L 221.083625 190.321729 
L 230.403375 189.163461 
L 239.723125 187.912095 
L 249.042875 187.002355 
L 258.362625 186.036721 
L 267.682375 185.035494 
L 277.002125 183.942486 
L 286.321875 182.645967 
L 295.641625 181.180139 
L 304.961375 181.000752 
L 314.281125 180.667719 
L 323.600875 180.470361 
L 332.920625 180.329966 
L 342.240375 179.469402 
L 351.560125 179.337571 
L 360.879875 179.467013 
L 370.199625 179.716221 
L 379.519375 179.206834 
L 388.839125 179.054083 
L 398.158875 178.947217 
L 407.478625 179.701638 
L 416.798375 179.869168 
L 426.118125 179.588669 
L 435.437875 179.665693 
L 444.757625 179.234996 
L 454.077375 178.762028 
L 463.397125 179.288853 
L 472.716875 180.179293 
L 482.036625 182.040313 
L 491.356375 182.597997 
L 500.676125 183.921247 
L 509.995875 184.461245 
L 519.315625 184.464911 
L 528.635375 184.894154 
L 537.955125 185.979871 
L 547.274875 186.897417 
L 556.594625 188.052418 
L 565.914375 188.366863 
L 575.234125 189.268461 
L 584.553875 189.455929 
L 593.873625 189.895594 
L 603.193375 190.796341 
L 612.513125 190.738797 
L 621.832875 190.825805 
L 631.152625 191.115129 
L 640.472375 191.72638 
L 649.792125 192.250041 
L 659.111875 193.626737 
L 668.431625 194.331038 
L 677.751375 194.952966 
L 687.071125 195.801279 
L 696.390875 196.02668 
L 705.710625 196.913628 
L 715.030375 197.129263 
L 724.350125 197.493161 
L 733.669875 198.212388 
L 742.989625 198.811046 
L 752.309375 199.49696 
L 761.629125 200.940323 
L 770.948875 201.854498 
L 780.268625 203.032595 
L 789.588375 203.826706 
L 798.908125 204.983044 
L 808.227875 206.115223 
L 817.547625 207.51313 
L 826.867375 209.12061 
L 836.187125 211.552071 
L 845.506875 214.048321 
L 854.826625 217.404181 
L 864.146375 220.520472 
L 873.466125 224.327371 
L 882.785875 229.285403 
L 892.105625 235.346247 
L 901.425375 242.506066 
L 910.745125 250.205445 
L 920.064875 258.541865 
L 929.384625 267.522808 
L 938.704375 277.164889 
L 948.024125 289.234024 
L 957.343875 304.483397 
L 966.663625 322.81189 
L 975.983375 343.376364 
" clip-path="url(#p81a88b81b2)" style="fill: none; stroke: #f15c80; stroke-linecap: square"/>
   </g>
   <g id="line2d_25">
    <path d="M 53.328125 353.2239 
L 985.303125 353.2239 
" clip-path="url(#p81a88b81b2)" style="fill: none; stroke: #dedede; stroke-width: 2; stroke-linecap: square"/>
   </g>
   <g id="text_17">
    <!-- Qualimap RNAseq: Coverage Profile Along Genes (total) -->
    <g transform="translate(295.934375 19.3575) scale(0.16 -0.16)">
     <defs>
      <path id="DejaVuSans-51" d="M 2522 4238 
Q 1834 4238 1429 3725 
Q 1025 3213 1025 2328 
Q 1025 1447 1429 934 
Q 1834 422 2522 422 
Q 3209 422 3611 934 
Q 4013 1447 4013 2328 
Q 4013 3213 3611 3725 
Q 3209 4238 2522 4238 
z
M 3406 84 
L 4238 -825 
L 3475 -825 
L 2784 -78 
Q 2681 -84 2626 -87 
Q 2572 -91 2522 -91 
Q 1538 -91 948 567 
Q 359 1225 359 2328 
Q 359 3434 948 4092 
Q 1538 4750 2522 4750 
Q 3503 4750 4090 4092 
Q 4678 3434 4678 2328 
Q 4678 1516 4351 937 
Q 4025 359 3406 84 
z
" transform="scale(0.015625)"/>
      <path id="DejaVuSans-52" d="M 2841 2188 
Q 3044 2119 3236 1894 
Q 3428 1669 3622 1275 
L 4263 0 
L 3584 0 
L 2988 1197 
Q 2756 1666 2539 1819 
Q 2322 1972 1947 1972 
L 1259 1972 
L 1259 0 
L 628 0 
L 628 4666 
L 2053 4666 
Q 2853 4666 3247 4331 
Q 3641 3997 3641 3322 
Q 3641 2881 3436 2590 
Q 3231 2300 2841 2188 
z
M 1259 4147 
L 1259 2491 
L 2053 2491 
Q 2509 2491 2742 2702 
Q 2975 2913 2975 3322 
Q 2975 3731 2742 3939 
Q 2509 4147 2053 4147 
L 1259 4147 
z
" transform="scale(0.015625)"/>
      <path id="DejaVuSans-4e" d="M 628 4666 
L 1478 4666 
L 3547 763 
L 3547 4666 
L 4159 4666 
L 4159 0 
L 3309 0 
L 1241 3903 
L 1241 0 
L 628 0 
L 628 4666 
z
" transform="scale(0.015625)"/>
      <path id="DejaVuSans-41" d="M 2188 4044 
L 1331 1722 
L 3047 1722 
L 2188 4044 
z
M 1831 4666 
L 2547 4666 
L 4325 0 
L 3669 0 
L 3244 1197 
L 1141 1197 
L 716 0 
L 50 0 
L 1831 4666 
z
" transform="scale(0.015625)"/>
      <path id="DejaVuSans-71" d="M 947 1747 
Q 947 1113 1208 752 
Q 1469 391 1925 391 
Q 2381 391 2643 752 
Q 2906 1113 2906 1747 
Q 2906 2381 2643 2742 
Q 2381 3103 1925 3103 
Q 1469 3103 1208 2742 
Q 947 2381 947 1747 
z
M 2906 525 
Q 2725 213 2448 61 
Q 2172 -91 1784 -91 
Q 1150 -91 751 415 
Q 353 922 353 1747 
Q 353 2572 751 3078 
Q 1150 3584 1784 3584 
Q 2172 3584 2448 3432 
Q 2725 3281 2906 2969 
L 2906 3500 
L 3481 3500 
L 3481 -1331 
L 2906 -1331 
L 2906 525 
z
" transform="scale(0.015625)"/>
      <path id="DejaVuSans-3a" d="M 750 794 
L 1409 794 
L 1409 0 
L 750 0 
L 750 794 
z
M 750 3309 
L 1409 3309 
L 1409 2516 
L 750 2516 
L 750 3309 
z
" transform="scale(0.015625)"/>
      <path id="DejaVuSans-67" d="M 2906 1791 
Q 2906 2416 2648 2759 
Q 2391 3103 1925 3103 
Q 1463 3103 1205 2759 
Q 947 2416 947 1791 
Q 947 1169 1205 825 
Q 1463 481 1925 481 
Q 2391 481 2648 825 
Q 2906 1169 2906 1791 
z
M 3481 434 
Q 3481 -459 3084 -895 
Q 2688 -1331 1869 -1331 
Q 1566 -1331 1297 -1286 
Q 1028 -1241 775 -1147 
L 775 -588 
Q 1028 -725 1275 -790 
Q 1522 -856 1778 -856 
Q 2344 -856 2625 -561 
Q 2906 -266 2906 331 
L 2906 616 
Q 2728 306 2450 153 
Q 2172 0 1784 0 
Q 1141 0 747 490 
Q 353 981 353 1791 
Q 353 2603 747 3093 
Q 1141 3584 1784 3584 
Q 2172 3584 2450 3431 
Q 2728 3278 2906 2969 
L 2906 3500 
L 3481 3500 
L 3481 434 
z
" transform="scale(0.015625)"/>
      <path id="DejaVuSans-66" d="M 2375 4863 
L 2375 4384 
L 1825 4384 
Q 1516 4384 1395 4259 
Q 1275 4134 1275 3809 
L 1275 3500 
L 2222 3500 
L 2222 3053 
L 1275 3053 
L 1275 0 
L 697 0 
L 697 3053 
L 147 3053 
L 147 3500 
L 697 3500 
L 697 3744 
Q 697 4328 969 4595 
Q 1241 4863 1831 4863 
L 2375 4863 
z
" transform="scale(0.015625)"/>
      <path id="DejaVuSans-47" d="M 3809 666 
L 3809 1919 
L 2778 1919 
L 2778 2438 
L 4434 2438 
L 4434 434 
Q 4069 175 3628 42 
Q 3188 -91 2688 -91 
Q 1594 -91 976 548 
Q 359 1188 359 2328 
Q 359 3472 976 4111 
Q 1594 4750 2688 4750 
Q 3144 4750 3555 4637 
Q 3966 4525 4313 4306 
L 4313 3634 
Q 3963 3931 3569 4081 
Q 3175 4231 2741 4231 
Q 1884 4231 1454 3753 
Q 1025 3275 1025 2328 
Q 1025 1384 1454 906 
Q 1884 428 2741 428 
Q 3075 428 3337 486 
Q 3600 544 3809 666 
z
" transform="scale(0.015625)"/>
     </defs>
     <use xlink:href="#DejaVuSans-51"/>
     <use xlink:href="#DejaVuSans-75" x="78.710938"/>
     <use xlink:href="#DejaVuSans-61" x="142.089844"/>
     <use xlink:href="#DejaVuSans-6c" x="203.369141"/>
     <use xlink:href="#DejaVuSans-69" x="231.152344"/>
     <use xlink:href="#DejaVuSans-6d" x="258.935547"/>
     <use xlink:href="#DejaVuSans-61" x="356.347656"/>
     <use xlink:href="#DejaVuSans-70" x="417.626953"/>
     <use xlink:href="#DejaVuSans-20" x="481.103516"/>
     <use xlink:href="#DejaVuSans-52" x="512.890625"/>
     <use xlink:href="#DejaVuSans-4e" x="582.373047"/>
     <use xlink:href="#DejaVuSans-41" x="657.177734"/>
     <use xlink:href="#DejaVuSans-73" x="725.585938"/>
     <use xlink:href="#DejaVuSans-65" x="777.685547"/>
     <use xlink:href="#DejaVuSans-71" x="839.208984"/>
     <use xlink:href="#DejaVuSans-3a" x="902.685547"/>
     <use xlink:href="#DejaVuSans-20" x="936.376953"/>
     <use xlink:href="#DejaVuSans-43" x="968.164062"/>
     <use xlink:href="#DejaVuSans-6f" x="1037.988281"/>
     <use xlink:href="#DejaVuSans-76" x="1099.169922"/>
     <use xlink:href="#DejaVuSans-65" x="1158.349609"/>
     <use xlink:href="#DejaVuSans-72" x="1219.873047"/>
     <use xlink:href="#DejaVuSans-61" x="1260.986328"/>
     <use xlink:href="#DejaVuSans-67" x="1322.265625"/>
     <use xlink:href="#DejaVuSans-65" x="1385.742188"/>
     <use xlink:href="#DejaVuSans-20" x="1447.265625"/>
     <use xlink:href="#DejaVuSans-50" x="1479.052734"/>
     <use xlink:href="#DejaVuSans-72" x="1537.605469"/>
     <use xlink:href="#DejaVuSans-6f" x="1576.46875"/>
     <use xlink:href="#DejaVuSans-66" x="1637.650391"/>
     <use xlink:href="#DejaVuSans-69" x="1672.855469"/>
     <use xlink:href="#DejaVuSans-6c" x="1700.638672"/>
     <use xlink:href="#DejaVuSans-65" x="1728.421875"/>
     <use xlink:href="#DejaVuSans-20" x="1789.945312"/>
     <use xlink:href="#DejaVuSans-41" x="1821.732422"/>
     <use xlink:href="#DejaVuSans-6c" x="1890.140625"/>
     <use xlink:href="#DejaVuSans-6f" x="1917.923828"/>
     <use xlink:href="#DejaVuSans-6e" x="1979.105469"/>
     <use xlink:href="#DejaVuSans-67" x="2042.484375"/>
     <use xlink:href="#DejaVuSans-20" x="2105.960938"/>
     <use xlink:href="#DejaVuSans-47" x="2137.748047"/>
     <use xlink:href="#DejaVuSans-65" x="2215.238281"/>
     <use xlink:href="#DejaVuSans-6e" x="2276.761719"/>
     <use xlink:href="#DejaVuSans-65" x="2340.140625"/>
     <use xlink:href="#DejaVuSans-73" x="2401.664062"/>
     <use xlink:href="#DejaVuSans-20" x="2453.763672"/>
     <use xlink:href="#DejaVuSans-28" x="2485.550781"/>
     <use xlink:href="#DejaVuSans-74" x="2524.564453"/>
     <use xlink:href="#DejaVuSans-6f" x="2563.773438"/>
     <use xlink:href="#DejaVuSans-74" x="2624.955078"/>
     <use xlink:href="#DejaVuSans-61" x="2664.164062"/>
     <use xlink:href="#DejaVuSans-6c" x="2725.443359"/>
     <use xlink:href="#DejaVuSans-29" x="2753.226562"/>
    </g>
   </g>
  </g>
 </g>
 <defs>
  <clipPath id="p81a88b81b2">
   <rect x="53.328125" y="35.2559" width="931.975" height="317.968"/>
  </clipPath>
 </defs>
</svg>
